<svg width="1920" height="1151" viewBox="0 0 1920 1151" fill="none" xmlns="http://www.w3.org/2000/svg">
<g filter="url(#filter0_d_783_36237)">
<rect x="-1" width="1921" height="1151" fill="url(#paint0_linear_783_36237)" shape-rendering="crispEdges"/>
</g>
<g opacity="0.6" filter="url(#filter1_d_783_36237)">
<path d="M1525.6 389.291C1203.86 389.785 942.642 184.525 942.016 -69.0457C941.391 -322.616 1201.59 -528.676 1523.34 -529.169C1845.08 -529.663 2106.29 -324.403 2106.92 -70.8323C2107.55 182.738 1847.34 388.798 1525.6 389.291Z" stroke="#7382FF" stroke-width="0.531413"/>
<path d="M1588.81 389.194C1267.07 389.688 1005.85 184.428 1005.23 -69.1424C1004.6 -322.713 1264.8 -528.772 1586.55 -529.266C1908.29 -529.759 2169.5 -324.499 2170.13 -70.929C2170.76 182.641 1910.55 388.701 1588.81 389.194Z" stroke="#7382FF" stroke-width="0.531413"/>
<path d="M980.66 187.575L966.77 178.018L966.568 177.879L966.333 177.942L949.037 182.573L961.046 171.72L961.209 171.573L961.123 171.373L955.196 157.609L969.086 167.165L969.288 167.304L969.523 167.241L986.818 162.61L974.81 173.463L974.647 173.611L974.733 173.811L980.66 187.575Z" fill="#4C6EF6" stroke="#7382FF" stroke-width="0.807747"/>
</g>
<defs>
<filter id="filter0_d_783_36237" x="-5" y="0" width="1929" height="1159" filterUnits="userSpaceOnUse" color-interpolation-filters="sRGB">
<feFlood flood-opacity="0" result="BackgroundImageFix"/>
<feColorMatrix in="SourceAlpha" type="matrix" values="0 0 0 0 0 0 0 0 0 0 0 0 0 0 0 0 0 0 127 0" result="hardAlpha"/>
<feOffset dy="4"/>
<feGaussianBlur stdDeviation="2"/>
<feComposite in2="hardAlpha" operator="out"/>
<feColorMatrix type="matrix" values="0 0 0 0 0 0 0 0 0 0 0 0 0 0 0 0 0 0 0.25 0"/>
<feBlend mode="normal" in2="BackgroundImageFix" result="effect1_dropShadow_783_36237"/>
<feBlend mode="normal" in="SourceGraphic" in2="effect1_dropShadow_783_36237" result="shape"/>
</filter>
<filter id="filter1_d_783_36237" x="937.749" y="-529.533" width="1236.65" height="927.091" filterUnits="userSpaceOnUse" color-interpolation-filters="sRGB">
<feFlood flood-opacity="0" result="BackgroundImageFix"/>
<feColorMatrix in="SourceAlpha" type="matrix" values="0 0 0 0 0 0 0 0 0 0 0 0 0 0 0 0 0 0 127 0" result="hardAlpha"/>
<feOffset dy="4"/>
<feGaussianBlur stdDeviation="2"/>
<feComposite in2="hardAlpha" operator="out"/>
<feColorMatrix type="matrix" values="0 0 0 0 0 0 0 0 0 0 0 0 0 0 0 0 0 0 0.25 0"/>
<feBlend mode="normal" in2="BackgroundImageFix" result="effect1_dropShadow_783_36237"/>
<feBlend mode="normal" in="SourceGraphic" in2="effect1_dropShadow_783_36237" result="shape"/>
</filter>
<linearGradient id="paint0_linear_783_36237" x1="272.142" y1="804.109" x2="2105.94" y2="897.615" gradientUnits="userSpaceOnUse">
<stop stop-color="#00030E"/>
<stop offset="0.397036" stop-color="#02011E" stop-opacity="0.89"/>
<stop offset="0.671875" stop-color="#091A65" stop-opacity="0.95"/>
<stop offset="1" stop-color="#0A194E"/>
</linearGradient>
</defs>
</svg>
