<svg width="56" height="34" viewBox="0 0 56 34" fill="none" xmlns="http://www.w3.org/2000/svg">
<path fill-rule="evenodd" clip-rule="evenodd" d="M15.7815 12.1622C15.7815 12.8512 15.856 13.41 15.9864 13.8198C16.1354 14.2295 16.3216 14.6765 16.5824 15.1607C16.6755 15.3097 16.7127 15.4587 16.7127 15.5891C16.7127 15.7754 16.601 15.9616 16.3589 16.1479L15.1855 16.9301C15.0179 17.0419 14.8503 17.0977 14.7013 17.0977C14.515 17.0977 14.3288 17.0046 14.1425 16.837C13.8817 16.5576 13.6583 16.2597 13.472 15.9616C13.2858 15.645 13.0995 15.2911 12.8947 14.8628C11.4418 16.5762 9.6166 17.433 7.4189 17.433C5.85439 17.433 4.60651 16.986 3.69389 16.092C2.78126 15.198 2.31564 14.006 2.31564 12.516C2.31564 10.9329 2.87438 9.6477 4.01052 8.6793C5.14664 7.7108 6.6553 7.2265 8.5736 7.2265C9.2069 7.2265 9.8588 7.2824 10.5479 7.3755C11.237 7.4686 11.9447 7.6176 12.6898 7.7852V6.4256C12.6898 5.0101 12.3918 4.023 11.8144 3.4456C11.2184 2.8682 10.2127 2.5889 8.7785 2.5889C8.1266 2.5889 7.4561 2.6634 6.767 2.831C6.0779 2.9986 5.40739 3.2035 4.75552 3.4643C4.45751 3.5946 4.23401 3.6691 4.10364 3.7064C3.97326 3.7436 3.88014 3.7623 3.80564 3.7623C3.54489 3.7623 3.41451 3.576 3.41451 3.1849V2.2723C3.41451 1.9743 3.45176 1.7507 3.54489 1.6204C3.63802 1.49 3.80564 1.3596 4.06639 1.2293C4.71827 0.894 5.50051 0.6146 6.4131 0.3911C7.3258 0.149 8.2943 0.0372 9.3186 0.0372C11.535 0.0372 13.1554 0.5401 14.1984 1.5459C15.2228 2.5516 15.7443 4.0789 15.7443 6.1276V12.1622H15.7815ZM8.2198 14.9932C8.8344 14.9932 9.4676 14.8814 10.1381 14.6579C10.8086 14.4343 11.4046 14.0246 11.9075 13.4659C12.2055 13.112 12.429 12.7209 12.5408 12.2739C12.6525 11.8269 12.727 11.2868 12.727 10.6535V9.8713C12.1869 9.7409 11.6095 9.6291 11.0135 9.5546C10.4175 9.4801 9.8401 9.4429 9.2627 9.4429C8.0149 9.4429 7.1023 9.685 6.4876 10.1878C5.87301 10.6907 5.57501 11.3985 5.57501 12.3297C5.57501 13.2051 5.79851 13.857 6.2641 14.304C6.7111 14.7696 7.363 14.9932 8.2198 14.9932ZM23.1757 17.0046C22.8404 17.0046 22.6169 16.9488 22.4679 16.8184C22.3189 16.7066 22.1885 16.4459 22.0768 16.092L17.6999 1.6949C17.5881 1.3224 17.5323 1.0802 17.5323 0.9499C17.5323 0.6519 17.6813 0.4843 17.9792 0.4843H19.8045C20.1584 0.4843 20.4005 0.5401 20.5309 0.6705C20.6799 0.7822 20.7916 1.043 20.9034 1.3969L24.0324 13.7266L26.9379 1.3969C27.031 1.0244 27.1427 0.7822 27.2918 0.6705C27.4408 0.5588 27.7015 0.4843 28.0367 0.4843H29.5268C29.8807 0.4843 30.1228 0.5401 30.2718 0.6705C30.4208 0.7822 30.5511 1.043 30.6256 1.3969L33.5683 13.8756L36.7905 1.3969C36.9022 1.0244 37.0326 0.7822 37.163 0.6705C37.312 0.5588 37.5541 0.4843 37.8894 0.4843H39.6215C39.9195 0.4843 40.0871 0.6333 40.0871 0.9499C40.0871 1.0294 40.0735 1.109 40.058 1.2001L40.0499 1.2479C40.0313 1.3596 39.994 1.5086 39.9195 1.7135L35.4309 16.1106C35.3191 16.4831 35.1888 16.7252 35.0398 16.837C34.8908 16.9488 34.6487 17.0232 34.332 17.0232H32.7303C32.3764 17.0232 32.1342 16.9674 31.9853 16.837C31.8363 16.7066 31.7059 16.4645 31.6314 16.092L28.7445 4.0789L25.8763 16.0734C25.7832 16.4459 25.6714 16.688 25.5224 16.8184C25.3734 16.9488 25.1127 17.0046 24.7774 17.0046H23.1757ZM47.1087 17.5075C46.1403 17.5075 45.1717 17.3957 44.2405 17.1723C43.3093 16.9488 42.5828 16.7066 42.0987 16.4273C41.8006 16.2596 41.5958 16.0734 41.5212 15.9058C41.4468 15.7381 41.4095 15.5519 41.4095 15.3843V14.4343C41.4095 14.0432 41.5585 13.857 41.8379 13.857C41.9496 13.857 42.0614 13.8756 42.1731 13.9128C42.2451 13.9369 42.3404 13.9764 42.4488 14.0213C42.5086 14.0461 42.5726 14.0726 42.6388 14.0991C43.272 14.3785 43.9611 14.602 44.6875 14.751C45.4325 14.9 46.1589 14.9745 46.9039 14.9745C48.0772 14.9745 48.9899 14.7696 49.6231 14.3599C50.2564 13.9502 50.5917 13.3541 50.5917 12.5905C50.5917 12.069 50.424 11.6407 50.0888 11.2868C49.7535 10.9329 49.1202 10.6163 48.2076 10.3182L45.507 9.4801C44.1474 9.0518 43.1417 8.4185 42.527 7.5804C41.9124 6.7609 41.5958 5.8483 41.5958 4.8798C41.5958 4.0975 41.7634 3.4084 42.0987 2.8124C42.4339 2.2164 42.8809 1.6949 43.4396 1.2851C43.9983 0.856801 44.6316 0.5401 45.3766 0.3166C46.1216 0.0930998 46.9039 0 47.7234 0C48.1331 0 48.5615 0.0186001 48.9713 0.0745001C49.3996 0.1304 49.7907 0.2049 50.1818 0.2794C50.5544 0.3725 50.9082 0.4656 51.2435 0.5774C51.5787 0.6891 51.8395 0.8009 52.0258 0.9126C52.2865 1.0616 52.4727 1.2106 52.5845 1.3783C52.6963 1.5272 52.7521 1.7321 52.7521 1.9929V2.8682C52.7521 3.2594 52.6031 3.4643 52.3238 3.4643C52.1748 3.4643 51.9326 3.3898 51.616 3.2407C50.5543 2.7565 49.3624 2.5144 48.04 2.5144C46.9784 2.5144 46.1403 2.682 45.5629 3.0359C44.9855 3.3898 44.6875 3.9299 44.6875 4.6935C44.6875 5.215 44.8737 5.662 45.2463 6.0159C45.6188 6.3697 46.3079 6.7236 47.295 7.0402L49.9398 7.8784C51.2808 8.3068 52.2492 8.9027 52.8266 9.6663C53.404 10.43 53.6834 11.3054 53.6834 12.2739C53.6834 13.0748 53.5157 13.8011 53.1991 14.4343C52.8639 15.0676 52.4169 15.6264 51.8395 16.0734C51.2622 16.539 50.573 16.8742 49.7721 17.1164C48.934 17.3771 48.0586 17.5075 47.1087 17.5075ZM50.6287 26.5599C44.5011 31.0857 35.5984 33.4884 27.9434 33.4884C17.2155 33.4884 7.5491 29.5212 0.248091 22.928C-0.329289 22.4065 0.192212 21.6988 0.881342 22.1085C8.7783 26.6902 18.5192 29.4654 28.5953 29.4654C35.3934 29.4654 42.8621 28.0499 49.7347 25.1444C50.7591 24.6788 51.6344 25.8149 50.6287 26.5599ZM46.0098 23.412C48.0026 23.1698 52.3981 22.6483 53.1803 23.6541C53.9626 24.6413 52.305 28.7946 51.56 30.6385C51.3365 31.1973 51.8207 31.4207 52.3236 30.9924C55.6016 28.2359 56.4584 22.4808 55.7879 21.6426C55.1173 20.8231 49.3622 20.1154 45.8608 22.5739C45.3206 22.965 45.4137 23.4865 46.0098 23.412Z" fill="black"/>
</svg>
