<svg width="1920" height="1151" viewBox="0 0 1920 1151" fill="none" xmlns="http://www.w3.org/2000/svg">
<g clip-path="url(#clip0_541_49017)">
<rect x="-1" width="1921" height="1151" fill="url(#paint0_linear_541_49017)"/>
<g opacity="0.6">
<path d="M1525.6 389.291C1203.86 389.785 942.642 184.525 942.016 -69.0457C941.391 -322.616 1201.59 -528.676 1523.34 -529.169C1845.08 -529.663 2106.29 -324.403 2106.92 -70.8323C2107.55 182.738 1847.34 388.798 1525.6 389.291Z" stroke="#7382FF" stroke-width="0.531413"/>
<path d="M1588.81 389.194C1267.07 389.688 1005.85 184.428 1005.23 -69.1424C1004.6 -322.713 1264.8 -528.772 1586.55 -529.266C1908.29 -529.759 2169.5 -324.499 2170.13 -70.929C2170.76 182.642 1910.55 388.701 1588.81 389.194Z" stroke="#7382FF" stroke-width="0.531413"/>
<path d="M980.66 187.575L966.77 178.018L966.568 177.879L966.333 177.942L949.037 182.573L961.046 171.72L961.209 171.573L961.123 171.372L955.196 157.608L969.086 167.165L969.288 167.304L969.523 167.241L986.818 162.61L974.81 173.463L974.647 173.61L974.733 173.811L980.66 187.575Z" fill="#4C6EF6" stroke="#7382FF" stroke-width="0.807747"/>
</g>
</g>
<defs>
<linearGradient id="paint0_linear_541_49017" x1="272.142" y1="804.109" x2="2105.94" y2="897.615" gradientUnits="userSpaceOnUse">
<stop stop-color="#00030E"/>
<stop offset="0.397036" stop-color="#02011E" stop-opacity="0.89"/>
<stop offset="0.671875" stop-color="#091A65" stop-opacity="0.95"/>
<stop offset="1" stop-color="#0A194E"/>
</linearGradient>
<clipPath id="clip0_541_49017">
<rect width="1922" height="1151" fill="white" transform="translate(-1)"/>
</clipPath>
</defs>
</svg>
