<svg width="19" height="19" viewBox="0 0 19 19" fill="none" xmlns="http://www.w3.org/2000/svg">
<path d="M9.50039 16.6678C5.45039 16.6678 2.15039 13.3678 2.15039 9.31785C2.15039 5.26785 5.45039 2.04285 9.50039 2.04285C13.5504 2.04285 16.8504 5.34285 16.8504 9.39285C16.8504 13.4428 13.5504 16.6678 9.50039 16.6678ZM9.50039 3.16785C6.12539 3.16785 3.27539 5.94285 3.27539 9.39285C3.27539 12.8428 6.05039 15.6178 9.50039 15.6178C12.9504 15.6178 15.7254 12.8428 15.7254 9.39285C15.7254 5.94285 12.8754 3.16785 9.50039 3.16785Z" fill="#7D8387"/>
<path d="M13.4754 9.91787H9.50039C9.20039 9.91787 8.90039 9.69287 8.90039 9.31787V5.41787C8.97539 5.04287 9.20039 4.81787 9.50039 4.81787C9.80039 4.81787 10.1004 5.04287 10.1004 5.41787V8.79287H13.4754C13.7754 8.79287 14.0754 9.01787 14.0754 9.39287C14.0754 9.76787 13.7754 9.91787 13.4754 9.91787Z" fill="#7D8387"/>
</svg>
