<svg width="181" height="34" viewBox="0 0 181 34" fill="none" xmlns="http://www.w3.org/2000/svg">
<path fill-rule="evenodd" clip-rule="evenodd" d="M76.9071 18.355C76.9071 20.6796 76.435 22.8857 75.5883 24.8682C77.1565 22.4332 78.0664 19.5342 78.0664 16.4226C78.0664 7.79681 71.0738 0.804199 62.448 0.804199C53.8222 0.804199 46.8296 7.79681 46.8296 16.4226C46.8296 19.2959 47.6054 21.9879 48.9591 24.3006C48.2572 22.4679 47.87 20.4601 47.87 18.355C47.87 9.72916 54.3702 2.73655 62.3886 2.73655C70.4069 2.73655 76.9071 9.72916 76.9071 18.355ZM144.274 10.7951L144.728 11.7679L153.795 31.1854L154.067 31.795H153.38H151.175H150.876L150.747 31.5226L144.274 17.099L137.737 31.5226L137.607 31.795H137.309H135.104H134.416L134.689 31.1854L143.833 11.7679L144.274 10.7951ZM63.1516 11.7679L62.6976 10.7951L62.2566 11.7679L53.1121 31.1854L52.8397 31.795H53.5271H55.7322H56.0305L56.1602 31.5227L62.6976 17.099L69.1702 31.5227L69.2999 31.795H69.5982H71.8033H72.4908L72.2184 31.1854L63.1516 11.7679ZM10.4027 31.6005C9.49472 31.9031 8.53054 32.0545 7.51016 32.0545C6.02283 32.0545 4.63062 31.8037 3.33353 31.3021C2.1575 30.8006 1.13712 30.0137 0.272389 28.9414L0 28.5912L0.337244 28.3059L1.78999 27.0866L2.15317 26.7883L2.4515 27.1644C2.97899 27.8562 3.69671 28.4096 4.60468 28.8247C5.49535 29.2398 6.48114 29.4473 7.56205 29.4473C8.20195 29.4473 8.77267 29.3608 9.27421 29.1879C9.7844 29.0149 10.2124 28.7858 10.5583 28.5004C10.9129 28.2151 11.1853 27.8778 11.3755 27.4887C11.5484 27.0996 11.6349 26.6758 11.6349 26.2175C11.6349 25.8198 11.5614 25.4782 11.4144 25.1928C11.2415 24.8902 11.0123 24.6264 10.727 24.4016C10.4329 24.1595 10.0784 23.952 9.66334 23.779C9.22233 23.5888 8.76402 23.4115 8.28842 23.2472L5.72018 22.4171C5.08893 22.2095 4.48794 21.9717 3.91722 21.7037C3.3292 21.4183 2.83198 21.0681 2.42556 20.653C2.01914 20.2379 1.69487 19.7623 1.45274 19.2262C1.20197 18.6728 1.07659 18.0329 1.07659 17.3065C1.07659 16.5715 1.23656 15.8884 1.55651 15.2571C1.87646 14.6259 2.31315 14.0811 2.86657 13.6228C3.45459 13.1731 4.16367 12.8142 4.99381 12.5462C5.83259 12.2695 6.73191 12.1311 7.69176 12.1311C9.05803 12.1311 10.2081 12.3084 11.142 12.6629C11.9722 13.0088 12.7418 13.4931 13.4508 14.1157L13.7881 14.414L13.4898 14.7512L12.2705 16.1521L11.9592 16.5153L11.6219 16.178C11.1031 15.7284 10.5281 15.3825 9.89682 15.1404C9.27421 14.8982 8.53919 14.7772 7.69176 14.7772C7.17292 14.7772 6.69732 14.842 6.26496 14.9717C5.84124 15.1015 5.46941 15.2874 5.14946 15.5295C4.82951 15.7716 4.57874 16.0483 4.39714 16.3596C4.2242 16.6709 4.13772 17.0125 4.13772 17.3843C4.13772 17.7302 4.21123 18.0242 4.35823 18.2664C4.50523 18.5344 4.70845 18.7679 4.96786 18.9668C5.22728 19.183 5.54291 19.3732 5.91474 19.5375C6.30387 19.7105 6.71461 19.8704 7.14698 20.0174L9.6374 20.8476C10.2946 21.0724 10.9258 21.3275 11.5312 21.6129C12.1019 21.9069 12.6077 22.2657 13.0487 22.6894C13.5071 23.1218 13.8702 23.632 14.1383 24.22C14.415 24.8167 14.5534 25.5128 14.5534 26.3083C14.5534 27.1212 14.3804 27.8778 14.0345 28.5783C13.6886 29.27 13.2174 29.8753 12.6207 30.3942C12.0154 30.913 11.2761 31.3151 10.4027 31.6005ZM23.4278 12.4035H23.8818H30.445C31.1974 12.4035 31.9237 12.4597 32.6242 12.5721C33.3332 12.6845 33.9645 12.8575 34.5179 13.091C35.4691 13.5752 36.2647 14.2713 36.9046 15.1793C37.5618 16.1132 37.8903 17.2417 37.8903 18.5647C37.8903 19.3257 37.7866 20.0304 37.579 20.679C37.3715 21.3275 37.0905 21.9069 36.7359 22.4171C36.3814 22.9186 35.975 23.3466 35.5167 23.7012C35.0584 24.073 34.5352 24.3497 33.9472 24.5313C33.4456 24.6783 32.9052 24.7778 32.3258 24.8297C31.7724 24.8729 31.1066 24.8945 30.3283 24.8945H26.3592V31.3411V31.795H25.9052H23.8818H23.4278V31.3411V12.8575V12.4035ZM26.3592 22.2614H30.3542C30.9336 22.2614 31.3919 22.2528 31.7292 22.2355C32.0405 22.2182 32.3777 22.1576 32.7409 22.0539C33.0349 21.976 33.3116 21.8377 33.571 21.6388C33.8391 21.4399 34.0812 21.1935 34.2974 20.8995C34.5136 20.5968 34.6822 20.2509 34.8033 19.8618C34.9157 19.4727 34.9719 19.0576 34.9719 18.6166C34.9719 17.7864 34.7989 17.1206 34.4531 16.6191C34.0812 16.1089 33.6229 15.7284 33.0781 15.4776C32.4555 15.1836 31.5778 15.0366 30.445 15.0366H26.3592V22.2614ZM90.0474 31.795H89.5934H87.5699H87.1159V31.3411V12.8575V12.4035H87.5699H94.9244C95.6421 12.4035 96.3382 12.4511 97.0127 12.5462C97.7045 12.65 98.3487 12.8315 98.9454 13.091C99.9917 13.5579 100.826 14.2627 101.449 15.2052C102.071 16.1478 102.383 17.246 102.383 18.4998C102.383 19.3992 102.236 20.2163 101.942 20.9513C101.648 21.6864 101.267 22.3176 100.8 22.8451C100.325 23.3726 99.7669 23.7877 99.127 24.0903C98.7206 24.2806 98.3098 24.4232 97.8948 24.5184C98.6644 25.5387 99.408 26.5505 100.126 27.5535C100.93 28.7382 101.73 29.9316 102.525 31.1335L102.966 31.795H102.136H99.7237H99.4383L99.2956 31.5875C98.4309 30.4288 97.5705 29.27 96.7144 28.1113C95.8583 26.9526 95.0023 25.7852 94.1462 24.6091L94.0683 24.5054V24.3757V22.7413V22.3133H94.5742C95.2141 22.3133 95.72 22.3046 96.0918 22.2874C96.429 22.2701 96.8052 22.2095 97.2203 22.1058C97.5229 22.0279 97.7996 21.8853 98.0504 21.6777C98.3271 21.4615 98.5649 21.2021 98.7638 20.8995C98.9627 20.5968 99.1184 20.2509 99.2308 19.8618C99.3518 19.464 99.4124 19.0576 99.4124 18.6425C99.4124 17.8556 99.2437 17.2027 98.9065 16.6839C98.5692 16.1651 98.1153 15.7673 97.5445 15.4906C97.19 15.3263 96.8009 15.2095 96.3772 15.1404C95.9275 15.0712 95.4433 15.0366 94.9244 15.0366H90.0474V31.3411V31.795ZM116.772 15.0366V31.3411V31.795H117.291H119.574H120.093V31.3411V15.0366H125.047H125.501V14.5826V12.8575V12.4035H125.047H111.791H111.337V12.8575V14.5826V15.0366H111.791H116.772ZM163.658 11.9106L162.867 11.0545V12.2219V31.3411V31.795H163.321H165.344H165.798V31.3411V17.6048L180.209 32.3398L181 33.1959V32.0285V12.8575V12.4035H180.546H178.523H178.069V12.8575V26.6196L163.658 11.9106Z" fill="#0D1027"/>
</svg>
