<svg width="182" height="34" viewBox="0 0 182 34" fill="none" xmlns="http://www.w3.org/2000/svg">
<path fill-rule="evenodd" clip-rule="evenodd" d="M77.4071 18.355C77.4071 20.6796 76.935 22.8857 76.0883 24.8682C77.6565 22.4332 78.5664 19.5342 78.5664 16.4226C78.5664 7.79681 71.5738 0.804199 62.948 0.804199C54.3222 0.804199 47.3296 7.79681 47.3296 16.4226C47.3296 19.2959 48.1054 21.9879 49.4591 24.3006C48.7572 22.4679 48.37 20.4601 48.37 18.355C48.37 9.72916 54.8702 2.73655 62.8886 2.73655C70.9069 2.73655 77.4071 9.72916 77.4071 18.355ZM144.774 10.7951L145.228 11.7679L154.295 31.1854L154.567 31.795H153.88H151.675H151.376L151.247 31.5226L144.774 17.099L138.237 31.5226L138.107 31.795H137.809H135.604H134.916L135.189 31.1854L144.333 11.7679L144.774 10.7951ZM63.6516 11.7679L63.1976 10.7951L62.7566 11.7679L53.6121 31.1854L53.3397 31.795H54.0271H56.2322H56.5305L56.6602 31.5227L63.1976 17.099L69.6702 31.5227L69.7999 31.795H70.0982H72.3033H72.9908L72.7184 31.1854L63.6516 11.7679ZM10.9027 31.6005C9.99472 31.9031 9.03054 32.0545 8.01016 32.0545C6.52283 32.0545 5.13062 31.8037 3.83353 31.3021C2.6575 30.8006 1.63712 30.0137 0.772389 28.9414L0.5 28.5912L0.837244 28.3059L2.28999 27.0866L2.65317 26.7883L2.9515 27.1644C3.47899 27.8562 4.19671 28.4096 5.10468 28.8247C5.99535 29.2398 6.98114 29.4473 8.06205 29.4473C8.70195 29.4473 9.27267 29.3608 9.77421 29.1879C10.2844 29.0149 10.7124 28.7858 11.0583 28.5004C11.4129 28.2151 11.6853 27.8778 11.8755 27.4887C12.0484 27.0996 12.1349 26.6758 12.1349 26.2175C12.1349 25.8198 12.0614 25.4782 11.9144 25.1928C11.7415 24.8902 11.5123 24.6264 11.227 24.4016C10.9329 24.1595 10.5784 23.952 10.1633 23.779C9.72233 23.5888 9.26402 23.4115 8.78842 23.2472L6.22018 22.4171C5.58893 22.2095 4.98794 21.9717 4.41722 21.7037C3.8292 21.4183 3.33198 21.0681 2.92556 20.653C2.51914 20.2379 2.19487 19.7623 1.95274 19.2262C1.70197 18.6728 1.57659 18.0329 1.57659 17.3065C1.57659 16.5715 1.73656 15.8884 2.05651 15.2571C2.37646 14.6259 2.81315 14.0811 3.36657 13.6228C3.95459 13.1731 4.66367 12.8142 5.49381 12.5462C6.33259 12.2695 7.23191 12.1311 8.19176 12.1311C9.55803 12.1311 10.7081 12.3084 11.642 12.6629C12.4722 13.0088 13.2418 13.4931 13.9508 14.1157L14.2881 14.414L13.9898 14.7512L12.7705 16.1521L12.4592 16.5153L12.1219 16.178C11.6031 15.7284 11.0281 15.3825 10.3968 15.1404C9.77421 14.8982 9.03919 14.7772 8.19176 14.7772C7.67292 14.7772 7.19732 14.842 6.76496 14.9717C6.34124 15.1015 5.96941 15.2874 5.64946 15.5295C5.32951 15.7716 5.07874 16.0483 4.89714 16.3596C4.7242 16.6709 4.63772 17.0125 4.63772 17.3843C4.63772 17.7302 4.71123 18.0242 4.85823 18.2664C5.00523 18.5344 5.20845 18.7679 5.46786 18.9668C5.72728 19.183 6.04291 19.3732 6.41474 19.5375C6.80387 19.7105 7.21461 19.8704 7.64698 20.0174L10.1374 20.8476C10.7946 21.0724 11.4258 21.3275 12.0312 21.6129C12.6019 21.9069 13.1077 22.2657 13.5487 22.6895C14.0071 23.1218 14.3702 23.632 14.6383 24.22C14.915 24.8167 15.0534 25.5128 15.0534 26.3083C15.0534 27.1212 14.8804 27.8778 14.5345 28.5783C14.1886 29.27 13.7174 29.8753 13.1207 30.3942C12.5154 30.913 11.7761 31.3151 10.9027 31.6005ZM23.9278 12.4035H24.3818H30.945C31.6974 12.4035 32.4237 12.4597 33.1242 12.5721C33.8332 12.6845 34.4645 12.8575 35.0179 13.091C35.9691 13.5752 36.7647 14.2713 37.4046 15.1793C38.0618 16.1132 38.3903 17.2417 38.3903 18.5647C38.3903 19.3257 38.2866 20.0304 38.079 20.679C37.8715 21.3275 37.5905 21.9069 37.2359 22.4171C36.8814 22.9186 36.475 23.3466 36.0167 23.7012C35.5584 24.073 35.0352 24.3497 34.4472 24.5313C33.9456 24.6783 33.4052 24.7778 32.8258 24.8297C32.2724 24.8729 31.6066 24.8945 30.8283 24.8945H26.8592V31.3411V31.795H26.4052H24.3818H23.9278V31.3411V12.8575V12.4035ZM26.8592 22.2614H30.8542C31.4336 22.2614 31.8919 22.2528 32.2292 22.2355C32.5405 22.2182 32.8777 22.1576 33.2409 22.0539C33.5349 21.976 33.8116 21.8377 34.071 21.6388C34.3391 21.4399 34.5812 21.1935 34.7974 20.8995C35.0136 20.5968 35.1822 20.2509 35.3033 19.8618C35.4157 19.4727 35.4719 19.0576 35.4719 18.6166C35.4719 17.7864 35.2989 17.1206 34.9531 16.6191C34.5812 16.1089 34.1229 15.7284 33.5781 15.4776C32.9555 15.1836 32.0778 15.0366 30.945 15.0366H26.8592V22.2614ZM90.5474 31.795H90.0934H88.0699H87.6159V31.3411V12.8575V12.4035H88.0699H95.4244C96.1421 12.4035 96.8382 12.4511 97.5127 12.5462C98.2045 12.65 98.8487 12.8315 99.4454 13.091C100.492 13.5579 101.326 14.2627 101.949 15.2052C102.571 16.1478 102.883 17.246 102.883 18.4998C102.883 19.3992 102.736 20.2163 102.442 20.9513C102.148 21.6864 101.767 22.3176 101.3 22.8451C100.825 23.3726 100.267 23.7877 99.627 24.0903C99.2206 24.2806 98.8098 24.4232 98.3948 24.5184C99.1644 25.5387 99.908 26.5505 100.626 27.5535C101.43 28.7382 102.23 29.9316 103.025 31.1335L103.466 31.795H102.636H100.224H99.9383L99.7956 31.5875C98.9309 30.4288 98.0705 29.27 97.2144 28.1113C96.3583 26.9526 95.5023 25.7852 94.6462 24.6091L94.5683 24.5054V24.3757V22.7413V22.3133H95.0742C95.7141 22.3133 96.22 22.3046 96.5918 22.2874C96.929 22.2701 97.3052 22.2095 97.7203 22.1058C98.0229 22.0279 98.2996 21.8853 98.5504 21.6777C98.8271 21.4615 99.0649 21.2021 99.2638 20.8995C99.4627 20.5968 99.6184 20.2509 99.7308 19.8618C99.8518 19.464 99.9124 19.0576 99.9124 18.6425C99.9124 17.8556 99.7437 17.2027 99.4065 16.6839C99.0692 16.1651 98.6153 15.7673 98.0445 15.4906C97.69 15.3263 97.3009 15.2095 96.8772 15.1404C96.4275 15.0712 95.9433 15.0366 95.4244 15.0366H90.5474V31.3411V31.795ZM117.272 15.0366V31.3411V31.795H117.791H120.074H120.593V31.3411V15.0366H125.547H126.001V14.5826V12.8575V12.4035H125.547H112.291H111.837V12.8575V14.5826V15.0366H112.291H117.272ZM164.158 11.9106L163.367 11.0545V12.2219V31.3411V31.795H163.821H165.844H166.298V31.3411V17.6048L180.709 32.3398L181.5 33.1959V32.0285V12.8575V12.4035H181.046H179.023H178.569V12.8575V26.6196L164.158 11.9106Z" fill="white"/>
</svg>
