<svg width="136" height="60" viewBox="0 0 706 298" fill="none" xmlns="http://www.w3.org/2000/svg">
<path d="M201.755 121.877C194.823 95.3428 160.576 67.744 123.465 67.744C101.837 67.744 81.0944 75.6617 65.8011 89.7554C50.5077 103.849 41.916 122.964 41.916 142.895V244.73L60.4025 229.823V183.719L120.253 129.714C120.253 129.714 122.864 186.764 74.175 207.463V297.202L141.836 231.633V167.747C141.836 148.986 151.657 120.429 201.755 121.877Z" fill="black"/>
<path d="M163.446 17.2505L151.892 31.7527L158.824 14.8654C142.942 7.04253 125.443 2.40505 107.478 1.2577L102.509 22.5531L98.8815 0.93827H98.2807C78.9865 0.924029 59.9391 4.93555 42.567 12.672L51.3943 42.2939L31.9603 17.9533C20.3055 24.462 9.83952 32.6265 0.949219 42.1448L46.3798 84.2458C57.8943 71.4789 72.9239 61.802 89.8928 56.2296C106.862 50.6572 125.145 49.3945 142.825 52.5739C160.506 55.7534 176.933 63.2579 190.384 74.3006C203.834 85.3433 213.813 99.5175 219.275 115.337L226.438 112.526C225.263 93.0931 218.898 74.2284 207.909 57.6074C196.92 40.9865 181.646 27.1238 163.446 17.2505Z" fill="#4C6EF6"/>
<path d="M235.481 204.931C235.481 207.651 234.974 210.197 233.962 212.569C232.95 214.91 231.559 216.966 229.788 218.737C228.048 220.476 225.992 221.852 223.62 222.864C221.28 223.876 218.766 224.382 216.077 224.382H156.966V214.657H216.077C217.437 214.657 218.702 214.404 219.873 213.898C221.043 213.392 222.055 212.696 222.909 211.81C223.794 210.925 224.49 209.897 224.996 208.727C225.502 207.525 225.755 206.26 225.755 204.931C225.755 203.603 225.502 202.354 224.996 201.184C224.49 200.013 223.794 198.986 222.909 198.1C222.055 197.214 221.043 196.519 219.873 196.013C218.702 195.507 217.437 195.254 216.077 195.254H176.417C173.76 195.254 171.246 194.747 168.874 193.735C166.502 192.723 164.43 191.348 162.659 189.608C160.92 187.837 159.528 185.765 158.484 183.393C157.472 181.021 156.966 178.491 156.966 175.803C156.966 173.146 157.472 170.632 158.484 168.26C159.528 165.888 160.92 163.832 162.659 162.092C164.43 160.321 166.502 158.93 168.874 157.918C171.246 156.874 173.76 156.352 176.417 156.352H230.642V166.078H176.417C175.089 166.078 173.823 166.331 172.622 166.837C171.451 167.343 170.424 168.038 169.538 168.924C168.652 169.81 167.957 170.853 167.451 172.055C166.945 173.225 166.692 174.475 166.692 175.803C166.692 177.131 166.945 178.396 167.451 179.598C167.957 180.768 168.652 181.796 169.538 182.682C170.424 183.567 171.451 184.263 172.622 184.769C173.823 185.275 175.089 185.528 176.417 185.528H216.077C218.766 185.528 221.28 186.05 223.62 187.094C225.992 188.106 228.048 189.497 229.788 191.268C231.559 193.008 232.95 195.064 233.962 197.436C234.974 199.776 235.481 202.275 235.481 204.931ZM306.879 190.367C306.879 193.024 306.357 195.538 305.313 197.91C304.301 200.251 302.91 202.322 301.138 204.125C299.399 205.896 297.343 207.303 294.971 208.347C292.599 209.391 290.085 209.913 287.428 209.913H260.434V200.282H287.428C288.788 200.282 290.069 200.013 291.271 199.476C292.473 198.938 293.516 198.226 294.402 197.341C295.287 196.424 295.983 195.364 296.489 194.162C296.995 192.961 297.248 191.695 297.248 190.367C297.248 189.007 296.995 187.742 296.489 186.572C295.983 185.37 295.287 184.326 294.402 183.441C293.516 182.555 292.473 181.859 291.271 181.353C290.069 180.816 288.788 180.547 287.428 180.547H255.358V224.382H245.728V170.964H287.428C290.085 170.964 292.599 171.486 294.971 172.529C297.343 173.542 299.399 174.933 301.138 176.704C302.91 178.444 304.301 180.499 305.313 182.871C306.357 185.212 306.879 187.71 306.879 190.367ZM376.996 224.382H367.271V209.723H329.84V199.808H367.271V180.547H341.985C339.613 180.547 337.383 181.006 335.296 181.923C333.208 182.808 331.39 184.026 329.84 185.576C328.29 187.125 327.057 188.944 326.14 191.031C325.254 193.087 324.811 195.301 324.811 197.673V224.382H314.991V197.673C314.991 193.941 315.703 190.446 317.126 187.189C318.549 183.931 320.478 181.085 322.914 178.649C325.349 176.214 328.211 174.301 331.5 172.909C334.79 171.486 338.284 170.774 341.985 170.774H376.996V224.382ZM453.897 224.382H440.661L425.48 209.913H405.793V200.282H432.691C434.051 200.282 435.332 200.013 436.534 199.476C437.736 198.938 438.78 198.226 439.665 197.341C440.551 196.424 441.246 195.364 441.753 194.162C442.259 192.961 442.512 191.695 442.512 190.367C442.512 189.007 442.259 187.742 441.753 186.572C441.246 185.37 440.551 184.326 439.665 183.441C438.78 182.555 437.736 181.859 436.534 181.353C435.332 180.816 434.051 180.547 432.691 180.547H400.716V224.382H390.991V170.964H432.691C435.38 170.964 437.91 171.486 440.282 172.529C442.654 173.542 444.71 174.933 446.449 176.704C448.22 178.444 449.612 180.499 450.624 182.871C451.636 185.212 452.142 187.71 452.142 190.367C452.142 192.549 451.794 194.653 451.098 196.677C450.403 198.669 449.422 200.504 448.157 202.18C446.924 203.824 445.453 205.248 443.745 206.45C442.037 207.651 440.171 208.537 438.147 209.106L453.897 224.382ZM492.941 224.382H483.216V180.547H457.503V170.964H518.606V180.547H492.941V224.382ZM586.589 224.382H576.864V209.723H539.433V199.808H576.864V180.547H551.578C549.206 180.547 546.976 181.006 544.889 181.923C542.801 182.808 540.983 184.026 539.433 185.576C537.883 187.125 536.65 188.944 535.732 191.031C534.847 193.087 534.404 195.301 534.404 197.673V224.382H524.584V197.673C524.584 193.941 525.296 190.446 526.719 187.189C528.142 183.931 530.071 181.085 532.507 178.649C534.942 176.214 537.804 174.301 541.093 172.909C544.382 171.486 547.877 170.774 551.578 170.774H586.589V224.382ZM649.685 224.382C649.685 220.84 649.084 217.408 647.882 214.087C646.712 210.735 645.115 207.588 643.091 204.647C641.098 201.674 638.774 198.906 636.117 196.345C633.492 193.783 630.725 191.506 627.815 189.513C624.905 187.489 621.932 185.797 618.896 184.437C615.891 183.045 613.029 182.018 610.309 181.353V224.382H600.584V170.964H605.85V171.059C609.329 171.249 613.029 172.023 616.951 173.383C620.904 174.712 624.826 176.53 628.716 178.839C632.638 181.116 636.402 183.836 640.007 186.999C643.644 190.13 646.87 193.593 649.685 197.388V170.964H659.363V224.382H649.685Z" fill="black"/>
</svg>
