<svg width="1680" height="872" viewBox="0 0 1680 872" fill="none" xmlns="http://www.w3.org/2000/svg">
<path d="M999.525 363.655C844.306 310.36 719.445 216.337 643.044 107.42C566.643 -1.4979 538.713 -125.294 577.309 -238.163C615.905 -351.033 713.734 -431.648 840.742 -470.723C967.749 -509.799 1123.92 -507.327 1279.13 -454.031C1434.35 -400.735 1559.21 -306.713 1635.62 -197.795C1712.02 -88.8773 1739.95 34.9183 1701.35 147.788C1662.75 260.658 1564.92 341.273 1437.92 380.348C1310.91 419.423 1154.74 416.951 999.525 363.655Z" stroke="#7382FF" stroke-width="0.5"/>
<path d="M1060.51 384.597C905.296 331.301 780.435 237.279 704.034 128.362C627.634 19.444 599.703 -104.352 638.299 -217.222C676.896 -330.091 774.725 -410.706 901.732 -449.782C1028.74 -488.857 1184.91 -486.385 1340.12 -433.089C1495.34 -379.793 1620.2 -285.771 1696.61 -176.853C1773.01 -67.9354 1800.94 55.8602 1762.34 168.73C1723.74 281.6 1625.92 362.215 1498.91 401.29C1371.9 440.365 1215.73 437.893 1060.51 384.597Z" stroke="#7382FF" stroke-width="0.5"/>
<path d="M907.391 127.784L896.869 114.591L896.723 114.407L896.492 114.386L878.333 112.746L893.292 107.07L893.482 106.998L893.461 106.799L891.96 92.5062L902.482 105.7L902.628 105.883L902.859 105.904L921.018 107.544L906.059 113.22L905.869 113.292L905.89 113.491L907.391 127.784Z" fill="#4C6EF6" stroke="#7382FF" stroke-width="0.76"/>
</svg>
