<svg width="988" height="391" viewBox="0 0 988 391" fill="none" xmlns="http://www.w3.org/2000/svg">
<g opacity="0.6">
<path d="M592.601 389.291C270.859 389.785 9.64158 184.525 9.01615 -69.0457C8.39071 -322.616 268.594 -528.676 590.335 -529.169C912.077 -529.663 1173.29 -324.403 1173.92 -70.8323C1174.55 182.738 914.343 388.798 592.601 389.291Z" stroke="#7382FF" stroke-width="0.531413"/>
<path d="M655.811 389.194C334.069 389.688 72.8517 184.428 72.2262 -69.1424C71.6008 -322.713 331.804 -528.772 653.546 -529.266C975.287 -529.759 1236.5 -324.499 1237.13 -70.929C1237.76 182.642 977.553 388.701 655.811 389.194Z" stroke="#7382FF" stroke-width="0.531413"/>
<path d="M47.6595 187.575L33.7697 178.018L33.5676 177.879L33.3324 177.942L16.037 182.573L28.0455 171.72L28.2088 171.573L28.1226 171.373L22.1956 157.609L36.0854 167.165L36.2875 167.304L36.5227 167.241L53.8181 162.61L41.8096 173.463L41.6463 173.611L41.7325 173.811L47.6595 187.575Z" fill="#4C6EF6" stroke="#7382FF" stroke-width="0.807747"/>
</g>
</svg>
