<svg width="466" height="410" viewBox="0 0 466 410" fill="none" xmlns="http://www.w3.org/2000/svg">
<g opacity="0.6">
<path d="M479.355 409.047C349.097 409.207 231.08 376.021 145.572 322.25C60.061 268.478 7.09235 194.143 6.83929 112.003C6.58623 29.8639 59.0965 -44.6007 144.276 -98.5831C229.452 -152.563 347.263 -186.039 477.521 -186.199C607.778 -186.359 725.795 -153.173 811.303 -99.4021C896.814 -45.6293 949.783 28.7058 950.036 110.845C950.289 192.984 897.779 267.449 812.6 321.431C727.424 375.412 609.612 408.887 479.355 409.047Z" stroke="#7382FF" stroke-width="0.5"/>
<path d="M530.538 408.985C400.281 409.145 282.264 375.959 196.756 322.188C111.245 268.415 58.2759 194.08 58.0229 111.941C57.7698 29.8014 110.28 -44.6632 195.459 -98.6456C280.635 -152.626 398.447 -186.102 528.704 -186.261C658.962 -186.421 776.979 -153.235 862.487 -99.4646C947.998 -45.6918 1000.97 28.6433 1001.22 110.783C1001.47 192.922 948.962 267.387 863.783 321.369C778.607 375.349 660.796 408.825 530.538 408.985Z" stroke="#7382FF" stroke-width="0.5"/>
<path d="M37.9315 278.206L26.8803 272.119L26.669 272.002L26.4387 272.052L12.8529 274.964L22.2858 268.139L22.4457 268.023L22.3555 267.856L17.6398 259.089L28.691 265.176L28.9023 265.292L29.1326 265.243L42.7184 262.331L33.2855 269.155L33.1256 269.271L33.2158 269.439L37.9315 278.206Z" fill="#4C6EF6" stroke="#7382FF" stroke-width="0.76"/>
</g>
</svg>
