<svg width="25" height="24" viewBox="0 0 25 24" fill="none" xmlns="http://www.w3.org/2000/svg">
<path d="M8.55688 18.49V8.33001C8.55688 7.93001 8.67688 7.54001 8.89688 7.21001L11.6269 3.15001C12.0569 2.50001 13.1269 2.04001 14.0369 2.38001C15.0169 2.71001 15.6669 3.81001 15.4569 4.79001L14.9369 8.06001C14.8969 8.36001 14.9769 8.63001 15.1469 8.84001C15.3169 9.03001 15.5669 9.15001 15.8369 9.15001H19.9469C20.7369 9.15001 21.4169 9.47001 21.8169 10.03C22.1969 10.57 22.2669 11.27 22.0169 11.98L19.5569 19.47C19.2469 20.71 17.8969 21.72 16.5569 21.72H12.6569C11.9869 21.72 11.0469 21.49 10.6169 21.06L9.33688 20.07C8.84688 19.7 8.55688 19.11 8.55688 18.49Z" fill="white"/>
<path d="M5.37699 6.38H4.34699C2.79699 6.38 2.16699 6.98 2.16699 8.46V18.52C2.16699 20 2.79699 20.6 4.34699 20.6H5.37699C6.92699 20.6 7.55699 20 7.55699 18.52V8.46C7.55699 6.98 6.92699 6.38 5.37699 6.38Z" fill="white"/>
</svg>
