<svg width="20" height="19" viewBox="0 0 20 19" fill="none" xmlns="http://www.w3.org/2000/svg">
<path d="M4.44043 2.5342C4.44017 3.06464 4.2292 3.57324 3.85394 3.94812C3.47868 4.32301 2.96986 4.53347 2.43943 4.5332C1.909 4.53294 1.40039 4.32197 1.02551 3.94671C0.650624 3.57145 0.440165 3.06264 0.44043 2.5322C0.440695 2.00177 0.651663 1.49317 1.02692 1.11828C1.40218 0.743397 1.911 0.532938 2.44143 0.533203C2.97186 0.533469 3.48047 0.744437 3.85535 1.1197C4.23024 1.49496 4.4407 2.00377 4.44043 2.5342ZM4.50043 6.0142H0.50043V18.5342H4.50043V6.0142ZM10.8204 6.0142H6.84043V18.5342H10.7804V11.9642C10.7804 8.3042 15.5504 7.9642 15.5504 11.9642V18.5342H19.5004V10.6042C19.5004 4.4342 12.4404 4.6642 10.7804 7.6942L10.8204 6.0142Z" fill="white"/>
</svg>
