<svg width="205" height="52" viewBox="0 0 205 52" fill="none" xmlns="http://www.w3.org/2000/svg">
<path d="M12.8403 25.1305C13.0615 24.0125 13.3933 22.9722 14.0824 22.0972C15.8093 19.9001 18.991 19.7931 20.684 21.8736C20.7265 21.9222 20.7605 21.9709 20.7945 22.0195C21.0583 22.3889 21.4666 22.875 21.356 23.2056C21.2284 23.5847 20.6244 23.5556 20.2331 23.7403C20.097 23.8083 20.0289 23.7111 19.9694 23.5847C19.3228 22.3014 18.319 21.7764 17.0769 21.9611C15.7583 22.1556 14.9161 23.0986 14.4737 24.4986C13.8272 26.5305 14.6183 28.8638 16.2432 29.768C17.3662 30.3999 18.9315 30.0499 19.7567 28.9805C19.8077 28.9221 19.8332 28.8346 19.8928 28.7958C20.0799 28.6402 19.9523 28.1833 20.2756 28.193C20.4968 28.2027 20.7095 28.3291 20.9307 28.3972C21.5942 28.6208 21.6197 28.6305 21.2709 29.3208C20.4883 30.8666 19.2377 31.5374 17.7405 31.6152C15.384 31.7416 13.3933 29.8457 12.9254 27.1041C12.9084 26.9972 12.9254 26.8708 12.8488 26.7833C12.8403 26.2291 12.8403 25.6847 12.8403 25.1305Z" fill="#26272B"/>
<path d="M25.1173 24.287C25.6872 23.6065 26.2317 23.1204 26.8783 22.8093C29.2092 21.7009 31.2169 23.0523 31.4891 25.9106C31.6423 27.4759 31.5317 29.0508 31.5657 30.6161C31.5827 31.4425 31.5572 32.2688 31.5742 33.0952C31.5827 33.3772 31.5232 33.4841 31.2509 33.4938C30.1535 33.5133 30.1535 33.523 30.1535 32.2786C30.145 30.4119 30.1365 28.555 30.1195 26.6884C30.1195 26.3287 30.0514 25.9787 29.9664 25.6384C29.6091 24.2676 28.7073 23.6843 27.5078 24.112C26.3593 24.5203 25.6192 25.4342 25.1853 26.6981C25.1173 26.8828 25.1343 27.0773 25.1343 27.2717C25.1258 29.1869 25.1088 31.0925 25.1258 33.0077C25.1258 33.4063 25.0237 33.4938 24.7004 33.4841C23.7136 33.4647 23.7136 33.4841 23.7136 32.3369C23.7136 27.9036 23.7221 23.4606 23.7051 19.0274C23.7051 18.5899 23.8072 18.4927 24.173 18.5024C25.1173 18.5315 25.1173 18.5121 25.1173 19.5815C25.1173 21.1079 25.1173 22.6245 25.1173 24.287Z" fill="#26272B"/>
<path d="M42.0735 30.5772C42.1075 30.4411 42.082 30.2855 42.0735 30.1397C42.0735 30.0425 42.0905 29.9063 41.9799 29.9063C41.5885 29.9063 41.7162 29.5758 41.7077 29.3522C41.6821 27.6022 41.7672 25.8522 41.6651 24.112C41.5545 22.2356 40.5166 20.8745 38.9428 20.4954C37.5476 20.1648 36.2801 20.5731 35.0806 21.3606C34.2554 21.9051 34.2724 21.8954 34.7318 22.8384C34.8849 23.1495 34.987 23.1203 35.2082 22.9551C35.8632 22.4301 36.5778 22.0315 37.369 21.8662C38.9088 21.5356 40.1083 22.5273 40.2699 24.2578C40.355 25.1911 40.355 25.1911 39.5894 25.0064C39.5638 24.9967 39.5383 24.987 39.5043 24.987C38.1176 24.6953 36.7395 24.6273 35.4294 25.3661C34.451 25.9203 33.8045 26.7661 33.7875 28.0883C33.7619 30.023 35.0976 31.5688 36.8586 31.6174C38.1517 31.6563 39.3171 31.2383 40.338 30.2855C40.4571 30.6063 40.5337 30.9272 40.7463 31.1508C41.0951 31.5105 41.5035 31.5299 41.9033 31.3841C42.2691 31.2383 42.0139 30.8397 42.0735 30.5772ZM39.147 29.605C38.2708 30.1397 37.3435 30.3827 36.3651 29.9938C35.5995 29.6827 35.1741 28.9633 35.1741 28.0689C35.1741 27.3105 35.5655 26.7369 36.3396 26.4161C37.5987 25.8911 38.8492 26.0953 40.0913 26.4939C40.2529 26.5425 40.2614 26.6786 40.2699 26.8244C40.287 27.0383 40.3125 27.2522 40.3125 27.573C40.355 28.38 39.8871 29.1577 39.147 29.605Z" fill="#26272B"/>
<path d="M45.7211 22.201C46.0188 21.8899 46.2485 21.6372 46.4952 21.4135C47.1758 20.7913 47.9585 20.5094 48.8262 20.558C49.0389 20.5677 49.1324 20.6163 49.1154 20.8788C49.0984 21.2483 49.2005 21.676 49.0729 21.9774C48.9368 22.3177 48.5199 22.1038 48.2307 22.1816C47.0822 22.4927 46.2825 23.2413 45.8402 24.4954C45.7551 24.7288 45.7466 24.9621 45.7466 25.2052C45.7466 27.1301 45.7381 29.0551 45.7551 30.9898C45.7551 31.3592 45.67 31.4565 45.3467 31.4467C44.3259 31.4273 44.3259 31.4467 44.3259 30.2995C44.3259 27.2273 44.3344 24.1454 44.3174 21.0733C44.3174 20.6552 44.4195 20.5677 44.7683 20.5774C45.7126 20.6066 45.7126 20.5872 45.7211 21.6566C45.7211 21.8024 45.7211 21.958 45.7211 22.201Z" fill="#26272B"/>
<path d="M60.3632 19.6079C60.3632 18.4412 60.3632 18.451 59.3509 18.451C59.0786 18.451 58.9765 18.5287 58.9851 18.8496C58.9936 19.1996 59.0446 19.569 58.934 19.9579C58.7554 19.7732 58.6192 19.6176 58.4661 19.4718C56.9518 17.9551 54.8421 17.8774 53.2342 19.2676C51.184 21.0467 50.7331 24.6828 52.2474 27.23C53.7702 29.7869 56.5945 30.2244 58.6448 28.2314C58.7128 28.1633 58.7724 28.0564 58.934 28.0466C58.934 28.4939 58.9425 28.9119 58.934 29.33C58.9085 30.1758 58.6363 30.9049 58.0578 31.4591C56.7051 32.7327 54.153 32.441 53.0215 30.9049C52.8429 30.6619 52.8088 30.1661 52.4856 30.2147C52.2218 30.2536 51.9922 30.5744 51.7369 30.7494C51.5413 30.8855 51.5498 31.0119 51.6604 31.216C52.1793 32.1785 52.8599 32.9369 53.8127 33.3257C54.8506 33.7535 55.914 33.8216 56.9944 33.598C58.934 33.1896 60.4228 31.6049 60.3802 28.9508C60.3207 25.83 60.3632 22.7189 60.3632 19.6079ZM58.917 23.9342H58.9425V24.712C58.9425 27.0647 56.7732 28.6786 54.8846 27.7064C53.532 27.0064 52.8429 25.7231 52.8003 24.0606C52.7578 22.4662 53.2682 21.0954 54.5273 20.2495C56.2542 19.0829 58.3555 20.4537 58.9 22.262C59.0446 22.7578 58.917 23.3703 58.917 23.9342Z" fill="#26272B"/>
<path d="M64.5166 26.696C65.6651 26.7252 66.8136 26.7057 67.962 26.7057H70.6418C72.071 26.7057 72.071 26.7057 71.8668 25.0724C71.4755 21.9224 68.9148 19.8419 66.2691 20.5127C64.0232 21.0863 62.4579 23.5655 62.6025 26.2974C62.7556 29.1459 64.5762 31.4209 66.9242 31.5959C68.6681 31.732 70.1314 31.0709 71.0927 29.3015C71.467 28.6112 71.4415 28.5918 70.7779 28.3779C70.6588 28.339 70.5312 28.3001 70.4121 28.2515C70.1994 28.164 70.0633 28.1737 69.9527 28.4654C69.74 29.0098 69.3572 29.4084 68.9063 29.7001C67.0177 30.9154 64.7548 29.7196 64.1848 27.221C64.0913 26.8321 64.1168 26.6863 64.5166 26.696ZM64.1338 24.8585C64.4826 23.0599 65.7587 21.8349 67.29 21.8447C68.7787 21.8544 70.0973 23.1377 70.4376 24.8974C70.5057 25.228 70.4206 25.2863 70.1569 25.2766C69.1956 25.2668 68.2258 25.2766 67.2644 25.2766C66.3116 25.2766 65.3673 25.2668 64.4145 25.2863C64.1083 25.2863 64.0743 25.1696 64.1338 24.8585Z" fill="#26272B"/>
<path d="M74.2012 25.9553C74.2012 22.6303 74.2097 19.3151 74.1927 15.9902C74.1927 15.5915 74.2777 15.4749 74.635 15.4749C78.5313 15.4943 82.4276 15.4943 86.3239 15.4749C86.6727 15.4749 86.7833 15.5624 86.7663 15.9804C86.7322 16.7096 86.7322 17.4387 86.7663 18.1679C86.7833 18.586 86.6982 18.7123 86.3069 18.7123C83.3974 18.6929 80.4965 18.7123 77.587 18.6929C77.1872 18.6929 77.1021 18.829 77.1106 19.2568C77.1362 20.7637 77.1276 22.2706 77.1106 23.7775C77.1021 24.1664 77.1787 24.2928 77.5445 24.2928C79.9861 24.2734 82.4191 24.2928 84.8607 24.2734C85.252 24.2734 85.3286 24.3998 85.3115 24.8081C85.286 25.4984 85.286 26.1983 85.3115 26.8983C85.3286 27.3067 85.252 27.4428 84.8607 27.4428C82.4191 27.4136 79.9861 27.4428 77.5445 27.4233C77.1787 27.4233 77.1106 27.5497 77.1106 27.9386C77.1276 30.6413 77.1106 33.3441 77.1276 36.0565C77.1276 36.4162 77.0596 36.5329 76.7278 36.5232C76.0217 36.494 75.3071 36.494 74.601 36.5232C74.2607 36.5426 74.1757 36.4162 74.1757 36.0371C74.2012 32.6635 74.2012 29.3094 74.2012 25.9553Z" fill="#26272B"/>
<path d="M104.625 22.0653C104.583 23.9125 104.727 26.1097 104.481 28.2874C104.234 30.4651 103.655 32.4873 102.303 34.1206C100.729 36.0165 98.7382 36.6387 96.5178 36.5706C94.2209 36.5026 92.2898 35.5887 90.852 33.4887C89.8737 32.0596 89.3973 30.3874 89.1676 28.618C89.04 27.6555 88.989 26.6833 88.989 25.711C88.989 22.4542 88.9975 19.1973 88.9805 15.9404C88.9805 15.5418 89.0655 15.4154 89.4228 15.4251C90.1119 15.4543 90.8095 15.4543 91.5071 15.4251C91.8389 15.4154 91.9325 15.5223 91.9325 15.9015C91.9154 19.0903 91.9239 22.2792 91.9239 25.4777C91.9239 26.693 91.975 27.9082 92.2302 29.0943C92.6471 31.0193 93.5148 32.536 95.2758 33.0901C96.6369 33.5179 98.0151 33.479 99.2741 32.6526C100.652 31.7485 101.197 30.2124 101.486 28.5305C101.639 27.6069 101.699 26.6735 101.699 25.7305C101.699 22.4542 101.707 19.1875 101.69 15.9112C101.69 15.532 101.775 15.4154 102.116 15.4251C102.822 15.4543 103.536 15.4543 104.242 15.4251C104.557 15.4154 104.651 15.5126 104.642 15.882C104.617 17.8459 104.625 19.7903 104.625 22.0653Z" fill="#26272B"/>
<path d="M111.174 33.2624C112.348 33.2624 113.496 33.2624 114.644 33.2624C116.899 33.2624 119.153 33.2721 121.408 33.2527C121.739 33.2527 121.842 33.3402 121.833 33.729C121.808 34.5263 121.816 35.3137 121.833 36.111C121.842 36.3929 121.79 36.5096 121.51 36.5096C116.746 36.4998 111.982 36.4998 107.218 36.5096C106.945 36.5096 106.86 36.4026 106.894 36.111C106.903 36.0332 106.903 35.9457 106.894 35.8679C106.716 34.5554 107.158 33.5735 107.898 32.5624C111.131 28.1291 114.279 23.6375 117.46 19.1556C117.545 19.039 117.665 18.9418 117.699 18.757C117.545 18.6598 117.392 18.7084 117.248 18.7084C113.998 18.7084 110.757 18.6987 107.507 18.7181C107.15 18.7181 107.056 18.6015 107.065 18.2029C107.09 17.4446 107.09 16.6765 107.065 15.9182C107.056 15.5682 107.15 15.4904 107.439 15.4904C110.561 15.5001 113.675 15.5001 116.797 15.5001C118.371 15.5001 119.944 15.5099 121.518 15.4904C121.816 15.4904 121.867 15.5974 121.901 15.9182C122.071 17.3279 121.62 18.407 120.829 19.4959C117.639 23.9 114.525 28.3722 111.395 32.8249C111.301 32.9513 111.191 33.0388 111.174 33.2624Z" fill="#26272B"/>
<path d="M124.157 25.9757C124.157 22.6507 124.166 19.3355 124.149 16.0106C124.149 15.6314 124.2 15.4856 124.574 15.4856C128.505 15.505 132.426 15.505 136.357 15.4856C136.68 15.4856 136.799 15.5633 136.782 15.9619C136.748 16.6717 136.748 17.3911 136.782 18.1008C136.808 18.5675 136.714 18.723 136.263 18.723C133.354 18.6939 130.453 18.723 127.543 18.6939C127.143 18.6939 127.058 18.83 127.067 19.2577C127.092 20.7647 127.084 22.2716 127.067 23.7785C127.067 24.1188 127.152 24.2063 127.441 24.2063C129.993 24.1965 132.546 24.2063 135.098 24.1868C135.489 24.1868 135.574 24.3132 135.557 24.7313C135.532 25.4604 135.532 26.1896 135.557 26.9187C135.574 27.2979 135.455 27.3757 135.149 27.3659C132.614 27.3562 130.07 27.3659 127.535 27.3465C127.169 27.3465 127.058 27.4243 127.067 27.8715C127.092 29.5048 127.084 31.1478 127.067 32.7811C127.067 33.1603 127.143 33.2672 127.484 33.2672C130.487 33.2478 133.498 33.2672 136.501 33.2478C136.91 33.2478 136.995 33.3936 136.978 33.8214C136.952 34.5797 136.952 35.3478 136.978 36.1061C136.986 36.4366 136.893 36.5144 136.62 36.5144C132.597 36.5047 128.564 36.5047 124.54 36.5144C124.2 36.5144 124.149 36.388 124.149 36.038C124.157 32.6839 124.157 29.3298 124.157 25.9757Z" fill="#26272B"/>
<path d="M144.381 25.9298C144.364 25.9784 144.33 26.0173 144.296 26.0659C142.714 26.0659 141.123 26.0756 139.541 26.0756C139.422 26.0756 139.277 26.1145 139.192 25.9687C140.051 25.8812 140.919 25.9395 141.787 25.9298C142.62 25.9201 143.462 25.9104 144.296 25.9395H144.305C144.322 25.9298 144.356 25.9298 144.381 25.9298Z" fill="#26272B"/>
<path d="M151.783 25.9298C151.766 25.9784 151.732 26.0173 151.698 26.0659C150.115 26.0659 148.525 26.0756 146.942 26.0756C146.823 26.0756 146.678 26.1145 146.593 25.9687C147.453 25.8812 148.32 25.9395 149.188 25.9298C150.022 25.9201 150.864 25.9104 151.698 25.9395H151.706C151.723 25.9298 151.757 25.9298 151.783 25.9298Z" fill="#26272B"/>
<path d="M154.08 25.9315C154.063 25.9804 154.029 26.0196 153.995 26.0685V25.9413C154.021 25.9315 154.055 25.9315 154.08 25.9315Z" fill="#26272B"/>
<path d="M166.952 22.3056H172.924C172.933 22.4903 172.831 22.5389 172.763 22.6167C170.908 24.7361 169.053 26.8458 167.199 28.9652C167.148 29.0236 167.088 29.0625 167.029 29.1111C166.203 30.1124 165.361 31.0749 164.477 32.0083C163.745 32.8346 163.013 33.6707 162.282 34.4971C160.316 36.7526 158.351 38.9984 156.378 41.2539C156.352 41.2345 156.318 41.2053 156.293 41.1859C156.437 40.8942 156.573 40.6026 156.718 40.3206C158.487 36.704 160.257 33.0874 162.018 29.4708C162.035 29.4416 162.06 29.4222 162.077 29.4027C162.537 28.4597 162.996 27.5069 163.456 26.5639C163.694 26.0875 163.694 26.0778 163.226 26.0778C161.048 26.0778 158.87 26.0875 156.692 26.0778C156.599 26.0778 156.327 26.2917 156.386 25.8931C156.48 26.0389 156.616 26 156.735 26C158.317 26 159.908 25.9903 161.49 25.9903C161.525 25.9514 161.559 25.9028 161.576 25.8542C161.55 25.8542 161.516 25.8542 161.49 25.8639H161.482C160.648 25.8347 159.806 25.8445 158.972 25.8542C158.105 25.8639 157.245 25.8056 156.378 25.8931C158.02 23.4042 159.661 20.9056 161.303 18.4168C161.814 17.639 162.324 16.8613 162.835 16.0835C163.32 15.3446 163.804 14.596 164.289 13.8571C164.893 12.9335 165.497 12.0002 166.101 11.0766C166.169 10.9794 166.272 10.8919 166.255 10.7461H173.656C173.298 11.5141 172.788 12.1655 172.346 12.8655C171.35 14.4307 170.346 15.9863 169.343 17.5418C169.292 17.6196 169.224 17.6779 169.172 17.746C168.347 19.1071 167.488 20.4293 166.603 21.732C166.552 21.907 166.391 22.014 166.374 22.257C166.578 22.2862 166.765 22.2959 166.952 22.3056Z" fill="#26272B"/>
<path d="M182.64 24.6845C182.01 25.715 181.355 26.7261 180.717 27.7469C180.615 27.9219 180.496 28.0872 180.428 28.2719C180.079 29.1663 179.441 29.1858 178.743 29.0302C178.641 29.0302 178.531 29.0205 178.429 29.0205H175.868C176.693 27.7664 177.476 26.59 178.25 25.4136C178.531 24.8983 178.837 24.4122 179.177 23.9553C179.339 23.5761 179.671 23.3136 179.781 22.8956H183.695C183.431 23.547 183.005 24.0914 182.64 24.6845Z" fill="#26272B"/>
<path d="M192.159 23.0007C191.76 23.448 191.513 24.0216 191.198 24.5271C190.552 25.5674 189.922 26.6271 189.284 27.6771C189.054 28.0757 188.833 28.484 188.595 28.8729C188.357 29.252 188.025 29.0868 187.719 29.0479H185.907C186.57 27.9882 187.191 27.0062 187.812 26.0146C188.204 25.3924 188.595 24.7702 188.986 24.1479C189.165 23.691 189.522 23.3702 189.692 22.9035C190.458 22.9035 191.224 22.9035 191.989 22.9035C192.04 22.9132 192.168 22.8063 192.159 23.0007Z" fill="#26272B"/>
</svg>
