<svg width="185" height="52" viewBox="0 0 185 52" fill="none" xmlns="http://www.w3.org/2000/svg">
<path d="M94.2253 25.9056C91.0902 18.0359 81.2583 17.0761 76.6303 21.4696C76.4171 21.6615 76.0971 21.7681 75.8412 21.9174C75.7559 21.5975 75.5853 21.2776 75.5853 20.979C75.564 17.3321 75.5853 13.6851 75.5853 10.0168C75.5853 8.88647 75.2654 8.56656 74.1137 8.56656C73.4526 8.56656 72.7914 8.56656 72.1089 8.56656C70.744 8.56656 70.5094 8.80116 70.5094 10.1234V27.2279C70.5094 32.0479 70.5094 36.8678 70.5094 41.7091C70.5094 42.4129 70.7013 42.9461 71.4905 42.9674C72.4715 43.0101 73.4526 43.0101 74.4549 42.9674C75.0734 42.9461 75.436 42.6049 75.436 41.9437C75.436 41.7305 75.3933 41.5172 75.436 41.3039C75.5 41.048 75.6279 40.7921 75.7133 40.5361C75.9479 40.6428 76.2038 40.7068 76.3744 40.8774C80.9384 44.9722 88.4883 44.439 92.3699 39.6191C95.6969 35.4602 96.1661 30.7469 94.2253 25.9056ZM86.6542 38.1262C82.538 40.8134 76.8649 38.51 75.6066 33.6474C74.8175 30.6403 75.372 27.8677 77.4834 25.5431C79.4455 23.389 81.9835 22.8985 84.7134 23.5383C87.4006 24.1568 88.9788 26.0336 89.7039 28.6142C89.9385 29.446 90.0025 30.3417 90.1305 31.1948C90.0239 34.0526 89.1494 36.5053 86.6542 38.1262Z" fill="#616161"/>
<path d="M155.007 8.56722C155.285 8.54589 155.519 8.50323 155.775 8.50323C158.804 8.50323 161.853 8.50323 164.882 8.50323C165.97 8.50323 166.226 8.78049 166.226 9.88951C166.226 20.2972 166.226 30.7263 166.226 41.134C166.226 42.2643 165.948 42.5416 164.818 42.5416C158.974 42.5416 153.152 42.5629 147.308 42.5202C146.882 42.5202 146.221 42.307 146.114 42.0297C145.965 41.6671 146.135 41.0273 146.391 40.6648C149.995 35.5249 153.642 30.4063 157.268 25.2665C158.718 23.2191 159.806 21.001 159.87 18.4417C159.977 14.6668 158.462 11.5744 155.541 9.18571C155.37 9.05774 155.199 8.92978 155.05 8.78049C155.05 8.75916 155.05 8.69518 155.007 8.56722Z" fill="#616161"/>
<path d="M65.3473 20.681C65.3473 19.5933 65.07 19.3374 63.9823 19.3161C63.3425 19.2948 62.7027 19.3161 62.0629 19.3161C60.442 19.3161 60.314 19.4654 60.2714 21.0862C60.2714 21.3635 60.1221 21.6194 60.0581 21.8967C59.8022 21.79 59.5249 21.7261 59.333 21.5554C55.2595 17.6739 48.1575 18.3137 44.3825 21.8967C39.3493 26.674 39.2853 35.7381 44.2972 40.5367C48.3494 44.4183 55.2595 44.6742 59.269 41.1126C59.5249 40.878 59.8661 40.75 60.1647 40.558C60.25 40.9206 60.3567 41.2832 60.442 41.6457C60.4633 41.6884 60.442 41.7524 60.442 41.8164C60.4633 42.6694 60.7406 42.968 61.5937 43.0107C62.4041 43.032 63.1932 43.032 63.9823 43.0107C65.0913 43.0107 65.3473 42.7548 65.3473 41.6457C65.3473 38.1481 65.3473 34.6717 65.3473 31.174C65.3473 27.655 65.3473 24.1574 65.3473 20.681ZM58.2666 37.0604C54.3637 41.1126 47.6456 39.3424 46.1314 33.9039C45.8968 33.0508 45.8328 32.1338 45.6835 31.238C45.7901 28.5081 46.6006 26.0982 48.9253 24.4986C52.4656 22.0673 58.5439 22.9844 60.2074 28.9134C61.0605 31.9418 60.4846 34.757 58.2666 37.0604Z" fill="#616161"/>
<path d="M133.062 27.463C131.527 22.1952 126.75 18.9108 120.927 18.8681C120.053 18.9534 119.157 18.9534 118.304 19.124C108.621 21.1288 106.382 30.982 109.88 37.2735C112.546 42.0722 116.875 43.885 122.207 43.5011C130.567 42.8826 135.323 35.1408 133.062 27.463ZM127.581 34.8849C126.323 37.7854 123.678 39.4063 120.522 39.2357C117.387 39.065 114.934 37.1242 113.996 34.0958C113.399 32.155 113.399 30.2142 114.017 28.2948C114.913 25.5222 117.344 23.2189 120.949 23.3255C124.894 23.1975 127.859 26.1407 128.242 30.2782C128.413 31.8564 128.2 33.4133 127.581 34.8849Z" fill="#616161"/>
<path d="M29.1125 18.9108C31.4585 18.9961 34.1031 19.6572 36.2358 21.6833C37.2596 22.6644 37.2382 23.0696 36.1292 23.9867C35.6813 24.3705 35.2335 24.7544 34.7856 25.117C33.9965 25.7568 33.6979 25.7355 32.9728 24.989C31.1173 23.0696 28.8993 22.6217 26.3826 23.3895C26.0414 23.4961 25.7002 23.6881 25.4016 23.9227C24.0793 24.9251 24.1859 26.9085 25.6788 27.6336C26.8305 28.1668 28.0888 28.4654 29.2832 28.8706C30.6268 29.2971 32.013 29.6171 33.2927 30.1716C35.7453 31.2379 37.3449 32.9868 37.3875 35.8233C37.4302 38.7878 36.2145 41.0485 33.5699 42.4134C29.3898 44.5675 22.8423 43.821 19.4086 40.366C18.5555 39.5129 18.5555 39.0224 19.4513 38.2546C19.9845 37.8067 20.4963 37.3589 21.0295 36.911C21.7546 36.3138 22.1385 36.3565 22.7997 37.0389C24.6765 38.9371 26.8945 39.7262 29.5604 39.2357C31.2026 38.9371 32.1837 37.9987 32.3116 36.6764C32.4183 35.5247 31.9917 34.6503 30.9467 34.2237C29.7097 33.7332 28.4514 33.3493 27.1718 32.9441C26.1267 32.6242 25.0604 32.3683 24.0366 32.0057C21.456 31.0673 19.7712 29.3398 19.6646 26.5033C19.5579 23.5814 20.8589 21.3847 23.5035 20.0411C25.1243 19.2093 26.8519 18.9108 29.1125 18.9108Z" fill="#616161"/>
<path d="M156.202 14.2825C154.304 12.619 151.66 12.6403 149.74 14.3465C148.972 15.029 148.588 15.029 147.821 14.3465C146.242 12.9816 144.451 12.6403 142.553 13.5147C140.655 14.3892 139.738 15.946 139.759 18.0361C139.78 19.9982 140.463 21.5338 142.382 22.2802C143.043 22.5362 143.747 22.8134 144.451 22.8348C145.773 22.8987 146.648 23.4532 147.373 24.5409C148.631 26.4177 148.908 26.4177 150.124 24.5409C150.849 23.4319 151.724 22.9414 153.024 22.8134C154.56 22.6641 156.074 22.2376 157.055 20.83C158.378 18.9105 157.972 15.8607 156.202 14.2825ZM144.472 20.0835C143.321 20.0835 142.425 19.2304 142.425 18.1001C142.425 16.9911 143.363 16.0527 144.451 16.0527C145.539 16.0527 146.477 16.9911 146.498 18.1001C146.498 19.2091 145.624 20.0835 144.472 20.0835ZM152.982 20.0835C151.851 20.0622 150.956 19.1665 150.977 18.0574C150.998 16.9698 151.979 16.01 153.046 16.0527C154.155 16.074 155.051 17.0337 155.029 18.1428C155.029 19.2731 154.155 20.1049 152.982 20.0835Z" fill="#616161"/>
<path d="M104.378 31.2165C104.378 34.6715 104.378 38.1478 104.378 41.6028C104.378 42.6692 104.101 42.9678 103.013 42.9678C102.182 42.9678 101.371 42.9891 100.54 42.9678C99.6224 42.9465 99.3239 42.6692 99.3239 41.7735C99.3239 34.7355 99.3239 27.6975 99.3239 20.6808C99.3239 19.8064 99.6011 19.5504 100.476 19.5504C101.371 19.5504 102.288 19.5504 103.184 19.5504C104.101 19.5504 104.378 19.8277 104.378 20.7448C104.378 24.2424 104.378 27.7188 104.378 31.2165Z" fill="#616161"/>
<path d="M140.505 37.2735C139.311 37.1029 138.628 36.1645 139.012 35.0555C139.758 32.8801 139.673 30.726 139.012 28.572C138.735 27.7189 139.033 27.0151 139.716 26.6525C140.42 26.29 141.145 26.4179 141.699 27.1217C142.702 28.38 143.683 29.681 144.664 30.982C145.112 31.5791 145.069 32.155 144.621 32.7308C143.661 33.9891 142.744 35.2474 141.742 36.4631C141.465 36.8256 140.931 37.0176 140.505 37.2735Z" fill="#616161"/>
<path d="M101.817 8.375C103.652 8.375 105.123 9.7826 105.123 11.5528C105.123 13.3229 103.652 14.7305 101.796 14.7305C99.9407 14.7305 98.5117 13.3229 98.5331 11.5314C98.5544 9.67596 99.9193 8.375 101.817 8.375Z" fill="#616161"/>
<path d="M142.318 8.73811C140.569 9.99642 139.226 11.5746 138.309 13.5367C138.202 13.4941 138.117 13.4728 138.01 13.4301C138.01 12.769 138.01 12.0865 138.01 11.4253C138.01 10.7855 137.946 10.1457 138.031 9.50589C138.095 9.16466 138.437 8.61015 138.671 8.58882C139.844 8.48218 141.017 8.54617 142.211 8.54617C142.254 8.61015 142.297 8.67413 142.318 8.73811Z" fill="#616161"/>
</svg>
