<svg width="184" height="52" viewBox="0 0 184 52" fill="none" xmlns="http://www.w3.org/2000/svg">
<path d="M43.9767 32.7274C42.6461 32.7274 41.3454 32.3328 40.2391 31.5936C39.1328 30.8544 38.2706 29.8037 37.7614 28.5744C37.2522 27.3452 37.119 25.9925 37.3786 24.6876C37.6381 23.3826 38.2788 22.1839 39.2197 21.243C40.1605 20.3022 41.3592 19.6615 42.6642 19.4019C43.9692 19.1423 45.3218 19.2755 46.5511 19.7847C47.7804 20.2939 48.831 21.1562 49.5703 22.2625C50.3095 23.3688 50.704 24.6694 50.704 26C50.7022 27.7837 49.9929 29.4937 48.7316 30.755C47.4704 32.0162 45.7603 32.7256 43.9767 32.7274M51.8104 16.1992L51.708 16.3358L51.6056 16.4724L51.469 16.37L51.3392 16.2675C49.7959 15.1015 47.9975 14.3192 46.0923 13.9852C44.1871 13.6512 42.2298 13.775 40.3819 14.3465C38.534 14.918 36.8486 15.9207 35.4646 17.2719C34.0805 18.6232 33.0377 20.2841 32.4221 22.1178C31.8065 23.9515 31.6358 25.9052 31.9241 27.8179C32.2123 29.7305 32.9513 31.5472 34.08 33.1179C35.2087 34.6887 36.6947 35.9686 38.4155 36.8519C40.1363 37.7352 42.0424 38.1966 43.9767 38.198C46.637 38.2057 49.2254 37.3342 51.3392 35.7188L51.469 35.6232L51.6056 35.5139L51.708 35.6574L51.8104 35.7939C52.2707 36.4291 52.8547 36.9647 53.5272 37.3684C54.1997 37.7722 54.9469 38.0358 55.7239 38.1434L56.1747 38.2049V13.7951L55.7239 13.8566C54.9476 13.9638 54.2008 14.2265 53.5284 14.629C52.856 15.0315 52.2717 15.5656 51.8104 16.1992" fill="#26272B"/>
<path d="M71.1155 10.9505C72.4458 10.9519 73.7458 11.3476 74.8512 12.0876C75.9566 12.8276 76.8178 13.8788 77.3259 15.1082C77.8341 16.3375 77.9663 17.69 77.706 18.9945C77.4456 20.299 76.8044 21.4971 75.8633 22.4372C74.9222 23.3774 73.7234 24.0174 72.4186 24.2765C71.1139 24.5355 69.7616 24.4019 68.5327 23.8925C67.3038 23.3831 66.2536 22.5208 65.5146 21.4147C64.7757 20.3085 64.3813 19.0081 64.3813 17.6779C64.3822 16.793 64.5575 15.9169 64.8972 15.0997C65.2369 14.2826 65.7343 13.5404 66.361 12.9157C66.9877 12.2909 67.7314 11.7957 68.5495 11.4585C69.3677 11.1213 70.2443 10.9487 71.1292 10.9505M78.7444 27.1918C81.1433 25.2817 82.7328 22.5365 83.195 19.505C83.6572 16.4736 82.958 13.3794 81.2373 10.8412C81.0666 10.5817 80.8753 10.329 80.6773 10.0831C81.383 9.61855 81.9811 9.00816 82.4311 8.29305C82.8812 7.57794 83.1727 6.7747 83.2863 5.93743L83.3546 5.47983H71.0677C68.5437 5.48533 66.0835 6.27414 64.0268 7.73739C61.9702 9.20065 60.4184 11.2662 59.5857 13.649C58.7529 16.0317 58.6803 18.6142 59.3778 21.04C60.0753 23.4658 61.5086 25.6153 63.4798 27.1918C62.9559 27.6062 62.4671 28.0631 62.0182 28.5578L65.7337 32.6557C66.3255 31.857 67.0871 31.1994 67.9635 30.7303C68.8399 30.2611 69.8094 29.992 70.8022 29.9423C71.795 29.8926 72.7865 30.0635 73.7054 30.4428C74.6243 30.8221 75.4477 31.4004 76.1164 32.1359C76.7851 32.8715 77.2824 33.7461 77.5727 34.6969C77.863 35.6476 77.9389 36.6509 77.7951 37.6345C77.6513 38.6181 77.2913 39.5576 76.741 40.3855C76.1906 41.2134 75.4637 41.909 74.6124 42.4223L78.3347 46.5202C79.8323 45.4088 81.0549 43.9686 81.9081 42.3103C82.7614 40.652 83.2226 38.82 83.2563 36.9553C83.2899 35.0907 82.8951 33.2432 82.1022 31.5552C81.3093 29.8672 80.1395 28.3838 78.683 27.2191" fill="#26272B"/>
<path d="M98.2808 32.7275C96.95 32.7289 95.6486 32.3355 94.5414 31.5971C93.4342 30.8587 92.5709 29.8085 92.0607 28.5793C91.5504 27.3502 91.4162 25.9973 91.6751 24.6919C91.9339 23.3865 92.574 22.1871 93.5146 21.2456C94.4552 20.3041 95.6539 19.6627 96.959 19.4026C98.2642 19.1424 99.6172 19.2753 100.847 19.7842C102.077 20.2932 103.128 21.1555 103.867 22.2619C104.607 23.3684 105.001 24.6693 105.001 26.0002C105 27.7826 104.291 29.4917 103.031 30.7527C101.772 32.0138 100.063 32.7239 98.2808 32.7275M98.2808 13.8021C95.8683 13.8021 93.5099 14.5175 91.5039 15.8578C89.498 17.1982 87.9345 19.1033 87.0113 21.3322C86.088 23.5611 85.8465 26.0137 86.3172 28.3799C86.7878 30.7461 87.9496 32.9195 89.6555 34.6255C91.3614 36.3314 93.5349 37.4932 95.9011 37.9638C98.2673 38.4345 100.72 38.1929 102.949 37.2697C105.178 36.3464 107.083 34.783 108.423 32.777C109.763 30.7711 110.479 28.4127 110.479 26.0002C110.473 22.7667 109.187 19.6672 106.9 17.3808C104.614 15.0944 101.514 13.8075 98.2808 13.8021" fill="#26272B"/>
<path d="M118.515 16.9437L118.365 17.0939L118.201 17.251L118.092 17.0529L117.996 16.889C117.562 16.083 116.943 15.3909 116.191 14.8688C115.438 14.3467 114.573 14.0092 113.666 13.8839L113.209 13.7951V38.2049L113.666 38.1434C115.068 37.9822 116.359 37.3043 117.287 36.2422C118.215 35.18 118.714 33.8099 118.686 32.3995V26C118.699 24.3407 119.32 22.7438 120.432 21.5116C121.543 20.2794 123.068 19.4974 124.717 19.3136L125.079 19.2726V13.8088L124.642 13.8566C122.3 14.1614 120.132 15.2551 118.495 16.9573" fill="#26272B"/>
<path d="M140.014 32.7375C138.684 32.7362 137.384 32.3405 136.279 31.6004C135.173 30.8604 134.312 29.8093 133.804 28.5799C133.296 27.3505 133.163 25.9981 133.424 24.6935C133.684 23.389 134.325 22.1909 135.267 21.2508C136.208 20.3106 137.406 19.6706 138.711 19.4116C140.016 19.1525 141.368 19.2862 142.597 19.7955C143.826 20.3049 144.876 21.1672 145.615 22.2733C146.354 23.3795 146.748 24.6799 146.748 26.0102C146.747 27.7938 146.037 29.5039 144.776 30.7651C143.515 32.0264 141.805 32.7357 140.021 32.7375M151.762 13.8667C150.984 13.9746 150.237 14.2375 149.563 14.6399C148.89 15.0424 148.304 15.5761 147.841 16.2094L147.746 16.3391L147.643 16.4826L147.507 16.3801L147.377 16.2777C145.834 15.1078 144.035 14.3218 142.129 13.9847C140.223 13.6477 138.263 13.7692 136.413 14.3393C134.563 14.9094 132.875 15.9117 131.489 17.2633C130.103 18.6149 129.059 20.2769 128.442 22.1121C127.826 23.9473 127.655 25.9028 127.944 27.8171C128.233 29.7314 128.973 31.5494 130.104 33.1208C131.235 34.6923 132.723 35.972 134.447 36.8543C136.17 37.7365 138.078 38.1959 140.014 38.1945C142.675 38.2022 145.263 37.3306 147.377 35.7153L147.507 35.6197L147.643 35.5104L147.746 35.6538L147.841 35.7904C148.303 36.4253 148.889 36.9605 149.562 37.3641C150.236 37.7678 150.984 38.0316 151.762 38.1399L152.212 38.2014V13.8053L151.762 13.8667Z" fill="#26272B"/>
</svg>
