<svg width="312" height="465" viewBox="0 0 312 465" fill="none" xmlns="http://www.w3.org/2000/svg">
<g opacity="0.2">
<path d="M155.965 0.124023C160.539 7.87768 167.823 12.6414 175.828 16.5942C184.195 20.6991 192.742 24.7533 201.711 27.8446C235.961 39.5511 261.242 59.5181 278.998 86.5292C293.083 107.966 301.992 130.973 304.821 155.349C305.965 164.877 305.242 174.607 304.941 184.185C304.52 198.374 303.858 212.513 302.835 226.703C302.594 230.352 302.835 233.139 305.965 235.977C310.058 239.778 311.924 244.542 311.382 249.812C311.262 250.674 310.72 251.839 309.937 252.346C297.237 259.846 291.94 270.489 290.977 283.107C289.592 300.844 292.903 317.923 300.788 334.393C301.571 336.014 301.39 338.194 300.848 339.967C295.19 358.313 285.379 375.036 273.22 390.898C252.815 417.504 226.571 439.346 196.113 457.691C195.572 457.995 194.97 458.299 194.007 458.806C194.307 455.157 194.488 451.914 194.789 448.671C198.34 407.318 200.868 365.914 200.688 324.409C200.628 309.155 199.544 293.851 198.762 278.597C198.641 276.671 199.364 275.759 201.109 274.796C225.126 261.772 249.143 248.697 273.1 235.572C274.123 235.014 275.206 233.697 275.206 232.683C275.327 219.608 275.266 206.483 275.266 193.408C275.266 192.851 275.206 192.293 275.146 191.33C270.812 193.712 266.839 195.891 262.807 198.07C238.368 211.094 213.088 222.75 185.7 230.96C185.038 231.163 184.376 231.467 183.714 231.518C178.296 231.923 176.791 235.065 175.949 238.916C174.324 246.67 174.444 254.474 175.768 262.127C178.236 275.911 181.246 289.594 184.195 303.277C184.616 305.152 184.255 306.368 182.69 307.787C174.805 314.983 167.04 322.281 159.215 329.528C158.312 330.389 157.349 331.251 155.965 332.467C155.965 221.483 155.965 111.108 155.965 0.124023Z" fill="#A6B4FF"/>
<path d="M155.964 338.216C147.713 330.562 139.944 323.059 131.754 315.962C128.201 312.92 127.418 310.183 128.562 305.975C132.717 291.172 136.15 276.217 136.752 260.958C136.993 254.926 136.09 248.842 135.367 242.81C135.066 240.022 133.019 238.501 129.526 237.538C106.881 231.353 85.8029 222.279 65.387 212.14C56.4738 207.729 47.8618 202.964 39.0691 198.351C38.4066 197.996 37.7442 197.692 36.7204 197.185C36.6601 198.351 36.5999 199.213 36.5999 200.125C36.5999 212.9 36.6601 225.624 36.5397 238.399C36.5397 240.072 37.5033 240.782 38.8884 241.542C62.9178 254.571 86.8869 267.701 110.977 280.678C112.723 281.642 113.325 282.554 113.205 284.328C109.652 323.819 111.278 363.361 113.506 402.852C114.65 422.825 116.397 442.799 117.842 462.772C117.902 463.279 117.842 463.786 117.842 464.496C117.18 464.243 116.638 464.09 116.216 463.837C78.2147 440.872 46.9584 412.889 25.5789 377.555C19.5565 367.619 14.6182 357.278 11.1252 346.48C10.282 343.844 10.3422 341.562 11.6069 338.926C19.7974 321.741 22.7484 303.947 20.5201 285.494C19.1349 274.088 13.1728 264.963 2.15178 258.17C1.30865 257.613 0.646182 256.396 0.525734 255.483C-0.0765057 249.147 3.23581 244.077 7.99351 239.464C8.77642 238.704 9.49911 237.588 9.43889 236.676C8.7162 224.458 7.75261 212.241 7.15037 200.024C6.72881 192.014 7.15037 183.954 6.66858 175.944C5.88567 161.395 8.7162 147.352 13.233 133.412C19.9179 112.88 29.9753 93.6165 44.9108 76.3804C62.0144 56.7111 84.0564 42.618 110.856 33.2903C121.094 29.7417 130.67 24.7736 140.185 19.9577C146.629 16.7132 152.11 12.3535 155.904 5.81396C155.964 117.037 155.964 227.399 155.964 338.216Z" fill="#A6B4FF"/>
</g>
</svg>
