<svg width="58" height="77" viewBox="0 0 58 77" fill="none" xmlns="http://www.w3.org/2000/svg">
<path d="M51.005 31.0644C49.2451 24.2576 40.5511 17.1777 31.1298 17.1777C25.6392 17.1777 20.3735 19.2089 16.4911 22.8243C12.6086 26.4397 10.4275 31.3432 10.4275 36.4562V62.5797L15.1206 58.7557V46.9285L30.3144 33.0747C30.3144 33.0747 30.9773 47.7097 18.6169 53.0196V76.0402L35.7935 59.22V42.8314C35.7935 38.0186 38.2867 30.6929 51.005 31.0644Z" fill="#3B44FF" fill-opacity="0.1"/>
<path d="M41.2796 4.22461L38.3464 7.94483L40.1063 3.61277C36.0744 1.60597 31.6321 0.41632 27.0713 0.121992L25.81 5.58487L24.889 0.0400488H24.7365C19.8384 0.0363954 15.0029 1.06547 10.5927 3.05009L12.8337 10.6489L7.9001 4.40488C4.94135 6.07456 2.2844 8.16898 0.0274658 10.6107L11.5607 21.4108C14.4838 18.1357 18.2993 15.6533 22.6071 14.2239C26.9149 12.7944 31.5564 12.4705 36.0448 13.2861C40.5333 14.1017 44.7035 16.0268 48.1182 18.8596C51.5328 21.6923 54.0662 25.3284 55.4527 29.3866L57.2712 28.6655C56.9728 23.6804 55.357 18.8411 52.5672 14.5773C49.7774 10.3136 45.9001 6.75738 41.2796 4.22461Z" fill="#7382FF" fill-opacity="0.3"/>
</svg>
