<svg width="181" height="52" viewBox="0 0 181 52" fill="none" xmlns="http://www.w3.org/2000/svg">
<path opacity="0.3" d="M42.7475 9.07131C37.4194 14.0748 38.5047 21.5896 38.6193 22.3025C39.8479 29.9319 47.1685 36.8419 55.8705 36.5904C63.1847 36.3804 69.6714 31.0968 71.3233 25.0525C72.3546 21.284 71.3233 17.8815 71.2183 17.5378C70.1839 14.253 68.1023 12.3433 66.4567 10.8696C64.8685 9.45007 60.2947 5.38555 53.4388 5.36645C51.7232 5.36327 46.7102 5.34735 42.7475 9.07131Z" fill="#26272B"/>
<path opacity="0.3" d="M72.8642 34.426C73.0774 31.8511 71.7597 29.7472 70.477 27.7006C69.85 26.698 65.2348 19.5684 57.4591 18.9159C48.7698 18.187 38.9443 25.7877 39.4663 34.0504C39.8291 39.8337 45.1764 44.2197 49.8393 45.7984C59.8144 49.1786 72.2658 41.6798 72.8642 34.426Z" fill="#26272B"/>
<path opacity="0.3" d="M62.647 27.4872C62.3764 20.4976 55.8452 16.5604 55.3423 16.2676C46.653 11.2131 33.8006 16.2421 30.5763 23.7823C29.5451 26.1949 29.6724 28.4548 29.7297 29.2887C30.0925 34.6423 33.8706 39.1842 38.2598 41.3709C44.6701 44.5697 50.9245 42.017 52.5923 41.2467C53.0888 41.0176 62.9876 36.2783 62.647 27.4872Z" fill="#26272B"/>
<path d="M55.8456 34.3335C59.4439 34.3335 62.3609 31.4164 62.3609 27.8181C62.3609 24.2198 59.4439 21.3028 55.8456 21.3028C52.2473 21.3028 49.3303 24.2198 49.3303 27.8181C49.3303 31.4164 52.2473 34.3335 55.8456 34.3335Z" fill="#26272B"/>
<path d="M87.1418 23.4569C88.4245 21.4772 90.4806 20.0385 93.393 20.0385C98.285 20.0385 100.733 23.3009 100.733 28.193V37.939C100.733 38.8716 100.268 39.1421 99.6059 39.1421H99.3354C98.6765 39.1421 98.2087 38.8716 98.2087 37.939V28.349C98.2087 24.6218 96.3435 22.4065 93.2402 22.4065C89.5894 22.4065 87.145 24.8924 87.145 28.7373V37.939C87.145 38.8716 86.6803 39.1421 86.0183 39.1421H85.7477C85.0889 39.1421 84.621 38.8716 84.621 37.939V12.8166C84.621 12.7402 85.0093 12.546 85.474 12.546C86.327 12.546 87.145 12.9725 87.145 14.9936V23.4569H87.1418Z" fill="#26272B"/>
<path d="M103.111 29.8258C103.111 24.1953 107.07 20.0416 112.43 20.0416C117.79 20.0416 121.05 23.7306 121.05 29.3611V29.5934C121.05 30.2937 120.779 30.4464 120.002 30.4464H105.635C105.829 34.4059 108.703 37.2037 112.663 37.2037C116.275 37.2037 117.905 35.6504 118.99 33.903C119.067 33.7853 120.467 34.1354 120.467 35.3385C120.467 36.6212 117.672 39.454 112.663 39.454C107.032 39.454 103.111 35.4945 103.111 29.8258ZM105.711 28.2725H118.37C118.137 24.6218 115.884 22.2537 112.427 22.2537C108.971 22.2537 106.252 24.7395 105.708 28.2725H105.711Z" fill="#26272B"/>
<path d="M126.11 23.8836C126.887 21.3596 128.516 20.0387 131.002 20.0387C132.711 20.0387 133.682 20.7389 133.682 21.942C133.682 22.8746 133.062 23.3393 132.982 23.2629C132.438 22.7982 131.779 22.4863 130.729 22.4863C127.428 22.4863 126.148 25.9429 126.148 30.679V37.9392C126.148 38.8717 125.684 39.1423 125.022 39.1423H124.751C124.092 39.1423 123.624 38.8717 123.624 37.9392V20.6211C123.624 20.5447 124.013 20.3506 124.477 20.3506C125.33 20.3506 126.107 20.7771 126.107 22.7982V23.8868L126.11 23.8836Z" fill="#26272B"/>
<path d="M148.822 36.6974V36.115C147.501 38.0947 145.366 39.4538 142.533 39.4538C137.641 39.4538 135.193 36.1914 135.193 31.2993V21.5533C135.193 20.6207 135.658 20.3502 136.32 20.3502H136.59C137.249 20.3502 137.717 20.6207 137.717 21.5533V31.1433C137.717 34.8705 139.582 37.0857 142.883 37.0857C145.563 37.0857 147.699 35.4943 148.784 33.1644V21.5533C148.784 20.6207 149.249 20.3502 149.911 20.3502H150.181C150.84 20.3502 151.308 20.6207 151.308 21.5533V38.8713C151.308 38.9477 150.92 39.1419 150.455 39.1419C149.602 39.1419 148.825 38.7154 148.825 36.6942L148.822 36.6974Z" fill="#26272B"/>
</svg>
