<svg width="53" height="40" viewBox="0 0 53 40" fill="none" xmlns="http://www.w3.org/2000/svg">
<path d="M24.1678 37.8639C30.8486 36.6918 36.3666 35.7219 36.4299 35.7086L36.5451 35.6843L30.2379 28.2335C26.7688 24.1356 23.9305 20.7669 23.9305 20.7474C23.9305 20.7107 30.4434 2.89903 30.4799 2.83569C30.4922 2.81451 34.9244 10.414 41.2239 21.2572C47.1216 31.4088 51.9839 39.779 52.0292 39.8574L52.1113 40L32.0661 39.9975L12.0209 39.9949L24.1678 37.8639ZM0.111328 35.5917C0.111328 35.5813 3.08331 30.4576 6.71574 24.2058L13.3201 12.839L21.0168 6.42441C25.2499 2.89628 28.7248 0.00541271 28.7388 0.000145182C28.7528 -0.00513095 28.697 0.134063 28.615 0.309458C28.5331 0.484861 24.7722 8.49604 20.2575 18.1121L12.0491 35.5959L6.08024 35.6033C2.79734 35.6075 0.111328 35.6022 0.111328 35.5917Z" fill="black"/>
</svg>
