<svg width="49" height="44" viewBox="0 0 49 44" fill="none" xmlns="http://www.w3.org/2000/svg">
<path fill-rule="evenodd" clip-rule="evenodd" d="M13.5259 2.32181C14.333 1.85451 15.4239 1.79231 16.8096 2.24191C18.1951 2.69141 19.7901 3.62901 21.494 5.01781C22.2152 5.60571 22.9501 6.26971 23.6907 7.00351C22.2182 8.57961 20.7479 10.398 19.3335 12.4128C16.8875 12.6339 14.583 13.0015 12.4865 13.4922C12.223 12.4817 12.017 11.5111 11.87 10.5904C11.5226 8.41621 11.5105 6.56201 11.8151 5.13391C12.1197 3.70551 12.7189 2.78911 13.5259 2.32181ZM22.4618 3.82591C23.2197 4.44371 23.9883 5.13801 24.7599 5.90201C25.5313 5.13821 26.2998 4.44411 27.0576 3.82641C28.8461 2.36851 30.6077 1.30961 32.2361 0.78131C33.8642 0.25301 35.4444 0.23171 36.7587 0.99281C38.0731 1.75381 38.8448 3.13691 39.2027 4.81521C39.5607 6.49361 39.5271 8.55311 39.1625 10.8356C39.0079 11.8029 38.7927 12.8177 38.5187 13.87C39.5649 14.1582 40.5493 14.4789 41.4623 14.8285C43.6158 15.6531 45.4113 16.6538 46.6818 17.8041C47.9524 18.9544 48.7598 20.3155 48.7598 21.8356C48.7598 23.3558 47.9524 24.7169 46.6818 25.8672C45.4113 27.0175 43.6158 28.0182 41.4623 28.8428C40.5493 29.1924 39.5648 29.5131 38.5186 29.8014C38.7927 30.8541 39.008 31.8693 39.1626 32.8369C39.5272 35.1193 39.5609 37.1788 39.2029 38.8573C38.845 40.5355 38.0732 41.9186 36.7589 42.6797C35.4446 43.4407 33.8644 43.4195 32.2362 42.8912C30.6079 42.3629 28.8463 41.3039 27.0577 39.846C26.2999 39.2283 25.5314 38.5342 24.7599 37.7703C23.9883 38.5344 23.2196 39.2287 22.4616 39.8465C20.673 41.3044 18.9114 42.3634 17.2831 42.8917C15.6549 43.42 14.0748 43.4412 12.7604 42.6802C11.4461 41.9191 10.6743 40.536 10.3164 38.8578C9.95846 37.1793 9.99205 35.1198 10.3567 32.8374C10.5113 31.8696 10.7267 30.8542 11.0009 29.8013C9.95466 29.5131 8.97026 29.1924 8.05726 28.8428C5.90376 28.0182 4.10826 27.0175 2.83777 25.8672C1.56722 24.7169 0.759766 23.3558 0.759766 21.8356C0.759766 20.3155 1.56722 18.9544 2.83777 17.8041C4.10826 16.6538 5.90376 15.6531 8.05726 14.8285C8.97026 14.4789 9.95456 14.1583 11.0007 13.87C10.7267 12.8175 10.5114 11.8025 10.3569 10.8351C9.99226 8.55261 9.95856 6.49311 10.3166 4.81471C10.6745 3.13641 11.4462 1.75331 12.7606 0.99231C14.0749 0.23121 15.6551 0.25251 17.2832 0.78081C18.9116 1.30911 20.6732 2.36811 22.4618 3.82591ZM21.3283 12.2672C22.457 10.7362 23.6107 9.34211 24.7599 8.10751C25.9091 9.34211 27.0627 10.7362 28.1914 12.2672C27.0701 12.2044 25.9243 12.172 24.7598 12.172C23.5953 12.172 22.4496 12.2044 21.3283 12.2672ZM12.9044 14.9699C14.5452 14.589 16.326 14.284 18.2127 14.0691C17.5974 15.0121 16.9961 15.9917 16.4135 17.0038C15.8315 18.0148 15.2868 19.0258 14.7805 20.0307C14.0228 18.2847 13.3958 16.5855 12.9044 14.9699ZM17.7411 17.7725C16.9562 19.1359 16.2428 20.4958 15.6032 21.8361C16.2429 23.1765 16.9563 24.5364 17.7412 25.8999C18.5265 27.264 19.3444 28.5641 20.1824 29.7903C21.6594 29.9049 23.1902 29.9652 24.7598 29.9652C26.3294 29.9652 27.8602 29.9049 29.3373 29.7903C30.1751 28.5642 30.993 27.2643 31.7781 25.9004C32.5632 24.5368 33.2766 23.1767 33.9164 21.8361C33.2767 20.4956 32.5632 19.1356 31.7783 17.772C30.9929 16.4077 30.1747 15.1074 29.3366 13.8809C27.8597 13.7664 26.3292 13.7061 24.7598 13.7061C23.1904 13.7061 21.6599 13.7664 20.1831 13.8809C19.3448 15.1075 18.5266 16.408 17.7411 17.7725ZM11.4165 15.3466C12.0412 17.4137 12.8762 19.6 13.9088 21.8361C12.8764 24.0718 12.0413 26.2579 11.4167 28.3247C10.4135 28.0485 9.47346 27.7424 8.60586 27.4102C6.55506 26.6249 4.94816 25.7085 3.86736 24.73C2.78658 23.7515 2.29381 22.7722 2.29381 21.8356C2.29381 20.8991 2.78658 19.9198 3.86736 18.9413C4.94816 17.9628 6.55506 17.0464 8.60586 16.2611C9.47346 15.9289 10.4134 15.6228 11.4165 15.3466ZM14.7805 23.6415C14.0229 25.3872 13.396 27.0861 12.9046 28.7014C14.5451 29.0823 16.3257 29.3873 18.212 29.6021C17.5971 28.6595 16.996 27.6803 16.4136 26.6686C15.8316 25.6575 15.2868 24.6464 14.7805 23.6415ZM11.8698 33.082C12.017 32.161 12.223 31.1901 12.4867 30.1791C14.5829 30.6697 16.8871 31.0373 19.3328 31.2584C20.7474 33.2736 22.2179 35.0924 23.6907 36.6688C22.9501 37.4027 22.2151 38.0667 21.4938 38.6546C19.79 40.0434 18.195 40.9811 16.8095 41.4306C15.4238 41.8802 14.3328 41.818 13.5258 41.3507C12.7187 40.8834 12.1196 39.9669 11.8149 38.5386C11.5103 37.1105 11.5225 35.2563 11.8698 33.082ZM28.0255 38.6541C27.3044 38.0663 26.5696 37.4025 25.8291 36.6688C27.3018 35.0924 28.7723 33.2736 30.1869 31.2584C32.6325 31.0373 34.9366 30.6698 37.0328 30.1792C37.2964 31.1899 37.5024 32.1607 37.6495 33.0815C37.9968 35.2558 38.009 37.1099 37.7044 38.5381C37.3998 39.9664 36.8006 40.8829 35.9935 41.3502C35.1865 41.8175 34.0955 41.8797 32.7099 41.4301C31.3243 40.9806 29.7293 40.0429 28.0255 38.6541ZM24.7599 35.5648C25.9093 34.3299 27.0632 32.9355 28.1921 31.4041C27.0706 31.4668 25.9246 31.4993 24.7598 31.4993C23.5951 31.4993 22.449 31.4668 21.3276 31.4041C22.4565 32.9355 23.6104 34.33 24.7599 35.5648ZM36.6149 28.7014C34.9744 29.0823 33.1939 29.3873 31.3076 29.6021C31.9225 28.6596 32.5234 27.6806 33.1057 26.6691C33.6878 25.6579 34.2327 24.6466 34.739 23.6415C35.4966 25.3872 36.1235 27.0861 36.6149 28.7014ZM38.1028 28.3247C37.4782 26.2579 36.6432 24.0718 35.6107 21.8361C36.6433 19.6 37.4784 17.4137 38.103 15.3466C39.1061 15.6228 40.0461 15.9289 40.9137 16.2611C42.9645 17.0464 44.5714 17.9628 45.6522 18.9413C46.733 19.9198 47.2258 20.8991 47.2258 21.8356C47.2258 22.7722 46.733 23.7515 45.6522 24.73C44.5714 25.7085 42.9645 26.6249 40.9137 27.4102C40.0461 27.7424 39.106 28.0486 38.1028 28.3247ZM30.1862 12.4128C32.6321 12.6339 34.9365 13.0015 37.0329 13.4921C37.2964 12.4818 37.5023 11.5114 37.6493 10.5909C37.9967 8.41671 38.0088 6.56251 37.7042 5.13441C37.3996 3.70601 36.8005 2.78961 35.9934 2.32231C35.1863 1.85501 34.0954 1.79281 32.7097 2.24241C31.3242 2.69191 29.7292 3.62951 28.0254 5.01831C27.3043 5.60611 26.5695 6.26991 25.8291 7.00351C27.3016 8.57961 28.7718 10.398 30.1862 12.4128ZM34.739 20.0306C35.4967 18.2846 36.1237 16.5854 36.6151 14.9699C34.9744 14.5889 33.1935 14.284 31.307 14.0691C31.9221 15.012 32.5233 15.9914 33.1058 17.0033C33.6879 18.0145 34.2327 19.0256 34.739 20.0306ZM29.09 21.8355C29.09 24.2337 27.1515 26.1779 24.7602 26.1779C22.3689 26.1779 20.4304 24.2337 20.4304 21.8355C20.4304 19.4372 22.3689 17.4931 24.7602 17.4931C27.1515 17.4931 29.09 19.4372 29.09 21.8355Z" fill="black"/>
</svg>
