<svg width="19" height="19" viewBox="0 0 19 19" fill="none" xmlns="http://www.w3.org/2000/svg">
<path d="M9.50065 1.58301C5.13857 1.58301 1.58398 5.13759 1.58398 9.49967C1.58398 13.8618 5.13857 17.4163 9.50065 17.4163C13.8627 17.4163 17.4173 13.8618 17.4173 9.49967C17.4173 5.13759 13.8627 1.58301 9.50065 1.58301ZM13.2848 7.67884L8.79607 12.1676C8.68523 12.2784 8.53482 12.3418 8.37648 12.3418C8.21815 12.3418 8.06773 12.2784 7.9569 12.1676L5.71648 9.92717C5.4869 9.69759 5.4869 9.31759 5.71648 9.08801C5.94607 8.85842 6.32607 8.85842 6.55565 9.08801L8.37648 10.9088L12.4457 6.83967C12.6752 6.61009 13.0552 6.61009 13.2848 6.83967C13.5144 7.06926 13.5144 7.44134 13.2848 7.67884Z" fill="white"/>
</svg>
