<svg width="25" height="24" viewBox="0 0 25 24" fill="none" xmlns="http://www.w3.org/2000/svg">
<path d="M12.3331 4.64999C7.55309 4.64999 3.66309 8.53999 3.66309 13.32C3.66309 18.1 7.55309 22 12.3331 22C17.1131 22 21.0031 18.11 21.0031 13.33C21.0031 8.54999 17.1131 4.64999 12.3331 4.64999ZM13.0831 13C13.0831 13.41 12.7431 13.75 12.3331 13.75C11.9231 13.75 11.5831 13.41 11.5831 13V7.99999C11.5831 7.58999 11.9231 7.24999 12.3331 7.24999C12.7431 7.24999 13.0831 7.58999 13.0831 7.99999V13Z" fill="white"/>
<path d="M15.2229 3.45H9.4429C9.0429 3.45 8.7229 3.13 8.7229 2.73C8.7229 2.33 9.0429 2 9.4429 2H15.2229C15.6229 2 15.9429 2.32 15.9429 2.72C15.9429 3.12 15.6229 3.45 15.2229 3.45Z" fill="white"/>
</svg>
