<svg width="46" height="48" viewBox="0 0 46 48" fill="none" xmlns="http://www.w3.org/2000/svg">
<path fill-rule="evenodd" clip-rule="evenodd" d="M33.1843 0.00060358C32.7992 0.0640336 32.4141 0.126414 32.0295 0.188714C31.5825 0.261114 31.1362 0.333404 30.6914 0.407114L30.8089 0.465884C31.2924 0.834874 31.8381 1.12321 32.3806 1.40989C32.8822 1.67496 33.3812 1.93863 33.8259 2.2633C36.4853 4.2126 39.3113 7.7046 40.09 11.4318C40.3834 12.8316 39.981 14.877 39.6961 16.325C39.648 16.569 39.6034 16.7963 39.5659 17.0004C39.3568 18.148 39.5581 19.2063 39.7629 20.2831C39.9707 21.3754 40.1821 22.4868 39.9724 23.7298C39.9053 24.1269 39.7183 24.7305 39.5294 25.3402C39.222 26.3321 38.9096 27.3402 39.1007 27.501V27.3834C39.5846 26.9027 39.9049 26.2368 40.2228 25.5756C40.3843 25.2398 40.5453 24.9051 40.7267 24.5967C42.8768 20.9234 44.4146 16.6184 45.4823 11.8921C45.8839 10.1045 46.2513 7.0483 45.5411 5.3342C45.1787 4.4673 44.2726 3.6836 43.5673 3.1302C40.8883 1.01442 38.1652 -0.0287764 33.1843 0.00060358ZM23.727 0.524624C23.2814 0.563804 22.8357 0.602984 22.3949 0.642174C21.911 0.775954 21.4271 0.911384 20.9442 1.04655C20.5964 1.14388 20.2483 1.24131 19.902 1.33763C16.1455 2.9588 13.9219 7.5479 13.6917 12.6512L13.694 12.6501C14.5504 12.2243 15.4754 11.7645 16.4785 11.4905C21.5525 10.1094 22.2479 13.3516 22.9189 17.2355C23.1736 18.7097 23.2177 20.7912 22.8602 22.2262C22.5577 23.4359 22.0901 24.5048 21.646 25.5199L21.6406 25.5321L20.4799 28.838H20.5387C21.0186 28.7107 21.5182 28.8723 21.8708 29.0143C23.7647 29.7506 23.7507 31.4951 23.7312 33.9204C23.7291 34.1732 23.727 34.4333 23.727 34.7005C23.727 35.2948 23.7186 35.9139 23.71 36.5458C23.6447 41.3403 23.5693 46.8707 27.0917 47.8703C28.2868 48.2083 29.6973 47.8116 30.6327 47.5226C34.478 46.3352 34.8235 42.5619 35.2023 38.4261C35.3219 37.1203 35.4448 35.7784 35.6822 34.4703C35.7777 33.9397 35.7947 33.3354 35.8117 32.7318C35.84 31.7254 35.8683 30.7207 36.2601 30.0624C36.5568 29.5624 36.9602 29.3482 37.4069 29.1111C37.6164 28.9998 37.8355 28.8835 38.0576 28.7303C37.9436 28.5527 37.829 28.3745 37.7139 28.1956C35.6918 25.0525 33.5252 21.6847 32.3714 17.7644C30.9021 12.7737 33.4979 10.7754 38.4053 11.0938C36.172 5.29 31.6759 0.568704 23.727 0.524624ZM7.6038 0.774094C8.0067 0.728873 8.4102 0.683594 8.8137 0.637224C10.8234 0.660364 12.4785 1.04938 14.0694 1.42333C14.8357 1.60344 15.5871 1.78006 16.3561 1.91061V1.96938C13.6085 5.5692 12.9816 7.4646 12.1196 13.0528L12.2371 18.45C12.1881 18.9422 12.1404 19.4357 12.0926 19.9291C12.0449 20.4226 11.9971 20.916 11.9482 21.4082C11.4214 24.6528 13.0422 26.544 14.361 28.0829C14.4277 28.1608 14.4938 28.2378 14.5586 28.3139C13.1236 29.9399 11.6935 31.5611 10.2634 33.1871C10.2312 33.2196 10.1978 33.2543 10.163 33.2905C9.7787 33.6896 9.2241 34.2655 8.3484 34.0589C6.5315 33.63 5.132 30.3748 4.383 28.6328L4.347 28.549C2.1773 23.4897 -1.86815 11.4562 0.982293 4.9912C1.8982 2.9097 3.8572 1.52859 6.262 0.926184C6.7081 0.874604 7.1557 0.824394 7.6038 0.774094ZM40.8982 30.8657C40.4893 30.7883 40.1426 30.6296 39.8066 30.4758C39.4625 30.3183 39.1297 30.166 38.753 30.1114C38.6749 30.1532 38.6 30.1924 38.5286 30.2297C37.6957 30.665 37.317 30.863 37.3621 32.3154C39.8305 33.5252 44.5519 31.855 45.6588 30.518C45.2602 30.5603 44.8431 30.6303 44.4127 30.7026C43.2986 30.8898 42.0959 31.0918 40.8982 30.8657ZM18.3886 32.8393C19.1821 31.992 19.9755 31.1398 20.7689 30.2876C22.7574 30.3561 22.3019 32.5062 21.3517 33.3045C19.4318 34.911 17.1642 35.1265 14.446 34.1763L14.3872 34.0588C14.7125 33.975 15.0625 33.8984 15.4206 33.82C16.486 33.5867 17.6225 33.3378 18.3886 32.8393ZM38.0574 17.2355C38.1456 16.4616 38.2325 15.6878 38.3195 14.9139L38.3203 14.9066C38.407 14.1352 38.4936 13.3638 38.5815 12.5925L38.5255 12.5903C36.6231 12.5174 34.6703 12.4426 33.8798 13.6357C33.3116 14.4977 33.5124 16.3441 33.821 17.3481C34.5899 19.8459 35.8045 22.0107 37.0142 24.0775C37.1489 24.359 37.2848 24.6394 37.4206 24.9197C37.5566 25.2001 37.6925 25.4806 37.8273 25.7623L37.9448 25.7035C38.0023 25.4006 38.0782 25.0914 38.1564 24.7731C38.398 23.7894 38.6613 22.7177 38.4689 21.467C38.3742 20.5274 38.284 19.5878 38.1937 18.6481L38.1935 18.6456C38.1483 18.1756 38.1031 17.7055 38.0574 17.2355ZM35.7604 15.2862C35.0846 15.1001 34.8201 14.9629 34.4283 14.5319C34.4552 14.2707 34.4972 14.2174 34.5802 14.1119C34.603 14.083 34.6289 14.0501 34.6585 14.0079C34.7372 13.9772 34.8078 13.94 34.8827 13.9005C35.1061 13.7828 35.367 13.6454 35.9906 13.6014C36.5686 13.6993 36.7596 13.7924 37.0338 14.1793C36.7602 14.6925 36.5337 14.8251 36.1437 15.0533C36.0312 15.1191 35.9052 15.193 35.7604 15.2862ZM17.8694 12.7637C18.7657 12.7539 19.5591 12.798 20.0734 13.1702C21.479 14.1939 21.9541 19.6548 21.3468 22.0497C21.0961 23.0418 20.708 23.9143 20.3274 24.7699C20.18 25.1012 20.0338 25.43 19.8971 25.7621C19.6032 26.6731 19.3143 27.5792 19.0253 28.4901C15.8124 28.4559 13.9611 26.0903 13.4616 23.3182C13.2346 22.0912 13.4584 20.666 13.6564 19.4044C13.6892 19.1955 13.7213 18.9911 13.7505 18.7928L13.633 14.4436C14.3134 14.0765 14.9889 13.7094 15.6644 13.3423L15.6655 13.3417C16.0328 13.2462 16.4001 13.1495 16.7673 13.0527C17.1347 12.956 17.5021 12.8593 17.8694 12.7637ZM17.3111 14.4779C17.3748 15.8542 19.5004 16.3831 20.0391 15.1146C20.0454 15.0646 20.0511 15.015 20.0569 14.9657C20.0691 14.8604 20.0812 14.756 20.0979 14.6493C19.52 14.2232 18.9861 14.0371 17.8939 14.0714C17.8058 14.1204 17.7188 14.1681 17.6319 14.2159C17.545 14.2636 17.458 14.3114 17.3699 14.3604L17.3111 14.4779Z" fill="black"/>
</svg>
