<svg width="244" height="24" viewBox="0 0 244 24" fill="none" xmlns="http://www.w3.org/2000/svg">
<g clip-path="url(#clip0_3116_15786)">
<path d="M16.8391 8.71434C16.8391 9.20822 16.8925 9.60866 16.986 9.90232C17.0927 10.196 17.2262 10.5163 17.4131 10.8634C17.4798 10.9702 17.5065 11.0769 17.5065 11.1704C17.5065 11.3039 17.4264 11.4373 17.2529 11.5708L16.412 12.1314C16.2919 12.2115 16.1717 12.2516 16.0649 12.2516C15.9315 12.2516 15.798 12.1848 15.6645 12.0647C15.4776 11.8645 15.3175 11.6509 15.184 11.4373C15.0505 11.2104 14.917 10.9568 14.7702 10.6498C13.729 11.8778 12.4209 12.4918 10.8458 12.4918C9.72461 12.4918 8.83029 12.1715 8.17623 11.5308C7.52218 10.8901 7.18848 10.0358 7.18848 8.96795C7.18848 7.83337 7.58892 6.91235 8.40315 6.21825C9.21738 5.52415 10.2986 5.1771 11.6734 5.1771C12.1273 5.1771 12.5944 5.21714 13.0883 5.28388C13.5822 5.35062 14.0894 5.45741 14.6234 5.57754V4.60313C14.6234 3.58868 14.4098 2.88123 13.996 2.46744C13.5689 2.05365 12.8481 1.85343 11.8203 1.85343C11.3531 1.85343 10.8725 1.90682 10.3787 2.02695C9.88479 2.14709 9.40426 2.29392 8.93707 2.48079C8.72351 2.57422 8.56333 2.62762 8.46989 2.65431C8.37646 2.68101 8.30971 2.69436 8.25632 2.69436C8.06945 2.69436 7.97601 2.56088 7.97601 2.28057V1.62651C7.97601 1.41294 8.00271 1.25277 8.06945 1.15933C8.13619 1.06589 8.25632 0.972456 8.4432 0.87902C8.91038 0.638754 9.471 0.438533 10.1251 0.278356C10.7791 0.104831 11.4732 0.024743 12.2074 0.024743C13.7958 0.024743 14.9571 0.385141 15.7045 1.10594C16.4387 1.82673 16.8124 2.92127 16.8124 4.38956V8.71434H16.8391ZM11.4198 10.7432C11.8603 10.7432 12.3141 10.6632 12.7947 10.503C13.2752 10.3428 13.7023 10.0491 14.0627 9.6487C14.2763 9.39509 14.4365 9.11478 14.5166 8.79443C14.5967 8.47407 14.65 8.08698 14.65 7.63314V7.07253C14.263 6.97909 13.8492 6.899 13.422 6.84561C12.9949 6.79222 12.5811 6.76552 12.1673 6.76552C11.273 6.76552 10.6189 6.93904 10.1784 7.29944C9.73796 7.65984 9.52439 8.16707 9.52439 8.83447C9.52439 9.46183 9.68457 9.92901 10.0183 10.2494C10.3386 10.5831 10.8058 10.7432 11.4198 10.7432ZM22.1383 12.1848C21.8981 12.1848 21.7379 12.1448 21.6311 12.0514C21.5243 11.9713 21.4309 11.7844 21.3508 11.5308L18.214 1.21272C18.1339 0.94576 18.0939 0.772235 18.0939 0.678799C18.0939 0.465229 18.2006 0.345097 18.4142 0.345097H19.7223C19.9759 0.345097 20.1495 0.385141 20.2429 0.478577C20.3497 0.558666 20.4298 0.745539 20.5099 0.999152L22.7523 9.83558L24.8346 0.999152C24.9014 0.732191 24.9815 0.558666 25.0882 0.478577C25.195 0.398489 25.3819 0.345097 25.6222 0.345097H26.69C26.9436 0.345097 27.1171 0.385141 27.2239 0.478577C27.3307 0.558666 27.4242 0.745539 27.4775 0.999152L29.5865 9.94236L31.8958 0.999152C31.9758 0.732191 32.0693 0.558666 32.1627 0.478577C32.2695 0.398489 32.443 0.345097 32.6833 0.345097H33.9247C34.1382 0.345097 34.2584 0.451881 34.2584 0.678799C34.2584 0.745539 34.245 0.812279 34.2317 0.892368C34.2183 0.972456 34.1916 1.07924 34.1382 1.22607L30.9213 11.5441C30.8413 11.8111 30.7478 11.9846 30.641 12.0647C30.5343 12.1448 30.3607 12.1982 30.1338 12.1982H28.9859C28.7323 12.1982 28.5587 12.1581 28.452 12.0647C28.3452 11.9713 28.2517 11.7977 28.1983 11.5308L26.1294 2.92127L24.0738 11.5174C24.007 11.7844 23.927 11.9579 23.8202 12.0514C23.7134 12.1448 23.5265 12.1848 23.2863 12.1848H22.1383ZM39.2906 12.5452C38.5965 12.5452 37.9024 12.4651 37.235 12.305C36.5676 12.1448 36.047 11.9713 35.7 11.771C35.4864 11.6509 35.3396 11.5174 35.2862 11.3973C35.2328 11.2772 35.2061 11.1437 35.2061 11.0236V10.3428C35.2061 10.0625 35.3129 9.92901 35.5131 9.92901C35.5932 9.92901 35.6733 9.94236 35.7534 9.96906C35.8334 9.99575 35.9536 10.0491 36.0871 10.1025C36.5409 10.3028 37.0348 10.4629 37.5553 10.5697C38.0893 10.6765 38.6098 10.7299 39.1438 10.7299C39.9847 10.7299 40.6387 10.5831 41.0926 10.2894C41.5464 9.99575 41.7867 9.56861 41.7867 9.02134C41.7867 8.6476 41.6665 8.34059 41.4263 8.08698C41.186 7.83337 40.7322 7.60645 40.0781 7.39288L38.1427 6.79222C37.1682 6.48521 36.4475 6.03138 36.007 5.43071C35.5665 4.8434 35.3396 4.18934 35.3396 3.49524C35.3396 2.93462 35.4597 2.44074 35.7 2.01361C35.9402 1.58647 36.2606 1.21272 36.661 0.919064C37.0615 0.612058 37.5153 0.385141 38.0492 0.224964C38.5831 0.0647872 39.1438 -0.00195312 39.7311 -0.00195312C40.0247 -0.00195312 40.3317 0.0113949 40.6254 0.0514392C40.9324 0.0914834 41.2127 0.144876 41.493 0.198268C41.76 0.265008 42.0136 0.331749 42.2539 0.411837C42.4941 0.491926 42.681 0.572014 42.8145 0.652102C43.0014 0.758887 43.1348 0.865672 43.2149 0.985804C43.295 1.09259 43.3351 1.23942 43.3351 1.42629V2.05365C43.3351 2.33396 43.2283 2.48079 43.0281 2.48079C42.9213 2.48079 42.7477 2.4274 42.5208 2.32061C41.76 1.97356 40.9057 1.80004 39.958 1.80004C39.1972 1.80004 38.5965 1.92017 38.1827 2.17378C37.7689 2.4274 37.5553 2.81449 37.5553 3.36176C37.5553 3.73551 37.6888 4.05586 37.9558 4.30947C38.2227 4.56309 38.7166 4.8167 39.4241 5.04362L41.3195 5.64428C42.2806 5.95129 42.9747 6.37843 43.3884 6.9257C43.8022 7.47297 44.0025 8.10033 44.0025 8.79443C44.0025 9.36839 43.8823 9.88897 43.6554 10.3428C43.4151 10.7966 43.0948 11.1971 42.681 11.5174C42.2672 11.8511 41.7733 12.0914 41.1994 12.2649C40.5987 12.4518 39.9713 12.5452 39.2906 12.5452Z" fill="white"/>
<path fill-rule="evenodd" clip-rule="evenodd" d="M41.8136 19.0357C37.4221 22.2793 31.0417 24.0012 25.5557 24.0012C17.8672 24.0012 10.9395 21.158 5.7071 16.4328C5.29331 16.0591 5.66705 15.5519 6.16093 15.8455C11.8205 19.1291 18.8016 21.118 26.0229 21.118C30.8949 21.118 36.2475 20.1036 41.1729 18.0213C41.9071 17.6876 42.5344 18.5018 41.8136 19.0357Z" fill="white"/>
<path fill-rule="evenodd" clip-rule="evenodd" d="M43.6418 16.9508C43.0812 16.23 39.9311 16.6038 38.5028 16.7773C38.0757 16.8307 38.0089 16.457 38.396 16.1766C40.9055 14.4147 45.03 14.9219 45.5105 15.5092C45.9911 16.1099 45.3771 20.2345 43.0278 22.21C42.6674 22.517 42.3204 22.3568 42.4805 21.9564C43.0145 20.6349 44.2024 17.6583 43.6418 16.9508Z" fill="white"/>
</g>
<path d="M66.6744 15.728H62.0184L61.2184 18H59.3144L63.2984 6.864H65.4104L69.3944 18H67.4744L66.6744 15.728ZM66.1624 14.24L64.3544 9.072L62.5304 14.24H66.1624ZM82.1186 9.04C82.812 9.04 83.4306 9.184 83.9746 9.472C84.5293 9.76 84.9613 10.1867 85.2706 10.752C85.5906 11.3173 85.7506 12 85.7506 12.8V18H83.9426V13.072C83.9426 12.2827 83.7453 11.68 83.3506 11.264C82.956 10.8373 82.4173 10.624 81.7346 10.624C81.052 10.624 80.508 10.8373 80.1026 11.264C79.708 11.68 79.5106 12.2827 79.5106 13.072V18H77.7026V13.072C77.7026 12.2827 77.5053 11.68 77.1106 11.264C76.716 10.8373 76.1773 10.624 75.4946 10.624C74.812 10.624 74.268 10.8373 73.8626 11.264C73.468 11.68 73.2706 12.2827 73.2706 13.072V18H71.4466V9.184H73.2706V10.192C73.5693 9.82933 73.948 9.54667 74.4066 9.344C74.8653 9.14133 75.356 9.04 75.8786 9.04C76.5826 9.04 77.212 9.18933 77.7666 9.488C78.3213 9.78667 78.748 10.2187 79.0466 10.784C79.3133 10.2507 79.7293 9.82933 80.2946 9.52C80.86 9.2 81.468 9.04 82.1186 9.04ZM87.7836 13.552C87.7836 12.6667 87.965 11.8827 88.3276 11.2C88.701 10.5173 89.2023 9.98933 89.8316 9.616C90.4716 9.232 91.1756 9.04 91.9436 9.04C92.637 9.04 93.2396 9.17867 93.7516 9.456C94.2743 9.72267 94.6903 10.0587 94.9996 10.464V9.184H96.8396V18H94.9996V16.688C94.6903 17.104 94.269 17.4507 93.7356 17.728C93.2023 18.0053 92.5943 18.144 91.9116 18.144C91.1543 18.144 90.461 17.952 89.8316 17.568C89.2023 17.1733 88.701 16.6293 88.3276 15.936C87.965 15.232 87.7836 14.4373 87.7836 13.552ZM94.9996 13.584C94.9996 12.976 94.8716 12.448 94.6156 12C94.3703 11.552 94.045 11.2107 93.6396 10.976C93.2343 10.7413 92.797 10.624 92.3276 10.624C91.8583 10.624 91.421 10.7413 91.0156 10.976C90.6103 11.2 90.2796 11.536 90.0236 11.984C89.7783 12.4213 89.6556 12.944 89.6556 13.552C89.6556 14.16 89.7783 14.6933 90.0236 15.152C90.2796 15.6107 90.6103 15.9627 91.0156 16.208C91.4316 16.4427 91.869 16.56 92.3276 16.56C92.797 16.56 93.2343 16.4427 93.6396 16.208C94.045 15.9733 94.3703 15.632 94.6156 15.184C94.8716 14.7253 94.9996 14.192 94.9996 13.584ZM101.171 16.512H105.171V18H99.0594V16.512L103.075 10.672H99.0594V9.184H105.171V10.672L101.171 16.512ZM111.231 18.144C110.399 18.144 109.647 17.9573 108.975 17.584C108.303 17.2 107.775 16.6667 107.391 15.984C107.007 15.2907 106.815 14.4907 106.815 13.584C106.815 12.688 107.012 11.8933 107.407 11.2C107.801 10.5067 108.34 9.97333 109.023 9.6C109.705 9.22667 110.468 9.04 111.311 9.04C112.153 9.04 112.916 9.22667 113.599 9.6C114.281 9.97333 114.82 10.5067 115.215 11.2C115.609 11.8933 115.807 12.688 115.807 13.584C115.807 14.48 115.604 15.2747 115.199 15.968C114.793 16.6613 114.239 17.2 113.535 17.584C112.841 17.9573 112.073 18.144 111.231 18.144ZM111.231 16.56C111.7 16.56 112.137 16.448 112.543 16.224C112.959 16 113.295 15.664 113.551 15.216C113.807 14.768 113.935 14.224 113.935 13.584C113.935 12.944 113.812 12.4053 113.567 11.968C113.321 11.52 112.996 11.184 112.591 10.96C112.185 10.736 111.748 10.624 111.279 10.624C110.809 10.624 110.372 10.736 109.967 10.96C109.572 11.184 109.257 11.52 109.023 11.968C108.788 12.4053 108.671 12.944 108.671 13.584C108.671 14.5333 108.911 15.2693 109.391 15.792C109.881 16.304 110.495 16.56 111.231 16.56ZM122.378 9.04C123.071 9.04 123.69 9.184 124.234 9.472C124.788 9.76 125.22 10.1867 125.53 10.752C125.839 11.3173 125.994 12 125.994 12.8V18H124.186V13.072C124.186 12.2827 123.988 11.68 123.594 11.264C123.199 10.8373 122.66 10.624 121.978 10.624C121.295 10.624 120.751 10.8373 120.346 11.264C119.951 11.68 119.754 12.2827 119.754 13.072V18H117.93V9.184H119.754V10.192C120.052 9.82933 120.431 9.54667 120.89 9.344C121.359 9.14133 121.855 9.04 122.378 9.04ZM147.597 6.88L144.301 18H142.237L139.901 9.584L137.421 18L135.373 18.016L132.221 6.88H134.157L136.461 15.936L138.957 6.88H141.005L143.325 15.888L145.645 6.88H147.597ZM157.501 13.376C157.501 13.7067 157.48 14.0053 157.437 14.272H150.701C150.754 14.976 151.016 15.5413 151.485 15.968C151.954 16.3947 152.53 16.608 153.213 16.608C154.194 16.608 154.888 16.1973 155.293 15.376H157.261C156.994 16.1867 156.509 16.8533 155.805 17.376C155.112 17.888 154.248 18.144 153.213 18.144C152.37 18.144 151.613 17.9573 150.941 17.584C150.28 17.2 149.757 16.6667 149.373 15.984C149 15.2907 148.813 14.4907 148.813 13.584C148.813 12.6773 148.994 11.8827 149.357 11.2C149.73 10.5067 150.248 9.97333 150.909 9.6C151.581 9.22667 152.349 9.04 153.213 9.04C154.045 9.04 154.786 9.22133 155.437 9.584C156.088 9.94667 156.594 10.4587 156.957 11.12C157.32 11.7707 157.501 12.5227 157.501 13.376ZM155.597 12.8C155.586 12.128 155.346 11.5893 154.877 11.184C154.408 10.7787 153.826 10.576 153.133 10.576C152.504 10.576 151.965 10.7787 151.517 11.184C151.069 11.5787 150.802 12.1173 150.717 12.8H155.597ZM161.44 10.496C161.749 10.0693 162.171 9.72267 162.704 9.456C163.248 9.17867 163.851 9.04 164.512 9.04C165.291 9.04 165.995 9.22667 166.624 9.6C167.253 9.97333 167.749 10.5067 168.112 11.2C168.475 11.8827 168.656 12.6667 168.656 13.552C168.656 14.4373 168.475 15.232 168.112 15.936C167.749 16.6293 167.248 17.1733 166.608 17.568C165.979 17.952 165.28 18.144 164.512 18.144C163.829 18.144 163.221 18.0107 162.688 17.744C162.165 17.4773 161.749 17.136 161.44 16.72V18H159.616V6.16H161.44V10.496ZM166.8 13.552C166.8 12.944 166.672 12.4213 166.416 11.984C166.171 11.536 165.84 11.2 165.424 10.976C165.019 10.7413 164.581 10.624 164.112 10.624C163.653 10.624 163.216 10.7413 162.8 10.976C162.395 11.2107 162.064 11.552 161.808 12C161.563 12.448 161.44 12.976 161.44 13.584C161.44 14.192 161.563 14.7253 161.808 15.184C162.064 15.632 162.395 15.9733 162.8 16.208C163.216 16.4427 163.653 16.56 164.112 16.56C164.581 16.56 165.019 16.4427 165.424 16.208C165.84 15.9627 166.171 15.6107 166.416 15.152C166.672 14.6933 166.8 14.16 166.8 13.552ZM178.92 18.112C178.173 18.112 177.501 17.984 176.904 17.728C176.307 17.4613 175.837 17.088 175.496 16.608C175.155 16.128 174.984 15.568 174.984 14.928H176.936C176.979 15.408 177.165 15.8027 177.496 16.112C177.837 16.4213 178.312 16.576 178.92 16.576C179.549 16.576 180.04 16.4267 180.392 16.128C180.744 15.8187 180.92 15.424 180.92 14.944C180.92 14.5707 180.808 14.2667 180.584 14.032C180.371 13.7973 180.099 13.616 179.768 13.488C179.448 13.36 179 13.2213 178.424 13.072C177.699 12.88 177.107 12.688 176.648 12.496C176.2 12.2933 175.816 11.984 175.496 11.568C175.176 11.152 175.016 10.5973 175.016 9.904C175.016 9.264 175.176 8.704 175.496 8.224C175.816 7.744 176.264 7.376 176.84 7.12C177.416 6.864 178.083 6.736 178.84 6.736C179.917 6.736 180.797 7.008 181.48 7.552C182.173 8.08533 182.557 8.82133 182.632 9.76H180.616C180.584 9.35467 180.392 9.008 180.04 8.72C179.688 8.432 179.224 8.288 178.648 8.288C178.125 8.288 177.699 8.42133 177.368 8.688C177.037 8.95467 176.872 9.33867 176.872 9.84C176.872 10.1813 176.973 10.464 177.176 10.688C177.389 10.9013 177.656 11.072 177.976 11.2C178.296 11.328 178.733 11.4667 179.288 11.616C180.024 11.8187 180.621 12.0213 181.08 12.224C181.549 12.4267 181.944 12.7413 182.264 13.168C182.595 13.584 182.76 14.144 182.76 14.848C182.76 15.4133 182.605 15.9467 182.296 16.448C181.997 16.9493 181.555 17.3547 180.968 17.664C180.392 17.9627 179.709 18.112 178.92 18.112ZM193.312 13.376C193.312 13.7067 193.291 14.0053 193.248 14.272H186.512C186.566 14.976 186.827 15.5413 187.296 15.968C187.766 16.3947 188.342 16.608 189.024 16.608C190.006 16.608 190.699 16.1973 191.104 15.376H193.072C192.806 16.1867 192.32 16.8533 191.616 17.376C190.923 17.888 190.059 18.144 189.024 18.144C188.182 18.144 187.424 17.9573 186.752 17.584C186.091 17.2 185.568 16.6667 185.184 15.984C184.811 15.2907 184.624 14.4907 184.624 13.584C184.624 12.6773 184.806 11.8827 185.168 11.2C185.542 10.5067 186.059 9.97333 186.72 9.6C187.392 9.22667 188.16 9.04 189.024 9.04C189.856 9.04 190.598 9.22133 191.248 9.584C191.899 9.94667 192.406 10.4587 192.768 11.12C193.131 11.7707 193.312 12.5227 193.312 13.376ZM191.408 12.8C191.398 12.128 191.158 11.5893 190.688 11.184C190.219 10.7787 189.638 10.576 188.944 10.576C188.315 10.576 187.776 10.7787 187.328 11.184C186.88 11.5787 186.614 12.1173 186.528 12.8H191.408ZM197.251 10.464C197.518 10.016 197.87 9.66933 198.307 9.424C198.755 9.168 199.283 9.04 199.891 9.04V10.928H199.427C198.713 10.928 198.169 11.1093 197.795 11.472C197.433 11.8347 197.251 12.464 197.251 13.36V18H195.427V9.184H197.251V10.464ZM205.296 16.368L207.792 9.184H209.728L206.368 18H204.192L200.848 9.184H202.8L205.296 16.368ZM212.355 8.016C212.024 8.016 211.747 7.904 211.523 7.68C211.299 7.456 211.187 7.17867 211.187 6.848C211.187 6.51733 211.299 6.24 211.523 6.016C211.747 5.792 212.024 5.68 212.355 5.68C212.675 5.68 212.947 5.792 213.171 6.016C213.395 6.24 213.507 6.51733 213.507 6.848C213.507 7.17867 213.395 7.456 213.171 7.68C212.947 7.904 212.675 8.016 212.355 8.016ZM213.251 9.184V18H211.427V9.184H213.251ZM215.357 13.584C215.357 12.6773 215.539 11.8827 215.901 11.2C216.275 10.5067 216.787 9.97333 217.437 9.6C218.088 9.22667 218.835 9.04 219.677 9.04C220.744 9.04 221.624 9.296 222.317 9.808C223.021 10.3093 223.496 11.0293 223.741 11.968H221.773C221.613 11.5307 221.357 11.1893 221.005 10.944C220.653 10.6987 220.211 10.576 219.677 10.576C218.931 10.576 218.333 10.8427 217.885 11.376C217.448 11.8987 217.229 12.6347 217.229 13.584C217.229 14.5333 217.448 15.2747 217.885 15.808C218.333 16.3413 218.931 16.608 219.677 16.608C220.733 16.608 221.432 16.144 221.773 15.216H223.741C223.485 16.112 223.005 16.8267 222.301 17.36C221.597 17.8827 220.723 18.144 219.677 18.144C218.835 18.144 218.088 17.9573 217.437 17.584C216.787 17.2 216.275 16.6667 215.901 15.984C215.539 15.2907 215.357 14.4907 215.357 13.584ZM233.959 13.376C233.959 13.7067 233.938 14.0053 233.895 14.272H227.159C227.212 14.976 227.474 15.5413 227.943 15.968C228.412 16.3947 228.988 16.608 229.671 16.608C230.652 16.608 231.346 16.1973 231.751 15.376H233.719C233.452 16.1867 232.967 16.8533 232.263 17.376C231.57 17.888 230.706 18.144 229.671 18.144C228.828 18.144 228.071 17.9573 227.399 17.584C226.738 17.2 226.215 16.6667 225.831 15.984C225.458 15.2907 225.271 14.4907 225.271 13.584C225.271 12.6773 225.452 11.8827 225.815 11.2C226.188 10.5067 226.706 9.97333 227.367 9.6C228.039 9.22667 228.807 9.04 229.671 9.04C230.503 9.04 231.244 9.22133 231.895 9.584C232.546 9.94667 233.052 10.4587 233.415 11.12C233.778 11.7707 233.959 12.5227 233.959 13.376ZM232.055 12.8C232.044 12.128 231.804 11.5893 231.335 11.184C230.866 10.7787 230.284 10.576 229.591 10.576C228.962 10.576 228.423 10.7787 227.975 11.184C227.527 11.5787 227.26 12.1173 227.175 12.8H232.055ZM239.274 18.144C238.581 18.144 237.957 18.0213 237.402 17.776C236.858 17.52 236.426 17.1787 236.106 16.752C235.786 16.3147 235.615 15.8293 235.594 15.296H237.482C237.514 15.6693 237.69 15.984 238.01 16.24C238.341 16.4853 238.751 16.608 239.242 16.608C239.754 16.608 240.149 16.512 240.426 16.32C240.714 16.1173 240.858 15.8613 240.858 15.552C240.858 15.2213 240.698 14.976 240.378 14.816C240.069 14.656 239.573 14.48 238.89 14.288C238.229 14.1067 237.69 13.9307 237.274 13.76C236.858 13.5893 236.495 13.328 236.186 12.976C235.887 12.624 235.738 12.16 235.738 11.584C235.738 11.1147 235.877 10.688 236.154 10.304C236.431 9.90933 236.826 9.6 237.338 9.376C237.861 9.152 238.458 9.04 239.13 9.04C240.133 9.04 240.938 9.296 241.546 9.808C242.165 10.3093 242.495 10.9973 242.538 11.872H240.714C240.682 11.4773 240.522 11.1627 240.234 10.928C239.946 10.6933 239.557 10.576 239.066 10.576C238.586 10.576 238.218 10.6667 237.962 10.848C237.706 11.0293 237.578 11.2693 237.578 11.568C237.578 11.8027 237.663 12 237.834 12.16C238.005 12.32 238.213 12.448 238.458 12.544C238.703 12.6293 239.066 12.7413 239.546 12.88C240.186 13.0507 240.709 13.2267 241.114 13.408C241.53 13.5787 241.887 13.8347 242.186 14.176C242.485 14.5173 242.639 14.9707 242.65 15.536C242.65 16.0373 242.511 16.4853 242.234 16.88C241.957 17.2747 241.562 17.584 241.05 17.808C240.549 18.032 239.957 18.144 239.274 18.144Z" fill="#F4F4F5"/>
<defs>
<clipPath id="clip0_3116_15786">
<rect width="50" height="24" fill="white" transform="translate(0.595703)"/>
</clipPath>
</defs>
</svg>
