<svg width="149" height="24" viewBox="0 0 149 24" fill="none" xmlns="http://www.w3.org/2000/svg">
<path d="M10.6028 0.000551421C10.1774 0.0125514 9.75722 0.214864 9.40584 0.604864C9.21272 0.819739 9.04865 1.07549 8.91271 1.32768C8.55834 1.99143 8.48859 2.74274 8.35734 3.4708L7.63509 7.56018C7.60734 7.72068 7.53534 7.78705 7.39134 7.83299L2.09109 9.51674C1.70484 9.64293 1.31765 9.80605 0.976027 10.023C-0.0660978 10.6849 -0.220223 11.7739 0.562215 12.7301C0.90759 13.1531 1.35271 13.4507 1.84659 13.6669L5.14715 15.1374C5.17472 15.1524 5.20415 15.1622 5.23396 15.1678L5.9309 15.6707C5.9309 15.6707 5.23715 23.3484 6.53953 23.8796C6.52809 23.8777 6.46265 23.8642 6.46265 23.8642C6.46265 23.8642 6.59465 24.0069 6.95072 23.9649C7.22334 24.0156 7.18734 24.0073 6.96459 23.9631C7.4489 23.9004 8.34028 23.4949 9.88547 21.9411C9.99915 21.8392 10.1102 21.7344 10.2185 21.6268L13.556 18.0236L14.3365 18.2983C14.3647 18.3371 14.4053 18.3621 14.4704 18.3814L18.1872 19.5122C18.6952 19.6689 19.1977 19.7837 19.7392 19.7046C20.7059 19.563 21.4175 18.7671 21.4079 17.7936C21.4042 17.3661 21.2542 16.98 21.0573 16.6078L18.5958 11.9394C18.5174 11.7919 18.5198 11.6964 18.6325 11.5644L22.7677 6.70405C23.0354 6.38474 23.2771 6.04236 23.4173 5.64561C23.7254 4.76999 23.327 4.07399 22.418 3.90393C22 3.8293 21.5879 3.86868 21.1805 3.97611L15.256 5.55018C15.0817 5.59705 14.9954 5.56424 14.9007 5.40543L12.482 1.38655C12.2992 1.08374 12.0807 0.787676 11.83 0.537739C11.459 0.166676 11.0283 -0.0112611 10.6028 0.000551421ZM10.7798 3.70105C10.8755 3.76818 10.9238 3.83736 10.9692 3.91199L13.5717 8.24886C13.6433 8.36661 13.7077 8.40824 13.8502 8.37036L18.4332 7.15218L19.5367 6.86343C19.5203 6.95586 19.48 7.01155 19.436 7.06368L15.656 11.5022C15.5491 11.6312 15.5392 11.7216 15.6196 11.8727L18.0089 16.4027L18.1186 16.6346L18.1158 16.6384L13.8545 15.4639L13.8533 15.4605L13.0475 15.2346L8.26753 20.5326L9.14184 13.5669L8.35734 13.2257L8.35884 13.2244L3.91997 11.4619C4.00509 11.3844 4.08121 11.3522 4.1609 11.3274L9.55659 9.62193C9.68334 9.58255 9.75553 9.5338 9.76753 9.38905L9.84309 8.94749L10.5697 4.85868L10.7798 3.70105Z" fill="white"/>
<path d="M39.5625 15.728H34.9065L34.1065 18H32.2025L36.1865 6.864H38.2985L42.2825 18H40.3625L39.5625 15.728ZM39.0505 14.24L37.2425 9.072L35.4185 14.24H39.0505ZM46.1587 10.48C46.468 10.0747 46.8894 9.73333 47.4227 9.456C47.956 9.17867 48.5587 9.04 49.2307 9.04C49.9987 9.04 50.6974 9.232 51.3267 9.616C51.9667 9.98933 52.468 10.5173 52.8307 11.2C53.1934 11.8827 53.3747 12.6667 53.3747 13.552C53.3747 14.4373 53.1934 15.232 52.8307 15.936C52.468 16.6293 51.9667 17.1733 51.3267 17.568C50.6974 17.952 49.9987 18.144 49.2307 18.144C48.5587 18.144 47.9614 18.0107 47.4387 17.744C46.916 17.4667 46.4894 17.1253 46.1587 16.72V22.192H44.3347V9.184H46.1587V10.48ZM51.5187 13.552C51.5187 12.944 51.3907 12.4213 51.1347 11.984C50.8894 11.536 50.5587 11.2 50.1427 10.976C49.7374 10.7413 49.3 10.624 48.8307 10.624C48.372 10.624 47.9347 10.7413 47.5187 10.976C47.1134 11.2107 46.7827 11.552 46.5267 12C46.2814 12.448 46.1587 12.976 46.1587 13.584C46.1587 14.192 46.2814 14.7253 46.5267 15.184C46.7827 15.632 47.1134 15.9733 47.5187 16.208C47.9347 16.4427 48.372 16.56 48.8307 16.56C49.3 16.56 49.7374 16.4427 50.1427 16.208C50.5587 15.9627 50.8894 15.6107 51.1347 15.152C51.3907 14.6933 51.5187 14.16 51.5187 13.552ZM54.8905 13.552C54.8905 12.6667 55.0718 11.8827 55.4345 11.2C55.8078 10.5173 56.3091 9.98933 56.9385 9.616C57.5785 9.232 58.2825 9.04 59.0505 9.04C59.7438 9.04 60.3465 9.17867 60.8585 9.456C61.3811 9.72267 61.7971 10.0587 62.1065 10.464V9.184H63.9465V18H62.1065V16.688C61.7971 17.104 61.3758 17.4507 60.8425 17.728C60.3091 18.0053 59.7011 18.144 59.0185 18.144C58.2611 18.144 57.5678 17.952 56.9385 17.568C56.3091 17.1733 55.8078 16.6293 55.4345 15.936C55.0718 15.232 54.8905 14.4373 54.8905 13.552ZM62.1065 13.584C62.1065 12.976 61.9785 12.448 61.7225 12C61.4771 11.552 61.1518 11.2107 60.7465 10.976C60.3411 10.7413 59.9038 10.624 59.4345 10.624C58.9651 10.624 58.5278 10.7413 58.1225 10.976C57.7171 11.2 57.3865 11.536 57.1305 11.984C56.8851 12.4213 56.7625 12.944 56.7625 13.552C56.7625 14.16 56.8851 14.6933 57.1305 15.152C57.3865 15.6107 57.7171 15.9627 58.1225 16.208C58.5385 16.4427 58.9758 16.56 59.4345 16.56C59.9038 16.56 60.3411 16.4427 60.7465 16.208C61.1518 15.9733 61.4771 15.632 61.7225 15.184C61.9785 14.7253 62.1065 14.192 62.1065 13.584ZM66.0542 13.584C66.0542 12.6773 66.2355 11.8827 66.5982 11.2C66.9715 10.5067 67.4835 9.97333 68.1342 9.6C68.7849 9.22667 69.5315 9.04 70.3742 9.04C71.4409 9.04 72.3209 9.296 73.0142 9.808C73.7182 10.3093 74.1929 11.0293 74.4382 11.968H72.4702C72.3102 11.5307 72.0542 11.1893 71.7022 10.944C71.3502 10.6987 70.9075 10.576 70.3742 10.576C69.6275 10.576 69.0302 10.8427 68.5822 11.376C68.1449 11.8987 67.9262 12.6347 67.9262 13.584C67.9262 14.5333 68.1449 15.2747 68.5822 15.808C69.0302 16.3413 69.6275 16.608 70.3742 16.608C71.4302 16.608 72.1289 16.144 72.4702 15.216H74.4382C74.1822 16.112 73.7022 16.8267 72.9982 17.36C72.2942 17.8827 71.4195 18.144 70.3742 18.144C69.5315 18.144 68.7849 17.9573 68.1342 17.584C67.4835 17.2 66.9715 16.6667 66.5982 15.984C66.2355 15.2907 66.0542 14.4907 66.0542 13.584ZM81.136 9.04C81.808 9.04 82.4053 9.184 82.928 9.472C83.4613 9.76 83.8773 10.1867 84.176 10.752C84.4853 11.3173 84.64 12 84.64 12.8V18H82.832V13.072C82.832 12.2827 82.6346 11.68 82.24 11.264C81.8453 10.8373 81.3066 10.624 80.624 10.624C79.9413 10.624 79.3973 10.8373 78.992 11.264C78.5973 11.68 78.4 12.2827 78.4 13.072V18H76.576V6.16H78.4V10.208C78.7093 9.83467 79.0986 9.54667 79.568 9.344C80.048 9.14133 80.5706 9.04 81.136 9.04ZM95.3666 13.376C95.3666 13.7067 95.3452 14.0053 95.3026 14.272H88.5666C88.6199 14.976 88.8812 15.5413 89.3506 15.968C89.8199 16.3947 90.3959 16.608 91.0786 16.608C92.0599 16.608 92.7532 16.1973 93.1586 15.376H95.1266C94.8599 16.1867 94.3746 16.8533 93.6706 17.376C92.9772 17.888 92.1132 18.144 91.0786 18.144C90.2359 18.144 89.4786 17.9573 88.8066 17.584C88.1452 17.2 87.6226 16.6667 87.2386 15.984C86.8652 15.2907 86.6786 14.4907 86.6786 13.584C86.6786 12.6773 86.8599 11.8827 87.2226 11.2C87.5959 10.5067 88.1132 9.97333 88.7746 9.6C89.4466 9.22667 90.2146 9.04 91.0786 9.04C91.9106 9.04 92.6519 9.22133 93.3026 9.584C93.9532 9.94667 94.4599 10.4587 94.8226 11.12C95.1852 11.7707 95.3666 12.5227 95.3666 13.376ZM93.4626 12.8C93.4519 12.128 93.2119 11.5893 92.7426 11.184C92.2732 10.7787 91.6919 10.576 90.9986 10.576C90.3692 10.576 89.8306 10.7787 89.3826 11.184C88.9346 11.5787 88.6679 12.1173 88.5826 12.8H93.4626ZM105.622 18.112C104.875 18.112 104.203 17.984 103.606 17.728C103.008 17.4613 102.539 17.088 102.198 16.608C101.856 16.128 101.686 15.568 101.686 14.928H103.638C103.68 15.408 103.867 15.8027 104.198 16.112C104.539 16.4213 105.014 16.576 105.622 16.576C106.251 16.576 106.742 16.4267 107.094 16.128C107.446 15.8187 107.622 15.424 107.622 14.944C107.622 14.5707 107.51 14.2667 107.286 14.032C107.072 13.7973 106.8 13.616 106.47 13.488C106.15 13.36 105.702 13.2213 105.126 13.072C104.4 12.88 103.808 12.688 103.35 12.496C102.902 12.2933 102.518 11.984 102.198 11.568C101.878 11.152 101.718 10.5973 101.718 9.904C101.718 9.264 101.878 8.704 102.198 8.224C102.518 7.744 102.966 7.376 103.542 7.12C104.118 6.864 104.784 6.736 105.542 6.736C106.619 6.736 107.499 7.008 108.182 7.552C108.875 8.08533 109.259 8.82133 109.334 9.76H107.318C107.286 9.35467 107.094 9.008 106.742 8.72C106.39 8.432 105.926 8.288 105.35 8.288C104.827 8.288 104.4 8.42133 104.07 8.688C103.739 8.95467 103.574 9.33867 103.574 9.84C103.574 10.1813 103.675 10.464 103.878 10.688C104.091 10.9013 104.358 11.072 104.678 11.2C104.998 11.328 105.435 11.4667 105.99 11.616C106.726 11.8187 107.323 12.0213 107.782 12.224C108.251 12.4267 108.646 12.7413 108.966 13.168C109.296 13.584 109.462 14.144 109.462 14.848C109.462 15.4133 109.307 15.9467 108.998 16.448C108.699 16.9493 108.256 17.3547 107.67 17.664C107.094 17.9627 106.411 18.112 105.622 18.112ZM113.758 10.48C114.067 10.0747 114.489 9.73333 115.022 9.456C115.555 9.17867 116.158 9.04 116.83 9.04C117.598 9.04 118.297 9.232 118.926 9.616C119.566 9.98933 120.067 10.5173 120.43 11.2C120.793 11.8827 120.974 12.6667 120.974 13.552C120.974 14.4373 120.793 15.232 120.43 15.936C120.067 16.6293 119.566 17.1733 118.926 17.568C118.297 17.952 117.598 18.144 116.83 18.144C116.158 18.144 115.561 18.0107 115.038 17.744C114.515 17.4667 114.089 17.1253 113.758 16.72V22.192H111.934V9.184H113.758V10.48ZM119.118 13.552C119.118 12.944 118.99 12.4213 118.734 11.984C118.489 11.536 118.158 11.2 117.742 10.976C117.337 10.7413 116.899 10.624 116.43 10.624C115.971 10.624 115.534 10.7413 115.118 10.976C114.713 11.2107 114.382 11.552 114.126 12C113.881 12.448 113.758 12.976 113.758 13.584C113.758 14.192 113.881 14.7253 114.126 15.184C114.382 15.632 114.713 15.9733 115.118 16.208C115.534 16.4427 115.971 16.56 116.43 16.56C116.899 16.56 117.337 16.4427 117.742 16.208C118.158 15.9627 118.489 15.6107 118.734 15.152C118.99 14.6933 119.118 14.16 119.118 13.552ZM122.49 13.552C122.49 12.6667 122.671 11.8827 123.034 11.2C123.407 10.5173 123.908 9.98933 124.538 9.616C125.178 9.232 125.882 9.04 126.65 9.04C127.343 9.04 127.946 9.17867 128.458 9.456C128.98 9.72267 129.396 10.0587 129.706 10.464V9.184H131.546V18H129.706V16.688C129.396 17.104 128.975 17.4507 128.442 17.728C127.908 18.0053 127.3 18.144 126.618 18.144C125.86 18.144 125.167 17.952 124.538 17.568C123.908 17.1733 123.407 16.6293 123.034 15.936C122.671 15.232 122.49 14.4373 122.49 13.552ZM129.706 13.584C129.706 12.976 129.578 12.448 129.322 12C129.076 11.552 128.751 11.2107 128.346 10.976C127.94 10.7413 127.503 10.624 127.034 10.624C126.564 10.624 126.127 10.7413 125.722 10.976C125.316 11.2 124.986 11.536 124.73 11.984C124.484 12.4213 124.362 12.944 124.362 13.552C124.362 14.16 124.484 14.6933 124.73 15.152C124.986 15.6107 125.316 15.9627 125.722 16.208C126.138 16.4427 126.575 16.56 127.034 16.56C127.503 16.56 127.94 16.4427 128.346 16.208C128.751 15.9733 129.076 15.632 129.322 15.184C129.578 14.7253 129.706 14.192 129.706 13.584ZM136.086 10.464C136.352 10.016 136.704 9.66933 137.142 9.424C137.59 9.168 138.118 9.04 138.726 9.04V10.928H138.262C137.547 10.928 137.003 11.1093 136.63 11.472C136.267 11.8347 136.086 12.464 136.086 13.36V18H134.262V9.184H136.086V10.464ZM144.21 13.6L148.274 18H145.81L142.546 14.208V18H140.722V6.16H142.546V13.04L145.746 9.184H148.274L144.21 13.6Z" fill="#F4F4F5"/>
</svg>
