<svg width="145" height="24" viewBox="0 0 145 24" fill="none" xmlns="http://www.w3.org/2000/svg">
<g clip-path="url(#clip0_3116_17115)">
<path d="M6.88867 11.9996L13.3052 7.97266L6.88867 11.9996Z" fill="url(#paint0_linear_3116_17115)"/>
<path d="M13.3047 4.81L0.890625 0.925781V8.26055V15.5729V22.9998L13.3047 19.1899V16.0373L6.75861 12L13.3047 7.96265V4.81Z" fill="white"/>
<path d="M0.946289 0.955078L13.3056 4.82917L0.946289 0.955078Z" fill="#FEE900"/>
<path d="M17.7409 15.1594C17.5824 14.5924 17.3307 14.0558 16.996 13.5715C16.6539 13.0823 16.2271 12.6581 15.7356 12.3192C15.1897 11.9471 14.5831 11.6729 13.9431 11.5089C15.078 11.0288 15.9401 10.3522 16.5295 9.47907C17.1177 8.60999 17.4261 7.58188 17.4135 6.53256C17.4377 5.53987 17.245 4.55385 16.8487 3.64335C16.4857 2.84699 15.925 2.15671 15.22 1.63809C14.4375 1.08106 13.5531 0.683372 12.6172 0.467671C11.4804 0.198643 10.315 0.0694625 9.14688 0.0829938H0.978516V1.00283L13.0763 4.77195C13.1429 4.79362 13.201 4.83584 13.2422 4.89254C13.2834 4.94924 13.3056 5.01752 13.3056 5.0876V7.78866C13.3056 7.84764 13.2898 7.90556 13.26 7.95645C13.2302 8.00734 13.1874 8.04937 13.1359 8.07821L6.93768 12L13.1359 15.9218C13.1874 15.9506 13.2302 15.9927 13.26 16.0436C13.2898 16.0945 13.3056 16.1524 13.3056 16.2114V18.9124C13.3056 18.9825 13.2834 19.0508 13.2422 19.1075C13.201 19.1642 13.1429 19.2064 13.0763 19.2281L0.978516 22.9972V23.917H9.71982C10.8889 23.9326 12.0543 23.7838 13.182 23.475C14.1301 23.2172 15.0157 22.7688 15.7847 22.1572C16.4985 21.5747 17.0603 20.8276 17.4217 19.9801C17.8154 19.0229 18.0077 17.9948 17.9864 16.96C17.9882 16.3513 17.9056 15.7453 17.7409 15.1594Z" fill="white" stroke="black" stroke-miterlimit="10"/>
</g>
<path d="M34.2327 15.728H29.5767L28.7767 18H26.8727L30.8567 6.864H32.9687L36.9527 18H35.0327L34.2327 15.728ZM33.7207 14.24L31.9127 9.072L30.0887 14.24H33.7207ZM40.829 10.48C41.1383 10.0747 41.5596 9.73333 42.093 9.456C42.6263 9.17867 43.229 9.04 43.901 9.04C44.669 9.04 45.3676 9.232 45.997 9.616C46.637 9.98933 47.1383 10.5173 47.501 11.2C47.8636 11.8827 48.045 12.6667 48.045 13.552C48.045 14.4373 47.8636 15.232 47.501 15.936C47.1383 16.6293 46.637 17.1733 45.997 17.568C45.3676 17.952 44.669 18.144 43.901 18.144C43.229 18.144 42.6316 18.0107 42.109 17.744C41.5863 17.4667 41.1596 17.1253 40.829 16.72V22.192H39.005V9.184H40.829V10.48ZM46.189 13.552C46.189 12.944 46.061 12.4213 45.805 11.984C45.5596 11.536 45.229 11.2 44.813 10.976C44.4076 10.7413 43.9703 10.624 43.501 10.624C43.0423 10.624 42.605 10.7413 42.189 10.976C41.7836 11.2107 41.453 11.552 41.197 12C40.9516 12.448 40.829 12.976 40.829 13.584C40.829 14.192 40.9516 14.7253 41.197 15.184C41.453 15.632 41.7836 15.9733 42.189 16.208C42.605 16.4427 43.0423 16.56 43.501 16.56C43.9703 16.56 44.4076 16.4427 44.813 16.208C45.229 15.9627 45.5596 15.6107 45.805 15.152C46.061 14.6933 46.189 14.16 46.189 13.552ZM49.5607 13.552C49.5607 12.6667 49.742 11.8827 50.1047 11.2C50.478 10.5173 50.9794 9.98933 51.6087 9.616C52.2487 9.232 52.9527 9.04 53.7207 9.04C54.414 9.04 55.0167 9.17867 55.5287 9.456C56.0514 9.72267 56.4674 10.0587 56.7767 10.464V9.184H58.6167V18H56.7767V16.688C56.4674 17.104 56.046 17.4507 55.5127 17.728C54.9794 18.0053 54.3714 18.144 53.6887 18.144C52.9314 18.144 52.238 17.952 51.6087 17.568C50.9794 17.1733 50.478 16.6293 50.1047 15.936C49.742 15.232 49.5607 14.4373 49.5607 13.552ZM56.7767 13.584C56.7767 12.976 56.6487 12.448 56.3927 12C56.1474 11.552 55.822 11.2107 55.4167 10.976C55.0114 10.7413 54.574 10.624 54.1047 10.624C53.6354 10.624 53.198 10.7413 52.7927 10.976C52.3874 11.2 52.0567 11.536 51.8007 11.984C51.5554 12.4213 51.4327 12.944 51.4327 13.552C51.4327 14.16 51.5554 14.6933 51.8007 15.152C52.0567 15.6107 52.3874 15.9627 52.7927 16.208C53.2087 16.4427 53.646 16.56 54.1047 16.56C54.574 16.56 55.0114 16.4427 55.4167 16.208C55.822 15.9733 56.1474 15.632 56.3927 15.184C56.6487 14.7253 56.7767 14.192 56.7767 13.584ZM60.7245 13.584C60.7245 12.6773 60.9058 11.8827 61.2685 11.2C61.6418 10.5067 62.1538 9.97333 62.8045 9.6C63.4551 9.22667 64.2018 9.04 65.0445 9.04C66.1111 9.04 66.9911 9.296 67.6845 9.808C68.3885 10.3093 68.8631 11.0293 69.1085 11.968H67.1405C66.9805 11.5307 66.7245 11.1893 66.3725 10.944C66.0205 10.6987 65.5778 10.576 65.0445 10.576C64.2978 10.576 63.7005 10.8427 63.2525 11.376C62.8151 11.8987 62.5965 12.6347 62.5965 13.584C62.5965 14.5333 62.8151 15.2747 63.2525 15.808C63.7005 16.3413 64.2978 16.608 65.0445 16.608C66.1005 16.608 66.7991 16.144 67.1405 15.216H69.1085C68.8525 16.112 68.3725 16.8267 67.6685 17.36C66.9645 17.8827 66.0898 18.144 65.0445 18.144C64.2018 18.144 63.4551 17.9573 62.8045 17.584C62.1538 17.2 61.6418 16.6667 61.2685 15.984C60.9058 15.2907 60.7245 14.4907 60.7245 13.584ZM75.8062 9.04C76.4782 9.04 77.0755 9.184 77.5982 9.472C78.1315 9.76 78.5475 10.1867 78.8462 10.752C79.1555 11.3173 79.3102 12 79.3102 12.8V18H77.5022V13.072C77.5022 12.2827 77.3049 11.68 76.9102 11.264C76.5155 10.8373 75.9769 10.624 75.2942 10.624C74.6115 10.624 74.0675 10.8373 73.6622 11.264C73.2675 11.68 73.0702 12.2827 73.0702 13.072V18H71.2462V6.16H73.0702V10.208C73.3795 9.83467 73.7689 9.54667 74.2382 9.344C74.7182 9.14133 75.2409 9.04 75.8062 9.04ZM90.0368 13.376C90.0368 13.7067 90.0155 14.0053 89.9728 14.272H83.2368C83.2902 14.976 83.5515 15.5413 84.0208 15.968C84.4902 16.3947 85.0662 16.608 85.7488 16.608C86.7302 16.608 87.4235 16.1973 87.8288 15.376H89.7968C89.5302 16.1867 89.0448 16.8533 88.3408 17.376C87.6475 17.888 86.7835 18.144 85.7488 18.144C84.9062 18.144 84.1488 17.9573 83.4768 17.584C82.8155 17.2 82.2928 16.6667 81.9088 15.984C81.5355 15.2907 81.3488 14.4907 81.3488 13.584C81.3488 12.6773 81.5302 11.8827 81.8928 11.2C82.2662 10.5067 82.7835 9.97333 83.4448 9.6C84.1168 9.22667 84.8848 9.04 85.7488 9.04C86.5808 9.04 87.3222 9.22133 87.9728 9.584C88.6235 9.94667 89.1302 10.4587 89.4928 11.12C89.8555 11.7707 90.0368 12.5227 90.0368 13.376ZM88.1328 12.8C88.1222 12.128 87.8822 11.5893 87.4128 11.184C86.9435 10.7787 86.3622 10.576 85.6688 10.576C85.0395 10.576 84.5008 10.7787 84.0528 11.184C83.6048 11.5787 83.3382 12.1173 83.2528 12.8H88.1328ZM102.58 12.288C103.177 12.3947 103.684 12.7093 104.1 13.232C104.516 13.7547 104.724 14.3467 104.724 15.008C104.724 15.5733 104.575 16.0853 104.276 16.544C103.988 16.992 103.567 17.3493 103.012 17.616C102.457 17.872 101.812 18 101.076 18H96.6281V6.88H100.868C101.625 6.88 102.276 7.008 102.82 7.264C103.364 7.52 103.775 7.86667 104.052 8.304C104.329 8.73067 104.468 9.21067 104.468 9.744C104.468 10.384 104.297 10.9173 103.956 11.344C103.615 11.7707 103.156 12.0853 102.58 12.288ZM98.4521 11.552H100.708C101.305 11.552 101.769 11.4187 102.1 11.152C102.441 10.8747 102.612 10.48 102.612 9.968C102.612 9.46667 102.441 9.07733 102.1 8.8C101.769 8.512 101.305 8.368 100.708 8.368H98.4521V11.552ZM100.916 16.512C101.535 16.512 102.02 16.3627 102.372 16.064C102.724 15.7653 102.9 15.3493 102.9 14.816C102.9 14.272 102.713 13.84 102.34 13.52C101.967 13.2 101.471 13.04 100.852 13.04H98.4521V16.512H100.916ZM115.106 13.376C115.106 13.7067 115.085 14.0053 115.042 14.272H108.306C108.36 14.976 108.621 15.5413 109.09 15.968C109.56 16.3947 110.136 16.608 110.818 16.608C111.8 16.608 112.493 16.1973 112.898 15.376H114.866C114.6 16.1867 114.114 16.8533 113.41 17.376C112.717 17.888 111.853 18.144 110.818 18.144C109.976 18.144 109.218 17.9573 108.546 17.584C107.885 17.2 107.362 16.6667 106.978 15.984C106.605 15.2907 106.418 14.4907 106.418 13.584C106.418 12.6773 106.6 11.8827 106.962 11.2C107.336 10.5067 107.853 9.97333 108.514 9.6C109.186 9.22667 109.954 9.04 110.818 9.04C111.65 9.04 112.392 9.22133 113.042 9.584C113.693 9.94667 114.2 10.4587 114.562 11.12C114.925 11.7707 115.106 12.5227 115.106 13.376ZM113.202 12.8C113.192 12.128 112.952 11.5893 112.482 11.184C112.013 10.7787 111.432 10.576 110.738 10.576C110.109 10.576 109.57 10.7787 109.122 11.184C108.674 11.5787 108.408 12.1173 108.322 12.8H113.202ZM116.613 13.552C116.613 12.6667 116.795 11.8827 117.157 11.2C117.531 10.5173 118.032 9.98933 118.661 9.616C119.301 9.232 120.005 9.04 120.773 9.04C121.467 9.04 122.069 9.17867 122.581 9.456C123.104 9.72267 123.52 10.0587 123.829 10.464V9.184H125.669V18H123.829V16.688C123.52 17.104 123.099 17.4507 122.565 17.728C122.032 18.0053 121.424 18.144 120.741 18.144C119.984 18.144 119.291 17.952 118.661 17.568C118.032 17.1733 117.531 16.6293 117.157 15.936C116.795 15.232 116.613 14.4373 116.613 13.552ZM123.829 13.584C123.829 12.976 123.701 12.448 123.445 12C123.2 11.552 122.875 11.2107 122.469 10.976C122.064 10.7413 121.627 10.624 121.157 10.624C120.688 10.624 120.251 10.7413 119.845 10.976C119.44 11.2 119.109 11.536 118.853 11.984C118.608 12.4213 118.485 12.944 118.485 13.552C118.485 14.16 118.608 14.6933 118.853 15.152C119.109 15.6107 119.44 15.9627 119.845 16.208C120.261 16.4427 120.699 16.56 121.157 16.56C121.627 16.56 122.064 16.4427 122.469 16.208C122.875 15.9733 123.2 15.632 123.445 15.184C123.701 14.7253 123.829 14.192 123.829 13.584ZM139.057 9.04C139.75 9.04 140.369 9.184 140.913 9.472C141.468 9.76 141.9 10.1867 142.209 10.752C142.529 11.3173 142.689 12 142.689 12.8V18H140.881V13.072C140.881 12.2827 140.684 11.68 140.289 11.264C139.894 10.8373 139.356 10.624 138.673 10.624C137.99 10.624 137.446 10.8373 137.041 11.264C136.646 11.68 136.449 12.2827 136.449 13.072V18H134.641V13.072C134.641 12.2827 134.444 11.68 134.049 11.264C133.654 10.8373 133.116 10.624 132.433 10.624C131.75 10.624 131.206 10.8373 130.801 11.264C130.406 11.68 130.209 12.2827 130.209 13.072V18H128.385V9.184H130.209V10.192C130.508 9.82933 130.886 9.54667 131.345 9.344C131.804 9.14133 132.294 9.04 132.817 9.04C133.521 9.04 134.15 9.18933 134.705 9.488C135.26 9.78667 135.686 10.2187 135.985 10.784C136.252 10.2507 136.668 9.82933 137.233 9.52C137.798 9.2 138.406 9.04 139.057 9.04Z" fill="#F4F4F5"/>
<defs>
<linearGradient id="paint0_linear_3116_17115" x1="0.945839" y1="9.98616" x2="13.3052" y2="9.98616" gradientUnits="userSpaceOnUse">
<stop stop-color="#FFFF00" stop-opacity="0.7"/>
<stop offset="0.13194" stop-color="#FFF600" stop-opacity="0.66022"/>
<stop offset="0.31385" stop-color="#FEEF00" stop-opacity="0.62592"/>
<stop offset="0.54652" stop-color="#FEEA00" stop-opacity="0.60587"/>
<stop offset="1" stop-color="#FEE900" stop-opacity="0.6"/>
</linearGradient>
<clipPath id="clip0_3116_17115">
<rect width="17.2194" height="24" fill="white" transform="translate(0.849609)"/>
</clipPath>
</defs>
</svg>
