<svg width="140" height="24" viewBox="0 0 140 24" fill="none" xmlns="http://www.w3.org/2000/svg">
<g clip-path="url(#clip0_3116_17027)">
<path d="M4.04148 13.236C4.06948 13.271 4.10548 13.305 4.13948 13.337L4.16348 13.359L4.17148 13.363C4.22808 13.3923 4.28825 13.4142 4.35048 13.428C4.24078 12.8488 4.19451 12.2593 4.21248 11.67C4.23948 10.873 4.39048 10.2 4.67448 9.611C4.7729 9.43409 4.87797 9.26096 4.98948 9.092C4.98948 9.092 4.81348 10.294 4.78748 10.765C4.75806 11.392 4.81186 12.0201 4.94748 12.633L5.01948 12.583C4.97648 12.194 4.97748 11.783 5.02348 11.363C5.08958 10.7739 5.23037 10.1956 5.44248 9.642C5.6931 8.97607 6.01958 8.34122 6.41548 7.75C4.43048 7.959 3.99748 9.85 3.99748 9.85C3.99748 9.85 4.01448 9.503 4.02148 9.416C4.07848 8.767 4.14448 8.455 4.22648 8.129C4.09648 8.367 4.01448 8.617 3.95548 8.817C3.81648 9.287 3.73948 9.766 3.68248 10.173C3.61971 10.5998 3.58762 11.0306 3.58648 11.462C3.58848 11.842 3.61048 12.29 3.76248 12.725C3.83548 12.93 3.92648 13.098 4.04148 13.236ZM5.48148 12.499C5.66048 12.386 5.86648 12.299 6.10748 12.231C6.53248 12.112 6.99648 11.992 7.56848 11.852L7.75848 11.806C8.23648 11.69 8.73248 11.569 9.19748 11.391C9.48048 11.283 9.74948 11.141 10.0215 10.955C10.4015 10.695 10.7425 10.376 11.0335 10.004C11.1875 9.808 11.2655 9.655 11.3425 9.399L11.4565 9.021C11.4565 9.021 11.9205 9.54 11.4525 10.457C11.7495 10.35 12.0345 10.044 12.2505 9.669C12.4315 9.354 12.7415 8.218 12.7415 8.218C12.7415 8.218 13.3105 9.093 12.6365 10.229C12.7647 10.1695 12.8844 10.0932 12.9925 10.002C15.4995 7.512 13.3415 6.103 12.8895 5.766C12.5873 5.54759 12.257 5.37099 11.9075 5.241L11.8495 5.218C11.8195 5.205 11.8025 5.185 11.7945 5.176L11.4735 4.826L12.0365 4.981C12.1155 5.002 12.1905 5.023 12.2645 5.045C12.8785 5.227 13.3465 5.445 13.7365 5.731C14.1815 6.056 15.8785 7.482 14.0845 9.568C14.6405 9.377 15.6905 8.796 16.0465 8.296C17.7595 5.891 15.7925 4.488 15.8765 4.488C15.8955 4.488 15.9205 4.49 15.9755 4.498C15.9983 4.50181 16.0214 4.50382 16.0445 4.504C16.0805 4.504 16.1415 4.498 16.1535 4.463C16.1685 4.421 16.1395 4.341 16.0805 4.295C15.9265 4.178 15.7595 4.093 15.5475 4.126C13.7755 4.4 13.1495 3.85 13.1495 3.85C13.1495 3.85 15.6315 3.979 15.7115 3.57C15.3531 3.20409 14.9398 2.89639 14.4865 2.658C13.7934 2.28102 13.0391 2.02949 12.2585 1.915C11.0515 1.736 10.1285 1.968 10.1285 1.968C10.2245 1.847 10.7025 1.301 12.6845 1.457C13.4865 1.52 14.2485 1.773 14.9545 2.126C15.1365 2.217 15.2445 2.001 15.2475 1.903C15.2515 1.789 15.4485 2.282 15.4505 2.308C15.4695 2.259 15.5465 2 15.5625 2C15.6095 2 15.8025 2.603 15.8025 2.603C15.8045 2.579 16.0595 2.317 16.0595 2.317C16.1355 2.66 16.1255 2.831 16.1065 2.879C16.1085 2.87 16.3735 2.707 16.3735 2.707C16.3735 2.707 16.5255 3.345 16.7855 3.598C16.8695 3.68 17.0235 3.894 17.1135 4.125C17.3035 3.992 17.5345 3.326 17.5345 3.326C17.5345 3.326 17.6535 3.679 17.5535 4.314C17.5605 4.306 17.8545 4.095 17.8545 4.095C17.8545 4.095 17.8965 4.544 17.7045 5.103C17.6945 5.13398 17.6871 5.16576 17.6825 5.198C17.8445 5.107 18.0865 4.81 18.0865 4.81L18.0445 4.998C17.9965 5.212 17.9075 5.627 17.7175 5.951C17.5878 6.16424 17.49 6.39537 17.4275 6.637C17.4765 6.592 17.5265 6.552 17.5795 6.517C17.6795 6.452 17.7785 6.4 17.8725 6.366L18.1045 6.281C18.4965 6.139 18.8925 5.972 19.2775 5.802C20.0895 5.443 19.9085 4.942 19.9085 4.942C19.6995 5.35 18.9425 5.758 18.9425 5.758C18.9425 5.758 19.9225 4.88 19.5045 3.853C19.3895 4.123 19.2805 4.391 19.1775 4.645C19.0335 4.998 18.8635 5.371 18.5875 5.7C18.4465 5.868 18.3015 5.99 18.1415 6.073C18.1047 6.09246 18.0662 6.10852 18.0265 6.121L17.9835 6.137C17.9835 6.137 18.1555 5.854 18.1675 5.074C18.1715 4.792 18.1795 4.503 18.1795 4.248V4.194C18.1795 4.062 18.1765 3.931 18.1775 3.799C18.1825 3.241 18.1925 2.817 18.3095 2.426C18.2975 2.404 18.3045 2.381 18.2915 2.358C18.2645 2.312 18.2445 2.259 18.2205 2.201C18.1845 2.112 18.1545 2.023 18.1195 1.926C17.9925 1.566 17.8115 1.388 17.7545 1.338C17.7165 1.453 17.4835 1.929 17.4835 1.929C17.4835 1.929 17.4845 1.564 17.4825 1.536C17.4155 1.025 16.1525 0.564 16.1265 0.548L16.1935 0.949C16.1935 0.949 15.8115 0.921 15.6485 0.665C15.6145 0.613 15.5645 0.575 15.5185 0.54L15.6085 0.846L15.7015 1.06C15.7015 1.06 15.4055 1.036 15.2665 0.791C15.2335 0.734 15.1915 0.67 15.1545 0.602C15.0983 0.49423 15.0166 0.401818 14.9166 0.332802C14.8166 0.263786 14.7012 0.220257 14.5805 0.206C14.381 0.178127 14.1805 0.157447 13.9795 0.144C13.8143 0.138098 13.6517 0.100766 13.5005 0.034L13.4225 0L13.4685 0.087C13.4835 0.116 13.4935 0.145 13.5085 0.182L13.5165 0.204L13.5485 0.282L13.5965 0.454C13.5965 0.454 13.2435 0.44 12.8315 0.155C12.7425 0.093 12.6305 0.093 12.5065 0.083L12.4715 0.08C12.361 0.0709472 12.2503 0.0662769 12.1395 0.066C11.8089 0.06337 11.4801 0.113673 11.1655 0.215C11.2005 0.213 11.2365 0.212 11.2715 0.212L11.3385 0.213C12.0155 0.225 12.2255 0.626 12.2255 0.626C12.2255 0.626 11.6195 0.626 11.4405 0.649C11.2315 0.676 11.0205 0.701 10.8245 0.755C10.2408 0.921724 9.69149 1.19128 9.20248 1.551C9.07848 1.639 8.94948 1.721 8.81348 1.807C8.58348 1.954 8.38948 2.148 8.23748 2.384C8.22376 2.40539 8.21237 2.42819 8.20348 2.452C8.18948 2.488 8.19548 2.491 8.21848 2.503C8.27196 2.5297 8.32833 2.55017 8.38648 2.564C8.85313 2.67617 9.27432 2.92836 9.59355 3.28674C9.91279 3.64511 10.1148 4.09254 10.1725 4.569L10.1875 4.692C10.2225 4.999 10.2595 5.315 10.2435 5.636C10.2144 6.45048 9.89478 7.22767 9.34248 7.827C8.75248 8.473 8.01948 8.517 8.02648 8.512C8.46148 8.106 8.74849 7.562 8.90248 6.852C8.95938 6.57388 8.93008 6.28502 8.81848 6.024C8.8127 6.03951 8.80737 6.05518 8.80248 6.071C8.70548 6.347 8.58248 6.665 8.35548 6.928C8.22348 7.078 8.04348 7.25 7.83448 7.449C6.92348 8.316 5.39948 9.766 5.42548 12.072C5.42548 12.207 5.45248 12.372 5.48148 12.499ZM19.4485 6.663C19.3355 6.761 19.2225 6.859 19.1075 6.955C18.9025 7.126 18.7565 7.235 18.4415 7.349C18.1655 7.448 17.9535 7.225 17.9535 7.225C18.1304 7.13147 18.2834 6.99835 18.4005 6.836C17.9964 7.03947 17.6103 7.277 17.2465 7.546C17.1043 7.64914 16.9739 7.76751 16.8575 7.899C16.7335 8.055 16.6525 8.217 16.6525 8.383V8.385C16.6525 8.382 16.6965 8.38 16.7055 8.378C17.1306 8.25934 17.5417 8.09505 17.9315 7.888C18.5396 7.56808 19.1265 7.20934 19.6885 6.814C19.7174 6.79303 19.7495 6.77682 19.7835 6.766L20.1545 6.66L19.9265 6.974C19.9184 6.986 19.9093 6.99736 19.8995 7.008C19.1545 7.749 18.3825 8.28 17.5395 8.63C17.3788 8.697 17.2146 8.75509 17.0475 8.804C17.5661 8.67331 18.0724 8.49764 18.5605 8.279C19.0975 8.035 19.4735 7.796 19.7805 7.507C20.2555 7.057 20.5945 6.526 20.7895 5.931C20.7998 5.89827 20.8078 5.86485 20.8135 5.831L20.7025 5.864C20.5755 5.901 20.4445 5.938 20.3295 5.994C20.1772 6.07355 20.034 6.16945 19.9025 6.28C19.7445 6.407 19.5815 6.549 19.4485 6.663ZM2.42748 14.987C2.55548 15.192 2.69548 15.394 2.83048 15.589L2.85148 15.62C2.50048 14.384 3.07448 13.638 3.07448 13.638L3.21648 14.029C3.25248 14.13 3.30748 14.228 3.38348 14.331C3.53048 14.056 3.70948 13.793 3.91748 13.547C3.73148 13.4452 3.57029 13.3034 3.44548 13.132C3.24548 12.868 3.11348 12.551 3.03048 12.136C2.93331 11.6213 2.91008 11.0953 2.96148 10.574C2.97648 10.4 2.99748 10.226 3.02048 10.049C2.3108 10.8428 1.75895 11.7646 1.39448 12.765C1.39383 12.7721 1.39486 12.7793 1.39748 12.786C1.64454 13.561 1.99074 14.3008 2.42748 14.987ZM19.0705 3.353C19.0645 2.69089 19.1888 2.03407 19.4365 1.42L19.4545 1.379C19.3573 1.44675 19.2739 1.53225 19.2085 1.631C19.0405 1.873 18.9175 2.161 18.8115 2.563C18.6295 3.25 18.5215 3.99 18.4745 4.871C18.6665 4.666 18.9815 4.214 19.0465 3.656C19.0575 3.562 19.0705 3.457 19.0705 3.353ZM22.4385 22.365C22.0425 22.3 21.2045 22.005 20.9705 21.42C20.6825 22.127 21.2765 22.641 21.7205 22.871C21.7975 22.911 21.8205 22.921 21.9015 22.953C21.9855 22.99 21.7365 23.447 21.9465 23.657C22.1565 23.867 22.3555 23.805 22.4335 23.805C22.4335 23.805 22.7945 24.14 23.0005 23.916C23.0535 23.858 23.0985 23.654 23.0295 23.531C22.9435 23.379 22.7345 23.407 22.7145 23.407C22.3045 23.412 22.3415 23.219 22.4035 23.137C22.4485 23.078 22.5355 23.082 22.6085 23.082C22.6255 23.082 22.6425 23.083 22.6615 23.086C22.7555 23.097 22.8455 23.102 22.9295 23.102C23.2645 23.102 23.6555 23.067 23.9145 22.923C24.1005 22.819 24.4055 22.467 24.3895 22.231C24.3725 22.237 23.5645 22.55 22.4385 22.365ZM24.7625 14.58C24.7245 14.483 24.6775 14.384 24.6365 14.297L24.5765 14.171C24.5555 14.124 24.5325 14.078 24.5105 14.032C24.4555 13.921 24.3985 13.806 24.3595 13.682C24.3255 13.576 24.3165 13.466 24.3075 13.362C24.2586 12.7837 24.0587 12.2285 23.7277 11.7518C23.3967 11.2751 22.9462 10.8938 22.4215 10.646C22.3768 10.7973 22.3038 10.9388 22.2065 11.063C22.1165 11.183 22.0625 11.201 21.9445 11.201C21.7875 11.201 21.7645 11.021 21.8115 10.936C21.9126 10.77 21.9792 10.5853 22.0075 10.393C22.0405 10.016 21.8305 9.607 21.5725 9.325C21.3335 9.064 20.9235 8.761 20.5935 8.662C20.5145 8.969 20.6105 9.474 20.7175 9.771C20.8495 10.131 21.2615 10.84 21.1625 11.27C21.1625 11.27 21.1335 11.545 20.8585 11.718C20.7055 11.814 20.6435 11.771 20.6435 11.771C20.9375 11.144 20.9405 10.88 20.6155 10.286C20.3705 9.839 20.2575 9.387 20.3455 8.888C20.3485 8.868 20.3555 8.848 20.3595 8.828C20.3334 8.89573 20.3041 8.96214 20.2715 9.027C20.0215 9.466 19.7855 9.694 19.6435 10.148C19.4945 10.656 19.6535 11.207 19.9685 11.746C19.8266 11.6565 19.7044 11.5391 19.6094 11.4008C19.5143 11.2626 19.4483 11.1065 19.4155 10.942C18.8951 11.2344 18.4409 11.6314 18.0815 12.108C18.0015 12.212 17.9065 12.299 17.8225 12.376C17.2575 12.891 16.5802 13.2673 15.8445 13.475C15.3515 13.62 14.8435 13.742 14.3425 13.863L14.2115 13.894C13.5285 14.059 12.8025 14.245 12.1145 14.551C11.3225 14.903 10.6945 15.308 10.1965 15.79C9.47373 16.4793 9.00625 17.3935 8.87048 18.383C8.75648 19.164 8.81548 19.978 9.05048 20.873C9.05849 20.905 8.02048 19.932 8.55648 17.132C8.47787 17.1282 8.39919 17.1259 8.32048 17.125L8.25348 17.126C6.32048 17.184 5.51648 18.249 5.51648 18.249C5.51648 18.249 5.64248 17.067 7.50348 16.67C7.64348 16.64 8.81548 16.377 8.85548 16.364C9.00948 16.05 9.19648 15.752 9.41248 15.475L9.24648 15.501C8.92748 15.551 8.59848 15.601 8.27148 15.644L8.01948 15.674C7.44248 15.748 6.84548 15.823 6.27948 15.99C5.68548 16.164 5.22048 16.416 4.85748 16.758C4.46848 17.124 4.18948 17.597 4.00548 18.2L3.98248 18.286C3.96948 18.336 3.95648 18.387 3.93748 18.437C3.91748 18.489 3.91348 18.547 3.95548 18.657C4.30348 19.58 4.90048 20.38 5.72948 21.033C6.3762 21.54 7.10097 21.9385 7.87548 22.213C7.90148 22.222 7.94548 22.237 7.98448 22.277L8.33248 22.614L7.78848 22.484C7.72448 22.469 7.66148 22.455 7.59748 22.437C6.48348 22.131 5.51248 21.616 4.71248 20.905C4.43948 20.806 3.04448 20.111 2.45248 18.969L2.35348 18.779C2.35348 18.779 3.11048 19.525 3.64148 19.634C3.4051 19.2515 3.21573 18.8419 3.07748 18.414C3.06644 18.3823 3.04984 18.3529 3.02848 18.327C2.12248 17.196 1.47348 16.054 1.04548 14.834C1.0146 14.7475 0.986256 14.6601 0.960484 14.572C0.917484 14.927 0.896484 15.282 0.896484 15.629C0.896484 15.739 1.85148 18.276 1.85148 18.276C1.85148 18.276 1.43148 17.809 1.08348 17.217C1.08348 17.217 1.02248 17.018 1.01448 17.005C1.16348 17.902 1.45348 18.745 1.87748 19.526C3.04448 21.673 4.83348 23.08 7.34748 23.738C7.9856 23.9061 8.6426 23.9918 9.30248 23.993L17.1575 24C17.5265 24 17.8095 23.978 18.0725 23.93L18.1135 23.923C18.2058 23.9027 18.2999 23.8913 18.3945 23.889C18.5005 23.89 18.6135 23.903 18.7395 23.933L18.8015 23.948C18.9175 23.974 19.0255 24 19.1325 24C20.4525 24.01 20.2695 23.215 20.2695 23.215C20.2145 23.008 19.9745 22.864 19.7125 22.802C19.6208 22.7801 19.5268 22.769 19.4325 22.769C19.2535 22.769 19.0655 22.81 18.8735 22.889L18.5855 23.012L18.4135 23.087C18.3813 23.101 18.3486 23.1136 18.3155 23.125C18.2611 23.1461 18.2037 23.1583 18.1455 23.161C17.9465 23.161 17.9375 22.966 17.9325 22.849C17.9299 22.778 17.9439 22.7074 17.9732 22.6427C18.0025 22.5779 18.0464 22.5209 18.1015 22.476C18.1945 22.397 18.2955 22.32 18.4035 22.248C18.5985 22.116 18.7995 21.98 18.9545 21.802C19.1353 21.6055 19.2599 21.3641 19.3155 21.103C19.3467 20.9457 19.3314 20.7827 19.2715 20.634C19.2575 20.599 19.2445 20.592 19.2315 20.588C19.1096 20.5481 18.9869 20.5107 18.8635 20.476C18.3755 20.339 18.0165 20.134 17.7365 19.833C17.5587 19.6315 17.4109 19.4056 17.2975 19.162C17.122 18.8117 16.9827 18.4445 16.8815 18.066C16.7225 17.465 16.3455 16.983 15.7315 16.594C15.2608 16.2995 14.7274 16.12 14.1745 16.07C14.0375 16.055 13.8985 16.049 13.7515 16.042C13.7145 16.04 13.6295 16.029 13.5435 16.018C13.4665 16.008 13.3905 15.997 13.3555 15.996L13.1455 15.983C13.1455 15.983 13.1995 15.907 13.6345 15.741C13.7165 15.71 13.8015 15.702 13.8845 15.687C14.0855 15.652 14.2845 15.634 14.4745 15.634C14.9325 15.634 15.3655 15.74 15.7625 15.948C16.2565 16.208 16.6505 16.604 16.9685 17.159C17.1415 17.461 17.2775 17.785 17.3845 18.151C17.4055 18.221 17.4225 18.291 17.4425 18.367C17.4775 18.501 17.5135 18.638 17.5645 18.763C17.8715 19.519 18.4405 19.961 19.2545 20.078C19.4705 20.109 19.6805 20.124 19.8805 20.124C20.2459 20.1259 20.6094 20.0702 20.9575 19.959C21.4125 19.81 21.7605 19.577 22.0195 19.247C22.1362 19.1007 22.2229 18.9329 22.2745 18.753L22.3095 18.632L22.5125 18.68C22.5555 18.691 22.5985 18.701 22.6425 18.71C22.6734 18.7161 22.7049 18.7191 22.7365 18.719C22.8285 18.719 22.9225 18.697 23.0245 18.675L23.0415 18.671C23.1175 18.654 23.1915 18.651 23.2635 18.648L23.3245 18.645C23.3965 18.645 23.4565 18.693 23.4835 18.738C23.5145 18.791 23.5645 18.821 23.6585 18.842C23.6832 18.8469 23.7083 18.8492 23.7335 18.849C23.9625 18.849 24.2035 18.639 24.2095 18.433C24.2125 18.354 24.1915 18.306 24.1395 18.27C24.0985 18.242 24.0565 18.216 24.0085 18.186L23.7805 18.043L23.9325 17.927C23.9746 17.8945 24.0262 17.8766 24.0795 17.876C24.1245 17.876 24.1645 17.889 24.1995 17.904C24.1995 17.904 24.0085 16.894 22.6725 17.188C22.6725 17.188 22.4555 17.277 22.3445 17.319L22.2925 17.339C22.2603 17.3517 22.2261 17.3582 22.1915 17.358C22.1331 17.3561 22.0762 17.34 22.0255 17.311C21.5575 17.076 21.0995 17.18 21.0235 17.18C20.8424 17.1818 20.6618 17.162 20.4855 17.121C20.4408 17.1111 20.4003 17.0877 20.3695 17.054L20.2835 16.957C19.8792 16.9832 19.4744 16.9158 19.1005 16.76C18.6645 16.574 18.3165 16.29 18.1055 15.857C18.0016 15.6439 17.9502 15.409 17.9555 15.172L17.9815 15.239C18.0655 15.487 18.1895 15.713 18.3555 15.917C18.6615 16.296 19.0565 16.551 19.5055 16.73C19.7485 16.827 20.0005 16.895 20.2695 16.94C20.2695 16.94 21.2245 16.976 21.6495 16.623C21.9725 16.443 22.2635 16.359 22.5665 16.359H22.6295C23.6565 16.358 23.7475 15.861 23.7475 15.861C23.7475 15.861 23.8645 15.937 24.0285 15.912C24.1881 15.8973 24.3371 15.8255 24.4481 15.7097C24.559 15.594 24.6245 15.4421 24.6325 15.282L24.2925 14.976L24.2205 14.913L24.0865 14.807L24.1785 14.702C24.2038 14.6715 24.2354 14.6469 24.2711 14.6298C24.3069 14.6127 24.3459 14.6036 24.3855 14.603C24.4315 14.603 24.4765 14.615 24.5195 14.638C24.5805 14.672 24.6345 14.715 24.6835 14.755L24.7345 14.795L24.7985 14.845C24.8081 14.7551 24.7957 14.6641 24.7625 14.58ZM23.4955 14.307C23.4575 14.413 23.4075 14.43 23.2965 14.406C23.237 14.3934 23.1762 14.3887 23.1155 14.392C23.0045 14.397 22.8945 14.416 22.7835 14.418C22.5065 14.423 22.2405 14.373 22.0205 14.193C21.7085 13.937 21.6485 13.634 21.8435 13.25L21.8475 13.287C21.8504 13.4093 21.8834 13.5291 21.9435 13.6357C22.0037 13.7422 22.0892 13.8323 22.1925 13.898C22.3725 14.019 22.5775 14.068 22.7875 14.094C22.9575 14.115 23.1255 14.144 23.2745 14.236L23.3155 14.257C23.3172 14.2545 23.3192 14.2521 23.3215 14.25C23.2925 14.209 23.2825 14.067 23.2975 14.008C23.3246 13.911 23.3253 13.8084 23.2995 13.711C23.2513 13.8367 23.1635 13.9434 23.0495 14.015C23.0351 14.0282 23.0161 14.0354 22.9965 14.035C22.7688 13.9878 22.5487 13.9094 22.3425 13.802C22.1565 13.7 22.0595 13.541 22.1085 13.318C22.1165 13.2843 22.1155 13.2492 22.1057 13.216C22.0958 13.1829 22.0775 13.1529 22.0525 13.129C22.0295 13.106 22.0095 13.079 21.9855 13.051C22.0405 13 22.0875 12.951 22.1405 12.908C22.1905 12.868 22.2425 12.83 22.2985 12.799C22.7305 12.554 23.3145 12.738 23.5065 13.188C23.5555 13.302 23.5815 13.428 23.5955 13.551C23.6235 13.81 23.5825 14.062 23.4955 14.307ZM2.82548 17.233C2.80548 16.996 2.79248 16.759 2.77948 16.477C2.77993 16.4539 2.77253 16.4313 2.75848 16.413C2.12848 15.504 1.66948 14.717 1.31248 13.937C1.2523 13.8074 1.19594 13.676 1.14348 13.543C1.36593 14.9019 1.94652 16.177 2.82548 17.237V17.233ZM21.8165 21.336C21.9925 21.453 22.2115 21.539 22.5485 21.623C22.8885 21.708 23.2015 21.748 23.5145 21.748C23.6995 21.748 23.8485 21.729 23.9845 21.689C24.1334 21.6496 24.268 21.5686 24.3725 21.4554C24.477 21.3422 24.5471 21.2016 24.5745 21.05C24.6314 20.8151 24.6741 20.577 24.7025 20.337C24.7586 19.8641 24.6248 19.3883 24.3305 19.014C24.2955 19.045 24.2605 19.075 24.2245 19.103C24.1629 19.1502 24.0965 19.1907 24.0265 19.224C23.9363 19.2701 23.8367 19.2947 23.7355 19.296C23.6373 19.2956 23.5407 19.2709 23.4545 19.224C23.3119 19.1515 23.1534 19.1157 22.9935 19.12C22.9305 19.12 22.8625 19.125 22.7855 19.133C22.7585 19.136 22.7465 19.142 22.7315 19.173C22.4735 19.704 22.0485 20.081 21.4335 20.327L21.4165 20.334L21.4135 20.347C21.383 20.4968 21.3826 20.6511 21.4125 20.801C21.4665 21.017 21.5975 21.192 21.8165 21.336ZM15.8395 9.512C15.3235 10.037 14.6985 10.47 13.8755 10.876C13.3555 11.132 12.7755 11.317 12.0495 11.458C11.6345 11.539 11.2205 11.617 10.8065 11.695L10.7205 11.71L9.66448 11.91C8.73548 12.088 7.74448 12.299 6.79248 12.62C6.10148 12.854 5.56848 13.101 5.11548 13.399C4.67148 13.69 4.36548 13.99 4.15048 14.342C4.09587 14.4359 4.04711 14.5331 4.00448 14.633C3.9803 14.6864 3.9553 14.7394 3.92948 14.792C3.91056 14.8339 3.88489 14.8724 3.85348 14.906C3.36948 15.379 3.16348 15.97 3.24048 16.662C3.28648 17.078 3.41648 17.483 3.63548 17.898C3.76248 17.052 4.20948 16.406 4.96348 15.978C5.37348 15.745 5.82648 15.575 6.34648 15.461C6.87248 15.344 7.40648 15.247 7.90748 15.157L8.21448 15.103C8.73048 15.012 9.26548 14.919 9.77248 14.758C9.89248 14.72 10.0105 14.678 10.1205 14.637C10.2675 14.582 10.3955 14.517 10.5115 14.431C10.6525 14.326 10.8005 14.231 10.9555 14.14C10.3025 14.125 9.19548 14.123 8.85148 14.121C8.08148 14.117 7.55148 14.181 6.88748 14.433C6.19348 14.697 4.21148 15.704 4.21148 15.704C4.21148 15.704 5.19648 14.65 7.04848 13.86C7.98182 13.4985 8.97564 13.3186 9.97648 13.33C10.2515 13.33 10.5375 13.341 10.8485 13.363C11.3605 13.401 11.8725 13.438 12.3835 13.473L12.3975 13.474C12.4215 13.474 12.4475 13.47 12.4725 13.463C12.9875 13.3152 13.513 13.2066 14.0445 13.138C14.2195 13.113 14.3975 13.077 14.5725 13.041C14.5385 13.03 14.5035 13.021 14.4695 13.011C14.4294 12.9985 14.39 12.9838 14.3515 12.967L14.2635 12.932L13.9185 12.699L15.2145 12.727C15.4935 12.727 18.2465 12.284 19.4245 9.004C19.5025 8.785 19.5845 8.567 19.6475 8.328C18.8334 8.84855 17.9276 9.20931 16.9785 9.391C16.6027 9.46171 16.2218 9.50217 15.8395 9.512ZM22.3245 13.263C22.3245 13.2985 22.3315 13.3336 22.345 13.3663C22.3586 13.3991 22.3785 13.4288 22.4036 13.4539C22.4286 13.479 22.4584 13.4989 22.4912 13.5124C22.5239 13.526 22.559 13.533 22.5945 13.533C22.6299 13.533 22.665 13.526 22.6978 13.5124C22.7306 13.4989 22.7603 13.479 22.7854 13.4539C22.8105 13.4288 22.8304 13.3991 22.8439 13.3663C22.8575 13.3336 22.8645 13.2985 22.8645 13.263C22.8645 13.1914 22.836 13.1227 22.7854 13.0721C22.7348 13.0214 22.6661 12.993 22.5945 12.993C22.5229 12.993 22.4542 13.0214 22.4036 13.0721C22.3529 13.1227 22.3245 13.1914 22.3245 13.263Z" fill="white"/>
</g>
<path d="M41.103 15.728H36.447L35.647 18H33.743L37.727 6.864H39.839L43.823 18H41.903L41.103 15.728ZM40.591 14.24L38.783 9.072L36.959 14.24H40.591ZM47.6992 10.48C48.0086 10.0747 48.4299 9.73333 48.9632 9.456C49.4966 9.17867 50.0992 9.04 50.7712 9.04C51.5392 9.04 52.2379 9.232 52.8672 9.616C53.5072 9.98933 54.0086 10.5173 54.3712 11.2C54.7339 11.8827 54.9152 12.6667 54.9152 13.552C54.9152 14.4373 54.7339 15.232 54.3712 15.936C54.0086 16.6293 53.5072 17.1733 52.8672 17.568C52.2379 17.952 51.5392 18.144 50.7712 18.144C50.0992 18.144 49.5019 18.0107 48.9792 17.744C48.4566 17.4667 48.0299 17.1253 47.6992 16.72V22.192H45.8752V9.184H47.6992V10.48ZM53.0592 13.552C53.0592 12.944 52.9312 12.4213 52.6752 11.984C52.4299 11.536 52.0992 11.2 51.6832 10.976C51.2779 10.7413 50.8406 10.624 50.3712 10.624C49.9126 10.624 49.4752 10.7413 49.0592 10.976C48.6539 11.2107 48.3232 11.552 48.0672 12C47.8219 12.448 47.6992 12.976 47.6992 13.584C47.6992 14.192 47.8219 14.7253 48.0672 15.184C48.3232 15.632 48.6539 15.9733 49.0592 16.208C49.4752 16.4427 49.9126 16.56 50.3712 16.56C50.8406 16.56 51.2779 16.4427 51.6832 16.208C52.0992 15.9627 52.4299 15.6107 52.6752 15.152C52.9312 14.6933 53.0592 14.16 53.0592 13.552ZM56.431 13.552C56.431 12.6667 56.6123 11.8827 56.975 11.2C57.3483 10.5173 57.8497 9.98933 58.479 9.616C59.119 9.232 59.823 9.04 60.591 9.04C61.2843 9.04 61.887 9.17867 62.399 9.456C62.9217 9.72267 63.3377 10.0587 63.647 10.464V9.184H65.487V18H63.647V16.688C63.3377 17.104 62.9163 17.4507 62.383 17.728C61.8497 18.0053 61.2417 18.144 60.559 18.144C59.8017 18.144 59.1083 17.952 58.479 17.568C57.8497 17.1733 57.3483 16.6293 56.975 15.936C56.6123 15.232 56.431 14.4373 56.431 13.552ZM63.647 13.584C63.647 12.976 63.519 12.448 63.263 12C63.0177 11.552 62.6923 11.2107 62.287 10.976C61.8817 10.7413 61.4443 10.624 60.975 10.624C60.5057 10.624 60.0683 10.7413 59.663 10.976C59.2577 11.2 58.927 11.536 58.671 11.984C58.4257 12.4213 58.303 12.944 58.303 13.552C58.303 14.16 58.4257 14.6933 58.671 15.152C58.927 15.6107 59.2577 15.9627 59.663 16.208C60.079 16.4427 60.5163 16.56 60.975 16.56C61.4443 16.56 61.8817 16.4427 62.287 16.208C62.6923 15.9733 63.0177 15.632 63.263 15.184C63.519 14.7253 63.647 14.192 63.647 13.584ZM67.5947 13.584C67.5947 12.6773 67.7761 11.8827 68.1387 11.2C68.5121 10.5067 69.0241 9.97333 69.6747 9.6C70.3254 9.22667 71.0721 9.04 71.9147 9.04C72.9814 9.04 73.8614 9.296 74.5547 9.808C75.2587 10.3093 75.7334 11.0293 75.9787 11.968H74.0107C73.8507 11.5307 73.5947 11.1893 73.2427 10.944C72.8907 10.6987 72.4481 10.576 71.9147 10.576C71.1681 10.576 70.5707 10.8427 70.1227 11.376C69.6854 11.8987 69.4667 12.6347 69.4667 13.584C69.4667 14.5333 69.6854 15.2747 70.1227 15.808C70.5707 16.3413 71.1681 16.608 71.9147 16.608C72.9707 16.608 73.6694 16.144 74.0107 15.216H75.9787C75.7227 16.112 75.2427 16.8267 74.5387 17.36C73.8347 17.8827 72.9601 18.144 71.9147 18.144C71.0721 18.144 70.3254 17.9573 69.6747 17.584C69.0241 17.2 68.5121 16.6667 68.1387 15.984C67.7761 15.2907 67.5947 14.4907 67.5947 13.584ZM82.6765 9.04C83.3485 9.04 83.9458 9.184 84.4685 9.472C85.0018 9.76 85.4178 10.1867 85.7165 10.752C86.0258 11.3173 86.1805 12 86.1805 12.8V18H84.3725V13.072C84.3725 12.2827 84.1752 11.68 83.7805 11.264C83.3858 10.8373 82.8472 10.624 82.1645 10.624C81.4818 10.624 80.9378 10.8373 80.5325 11.264C80.1378 11.68 79.9405 12.2827 79.9405 13.072V18H78.1165V6.16H79.9405V10.208C80.2498 9.83467 80.6392 9.54667 81.1085 9.344C81.5885 9.14133 82.1112 9.04 82.6765 9.04ZM96.9071 13.376C96.9071 13.7067 96.8858 14.0053 96.8431 14.272H90.1071C90.1604 14.976 90.4218 15.5413 90.8911 15.968C91.3604 16.3947 91.9364 16.608 92.6191 16.608C93.6004 16.608 94.2938 16.1973 94.6991 15.376H96.6671C96.4004 16.1867 95.9151 16.8533 95.2111 17.376C94.5178 17.888 93.6538 18.144 92.6191 18.144C91.7764 18.144 91.0191 17.9573 90.3471 17.584C89.6858 17.2 89.1631 16.6667 88.7791 15.984C88.4058 15.2907 88.2191 14.4907 88.2191 13.584C88.2191 12.6773 88.4004 11.8827 88.7631 11.2C89.1364 10.5067 89.6538 9.97333 90.3151 9.6C90.9871 9.22667 91.7551 9.04 92.6191 9.04C93.4511 9.04 94.1924 9.22133 94.8431 9.584C95.4938 9.94667 96.0004 10.4587 96.3631 11.12C96.7258 11.7707 96.9071 12.5227 96.9071 13.376ZM95.0031 12.8C94.9924 12.128 94.7524 11.5893 94.2831 11.184C93.8138 10.7787 93.2324 10.576 92.5391 10.576C91.9098 10.576 91.3711 10.7787 90.9231 11.184C90.4751 11.5787 90.2084 12.1173 90.1231 12.8H95.0031ZM110.042 6.88V8.368H105.322V11.648H109.002V13.136H105.322V18H103.498V6.88H110.042ZM113.877 6.16V18H112.053V6.16H113.877ZM117.519 8.016C117.189 8.016 116.911 7.904 116.687 7.68C116.463 7.456 116.351 7.17867 116.351 6.848C116.351 6.51733 116.463 6.24 116.687 6.016C116.911 5.792 117.189 5.68 117.519 5.68C117.839 5.68 118.111 5.792 118.335 6.016C118.559 6.24 118.671 6.51733 118.671 6.848C118.671 7.17867 118.559 7.456 118.335 7.68C118.111 7.904 117.839 8.016 117.519 8.016ZM118.415 9.184V18H116.591V9.184H118.415ZM125.578 9.04C126.272 9.04 126.89 9.184 127.434 9.472C127.989 9.76 128.421 10.1867 128.73 10.752C129.04 11.3173 129.194 12 129.194 12.8V18H127.386V13.072C127.386 12.2827 127.189 11.68 126.794 11.264C126.4 10.8373 125.861 10.624 125.178 10.624C124.496 10.624 123.952 10.8373 123.546 11.264C123.152 11.68 122.954 12.2827 122.954 13.072V18H121.13V9.184H122.954V10.192C123.253 9.82933 123.632 9.54667 124.09 9.344C124.56 9.14133 125.056 9.04 125.578 9.04ZM135.329 13.6L139.393 18H136.929L133.665 14.208V18H131.841V6.16H133.665V13.04L136.865 9.184H139.393L135.329 13.6Z" fill="#F4F4F5"/>
<defs>
<clipPath id="clip0_3116_17027">
<rect width="24" height="24" fill="white" transform="translate(0.849609)"/>
</clipPath>
</defs>
</svg>
