<svg width="87" height="24" viewBox="0 0 87 24" fill="none" xmlns="http://www.w3.org/2000/svg">
<path d="M22.237 21.4251C22.1993 21.4331 18.9112 22.0151 14.9303 22.7183L7.69232 23.9969L19.6367 23.9985L31.5811 24L31.5322 23.9144C31.5053 23.8674 28.6079 18.8453 25.0936 12.7543C21.3399 6.24834 18.6989 1.68869 18.6916 1.7014C18.6698 1.73942 14.7889 12.4264 14.7889 12.4485C14.7889 12.4601 16.4802 14.4814 18.5473 16.9401L22.3057 21.4106L22.237 21.4251Z" fill="white"/>
<path d="M4.5311 14.5235C2.36663 18.2745 0.595703 21.3487 0.595703 21.355C0.595703 21.3613 2.19623 21.3645 4.15242 21.362L7.70913 21.3575L12.6003 10.8673C15.2905 5.09764 17.5315 0.290915 17.5803 0.185677C17.6292 0.0804393 17.6624 -0.00307581 17.6541 8.69521e-05C17.6458 0.00325034 15.5752 1.73779 13.0527 3.85462L8.46649 7.70341L4.5311 14.5235Z" fill="white"/>
<path d="M47.7982 15.728H43.1422L42.3422 18H40.4382L44.4222 6.864H46.5342L50.5182 18H48.5982L47.7982 15.728ZM47.2862 14.24L45.4782 9.072L43.6542 14.24H47.2862ZM54.1864 16.512H58.1864V18H52.0744V16.512L56.0904 10.672H52.0744V9.184H58.1864V10.672L54.1864 16.512ZM68.4057 9.184V18H66.5817V16.96C66.2937 17.3227 65.915 17.6107 65.4457 17.824C64.987 18.0267 64.4963 18.128 63.9737 18.128C63.2803 18.128 62.6563 17.984 62.1017 17.696C61.5577 17.408 61.1257 16.9813 60.8057 16.416C60.4963 15.8507 60.3417 15.168 60.3417 14.368V9.184H62.1497V14.096C62.1497 14.8853 62.347 15.4933 62.7417 15.92C63.1363 16.336 63.675 16.544 64.3577 16.544C65.0403 16.544 65.579 16.336 65.9737 15.92C66.379 15.4933 66.5817 14.8853 66.5817 14.096V9.184H68.4057ZM72.9563 10.464C73.223 10.016 73.575 9.66933 74.0123 9.424C74.4603 9.168 74.9883 9.04 75.5963 9.04V10.928H75.1323C74.4176 10.928 73.8736 11.1093 73.5003 11.472C73.1376 11.8347 72.9563 12.464 72.9563 13.36V18H71.1323V9.184H72.9563V10.464ZM85.6729 13.376C85.6729 13.7067 85.6516 14.0053 85.6089 14.272H78.8729C78.9263 14.976 79.1876 15.5413 79.6569 15.968C80.1263 16.3947 80.7023 16.608 81.3849 16.608C82.3663 16.608 83.0596 16.1973 83.4649 15.376H85.4329C85.1663 16.1867 84.6809 16.8533 83.9769 17.376C83.2836 17.888 82.4196 18.144 81.3849 18.144C80.5423 18.144 79.7849 17.9573 79.1129 17.584C78.4516 17.2 77.9289 16.6667 77.5449 15.984C77.1716 15.2907 76.9849 14.4907 76.9849 13.584C76.9849 12.6773 77.1663 11.8827 77.5289 11.2C77.9023 10.5067 78.4196 9.97333 79.0809 9.6C79.7529 9.22667 80.5209 9.04 81.3849 9.04C82.2169 9.04 82.9583 9.22133 83.6089 9.584C84.2596 9.94667 84.7663 10.4587 85.1289 11.12C85.4916 11.7707 85.6729 12.5227 85.6729 13.376ZM83.7689 12.8C83.7583 12.128 83.5183 11.5893 83.0489 11.184C82.5796 10.7787 81.9983 10.576 81.3049 10.576C80.6756 10.576 80.1369 10.7787 79.6889 11.184C79.2409 11.5787 78.9743 12.1173 78.8889 12.8H83.7689Z" fill="#F4F4F5"/>
</svg>
