<svg width="164" height="24" viewBox="0 0 164 24" fill="none" xmlns="http://www.w3.org/2000/svg">
<path d="M21.1914 14.3488C20.7728 14.6047 20.2845 14.6512 19.9124 14.4419C19.4473 14.1628 19.1682 13.5349 19.1682 12.6744V10.0465C19.1682 8.7907 18.6798 7.88372 17.8426 7.65116C16.424 7.23256 15.3542 8.97674 14.9589 9.6279L12.4473 13.6512V8.69767C12.424 7.55814 12.0519 6.88372 11.3542 6.67442C10.8891 6.53489 10.1914 6.60465 9.51702 7.62791L3.91237 16.6046C3.16818 15.186 2.77284 13.6047 2.77284 12C2.77284 6.5814 7.12167 2.18604 12.4473 2.18604C17.7728 2.18604 22.1217 6.5814 22.1217 12V12.0233V12.0465C22.1682 13.093 21.8426 13.9302 21.1914 14.3488ZM24.2612 12V11.9767V11.9535C24.238 5.37209 18.9356 0 12.4473 0C5.93563 0 0.633301 5.37209 0.633301 12C0.633301 18.6047 5.93563 24 12.4473 24C15.4473 24 18.2845 22.8605 20.4705 20.7907C20.9124 20.3721 20.9356 19.6977 20.517 19.2558C20.1217 18.814 19.4473 18.7907 19.0054 19.186C19.0054 19.186 19.0054 19.186 18.9821 19.2093C17.2147 20.8837 14.8426 21.8372 12.4007 21.8372C9.54028 21.8372 6.98214 20.5814 5.2147 18.5814L10.2612 10.4884V14.2326C10.2612 16.0233 10.9589 16.6047 11.5403 16.7674C12.1217 16.9302 13.0054 16.814 13.9589 15.3023L16.7263 10.814C16.8193 10.6744 16.8891 10.5349 16.9821 10.4419V12.7209C16.9821 14.3953 17.6566 15.7442 18.8193 16.3953C19.8659 17 21.1914 16.9302 22.2845 16.2558C23.6333 15.3721 24.3542 13.8372 24.2612 12Z" fill="white"/>
<path d="M32.9254 12.416C32.9254 11.328 33.1761 10.352 33.6774 9.488C34.1894 8.624 34.8774 7.952 35.7414 7.472C36.6161 6.98133 37.5708 6.736 38.6054 6.736C39.7894 6.736 40.8401 7.02933 41.7574 7.616C42.6854 8.192 43.3574 9.01333 43.7734 10.08H41.5814C41.2934 9.49333 40.8934 9.056 40.3814 8.768C39.8694 8.48 39.2774 8.336 38.6054 8.336C37.8694 8.336 37.2134 8.50133 36.6374 8.832C36.0614 9.16267 35.6081 9.63733 35.2774 10.256C34.9574 10.8747 34.7974 11.5947 34.7974 12.416C34.7974 13.2373 34.9574 13.9573 35.2774 14.576C35.6081 15.1947 36.0614 15.6747 36.6374 16.016C37.2134 16.3467 37.8694 16.512 38.6054 16.512C39.2774 16.512 39.8694 16.368 40.3814 16.08C40.8934 15.792 41.2934 15.3547 41.5814 14.768H43.7734C43.3574 15.8347 42.6854 16.656 41.7574 17.232C40.8401 17.808 39.7894 18.096 38.6054 18.096C37.5601 18.096 36.6054 17.856 35.7414 17.376C34.8774 16.8853 34.1894 16.208 33.6774 15.344C33.1761 14.48 32.9254 13.504 32.9254 12.416ZM50.0524 18.144C49.2204 18.144 48.4684 17.9573 47.7964 17.584C47.1244 17.2 46.5964 16.6667 46.2124 15.984C45.8284 15.2907 45.6364 14.4907 45.6364 13.584C45.6364 12.688 45.8338 11.8933 46.2284 11.2C46.6231 10.5067 47.1618 9.97333 47.8444 9.6C48.5271 9.22667 49.2898 9.04 50.1324 9.04C50.9751 9.04 51.7378 9.22667 52.4204 9.6C53.1031 9.97333 53.6418 10.5067 54.0364 11.2C54.4311 11.8933 54.6284 12.688 54.6284 13.584C54.6284 14.48 54.4258 15.2747 54.0204 15.968C53.6151 16.6613 53.0604 17.2 52.3564 17.584C51.6631 17.9573 50.8951 18.144 50.0524 18.144ZM50.0524 16.56C50.5218 16.56 50.9591 16.448 51.3644 16.224C51.7804 16 52.1164 15.664 52.3724 15.216C52.6284 14.768 52.7564 14.224 52.7564 13.584C52.7564 12.944 52.6338 12.4053 52.3884 11.968C52.1431 11.52 51.8178 11.184 51.4124 10.96C51.0071 10.736 50.5698 10.624 50.1004 10.624C49.6311 10.624 49.1938 10.736 48.7884 10.96C48.3938 11.184 48.0791 11.52 47.8444 11.968C47.6098 12.4053 47.4924 12.944 47.4924 13.584C47.4924 14.5333 47.7324 15.2693 48.2124 15.792C48.7031 16.304 49.3164 16.56 50.0524 16.56ZM57.6795 8.016C57.3489 8.016 57.0715 7.904 56.8475 7.68C56.6235 7.456 56.5115 7.17867 56.5115 6.848C56.5115 6.51733 56.6235 6.24 56.8475 6.016C57.0715 5.792 57.3489 5.68 57.6795 5.68C57.9995 5.68 58.2715 5.792 58.4955 6.016C58.7195 6.24 58.8315 6.51733 58.8315 6.848C58.8315 7.17867 58.7195 7.456 58.4955 7.68C58.2715 7.904 57.9995 8.016 57.6795 8.016ZM58.5755 9.184V18H56.7515V9.184H58.5755ZM65.7383 9.04C66.4316 9.04 67.0503 9.184 67.5943 9.472C68.149 9.76 68.581 10.1867 68.8903 10.752C69.1996 11.3173 69.3543 12 69.3543 12.8V18H67.5463V13.072C67.5463 12.2827 67.349 11.68 66.9543 11.264C66.5596 10.8373 66.021 10.624 65.3383 10.624C64.6556 10.624 64.1116 10.8373 63.7063 11.264C63.3116 11.68 63.1143 12.2827 63.1143 13.072V18H61.2903V9.184H63.1143V10.192C63.413 9.82933 63.7916 9.54667 64.2503 9.344C64.7196 9.14133 65.2156 9.04 65.7383 9.04ZM83.7129 6.88V18H81.8889V10.384L78.4969 18H77.2329L73.8249 10.384V18H72.0009V6.88H73.9689L77.8729 15.6L81.7609 6.88H83.7129ZM85.8223 13.552C85.8223 12.6667 86.0036 11.8827 86.3663 11.2C86.7396 10.5173 87.241 9.98933 87.8703 9.616C88.5103 9.232 89.2143 9.04 89.9823 9.04C90.6756 9.04 91.2783 9.17867 91.7903 9.456C92.313 9.72267 92.729 10.0587 93.0383 10.464V9.184H94.8783V18H93.0383V16.688C92.729 17.104 92.3076 17.4507 91.7743 17.728C91.241 18.0053 90.633 18.144 89.9503 18.144C89.193 18.144 88.4996 17.952 87.8703 17.568C87.241 17.1733 86.7396 16.6293 86.3663 15.936C86.0036 15.232 85.8223 14.4373 85.8223 13.552ZM93.0383 13.584C93.0383 12.976 92.9103 12.448 92.6543 12C92.409 11.552 92.0836 11.2107 91.6783 10.976C91.273 10.7413 90.8356 10.624 90.3663 10.624C89.897 10.624 89.4596 10.7413 89.0543 10.976C88.649 11.2 88.3183 11.536 88.0623 11.984C87.817 12.4213 87.6943 12.944 87.6943 13.552C87.6943 14.16 87.817 14.6933 88.0623 15.152C88.3183 15.6107 88.649 15.9627 89.0543 16.208C89.4703 16.4427 89.9076 16.56 90.3663 16.56C90.8356 16.56 91.273 16.4427 91.6783 16.208C92.0836 15.9733 92.409 15.632 92.6543 15.184C92.9103 14.7253 93.0383 14.192 93.0383 13.584ZM99.418 10.464C99.6847 10.016 100.037 9.66933 100.474 9.424C100.922 9.168 101.45 9.04 102.058 9.04V10.928H101.594C100.879 10.928 100.335 11.1093 99.962 11.472C99.5994 11.8347 99.418 12.464 99.418 13.36V18H97.594V9.184H99.418V10.464ZM107.543 13.6L111.607 18H109.143L105.879 14.208V18H104.055V6.16H105.879V13.04L109.079 9.184H111.607L107.543 13.6ZM121.314 13.376C121.314 13.7067 121.293 14.0053 121.25 14.272H114.514C114.567 14.976 114.829 15.5413 115.298 15.968C115.767 16.3947 116.343 16.608 117.026 16.608C118.007 16.608 118.701 16.1973 119.106 15.376H121.074C120.807 16.1867 120.322 16.8533 119.618 17.376C118.925 17.888 118.061 18.144 117.026 18.144C116.183 18.144 115.426 17.9573 114.754 17.584C114.093 17.2 113.57 16.6667 113.186 15.984C112.813 15.2907 112.626 14.4907 112.626 13.584C112.626 12.6773 112.807 11.8827 113.17 11.2C113.543 10.5067 114.061 9.97333 114.722 9.6C115.394 9.22667 116.162 9.04 117.026 9.04C117.858 9.04 118.599 9.22133 119.25 9.584C119.901 9.94667 120.407 10.4587 120.77 11.12C121.133 11.7707 121.314 12.5227 121.314 13.376ZM119.41 12.8C119.399 12.128 119.159 11.5893 118.69 11.184C118.221 10.7787 117.639 10.576 116.946 10.576C116.317 10.576 115.778 10.7787 115.33 11.184C114.882 11.5787 114.615 12.1173 114.53 12.8H119.41ZM125.557 10.672V15.552C125.557 15.8827 125.632 16.1227 125.781 16.272C125.941 16.4107 126.208 16.48 126.581 16.48H127.701V18H126.261C125.44 18 124.81 17.808 124.373 17.424C123.936 17.04 123.717 16.416 123.717 15.552V10.672H122.677V9.184H123.717V6.992H125.557V9.184H127.701V10.672H125.557ZM129.094 12.416C129.094 11.328 129.345 10.352 129.846 9.488C130.358 8.624 131.046 7.952 131.91 7.472C132.785 6.98133 133.74 6.736 134.774 6.736C135.958 6.736 137.009 7.02933 137.926 7.616C138.854 8.192 139.526 9.01333 139.942 10.08H137.75C137.462 9.49333 137.062 9.056 136.55 8.768C136.038 8.48 135.446 8.336 134.774 8.336C134.038 8.336 133.382 8.50133 132.806 8.832C132.23 9.16267 131.777 9.63733 131.446 10.256C131.126 10.8747 130.966 11.5947 130.966 12.416C130.966 13.2373 131.126 13.9573 131.446 14.576C131.777 15.1947 132.23 15.6747 132.806 16.016C133.382 16.3467 134.038 16.512 134.774 16.512C135.446 16.512 136.038 16.368 136.55 16.08C137.062 15.792 137.462 15.3547 137.75 14.768H139.942C139.526 15.8347 138.854 16.656 137.926 17.232C137.009 17.808 135.958 18.096 134.774 18.096C133.729 18.096 132.774 17.856 131.91 17.376C131.046 16.8853 130.358 16.208 129.846 15.344C129.345 14.48 129.094 13.504 129.094 12.416ZM141.789 13.552C141.789 12.6667 141.97 11.8827 142.333 11.2C142.706 10.5173 143.208 9.98933 143.837 9.616C144.477 9.232 145.181 9.04 145.949 9.04C146.643 9.04 147.245 9.17867 147.757 9.456C148.28 9.72267 148.696 10.0587 149.005 10.464V9.184H150.845V18H149.005V16.688C148.696 17.104 148.275 17.4507 147.741 17.728C147.208 18.0053 146.6 18.144 145.917 18.144C145.16 18.144 144.466 17.952 143.837 17.568C143.208 17.1733 142.706 16.6293 142.333 15.936C141.97 15.232 141.789 14.4373 141.789 13.552ZM149.005 13.584C149.005 12.976 148.877 12.448 148.621 12C148.376 11.552 148.051 11.2107 147.645 10.976C147.24 10.7413 146.802 10.624 146.333 10.624C145.864 10.624 145.426 10.7413 145.021 10.976C144.616 11.2 144.285 11.536 144.029 11.984C143.784 12.4213 143.661 12.944 143.661 13.552C143.661 14.16 143.784 14.6933 144.029 15.152C144.285 15.6107 144.616 15.9627 145.021 16.208C145.437 16.4427 145.875 16.56 146.333 16.56C146.802 16.56 147.24 16.4427 147.645 16.208C148.051 15.9733 148.376 15.632 148.621 15.184C148.877 14.7253 149.005 14.192 149.005 13.584ZM155.385 10.48C155.694 10.0747 156.116 9.73333 156.649 9.456C157.182 9.17867 157.785 9.04 158.457 9.04C159.225 9.04 159.924 9.232 160.553 9.616C161.193 9.98933 161.694 10.5173 162.057 11.2C162.42 11.8827 162.601 12.6667 162.601 13.552C162.601 14.4373 162.42 15.232 162.057 15.936C161.694 16.6293 161.193 17.1733 160.553 17.568C159.924 17.952 159.225 18.144 158.457 18.144C157.785 18.144 157.188 18.0107 156.665 17.744C156.142 17.4667 155.716 17.1253 155.385 16.72V22.192H153.561V9.184H155.385V10.48ZM160.745 13.552C160.745 12.944 160.617 12.4213 160.361 11.984C160.116 11.536 159.785 11.2 159.369 10.976C158.964 10.7413 158.526 10.624 158.057 10.624C157.598 10.624 157.161 10.7413 156.745 10.976C156.34 11.2107 156.009 11.552 155.753 12C155.508 12.448 155.385 12.976 155.385 13.584C155.385 14.192 155.508 14.7253 155.753 15.184C156.009 15.632 156.34 15.9733 156.745 16.208C157.161 16.4427 157.598 16.56 158.057 16.56C158.526 16.56 158.964 16.4427 159.369 16.208C159.785 15.9627 160.116 15.6107 160.361 15.152C160.617 14.6933 160.745 14.16 160.745 13.552Z" fill="#F4F4F5"/>
</svg>
