<svg width="57" height="24" viewBox="0 0 57 24" fill="none" xmlns="http://www.w3.org/2000/svg">
<g clip-path="url(#clip0_3116_16271)">
<path d="M21.3137 7.10371C21.3135 6.70413 21.2283 6.35105 21.056 6.0481C20.8868 5.75003 20.6333 5.50028 20.2933 5.30281C17.4868 3.67977 14.6776 2.0617 11.872 0.437004C11.1156 -0.000956751 10.3822 0.0150925 9.63144 0.459341C8.51436 1.12001 2.92155 4.33373 1.25496 5.3019C0.568613 5.70048 0.234636 6.31035 0.234471 7.10296C0.233398 10.367 0.234471 13.631 0.233398 16.895C0.233398 17.2858 0.31514 17.6321 0.47986 17.9305C0.649199 18.2375 0.906219 18.4942 1.25405 18.6961C2.92072 19.6643 8.51428 22.8777 9.63111 23.5387C10.3822 23.9832 11.1156 23.999 11.8722 23.561C14.6779 21.9362 17.4873 20.3182 20.2942 18.6951C20.642 18.4933 20.8991 18.2365 21.0684 17.9297C21.2329 17.6312 21.3148 17.285 21.3148 16.8941C21.3148 16.8941 21.3148 10.3678 21.3137 7.10371Z" fill="url(#paint0_linear_3116_16271)"/>
<path d="M10.806 11.9688L0.479492 17.9321C0.648832 18.2391 0.905851 18.4957 1.25369 18.6977C2.92035 19.6658 8.51391 22.8793 9.63074 23.5402C10.3818 23.9847 11.1152 24.0006 11.8718 23.5626C14.6775 21.9378 17.4869 20.3197 20.2938 18.6967C20.6417 18.4948 20.8987 18.238 21.068 17.9313L10.806 11.9688Z" fill="white"/>
<path d="M21.313 7.10444C21.3129 6.70486 21.2277 6.35178 21.0554 6.04883L10.8057 11.968L21.0677 17.9304C21.2322 17.632 21.3139 17.2857 21.3141 16.8949C21.3141 16.8949 21.3141 10.3685 21.313 7.10444Z" fill="url(#paint1_linear_3116_16271)"/>
<path d="M16.8867 9.73828V10.853H17.9981V9.73828H18.5538V10.853H19.6652V11.4103H18.5538V12.5249H19.6652V13.0822H18.5538V14.1969H17.9981V13.0822H16.8867V14.1969H16.331V13.0822H15.2197V12.5249H16.331V11.4103H15.2197V10.853H16.331V9.73828H16.8867ZM17.9981 11.4102H16.8867V12.5249H17.9981V11.4102Z" fill="black"/>
<path d="M10.8292 4.14071C13.728 4.14071 16.2589 5.71965 17.6145 8.06664L17.6013 8.04405L14.1906 10.0136C13.5187 8.87257 12.2869 8.10246 10.8737 8.08658L10.8291 8.08633C8.67424 8.08633 6.92723 9.8385 6.92723 11.9998C6.92652 12.681 7.10397 13.3505 7.44185 13.9414C8.11442 15.119 9.37882 15.9133 10.8292 15.9133C12.2886 15.9133 13.5602 15.1089 14.2293 13.9187L14.213 13.9473L17.6185 15.9259C16.2778 18.2531 13.7816 19.8271 10.9165 19.8585L10.8292 19.859C7.92124 19.859 5.38322 18.2703 4.03098 15.9109C3.37086 14.7591 2.99316 13.4238 2.99316 11.9998C2.99316 7.65937 6.50137 4.14062 10.8291 4.14062L10.8292 4.14071Z" fill="black"/>
</g>
<path d="M30.1761 12.416C30.1761 11.328 30.4268 10.352 30.9281 9.488C31.4401 8.624 32.1281 7.952 32.9921 7.472C33.8668 6.98133 34.8215 6.736 35.8561 6.736C37.0401 6.736 38.0908 7.02933 39.0081 7.616C39.9361 8.192 40.6081 9.01333 41.0241 10.08H38.8321C38.5441 9.49333 38.1441 9.056 37.6321 8.768C37.1201 8.48 36.5281 8.336 35.8561 8.336C35.1201 8.336 34.4641 8.50133 33.8881 8.832C33.3121 9.16267 32.8588 9.63733 32.5281 10.256C32.2081 10.8747 32.0481 11.5947 32.0481 12.416C32.0481 13.2373 32.2081 13.9573 32.5281 14.576C32.8588 15.1947 33.3121 15.6747 33.8881 16.016C34.4641 16.3467 35.1201 16.512 35.8561 16.512C36.5281 16.512 37.1201 16.368 37.6321 16.08C38.1441 15.792 38.5441 15.3547 38.8321 14.768H41.0241C40.6081 15.8347 39.9361 16.656 39.0081 17.232C38.0908 17.808 37.0401 18.096 35.8561 18.096C34.8108 18.096 33.8561 17.856 32.9921 17.376C32.1281 16.8853 31.4401 16.208 30.9281 15.344C30.4268 14.48 30.1761 13.504 30.1761 12.416ZM52.8071 10.672L52.2151 13.44H54.3271V15.04H51.8791L51.2391 18H49.4951L50.1351 15.04H46.9991L46.3591 18H44.6151L45.2551 15.04H42.7751V13.44H45.5911L46.1831 10.672H43.7191V9.072H46.5191L47.1431 6.16H48.8871L48.2631 9.072H51.3991L52.0231 6.16H53.7671L53.1431 9.072H55.2711V10.672H52.8071ZM51.0631 10.672H47.9271L47.3351 13.44H50.4711L51.0631 10.672Z" fill="#F4F4F5"/>
<defs>
<linearGradient id="paint0_linear_3116_16271" x1="2.55236" y1="11.9988" x2="18.9959" y2="11.9988" gradientUnits="userSpaceOnUse">
<stop stop-color="white" stop-opacity="0.5"/>
<stop offset="0.5" stop-color="white" stop-opacity="0.82"/>
<stop offset="1" stop-color="white" stop-opacity="0.64"/>
</linearGradient>
<linearGradient id="paint1_linear_3116_16271" x1="11.9616" y1="11.9895" x2="20.1582" y2="11.9895" gradientUnits="userSpaceOnUse">
<stop stop-color="white" stop-opacity="0.5"/>
<stop offset="0.5" stop-color="white" stop-opacity="0.82"/>
<stop offset="1" stop-color="white" stop-opacity="0.64"/>
</linearGradient>
<clipPath id="clip0_3116_16271">
<rect width="21.2683" height="24" fill="white" transform="translate(0.139648)"/>
</clipPath>
</defs>
</svg>
