<svg width="100" height="24" viewBox="0 0 100 24" fill="none" xmlns="http://www.w3.org/2000/svg">
<path d="M19.6284 9.44697H23.2029H19.6284ZM15.3731 9.44697H18.9476H15.3731ZM11.2029 9.44697H14.7773H11.2029ZM7.03266 9.44697H10.522H7.03266ZM2.77734 9.44697H6.35181H2.77734ZM7.03266 5.53208H10.522H7.03266ZM11.2029 5.53208H14.7773H11.2029ZM15.3731 5.53208H18.9476H15.3731ZM15.3731 1.61719H18.9476H15.3731Z" fill="black"/>
<path fill-rule="evenodd" clip-rule="evenodd" d="M18.9476 3.23404H15.3731V0H18.9476V3.23404ZM10.522 7.14894H7.03266V3.91489H10.522V7.14894ZM14.7773 7.14894H11.2029V3.91489H14.7773V7.14894ZM18.9476 7.14894H15.3731V3.91489H18.9476V7.14894ZM6.35181 11.0638H2.77734V7.82979H6.35181V11.0638ZM10.522 11.0638H7.03266V7.82979H10.522V11.0638ZM14.7773 11.0638H11.2029V7.82979H14.7773V11.0638ZM18.9476 11.0638H15.3731V7.82979H18.9476V11.0638ZM23.2029 11.0638H19.6284V7.82979H23.2029V11.0638Z" fill="white"/>
<path d="M34.6078 9.61669C34.6078 9.61669 33.0759 8.16988 29.9269 8.68052C29.5865 6.21243 26.9482 4.76562 26.9482 4.76562C26.9482 4.76562 24.4801 7.74435 26.2674 11.0635C25.7567 11.3188 24.9057 11.6592 23.6291 11.6592H0.224821C-0.200711 13.2763 -0.200711 23.9997 11.544 23.9997C19.9695 23.9997 26.2674 20.0848 29.2461 12.9358C33.6716 13.2763 34.6078 9.61669 34.6078 9.61669Z" fill="white"/>
<path d="M47.3161 6.848C48.5321 6.848 49.5828 7.07733 50.4681 7.536C51.3641 7.984 52.0468 8.62933 52.5161 9.472C52.9961 10.3147 53.2361 11.3067 53.2361 12.448C53.2361 13.5893 52.9961 14.5813 52.5161 15.424C52.0468 16.256 51.3641 16.896 50.4681 17.344C49.5828 17.7813 48.5321 18 47.3161 18H43.8441V6.848H47.3161ZM47.3161 16.8C48.7561 16.8 49.8548 16.4213 50.6121 15.664C51.3694 14.896 51.7481 13.824 51.7481 12.448C51.7481 11.0613 51.3641 9.97867 50.5961 9.2C49.8388 8.42133 48.7454 8.032 47.3161 8.032H45.3001V16.8H47.3161ZM59.3006 18.144C58.4793 18.144 57.7326 17.9573 57.0606 17.584C56.3993 17.2107 55.8766 16.6827 55.4926 16C55.1193 15.3067 54.9326 14.5067 54.9326 13.6C54.9326 12.704 55.1246 11.9147 55.5086 11.232C55.9033 10.5387 56.4366 10.0107 57.1086 9.648C57.7806 9.27467 58.5326 9.088 59.3646 9.088C60.1966 9.088 60.9486 9.27467 61.6206 9.648C62.2926 10.0107 62.8206 10.5333 63.2046 11.216C63.5993 11.8987 63.7966 12.6933 63.7966 13.6C63.7966 14.5067 63.5939 15.3067 63.1886 16C62.7939 16.6827 62.2553 17.2107 61.5726 17.584C60.8899 17.9573 60.1326 18.144 59.3006 18.144ZM59.3006 16.864C59.8233 16.864 60.3139 16.7413 60.7726 16.496C61.2313 16.2507 61.5993 15.8827 61.8766 15.392C62.1646 14.9013 62.3086 14.304 62.3086 13.6C62.3086 12.896 62.1699 12.2987 61.8926 11.808C61.6153 11.3173 61.2526 10.9547 60.8046 10.72C60.3566 10.4747 59.8713 10.352 59.3486 10.352C58.8153 10.352 58.3246 10.4747 57.8766 10.72C57.4393 10.9547 57.0873 11.3173 56.8206 11.808C56.5539 12.2987 56.4206 12.896 56.4206 13.6C56.4206 14.3147 56.5486 14.9173 56.8046 15.408C57.0713 15.8987 57.4233 16.2667 57.8606 16.512C58.2979 16.7467 58.7779 16.864 59.3006 16.864ZM65.487 13.6C65.487 12.6933 65.6683 11.904 66.031 11.232C66.3937 10.5493 66.895 10.0213 67.535 9.648C68.1857 9.27467 68.927 9.088 69.759 9.088C70.8363 9.088 71.7217 9.34933 72.415 9.872C73.119 10.3947 73.583 11.12 73.807 12.048H72.239C72.0897 11.5147 71.7963 11.0933 71.359 10.784C70.9323 10.4747 70.399 10.32 69.759 10.32C68.927 10.32 68.255 10.608 67.743 11.184C67.231 11.7493 66.975 12.5547 66.975 13.6C66.975 14.656 67.231 15.472 67.743 16.048C68.255 16.624 68.927 16.912 69.759 16.912C70.399 16.912 70.9323 16.7627 71.359 16.464C71.7857 16.1653 72.079 15.7387 72.239 15.184H73.807C73.5723 16.08 73.103 16.8 72.399 17.344C71.695 17.8773 70.815 18.144 69.759 18.144C68.927 18.144 68.1857 17.9573 67.535 17.584C66.895 17.2107 66.3937 16.6827 66.031 16C65.6683 15.3173 65.487 14.5173 65.487 13.6ZM80.9657 18L77.5257 14.128V18H76.0697V6.16H77.5257V13.12L80.9017 9.232H82.9337L78.8057 13.6L82.9497 18H80.9657ZM92.6241 13.28C92.6241 13.5573 92.6081 13.8507 92.5761 14.16H85.5681C85.6214 15.024 85.9148 15.7013 86.4481 16.192C86.9921 16.672 87.6481 16.912 88.4161 16.912C89.0454 16.912 89.5681 16.768 89.9841 16.48C90.4108 16.1813 90.7094 15.7867 90.8801 15.296H92.4481C92.2134 16.1387 91.7441 16.8267 91.0401 17.36C90.3361 17.8827 89.4614 18.144 88.4161 18.144C87.5841 18.144 86.8374 17.9573 86.1761 17.584C85.5254 17.2107 85.0134 16.6827 84.6401 16C84.2668 15.3067 84.0801 14.5067 84.0801 13.6C84.0801 12.6933 84.2614 11.8987 84.6241 11.216C84.9868 10.5333 85.4934 10.0107 86.1441 9.648C86.8054 9.27467 87.5628 9.088 88.4161 9.088C89.2481 9.088 89.9841 9.26933 90.6241 9.632C91.2641 9.99467 91.7548 10.496 92.0961 11.136C92.4481 11.7653 92.6241 12.48 92.6241 13.28ZM91.1201 12.976C91.1201 12.4213 90.9974 11.9467 90.7521 11.552C90.5068 11.1467 90.1708 10.8427 89.7441 10.64C89.3281 10.4267 88.8641 10.32 88.3521 10.32C87.6161 10.32 86.9868 10.5547 86.4641 11.024C85.9521 11.4933 85.6588 12.144 85.5841 12.976H91.1201ZM96.322 10.656C96.578 10.1547 96.9407 9.76533 97.41 9.488C97.89 9.21067 98.4713 9.072 99.154 9.072V10.576H98.77C97.138 10.576 96.322 11.4613 96.322 13.232V18H94.866V9.232H96.322V10.656Z" fill="#F4F4F5"/>
</svg>
