<svg width="123" height="24" viewBox="0 0 123 24" fill="none" xmlns="http://www.w3.org/2000/svg">
<g clip-path="url(#clip0_3116_16854)">
<path d="M14.2077 23.9586H14.499L19.2542 21.5807L19.3334 21.4688V2.48836L19.2542 2.37592L14.499 0H14.2041L14.2077 23.9586Z" fill="#E6E6E6"/>
<path d="M8.01904 23.9586H7.72365L2.97248 21.5807L2.87606 21.4148L2.82715 2.58502L2.97248 2.37592L7.72365 0H8.02269L8.01904 23.9586Z" fill="#B9B9B9"/>
<path d="M7.73242 0H14.4944V23.9586H7.73242V0Z" fill="white"/>
<path d="M21.7429 11.4401L21.5822 11.4045L19.2879 11.1906L19.2538 11.2075L14.4943 11.0172H7.73198L2.97242 11.2075V7.5781L2.96744 7.58076L2.97242 7.57013L7.73198 6.46729H14.4943L19.2538 7.57013L21.0035 8.50015V7.90223L21.7429 7.82134L21.6663 7.67202L19.3251 5.99792L19.2538 6.02109L14.4943 4.54629H7.73198L2.97242 6.02109V2.375L0.483398 5.29096V7.83762L0.502665 7.82366L1.22283 7.90223V8.51244L0.483398 8.90815V11.4421L0.502665 11.4401L1.22283 11.4507V12.5143L0.601488 12.5236L0.483398 12.5123V15.0472L1.22283 15.4449V16.0621L0.514374 16.1404L0.483398 16.1171V18.6634L2.97242 21.5797V17.934L7.73198 19.4088H14.4943L19.2678 17.9297L19.3313 17.9575L21.6417 16.308L21.7429 16.1437L21.0035 16.0621V15.4572L20.9066 15.4185L19.3251 16.271L19.2678 16.3906L14.4943 17.487V17.4884H7.73198V17.487L2.97242 16.3859V12.7432L7.73198 12.9329V12.9376H14.4943L19.2538 12.7432L19.3622 12.7931L21.586 12.6016L21.7429 12.5249L21.0035 12.5143V11.4507L21.7429 11.4401Z" fill="#747474"/>
<path d="M19.2539 17.934V21.5797L21.743 18.6634V16.1337L19.2683 17.9297L19.2539 17.934ZM19.2539 16.3939L19.2683 16.3906L21.743 15.0595V12.5143L19.2539 12.7432V16.3939ZM19.2683 7.57345L19.2539 7.57013V11.2075L21.743 11.4401V8.89611L19.2683 7.57345ZM19.2683 6.03537L21.743 7.82134V5.29162L19.2539 2.375V6.02109L19.2683 6.02607V6.03537Z" fill="white"/>
</g>
<path d="M34.8873 6.88C36.0713 6.88 37.106 7.10933 37.9913 7.568C38.8873 8.016 39.5753 8.66667 40.0553 9.52C40.546 10.3627 40.7913 11.3493 40.7913 12.48C40.7913 13.6107 40.546 14.592 40.0553 15.424C39.5753 16.256 38.8873 16.896 37.9913 17.344C37.106 17.7813 36.0713 18 34.8873 18H31.2553V6.88H34.8873ZM34.8873 16.512C36.1886 16.512 37.186 16.16 37.8793 15.456C38.5726 14.752 38.9193 13.76 38.9193 12.48C38.9193 11.1893 38.5726 10.1813 37.8793 9.456C37.186 8.73067 36.1886 8.368 34.8873 8.368H33.0793V16.512H34.8873ZM50.855 9.184L45.447 22.144H43.559L45.351 17.856L41.879 9.184H43.911L46.391 15.904L48.967 9.184H50.855ZM56.9995 9.04C57.6929 9.04 58.3115 9.184 58.8555 9.472C59.4102 9.76 59.8422 10.1867 60.1515 10.752C60.4609 11.3173 60.6155 12 60.6155 12.8V18H58.8075V13.072C58.8075 12.2827 58.6102 11.68 58.2155 11.264C57.8209 10.8373 57.2822 10.624 56.5995 10.624C55.9169 10.624 55.3729 10.8373 54.9675 11.264C54.5729 11.68 54.3755 12.2827 54.3755 13.072V18H52.5515V9.184H54.3755V10.192C54.6742 9.82933 55.0529 9.54667 55.5115 9.344C55.9809 9.14133 56.4769 9.04 56.9995 9.04ZM62.6542 13.552C62.6542 12.6667 62.8355 11.8827 63.1982 11.2C63.5715 10.5173 64.0728 9.98933 64.7022 9.616C65.3422 9.232 66.0462 9.04 66.8142 9.04C67.5075 9.04 68.1102 9.17867 68.6222 9.456C69.1448 9.72267 69.5608 10.0587 69.8702 10.464V9.184H71.7102V18H69.8702V16.688C69.5608 17.104 69.1395 17.4507 68.6062 17.728C68.0728 18.0053 67.4648 18.144 66.7822 18.144C66.0248 18.144 65.3315 17.952 64.7022 17.568C64.0728 17.1733 63.5715 16.6293 63.1982 15.936C62.8355 15.232 62.6542 14.4373 62.6542 13.552ZM69.8702 13.584C69.8702 12.976 69.7422 12.448 69.4862 12C69.2408 11.552 68.9155 11.2107 68.5102 10.976C68.1048 10.7413 67.6675 10.624 67.1982 10.624C66.7288 10.624 66.2915 10.7413 65.8862 10.976C65.4808 11.2 65.1502 11.536 64.8942 11.984C64.6488 12.4213 64.5262 12.944 64.5262 13.552C64.5262 14.16 64.6488 14.6933 64.8942 15.152C65.1502 15.6107 65.4808 15.9627 65.8862 16.208C66.3022 16.4427 66.7395 16.56 67.1982 16.56C67.6675 16.56 68.1048 16.4427 68.5102 16.208C68.9155 15.9733 69.2408 15.632 69.4862 15.184C69.7422 14.7253 69.8702 14.192 69.8702 13.584ZM85.0979 9.04C85.7913 9.04 86.4099 9.184 86.9539 9.472C87.5086 9.76 87.9406 10.1867 88.2499 10.752C88.5699 11.3173 88.7299 12 88.7299 12.8V18H86.9219V13.072C86.9219 12.2827 86.7246 11.68 86.3299 11.264C85.9353 10.8373 85.3966 10.624 84.7139 10.624C84.0313 10.624 83.4873 10.8373 83.0819 11.264C82.6873 11.68 82.4899 12.2827 82.4899 13.072V18H80.6819V13.072C80.6819 12.2827 80.4846 11.68 80.0899 11.264C79.6953 10.8373 79.1566 10.624 78.4739 10.624C77.7913 10.624 77.2473 10.8373 76.8419 11.264C76.4473 11.68 76.2499 12.2827 76.2499 13.072V18H74.4259V9.184H76.2499V10.192C76.5486 9.82933 76.9273 9.54667 77.3859 9.344C77.8446 9.14133 78.3353 9.04 78.8579 9.04C79.5619 9.04 80.1913 9.18933 80.7459 9.488C81.3006 9.78667 81.7273 10.2187 82.0259 10.784C82.2926 10.2507 82.7086 9.82933 83.2739 9.52C83.8393 9.2 84.4473 9.04 85.0979 9.04ZM95.1949 18.144C94.3629 18.144 93.6109 17.9573 92.9389 17.584C92.2669 17.2 91.7389 16.6667 91.3549 15.984C90.9709 15.2907 90.7789 14.4907 90.7789 13.584C90.7789 12.688 90.9763 11.8933 91.3709 11.2C91.7656 10.5067 92.3043 9.97333 92.9869 9.6C93.6696 9.22667 94.4323 9.04 95.2749 9.04C96.1176 9.04 96.8803 9.22667 97.5629 9.6C98.2456 9.97333 98.7843 10.5067 99.1789 11.2C99.5736 11.8933 99.7709 12.688 99.7709 13.584C99.7709 14.48 99.5683 15.2747 99.1629 15.968C98.7576 16.6613 98.2029 17.2 97.4989 17.584C96.8056 17.9573 96.0376 18.144 95.1949 18.144ZM95.1949 16.56C95.6643 16.56 96.1016 16.448 96.5069 16.224C96.9229 16 97.2589 15.664 97.5149 15.216C97.7709 14.768 97.8989 14.224 97.8989 13.584C97.8989 12.944 97.7763 12.4053 97.5309 11.968C97.2856 11.52 96.9603 11.184 96.5549 10.96C96.1496 10.736 95.7123 10.624 95.2429 10.624C94.7736 10.624 94.3363 10.736 93.9309 10.96C93.5363 11.184 93.2216 11.52 92.9869 11.968C92.7523 12.4053 92.6349 12.944 92.6349 13.584C92.6349 14.5333 92.8749 15.2693 93.3549 15.792C93.8456 16.304 94.4589 16.56 95.1949 16.56ZM105.526 6.88C106.71 6.88 107.745 7.10933 108.63 7.568C109.526 8.016 110.214 8.66667 110.694 9.52C111.185 10.3627 111.43 11.3493 111.43 12.48C111.43 13.6107 111.185 14.592 110.694 15.424C110.214 16.256 109.526 16.896 108.63 17.344C107.745 17.7813 106.71 18 105.526 18H101.894V6.88H105.526ZM105.526 16.512C106.827 16.512 107.825 16.16 108.518 15.456C109.211 14.752 109.558 13.76 109.558 12.48C109.558 11.1893 109.211 10.1813 108.518 9.456C107.825 8.73067 106.827 8.368 105.526 8.368H103.718V16.512H105.526ZM119.51 12.288C120.107 12.3947 120.614 12.7093 121.03 13.232C121.446 13.7547 121.654 14.3467 121.654 15.008C121.654 15.5733 121.504 16.0853 121.206 16.544C120.918 16.992 120.496 17.3493 119.942 17.616C119.387 17.872 118.742 18 118.006 18H113.558V6.88H117.798C118.555 6.88 119.206 7.008 119.75 7.264C120.294 7.52 120.704 7.86667 120.982 8.304C121.259 8.73067 121.398 9.21067 121.398 9.744C121.398 10.384 121.227 10.9173 120.886 11.344C120.544 11.7707 120.086 12.0853 119.51 12.288ZM115.382 11.552H117.638C118.235 11.552 118.699 11.4187 119.03 11.152C119.371 10.8747 119.542 10.48 119.542 9.968C119.542 9.46667 119.371 9.07733 119.03 8.8C118.699 8.512 118.235 8.368 117.638 8.368H115.382V11.552ZM117.846 16.512C118.464 16.512 118.95 16.3627 119.302 16.064C119.654 15.7653 119.83 15.3493 119.83 14.816C119.83 14.272 119.643 13.84 119.27 13.52C118.896 13.2 118.4 13.04 117.782 13.04H115.382V16.512H117.846Z" fill="#F4F4F5"/>
<defs>
<clipPath id="clip0_3116_16854">
<rect width="21.264" height="24" fill="white" transform="translate(0.481445)"/>
</clipPath>
</defs>
</svg>
