<svg width="115" height="24" viewBox="0 0 115 24" fill="none" xmlns="http://www.w3.org/2000/svg">
<path fill-rule="evenodd" clip-rule="evenodd" d="M13.8413 0.242188C12.5611 0.242188 11.0763 1.62471 10.3595 3.16057L2.42338 20.262C1.8088 21.594 2.52561 23.7444 4.1132 24H3.24243C0.989749 24 0.631341 21.2356 1.24532 19.9048L9.02808 3.16118C10.2573 0.498366 12.5617 0.242188 13.8413 0.242188Z" fill="white"/>
<path fill-rule="evenodd" clip-rule="evenodd" d="M18.5513 0.242188C17.271 0.242188 15.4278 1.62471 14.711 3.16057L6.7743 20.262C6.16032 21.594 6.87714 23.7444 8.46411 24H6.00637C3.75369 24 3.39467 21.2356 4.00926 19.9048L11.792 3.16118C13.0206 0.498974 15.325 0.242796 16.6053 0.242796L18.5513 0.242188Z" fill="white"/>
<path fill-rule="evenodd" clip-rule="evenodd" d="M23.928 0.242188C22.6477 0.242188 20.8045 1.62471 20.0877 3.16057L12.1516 20.262C11.5376 21.594 12.2538 23.7444 13.8414 24H10.4107C8.15798 24 7.79897 21.2356 8.41355 19.9048L16.1963 3.16118C17.4249 0.498974 19.7293 0.242796 21.0096 0.242796L23.928 0.242188Z" fill="white"/>
<path fill-rule="evenodd" clip-rule="evenodd" d="M31.0459 0.242188C29.7656 0.242188 27.9225 1.62471 27.2057 3.16057L19.2695 20.262C18.6556 21.594 19.3718 23.7444 20.9594 24H15.7366C13.4839 24 13.1255 21.2356 13.7395 19.9048L21.5222 3.16118C22.7514 0.498974 25.0552 0.242796 26.3355 0.242796L31.0459 0.242188Z" fill="white"/>
<path fill-rule="evenodd" clip-rule="evenodd" d="M24.5938 23.9994C22.3411 23.9994 21.9827 21.235 22.5973 19.9042L30.38 3.16057C31.6092 0.498365 33.913 0.242186 35.1933 0.242186H47.8404L44.9732 6.48909H37.3431L36.1651 8.99795H43.7945L40.8761 15.2442H33.2473L32.1203 17.7531H39.7498L36.8314 24L24.5938 23.9994ZM69.8567 0.241578H78.3046L74.2605 8.99734H77.4344L81.4791 0.241578H89.9793L79.0214 23.9994H70.4713L74.5671 15.2436H71.3415L67.2444 23.9994H58.746L69.8567 0.241578ZM59.2067 20.4159C58.6943 21.5416 57.3629 23.9994 53.5232 23.9994H42.0024C39.7492 23.9994 39.3914 21.235 40.0053 19.9042L47.7881 3.16057C49.0173 0.498365 51.3217 0.242186 52.6014 0.242186H64.8901C65.9647 0.242186 67.9624 1.57359 66.8355 4.08245L64.0187 10.0732H55.9804L57.6702 6.48848H54.7518L49.4779 17.7525H52.3963L54.1372 14.0145H62.175L59.2067 20.4159ZM107.899 0.241578C108.975 0.241578 110.971 1.57298 109.846 4.08184L102.216 20.4159C101.703 21.5416 100.373 23.9994 96.5323 23.9994H84.2959L91.7714 17.7525H94.9459L100.219 6.48848H97.0447L91.7714 17.7525L84.2959 23.9994C82.0426 23.9994 81.6848 21.235 82.2982 19.9042L90.0816 3.16057C91.3107 0.498365 93.6151 0.242186 94.8948 0.242186L107.899 0.241578ZM112.974 0.30486C113.801 0.30486 114.454 0.958394 114.454 1.8243C114.454 2.7048 113.802 3.35347 112.974 3.35347C112.136 3.35347 111.484 2.70541 111.484 1.8243C111.484 0.958394 112.136 0.30486 112.974 0.30486V0C111.968 0 111.115 0.774626 111.115 1.8243C111.115 2.88431 111.967 3.65833 112.974 3.65833C113.97 3.65833 114.822 2.88431 114.822 1.8243C114.822 0.774626 113.97 0 112.974 0V0.30486Z" fill="white"/>
<path fill-rule="evenodd" clip-rule="evenodd" d="M112.586 1.04617H113.021C113.244 1.04617 113.481 1.09425 113.481 1.3559C113.481 1.68024 113.239 1.6991 112.968 1.6991H112.586V1.97049H112.954L113.51 2.88508H113.869L113.269 1.95589C113.578 1.91755 113.815 1.75265 113.815 1.37538C113.815 0.959159 113.568 0.775391 113.07 0.775391H112.267V2.88508H112.586V1.04617Z" fill="white"/>
</svg>
