<svg width="142" height="24" viewBox="0 0 142 24" fill="none" xmlns="http://www.w3.org/2000/svg">
<g clip-path="url(#clip0_3116_16979)">
<path d="M2.15771 6.7278H18.0351C19.7849 6.7278 21.3473 5.92548 22.3957 4.67295C20.2088 1.83231 16.7766 0 12.9146 0C8.18574 0 4.09886 2.74498 2.15771 6.7278Z" fill="white"/>
<path d="M16.6896 8.5957H1.43704C1.1247 9.6632 0.954102 10.7912 0.954102 11.9596C0.954102 13.128 1.1247 14.2561 1.43704 15.3235H16.6896C18.5211 15.3235 20.0536 13.8285 20.0536 11.9596C20.0536 10.0908 18.5585 8.5957 16.6896 8.5957Z" fill="white"/>
<path d="M22.4365 19.1963C21.3947 17.9718 19.8449 17.1934 18.1098 17.1934H2.15771C4.09886 21.1763 8.18574 23.9212 12.9145 23.9212C16.8003 23.9212 20.2518 22.0669 22.4365 19.1963Z" fill="white"/>
<path d="M1.43704 8.5957C1.12462 9.6632 0.954102 10.7912 0.954102 11.9596C0.954102 13.128 1.12462 14.2561 1.43704 15.3235H11.4195C11.6812 14.3143 11.8306 13.193 11.8306 11.9596C11.8306 10.7262 11.6812 9.60488 11.4195 8.5957H1.43704Z" fill="#C6C6C6"/>
<path d="M6.89678 1.60742C4.87835 2.80348 3.19642 4.59752 2.1499 6.72807H10.9708C10.0738 4.67229 8.65348 2.95302 6.89678 1.60742Z" fill="#C6C6C6"/>
<path d="M7.27055 22.5009C8.98982 21.1179 10.3728 19.2865 11.2325 17.1934H2.1499C3.27119 19.436 5.06532 21.3048 7.27055 22.5009Z" fill="#C6C6C6"/>
</g>
<path d="M33.2827 8.032V11.76H37.3467V12.96H33.2827V16.8H37.8267V18H31.8267V6.832H37.8267V8.032H33.2827ZM41.8058 6.16V18H40.3498V6.16H41.8058ZM44.0633 13.584C44.0633 12.688 44.2446 11.904 44.6073 11.232C44.9699 10.5493 45.4659 10.0213 46.0953 9.648C46.7353 9.27467 47.4446 9.088 48.2233 9.088C48.9913 9.088 49.6579 9.25333 50.2233 9.584C50.7886 9.91467 51.2099 10.3307 51.4873 10.832V9.232H52.9593V18H51.4873V16.368C51.1993 16.88 50.7673 17.3067 50.1913 17.648C49.6259 17.9787 48.9646 18.144 48.2073 18.144C47.4286 18.144 46.7246 17.952 46.0953 17.568C45.4659 17.184 44.9699 16.6453 44.6073 15.952C44.2446 15.2587 44.0633 14.4693 44.0633 13.584ZM51.4873 13.6C51.4873 12.9387 51.3539 12.3627 51.0873 11.872C50.8206 11.3813 50.4579 11.008 49.9993 10.752C49.5513 10.4853 49.0553 10.352 48.5113 10.352C47.9673 10.352 47.4713 10.48 47.0233 10.736C46.5753 10.992 46.2179 11.3653 45.9513 11.856C45.6846 12.3467 45.5513 12.9227 45.5513 13.584C45.5513 14.256 45.6846 14.8427 45.9513 15.344C46.2179 15.8347 46.5753 16.2133 47.0233 16.48C47.4713 16.736 47.9673 16.864 48.5113 16.864C49.0553 16.864 49.5513 16.736 49.9993 16.48C50.4579 16.2133 50.8206 15.8347 51.0873 15.344C51.3539 14.8427 51.4873 14.2613 51.4873 13.6ZM58.8438 18.144C58.1718 18.144 57.5691 18.032 57.0358 17.808C56.5024 17.5733 56.0811 17.2533 55.7718 16.848C55.4624 16.432 55.2918 15.9573 55.2598 15.424H56.7638C56.8064 15.8613 57.0091 16.2187 57.3718 16.496C57.7451 16.7733 58.2304 16.912 58.8278 16.912C59.3824 16.912 59.8198 16.7893 60.1398 16.544C60.4598 16.2987 60.6198 15.9893 60.6198 15.616C60.6198 15.232 60.4491 14.9493 60.1078 14.768C59.7664 14.576 59.2384 14.3893 58.5238 14.208C57.8731 14.0373 57.3398 13.8667 56.9238 13.696C56.5184 13.5147 56.1664 13.2533 55.8678 12.912C55.5798 12.56 55.4358 12.1013 55.4358 11.536C55.4358 11.088 55.5691 10.6773 55.8358 10.304C56.1024 9.93067 56.4811 9.63733 56.9718 9.424C57.4624 9.2 58.0224 9.088 58.6518 9.088C59.6224 9.088 60.4064 9.33333 61.0038 9.824C61.6011 10.3147 61.9211 10.9867 61.9638 11.84H60.5078C60.4758 11.3813 60.2891 11.0133 59.9478 10.736C59.6171 10.4587 59.1691 10.32 58.6038 10.32C58.0811 10.32 57.6651 10.432 57.3558 10.656C57.0464 10.88 56.8918 11.1733 56.8918 11.536C56.8918 11.824 56.9824 12.064 57.1638 12.256C57.3558 12.4373 57.5904 12.5867 57.8678 12.704C58.1558 12.8107 58.5504 12.9333 59.0518 13.072C59.6811 13.2427 60.1931 13.4133 60.5878 13.584C60.9824 13.744 61.3184 13.9893 61.5958 14.32C61.8838 14.6507 62.0331 15.0827 62.0438 15.616C62.0438 16.096 61.9104 16.528 61.6438 16.912C61.3771 17.296 60.9984 17.6 60.5078 17.824C60.0278 18.0373 59.4731 18.144 58.8438 18.144ZM66.1951 10.432V15.6C66.1951 16.0267 66.2858 16.3307 66.4671 16.512C66.6485 16.6827 66.9631 16.768 67.4111 16.768H68.4831V18H67.1711C66.3605 18 65.7525 17.8133 65.3471 17.44C64.9418 17.0667 64.7391 16.4533 64.7391 15.6V10.432H63.6031V9.232H64.7391V7.024H66.1951V9.232H68.4831V10.432H66.1951ZM71.3193 7.808C71.0419 7.808 70.8073 7.712 70.6153 7.52C70.4233 7.328 70.3273 7.09333 70.3273 6.816C70.3273 6.53867 70.4233 6.304 70.6153 6.112C70.8073 5.92 71.0419 5.824 71.3193 5.824C71.5859 5.824 71.8099 5.92 71.9913 6.112C72.1833 6.304 72.2793 6.53867 72.2793 6.816C72.2793 7.09333 72.1833 7.328 71.9913 7.52C71.8099 7.712 71.5859 7.808 71.3193 7.808ZM72.0233 9.232V18H70.5673V9.232H72.0233ZM74.2808 13.6C74.2808 12.6933 74.4621 11.904 74.8248 11.232C75.1874 10.5493 75.6888 10.0213 76.3288 9.648C76.9794 9.27467 77.7208 9.088 78.5528 9.088C79.6301 9.088 80.5154 9.34933 81.2088 9.872C81.9128 10.3947 82.3768 11.12 82.6008 12.048H81.0328C80.8834 11.5147 80.5901 11.0933 80.1528 10.784C79.7261 10.4747 79.1928 10.32 78.5528 10.32C77.7208 10.32 77.0488 10.608 76.5368 11.184C76.0248 11.7493 75.7688 12.5547 75.7688 13.6C75.7688 14.656 76.0248 15.472 76.5368 16.048C77.0488 16.624 77.7208 16.912 78.5528 16.912C79.1928 16.912 79.7261 16.7627 80.1528 16.464C80.5794 16.1653 80.8728 15.7387 81.0328 15.184H82.6008C82.3661 16.08 81.8968 16.8 81.1928 17.344C80.4888 17.8773 79.6088 18.144 78.5528 18.144C77.7208 18.144 76.9794 17.9573 76.3288 17.584C75.6888 17.2107 75.1874 16.6827 74.8248 16C74.4621 15.3173 74.2808 14.5173 74.2808 13.6ZM88.3995 18.112C87.6635 18.112 87.0022 17.984 86.4155 17.728C85.8395 17.4613 85.3862 17.0987 85.0555 16.64C84.7249 16.1707 84.5542 15.632 84.5435 15.024H86.0955C86.1489 15.5467 86.3622 15.9893 86.7355 16.352C87.1195 16.704 87.6742 16.88 88.3995 16.88C89.0929 16.88 89.6369 16.7093 90.0315 16.368C90.4369 16.016 90.6395 15.568 90.6395 15.024C90.6395 14.5973 90.5222 14.2507 90.2875 13.984C90.0529 13.7173 89.7595 13.5147 89.4075 13.376C89.0555 13.2373 88.5809 13.088 87.9835 12.928C87.2475 12.736 86.6555 12.544 86.2075 12.352C85.7702 12.16 85.3915 11.8613 85.0715 11.456C84.7622 11.04 84.6075 10.4853 84.6075 9.792C84.6075 9.184 84.7622 8.64533 85.0715 8.176C85.3809 7.70667 85.8129 7.344 86.3675 7.088C86.9329 6.832 87.5782 6.704 88.3035 6.704C89.3489 6.704 90.2022 6.96533 90.8635 7.488C91.5355 8.01067 91.9142 8.704 91.9995 9.568H90.3995C90.3462 9.14133 90.1222 8.768 89.7275 8.448C89.3329 8.11733 88.8102 7.952 88.1595 7.952C87.5515 7.952 87.0555 8.112 86.6715 8.432C86.2875 8.74133 86.0955 9.17867 86.0955 9.744C86.0955 10.1493 86.2075 10.48 86.4315 10.736C86.6662 10.992 86.9489 11.1893 87.2795 11.328C87.6209 11.456 88.0955 11.6053 88.7035 11.776C89.4395 11.9787 90.0315 12.1813 90.4795 12.384C90.9275 12.576 91.3115 12.88 91.6315 13.296C91.9515 13.7013 92.1115 14.256 92.1115 14.96C92.1115 15.504 91.9675 16.016 91.6795 16.496C91.3915 16.976 90.9649 17.3653 90.3995 17.664C89.8342 17.9627 89.1675 18.112 88.3995 18.112ZM102.574 13.28C102.574 13.5573 102.558 13.8507 102.526 14.16H95.5182C95.5715 15.024 95.8648 15.7013 96.3982 16.192C96.9422 16.672 97.5982 16.912 98.3662 16.912C98.9955 16.912 99.5182 16.768 99.9342 16.48C100.361 16.1813 100.659 15.7867 100.83 15.296H102.398C102.163 16.1387 101.694 16.8267 100.99 17.36C100.286 17.8827 99.4115 18.144 98.3662 18.144C97.5342 18.144 96.7875 17.9573 96.1262 17.584C95.4755 17.2107 94.9635 16.6827 94.5902 16C94.2168 15.3067 94.0302 14.5067 94.0302 13.6C94.0302 12.6933 94.2115 11.8987 94.5742 11.216C94.9368 10.5333 95.4435 10.0107 96.0942 9.648C96.7555 9.27467 97.5128 9.088 98.3662 9.088C99.1982 9.088 99.9342 9.26933 100.574 9.632C101.214 9.99467 101.705 10.496 102.046 11.136C102.398 11.7653 102.574 12.48 102.574 13.28ZM101.07 12.976C101.07 12.4213 100.947 11.9467 100.702 11.552C100.457 11.1467 100.121 10.8427 99.6942 10.64C99.2782 10.4267 98.8142 10.32 98.3022 10.32C97.5662 10.32 96.9368 10.5547 96.4142 11.024C95.9022 11.4933 95.6088 12.144 95.5342 12.976H101.07ZM104.272 13.584C104.272 12.688 104.453 11.904 104.816 11.232C105.179 10.5493 105.675 10.0213 106.304 9.648C106.944 9.27467 107.653 9.088 108.432 9.088C109.2 9.088 109.867 9.25333 110.432 9.584C110.997 9.91467 111.419 10.3307 111.696 10.832V9.232H113.168V18H111.696V16.368C111.408 16.88 110.976 17.3067 110.4 17.648C109.835 17.9787 109.173 18.144 108.416 18.144C107.637 18.144 106.933 17.952 106.304 17.568C105.675 17.184 105.179 16.6453 104.816 15.952C104.453 15.2587 104.272 14.4693 104.272 13.584ZM111.696 13.6C111.696 12.9387 111.563 12.3627 111.296 11.872C111.029 11.3813 110.667 11.008 110.208 10.752C109.76 10.4853 109.264 10.352 108.72 10.352C108.176 10.352 107.68 10.48 107.232 10.736C106.784 10.992 106.427 11.3653 106.16 11.856C105.893 12.3467 105.76 12.9227 105.76 13.584C105.76 14.256 105.893 14.8427 106.16 15.344C106.427 15.8347 106.784 16.2133 107.232 16.48C107.68 16.736 108.176 16.864 108.72 16.864C109.264 16.864 109.76 16.736 110.208 16.48C110.667 16.2133 111.029 15.8347 111.296 15.344C111.563 14.8427 111.696 14.2613 111.696 13.6ZM117.405 10.656C117.661 10.1547 118.023 9.76533 118.493 9.488C118.973 9.21067 119.554 9.072 120.237 9.072V10.576H119.853C118.221 10.576 117.405 11.4613 117.405 13.232V18H115.949V9.232H117.405V10.656ZM121.693 13.6C121.693 12.6933 121.875 11.904 122.237 11.232C122.6 10.5493 123.101 10.0213 123.741 9.648C124.392 9.27467 125.133 9.088 125.965 9.088C127.043 9.088 127.928 9.34933 128.621 9.872C129.325 10.3947 129.789 11.12 130.013 12.048H128.445C128.296 11.5147 128.003 11.0933 127.565 10.784C127.139 10.4747 126.605 10.32 125.965 10.32C125.133 10.32 124.461 10.608 123.949 11.184C123.437 11.7493 123.181 12.5547 123.181 13.6C123.181 14.656 123.437 15.472 123.949 16.048C124.461 16.624 125.133 16.912 125.965 16.912C126.605 16.912 127.139 16.7627 127.565 16.464C127.992 16.1653 128.285 15.7387 128.445 15.184H130.013C129.779 16.08 129.309 16.8 128.605 17.344C127.901 17.8773 127.021 18.144 125.965 18.144C125.133 18.144 124.392 17.9573 123.741 17.584C123.101 17.2107 122.6 16.6827 122.237 16C121.875 15.3173 121.693 14.5173 121.693 13.6ZM136.628 9.072C137.289 9.072 137.887 9.216 138.42 9.504C138.953 9.78133 139.369 10.2027 139.668 10.768C139.977 11.3333 140.132 12.0213 140.132 12.832V18H138.692V13.04C138.692 12.1653 138.473 11.4987 138.036 11.04C137.599 10.5707 137.001 10.336 136.244 10.336C135.476 10.336 134.863 10.576 134.404 11.056C133.956 11.536 133.732 12.2347 133.732 13.152V18H132.276V6.16H133.732V10.48C134.02 10.032 134.415 9.68533 134.916 9.44C135.428 9.19467 135.999 9.072 136.628 9.072Z" fill="#F4F4F5"/>
<defs>
<clipPath id="clip0_3116_16979">
<rect width="21.4825" height="24" fill="white" transform="translate(0.954102)"/>
</clipPath>
</defs>
</svg>
