<svg width="92" height="24" viewBox="0 0 92 24" fill="none" xmlns="http://www.w3.org/2000/svg">
<g clip-path="url(#clip0_3116_16539)">
<path d="M12.0366 0C5.41162 0 0.0366211 5.375 0.0366211 12C0.0366211 18.627 5.41162 24 12.0366 24C18.6626 24 24.0366 18.627 24.0366 12C24.0366 5.375 18.6636 0 12.0366 0ZM11.4126 21.62V14.092H7.22662L13.2396 2.38V9.908H17.2686L11.4126 21.62Z" fill="white"/>
</g>
<path d="M39.5892 6.848V8.032H34.7412V11.792H38.6772V12.976H34.7412V18H33.2852V6.848H39.5892ZM41.1237 13.584C41.1237 12.688 41.305 11.904 41.6677 11.232C42.0304 10.5493 42.5264 10.0213 43.1557 9.648C43.7957 9.27467 44.505 9.088 45.2837 9.088C46.0517 9.088 46.7184 9.25333 47.2837 9.584C47.849 9.91467 48.2704 10.3307 48.5477 10.832V9.232H50.0197V18H48.5477V16.368C48.2597 16.88 47.8277 17.3067 47.2517 17.648C46.6864 17.9787 46.025 18.144 45.2677 18.144C44.489 18.144 43.785 17.952 43.1557 17.568C42.5264 17.184 42.0304 16.6453 41.6677 15.952C41.305 15.2587 41.1237 14.4693 41.1237 13.584ZM48.5477 13.6C48.5477 12.9387 48.4144 12.3627 48.1477 11.872C47.881 11.3813 47.5184 11.008 47.0597 10.752C46.6117 10.4853 46.1157 10.352 45.5717 10.352C45.0277 10.352 44.5317 10.48 44.0837 10.736C43.6357 10.992 43.2784 11.3653 43.0117 11.856C42.745 12.3467 42.6117 12.9227 42.6117 13.584C42.6117 14.256 42.745 14.8427 43.0117 15.344C43.2784 15.8347 43.6357 16.2133 44.0837 16.48C44.5317 16.736 45.0277 16.864 45.5717 16.864C46.1157 16.864 46.6117 16.736 47.0597 16.48C47.5184 16.2133 47.881 15.8347 48.1477 15.344C48.4144 14.8427 48.5477 14.2613 48.5477 13.6ZM55.9042 18.144C55.2322 18.144 54.6295 18.032 54.0962 17.808C53.5629 17.5733 53.1415 17.2533 52.8322 16.848C52.5229 16.432 52.3522 15.9573 52.3202 15.424H53.8242C53.8669 15.8613 54.0695 16.2187 54.4322 16.496C54.8055 16.7733 55.2909 16.912 55.8882 16.912C56.4429 16.912 56.8802 16.7893 57.2002 16.544C57.5202 16.2987 57.6802 15.9893 57.6802 15.616C57.6802 15.232 57.5095 14.9493 57.1682 14.768C56.8269 14.576 56.2989 14.3893 55.5842 14.208C54.9335 14.0373 54.4002 13.8667 53.9842 13.696C53.5789 13.5147 53.2269 13.2533 52.9282 12.912C52.6402 12.56 52.4962 12.1013 52.4962 11.536C52.4962 11.088 52.6295 10.6773 52.8962 10.304C53.1629 9.93067 53.5415 9.63733 54.0322 9.424C54.5229 9.2 55.0829 9.088 55.7122 9.088C56.6829 9.088 57.4669 9.33333 58.0642 9.824C58.6615 10.3147 58.9815 10.9867 59.0242 11.84H57.5682C57.5362 11.3813 57.3495 11.0133 57.0082 10.736C56.6775 10.4587 56.2295 10.32 55.6642 10.32C55.1415 10.32 54.7255 10.432 54.4162 10.656C54.1069 10.88 53.9522 11.1733 53.9522 11.536C53.9522 11.824 54.0429 12.064 54.2242 12.256C54.4162 12.4373 54.6509 12.5867 54.9282 12.704C55.2162 12.8107 55.6109 12.9333 56.1122 13.072C56.7415 13.2427 57.2535 13.4133 57.6482 13.584C58.0429 13.744 58.3789 13.9893 58.6562 14.32C58.9442 14.6507 59.0935 15.0827 59.1042 15.616C59.1042 16.096 58.9709 16.528 58.7042 16.912C58.4375 17.296 58.0589 17.6 57.5682 17.824C57.0882 18.0373 56.5335 18.144 55.9042 18.144ZM63.2556 10.432V15.6C63.2556 16.0267 63.3462 16.3307 63.5276 16.512C63.7089 16.6827 64.0236 16.768 64.4716 16.768H65.5436V18H64.2316C63.4209 18 62.8129 17.8133 62.4076 17.44C62.0022 17.0667 61.7996 16.4533 61.7996 15.6V10.432H60.6636V9.232H61.7996V7.024H63.2556V9.232H65.5436V10.432H63.2556ZM74.2197 15.52H69.3557L68.4597 18H66.9237L70.9557 6.912H72.6357L76.6517 18H75.1157L74.2197 15.52ZM73.8037 14.336L71.7877 8.704L69.7717 14.336H73.8037ZM86.1849 10.112C86.1849 11.04 85.8649 11.8133 85.2249 12.432C84.5956 13.04 83.6303 13.344 82.3289 13.344H80.1849V18H78.7289V6.848H82.3289C83.5876 6.848 84.5423 7.152 85.1929 7.76C85.8543 8.368 86.1849 9.152 86.1849 10.112ZM82.3289 12.144C83.1396 12.144 83.7369 11.968 84.1209 11.616C84.5049 11.264 84.6969 10.7627 84.6969 10.112C84.6969 8.736 83.9076 8.048 82.3289 8.048H80.1849V12.144H82.3289ZM89.7706 6.848V18H88.3146V6.848H89.7706Z" fill="#F4F4F5"/>
<defs>
<clipPath id="clip0_3116_16539">
<rect width="24" height="24" fill="white" transform="translate(0.0366211)"/>
</clipPath>
</defs>
</svg>
