<svg width="146" height="24" viewBox="0 0 146 24" fill="none" xmlns="http://www.w3.org/2000/svg">
<g clip-path="url(#clip0_3116_17225)">
<path d="M5.75389 0C8.52927 0 10.7793 2.24926 10.7793 5.02412C10.7793 7.75131 8.60529 9.9694 5.89554 10.0446C5.89554 10.2754 5.90573 10.7113 6.03631 10.9746C6.21748 11.3397 7.30419 12.0194 8.36992 12.0194H8.75279C8.99341 10.3065 10.4643 8.98828 12.244 8.98828C14.0165 8.98828 15.4831 10.2958 15.7326 11.9985H17.7134C17.963 10.2958 19.4295 8.98828 21.202 8.98828C23.1496 8.98828 24.7285 10.5667 24.7285 12.5139C24.7285 14.461 23.1496 16.0395 21.202 16.0395C19.4295 16.0395 17.9629 14.7319 17.7134 13.0291H15.7326C15.4832 14.7319 14.0165 16.0395 12.244 16.0395C10.4749 16.0395 9.01024 14.737 8.75665 13.0388L8.33332 13.0515C7.6363 13.0462 6.89993 12.8601 6.30849 12.4582C6.14725 12.3487 5.9884 12.2335 5.8227 12.1244L5.82265 12.3534C5.82174 12.4274 5.80839 13.54 5.80732 14.7752L5.80729 15.0368C5.80779 15.8469 5.81419 16.6816 5.83326 17.2904C5.8751 18.6261 6.96152 19.7041 8.1604 19.9564C8.31623 19.9891 8.58416 19.9933 8.75296 19.9787C8.99401 18.2664 10.4648 16.9487 12.244 16.9487C14.1916 16.9487 15.7705 18.5272 15.7705 20.4744C15.7705 22.4215 14.1916 24 12.244 24C10.4844 24 9.02622 22.7115 8.76095 21.0268H8.4559C6.16502 20.9018 4.74074 18.8006 4.76556 17.0965C4.79692 14.9518 4.7733 12.8062 4.77295 10.6609V9.95179C2.46721 9.49558 0.728516 7.46309 0.728516 5.02412C0.728516 2.24926 2.97842 0 5.75389 0ZM12.244 17.9793C10.8658 17.9793 9.74841 19.0964 9.74841 20.4744C9.74841 21.8523 10.8658 22.9694 12.244 22.9694C13.6223 22.9694 14.7397 21.8523 14.7397 20.4744C14.7397 19.0964 13.6223 17.9793 12.244 17.9793ZM12.244 10.0189C10.8658 10.0189 9.74841 11.1359 9.74841 12.5139C9.74841 13.8918 10.8658 15.0089 12.244 15.0089C13.6223 15.0089 14.7397 13.8918 14.7397 12.5139C14.7397 11.1359 13.6223 10.0189 12.244 10.0189ZM21.202 10.0189C19.8236 10.0189 18.7064 11.1359 18.7064 12.5139C18.7064 13.8918 19.8236 15.0089 21.202 15.0089C22.5803 15.0089 23.6976 13.8918 23.6976 12.5139C23.6976 11.1359 22.5803 10.0189 21.202 10.0189ZM22.6233 11.4634C22.8196 11.6593 22.8251 11.9741 22.6392 12.1764L22.6242 12.1922L21.0952 13.7245C20.9004 13.9198 20.5876 13.9263 20.3849 13.7431L20.3687 13.7278L19.6202 12.9909C19.4173 12.7912 19.4148 12.465 19.6145 12.2622C19.8091 12.0646 20.1239 12.0571 20.3276 12.2416L20.3434 12.2566L20.727 12.6342L21.8944 11.4644C22.0954 11.2628 22.4217 11.2625 22.6233 11.4634ZM13.6242 11.4559C13.8206 11.6518 13.826 11.9665 13.6402 12.1689L13.6252 12.1847L12.0962 13.717C11.9013 13.9123 11.5886 13.9188 11.3858 13.7355L11.3697 13.7202L10.6211 12.9834C10.4183 12.7837 10.4157 12.4574 10.6154 12.2547C10.81 12.057 11.1248 12.0496 11.3285 12.2341L11.3443 12.2491L11.728 12.6266L12.8953 11.4568C13.0963 11.2553 13.4227 11.2549 13.6242 11.4559ZM5.75389 1.03059C3.54779 1.03059 1.75936 2.81849 1.75936 5.02412C1.75936 7.22966 3.54779 9.01765 5.75389 9.01765C7.95998 9.01765 9.74841 7.22966 9.74841 5.02412C9.74841 2.81849 7.95998 1.03059 5.75389 1.03059ZM5.33826 2.63722C6.17866 3.14213 7.00771 3.66438 7.82552 4.20389C8.5106 4.6558 8.50888 5.47538 7.81615 5.92832C6.98375 6.47299 6.13811 6.99524 5.27942 7.49507C4.5805 7.9019 3.79818 7.4341 3.77919 6.61907C3.76699 6.09382 3.77696 5.56805 3.77627 5.04245C3.77567 4.5311 3.76562 4.0195 3.77799 3.50842C3.79886 2.64143 4.597 2.18969 5.33826 2.63722ZM4.78427 3.46891V3.83159C4.78418 4.01117 4.78418 4.18835 4.78409 4.36355L4.78401 4.71137V5.2252C4.78409 5.62181 4.78427 6.01214 4.78495 6.40248C4.7853 6.58618 4.88091 6.57871 5.00461 6.5021C5.71761 6.06015 6.43095 5.61872 7.14464 5.17771C7.26259 5.10497 7.26594 5.02896 7.15023 4.95596C6.38586 4.47425 5.62045 3.99417 4.78427 3.46891Z" fill="white"/>
<path d="M13.2185 20.9896C13.5031 20.9896 13.734 20.7589 13.734 20.4743C13.734 20.1897 13.5031 19.959 13.2185 19.959C12.9339 19.959 12.7031 20.1897 12.7031 20.4743C12.7031 20.7589 12.9339 20.9896 13.2185 20.9896Z" fill="url(#paint0_linear_3116_17225)"/>
<path d="M11.2454 20.9896C11.53 20.9896 11.7608 20.7589 11.7608 20.4743C11.7608 20.1897 11.53 19.959 11.2454 19.959C10.9608 19.959 10.73 20.1897 10.73 20.4743C10.73 20.7589 10.9608 20.9896 11.2454 20.9896Z" fill="url(#paint1_linear_3116_17225)"/>
<path d="M21.202 22.9699C19.8237 22.9699 18.7064 21.8528 18.7064 20.4749C18.7064 19.0969 19.8237 17.9798 21.202 17.9798C22.5803 17.9798 23.6977 19.0969 23.6977 20.4749C23.6977 21.8528 22.5803 22.9699 21.202 22.9699ZM21.202 16.9492C19.4296 16.9492 17.963 18.2568 17.7135 19.9596H17.1367C16.8849 19.9596 16.6807 20.1903 16.6807 20.4749C16.6807 20.7595 16.8849 20.9902 17.1367 20.9902H17.7135C17.963 22.6929 19.4296 24.0005 21.202 24.0005C23.1496 24.0005 24.7286 22.422 24.7286 20.4749C24.7286 18.5277 23.1496 16.9492 21.202 16.9492Z" fill="url(#paint2_linear_3116_17225)"/>
</g>
<path d="M42.7385 10.08C42.4292 9.42933 41.9812 8.928 41.3945 8.576C40.8079 8.21333 40.1252 8.032 39.3465 8.032C38.5679 8.032 37.8639 8.21333 37.2345 8.576C36.6159 8.928 36.1252 9.44 35.7625 10.112C35.4105 10.7733 35.2345 11.5413 35.2345 12.416C35.2345 13.2907 35.4105 14.0587 35.7625 14.72C36.1252 15.3813 36.6159 15.8933 37.2345 16.256C37.8639 16.608 38.5679 16.784 39.3465 16.784C40.4345 16.784 41.3305 16.4587 42.0345 15.808C42.7385 15.1573 43.1492 14.2773 43.2665 13.168H38.8185V11.984H44.8185V13.104C44.7332 14.0213 44.4452 14.864 43.9545 15.632C43.4639 16.3893 42.8185 16.992 42.0185 17.44C41.2185 17.8773 40.3279 18.096 39.3465 18.096C38.3119 18.096 37.3679 17.856 36.5145 17.376C35.6612 16.8853 34.9839 16.208 34.4825 15.344C33.9919 14.48 33.7465 13.504 33.7465 12.416C33.7465 11.328 33.9919 10.352 34.4825 9.488C34.9839 8.61333 35.6612 7.936 36.5145 7.456C37.3679 6.96533 38.3119 6.72 39.3465 6.72C40.5305 6.72 41.5759 7.01333 42.4825 7.6C43.3999 8.18667 44.0665 9.01333 44.4825 10.08H42.7385ZM47.8156 7.808C47.5383 7.808 47.3036 7.712 47.1116 7.52C46.9196 7.328 46.8236 7.09333 46.8236 6.816C46.8236 6.53867 46.9196 6.304 47.1116 6.112C47.3036 5.92 47.5383 5.824 47.8156 5.824C48.0823 5.824 48.3063 5.92 48.4876 6.112C48.6796 6.304 48.7756 6.53867 48.7756 6.816C48.7756 7.09333 48.6796 7.328 48.4876 7.52C48.3063 7.712 48.0823 7.808 47.8156 7.808ZM48.5196 9.232V18H47.0636V9.232H48.5196ZM53.0971 10.432V15.6C53.0971 16.0267 53.1878 16.3307 53.3691 16.512C53.5505 16.6827 53.8651 16.768 54.3131 16.768H55.3851V18H54.0731C53.2625 18 52.6545 17.8133 52.2491 17.44C51.8438 17.0667 51.6411 16.4533 51.6411 15.6V10.432H50.5051V9.232H51.6411V7.024H53.0971V9.232H55.3851V10.432H53.0971ZM61.8213 9.072C62.4826 9.072 63.0799 9.216 63.6133 9.504C64.1466 9.78133 64.5626 10.2027 64.8613 10.768C65.1706 11.3333 65.3253 12.0213 65.3253 12.832V18H63.8853V13.04C63.8853 12.1653 63.6666 11.4987 63.2293 11.04C62.7919 10.5707 62.1946 10.336 61.4373 10.336C60.6693 10.336 60.0559 10.576 59.5973 11.056C59.1493 11.536 58.9253 12.2347 58.9253 13.152V18H57.4693V6.16H58.9253V10.48C59.2133 10.032 59.6079 9.68533 60.1093 9.44C60.6213 9.19467 61.1919 9.072 61.8213 9.072ZM75.7996 9.232V18H74.3436V16.704C74.0663 17.152 73.677 17.504 73.1756 17.76C72.685 18.0053 72.141 18.128 71.5436 18.128C70.861 18.128 70.2476 17.9893 69.7036 17.712C69.1596 17.424 68.7276 16.9973 68.4076 16.432C68.0983 15.8667 67.9436 15.1787 67.9436 14.368V9.232H69.3836V14.176C69.3836 15.04 69.6023 15.7067 70.0396 16.176C70.477 16.6347 71.0743 16.864 71.8316 16.864C72.6103 16.864 73.2236 16.624 73.6716 16.144C74.1196 15.664 74.3436 14.9653 74.3436 14.048V9.232H75.7996ZM80.034 10.864C80.3327 10.3413 80.77 9.91467 81.346 9.584C81.922 9.25333 82.578 9.088 83.314 9.088C84.1033 9.088 84.8127 9.27467 85.442 9.648C86.0713 10.0213 86.5673 10.5493 86.93 11.232C87.2927 11.904 87.474 12.688 87.474 13.584C87.474 14.4693 87.2927 15.2587 86.93 15.952C86.5673 16.6453 86.066 17.184 85.426 17.568C84.7967 17.952 84.0927 18.144 83.314 18.144C82.5567 18.144 81.89 17.9787 81.314 17.648C80.7487 17.3173 80.322 16.896 80.034 16.384V18H78.578V6.16H80.034V10.864ZM85.986 13.584C85.986 12.9227 85.8527 12.3467 85.586 11.856C85.3193 11.3653 84.9567 10.992 84.498 10.736C84.05 10.48 83.554 10.352 83.01 10.352C82.4767 10.352 81.9807 10.4853 81.522 10.752C81.074 11.008 80.7113 11.3867 80.434 11.888C80.1673 12.3787 80.034 12.9493 80.034 13.6C80.034 14.2613 80.1673 14.8427 80.434 15.344C80.7113 15.8347 81.074 16.2133 81.522 16.48C81.9807 16.736 82.4767 16.864 83.01 16.864C83.554 16.864 84.05 16.736 84.498 16.48C84.9567 16.2133 85.3193 15.8347 85.586 15.344C85.8527 14.8427 85.986 14.256 85.986 13.584ZM100.888 15.52H96.0241L95.1281 18H93.5921L97.6241 6.912H99.3041L103.32 18H101.784L100.888 15.52ZM100.472 14.336L98.4561 8.704L96.4401 14.336H100.472ZM104.853 13.6C104.853 12.6933 105.035 11.904 105.397 11.232C105.76 10.5493 106.261 10.0213 106.901 9.648C107.552 9.27467 108.293 9.088 109.125 9.088C110.203 9.088 111.088 9.34933 111.781 9.872C112.485 10.3947 112.949 11.12 113.173 12.048H111.605C111.456 11.5147 111.163 11.0933 110.725 10.784C110.299 10.4747 109.765 10.32 109.125 10.32C108.293 10.32 107.621 10.608 107.109 11.184C106.597 11.7493 106.341 12.5547 106.341 13.6C106.341 14.656 106.597 15.472 107.109 16.048C107.621 16.624 108.293 16.912 109.125 16.912C109.765 16.912 110.299 16.7627 110.725 16.464C111.152 16.1653 111.445 15.7387 111.605 15.184H113.173C112.939 16.08 112.469 16.8 111.765 17.344C111.061 17.8773 110.181 18.144 109.125 18.144C108.293 18.144 107.552 17.9573 106.901 17.584C106.261 17.2107 105.76 16.6827 105.397 16C105.035 15.3173 104.853 14.5173 104.853 13.6ZM117.212 10.432V15.6C117.212 16.0267 117.303 16.3307 117.484 16.512C117.665 16.6827 117.98 16.768 118.428 16.768H119.5V18H118.188C117.377 18 116.769 17.8133 116.364 17.44C115.959 17.0667 115.756 16.4533 115.756 15.6V10.432H114.62V9.232H115.756V7.024H117.212V9.232H119.5V10.432H117.212ZM122.336 7.808C122.059 7.808 121.824 7.712 121.632 7.52C121.44 7.328 121.344 7.09333 121.344 6.816C121.344 6.53867 121.44 6.304 121.632 6.112C121.824 5.92 122.059 5.824 122.336 5.824C122.603 5.824 122.827 5.92 123.008 6.112C123.2 6.304 123.296 6.53867 123.296 6.816C123.296 7.09333 123.2 7.328 123.008 7.52C122.827 7.712 122.603 7.808 122.336 7.808ZM123.04 9.232V18H121.584V9.232H123.04ZM129.666 18.144C128.844 18.144 128.098 17.9573 127.426 17.584C126.764 17.2107 126.242 16.6827 125.858 16C125.484 15.3067 125.298 14.5067 125.298 13.6C125.298 12.704 125.49 11.9147 125.874 11.232C126.268 10.5387 126.802 10.0107 127.474 9.648C128.146 9.27467 128.898 9.088 129.73 9.088C130.562 9.088 131.314 9.27467 131.986 9.648C132.658 10.0107 133.186 10.5333 133.57 11.216C133.964 11.8987 134.162 12.6933 134.162 13.6C134.162 14.5067 133.959 15.3067 133.554 16C133.159 16.6827 132.62 17.2107 131.938 17.584C131.255 17.9573 130.498 18.144 129.666 18.144ZM129.666 16.864C130.188 16.864 130.679 16.7413 131.138 16.496C131.596 16.2507 131.964 15.8827 132.242 15.392C132.53 14.9013 132.674 14.304 132.674 13.6C132.674 12.896 132.535 12.2987 132.258 11.808C131.98 11.3173 131.618 10.9547 131.17 10.72C130.722 10.4747 130.236 10.352 129.714 10.352C129.18 10.352 128.69 10.4747 128.242 10.72C127.804 10.9547 127.452 11.3173 127.186 11.808C126.919 12.2987 126.786 12.896 126.786 13.6C126.786 14.3147 126.914 14.9173 127.17 15.408C127.436 15.8987 127.788 16.2667 128.226 16.512C128.663 16.7467 129.143 16.864 129.666 16.864ZM140.668 9.072C141.735 9.072 142.599 9.39733 143.26 10.048C143.921 10.688 144.252 11.616 144.252 12.832V18H142.812V13.04C142.812 12.1653 142.593 11.4987 142.156 11.04C141.719 10.5707 141.121 10.336 140.364 10.336C139.596 10.336 138.983 10.576 138.524 11.056C138.076 11.536 137.852 12.2347 137.852 13.152V18H136.396V9.232H137.852V10.48C138.14 10.032 138.529 9.68533 139.02 9.44C139.521 9.19467 140.071 9.072 140.668 9.072Z" fill="#F4F4F5"/>
<defs>
<linearGradient id="paint0_linear_3116_17225" x1="13.5824" y1="21.0229" x2="12.5253" y2="20.8204" gradientUnits="userSpaceOnUse">
<stop stop-color="#E0EBFF"/>
<stop offset="1" stop-color="#ECF2FF" stop-opacity="0.63"/>
</linearGradient>
<linearGradient id="paint1_linear_3116_17225" x1="11.6092" y1="21.0229" x2="10.5521" y2="20.8204" gradientUnits="userSpaceOnUse">
<stop stop-color="#E0EBFF"/>
<stop offset="1" stop-color="#ECF2FF" stop-opacity="0.63"/>
</linearGradient>
<linearGradient id="paint2_linear_3116_17225" x1="23.5448" y1="24.2286" x2="15.3793" y2="22.4439" gradientUnits="userSpaceOnUse">
<stop stop-color="#E0EBFF"/>
<stop offset="1" stop-color="#ECF2FF" stop-opacity="0.63"/>
</linearGradient>
<clipPath id="clip0_3116_17225">
<rect width="24" height="24" fill="white" transform="translate(0.728516)"/>
</clipPath>
</defs>
</svg>
