<svg width="96" height="25" viewBox="0 0 96 25" fill="none" xmlns="http://www.w3.org/2000/svg">
<path d="M5.25548 7.27052C5.13037 7.27052 5.09909 7.20797 5.16165 7.11414L5.81846 6.26966C5.88101 6.17583 6.0374 6.11328 6.1625 6.11328H17.3283C17.4534 6.11328 17.4847 6.20711 17.4221 6.30094L16.8904 7.11414C16.8279 7.20797 16.6715 7.3018 16.5777 7.3018L5.25548 7.27052Z" fill="white"/>
<path d="M0.532822 10.1475C0.407715 10.1475 0.376438 10.0849 0.438992 9.99109L1.0958 9.14662C1.15836 9.05279 1.31474 8.99023 1.43985 8.99023H15.702C15.8272 8.99023 15.8897 9.08406 15.8584 9.17789L15.6082 9.92854C15.5769 10.0536 15.4518 10.1162 15.3267 10.1162L0.532822 10.1475Z" fill="white"/>
<path d="M8.10118 13.0205C7.97607 13.0205 7.9448 12.9267 8.00735 12.8329L8.44523 12.0509C8.50778 11.9571 8.63289 11.8633 8.75799 11.8633H15.0133C15.1384 11.8633 15.201 11.9571 15.201 12.0822L15.1384 12.8329C15.1384 12.958 15.0133 13.0518 14.9195 13.0518L8.10118 13.0205Z" fill="white"/>
<path d="M40.5654 6.70396C38.595 7.20439 37.2501 7.57971 35.3109 8.08014C34.8417 8.20524 34.8105 8.23652 34.4039 7.76737C33.9347 7.23566 33.5907 6.89162 32.9339 6.57885C30.9634 5.60927 29.0555 5.89076 27.2728 7.048C25.146 8.42418 24.0513 10.4572 24.0825 12.9906C24.1138 15.4927 25.834 17.557 28.3049 17.901C30.4317 18.1825 32.2145 17.4319 33.622 15.8368C33.9034 15.4927 34.1537 15.1174 34.4664 14.6795C33.3405 14.6795 31.933 14.6795 28.43 14.6795C27.7732 14.6795 27.6168 14.2729 27.8358 13.7412C28.2424 12.7716 28.993 11.1453 29.4309 10.3321C29.5247 10.1444 29.7436 9.83163 30.2128 9.83163C31.8079 9.83163 37.6879 9.83163 41.5975 9.83163C41.535 10.6761 41.535 11.5206 41.4099 12.3651C41.0658 14.617 40.2213 16.6812 38.8452 18.4953C36.5932 21.4666 33.6532 23.3119 29.9313 23.8123C26.8662 24.2189 24.02 23.6247 21.5179 21.7481C19.2034 19.9966 17.8897 17.6821 17.5457 14.8046C17.1391 11.3955 18.14 8.33035 20.2042 5.64055C22.4249 2.73181 25.3649 0.886485 28.9617 0.229674C31.9017 -0.302031 34.7166 0.0420129 37.2501 1.76223C38.9077 2.85692 40.0962 4.3582 40.8782 6.17226C41.0658 6.45375 40.9407 6.61013 40.5654 6.70396Z" fill="white"/>
<path d="M50.9184 24.0014C48.0722 23.9388 45.4762 23.1257 43.2869 21.249C41.4415 19.6539 40.2843 17.6209 39.909 15.2126C39.346 11.6784 40.3156 8.55069 42.4424 5.76706C44.7256 2.76449 47.4779 1.20065 51.1999 0.543839C54.3901 -0.0191423 57.3927 0.293625 60.1138 2.13895C62.5846 3.8279 64.1172 6.1111 64.5238 9.11367C65.0555 13.336 63.8357 16.7765 60.927 19.7165C58.8627 21.812 56.3293 23.1257 53.4205 23.7199C52.5761 23.8763 51.7316 23.9076 50.9184 24.0014ZM58.3623 11.3656C58.331 10.959 58.331 10.6462 58.2684 10.3335C57.7054 7.23706 54.8593 5.48556 51.888 6.17365C48.9792 6.83046 47.1026 8.67579 46.4145 11.6158C45.8516 14.0554 47.0401 16.5263 49.292 17.5271C51.0122 18.2778 52.7324 18.1839 54.3901 17.3395C56.861 16.0571 58.2059 14.0554 58.3623 11.3656Z" fill="white"/>
<path d="M81.944 10.08C81.656 9.52533 81.256 9.10933 80.744 8.832C80.232 8.544 79.64 8.4 78.968 8.4C78.232 8.4 77.576 8.56533 77 8.896C76.424 9.22667 75.9706 9.696 75.64 10.304C75.32 10.912 75.16 11.616 75.16 12.416C75.16 13.216 75.32 13.9253 75.64 14.544C75.9706 15.152 76.424 15.6213 77 15.952C77.576 16.2827 78.232 16.448 78.968 16.448C79.96 16.448 80.7653 16.1707 81.384 15.616C82.0026 15.0613 82.3813 14.3093 82.52 13.36H78.344V11.904H84.472V13.328C84.3546 14.192 84.0453 14.9867 83.544 15.712C83.0533 16.4373 82.408 17.0187 81.608 17.456C80.8186 17.8827 79.9386 18.096 78.968 18.096C77.9226 18.096 76.968 17.856 76.104 17.376C75.24 16.8853 74.552 16.208 74.04 15.344C73.5386 14.48 73.288 13.504 73.288 12.416C73.288 11.328 73.5386 10.352 74.04 9.488C74.552 8.624 75.24 7.952 76.104 7.472C76.9786 6.98133 77.9333 6.736 78.968 6.736C80.152 6.736 81.2026 7.02933 82.12 7.616C83.048 8.192 83.72 9.01333 84.136 10.08H81.944ZM90.415 18.144C89.583 18.144 88.831 17.9573 88.159 17.584C87.487 17.2 86.959 16.6667 86.575 15.984C86.191 15.2907 85.999 14.4907 85.999 13.584C85.999 12.688 86.1963 11.8933 86.591 11.2C86.9856 10.5067 87.5243 9.97333 88.207 9.6C88.8896 9.22667 89.6523 9.04 90.495 9.04C91.3376 9.04 92.1003 9.22667 92.783 9.6C93.4656 9.97333 94.0043 10.5067 94.399 11.2C94.7936 11.8933 94.991 12.688 94.991 13.584C94.991 14.48 94.7883 15.2747 94.383 15.968C93.9776 16.6613 93.423 17.2 92.719 17.584C92.0256 17.9573 91.2576 18.144 90.415 18.144ZM90.415 16.56C90.8843 16.56 91.3216 16.448 91.727 16.224C92.143 16 92.479 15.664 92.735 15.216C92.991 14.768 93.119 14.224 93.119 13.584C93.119 12.944 92.9963 12.4053 92.751 11.968C92.5056 11.52 92.1803 11.184 91.775 10.96C91.3696 10.736 90.9323 10.624 90.463 10.624C89.9936 10.624 89.5563 10.736 89.151 10.96C88.7563 11.184 88.4416 11.52 88.207 11.968C87.9723 12.4053 87.855 12.944 87.855 13.584C87.855 14.5333 88.095 15.2693 88.575 15.792C89.0656 16.304 89.679 16.56 90.415 16.56Z" fill="#F4F4F5"/>
</svg>
