<svg width="150" height="24" viewBox="0 0 150 24" fill="none" xmlns="http://www.w3.org/2000/svg">
<path d="M19.5055 6.60911L20.167 6L22.667 3.5L23.1348 2.91612C21.6498 1.60534 19.8551 0.694788 17.9202 0.270476C15.9854 -0.153836 13.9743 -0.0778985 12.077 0.491115C10.1797 1.06013 8.45877 2.10343 7.07678 3.52247C5.69478 4.94151 4.69735 6.68944 4.17871 8.60114C4.46751 8.48277 6.66699 7.5 7.16699 7.5C7.16699 7.5 10.5368 7.25493 10.6733 7.28222C11.7842 6.06213 13.3195 5.31283 14.9648 5.1877C16.6101 5.06257 18.2411 5.57107 19.5237 6.60911H19.5055Z" fill="url(#paint0_linear_3116_16801)"/>
<path d="M26.7002 8.59975C26.1043 6.40546 24.8809 4.43281 23.18 2.92383L19.5416 6.56224C20.2999 7.18183 20.9076 7.96552 21.3188 8.8542C21.7301 9.74289 21.9341 10.7134 21.9157 11.6924V12.3382C22.3409 12.3382 22.762 12.422 23.1549 12.5847C23.5477 12.7474 23.9047 12.986 24.2054 13.2867C24.5061 13.5874 24.7446 13.9443 24.9073 14.3372C25.0701 14.7301 25.1538 15.1512 25.1538 15.5764C25.1538 16.0017 25.0701 16.4227 24.9073 16.8156C24.7446 17.2085 24.5061 17.5655 24.2054 17.8662C23.9047 18.1668 23.5477 18.4054 23.1549 18.5681C22.762 18.7308 22.3409 18.8146 21.9157 18.8146H15.4393L14.7935 19.4695V23.3535L15.4393 23.9993H21.9157C23.7242 24.0134 25.4892 23.445 26.9496 22.3782C28.41 21.3114 29.4883 19.8029 30.0249 18.0758C30.5615 16.3486 30.5279 14.4947 29.9292 12.7881C29.3304 11.0815 28.1982 9.613 26.7002 8.59975Z" fill="url(#paint1_linear_3116_16801)"/>
<path d="M8.95431 23.9641H15.4307V18.7794H8.95431C8.4929 18.7793 8.0369 18.68 7.61719 18.4883L7.16748 19L4.66748 21.5L3.86963 22.2722C5.33357 23.3777 7.1199 23.9721 8.95431 23.9641Z" fill="#70707B"/>
<path d="M8.95367 7.14458C7.19888 7.15507 5.49118 7.71336 4.06909 8.74149C2.647 9.76961 1.58153 11.2162 1.0215 12.8793C0.461475 14.5423 0.434852 16.3388 0.945353 18.0177C1.45585 19.6966 2.47799 21.1742 3.86898 22.244L7.62565 18.4873C7.14825 18.2717 6.73032 17.9434 6.40769 17.5307C6.08506 17.1179 5.86738 16.6331 5.77333 16.1178C5.67927 15.6024 5.71165 15.0719 5.86767 14.5719C6.0237 14.0718 6.29873 13.617 6.66915 13.2466C7.03957 12.8762 7.49433 12.6012 7.99441 12.4451C8.49449 12.2891 9.02496 12.2567 9.5403 12.3508C10.0556 12.4448 10.5405 12.6625 10.9532 12.9851C11.3659 13.3078 11.6942 13.7257 11.9099 14.2031L15.6665 10.4464C14.8781 9.41564 13.8618 8.58121 12.6973 8.00841C11.5327 7.43561 10.2515 7.13996 8.95367 7.14458Z" fill="url(#paint2_linear_3116_16801)"/>
<path d="M47.8298 10.08C47.5418 9.52533 47.1418 9.10933 46.6298 8.832C46.1178 8.544 45.5258 8.4 44.8538 8.4C44.1178 8.4 43.4618 8.56533 42.8858 8.896C42.3098 9.22667 41.8565 9.696 41.5258 10.304C41.2058 10.912 41.0458 11.616 41.0458 12.416C41.0458 13.216 41.2058 13.9253 41.5258 14.544C41.8565 15.152 42.3098 15.6213 42.8858 15.952C43.4618 16.2827 44.1178 16.448 44.8538 16.448C45.8458 16.448 46.6511 16.1707 47.2698 15.616C47.8885 15.0613 48.2671 14.3093 48.4058 13.36H44.2298V11.904H50.3578V13.328C50.2405 14.192 49.9311 14.9867 49.4298 15.712C48.9391 16.4373 48.2938 17.0187 47.4938 17.456C46.7045 17.8827 45.8245 18.096 44.8538 18.096C43.8085 18.096 42.8538 17.856 41.9898 17.376C41.1258 16.8853 40.4378 16.208 39.9258 15.344C39.4245 14.48 39.1738 13.504 39.1738 12.416C39.1738 11.328 39.4245 10.352 39.9258 9.488C40.4378 8.624 41.1258 7.952 41.9898 7.472C42.8645 6.98133 43.8191 6.736 44.8538 6.736C46.0378 6.736 47.0885 7.02933 48.0058 7.616C48.9338 8.192 49.6058 9.01333 50.0218 10.08H47.8298ZM56.3008 18.144C55.4688 18.144 54.7168 17.9573 54.0448 17.584C53.3728 17.2 52.8448 16.6667 52.4608 15.984C52.0768 15.2907 51.8848 14.4907 51.8848 13.584C51.8848 12.688 52.0821 11.8933 52.4768 11.2C52.8715 10.5067 53.4101 9.97333 54.0928 9.6C54.7755 9.22667 55.5381 9.04 56.3808 9.04C57.2235 9.04 57.9861 9.22667 58.6688 9.6C59.3515 9.97333 59.8901 10.5067 60.2848 11.2C60.6795 11.8933 60.8768 12.688 60.8768 13.584C60.8768 14.48 60.6741 15.2747 60.2688 15.968C59.8635 16.6613 59.3088 17.2 58.6048 17.584C57.9115 17.9573 57.1435 18.144 56.3008 18.144ZM56.3008 16.56C56.7701 16.56 57.2075 16.448 57.6128 16.224C58.0288 16 58.3648 15.664 58.6208 15.216C58.8768 14.768 59.0048 14.224 59.0048 13.584C59.0048 12.944 58.8821 12.4053 58.6368 11.968C58.3915 11.52 58.0661 11.184 57.6608 10.96C57.2555 10.736 56.8181 10.624 56.3488 10.624C55.8795 10.624 55.4421 10.736 55.0368 10.96C54.6421 11.184 54.3275 11.52 54.0928 11.968C53.8581 12.4053 53.7408 12.944 53.7408 13.584C53.7408 14.5333 53.9808 15.2693 54.4608 15.792C54.9515 16.304 55.5648 16.56 56.3008 16.56ZM66.8239 18.144C65.9919 18.144 65.2399 17.9573 64.5679 17.584C63.8959 17.2 63.3679 16.6667 62.9839 15.984C62.5999 15.2907 62.4079 14.4907 62.4079 13.584C62.4079 12.688 62.6053 11.8933 62.9999 11.2C63.3946 10.5067 63.9333 9.97333 64.6159 9.6C65.2986 9.22667 66.0613 9.04 66.9039 9.04C67.7466 9.04 68.5093 9.22667 69.1919 9.6C69.8746 9.97333 70.4133 10.5067 70.8079 11.2C71.2026 11.8933 71.3999 12.688 71.3999 13.584C71.3999 14.48 71.1973 15.2747 70.7919 15.968C70.3866 16.6613 69.8319 17.2 69.1279 17.584C68.4346 17.9573 67.6666 18.144 66.8239 18.144ZM66.8239 16.56C67.2933 16.56 67.7306 16.448 68.1359 16.224C68.5519 16 68.8879 15.664 69.1439 15.216C69.3999 14.768 69.5279 14.224 69.5279 13.584C69.5279 12.944 69.4053 12.4053 69.1599 11.968C68.9146 11.52 68.5893 11.184 68.1839 10.96C67.7786 10.736 67.3413 10.624 66.8719 10.624C66.4026 10.624 65.9653 10.736 65.5599 10.96C65.1653 11.184 64.8506 11.52 64.6159 11.968C64.3813 12.4053 64.2639 12.944 64.2639 13.584C64.2639 14.5333 64.5039 15.2693 64.9839 15.792C65.4746 16.304 66.0879 16.56 66.8239 16.56ZM77.075 9.04C77.7577 9.04 78.3604 9.17867 78.883 9.456C79.4164 9.72267 79.8324 10.0587 80.131 10.464V9.184H81.971V18.144C81.971 18.9547 81.8004 19.6747 81.459 20.304C81.1177 20.944 80.6217 21.4453 79.971 21.808C79.331 22.1707 78.563 22.352 77.667 22.352C76.4724 22.352 75.4804 22.0693 74.691 21.504C73.9017 20.9493 73.4537 20.192 73.347 19.232H75.155C75.2937 19.6907 75.587 20.0587 76.035 20.336C76.4937 20.624 77.0377 20.768 77.667 20.768C78.403 20.768 78.995 20.544 79.443 20.096C79.9017 19.648 80.131 18.9973 80.131 18.144V16.672C79.8217 17.088 79.4004 17.44 78.867 17.728C78.3444 18.0053 77.747 18.144 77.075 18.144C76.307 18.144 75.603 17.952 74.963 17.568C74.3337 17.1733 73.8324 16.6293 73.459 15.936C73.0964 15.232 72.915 14.4373 72.915 13.552C72.915 12.6667 73.0964 11.8827 73.459 11.2C73.8324 10.5173 74.3337 9.98933 74.963 9.616C75.603 9.232 76.307 9.04 77.075 9.04ZM80.131 13.584C80.131 12.976 80.003 12.448 79.747 12C79.5017 11.552 79.1764 11.2107 78.771 10.976C78.3657 10.7413 77.9284 10.624 77.459 10.624C76.9897 10.624 76.5524 10.7413 76.147 10.976C75.7417 11.2 75.411 11.536 75.155 11.984C74.9097 12.4213 74.787 12.944 74.787 13.552C74.787 14.16 74.9097 14.6933 75.155 15.152C75.411 15.6107 75.7417 15.9627 76.147 16.208C76.563 16.4427 77.0004 16.56 77.459 16.56C77.9284 16.56 78.3657 16.4427 78.771 16.208C79.1764 15.9733 79.5017 15.632 79.747 15.184C80.003 14.7253 80.131 14.192 80.131 13.584ZM86.5108 6.16V18H84.6868V6.16H86.5108ZM97.3055 13.376C97.3055 13.7067 97.2842 14.0053 97.2415 14.272H90.5055C90.5589 14.976 90.8202 15.5413 91.2895 15.968C91.7589 16.3947 92.3349 16.608 93.0175 16.608C93.9989 16.608 94.6922 16.1973 95.0975 15.376H97.0655C96.7989 16.1867 96.3135 16.8533 95.6095 17.376C94.9162 17.888 94.0522 18.144 93.0175 18.144C92.1749 18.144 91.4175 17.9573 90.7455 17.584C90.0842 17.2 89.5615 16.6667 89.1775 15.984C88.8042 15.2907 88.6175 14.4907 88.6175 13.584C88.6175 12.6773 88.7989 11.8827 89.1615 11.2C89.5349 10.5067 90.0522 9.97333 90.7135 9.6C91.3855 9.22667 92.1535 9.04 93.0175 9.04C93.8495 9.04 94.5909 9.22133 95.2415 9.584C95.8922 9.94667 96.3989 10.4587 96.7615 11.12C97.1242 11.7707 97.3055 12.5227 97.3055 13.376ZM95.4015 12.8C95.3909 12.128 95.1509 11.5893 94.6815 11.184C94.2122 10.7787 93.6309 10.576 92.9375 10.576C92.3082 10.576 91.7695 10.7787 91.3215 11.184C90.8735 11.5787 90.6069 12.1173 90.5215 12.8H95.4015ZM103.289 13.584C103.289 12.6773 103.47 11.8827 103.833 11.2C104.206 10.5067 104.718 9.97333 105.369 9.6C106.019 9.22667 106.766 9.04 107.609 9.04C108.675 9.04 109.555 9.296 110.249 9.808C110.953 10.3093 111.427 11.0293 111.673 11.968H109.705C109.545 11.5307 109.289 11.1893 108.937 10.944C108.585 10.6987 108.142 10.576 107.609 10.576C106.862 10.576 106.265 10.8427 105.817 11.376C105.379 11.8987 105.161 12.6347 105.161 13.584C105.161 14.5333 105.379 15.2747 105.817 15.808C106.265 16.3413 106.862 16.608 107.609 16.608C108.665 16.608 109.363 16.144 109.705 15.216H111.673C111.417 16.112 110.937 16.8267 110.233 17.36C109.529 17.8827 108.654 18.144 107.609 18.144C106.766 18.144 106.019 17.9573 105.369 17.584C104.718 17.2 104.206 16.6667 103.833 15.984C103.47 15.2907 103.289 14.4907 103.289 13.584ZM115.635 6.16V18H113.811V6.16H115.635ZM122.173 18.144C121.341 18.144 120.589 17.9573 119.917 17.584C119.245 17.2 118.717 16.6667 118.333 15.984C117.949 15.2907 117.757 14.4907 117.757 13.584C117.757 12.688 117.955 11.8933 118.349 11.2C118.744 10.5067 119.283 9.97333 119.965 9.6C120.648 9.22667 121.411 9.04 122.253 9.04C123.096 9.04 123.859 9.22667 124.541 9.6C125.224 9.97333 125.763 10.5067 126.157 11.2C126.552 11.8933 126.749 12.688 126.749 13.584C126.749 14.48 126.547 15.2747 126.141 15.968C125.736 16.6613 125.181 17.2 124.477 17.584C123.784 17.9573 123.016 18.144 122.173 18.144ZM122.173 16.56C122.643 16.56 123.08 16.448 123.485 16.224C123.901 16 124.237 15.664 124.493 15.216C124.749 14.768 124.877 14.224 124.877 13.584C124.877 12.944 124.755 12.4053 124.509 11.968C124.264 11.52 123.939 11.184 123.533 10.96C123.128 10.736 122.691 10.624 122.221 10.624C121.752 10.624 121.315 10.736 120.909 10.96C120.515 11.184 120.2 11.52 119.965 11.968C119.731 12.4053 119.613 12.944 119.613 13.584C119.613 14.5333 119.853 15.2693 120.333 15.792C120.824 16.304 121.437 16.56 122.173 16.56ZM136.856 9.184V18H135.032V16.96C134.744 17.3227 134.366 17.6107 133.896 17.824C133.438 18.0267 132.947 18.128 132.424 18.128C131.731 18.128 131.107 17.984 130.552 17.696C130.008 17.408 129.576 16.9813 129.256 16.416C128.947 15.8507 128.792 15.168 128.792 14.368V9.184H130.6V14.096C130.6 14.8853 130.798 15.4933 131.192 15.92C131.587 16.336 132.126 16.544 132.808 16.544C133.491 16.544 134.03 16.336 134.424 15.92C134.83 15.4933 135.032 14.8853 135.032 14.096V9.184H136.856ZM138.975 13.552C138.975 12.6667 139.156 11.8827 139.519 11.2C139.892 10.5173 140.394 9.98933 141.023 9.616C141.663 9.232 142.372 9.04 143.151 9.04C143.727 9.04 144.292 9.168 144.847 9.424C145.412 9.66933 145.86 10 146.191 10.416V6.16H148.031V18H146.191V16.672C145.892 17.0987 145.476 17.4507 144.943 17.728C144.42 18.0053 143.818 18.144 143.135 18.144C142.367 18.144 141.663 17.952 141.023 17.568C140.394 17.1733 139.892 16.6293 139.519 15.936C139.156 15.232 138.975 14.4373 138.975 13.552ZM146.191 13.584C146.191 12.976 146.063 12.448 145.807 12C145.562 11.552 145.236 11.2107 144.831 10.976C144.426 10.7413 143.988 10.624 143.519 10.624C143.05 10.624 142.612 10.7413 142.207 10.976C141.802 11.2 141.471 11.536 141.215 11.984C140.97 12.4213 140.847 12.944 140.847 13.552C140.847 14.16 140.97 14.6933 141.215 15.152C141.471 15.6107 141.802 15.9627 142.207 16.208C142.623 16.4427 143.06 16.56 143.519 16.56C143.988 16.56 144.426 16.4427 144.831 16.208C145.236 15.9733 145.562 15.632 145.807 15.184C146.063 14.7253 146.191 14.192 146.191 13.584Z" fill="#F4F4F5"/>
<defs>
<linearGradient id="paint0_linear_3116_16801" x1="6.26389" y1="4.30049" x2="21.0497" y2="4.30049" gradientUnits="userSpaceOnUse">
<stop stop-color="white" stop-opacity="0.5"/>
<stop offset="0.5" stop-color="white" stop-opacity="0.82"/>
<stop offset="1" stop-color="white" stop-opacity="0.64"/>
</linearGradient>
<linearGradient id="paint1_linear_3116_16801" x1="16.5106" y1="13.4615" x2="28.687" y2="13.4615" gradientUnits="userSpaceOnUse">
<stop stop-color="white" stop-opacity="0.5"/>
<stop offset="0.5" stop-color="white" stop-opacity="0.82"/>
<stop offset="1" stop-color="white" stop-opacity="0.64"/>
</linearGradient>
<linearGradient id="paint2_linear_3116_16801" x1="2.24046" y1="14.6941" x2="14.0072" y2="14.6941" gradientUnits="userSpaceOnUse">
<stop stop-color="white" stop-opacity="0.5"/>
<stop offset="0.5" stop-color="white" stop-opacity="0.82"/>
<stop offset="1" stop-color="white" stop-opacity="0.64"/>
</linearGradient>
</defs>
</svg>
