<svg width="161" height="24" viewBox="0 0 161 24" fill="none" xmlns="http://www.w3.org/2000/svg">
<g clip-path="url(#clip0_3116_17160)">
<path d="M5.53031 21.3189L0.73089 13.0058C0.546364 12.6861 0.449219 12.3236 0.449219 11.9545C0.449219 11.5855 0.546364 11.2229 0.73089 10.9033L5.53031 2.59036C5.71487 2.27071 5.98032 2.00527 6.29998 1.82073C6.61964 1.63618 6.98225 1.53904 7.35135 1.53906H16.9502C17.3193 1.53907 17.6818 1.63623 18.0015 1.82077C18.3211 2.00531 18.5865 2.27074 18.7711 2.59036L23.5705 10.9033C23.755 11.223 23.8522 11.5855 23.8522 11.9546C23.8522 12.3237 23.755 12.6863 23.5705 13.0059L18.7711 21.3189C18.5865 21.6385 18.3211 21.9039 18.0014 22.0884C17.6818 22.2729 17.3193 22.37 16.9502 22.37H7.35135C6.98224 22.3701 6.61963 22.2729 6.29996 22.0884C5.9803 21.9038 5.71485 21.6386 5.53031 21.3189Z" fill="white"/>
<path d="M16.0857 10.6558C16.6233 10.6558 17.0591 10.22 17.0591 9.6824C17.0591 9.1448 16.6233 8.70898 16.0857 8.70898C15.5481 8.70898 15.1123 9.1448 15.1123 9.6824C15.1123 10.22 15.5481 10.6558 16.0857 10.6558Z" fill="black"/>
<path d="M8.21658 10.6558C8.75418 10.6558 9.18999 10.22 9.18999 9.6824C9.18999 9.1448 8.75418 8.70898 8.21658 8.70898C7.67898 8.70898 7.24316 9.1448 7.24316 9.6824C7.24316 10.22 7.67898 10.6558 8.21658 10.6558Z" fill="black"/>
<path d="M12.1513 17.4726C12.689 17.4726 13.1249 17.0367 13.1249 16.499C13.1249 15.9613 12.689 15.5254 12.1513 15.5254C11.6136 15.5254 11.1777 15.9613 11.1777 16.499C11.1777 17.0367 11.6136 17.4726 12.1513 17.4726Z" fill="black"/>
<path d="M12.1514 13.5283C13.02 13.5283 13.7241 12.8242 13.7241 11.9556C13.7241 11.087 13.02 10.3828 12.1514 10.3828C11.2828 10.3828 10.5786 11.087 10.5786 11.9556C10.5786 12.8242 11.2828 13.5283 12.1514 13.5283Z" fill="black"/>
<path d="M8.21656 15.4614C8.89896 15.4614 9.45216 14.9082 9.45216 14.2258C9.45216 13.5434 8.89896 12.9902 8.21656 12.9902C7.53415 12.9902 6.98096 13.5434 6.98096 14.2258C6.98096 14.9082 7.53415 15.4614 8.21656 15.4614Z" fill="black"/>
<path d="M16.0857 15.4614C16.7681 15.4614 17.3213 14.9082 17.3213 14.2258C17.3213 13.5434 16.7681 12.9902 16.0857 12.9902C15.4033 12.9902 14.8501 13.5434 14.8501 14.2258C14.8501 14.9082 15.4033 15.4614 16.0857 15.4614Z" fill="black"/>
<path d="M12.1513 8.64735C12.8338 8.64735 13.3871 8.09407 13.3871 7.41156C13.3871 6.72906 12.8338 6.17578 12.1513 6.17578C11.4688 6.17578 10.9155 6.72906 10.9155 7.41156C10.9155 8.09407 11.4688 8.64735 12.1513 8.64735Z" fill="black"/>
</g>
<path d="M41.7211 10.08C41.4331 9.52533 41.0331 9.10933 40.5211 8.832C40.0091 8.544 39.4171 8.4 38.7451 8.4C38.0091 8.4 37.3531 8.56533 36.7771 8.896C36.2011 9.22667 35.7477 9.696 35.4171 10.304C35.0971 10.912 34.9371 11.616 34.9371 12.416C34.9371 13.216 35.0971 13.9253 35.4171 14.544C35.7477 15.152 36.2011 15.6213 36.7771 15.952C37.3531 16.2827 38.0091 16.448 38.7451 16.448C39.7371 16.448 40.5424 16.1707 41.1611 15.616C41.7797 15.0613 42.1584 14.3093 42.2971 13.36H38.1211V11.904H44.2491V13.328C44.1317 14.192 43.8224 14.9867 43.3211 15.712C42.8304 16.4373 42.1851 17.0187 41.3851 17.456C40.5957 17.8827 39.7157 18.096 38.7451 18.096C37.6997 18.096 36.7451 17.856 35.8811 17.376C35.0171 16.8853 34.3291 16.208 33.8171 15.344C33.3157 14.48 33.0651 13.504 33.0651 12.416C33.0651 11.328 33.3157 10.352 33.8171 9.488C34.3291 8.624 35.0171 7.952 35.8811 7.472C36.7557 6.98133 37.7104 6.736 38.7451 6.736C39.9291 6.736 40.9797 7.02933 41.8971 7.616C42.8251 8.192 43.4971 9.01333 43.9131 10.08H41.7211ZM50.1921 18.144C49.3601 18.144 48.6081 17.9573 47.9361 17.584C47.2641 17.2 46.7361 16.6667 46.3521 15.984C45.9681 15.2907 45.7761 14.4907 45.7761 13.584C45.7761 12.688 45.9734 11.8933 46.3681 11.2C46.7627 10.5067 47.3014 9.97333 47.9841 9.6C48.6667 9.22667 49.4294 9.04 50.2721 9.04C51.1147 9.04 51.8774 9.22667 52.5601 9.6C53.2427 9.97333 53.7814 10.5067 54.1761 11.2C54.5707 11.8933 54.7681 12.688 54.7681 13.584C54.7681 14.48 54.5654 15.2747 54.1601 15.968C53.7547 16.6613 53.2001 17.2 52.4961 17.584C51.8027 17.9573 51.0347 18.144 50.1921 18.144ZM50.1921 16.56C50.6614 16.56 51.0987 16.448 51.5041 16.224C51.9201 16 52.2561 15.664 52.5121 15.216C52.7681 14.768 52.8961 14.224 52.8961 13.584C52.8961 12.944 52.7734 12.4053 52.5281 11.968C52.2827 11.52 51.9574 11.184 51.5521 10.96C51.1467 10.736 50.7094 10.624 50.2401 10.624C49.7707 10.624 49.3334 10.736 48.9281 10.96C48.5334 11.184 48.2187 11.52 47.9841 11.968C47.7494 12.4053 47.6321 12.944 47.6321 13.584C47.6321 14.5333 47.8721 15.2693 48.3521 15.792C48.8427 16.304 49.4561 16.56 50.1921 16.56ZM60.7152 18.144C59.8832 18.144 59.1312 17.9573 58.4592 17.584C57.7872 17.2 57.2592 16.6667 56.8752 15.984C56.4912 15.2907 56.2992 14.4907 56.2992 13.584C56.2992 12.688 56.4965 11.8933 56.8912 11.2C57.2859 10.5067 57.8245 9.97333 58.5072 9.6C59.1899 9.22667 59.9525 9.04 60.7952 9.04C61.6379 9.04 62.4005 9.22667 63.0832 9.6C63.7659 9.97333 64.3045 10.5067 64.6992 11.2C65.0939 11.8933 65.2912 12.688 65.2912 13.584C65.2912 14.48 65.0885 15.2747 64.6832 15.968C64.2779 16.6613 63.7232 17.2 63.0192 17.584C62.3259 17.9573 61.5579 18.144 60.7152 18.144ZM60.7152 16.56C61.1845 16.56 61.6219 16.448 62.0272 16.224C62.4432 16 62.7792 15.664 63.0352 15.216C63.2912 14.768 63.4192 14.224 63.4192 13.584C63.4192 12.944 63.2965 12.4053 63.0512 11.968C62.8059 11.52 62.4805 11.184 62.0752 10.96C61.6699 10.736 61.2325 10.624 60.7632 10.624C60.2939 10.624 59.8565 10.736 59.4512 10.96C59.0565 11.184 58.7419 11.52 58.5072 11.968C58.2725 12.4053 58.1552 12.944 58.1552 13.584C58.1552 14.5333 58.3952 15.2693 58.8752 15.792C59.3659 16.304 59.9792 16.56 60.7152 16.56ZM70.9663 9.04C71.649 9.04 72.2517 9.17867 72.7743 9.456C73.3077 9.72267 73.7237 10.0587 74.0223 10.464V9.184H75.8623V18.144C75.8623 18.9547 75.6917 19.6747 75.3503 20.304C75.009 20.944 74.513 21.4453 73.8623 21.808C73.2223 22.1707 72.4543 22.352 71.5583 22.352C70.3637 22.352 69.3717 22.0693 68.5823 21.504C67.793 20.9493 67.345 20.192 67.2383 19.232H69.0463C69.185 19.6907 69.4783 20.0587 69.9263 20.336C70.385 20.624 70.929 20.768 71.5583 20.768C72.2943 20.768 72.8863 20.544 73.3343 20.096C73.793 19.648 74.0223 18.9973 74.0223 18.144V16.672C73.713 17.088 73.2917 17.44 72.7583 17.728C72.2357 18.0053 71.6383 18.144 70.9663 18.144C70.1983 18.144 69.4943 17.952 68.8543 17.568C68.225 17.1733 67.7237 16.6293 67.3503 15.936C66.9877 15.232 66.8063 14.4373 66.8063 13.552C66.8063 12.6667 66.9877 11.8827 67.3503 11.2C67.7237 10.5173 68.225 9.98933 68.8543 9.616C69.4943 9.232 70.1983 9.04 70.9663 9.04ZM74.0223 13.584C74.0223 12.976 73.8943 12.448 73.6383 12C73.393 11.552 73.0677 11.2107 72.6623 10.976C72.257 10.7413 71.8197 10.624 71.3503 10.624C70.881 10.624 70.4437 10.7413 70.0383 10.976C69.633 11.2 69.3023 11.536 69.0463 11.984C68.801 12.4213 68.6783 12.944 68.6783 13.552C68.6783 14.16 68.801 14.6933 69.0463 15.152C69.3023 15.6107 69.633 15.9627 70.0383 16.208C70.4543 16.4427 70.8917 16.56 71.3503 16.56C71.8197 16.56 72.257 16.4427 72.6623 16.208C73.0677 15.9733 73.393 15.632 73.6383 15.184C73.8943 14.7253 74.0223 14.192 74.0223 13.584ZM80.4021 6.16V18H78.5781V6.16H80.4021ZM91.1968 13.376C91.1968 13.7067 91.1755 14.0053 91.1328 14.272H84.3968C84.4502 14.976 84.7115 15.5413 85.1808 15.968C85.6502 16.3947 86.2262 16.608 86.9088 16.608C87.8902 16.608 88.5835 16.1973 88.9888 15.376H90.9568C90.6902 16.1867 90.2048 16.8533 89.5008 17.376C88.8075 17.888 87.9435 18.144 86.9088 18.144C86.0662 18.144 85.3088 17.9573 84.6368 17.584C83.9755 17.2 83.4528 16.6667 83.0688 15.984C82.6955 15.2907 82.5088 14.4907 82.5088 13.584C82.5088 12.6773 82.6902 11.8827 83.0528 11.2C83.4262 10.5067 83.9435 9.97333 84.6048 9.6C85.2768 9.22667 86.0448 9.04 86.9088 9.04C87.7408 9.04 88.4822 9.22133 89.1328 9.584C89.7835 9.94667 90.2902 10.4587 90.6528 11.12C91.0155 11.7707 91.1968 12.5227 91.1968 13.376ZM89.2928 12.8C89.2822 12.128 89.0422 11.5893 88.5728 11.184C88.1035 10.7787 87.5222 10.576 86.8288 10.576C86.1995 10.576 85.6608 10.7787 85.2128 11.184C84.7648 11.5787 84.4982 12.1173 84.4128 12.8H89.2928ZM105.564 10.192C105.564 10.7573 105.431 11.2907 105.164 11.792C104.897 12.2933 104.471 12.704 103.884 13.024C103.297 13.3333 102.545 13.488 101.628 13.488H99.6121V18H97.7881V6.88H101.628C102.481 6.88 103.201 7.02933 103.788 7.328C104.385 7.616 104.828 8.01067 105.116 8.512C105.415 9.01333 105.564 9.57333 105.564 10.192ZM101.628 12C102.321 12 102.839 11.8453 103.18 11.536C103.521 11.216 103.692 10.768 103.692 10.192C103.692 8.976 103.004 8.368 101.628 8.368H99.6121V12H101.628ZM115.608 9.184V18H113.784V16.96C113.496 17.3227 113.117 17.6107 112.648 17.824C112.189 18.0267 111.698 18.128 111.176 18.128C110.482 18.128 109.858 17.984 109.304 17.696C108.76 17.408 108.328 16.9813 108.008 16.416C107.698 15.8507 107.544 15.168 107.544 14.368V9.184H109.352V14.096C109.352 14.8853 109.549 15.4933 109.944 15.92C110.338 16.336 110.877 16.544 111.56 16.544C112.242 16.544 112.781 16.336 113.176 15.92C113.581 15.4933 113.784 14.8853 113.784 14.096V9.184H115.608ZM120.158 10.496C120.468 10.0693 120.889 9.72267 121.422 9.456C121.966 9.17867 122.569 9.04 123.23 9.04C124.009 9.04 124.713 9.22667 125.342 9.6C125.972 9.97333 126.468 10.5067 126.83 11.2C127.193 11.8827 127.374 12.6667 127.374 13.552C127.374 14.4373 127.193 15.232 126.83 15.936C126.468 16.6293 125.966 17.1733 125.326 17.568C124.697 17.952 123.998 18.144 123.23 18.144C122.548 18.144 121.94 18.0107 121.406 17.744C120.884 17.4773 120.468 17.136 120.158 16.72V18H118.334V6.16H120.158V10.496ZM125.518 13.552C125.518 12.944 125.39 12.4213 125.134 11.984C124.889 11.536 124.558 11.2 124.142 10.976C123.737 10.7413 123.3 10.624 122.83 10.624C122.372 10.624 121.934 10.7413 121.518 10.976C121.113 11.2107 120.782 11.552 120.526 12C120.281 12.448 120.158 12.976 120.158 13.584C120.158 14.192 120.281 14.7253 120.526 15.184C120.782 15.632 121.113 15.9733 121.518 16.208C121.934 16.4427 122.372 16.56 122.83 16.56C123.3 16.56 123.737 16.4427 124.142 16.208C124.558 15.9627 124.889 15.6107 125.134 15.152C125.39 14.6933 125.518 14.16 125.518 13.552ZM133.162 18.112C132.415 18.112 131.743 17.984 131.146 17.728C130.549 17.4613 130.079 17.088 129.738 16.608C129.397 16.128 129.226 15.568 129.226 14.928H131.178C131.221 15.408 131.407 15.8027 131.738 16.112C132.079 16.4213 132.554 16.576 133.162 16.576C133.791 16.576 134.282 16.4267 134.634 16.128C134.986 15.8187 135.162 15.424 135.162 14.944C135.162 14.5707 135.05 14.2667 134.826 14.032C134.613 13.7973 134.341 13.616 134.01 13.488C133.69 13.36 133.242 13.2213 132.666 13.072C131.941 12.88 131.349 12.688 130.89 12.496C130.442 12.2933 130.058 11.984 129.738 11.568C129.418 11.152 129.258 10.5973 129.258 9.904C129.258 9.264 129.418 8.704 129.738 8.224C130.058 7.744 130.506 7.376 131.082 7.12C131.658 6.864 132.325 6.736 133.082 6.736C134.159 6.736 135.039 7.008 135.722 7.552C136.415 8.08533 136.799 8.82133 136.874 9.76H134.858C134.826 9.35467 134.634 9.008 134.282 8.72C133.93 8.432 133.466 8.288 132.89 8.288C132.367 8.288 131.941 8.42133 131.61 8.688C131.279 8.95467 131.114 9.33867 131.114 9.84C131.114 10.1813 131.215 10.464 131.418 10.688C131.631 10.9013 131.898 11.072 132.218 11.2C132.538 11.328 132.975 11.4667 133.53 11.616C134.266 11.8187 134.863 12.0213 135.322 12.224C135.791 12.4267 136.186 12.7413 136.506 13.168C136.837 13.584 137.002 14.144 137.002 14.848C137.002 15.4133 136.847 15.9467 136.538 16.448C136.239 16.9493 135.797 17.3547 135.21 17.664C134.634 17.9627 133.951 18.112 133.162 18.112ZM147.458 9.184V18H145.634V16.96C145.346 17.3227 144.968 17.6107 144.498 17.824C144.04 18.0267 143.549 18.128 143.026 18.128C142.333 18.128 141.709 17.984 141.154 17.696C140.61 17.408 140.178 16.9813 139.858 16.416C139.549 15.8507 139.394 15.168 139.394 14.368V9.184H141.202V14.096C141.202 14.8853 141.4 15.4933 141.794 15.92C142.189 16.336 142.728 16.544 143.41 16.544C144.093 16.544 144.632 16.336 145.026 15.92C145.432 15.4933 145.634 14.8853 145.634 14.096V9.184H147.458ZM152.009 10.496C152.318 10.0693 152.74 9.72267 153.273 9.456C153.817 9.17867 154.42 9.04 155.081 9.04C155.86 9.04 156.564 9.22667 157.193 9.6C157.822 9.97333 158.318 10.5067 158.681 11.2C159.044 11.8827 159.225 12.6667 159.225 13.552C159.225 14.4373 159.044 15.232 158.681 15.936C158.318 16.6293 157.817 17.1733 157.177 17.568C156.548 17.952 155.849 18.144 155.081 18.144C154.398 18.144 153.79 18.0107 153.257 17.744C152.734 17.4773 152.318 17.136 152.009 16.72V18H150.185V6.16H152.009V10.496ZM157.369 13.552C157.369 12.944 157.241 12.4213 156.985 11.984C156.74 11.536 156.409 11.2 155.993 10.976C155.588 10.7413 155.15 10.624 154.681 10.624C154.222 10.624 153.785 10.7413 153.369 10.976C152.964 11.2107 152.633 11.552 152.377 12C152.132 12.448 152.009 12.976 152.009 13.584C152.009 14.192 152.132 14.7253 152.377 15.184C152.633 15.632 152.964 15.9733 153.369 16.208C153.785 16.4427 154.222 16.56 154.681 16.56C155.15 16.56 155.588 16.4427 155.993 16.208C156.409 15.9627 156.74 15.6107 156.985 15.152C157.241 14.6933 157.369 14.16 157.369 13.552Z" fill="#F4F4F5"/>
<defs>
<clipPath id="clip0_3116_17160">
<rect width="24" height="24" fill="white" transform="translate(0.150879)"/>
</clipPath>
</defs>
</svg>
