<svg width="122" height="24" viewBox="0 0 122 24" fill="none" xmlns="http://www.w3.org/2000/svg">
<g clip-path="url(#clip0_3116_15629)">
<path d="M24.3833 0H0.383301V24H24.3833V0Z" fill="white"/>
<path d="M16.5053 18.7497C16.9887 19.539 17.6177 20.1192 18.7301 20.1192C19.6645 20.1192 20.2615 19.6521 20.2615 19.0068C20.2615 18.2335 19.6482 17.9596 18.6196 17.5097L18.0558 17.2678C16.4284 16.5744 15.3472 15.7059 15.3472 13.8697C15.3472 12.1782 16.636 10.8906 18.6501 10.8906C20.084 10.8906 21.1148 11.3897 21.8577 12.6963L20.1015 13.824C19.7148 13.1306 19.2977 12.8575 18.6501 12.8575C17.9895 12.8575 17.5708 13.2765 17.5708 13.824C17.5708 14.5005 17.9899 14.7744 18.9575 15.1935L19.5213 15.435C21.4375 16.2567 22.5194 17.0944 22.5194 18.9779C22.5194 21.0083 20.9244 22.1207 18.7823 22.1207C16.6878 22.1207 15.3346 21.1226 14.6725 19.8144L16.5053 18.7497ZM8.53845 18.9451C8.89273 19.5737 9.21502 20.1051 9.98987 20.1051C10.7308 20.1051 11.1983 19.8152 11.1983 18.688V11.0194H13.4535V18.7184C13.4535 21.0537 12.0844 22.1165 10.0859 22.1165C8.28016 22.1165 7.23445 21.1821 6.70264 20.0565L8.53845 18.9451Z" fill="black"/>
</g>
<path d="M40.0901 6.88V14.896C40.0901 15.888 39.7861 16.672 39.1781 17.248C38.5808 17.824 37.7914 18.112 36.8101 18.112C35.8288 18.112 35.0341 17.824 34.4261 17.248C33.8288 16.672 33.5301 15.888 33.5301 14.896H35.3701C35.3808 15.3867 35.5034 15.776 35.7381 16.064C35.9834 16.352 36.3408 16.496 36.8101 16.496C37.2794 16.496 37.6368 16.352 37.8821 16.064C38.1274 15.7653 38.2501 15.376 38.2501 14.896V6.88H40.0901ZM42.7694 13.552C42.7694 12.6667 42.9507 11.8827 43.3134 11.2C43.6867 10.5173 44.188 9.98933 44.8174 9.616C45.4574 9.232 46.1614 9.04 46.9294 9.04C47.6227 9.04 48.2254 9.17867 48.7374 9.456C49.26 9.72267 49.676 10.0587 49.9854 10.464V9.184H51.8254V18H49.9854V16.688C49.676 17.104 49.2547 17.4507 48.7214 17.728C48.188 18.0053 47.58 18.144 46.8974 18.144C46.14 18.144 45.4467 17.952 44.8174 17.568C44.188 17.1733 43.6867 16.6293 43.3134 15.936C42.9507 15.232 42.7694 14.4373 42.7694 13.552ZM49.9854 13.584C49.9854 12.976 49.8574 12.448 49.6014 12C49.356 11.552 49.0307 11.2107 48.6254 10.976C48.22 10.7413 47.7827 10.624 47.3134 10.624C46.844 10.624 46.4067 10.7413 46.0014 10.976C45.596 11.2 45.2654 11.536 45.0094 11.984C44.764 12.4213 44.6414 12.944 44.6414 13.552C44.6414 14.16 44.764 14.6933 45.0094 15.152C45.2654 15.6107 45.596 15.9627 46.0014 16.208C46.4174 16.4427 46.8547 16.56 47.3134 16.56C47.7827 16.56 48.22 16.4427 48.6254 16.208C49.0307 15.9733 49.356 15.632 49.6014 15.184C49.8574 14.7253 49.9854 14.192 49.9854 13.584ZM57.9491 16.368L60.4451 9.184H62.3811L59.0211 18H56.8451L53.5011 9.184H55.4531L57.9491 16.368ZM63.4719 13.552C63.4719 12.6667 63.6532 11.8827 64.0159 11.2C64.3892 10.5173 64.8905 9.98933 65.5199 9.616C66.1599 9.232 66.8639 9.04 67.6319 9.04C68.3252 9.04 68.9279 9.17867 69.4399 9.456C69.9625 9.72267 70.3785 10.0587 70.6879 10.464V9.184H72.5279V18H70.6879V16.688C70.3785 17.104 69.9572 17.4507 69.4239 17.728C68.8905 18.0053 68.2825 18.144 67.5999 18.144C66.8425 18.144 66.1492 17.952 65.5199 17.568C64.8905 17.1733 64.3892 16.6293 64.0159 15.936C63.6532 15.232 63.4719 14.4373 63.4719 13.552ZM70.6879 13.584C70.6879 12.976 70.5599 12.448 70.3039 12C70.0585 11.552 69.7332 11.2107 69.3279 10.976C68.9225 10.7413 68.4852 10.624 68.0159 10.624C67.5465 10.624 67.1092 10.7413 66.7039 10.976C66.2985 11.2 65.9679 11.536 65.7119 11.984C65.4665 12.4213 65.3439 12.944 65.3439 13.552C65.3439 14.16 65.4665 14.6933 65.7119 15.152C65.9679 15.6107 66.2985 15.9627 66.7039 16.208C67.1199 16.4427 67.5572 16.56 68.0159 16.56C68.4852 16.56 68.9225 16.4427 69.3279 16.208C69.7332 15.9733 70.0585 15.632 70.3039 15.184C70.5599 14.7253 70.6879 14.192 70.6879 13.584ZM78.4436 18.144C77.7503 18.144 77.1263 18.0213 76.5716 17.776C76.0276 17.52 75.5956 17.1787 75.2756 16.752C74.9556 16.3147 74.7849 15.8293 74.7636 15.296H76.6516C76.6836 15.6693 76.8596 15.984 77.1796 16.24C77.5103 16.4853 77.9209 16.608 78.4116 16.608C78.9236 16.608 79.3183 16.512 79.5956 16.32C79.8836 16.1173 80.0276 15.8613 80.0276 15.552C80.0276 15.2213 79.8676 14.976 79.5476 14.816C79.2383 14.656 78.7423 14.48 78.0596 14.288C77.3983 14.1067 76.8596 13.9307 76.4436 13.76C76.0276 13.5893 75.6649 13.328 75.3556 12.976C75.0569 12.624 74.9076 12.16 74.9076 11.584C74.9076 11.1147 75.0463 10.688 75.3236 10.304C75.6009 9.90933 75.9956 9.6 76.5076 9.376C77.0303 9.152 77.6276 9.04 78.2996 9.04C79.3023 9.04 80.1076 9.296 80.7156 9.808C81.3343 10.3093 81.6649 10.9973 81.7076 11.872H79.8836C79.8516 11.4773 79.6916 11.1627 79.4036 10.928C79.1156 10.6933 78.7263 10.576 78.2356 10.576C77.7556 10.576 77.3876 10.6667 77.1316 10.848C76.8756 11.0293 76.7476 11.2693 76.7476 11.568C76.7476 11.8027 76.8329 12 77.0036 12.16C77.1743 12.32 77.3823 12.448 77.6276 12.544C77.8729 12.6293 78.2356 12.7413 78.7156 12.88C79.3556 13.0507 79.8783 13.2267 80.2836 13.408C80.6996 13.5787 81.0569 13.8347 81.3556 14.176C81.6543 14.5173 81.8089 14.9707 81.8196 15.536C81.8196 16.0373 81.6809 16.4853 81.4036 16.88C81.1263 17.2747 80.7316 17.584 80.2196 17.808C79.7183 18.032 79.1263 18.144 78.4436 18.144ZM83.5025 13.584C83.5025 12.6773 83.6838 11.8827 84.0465 11.2C84.4198 10.5067 84.9318 9.97333 85.5825 9.6C86.2332 9.22667 86.9798 9.04 87.8225 9.04C88.8892 9.04 89.7692 9.296 90.4625 9.808C91.1665 10.3093 91.6412 11.0293 91.8865 11.968H89.9185C89.7585 11.5307 89.5025 11.1893 89.1505 10.944C88.7985 10.6987 88.3558 10.576 87.8225 10.576C87.0758 10.576 86.4785 10.8427 86.0305 11.376C85.5932 11.8987 85.3745 12.6347 85.3745 13.584C85.3745 14.5333 85.5932 15.2747 86.0305 15.808C86.4785 16.3413 87.0758 16.608 87.8225 16.608C88.8785 16.608 89.5772 16.144 89.9185 15.216H91.8865C91.6305 16.112 91.1505 16.8267 90.4465 17.36C89.7425 17.8827 88.8678 18.144 87.8225 18.144C86.9798 18.144 86.2332 17.9573 85.5825 17.584C84.9318 17.2 84.4198 16.6667 84.0465 15.984C83.6838 15.2907 83.5025 14.4907 83.5025 13.584ZM95.8482 10.464C96.1149 10.016 96.4669 9.66933 96.9042 9.424C97.3522 9.168 97.8802 9.04 98.4882 9.04V10.928H98.0242C97.3096 10.928 96.7656 11.1093 96.3922 11.472C96.0296 11.8347 95.8482 12.464 95.8482 13.36V18H94.0242V9.184H95.8482V10.464ZM101.413 8.016C101.082 8.016 100.805 7.904 100.581 7.68C100.357 7.456 100.245 7.17867 100.245 6.848C100.245 6.51733 100.357 6.24 100.581 6.016C100.805 5.792 101.082 5.68 101.413 5.68C101.733 5.68 102.005 5.792 102.229 6.016C102.453 6.24 102.565 6.51733 102.565 6.848C102.565 7.17867 102.453 7.456 102.229 7.68C102.005 7.904 101.733 8.016 101.413 8.016ZM102.309 9.184V18H100.485V9.184H102.309ZM106.848 10.48C107.157 10.0747 107.578 9.73333 108.112 9.456C108.645 9.17867 109.248 9.04 109.92 9.04C110.688 9.04 111.386 9.232 112.016 9.616C112.656 9.98933 113.157 10.5173 113.52 11.2C113.882 11.8827 114.064 12.6667 114.064 13.552C114.064 14.4373 113.882 15.232 113.52 15.936C113.157 16.6293 112.656 17.1733 112.016 17.568C111.386 17.952 110.688 18.144 109.92 18.144C109.248 18.144 108.65 18.0107 108.128 17.744C107.605 17.4667 107.178 17.1253 106.848 16.72V22.192H105.024V9.184H106.848V10.48ZM112.208 13.552C112.208 12.944 112.08 12.4213 111.824 11.984C111.578 11.536 111.248 11.2 110.832 10.976C110.426 10.7413 109.989 10.624 109.52 10.624C109.061 10.624 108.624 10.7413 108.208 10.976C107.802 11.2107 107.472 11.552 107.216 12C106.97 12.448 106.848 12.976 106.848 13.584C106.848 14.192 106.97 14.7253 107.216 15.184C107.472 15.632 107.802 15.9733 108.208 16.208C108.624 16.4427 109.061 16.56 109.52 16.56C109.989 16.56 110.426 16.4427 110.832 16.208C111.248 15.9627 111.578 15.6107 111.824 15.152C112.08 14.6933 112.208 14.16 112.208 13.552ZM118.315 10.672V15.552C118.315 15.8827 118.39 16.1227 118.539 16.272C118.699 16.4107 118.966 16.48 119.339 16.48H120.459V18H119.019C118.198 18 117.569 17.808 117.131 17.424C116.694 17.04 116.475 16.416 116.475 15.552V10.672H115.435V9.184H116.475V6.992H118.315V9.184H120.459V10.672H118.315Z" fill="#F4F4F5"/>
<defs>
<clipPath id="clip0_3116_15629">
<rect width="24" height="24" fill="white" transform="translate(0.383301)"/>
</clipPath>
</defs>
</svg>
