<svg width="73" height="24" viewBox="0 0 73 24" fill="none" xmlns="http://www.w3.org/2000/svg">
<g clip-path="url(#clip0_3116_15604)">
<path d="M11.8811 4.44702C10.7721 5.22697 9.51524 6.11099 8.84178 7.57355C7.67206 10.1252 11.2353 12.9085 11.3876 13.0257C11.423 13.053 11.4654 13.0666 11.5076 13.0666C11.5525 13.0666 11.5974 13.0512 11.6339 13.0207C11.7046 12.9615 11.7247 12.861 11.6822 12.7792C11.6693 12.7543 10.3903 10.2699 10.4378 8.48766C10.4546 7.86689 11.3234 7.16268 12.243 6.41713C13.0854 5.73426 14.0402 4.9603 14.5989 4.05491C15.8253 2.06196 14.4622 0.102298 14.4483 0.0827046C14.3941 0.00667304 14.2942 -0.0208427 14.2088 0.0166106C14.1234 0.0542982 14.0761 0.146595 14.0956 0.237861C14.0984 0.250846 14.3634 1.54676 13.6258 2.8819C13.322 3.43362 12.6543 3.90322 11.8811 4.44702Z" fill="white"/>
<path d="M16.5534 5.32653C16.6317 5.26761 16.6546 5.16012 16.6073 5.07434C16.5599 4.98856 16.4568 4.95073 16.3652 4.98551C16.1768 5.05714 11.752 6.76279 11.752 8.82365C11.752 10.2443 12.3588 10.9948 12.8019 11.5428C12.9757 11.7578 13.1258 11.9434 13.1752 12.1019C13.3144 12.5586 12.9846 13.3841 12.8459 13.6637C12.8059 13.744 12.8255 13.8414 12.8936 13.9001C12.9303 13.9318 12.9762 13.948 13.0221 13.948C13.0612 13.948 13.1005 13.9363 13.1344 13.9127C13.2105 13.8598 14.9938 12.599 14.674 11.0799C14.5549 10.5025 14.2711 10.0806 14.0208 9.70833C13.6329 9.13153 13.3528 8.7149 13.7778 7.9454C14.2757 7.04783 16.5306 5.34359 16.5534 5.32653Z" fill="white"/>
<path d="M5.03587 13.9798C4.96002 14.2069 4.99583 14.4322 5.13932 14.6315C5.61899 15.2974 7.31808 15.6641 9.92378 15.6641C9.92392 15.6641 9.92401 15.6641 9.9241 15.6641C10.2772 15.6641 10.6499 15.6572 11.0317 15.6435C15.1977 15.4944 16.7429 14.1965 16.8067 14.1413C16.8762 14.0812 16.8947 13.9811 16.8516 13.9C16.8083 13.8191 16.7152 13.7784 16.6262 13.8029C15.1589 14.2035 12.4192 14.3457 10.5189 14.3457C8.3925 14.3457 7.30959 14.1926 7.04447 14.0794C7.1805 13.8926 8.01957 13.5591 9.0593 13.3546C9.15868 13.3351 9.22698 13.2433 9.21713 13.1425C9.20729 13.0417 9.12263 12.9648 9.02133 12.9648C8.41186 12.9648 5.35537 13.0138 5.03587 13.9798Z" fill="url(#paint0_linear_3116_15604)"/>
<path d="M18.9759 12.6426C18.1167 12.6426 17.3018 13.0733 17.2675 13.0915C17.1881 13.1341 17.1478 13.2252 17.1695 13.3128C17.1914 13.4002 17.27 13.4616 17.3602 13.4617C17.3784 13.4617 19.1931 13.4766 19.3574 14.5134C19.503 15.4079 17.6405 16.8572 16.9105 17.3402C16.8316 17.3923 16.801 17.4931 16.8376 17.5803C16.8688 17.6545 16.941 17.7009 17.0189 17.7009C17.0325 17.7009 17.0463 17.6995 17.06 17.6966C17.2333 17.6595 21.2978 16.7638 20.868 14.3974C20.6059 12.947 19.6943 12.6426 18.9759 12.6426Z" fill="url(#paint1_linear_3116_15604)"/>
<path d="M16.1882 17.0504C16.2024 16.9746 16.1708 16.8975 16.1077 16.8532L15.1331 16.1705C15.0856 16.1372 15.0256 16.1268 14.9698 16.1416C14.9596 16.1441 13.9404 16.4121 12.4608 16.5764C11.8735 16.6422 11.2158 16.677 10.5585 16.677C9.0792 16.677 8.11198 16.5032 7.97112 16.3757C7.95246 16.3399 7.95837 16.3236 7.9617 16.3146C7.98729 16.2434 8.12445 16.1589 8.21285 16.1254C8.3105 16.0892 8.36314 15.9832 8.33276 15.8836C8.30248 15.7839 8.19978 15.7253 8.09843 15.7496C7.1208 15.9856 6.64277 16.3155 6.67755 16.7302C6.73933 17.4655 8.4424 17.8428 9.88217 17.9426C10.0892 17.9567 10.3131 17.9639 10.5476 17.9639C10.5477 17.9639 10.5478 17.9639 10.5479 17.9639C12.942 17.9639 16.0112 17.2127 16.0419 17.2051C16.1169 17.1868 16.174 17.1263 16.1882 17.0504Z" fill="url(#paint2_linear_3116_15604)"/>
<path d="M8.84073 18.629C8.91456 18.581 8.94728 18.4897 8.92107 18.4057C8.89496 18.3216 8.81635 18.2664 8.72804 18.2676C8.59702 18.2711 7.44605 18.323 7.36547 19.0558C7.3411 19.2748 7.40382 19.4749 7.55199 19.6505C7.96524 20.1402 9.08078 20.4313 10.9617 20.5403C11.1843 20.5537 11.4103 20.5604 11.6336 20.5604C14.025 20.5604 15.6355 19.8117 15.703 19.7798C15.7684 19.7489 15.8115 19.6846 15.8153 19.6124C15.8192 19.5402 15.7831 19.4717 15.7214 19.434L14.4898 18.6821C14.447 18.6561 14.3959 18.6474 14.3472 18.6574C14.3394 18.6591 13.5574 18.8212 12.3772 18.9815C12.1539 19.0118 11.8742 19.0273 11.5461 19.0273C10.3672 19.0273 9.05588 18.8346 8.8044 18.7085C8.80074 18.685 8.80538 18.6551 8.84073 18.629Z" fill="url(#paint3_linear_3116_15604)"/>
<path d="M10.5193 22.8199C15.9969 22.8152 18.9367 21.8411 19.5031 21.2281C19.7036 21.0113 19.7252 20.806 19.7082 20.6719C19.6661 20.3419 19.3655 20.1398 19.3314 20.1179C19.2492 20.065 19.1389 20.0788 19.0747 20.1528C19.0108 20.2268 19.0093 20.3349 19.0735 20.4088C19.108 20.4532 19.128 20.5276 19.027 20.6287C18.8006 20.8402 16.517 21.482 12.715 21.6749C12.1941 21.7019 11.6478 21.7157 11.0914 21.7158C7.68717 21.7158 5.1958 21.2495 4.86875 20.9778C4.9948 20.7967 5.87606 20.5073 6.81323 20.3436C6.91884 20.3252 6.99018 20.2257 6.97383 20.1198C6.95747 20.0139 6.85982 19.941 6.75309 19.9548C6.72665 19.9584 6.63693 19.9638 6.53306 19.9701C4.98674 20.0645 3.19981 20.275 3.10658 21.0717C3.07826 21.3145 3.1504 21.5349 3.32108 21.7267C3.73869 22.1959 4.93902 22.8198 10.5191 22.8198C10.5192 22.8199 10.5192 22.8199 10.5193 22.8199Z" fill="url(#paint4_linear_3116_15604)"/>
<path d="M20.5791 21.401C20.5016 21.3652 20.4101 21.3833 20.3524 21.4457C20.3444 21.4543 19.5208 22.3155 17.0447 22.8212C16.0967 23.0111 14.3173 23.1074 11.7559 23.1074C9.18974 23.1074 6.74787 23.0065 6.72355 23.0054C6.62155 23.0005 6.53431 23.0746 6.52044 23.175C6.50651 23.2753 6.5712 23.3699 6.66969 23.3934C6.69509 23.3994 9.25415 23.9989 12.7531 23.9989C14.4313 23.9989 16.0643 23.8626 17.6069 23.5937C20.4832 23.0894 20.6846 21.6632 20.6918 21.6027C20.7018 21.5182 20.6564 21.4368 20.5791 21.401Z" fill="url(#paint5_linear_3116_15604)"/>
</g>
<path d="M39.3153 6.88V14.896C39.3153 15.888 39.0113 16.672 38.4033 17.248C37.8059 17.824 37.0166 18.112 36.0353 18.112C35.0539 18.112 34.2593 17.824 33.6513 17.248C33.0539 16.672 32.7553 15.888 32.7553 14.896H34.5953C34.6059 15.3867 34.7286 15.776 34.9633 16.064C35.2086 16.352 35.5659 16.496 36.0353 16.496C36.5046 16.496 36.8619 16.352 37.1073 16.064C37.3526 15.7653 37.4753 15.376 37.4753 14.896V6.88H39.3153ZM41.9945 13.552C41.9945 12.6667 42.1758 11.8827 42.5385 11.2C42.9118 10.5173 43.4132 9.98933 44.0425 9.616C44.6825 9.232 45.3865 9.04 46.1545 9.04C46.8478 9.04 47.4505 9.17867 47.9625 9.456C48.4852 9.72267 48.9012 10.0587 49.2105 10.464V9.184H51.0505V18H49.2105V16.688C48.9012 17.104 48.4798 17.4507 47.9465 17.728C47.4132 18.0053 46.8052 18.144 46.1225 18.144C45.3652 18.144 44.6718 17.952 44.0425 17.568C43.4132 17.1733 42.9118 16.6293 42.5385 15.936C42.1758 15.232 41.9945 14.4373 41.9945 13.552ZM49.2105 13.584C49.2105 12.976 49.0825 12.448 48.8265 12C48.5812 11.552 48.2558 11.2107 47.8505 10.976C47.4452 10.7413 47.0078 10.624 46.5385 10.624C46.0692 10.624 45.6318 10.7413 45.2265 10.976C44.8212 11.2 44.4905 11.536 44.2345 11.984C43.9892 12.4213 43.8665 12.944 43.8665 13.552C43.8665 14.16 43.9892 14.6933 44.2345 15.152C44.4905 15.6107 44.8212 15.9627 45.2265 16.208C45.6425 16.4427 46.0798 16.56 46.5385 16.56C47.0078 16.56 47.4452 16.4427 47.8505 16.208C48.2558 15.9733 48.5812 15.632 48.8265 15.184C49.0825 14.7253 49.2105 14.192 49.2105 13.584ZM57.1743 16.368L59.6703 9.184H61.6062L58.2463 18H56.0703L52.7262 9.184H54.6782L57.1743 16.368ZM62.697 13.552C62.697 12.6667 62.8783 11.8827 63.241 11.2C63.6143 10.5173 64.1157 9.98933 64.745 9.616C65.385 9.232 66.089 9.04 66.857 9.04C67.5503 9.04 68.153 9.17867 68.665 9.456C69.1877 9.72267 69.6037 10.0587 69.913 10.464V9.184H71.753V18H69.913V16.688C69.6037 17.104 69.1823 17.4507 68.649 17.728C68.1157 18.0053 67.5077 18.144 66.825 18.144C66.0677 18.144 65.3743 17.952 64.745 17.568C64.1157 17.1733 63.6143 16.6293 63.241 15.936C62.8783 15.232 62.697 14.4373 62.697 13.552ZM69.913 13.584C69.913 12.976 69.785 12.448 69.529 12C69.2837 11.552 68.9583 11.2107 68.553 10.976C68.1477 10.7413 67.7103 10.624 67.241 10.624C66.7717 10.624 66.3343 10.7413 65.929 10.976C65.5237 11.2 65.193 11.536 64.937 11.984C64.6917 12.4213 64.569 12.944 64.569 13.552C64.569 14.16 64.6917 14.6933 64.937 15.152C65.193 15.6107 65.5237 15.9627 65.929 16.208C66.345 16.4427 66.7823 16.56 67.241 16.56C67.7103 16.56 68.1477 16.4427 68.553 16.208C68.9583 15.9733 69.2837 15.632 69.529 15.184C69.785 14.7253 69.913 14.192 69.913 13.584Z" fill="#F4F4F5"/>
<defs>
<linearGradient id="paint0_linear_3116_15604" x1="6.30361" y1="14.3144" x2="15.5682" y2="14.3144" gradientUnits="userSpaceOnUse">
<stop stop-color="white" stop-opacity="0.5"/>
<stop offset="0.5" stop-color="white" stop-opacity="0.82"/>
<stop offset="1" stop-color="white" stop-opacity="0.64"/>
</linearGradient>
<linearGradient id="paint1_linear_3116_15604" x1="17.2708" y1="15.1717" x2="20.4513" y2="15.1717" gradientUnits="userSpaceOnUse">
<stop stop-color="white" stop-opacity="0.5"/>
<stop offset="0.5" stop-color="white" stop-opacity="0.82"/>
<stop offset="1" stop-color="white" stop-opacity="0.64"/>
</linearGradient>
<linearGradient id="paint2_linear_3116_15604" x1="7.72252" y1="16.854" x2="15.1448" y2="16.854" gradientUnits="userSpaceOnUse">
<stop stop-color="white" stop-opacity="0.5"/>
<stop offset="0.5" stop-color="white" stop-opacity="0.82"/>
<stop offset="1" stop-color="white" stop-opacity="0.64"/>
</linearGradient>
<linearGradient id="paint3_linear_3116_15604" x1="8.29043" y1="19.414" x2="14.8855" y2="19.414" gradientUnits="userSpaceOnUse">
<stop stop-color="white" stop-opacity="0.5"/>
<stop offset="0.5" stop-color="white" stop-opacity="0.82"/>
<stop offset="1" stop-color="white" stop-opacity="0.64"/>
</linearGradient>
<linearGradient id="paint4_linear_3116_15604" x1="4.92794" y1="21.3865" x2="17.8855" y2="21.3865" gradientUnits="userSpaceOnUse">
<stop stop-color="white" stop-opacity="0.5"/>
<stop offset="0.5" stop-color="white" stop-opacity="0.82"/>
<stop offset="1" stop-color="white" stop-opacity="0.64"/>
</linearGradient>
<linearGradient id="paint5_linear_3116_15604" x1="8.07777" y1="22.6908" x2="19.134" y2="22.6908" gradientUnits="userSpaceOnUse">
<stop stop-color="white" stop-opacity="0.5"/>
<stop offset="0.5" stop-color="white" stop-opacity="0.82"/>
<stop offset="1" stop-color="white" stop-opacity="0.64"/>
</linearGradient>
<clipPath id="clip0_3116_15604">
<rect width="24" height="24" fill="white"/>
</clipPath>
</defs>
</svg>
