<svg width="95" height="24" viewBox="0 0 95 24" fill="none" xmlns="http://www.w3.org/2000/svg">
<path d="M20.8262 7.08984C20.9824 7.42578 21.1348 7.76172 21.2832 8.09766C21.4316 8.43359 21.6152 8.75391 21.834 9.05859C21.7871 9.16797 21.7129 9.26562 21.6113 9.35156C21.5098 9.4375 21.3887 9.50781 21.248 9.5625C21.1074 9.61719 20.9746 9.66406 20.8496 9.70312C20.7246 9.74219 20.5996 9.76172 20.4746 9.76172C20.2715 9.76172 20.1113 9.70703 19.9941 9.59766C19.877 9.48828 19.8145 9.32422 19.8066 9.10547C19.9082 9.05859 20.0215 9.03125 20.1465 9.02344C20.2715 9.01562 20.3965 9.00781 20.5215 9C20.6465 8.99219 20.7676 8.98047 20.8848 8.96484C21.002 8.94922 21.1074 8.91406 21.2012 8.85938C21.1465 8.71875 21.0957 8.58594 21.0488 8.46094C21.002 8.33594 20.9551 8.20703 20.9082 8.07422C20.8613 7.94141 20.8262 7.8125 20.8027 7.6875C20.7793 7.5625 20.7637 7.41797 20.7559 7.25391V7.08984H20.8262ZM5.07617 11.1328C5.10742 10.9062 5.18555 10.7109 5.31055 10.5469C5.43555 10.3828 5.62305 10.2969 5.87305 10.2891C6.06055 10.2891 6.22852 10.332 6.37695 10.418C6.52539 10.5039 6.65039 10.6133 6.75195 10.7461C6.85352 10.8789 6.93555 11.0352 6.99805 11.2148C7.06055 11.3945 7.0918 11.5625 7.0918 11.7188C7.0918 11.8516 7.08008 11.9766 7.05664 12.0938C6.97852 12.0469 6.91211 11.9688 6.85742 11.8594C6.80273 11.75 6.74805 11.6367 6.69336 11.5195C6.63867 11.4023 6.58008 11.3008 6.51758 11.2148C6.45508 11.1289 6.38086 11.0859 6.29492 11.0859C6.18555 11.0859 6.10352 11.1172 6.04883 11.1797C5.99414 11.2422 5.95117 11.3281 5.91992 11.4375C5.88867 11.5469 5.86914 11.6523 5.86133 11.7539C5.85352 11.8555 5.84961 11.9609 5.84961 12.0703V12.7617C5.7168 12.6367 5.63086 12.4688 5.5918 12.2578C5.55273 12.0469 5.5293 11.8555 5.52148 11.6836C5.52148 11.543 5.5332 11.4023 5.55664 11.2617C5.58008 11.1211 5.62305 10.9883 5.68555 10.8633C5.63867 10.8398 5.58789 10.8281 5.5332 10.8281C5.42383 10.8281 5.3418 10.8633 5.28711 10.9336C5.23242 11.0039 5.16211 11.0703 5.07617 11.1328ZM20.8379 17.0391C20.8379 17.1328 20.9004 17.25 21.0254 17.3906C21.1504 17.5312 21.3145 17.6836 21.5176 17.8477C21.7207 18.0117 21.9316 18.1914 22.1504 18.3867C22.3691 18.582 22.5879 18.7695 22.8066 18.9492C23.0254 19.1289 23.2012 19.3125 23.334 19.5C23.4668 19.6875 23.5566 19.8516 23.6035 19.9922C23.6113 20.0312 23.6152 20.0859 23.6152 20.1562C23.6152 20.2578 23.5957 20.4062 23.5566 20.6016C23.5176 20.7969 23.4629 21.0156 23.3926 21.2578C23.3223 21.5 23.248 21.7539 23.1699 22.0195C23.0918 22.2852 23.0098 22.5469 22.9238 22.8047C22.8379 23.0625 22.7637 23.293 22.7012 23.4961C22.6387 23.6992 22.584 23.8672 22.5371 24H2.62695C2.56445 23.8359 2.49023 23.6406 2.4043 23.4141C2.31836 23.1875 2.23633 22.957 2.1582 22.7227C2.08008 22.4883 2.00977 22.2578 1.94727 22.0312C1.88477 21.8047 1.85352 21.6094 1.85352 21.4453C1.85352 21.25 1.90039 21.0938 1.99414 20.9766C2.08789 20.8594 2.20508 20.7539 2.3457 20.6602C2.48633 20.5664 2.63477 20.4844 2.79102 20.4141C2.94727 20.3438 3.0957 20.2656 3.23633 20.1797C3.66602 19.8828 4.09961 19.6055 4.53711 19.3477C4.97461 19.0898 5.41602 18.8281 5.86133 18.5625C5.93164 18.5234 6.0293 18.4688 6.1543 18.3984C6.2793 18.3281 6.41211 18.2539 6.55273 18.1758C6.69336 18.0977 6.81836 18.0156 6.92773 17.9297C7.03711 17.8438 7.11133 17.7773 7.15039 17.7305C7.18164 17.6758 7.19727 17.6094 7.19727 17.5312C7.19727 17.4375 7.17773 17.3438 7.13867 17.25C7.09961 17.1562 7.05273 17.0625 6.99805 16.9688C6.94336 16.875 6.88086 16.7852 6.81055 16.6992C6.74023 16.6133 6.68945 16.5234 6.6582 16.4297C6.54883 16.2031 6.46289 15.9727 6.40039 15.7383C6.33789 15.5039 6.29492 15.2578 6.27148 15C5.82617 14.9297 5.44336 14.7695 5.12305 14.5195C4.80273 14.2695 4.5293 13.9648 4.30273 13.6055C4.07617 13.2461 3.91602 12.8594 3.82227 12.4453C3.72852 12.0312 3.67383 11.6172 3.6582 11.2031C3.6582 11 3.67773 10.7734 3.7168 10.5234C3.75586 10.2734 3.81836 10.0586 3.9043 9.87891C3.93555 9.82422 3.9668 9.77734 3.99805 9.73828C4.0293 9.69922 4.06445 9.65625 4.10352 9.60938C4.14258 9.5625 4.16602 9.51562 4.17383 9.46875C4.18164 9.42188 4.19336 9.35547 4.20898 9.26953C4.20898 9.08203 4.18555 8.88672 4.13867 8.68359C4.0918 8.48047 4.06445 8.25391 4.05664 8.00391C4.05664 7.71484 4.07227 7.40625 4.10352 7.07812C4.13477 6.75 4.20508 6.42969 4.31445 6.11719C4.42383 5.80469 4.56836 5.52734 4.74805 5.28516C4.92773 5.04297 5.17383 4.85156 5.48633 4.71094C5.60352 4.25781 5.79102 3.86719 6.04883 3.53906C6.30664 3.21094 6.60352 2.91797 6.93945 2.66016C7.27539 2.40234 7.63867 2.17188 8.0293 1.96875C8.41992 1.76562 8.79883 1.55469 9.16602 1.33594C9.93164 0.898438 10.7598 0.566406 11.6504 0.339844C12.541 0.113281 13.4277 0 14.3105 0C14.709 0 15.1191 0.0234375 15.541 0.0703125C15.9629 0.117188 16.377 0.191406 16.7832 0.292969C17.1895 0.394531 17.5879 0.527344 17.9785 0.691406C18.3691 0.855469 18.7285 1.0625 19.0566 1.3125C19.2754 1.47656 19.5137 1.67578 19.7715 1.91016C20.0293 2.14453 20.2832 2.39453 20.5332 2.66016C20.7832 2.92578 21.0137 3.19922 21.2246 3.48047C21.4355 3.76172 21.5996 4.01953 21.7168 4.25391C21.8965 4.62109 22.0449 5.01172 22.1621 5.42578C22.2793 5.83984 22.377 6.26562 22.4551 6.70312C22.5332 7.14062 22.5879 7.57422 22.6191 8.00391C22.6504 8.43359 22.666 8.85547 22.666 9.26953C22.666 9.74609 22.6426 10.2695 22.5957 10.8398C22.5488 11.4102 22.4785 11.9844 22.3848 12.5625C22.291 13.1406 22.166 13.7031 22.0098 14.25C21.8535 14.7969 21.6738 15.2891 21.4707 15.7266C21.4316 15.8125 21.377 15.9102 21.3066 16.0195C21.2363 16.1289 21.166 16.2461 21.0957 16.3711C21.0254 16.4961 20.9668 16.6172 20.9199 16.7344C20.873 16.8516 20.8457 16.9531 20.8379 17.0391ZM15.7871 22.2188V21.9727C15.7871 21.8945 15.791 21.8086 15.7988 21.7148C15.627 21.6289 15.4512 21.5664 15.2715 21.5273C15.0918 21.4883 14.9004 21.457 14.6973 21.4336C14.8613 21.3555 15.0332 21.3047 15.2129 21.2812C15.3926 21.2578 15.5645 21.1992 15.7285 21.1055V20.9062C15.6113 20.8984 15.5098 20.8789 15.4238 20.8477C15.3379 20.8164 15.2598 20.7812 15.1895 20.7422C15.1191 20.7031 15.0449 20.6602 14.9668 20.6133C14.8887 20.5664 14.8027 20.5156 14.709 20.4609C14.5918 20.3984 14.4355 20.3242 14.2402 20.2383C14.0449 20.1523 13.8379 20.0664 13.6191 19.9805C13.4004 19.8945 13.1895 19.8242 12.9863 19.7695C12.7832 19.7148 12.6191 19.6875 12.4941 19.6875C12.3379 19.6875 12.2207 19.7383 12.1426 19.8398C12.0645 19.9414 12.002 20.0625 11.9551 20.2031C11.9082 20.3438 11.8809 20.4961 11.873 20.6602C11.8652 20.8242 11.8613 20.9531 11.8613 21.0469V21.375C11.8613 21.4844 11.8691 21.5938 11.8848 21.7031C11.9004 22.0156 11.9629 22.3086 12.0723 22.582C12.1816 22.8555 12.2871 23.1406 12.3887 23.4375C12.4199 23.5234 12.4473 23.6094 12.4707 23.6953C12.4941 23.7812 12.5527 23.8477 12.6465 23.8945C12.6621 23.9023 12.6895 23.9062 12.7285 23.9062C12.8145 23.9062 12.9238 23.8906 13.0566 23.8594C13.1895 23.8281 13.3301 23.7852 13.4785 23.7305C13.627 23.6758 13.7676 23.6211 13.9004 23.5664C14.0332 23.5117 14.1387 23.4609 14.2168 23.4141C14.5137 23.2578 14.7793 23.0664 15.0137 22.8398C15.248 22.6133 15.5059 22.4062 15.7871 22.2188ZM15.002 19.793C15.2363 19.9805 15.4629 20.1133 15.6816 20.1914C15.9004 20.2695 16.166 20.3086 16.4785 20.3086H16.6426C16.6973 20.3086 16.752 20.3047 16.8066 20.2969C16.9863 20.1641 17.1582 20.0273 17.3223 19.8867C17.4863 19.7461 17.6621 19.6172 17.8496 19.5C17.6699 19.5156 17.4941 19.543 17.3223 19.582C17.1504 19.6211 16.9785 19.6602 16.8066 19.6992C16.6348 19.7383 16.4629 19.7773 16.291 19.8164C16.1191 19.8555 15.9434 19.8711 15.7637 19.8633C15.6465 19.8633 15.5293 19.8555 15.4121 19.8398C15.2949 19.8242 15.1816 19.7852 15.0723 19.7227L15.002 19.793ZM16.2324 21.8672C16.3184 21.8984 16.416 21.9141 16.5254 21.9141C16.7051 21.9141 16.8418 21.8594 16.9355 21.75C17.0293 21.6406 17.0801 21.5 17.0879 21.3281C17.0879 21.1797 17.0449 21.0469 16.959 20.9297C16.873 20.8125 16.748 20.75 16.584 20.7422C16.498 20.7422 16.416 20.7578 16.3379 20.7891C16.2598 20.8203 16.1816 20.8633 16.1035 20.918V20.9883C16.1035 21.0117 16.0996 21.0391 16.0918 21.0703C16.0918 21.2031 16.1074 21.3359 16.1387 21.4688C16.1699 21.6016 16.2012 21.7344 16.2324 21.8672ZM19.959 22.3477C20.0449 22.2305 20.0996 22.0898 20.123 21.9258C20.1465 21.7617 20.1621 21.6055 20.1699 21.457C20.1699 21.3555 20.1621 21.207 20.1465 21.0117C20.1309 20.8164 20.1074 20.6211 20.0762 20.4258C20.0449 20.2305 19.998 20.0469 19.9355 19.875C19.873 19.7031 19.7949 19.5898 19.7012 19.5352C19.6152 19.4805 19.5137 19.4531 19.3965 19.4531C19.2012 19.4531 19.0176 19.4961 18.8457 19.582C18.6738 19.668 18.5059 19.7656 18.3418 19.875C18.1777 19.9844 18.0176 20.1016 17.8613 20.2266C17.7051 20.3516 17.541 20.4414 17.3691 20.4961C17.4004 20.582 17.4316 20.6602 17.4629 20.7305C17.4941 20.8008 17.5137 20.8828 17.5215 20.9766C17.6152 20.9531 17.7129 20.9414 17.8145 20.9414C18.0254 20.9414 18.2285 20.9844 18.4238 21.0703C18.2988 21.0859 18.1582 21.0977 18.002 21.1055C17.8457 21.1133 17.7168 21.1602 17.6152 21.2461C17.5918 21.3164 17.5801 21.3945 17.5801 21.4805V21.6562C17.5801 21.7109 17.584 21.7734 17.5918 21.8438C17.5918 21.9219 17.5879 21.9805 17.5801 22.0195C17.9707 22.1289 18.3652 22.207 18.7637 22.2539C19.1621 22.3008 19.5605 22.332 19.959 22.3477ZM15.541 19.1719C15.8379 19.1719 16.1426 19.1406 16.4551 19.0781C16.7676 19.0156 17.084 18.9219 17.4043 18.7969C17.7246 18.6719 18.0215 18.5391 18.2949 18.3984C18.5684 18.2578 18.834 18.0898 19.0918 17.8945C19.3418 17.7148 19.5566 17.4922 19.7363 17.2266C19.916 16.9609 20.0918 16.7031 20.2637 16.4531C20.5918 15.9688 20.873 15.457 21.1074 14.918C21.3418 14.3789 21.5332 13.8242 21.6816 13.2539C21.8301 12.6836 21.9395 12.1016 22.0098 11.5078C22.0801 10.9141 22.1152 10.3281 22.1152 9.75C22.1152 9.51562 22.1113 9.23438 22.1035 8.90625C22.0957 8.57812 22.0801 8.23828 22.0566 7.88672C22.0332 7.53516 21.9863 7.20312 21.916 6.89062C21.8457 6.57812 21.7637 6.31641 21.6699 6.10547C21.5996 5.95703 21.502 5.82031 21.377 5.69531C21.252 5.57031 21.1152 5.45703 20.9668 5.35547C20.8184 5.25391 20.6543 5.17578 20.4746 5.12109C20.2949 5.06641 20.127 5.03906 19.9707 5.03906C19.6816 5.03906 19.4277 5.13672 19.209 5.33203C19.2012 5.30078 19.1973 5.27344 19.1973 5.25C19.1973 5.22656 19.1934 5.19141 19.1855 5.14453C19.1855 5.00391 19.2168 4.88281 19.2793 4.78125C19.3418 4.67969 19.4238 4.58984 19.5254 4.51172C19.627 4.43359 19.7402 4.38281 19.8652 4.35938C19.9902 4.33594 20.1152 4.31641 20.2402 4.30078C20.3262 4.30078 20.4121 4.30859 20.498 4.32422C20.584 4.33984 20.6699 4.35938 20.7559 4.38281C20.5918 4.17188 20.4277 3.95312 20.2637 3.72656C20.0996 3.5 19.9277 3.28125 19.748 3.07031C19.5684 2.85938 19.373 2.66406 19.1621 2.48438C18.9512 2.30469 18.7285 2.14453 18.4941 2.00391C18.1973 1.83984 17.877 1.6875 17.5332 1.54688C17.1895 1.40625 16.8379 1.28516 16.4785 1.18359C16.1191 1.08203 15.752 1.00391 15.377 0.949219C15.002 0.894531 14.6504 0.867188 14.3223 0.867188C13.9941 0.867188 13.6699 0.894531 13.3496 0.949219C13.0293 1.00391 12.7168 1.10938 12.4121 1.26562C12.0684 1.4375 11.7012 1.63672 11.3105 1.86328C10.9199 2.08984 10.5449 2.33984 10.1855 2.61328C9.82617 2.88672 9.49414 3.19141 9.18945 3.52734C8.88477 3.86328 8.6543 4.20703 8.49805 4.55859C8.64648 4.91016 8.7207 5.28906 8.7207 5.69531C8.7207 5.95312 8.69727 6.20703 8.65039 6.45703C8.60352 6.70703 8.55273 6.95703 8.49805 7.20703C8.44336 7.45703 8.39258 7.71094 8.3457 7.96875C8.29883 8.22656 8.27539 8.48047 8.27539 8.73047C8.27539 8.91797 8.29102 9.10156 8.32227 9.28125C8.35352 9.46094 8.39648 9.64062 8.45117 9.82031C8.50586 10 8.54883 10.1797 8.58008 10.3594C8.61133 10.5391 8.63867 10.7227 8.66211 10.9102C8.60742 10.9883 8.53711 11.0508 8.45117 11.0977C8.36523 11.1445 8.27148 11.1797 8.16992 11.2031C8.06836 11.2266 7.9668 11.2422 7.86523 11.25C7.76367 11.2578 7.66992 11.2617 7.58398 11.2617H7.39648C7.35742 11.0742 7.31055 10.8828 7.25586 10.6875C7.20117 10.4922 7.12305 10.3164 7.02148 10.1602C6.91992 10.0039 6.79492 9.875 6.64648 9.77344C6.49805 9.67188 6.30273 9.62109 6.06055 9.62109C5.82617 9.62109 5.60352 9.66797 5.39258 9.76172C5.18164 9.85547 5.00195 9.98828 4.85352 10.1602C4.70508 10.332 4.58398 10.5195 4.49023 10.7227C4.39648 10.9258 4.34961 11.1484 4.34961 11.3906C4.34961 11.6484 4.39648 11.9336 4.49023 12.2461C4.58398 12.5586 4.7168 12.8477 4.88867 13.1133C5.06055 13.3789 5.26758 13.6055 5.50977 13.793C5.75195 13.9805 6.02539 14.0703 6.33008 14.0625C6.45508 14.0625 6.56445 14.0352 6.6582 13.9805C6.75195 13.9258 6.84961 13.8672 6.95117 13.8047C7.05273 13.7422 7.14648 13.6836 7.23242 13.6289C7.31836 13.5742 7.43164 13.543 7.57227 13.5352L7.61914 13.6523C7.63477 13.6914 7.64258 13.7383 7.64258 13.793C7.64258 13.8867 7.61133 13.9727 7.54883 14.0508C7.48633 14.1289 7.41992 14.207 7.34961 14.2852C7.2793 14.3633 7.21289 14.4297 7.15039 14.4844C7.08789 14.5391 7.05664 14.6094 7.05664 14.6953C7.05664 14.8047 7.06445 14.9141 7.08008 15.0234C7.0957 15.1328 7.11914 15.2461 7.15039 15.3633V15.3867C7.15039 15.3945 7.1543 15.4023 7.16211 15.4102C7.20898 15.6133 7.27539 15.8438 7.36133 16.1016C7.44727 16.3594 7.54492 16.625 7.6543 16.8984C7.76367 17.1719 7.88477 17.4297 8.01758 17.6719C8.15039 17.9141 8.2793 18.1211 8.4043 18.293C8.57617 18.5352 8.79102 18.7266 9.04883 18.8672C9.30664 19.0078 9.58008 19.1172 9.86914 19.1953C10.1582 19.2734 10.459 19.3281 10.7715 19.3594C11.084 19.3906 11.373 19.4141 11.6387 19.4297C11.7246 19.25 11.8613 19.1328 12.0488 19.0781C12.2363 19.0234 12.4238 18.9961 12.6113 18.9961C12.8457 18.9961 13.0879 19.0273 13.3379 19.0898C12.9785 18.9414 12.6426 18.7227 12.3301 18.4336C12.0176 18.1445 11.7324 17.8555 11.4746 17.5664C11.334 17.4102 11.1895 17.2461 11.041 17.0742C10.8926 16.9023 10.7598 16.7227 10.6426 16.5352C10.5254 16.3477 10.4238 16.1523 10.3379 15.9492C10.252 15.7461 10.209 15.5273 10.209 15.293C10.5137 15.7148 10.8066 16.1094 11.0879 16.4766C11.3691 16.8438 11.6738 17.1875 12.002 17.5078C12.3301 17.8281 12.6855 18.1133 13.0684 18.3633C13.4512 18.6133 13.9043 18.8242 14.4277 18.9961C14.7793 19.1133 15.1504 19.1719 15.541 19.1719ZM18.6113 15.375C18.6035 15.2812 18.5996 15.1875 18.5996 15.0938C18.5996 15 18.5957 14.9023 18.5879 14.8008V14.625C18.5879 14.5703 18.5957 14.5156 18.6113 14.4609C18.8691 14.4375 19.1035 14.3906 19.3145 14.3203C19.5254 14.25 19.7324 14.168 19.9355 14.0742C20.1387 13.9805 20.334 13.8789 20.5215 13.7695C20.709 13.6602 20.9199 13.5547 21.1543 13.4531C21.0137 13.7188 20.8652 13.9648 20.709 14.1914C20.5527 14.418 20.3691 14.6211 20.1582 14.8008C19.9473 14.9805 19.7207 15.1172 19.4785 15.2109C19.2363 15.3047 18.9473 15.3594 18.6113 15.375ZM16.6777 13.9805C16.5605 13.8789 16.4746 13.7539 16.4199 13.6055C16.3652 13.457 16.334 13.3047 16.3262 13.1484C16.3262 12.9141 16.3926 12.707 16.5254 12.5273C16.5957 12.6445 16.6387 12.7617 16.6543 12.8789C16.6699 12.9961 16.6973 13.1055 16.7363 13.207C16.7754 13.3086 16.834 13.3828 16.9121 13.4297C16.9902 13.4766 17.1426 13.5078 17.3691 13.5234C17.5879 13.5234 17.8027 13.4922 18.0137 13.4297C18.2246 13.3672 18.4277 13.293 18.623 13.207C18.8184 13.1211 19.0176 13.0273 19.2207 12.9258C19.4238 12.8242 19.627 12.7344 19.8301 12.6562C19.877 12.5781 19.916 12.4961 19.9473 12.4102C19.9785 12.3242 19.9941 12.2344 19.9941 12.1406C19.9941 12.0234 19.9355 11.8828 19.8184 11.7188C19.7012 11.5547 19.5566 11.3672 19.3848 11.1562C19.2129 10.9453 19.0215 10.7148 18.8105 10.4648C18.5996 10.2148 18.4121 9.94922 18.248 9.66797C18.084 9.38672 17.9355 9.08594 17.8027 8.76562C17.6699 8.44531 17.6113 8.11719 17.627 7.78125V7.71094C17.627 7.70312 17.6309 7.69922 17.6387 7.69922C17.6855 7.66797 17.7246 7.65234 17.7559 7.65234C17.8027 7.65234 17.8418 7.67188 17.873 7.71094C17.9043 7.75 17.9277 7.80078 17.9434 7.86328C17.959 7.92578 17.9707 7.98047 17.9785 8.02734C17.9863 8.07422 17.998 8.12109 18.0137 8.16797C18.0996 8.37891 18.2285 8.62109 18.4004 8.89453C18.5723 9.16797 18.7676 9.44531 18.9863 9.72656C19.2051 10.0078 19.416 10.2734 19.6191 10.5234C19.8223 10.7734 20.0137 10.9844 20.1934 11.1562C20.2246 11.1875 20.2676 11.2227 20.3223 11.2617C20.377 11.3008 20.4316 11.3477 20.4863 11.4023C20.541 11.457 20.5879 11.5039 20.627 11.543C20.666 11.582 20.6973 11.625 20.7207 11.6719C20.7285 11.7031 20.7324 11.75 20.7324 11.8125C20.7324 11.9766 20.6973 12.1328 20.627 12.2812C20.5566 12.4297 20.5176 12.582 20.5098 12.7383V12.7852C20.2441 12.957 19.9824 13.1172 19.7246 13.2656C19.4668 13.4141 19.2051 13.543 18.9395 13.6523C18.6738 13.7617 18.3965 13.8477 18.1074 13.9102C17.8184 13.9727 17.5098 14.0039 17.1816 14.0039H16.9355C16.8574 14.0039 16.7715 13.9961 16.6777 13.9805ZM15.834 9.35156C15.834 9.50781 15.7949 9.63672 15.7168 9.73828C15.6387 9.83984 15.5332 9.92578 15.4004 9.99609C15.2676 10.0664 15.1348 10.1094 15.002 10.125C14.8691 10.1406 14.7324 10.1523 14.5918 10.1602C14.5059 10.1602 14.3965 10.1562 14.2637 10.1484C14.1309 10.1406 14.002 10.1133 13.877 10.0664C13.752 10.0195 13.6426 9.96094 13.5488 9.89062C13.4551 9.82031 13.4082 9.72266 13.4082 9.59766C13.4082 9.49609 13.4434 9.39062 13.5137 9.28125C13.709 9.28906 13.9004 9.31641 14.0879 9.36328C14.2754 9.41016 14.4707 9.43359 14.6738 9.43359C14.7832 9.43359 14.8848 9.42188 14.9785 9.39844C15.0723 9.375 15.1621 9.32031 15.248 9.23438C15.1699 9.10938 15.0879 8.97266 15.002 8.82422C14.916 8.67578 14.8379 8.51953 14.7676 8.35547C14.6973 8.19141 14.6348 8.02734 14.5801 7.86328C14.5254 7.69922 14.502 7.54297 14.5098 7.39453C14.5098 7.28516 14.5254 7.1875 14.5566 7.10156C14.627 7.23438 14.6895 7.37109 14.7441 7.51172C14.7988 7.65234 14.8574 7.78906 14.9199 7.92188C14.9824 8.05469 15.0488 8.18359 15.1191 8.30859C15.1895 8.43359 15.2832 8.55469 15.4004 8.67188C15.5098 8.77344 15.6074 8.87109 15.6934 8.96484C15.7793 9.05859 15.8262 9.1875 15.834 9.35156ZM14.3105 14.9062C14.4355 15.2266 14.6191 15.4766 14.8613 15.6562C15.1035 15.8359 15.377 15.9688 15.6816 16.0547C15.9863 16.1406 16.2988 16.1953 16.6191 16.2188C16.9395 16.2422 17.248 16.2539 17.5449 16.2539H18.1777C18.3887 16.2539 18.6035 16.2461 18.8223 16.2305C18.7441 16.4102 18.627 16.5508 18.4707 16.6523C18.3145 16.7539 18.1387 16.8281 17.9434 16.875C17.748 16.9219 17.5488 16.9531 17.3457 16.9688C17.1426 16.9844 16.9512 16.9922 16.7715 16.9922C16.5449 16.9922 16.3145 16.9766 16.0801 16.9453C15.8457 16.9141 15.627 16.8438 15.4238 16.7344C15.291 16.6641 15.1777 16.582 15.084 16.4883C14.9902 16.3945 14.9004 16.293 14.8145 16.1836C14.7285 16.0742 14.6465 15.9648 14.5684 15.8555C14.4902 15.7461 14.4082 15.6328 14.3223 15.5156C14.2988 15.4844 14.2676 15.4492 14.2285 15.4102C14.1895 15.3711 14.1465 15.332 14.0996 15.293C14.0527 15.2539 14.0137 15.2109 13.9824 15.1641C13.9512 15.1172 13.9355 15.0781 13.9355 15.0469C13.9355 15.0156 13.9512 14.9922 13.9824 14.9766C14.0137 14.9609 14.0488 14.9453 14.0879 14.9297C14.127 14.9141 14.1699 14.9062 14.2168 14.9062C14.2637 14.9062 14.2949 14.9062 14.3105 14.9062ZM13.1035 4.61719C13.1816 4.61719 13.2676 4.62891 13.3613 4.65234C13.4551 4.67578 13.5449 4.71484 13.6309 4.76953C13.7168 4.82422 13.7832 4.88281 13.8301 4.94531C13.877 5.00781 13.9043 5.09375 13.9121 5.20312C13.9121 5.28906 13.8848 5.37891 13.8301 5.47266C13.6426 5.42578 13.4512 5.40234 13.2559 5.40234C12.998 5.40234 12.7715 5.44531 12.5762 5.53125C12.3809 5.61719 12.2012 5.73828 12.0371 5.89453C11.873 6.05078 11.7285 6.22266 11.6035 6.41016C11.4785 6.59766 11.3691 6.80078 11.2754 7.01953C11.1816 6.99609 11.1191 6.95312 11.0879 6.89062C11.0566 6.82812 11.0371 6.75 11.0293 6.65625C11.0293 6.42188 11.0957 6.1875 11.2285 5.95312C11.3613 5.71875 11.5293 5.5 11.7324 5.29688C11.9355 5.09375 12.1582 4.92969 12.4004 4.80469C12.6426 4.67969 12.877 4.61719 13.1035 4.61719ZM14.4863 14.0391C14.6895 14.1484 14.9238 14.2344 15.1895 14.2969C15.4551 14.3594 15.7324 14.4062 16.0215 14.4375C16.3105 14.4688 16.5957 14.4922 16.877 14.5078C17.1582 14.5234 17.4121 14.5312 17.6387 14.5312H17.9316C18.0254 14.5312 18.1191 14.5273 18.2129 14.5195C18.2363 14.6289 18.252 14.7383 18.2598 14.8477C18.2676 14.957 18.2715 15.0742 18.2715 15.1992V15.4336H18.0957C18.041 15.4336 17.9785 15.4375 17.9082 15.4453C17.6426 15.4453 17.3379 15.4258 16.9941 15.3867C16.6504 15.3477 16.3066 15.2773 15.9629 15.1758C15.6191 15.0742 15.3145 14.9336 15.0488 14.7539C14.7832 14.5742 14.5957 14.3359 14.4863 14.0391Z" fill="white"/>
<path d="M39.9134 6.848V15.088C39.9134 16.0053 39.6307 16.7413 39.0654 17.296C38.5001 17.84 37.7534 18.112 36.8254 18.112C35.8867 18.112 35.1347 17.8347 34.5694 17.28C34.0041 16.7147 33.7214 15.9467 33.7214 14.976H35.1774C35.1881 15.52 35.3267 15.9627 35.5934 16.304C35.8707 16.6453 36.2814 16.816 36.8254 16.816C37.3694 16.816 37.7747 16.656 38.0414 16.336C38.3081 16.0053 38.4414 15.5893 38.4414 15.088V6.848H39.9134ZM51.1018 13.28C51.1018 13.5573 51.0858 13.8507 51.0538 14.16H44.0458C44.0991 15.024 44.3924 15.7013 44.9258 16.192C45.4698 16.672 46.1258 16.912 46.8938 16.912C47.5231 16.912 48.0458 16.768 48.4618 16.48C48.8884 16.1813 49.1871 15.7867 49.3578 15.296H50.9258C50.6911 16.1387 50.2218 16.8267 49.5178 17.36C48.8138 17.8827 47.9391 18.144 46.8938 18.144C46.0618 18.144 45.3151 17.9573 44.6538 17.584C44.0031 17.2107 43.4911 16.6827 43.1178 16C42.7444 15.3067 42.5578 14.5067 42.5578 13.6C42.5578 12.6933 42.7391 11.8987 43.1018 11.216C43.4644 10.5333 43.9711 10.0107 44.6218 9.648C45.2831 9.27467 46.0404 9.088 46.8938 9.088C47.7258 9.088 48.4618 9.26933 49.1018 9.632C49.7418 9.99467 50.2324 10.496 50.5738 11.136C50.9258 11.7653 51.1018 12.48 51.1018 13.28ZM49.5978 12.976C49.5978 12.4213 49.4751 11.9467 49.2298 11.552C48.9844 11.1467 48.6484 10.8427 48.2218 10.64C47.8058 10.4267 47.3418 10.32 46.8298 10.32C46.0938 10.32 45.4644 10.5547 44.9418 11.024C44.4298 11.4933 44.1364 12.144 44.0618 12.976H49.5978ZM57.6156 9.072C58.6823 9.072 59.5463 9.39733 60.2076 10.048C60.869 10.688 61.1996 11.616 61.1996 12.832V18H59.7596V13.04C59.7596 12.1653 59.541 11.4987 59.1036 11.04C58.6663 10.5707 58.069 10.336 57.3116 10.336C56.5436 10.336 55.9303 10.576 55.4716 11.056C55.0236 11.536 54.7996 12.2347 54.7996 13.152V18H53.3436V9.232H54.7996V10.48C55.0876 10.032 55.477 9.68533 55.9676 9.44C56.469 9.19467 57.0183 9.072 57.6156 9.072ZM68.794 18L65.354 14.128V18H63.898V6.16H65.354V13.12L68.73 9.232H70.762L66.634 13.6L70.778 18H68.794ZM73.2044 7.808C72.9271 7.808 72.6924 7.712 72.5004 7.52C72.3084 7.328 72.2124 7.09333 72.2124 6.816C72.2124 6.53867 72.3084 6.304 72.5004 6.112C72.6924 5.92 72.9271 5.824 73.2044 5.824C73.4711 5.824 73.6951 5.92 73.8764 6.112C74.0684 6.304 74.1644 6.53867 74.1644 6.816C74.1644 7.09333 74.0684 7.328 73.8764 7.52C73.6951 7.712 73.4711 7.808 73.2044 7.808ZM73.9084 9.232V18H72.4524V9.232H73.9084ZM80.9819 9.072C82.0486 9.072 82.9126 9.39733 83.5739 10.048C84.2352 10.688 84.5659 11.616 84.5659 12.832V18H83.1259V13.04C83.1259 12.1653 82.9072 11.4987 82.4699 11.04C82.0326 10.5707 81.4352 10.336 80.6779 10.336C79.9099 10.336 79.2966 10.576 78.8379 11.056C78.3899 11.536 78.1659 12.2347 78.1659 13.152V18H76.7099V9.232H78.1659V10.48C78.4539 10.032 78.8432 9.68533 79.3339 9.44C79.8352 9.19467 80.3846 9.072 80.9819 9.072ZM90.3683 18.144C89.6963 18.144 89.0936 18.032 88.5603 17.808C88.0269 17.5733 87.6056 17.2533 87.2963 16.848C86.9869 16.432 86.8163 15.9573 86.7843 15.424H88.2883C88.3309 15.8613 88.5336 16.2187 88.8963 16.496C89.2696 16.7733 89.7549 16.912 90.3523 16.912C90.9069 16.912 91.3443 16.7893 91.6643 16.544C91.9843 16.2987 92.1443 15.9893 92.1443 15.616C92.1443 15.232 91.9736 14.9493 91.6323 14.768C91.2909 14.576 90.7629 14.3893 90.0483 14.208C89.3976 14.0373 88.8643 13.8667 88.4483 13.696C88.0429 13.5147 87.6909 13.2533 87.3923 12.912C87.1043 12.56 86.9603 12.1013 86.9603 11.536C86.9603 11.088 87.0936 10.6773 87.3603 10.304C87.6269 9.93067 88.0056 9.63733 88.4963 9.424C88.9869 9.2 89.5469 9.088 90.1763 9.088C91.1469 9.088 91.9309 9.33333 92.5283 9.824C93.1256 10.3147 93.4456 10.9867 93.4883 11.84H92.0323C92.0003 11.3813 91.8136 11.0133 91.4723 10.736C91.1416 10.4587 90.6936 10.32 90.1283 10.32C89.6056 10.32 89.1896 10.432 88.8803 10.656C88.5709 10.88 88.4163 11.1733 88.4163 11.536C88.4163 11.824 88.5069 12.064 88.6883 12.256C88.8803 12.4373 89.1149 12.5867 89.3923 12.704C89.6803 12.8107 90.0749 12.9333 90.5763 13.072C91.2056 13.2427 91.7176 13.4133 92.1123 13.584C92.5069 13.744 92.8429 13.9893 93.1203 14.32C93.4083 14.6507 93.5576 15.0827 93.5683 15.616C93.5683 16.096 93.4349 16.528 93.1683 16.912C92.9016 17.296 92.5229 17.6 92.0323 17.824C91.5523 18.0373 90.9976 18.144 90.3683 18.144Z" fill="#F4F4F5"/>
</svg>
