<svg width="72" height="24" viewBox="0 0 72 24" fill="none" xmlns="http://www.w3.org/2000/svg">
<path d="M5.54683 2.13566C5.28604 1.86906 4.92394 1.70489 4.52058 1.70489C4.11814 1.70489 3.759 1.86906 3.50148 2.13566H3.49474C3.23476 2.40022 3.0734 2.76949 3.0734 3.17753C3.0734 3.58799 3.23476 3.95494 3.49474 4.2169L3.50148 4.22416C3.759 4.48844 4.11814 4.65032 4.52058 4.65032C4.92394 4.65032 5.28604 4.48844 5.54683 4.22416L5.54979 4.2169C5.81096 3.95494 5.97016 3.58799 5.97016 3.17753C5.97016 2.76949 5.81096 2.40022 5.54979 2.13566H5.54683ZM4.52058 22.2951C4.92394 22.2951 5.28604 22.1279 5.54683 21.8662L5.54979 21.8586C5.81096 21.5974 5.97016 21.2281 5.97016 20.8223C5.97016 20.4119 5.81096 20.0443 5.54979 19.7784H5.54683C5.28604 19.5093 4.92394 19.3466 4.52058 19.3466C4.11814 19.3466 3.759 19.5093 3.50148 19.7784H3.49474C3.23476 20.0443 3.0734 20.4119 3.0734 20.8223C3.0734 21.2281 3.23476 21.5974 3.49474 21.8586L3.50148 21.8662C3.759 22.1279 4.11814 22.2951 4.52058 22.2951ZM12.4054 17.833C12.7639 17.7371 13.0885 17.503 13.2865 17.149L13.3133 17.0972C13.4895 16.7619 13.5218 16.3742 13.4275 16.0304C13.3326 15.663 13.1 15.3371 12.7527 15.1344L12.7323 15.1204C12.394 14.9313 12.0088 14.8901 11.655 14.9883C11.295 15.0797 10.9715 15.3236 10.7745 15.6747C10.575 16.0235 10.5333 16.4245 10.6287 16.7937C10.7274 17.1569 10.9582 17.4849 11.3032 17.6899H11.3054C11.6512 17.8923 12.0423 17.9285 12.4054 17.833ZM6.00499 10.4908C5.62509 10.1053 5.10082 9.86368 4.52058 9.86368C3.94113 9.86368 3.41838 10.1053 3.03926 10.4908C2.66113 10.8759 2.42815 11.407 2.42815 11.9975C2.42815 12.588 2.66113 13.1214 3.03926 13.5111C3.41838 13.8942 3.94113 14.1336 4.52058 14.1336C5.10082 14.1336 5.62509 13.8942 6.00499 13.5111C6.3838 13.1214 6.61679 12.588 6.61679 11.9975C6.61679 11.407 6.3838 10.8759 6.00499 10.4908ZM5.17027 7.98095C6.01238 8.12211 6.76885 8.53257 7.34691 9.12524H7.35135C7.44334 9.21846 7.53279 9.32114 7.61589 9.42384L9.06091 8.57334C8.86651 7.97602 8.85759 7.35152 9.0137 6.7656C9.21969 5.98154 9.71941 5.27933 10.4684 4.83949L10.493 4.82359C11.2339 4.39702 12.076 4.30831 12.8362 4.51782C13.606 4.72774 14.3005 5.23856 14.7327 5.99966V6.00188C15.1631 6.75885 15.2503 7.62758 15.0451 8.40943C14.8403 9.19359 14.3387 9.90034 13.5904 10.3379L13.393 10.4564H13.373C12.6807 10.7917 11.9198 10.8442 11.2208 10.6569C10.6469 10.5021 10.1205 10.1759 9.70822 9.71338L8.26548 10.5614C8.43129 11.008 8.5229 11.489 8.5229 11.9975C8.5229 12.5034 8.43129 12.9916 8.26548 13.4404L9.70822 14.2862C10.1205 13.8164 10.6469 13.4975 11.2208 13.3423C11.991 13.1282 12.8443 13.2192 13.5904 13.6617L13.6382 13.6843V13.6865C14.3588 14.1313 14.8426 14.8173 15.0451 15.5923C15.2503 16.3697 15.1631 17.2388 14.7327 17.9973L14.7067 18.0501L14.7037 18.0456C14.2716 18.7769 13.5904 19.2722 12.8383 19.4817C12.0671 19.6886 11.2134 19.6002 10.4684 19.1642V19.1581C9.71939 18.7176 9.21967 18.0139 9.01368 17.2312C8.85757 16.648 8.86648 16.0235 9.06089 15.4262L7.61587 14.5779C7.53277 14.6806 7.44332 14.7787 7.35133 14.872L7.34689 14.8765C6.76883 15.467 6.01236 15.8774 5.17025 16.0141V17.713C5.77049 17.8406 6.3077 18.1461 6.72876 18.5745L6.73103 18.579C7.29537 19.1506 7.6448 19.9468 7.6448 20.8223C7.6448 21.6948 7.29537 22.4866 6.73103 23.0611L6.72876 23.0701C6.16037 23.6443 5.38099 24 4.52056 24C3.66469 24 2.88302 23.6443 2.31613 23.0701H2.31386V23.0611C1.74887 22.4866 1.39865 21.6948 1.39865 20.8223C1.39865 19.9468 1.74887 19.1506 2.31386 18.579V18.5745H2.31613C2.73679 18.1461 3.27509 17.8406 3.87326 17.713V16.0141C3.03104 15.8774 2.27607 15.467 1.69879 14.8765L1.69286 14.872C0.972035 14.1358 0.520508 13.1214 0.520508 11.9975C0.520508 10.8759 0.972035 9.86136 1.69286 9.12524H1.69879C2.27607 8.53256 3.03104 8.1221 3.87326 7.98095V6.28921C3.27511 6.15713 2.73681 5.85167 2.31616 5.42541H2.31388V5.42086C1.74889 4.84402 1.39867 4.0531 1.39867 3.17751C1.39867 2.30657 1.74889 1.50875 2.31388 0.934269L2.31616 0.931947C2.88305 0.355408 3.66471 0 4.52058 0C5.38101 0 6.16039 0.355408 6.72878 0.931947V0.934269H6.73105C7.29539 1.50875 7.64482 2.30657 7.64482 3.17751C7.64482 4.0531 7.29539 4.84402 6.73105 5.42086L6.72878 5.42541C6.30772 5.85167 5.77051 6.15713 5.17027 6.28922V7.98095ZM13.2865 6.85248L13.2744 6.83395C13.0751 6.49238 12.7572 6.26434 12.4054 6.16607C12.0423 6.06803 11.6512 6.10909 11.3032 6.31226H11.3054C10.9582 6.51272 10.726 6.84081 10.6287 7.20807C10.5333 7.57281 10.575 7.97603 10.7745 8.32718L10.7812 8.33625C10.9812 8.68277 11.2995 8.91531 11.6549 9.00895C12.0118 9.11163 12.4099 9.06825 12.7527 8.86508L12.7713 8.85601C13.1089 8.65104 13.3337 8.32718 13.4275 7.97149C13.5233 7.60453 13.485 7.20354 13.2865 6.85248Z" fill="white"/>
<path d="M30.8467 18L26.5427 13.024V18H24.7187V6.88H26.5427V11.952L30.8627 6.88H33.1507L28.3187 12.448L33.2307 18H30.8467ZM34.5557 13.552C34.5557 12.6667 34.737 11.8827 35.0997 11.2C35.473 10.5173 35.9744 9.98933 36.6037 9.616C37.2437 9.232 37.9477 9.04 38.7157 9.04C39.409 9.04 40.0117 9.17867 40.5237 9.456C41.0464 9.72267 41.4624 10.0587 41.7717 10.464V9.184H43.6117V18H41.7717V16.688C41.4624 17.104 41.041 17.4507 40.5077 17.728C39.9744 18.0053 39.3664 18.144 38.6837 18.144C37.9264 18.144 37.233 17.952 36.6037 17.568C35.9744 17.1733 35.473 16.6293 35.0997 15.936C34.737 15.232 34.5557 14.4373 34.5557 13.552ZM41.7717 13.584C41.7717 12.976 41.6437 12.448 41.3877 12C41.1424 11.552 40.817 11.2107 40.4117 10.976C40.0064 10.7413 39.569 10.624 39.0997 10.624C38.6304 10.624 38.193 10.7413 37.7877 10.976C37.3824 11.2 37.0517 11.536 36.7957 11.984C36.5504 12.4213 36.4277 12.944 36.4277 13.552C36.4277 14.16 36.5504 14.6933 36.7957 15.152C37.0517 15.6107 37.3824 15.9627 37.7877 16.208C38.2037 16.4427 38.641 16.56 39.0997 16.56C39.569 16.56 40.0064 16.4427 40.4117 16.208C40.817 15.9733 41.1424 15.632 41.3877 15.184C41.6437 14.7253 41.7717 14.192 41.7717 13.584ZM50.0234 10.672H48.3914V18H46.5514V10.672H45.5114V9.184H46.5514V8.56C46.5514 7.54667 46.8181 6.81067 47.3514 6.352C47.8954 5.88267 48.7434 5.648 49.8954 5.648V7.168C49.3408 7.168 48.9514 7.27467 48.7274 7.488C48.5034 7.69067 48.3914 8.048 48.3914 8.56V9.184H50.0234V10.672ZM55.4479 13.6L59.5119 18H57.0479L53.7839 14.208V18H51.9599V6.16H53.7839V13.04L56.9839 9.184H59.5119L55.4479 13.6ZM60.5313 13.552C60.5313 12.6667 60.7126 11.8827 61.0753 11.2C61.4486 10.5173 61.95 9.98933 62.5793 9.616C63.2193 9.232 63.9233 9.04 64.6913 9.04C65.3846 9.04 65.9873 9.17867 66.4993 9.456C67.022 9.72267 67.438 10.0587 67.7473 10.464V9.184H69.5873V18H67.7473V16.688C67.438 17.104 67.0166 17.4507 66.4833 17.728C65.95 18.0053 65.342 18.144 64.6593 18.144C63.902 18.144 63.2086 17.952 62.5793 17.568C61.95 17.1733 61.4486 16.6293 61.0753 15.936C60.7126 15.232 60.5313 14.4373 60.5313 13.552ZM67.7473 13.584C67.7473 12.976 67.6193 12.448 67.3633 12C67.118 11.552 66.7926 11.2107 66.3873 10.976C65.982 10.7413 65.5446 10.624 65.0753 10.624C64.606 10.624 64.1686 10.7413 63.7633 10.976C63.358 11.2 63.0273 11.536 62.7713 11.984C62.526 12.4213 62.4033 12.944 62.4033 13.552C62.4033 14.16 62.526 14.6933 62.7713 15.152C63.0273 15.6107 63.358 15.9627 63.7633 16.208C64.1793 16.4427 64.6166 16.56 65.0753 16.56C65.5446 16.56 65.982 16.4427 66.3873 16.208C66.7926 15.9733 67.118 15.632 67.3633 15.184C67.6193 14.7253 67.7473 14.192 67.7473 13.584Z" fill="#F4F4F5"/>
</svg>
