<svg width="79" height="24" viewBox="0 0 79 24" fill="none" xmlns="http://www.w3.org/2000/svg">
<path d="M0 24.0009L12.04 11.9609L24 24.0009H0Z" fill="white"/>
<path d="M0 0H12.04L0 13V0Z" fill="white"/>
<path d="M12.04 0L0 12.68V24L12.04 11.96L24 0H12.04Z" fill="url(#paint0_linear_3116_15794)"/>
<path d="M39.4733 18L35.1693 13.024V18H33.3453V6.88H35.1693V11.952L39.4893 6.88H41.7773L36.9453 12.448L41.8573 18H39.4733ZM47.6143 18.144C46.7823 18.144 46.0303 17.9573 45.3583 17.584C44.6863 17.2 44.1583 16.6667 43.7743 15.984C43.3903 15.2907 43.1983 14.4907 43.1983 13.584C43.1983 12.688 43.3956 11.8933 43.7903 11.2C44.185 10.5067 44.7236 9.97333 45.4063 9.6C46.089 9.22667 46.8516 9.04 47.6943 9.04C48.537 9.04 49.2996 9.22667 49.9823 9.6C50.665 9.97333 51.2036 10.5067 51.5983 11.2C51.993 11.8933 52.1903 12.688 52.1903 13.584C52.1903 14.48 51.9876 15.2747 51.5823 15.968C51.177 16.6613 50.6223 17.2 49.9183 17.584C49.225 17.9573 48.457 18.144 47.6143 18.144ZM47.6143 16.56C48.0836 16.56 48.521 16.448 48.9263 16.224C49.3423 16 49.6783 15.664 49.9343 15.216C50.1903 14.768 50.3183 14.224 50.3183 13.584C50.3183 12.944 50.1956 12.4053 49.9503 11.968C49.705 11.52 49.3796 11.184 48.9743 10.96C48.569 10.736 48.1316 10.624 47.6623 10.624C47.193 10.624 46.7556 10.736 46.3503 10.96C45.9556 11.184 45.641 11.52 45.4063 11.968C45.1716 12.4053 45.0543 12.944 45.0543 13.584C45.0543 14.5333 45.2943 15.2693 45.7743 15.792C46.265 16.304 46.8783 16.56 47.6143 16.56ZM56.4414 10.672V15.552C56.4414 15.8827 56.5161 16.1227 56.6654 16.272C56.8254 16.4107 57.0921 16.48 57.4654 16.48H58.5854V18H57.1454C56.3241 18 55.6948 17.808 55.2574 17.424C54.8201 17.04 54.6014 16.416 54.6014 15.552V10.672H53.5614V9.184H54.6014V6.992H56.4414V9.184H58.5854V10.672H56.4414ZM62.4106 6.16V18H60.5866V6.16H62.4106ZM66.0533 8.016C65.7226 8.016 65.4453 7.904 65.2213 7.68C64.9973 7.456 64.8853 7.17867 64.8853 6.848C64.8853 6.51733 64.9973 6.24 65.2213 6.016C65.4453 5.792 65.7226 5.68 66.0533 5.68C66.3733 5.68 66.6453 5.792 66.8693 6.016C67.0933 6.24 67.2053 6.51733 67.2053 6.848C67.2053 7.17867 67.0933 7.456 66.8693 7.68C66.6453 7.904 66.3733 8.016 66.0533 8.016ZM66.9493 9.184V18H65.1253V9.184H66.9493ZM74.1121 9.04C74.8054 9.04 75.4241 9.184 75.9681 9.472C76.5227 9.76 76.9547 10.1867 77.2641 10.752C77.5734 11.3173 77.7281 12 77.7281 12.8V18H75.9201V13.072C75.9201 12.2827 75.7227 11.68 75.3281 11.264C74.9334 10.8373 74.3947 10.624 73.7121 10.624C73.0294 10.624 72.4854 10.8373 72.0801 11.264C71.6854 11.68 71.4881 12.2827 71.4881 13.072V18H69.6641V9.184H71.4881V10.192C71.7867 9.82933 72.1654 9.54667 72.6241 9.344C73.0934 9.14133 73.5894 9.04 74.1121 9.04Z" fill="#F4F4F5"/>
<defs>
<linearGradient id="paint0_linear_3116_15794" x1="2.64001" y1="11.9998" x2="21.36" y2="11.9998" gradientUnits="userSpaceOnUse">
<stop stop-color="white" stop-opacity="0.5"/>
<stop offset="0.5" stop-color="white" stop-opacity="0.82"/>
<stop offset="1" stop-color="white" stop-opacity="0.64"/>
</linearGradient>
</defs>
</svg>
