<svg width="129" height="24" viewBox="0 0 129 24" fill="none" xmlns="http://www.w3.org/2000/svg">
<path fill-rule="evenodd" clip-rule="evenodd" d="M22.0192 4.28722C22.4451 4.51436 22.7858 4.88346 22.9277 5.33773L25.0855 14.622C25.1423 15.1046 25.0287 15.5873 24.7448 15.9848L18.7541 23.3952C18.4418 23.821 17.9591 24.0482 17.448 23.9914H7.90825C7.42559 23.963 6.94292 23.7359 6.60221 23.3952L0.611463 15.9848C0.327541 15.5873 0.213972 15.1046 0.299149 14.622L2.42856 5.28095C2.54213 4.79828 2.85445 4.42918 3.28033 4.23044L11.9399 0.0567844C12.1671 0 12.4226 0 12.6497 0C12.8769 0 13.1324 0.0283922 13.3596 0.141961L22.0192 4.28722ZM21.5365 14.2245C21.5365 14.2529 21.5649 14.2529 21.5933 14.2529C21.8489 14.3097 22.076 14.5369 22.1044 14.8492C22.0192 15.0763 21.7921 15.2467 21.5365 15.2467C21.4798 15.2467 21.4514 15.2467 21.3946 15.2183C21.3783 15.2019 21.3713 15.195 21.363 15.1921C21.3568 15.1899 21.3499 15.1899 21.3378 15.1899C21.3045 15.1899 21.281 15.1801 21.2615 15.1721C21.2477 15.1664 21.236 15.1615 21.2242 15.1615C21.14 15.1404 21.0714 15.1038 20.9952 15.0631C20.9687 15.0489 20.9413 15.0342 20.9119 15.0195C20.8551 15.0195 20.7983 14.9911 20.7416 14.9627H20.7132C20.4292 14.8492 20.1169 14.764 19.8046 14.7072H19.7762C19.691 14.7072 19.6059 14.7356 19.5491 14.7924C19.5491 14.7924 19.5491 14.8208 19.5207 14.8208L19.2936 14.7924C18.7825 16.4107 17.6752 17.7736 16.2272 18.6537L16.3124 18.8809C16.3124 18.8809 16.284 18.8809 16.284 18.9093C16.2272 18.9944 16.2272 19.108 16.2556 19.1932C16.3692 19.4771 16.5111 19.761 16.7099 20.0166V20.0733L16.7099 20.0734C16.7667 20.1301 16.795 20.1585 16.8234 20.2153C16.9086 20.3005 16.9654 20.3857 17.0222 20.4992C17.0506 20.5276 17.079 20.556 17.079 20.5844C17.079 20.5844 17.1074 20.5844 17.1074 20.6128C17.1641 20.7547 17.1641 20.8967 17.1357 21.0387C17.1074 21.1806 16.9938 21.2942 16.8802 21.351C16.8624 21.3569 16.8459 21.3628 16.8301 21.3685C16.7701 21.39 16.7205 21.4078 16.6531 21.4078C16.4259 21.4078 16.2272 21.2658 16.1136 21.0671C16.0852 21.0671 16.0852 21.0387 16.0852 21.0387C16.071 21.0245 16.0639 21.0103 16.0568 20.9961C16.0497 20.9819 16.0427 20.9677 16.0285 20.9535C15.9717 20.8683 15.9433 20.7547 15.9149 20.6412L15.8581 20.4708V20.4424C15.7729 20.1301 15.631 19.8462 15.489 19.5623C15.4322 19.4771 15.347 19.4203 15.2619 19.3919C15.2619 19.3635 15.2619 19.3635 15.2335 19.3635L15.1199 19.1648C15.0477 19.1865 14.9736 19.21 14.8981 19.2339C14.677 19.3041 14.4442 19.378 14.2114 19.4203C13.7003 19.5623 13.1892 19.6191 12.6782 19.6191C11.8264 19.6191 11.003 19.4771 10.2081 19.1648L10.0945 19.3919C10.0945 19.4061 10.0945 19.4132 10.0909 19.4168C10.0874 19.4203 10.0803 19.4203 10.0661 19.4203C9.98092 19.4487 9.89574 19.5055 9.83896 19.5907C9.697 19.8746 9.55504 20.1585 9.46986 20.4708L9.41308 20.6412C9.39888 20.698 9.37759 20.7477 9.35629 20.7973C9.335 20.847 9.3137 20.8967 9.29951 20.9535C9.27111 20.9819 9.24272 21.0103 9.24272 21.0387C9.21433 21.0387 9.21433 21.0671 9.21433 21.0671C9.10076 21.2658 8.90202 21.4078 8.67488 21.4078C8.61809 21.4078 8.53292 21.3794 8.47613 21.351C8.2206 21.209 8.10704 20.8683 8.249 20.5844C8.27739 20.5844 8.27739 20.556 8.27739 20.556C8.29158 20.5418 8.29868 20.5276 8.30578 20.5134C8.31288 20.4992 8.31998 20.485 8.33417 20.4708C8.37152 20.421 8.4034 20.3712 8.43223 20.3262C8.46914 20.2686 8.50103 20.2188 8.53292 20.1869C8.5897 20.1301 8.61809 20.1017 8.64649 20.0449V20.0166C8.81684 19.761 8.98719 19.4771 9.10076 19.1932C9.12915 19.108 9.12915 18.9944 9.07237 18.9093C9.07237 18.9093 9.04398 18.9093 9.04398 18.8809L9.18594 18.6821C8.90202 18.5402 8.67488 18.3698 8.41935 18.1711C7.31205 17.3193 6.51707 16.1552 6.09119 14.8492L5.83566 14.8776C5.83566 14.8776 5.83566 14.8492 5.80727 14.8492C5.75048 14.7924 5.66531 14.764 5.58013 14.764H5.55174C5.21103 14.8208 4.92711 14.906 4.6148 15.0195H4.5864C4.52962 15.0195 4.47284 15.0479 4.41605 15.0763C4.38434 15.0869 4.3487 15.1014 4.31059 15.1169C4.24632 15.143 4.17503 15.1721 4.10374 15.1899C4.09514 15.1899 4.08134 15.1873 4.06627 15.1844C4.03157 15.1779 3.99017 15.1701 3.99017 15.1899C3.99017 15.2183 3.99017 15.2183 3.96178 15.2183C3.90499 15.2467 3.8766 15.2467 3.81982 15.2467C3.56429 15.2751 3.30876 15.1047 3.25197 14.8492C3.19519 14.5369 3.39393 14.2529 3.70625 14.1962C3.73464 14.1678 3.73464 14.1678 3.76303 14.1678C3.79629 14.1678 3.81982 14.158 3.8393 14.1499C3.85308 14.1442 3.86484 14.1394 3.8766 14.1394C3.93338 14.1394 3.99017 14.1323 4.04695 14.1252C4.10374 14.1181 4.16052 14.111 4.21731 14.111C4.27409 14.0826 4.33087 14.0826 4.38766 14.0826C4.72836 14.0542 5.04068 13.9974 5.35299 13.9122C5.43817 13.8554 5.52335 13.7987 5.55174 13.7135C5.55174 13.7135 5.58013 13.7135 5.58013 13.6851L5.80727 13.6283C5.55174 12.01 5.92084 10.3632 6.80099 8.97199C6.81519 8.9436 6.82939 8.92231 6.84358 8.90101C6.85778 8.87972 6.87197 8.85842 6.88617 8.83003L6.72136 8.66522C6.73431 8.58353 6.68248 8.48438 6.63064 8.43254C6.4035 8.2054 6.11958 8.03505 5.83566 7.8647L5.66531 7.77952C5.55174 7.72274 5.43817 7.66595 5.35299 7.60917C5.3246 7.60917 5.26782 7.55238 5.26782 7.55238C5.26782 7.55238 5.26782 7.52399 5.23942 7.52399C5.01229 7.32524 4.9555 6.98454 5.12586 6.72901C5.21103 6.58705 5.35299 6.53026 5.52335 6.53026C5.66531 6.53026 5.80727 6.58705 5.92084 6.67222L5.94923 6.70062C5.96343 6.71481 5.97762 6.72191 5.99182 6.72901C6.00601 6.73611 6.02021 6.74321 6.03441 6.7574C6.07699 6.79999 6.11248 6.84258 6.14797 6.88517C6.18346 6.92775 6.21896 6.97034 6.26154 7.01293C6.27014 7.02153 6.28134 7.03012 6.29357 7.03951C6.32172 7.06112 6.35532 7.08691 6.37511 7.1265C6.57386 7.35364 6.82939 7.58077 7.08492 7.77952C7.1417 7.80791 7.19849 7.8363 7.25527 7.8363C7.28853 7.8363 7.31205 7.82656 7.33154 7.81849C7.34532 7.81278 7.35708 7.80791 7.36884 7.80791H7.39723L7.56758 7.92148C8.50453 6.92775 9.72539 6.21795 11.0598 5.93403C11.109 5.92583 11.1576 5.91763 11.2057 5.90952C11.4907 5.86144 11.7579 5.81636 12.0252 5.79207L12.0535 5.56493V5.50814C12.1387 5.45136 12.1671 5.36618 12.1955 5.28101C12.1955 4.9403 12.1955 4.62799 12.1387 4.31567V4.28728C12.1387 4.2305 12.1387 4.17371 12.1103 4.11693L12.1103 4.11692C12.0819 4.00335 12.0535 3.88979 12.0535 3.77622V3.63426C12.0535 3.4923 12.1103 3.35034 12.2239 3.23677C12.3659 3.09481 12.5362 3.00963 12.7066 3.03802C12.9905 3.06642 13.2176 3.35034 13.1892 3.63426V3.80461C13.175 3.8614 13.1679 3.91818 13.1608 3.97497C13.1537 4.03175 13.1466 4.08854 13.1325 4.14532C13.1325 4.17371 13.1254 4.2021 13.1183 4.2305C13.1112 4.25889 13.1041 4.28728 13.1041 4.31567V4.34407C13.0473 4.68477 13.0473 4.99709 13.0473 5.3094C13.0757 5.39458 13.1041 5.47975 13.1892 5.53654V5.50814L13.2176 5.73528C14.5521 5.87724 15.8581 6.3883 16.9086 7.21168C17.0222 7.32525 17.1429 7.43882 17.2635 7.55239C17.3842 7.66596 17.5049 7.77952 17.6184 7.89309L17.8456 7.75113H17.8739C17.9023 7.77952 17.9591 7.77952 17.9875 7.77952C18.0443 7.77952 18.1011 7.75113 18.1579 7.72274C18.4134 7.55238 18.6689 7.32524 18.8677 7.09811C18.8763 7.08951 18.8875 7.08091 18.8997 7.07153C18.9278 7.04992 18.9614 7.02413 18.9812 6.98454C19.038 6.89936 19.1232 6.81419 19.2084 6.72901C19.2368 6.72901 19.2652 6.70062 19.2936 6.67222L19.3219 6.64383C19.4355 6.55866 19.5775 6.50187 19.7194 6.50187C19.8614 6.50187 20.0318 6.58705 20.1169 6.70062C20.3157 6.95615 20.2589 7.29685 20.0034 7.4956C20.0034 7.50644 20.0075 7.51314 20.011 7.51887C20.0168 7.52813 20.0209 7.53483 20.0034 7.55238C19.9892 7.56658 19.975 7.57368 19.9608 7.58077C19.9466 7.58787 19.9324 7.59497 19.9182 7.60917C19.8614 7.63756 19.8117 7.66595 19.762 7.69435C19.7123 7.72274 19.6627 7.75113 19.6059 7.77952L19.4355 7.8647C19.1516 8.03505 18.8961 8.2054 18.6405 8.43254C18.5838 8.48932 18.5554 8.60289 18.5554 8.68807V8.71646L18.385 8.88682C18.8393 9.59662 19.18 10.3916 19.3787 11.215C19.5491 12.0383 19.6059 12.8901 19.4923 13.7135L19.7194 13.7703C19.7478 13.8554 19.833 13.9406 19.9182 13.969C20.2305 14.0542 20.5712 14.111 20.8835 14.1394H20.9119C20.9687 14.1678 21.0255 14.1678 21.0823 14.1678C21.1958 14.1678 21.3094 14.1678 21.423 14.1962C21.4798 14.1962 21.5365 14.1962 21.5365 14.2245ZM6.72136 8.66522L6.71582 8.65968V8.68807C6.71829 8.68065 6.72012 8.67301 6.72136 8.66522ZM12.6214 13.7419L13.388 13.3728L13.5867 12.5494L13.0473 11.868H12.1955L11.6561 12.5494L11.8548 13.3728L12.6214 13.7419ZM18.1295 13.316C18.1863 12.7198 18.1579 12.1235 18.0159 11.5273C17.8739 10.9311 17.6468 10.3632 17.3345 9.85215L15.2051 11.7828C15.1483 11.8396 15.1199 11.8964 15.0915 11.9816C15.0347 12.2371 15.1767 12.4926 15.4322 12.5494L18.1295 13.316ZM14.1546 10.4484L16.4827 8.80164C15.631 7.94987 14.5237 7.41042 13.2744 7.26846L13.4448 10.1361C13.4448 10.2212 13.4732 10.278 13.5299 10.3348C13.6719 10.5336 13.9558 10.562 14.1546 10.4484ZM11.9116 7.24007L11.3437 7.35364C10.35 7.58077 9.44147 8.09183 8.70327 8.80164L11.0598 10.4768C11.0776 10.4827 11.0941 10.4886 11.11 10.4943C11.1699 10.5158 11.2196 10.5336 11.287 10.5336C11.5425 10.5336 11.7696 10.3348 11.7696 10.0793L11.9116 7.24007ZM9.98092 11.726L7.8799 9.85215C7.25527 10.9027 6.97135 12.1235 7.05652 13.316L9.81057 12.521C9.92414 12.4926 9.98092 12.4642 10.0377 12.3791C10.2081 12.1803 10.1797 11.8964 9.98092 11.726ZM10.2081 14.1678L7.39723 14.6504C7.79472 15.7861 8.5897 16.7798 9.58343 17.4329L10.6623 14.8208C10.7191 14.7356 10.7191 14.622 10.6907 14.5369C10.6623 14.3097 10.4352 14.1678 10.2081 14.1678ZM12.6214 18.313C13.0473 18.313 13.4448 18.2562 13.8423 18.1711C14.041 18.1143 14.2113 18.0859 14.3817 18.0575L14.3817 18.0575L13.0189 15.5874L13.0189 15.5874C12.9337 15.5022 12.8769 15.4454 12.7917 15.3886C12.593 15.2751 12.3659 15.3318 12.2239 15.5022L10.8327 18.0291C11.4005 18.1995 12.0252 18.313 12.6214 18.313ZM15.6026 17.4045C16.284 16.9786 16.8802 16.3824 17.3061 15.7009C17.5332 15.3886 17.7036 15.0195 17.8456 14.622L15.0063 14.1394C14.9212 14.1394 14.836 14.1678 14.7508 14.1962C14.5521 14.2813 14.4385 14.5085 14.4953 14.7356L15.6026 17.4045Z" fill="white"/>
<path d="M40.4798 18L36.1758 13.024V18H34.3518V6.88H36.1758V11.952L40.4958 6.88H42.7838L37.9518 12.448L42.8638 18H40.4798ZM52.7808 9.184V18H50.9568V16.96C50.6688 17.3227 50.2901 17.6107 49.8208 17.824C49.3621 18.0267 48.8715 18.128 48.3488 18.128C47.6555 18.128 47.0315 17.984 46.4768 17.696C45.9328 17.408 45.5008 16.9813 45.1808 16.416C44.8715 15.8507 44.7168 15.168 44.7168 14.368V9.184H46.5248V14.096C46.5248 14.8853 46.7221 15.4933 47.1168 15.92C47.5115 16.336 48.0501 16.544 48.7328 16.544C49.4155 16.544 49.9541 16.336 50.3488 15.92C50.7541 15.4933 50.9568 14.8853 50.9568 14.096V9.184H52.7808ZM57.3314 10.496C57.6408 10.0693 58.0621 9.72267 58.5954 9.456C59.1394 9.17867 59.7421 9.04 60.4034 9.04C61.1821 9.04 61.8861 9.22667 62.5154 9.6C63.1448 9.97333 63.6408 10.5067 64.0034 11.2C64.3661 11.8827 64.5474 12.6667 64.5474 13.552C64.5474 14.4373 64.3661 15.232 64.0034 15.936C63.6408 16.6293 63.1394 17.1733 62.4994 17.568C61.8701 17.952 61.1714 18.144 60.4034 18.144C59.7208 18.144 59.1128 18.0107 58.5794 17.744C58.0568 17.4773 57.6408 17.136 57.3314 16.72V18H55.5074V6.16H57.3314V10.496ZM62.6914 13.552C62.6914 12.944 62.5634 12.4213 62.3074 11.984C62.0621 11.536 61.7314 11.2 61.3154 10.976C60.9101 10.7413 60.4728 10.624 60.0034 10.624C59.5448 10.624 59.1074 10.7413 58.6914 10.976C58.2861 11.2107 57.9554 11.552 57.6994 12C57.4541 12.448 57.3314 12.976 57.3314 13.584C57.3314 14.192 57.4541 14.7253 57.6994 15.184C57.9554 15.632 58.2861 15.9733 58.6914 16.208C59.1074 16.4427 59.5448 16.56 60.0034 16.56C60.4728 16.56 60.9101 16.4427 61.3154 16.208C61.7314 15.9627 62.0621 15.6107 62.3074 15.152C62.5634 14.6933 62.6914 14.16 62.6914 13.552ZM74.7512 13.376C74.7512 13.7067 74.7298 14.0053 74.6872 14.272H67.9512C68.0045 14.976 68.2658 15.5413 68.7352 15.968C69.2045 16.3947 69.7805 16.608 70.4632 16.608C71.4445 16.608 72.1378 16.1973 72.5432 15.376H74.5112C74.2445 16.1867 73.7592 16.8533 73.0552 17.376C72.3618 17.888 71.4978 18.144 70.4632 18.144C69.6205 18.144 68.8632 17.9573 68.1912 17.584C67.5298 17.2 67.0072 16.6667 66.6232 15.984C66.2498 15.2907 66.0632 14.4907 66.0632 13.584C66.0632 12.6773 66.2445 11.8827 66.6072 11.2C66.9805 10.5067 67.4978 9.97333 68.1592 9.6C68.8312 9.22667 69.5992 9.04 70.4632 9.04C71.2952 9.04 72.0365 9.22133 72.6872 9.584C73.3378 9.94667 73.8445 10.4587 74.2072 11.12C74.5698 11.7707 74.7512 12.5227 74.7512 13.376ZM72.8472 12.8C72.8365 12.128 72.5965 11.5893 72.1272 11.184C71.6578 10.7787 71.0765 10.576 70.3832 10.576C69.7538 10.576 69.2152 10.7787 68.7672 11.184C68.3192 11.5787 68.0525 12.1173 67.9672 12.8H72.8472ZM78.6902 10.464C78.9568 10.016 79.3088 9.66933 79.7462 9.424C80.1942 9.168 80.7222 9.04 81.3302 9.04V10.928H80.8662C80.1515 10.928 79.6075 11.1093 79.2342 11.472C78.8715 11.8347 78.6902 12.464 78.6902 13.36V18H76.8662V9.184H78.6902V10.464ZM87.7748 9.04C88.4681 9.04 89.0868 9.184 89.6308 9.472C90.1855 9.76 90.6175 10.1867 90.9268 10.752C91.2361 11.3173 91.3908 12 91.3908 12.8V18H89.5828V13.072C89.5828 12.2827 89.3855 11.68 88.9908 11.264C88.5961 10.8373 88.0575 10.624 87.3748 10.624C86.6921 10.624 86.1481 10.8373 85.7428 11.264C85.3481 11.68 85.1508 12.2827 85.1508 13.072V18H83.3268V9.184H85.1508V10.192C85.4495 9.82933 85.8281 9.54667 86.2868 9.344C86.7561 9.14133 87.2521 9.04 87.7748 9.04ZM102.117 13.376C102.117 13.7067 102.096 14.0053 102.053 14.272H95.3174C95.3708 14.976 95.6321 15.5413 96.1014 15.968C96.5708 16.3947 97.1468 16.608 97.8294 16.608C98.8108 16.608 99.5041 16.1973 99.9094 15.376H101.877C101.611 16.1867 101.125 16.8533 100.421 17.376C99.7281 17.888 98.8641 18.144 97.8294 18.144C96.9868 18.144 96.2294 17.9573 95.5574 17.584C94.8961 17.2 94.3734 16.6667 93.9894 15.984C93.6161 15.2907 93.4294 14.4907 93.4294 13.584C93.4294 12.6773 93.6108 11.8827 93.9734 11.2C94.3468 10.5067 94.8641 9.97333 95.5254 9.6C96.1974 9.22667 96.9654 9.04 97.8294 9.04C98.6614 9.04 99.4028 9.22133 100.053 9.584C100.704 9.94667 101.211 10.4587 101.573 11.12C101.936 11.7707 102.117 12.5227 102.117 13.376ZM100.213 12.8C100.203 12.128 99.9628 11.5893 99.4934 11.184C99.0241 10.7787 98.4428 10.576 97.7494 10.576C97.1201 10.576 96.5814 10.7787 96.1334 11.184C95.6854 11.5787 95.4188 12.1173 95.3334 12.8H100.213ZM106.36 10.672V15.552C106.36 15.8827 106.435 16.1227 106.584 16.272C106.744 16.4107 107.011 16.48 107.384 16.48H108.504V18H107.064C106.243 18 105.614 17.808 105.176 17.424C104.739 17.04 104.52 16.416 104.52 15.552V10.672H103.48V9.184H104.52V6.992H106.36V9.184H108.504V10.672H106.36ZM118.586 13.376C118.586 13.7067 118.564 14.0053 118.522 14.272H111.786C111.839 14.976 112.1 15.5413 112.57 15.968C113.039 16.3947 113.615 16.608 114.298 16.608C115.279 16.608 115.972 16.1973 116.378 15.376H118.346C118.079 16.1867 117.594 16.8533 116.89 17.376C116.196 17.888 115.332 18.144 114.298 18.144C113.455 18.144 112.698 17.9573 112.026 17.584C111.364 17.2 110.842 16.6667 110.458 15.984C110.084 15.2907 109.898 14.4907 109.898 13.584C109.898 12.6773 110.079 11.8827 110.442 11.2C110.815 10.5067 111.332 9.97333 111.994 9.6C112.666 9.22667 113.434 9.04 114.298 9.04C115.13 9.04 115.871 9.22133 116.522 9.584C117.172 9.94667 117.679 10.4587 118.042 11.12C118.404 11.7707 118.586 12.5227 118.586 13.376ZM116.682 12.8C116.671 12.128 116.431 11.5893 115.962 11.184C115.492 10.7787 114.911 10.576 114.218 10.576C113.588 10.576 113.05 10.7787 112.602 11.184C112.154 11.5787 111.887 12.1173 111.802 12.8H116.682ZM123.901 18.144C123.207 18.144 122.583 18.0213 122.029 17.776C121.485 17.52 121.053 17.1787 120.733 16.752C120.413 16.3147 120.242 15.8293 120.221 15.296H122.109C122.141 15.6693 122.317 15.984 122.637 16.24C122.967 16.4853 123.378 16.608 123.869 16.608C124.381 16.608 124.775 16.512 125.053 16.32C125.341 16.1173 125.485 15.8613 125.485 15.552C125.485 15.2213 125.325 14.976 125.005 14.816C124.695 14.656 124.199 14.48 123.517 14.288C122.855 14.1067 122.317 13.9307 121.901 13.76C121.485 13.5893 121.122 13.328 120.813 12.976C120.514 12.624 120.365 12.16 120.365 11.584C120.365 11.1147 120.503 10.688 120.781 10.304C121.058 9.90933 121.453 9.6 121.965 9.376C122.487 9.152 123.085 9.04 123.757 9.04C124.759 9.04 125.565 9.296 126.173 9.808C126.791 10.3093 127.122 10.9973 127.165 11.872H125.341C125.309 11.4773 125.149 11.1627 124.861 10.928C124.573 10.6933 124.183 10.576 123.693 10.576C123.213 10.576 122.845 10.6667 122.589 10.848C122.333 11.0293 122.205 11.2693 122.205 11.568C122.205 11.8027 122.29 12 122.461 12.16C122.631 12.32 122.839 12.448 123.085 12.544C123.33 12.6293 123.693 12.7413 124.173 12.88C124.813 13.0507 125.335 13.2267 125.741 13.408C126.157 13.5787 126.514 13.8347 126.813 14.176C127.111 14.5173 127.266 14.9707 127.277 15.536C127.277 16.0373 127.138 16.4853 126.861 16.88C126.583 17.2747 126.189 17.584 125.677 17.808C125.175 18.032 124.583 18.144 123.901 18.144Z" fill="#F4F4F5"/>
</svg>
