<svg width="118" height="24" viewBox="0 0 118 24" fill="none" xmlns="http://www.w3.org/2000/svg">
<path d="M17.4455 12.3347C17.3917 12.3347 17.3648 12.3347 17.3111 12.3078C17.1767 12.281 17.0961 12.2003 17.0155 12.0928C16.9617 11.9853 16.9348 11.8509 16.9617 11.7166C17.0155 11.5016 17.2036 11.3672 17.4186 11.3672C17.4724 11.3672 17.4992 11.3672 17.553 11.3941C17.8217 11.4747 17.9561 11.7166 17.9024 11.9853C17.8486 12.2003 17.6605 12.3347 17.4455 12.3347Z" fill="url(#paint0_linear_3116_15634)"/>
<path d="M17.3113 12.3097C17.5531 12.3904 17.8219 12.2291 17.9025 11.9872C17.9831 11.7454 17.8219 11.4766 17.58 11.396C17.3381 11.3153 17.0694 11.4766 16.9887 11.7185C16.9081 11.9872 17.0694 12.256 17.3113 12.3097Z" fill="url(#paint1_linear_3116_15634)"/>
<path d="M16.7736 10.1316C16.5586 10.1316 16.3705 9.99721 16.3167 9.7822C16.2361 9.51345 16.3974 9.27157 16.6661 9.19094C16.7199 9.19094 16.7467 9.16406 16.8005 9.16406C17.0155 9.16406 17.2036 9.29844 17.2574 9.51345C17.338 9.7822 17.1767 10.0241 16.908 10.1047C16.8542 10.1316 16.8005 10.1316 16.7736 10.1316Z" fill="url(#paint2_linear_3116_15634)"/>
<path d="M16.8818 10.1047C17.1236 10.024 17.2849 9.78216 17.2043 9.5134C17.1236 9.27152 16.8818 9.11027 16.613 9.1909C16.3711 9.27152 16.2099 9.5134 16.2905 9.78216C16.3711 10.024 16.6399 10.1853 16.8818 10.1047Z" fill="url(#paint3_linear_3116_15634)"/>
<path fill-rule="evenodd" clip-rule="evenodd" d="M15.1526 12.1748C14.9645 12.3629 14.7763 12.5511 14.5882 12.7392C14.4538 12.8736 14.2926 13.008 14.1313 13.1155C13.8894 13.2767 13.6207 13.2767 13.3519 13.1961C13.1369 13.1155 13.0294 12.9811 12.9757 12.7392C12.7069 12.9542 12.4382 13.223 12.035 13.2498C12.0082 13.4111 11.9813 13.5455 11.9275 13.7067C11.9006 13.7874 11.9006 13.8411 11.8738 13.9217C11.8738 14.0292 11.82 14.0561 11.7125 14.083C11.4706 14.1367 10.96 14.2711 10.9062 14.2711C11.2019 12.9273 11.4706 11.5567 11.7663 10.2129C12.0619 10.2129 12.3575 10.2129 12.6532 10.2129C12.5994 10.4279 12.1963 12.3629 12.1963 12.3898C12.1694 12.6317 12.3307 12.7661 12.5457 12.6854C12.68 12.6586 12.7875 12.5511 12.895 12.4973C12.9219 12.4973 12.9219 12.4436 12.9219 12.4167C13.0832 11.6911 13.2176 10.9923 13.3788 10.2666C13.3788 10.2398 13.3788 10.2398 13.4057 10.2129C13.7013 10.2129 13.9701 10.2129 14.2657 10.2129C14.212 10.4279 13.9163 11.8523 13.8088 12.3629C13.8088 12.3898 13.8088 12.4436 13.8088 12.4704C13.8088 12.5779 13.8626 12.6586 13.9701 12.6854C14.0776 12.7123 14.1582 12.7123 14.2657 12.6586C14.3463 12.6048 14.4538 12.5511 14.5345 12.4704C14.6151 12.3898 14.7226 12.3361 14.8032 12.2554C14.9376 12.1748 15.0182 12.1479 15.1526 12.1748Z" fill="url(#paint4_linear_3116_15634)"/>
<path d="M15.0795 8.54565C14.9451 8.54565 14.8376 8.4919 14.7301 8.41127C14.6226 8.33064 14.5957 8.19626 14.5957 8.06189C14.5957 7.92751 14.6495 7.82001 14.7301 7.7125C14.8107 7.63188 14.9451 7.57812 15.0795 7.57812C15.2138 7.57812 15.3213 7.63188 15.4288 7.7125C15.5095 7.79313 15.5632 7.92751 15.5632 8.06189C15.5632 8.19626 15.5095 8.30377 15.4288 8.41127C15.3213 8.4919 15.2138 8.54565 15.0795 8.54565Z" fill="url(#paint5_linear_3116_15634)"/>
<path d="M14.7583 7.74071C14.5702 7.92884 14.5702 8.22447 14.7583 8.4126C14.9464 8.60073 15.242 8.60073 15.4302 8.4126C15.6183 8.22447 15.6183 7.92884 15.4302 7.74071C15.242 7.55258 14.9464 7.55258 14.7583 7.74071Z" fill="url(#paint6_linear_3116_15634)"/>
<path d="M12.8226 8.03588C12.7688 8.03588 12.742 8.03588 12.6882 8.00901C12.4195 7.92838 12.2851 7.6865 12.3388 7.41774C12.3926 7.20274 12.5807 7.06836 12.7957 7.06836C12.8495 7.06836 12.8763 7.06836 12.9301 7.09524C13.0645 7.12211 13.172 7.20274 13.2257 7.31024C13.2795 7.41774 13.3064 7.55212 13.2795 7.6865C13.2526 7.87463 13.0645 8.03588 12.8226 8.03588Z" fill="url(#paint7_linear_3116_15634)"/>
<path d="M12.957 7.09519C12.7151 7.01457 12.4463 7.17582 12.3657 7.4177C12.2851 7.65958 12.4463 7.92834 12.6882 8.00896C12.9301 8.08959 13.1988 7.92834 13.2795 7.68646C13.3601 7.4177 13.1988 7.14894 12.957 7.09519Z" fill="url(#paint8_linear_3116_15634)"/>
<path d="M10.6193 8.68041C10.4043 8.68041 10.2162 8.54604 10.1624 8.33103C10.0818 8.06227 10.2431 7.82039 10.5118 7.73977C10.5656 7.73977 10.5924 7.71289 10.6462 7.71289C10.8612 7.71289 11.0493 7.84727 11.1031 8.06227C11.1837 8.33103 11.0224 8.57291 10.7537 8.65354C10.6999 8.68041 10.6731 8.68041 10.6193 8.68041Z" fill="url(#paint9_linear_3116_15634)"/>
<path d="M10.7538 8.68084C10.9957 8.60021 11.157 8.35833 11.0763 8.08958C10.9957 7.84769 10.7538 7.68644 10.4851 7.76707C10.2432 7.84769 10.0819 8.08958 10.1626 8.35833C10.2432 8.57334 10.4851 8.73459 10.7538 8.68084Z" fill="url(#paint10_linear_3116_15634)"/>
<path d="M9.03259 10.3738C8.89821 10.3738 8.79071 10.32 8.68321 10.2394C8.60258 10.1588 8.54883 10.0244 8.54883 9.89001C8.54883 9.75563 8.60258 9.64813 8.68321 9.54063C8.76383 9.46 8.89821 9.40625 9.03259 9.40625C9.16697 9.40625 9.27447 9.46 9.38197 9.54063C9.5701 9.72876 9.5701 10.0244 9.38197 10.2125C9.30135 10.32 9.16697 10.3738 9.03259 10.3738Z" fill="url(#paint11_linear_3116_15634)"/>
<path d="M8.71141 9.56688C8.52328 9.75501 8.52328 10.0506 8.71141 10.2388C8.89954 10.4269 9.19517 10.4269 9.3833 10.2388C9.57143 10.0506 9.57143 9.75501 9.3833 9.56688C9.19517 9.37875 8.89954 9.37875 8.71141 9.56688Z" fill="url(#paint12_linear_3116_15634)"/>
<path d="M8.52279 12.6316C8.46903 12.6316 8.44216 12.6316 8.38841 12.6047C8.11965 12.5241 7.98527 12.2822 8.03902 12.0134C8.09277 11.7984 8.2809 11.6641 8.49591 11.6641C8.54966 11.6641 8.57654 11.6641 8.63029 11.6909C8.89904 11.7716 9.03342 12.0134 8.97967 12.2822C8.92592 12.4703 8.73779 12.6316 8.52279 12.6316Z" fill="url(#paint13_linear_3116_15634)"/>
<path d="M8.62982 11.6909C8.38794 11.6103 8.11918 11.7715 8.03855 12.0134C7.95792 12.2553 8.11918 12.524 8.36106 12.6047C8.60294 12.6853 8.8717 12.524 8.95232 12.2822C9.03295 12.0134 8.89857 11.7446 8.62982 11.6909Z" fill="url(#paint14_linear_3116_15634)"/>
<path d="M9.16814 14.8347C8.95314 14.8347 8.76501 14.7003 8.71126 14.4853C8.63063 14.2166 8.79188 13.9747 9.06064 13.8941C9.11439 13.8941 9.14127 13.8672 9.19502 13.8672C9.41002 13.8672 9.59815 14.0016 9.6519 14.2166C9.73253 14.4853 9.57128 14.7272 9.30252 14.8078C9.27564 14.8347 9.22189 14.8347 9.16814 14.8347Z" fill="url(#paint15_linear_3116_15634)"/>
<path d="M9.06028 13.8946C8.8184 13.9752 8.65714 14.2171 8.73777 14.4858C8.8184 14.7277 9.06028 14.889 9.32903 14.8083C9.57092 14.7277 9.73217 14.4858 9.65154 14.2171C9.57092 13.9752 9.30216 13.8408 9.06028 13.8946Z" fill="url(#paint16_linear_3116_15634)"/>
<path d="M10.8607 16.4206C10.7263 16.4206 10.6188 16.3669 10.5113 16.2863C10.4307 16.2056 10.377 16.0713 10.377 15.9369C10.377 15.8025 10.4307 15.695 10.5113 15.5875C10.592 15.5069 10.7263 15.4531 10.8607 15.4531C10.9951 15.4531 11.1026 15.5069 11.2101 15.5875C11.3982 15.7756 11.3982 16.0713 11.2101 16.2594C11.1026 16.3669 10.9951 16.4206 10.8607 16.4206Z" fill="url(#paint17_linear_3116_15634)"/>
<path d="M11.2095 16.2603C11.3976 16.0721 11.3976 15.7765 11.2095 15.5884C11.0213 15.4002 10.7257 15.4002 10.5376 15.5884C10.3495 15.7765 10.3495 16.0721 10.5376 16.2603C10.7257 16.4484 11.0213 16.4484 11.2095 16.2603Z" fill="url(#paint18_linear_3116_15634)"/>
<path d="M13.1193 16.9597C13.0656 16.9597 13.0387 16.9597 12.9849 16.9328C12.8505 16.906 12.743 16.8253 12.6893 16.7178C12.6355 16.6103 12.6087 16.4759 12.6355 16.3416C12.6893 16.1266 12.8774 15.9922 13.0924 15.9922C13.1462 15.9922 13.1731 15.9922 13.2268 16.0191C13.3612 16.0459 13.4418 16.1266 13.5224 16.2341C13.5762 16.3416 13.6031 16.4759 13.5762 16.6103C13.5224 16.7985 13.3343 16.9597 13.1193 16.9597Z" fill="url(#paint19_linear_3116_15634)"/>
<path d="M12.9841 16.9308C13.226 17.0115 13.4947 16.8502 13.5754 16.6083C13.656 16.3665 13.4947 16.0977 13.2529 16.0171C13.011 15.9364 12.7422 16.0977 12.6616 16.3396C12.581 16.5815 12.7422 16.8502 12.9841 16.9308Z" fill="url(#paint20_linear_3116_15634)"/>
<path d="M15.3226 16.2859C15.1076 16.2859 14.9194 16.1515 14.8657 15.9365C14.8388 15.8021 14.8388 15.6946 14.9194 15.5602C14.9732 15.4527 15.0807 15.3721 15.2151 15.3452C15.2688 15.3452 15.2957 15.3184 15.3494 15.3184C15.5644 15.3184 15.7526 15.4527 15.8063 15.6677C15.887 15.9365 15.7257 16.1784 15.4569 16.259C15.4032 16.2859 15.3763 16.2859 15.3226 16.2859Z" fill="url(#paint21_linear_3116_15634)"/>
<path d="M15.2146 15.3452C14.9727 15.4258 14.8114 15.6677 14.8921 15.9365C14.9727 16.1783 15.2146 16.3396 15.4833 16.259C15.7252 16.1783 15.8865 15.9365 15.8058 15.6677C15.7252 15.4258 15.4565 15.2646 15.2146 15.3452Z" fill="url(#paint22_linear_3116_15634)"/>
<path d="M16.9084 14.593C16.7741 14.593 16.6666 14.5392 16.5591 14.4586C16.3709 14.2705 16.3709 13.9749 16.5591 13.7867C16.6397 13.7061 16.7741 13.6523 16.9084 13.6523C17.0428 13.6523 17.1503 13.7061 17.2578 13.7867C17.446 13.9749 17.446 14.2705 17.2578 14.4586C17.1503 14.5392 17.0428 14.593 16.9084 14.593Z" fill="url(#paint23_linear_3116_15634)"/>
<path d="M17.2573 14.4595C17.4455 14.2713 17.4455 13.9757 17.2573 13.7876C17.0692 13.5995 16.7736 13.5995 16.5854 13.7876C16.3973 13.9757 16.3973 14.2713 16.5854 14.4595C16.7467 14.6207 17.0692 14.6207 17.2573 14.4595Z" fill="url(#paint24_linear_3116_15634)"/>
<path d="M19.6754 12.5775C19.6216 12.5775 19.5679 12.5775 19.541 12.5507C19.2454 12.47 19.0572 12.1475 19.1379 11.8519C19.1916 11.61 19.4335 11.4219 19.6754 11.4219C19.7291 11.4219 19.7829 11.4219 19.8098 11.4488C20.1054 11.5294 20.2935 11.8519 20.2129 12.1475C20.1591 12.4163 19.9441 12.5775 19.6754 12.5775Z" fill="url(#paint25_linear_3116_15634)"/>
<path d="M19.8371 11.4758C19.5415 11.3951 19.2458 11.5833 19.1652 11.8789C19.0846 12.1745 19.2727 12.4702 19.5683 12.5508C19.864 12.6314 20.1596 12.4433 20.2402 12.1476C20.294 11.8789 20.1327 11.5564 19.8371 11.4758Z" fill="url(#paint26_linear_3116_15634)"/>
<path d="M18.788 9.21815C18.5461 9.21815 18.3042 9.0569 18.2504 8.78814C18.2236 8.65376 18.2236 8.49251 18.3042 8.35813C18.3848 8.22375 18.4923 8.14313 18.6536 8.08938C18.7073 8.08938 18.7611 8.0625 18.788 8.0625C19.0298 8.0625 19.2717 8.22375 19.3255 8.49251C19.3524 8.62689 19.3523 8.78814 19.2717 8.92252C19.1911 9.0569 19.0836 9.13753 18.9223 9.19128C18.8955 9.21815 18.8417 9.21815 18.788 9.21815Z" fill="url(#paint27_linear_3116_15634)"/>
<path d="M18.924 9.19141C19.2196 9.11078 19.4078 8.81515 19.3271 8.51952C19.2465 8.22388 18.9509 8.03576 18.6553 8.11638C18.3596 8.19701 18.1715 8.49264 18.2521 8.78827C18.3328 9.11078 18.6284 9.27203 18.924 9.19141Z" fill="url(#paint28_linear_3116_15634)"/>
<path d="M16.3437 6.77331C16.1824 6.77331 16.0481 6.71956 15.9406 6.61205C15.833 6.50455 15.7793 6.37017 15.7793 6.20892C15.7793 6.04767 15.833 5.91329 15.9406 5.80579C16.0481 5.69828 16.1824 5.64453 16.3437 5.64453C16.5049 5.64453 16.6393 5.69828 16.7468 5.80579C16.9618 6.02079 16.9618 6.37017 16.7468 6.61205C16.6393 6.71956 16.5049 6.77331 16.3437 6.77331Z" fill="url(#paint29_linear_3116_15634)"/>
<path d="M15.9406 6.58518C16.1556 6.80018 16.5049 6.80018 16.7199 6.58518C16.9349 6.37017 16.9349 6.02079 16.7199 5.80579C16.5049 5.59078 16.1556 5.59078 15.9406 5.80579C15.7255 6.02079 15.7255 6.37017 15.9406 6.58518Z" fill="url(#paint30_linear_3116_15634)"/>
<path d="M12.984 5.85878C12.9302 5.85878 12.8765 5.85878 12.8496 5.8319C12.554 5.75128 12.3658 5.42877 12.4465 5.13314C12.5002 4.89125 12.7421 4.70312 12.984 4.70312C13.0377 4.70312 13.0915 4.70313 13.1184 4.73C13.414 4.81063 13.6021 5.13314 13.5215 5.42877C13.4677 5.69752 13.2527 5.85878 12.984 5.85878Z" fill="url(#paint31_linear_3116_15634)"/>
<path d="M12.8496 5.83203C13.1452 5.91266 13.4409 5.72453 13.5215 5.4289C13.6021 5.13327 13.414 4.83763 13.1184 4.75701C12.8227 4.67638 12.5271 4.86451 12.4465 5.16014C12.3658 5.45577 12.554 5.75141 12.8496 5.83203Z" fill="url(#paint32_linear_3116_15634)"/>
<path d="M9.6246 6.7455C9.38272 6.7455 9.14084 6.58424 9.08709 6.31549C9.00646 6.01985 9.19459 5.69735 9.49022 5.61672C9.54397 5.61672 9.59772 5.58984 9.6246 5.58984C9.86648 5.58984 10.1084 5.7511 10.1621 6.01985C10.2427 6.31549 10.0546 6.63799 9.75898 6.71862C9.7321 6.7455 9.67835 6.7455 9.6246 6.7455Z" fill="url(#paint33_linear_3116_15634)"/>
<path d="M9.49022 5.64373C9.19459 5.72435 9.00646 6.01998 9.08709 6.31562C9.16771 6.61125 9.46334 6.79938 9.75898 6.71875C10.0546 6.63812 10.2427 6.34249 10.1621 6.04686C10.0815 5.75123 9.78585 5.5631 9.49022 5.64373Z" fill="url(#paint34_linear_3116_15634)"/>
<path d="M7.17865 9.19128C7.01739 9.19128 6.88301 9.13753 6.77551 9.03002C6.66801 8.92252 6.61426 8.78814 6.61426 8.62689C6.61426 8.46563 6.66801 8.33126 6.77551 8.22375C6.88301 8.11625 7.01739 8.0625 7.17865 8.0625C7.3399 8.0625 7.47428 8.11625 7.58178 8.22375C7.68928 8.33126 7.74303 8.46563 7.74303 8.62689C7.74303 8.78814 7.68928 8.92252 7.58178 9.03002C7.47428 9.13753 7.31302 9.19128 7.17865 9.19128Z" fill="url(#paint35_linear_3116_15634)"/>
<path d="M6.77551 9.03049C6.99052 9.2455 7.3399 9.2455 7.55491 9.03049C7.76991 8.81549 7.76991 8.4661 7.55491 8.2511C7.3399 8.03609 6.99052 8.03609 6.77551 8.2511C6.56051 8.4661 6.56051 8.81549 6.77551 9.03049Z" fill="url(#paint36_linear_3116_15634)"/>
<path d="M6.26522 12.5502C6.21147 12.5502 6.15772 12.5502 6.13084 12.5233C5.83521 12.4427 5.64708 12.1202 5.72771 11.8245C5.78146 11.5827 6.02334 11.3945 6.26522 11.3945C6.31897 11.3945 6.37273 11.3945 6.3996 11.4214C6.69523 11.502 6.88336 11.8245 6.80274 12.1202C6.74898 12.3889 6.5071 12.5502 6.26522 12.5502Z" fill="url(#paint37_linear_3116_15634)"/>
<path d="M6.13084 12.5234C6.42648 12.6041 6.72211 12.4159 6.80274 12.1203C6.88336 11.8247 6.69523 11.529 6.3996 11.4484C6.10397 11.3678 5.80834 11.5559 5.72771 11.8515C5.64708 12.1472 5.83521 12.4428 6.13084 12.5234Z" fill="url(#paint38_linear_3116_15634)"/>
<path d="M7.15292 15.9096C6.91104 15.9096 6.66916 15.7483 6.61541 15.4795C6.53478 15.1839 6.72291 14.8614 7.01854 14.7808C7.07229 14.7808 7.12604 14.7539 7.15292 14.7539C7.3948 14.7539 7.63668 14.9152 7.69043 15.1839C7.77106 15.4795 7.58293 15.8021 7.2873 15.8827C7.26042 15.9096 7.20667 15.9096 7.15292 15.9096Z" fill="url(#paint39_linear_3116_15634)"/>
<path d="M7.01854 14.8078C6.72291 14.8884 6.53478 15.184 6.61541 15.4797C6.69603 15.7753 6.99166 15.9634 7.2873 15.8828C7.58293 15.8022 7.77106 15.5066 7.69043 15.2109C7.6098 14.9153 7.31417 14.7272 7.01854 14.8078Z" fill="url(#paint40_linear_3116_15634)"/>
<path d="M9.59759 18.3553C9.43634 18.3553 9.30196 18.3016 9.19446 18.1941C9.08695 18.0866 9.0332 17.9522 9.0332 17.791C9.0332 17.6297 9.08695 17.4953 9.19446 17.3878C9.30196 17.2803 9.43634 17.2266 9.59759 17.2266C9.75884 17.2266 9.89322 17.2803 10.0007 17.3878C10.2157 17.6028 10.2157 17.9522 10.0007 18.1941C9.89322 18.3016 9.75884 18.3553 9.59759 18.3553Z" fill="url(#paint41_linear_3116_15634)"/>
<path d="M10.0012 17.4152C9.78619 17.2002 9.43681 17.2002 9.2218 17.4152C9.0068 17.6302 9.0068 17.9795 9.2218 18.1946C9.43681 18.4096 9.78619 18.4096 10.0012 18.1946C10.2162 17.9795 10.2162 17.6302 10.0012 17.4152Z" fill="url(#paint42_linear_3116_15634)"/>
<path d="M12.9571 19.2689C12.9033 19.2689 12.8496 19.2689 12.8227 19.2421C12.6883 19.2152 12.5539 19.1077 12.4733 18.9733C12.3927 18.8389 12.3658 18.6777 12.4196 18.5433C12.4733 18.3014 12.7152 18.1133 12.9571 18.1133C13.0108 18.1133 13.0646 18.1133 13.0915 18.1402C13.2258 18.167 13.3602 18.2745 13.4408 18.4089C13.5215 18.5433 13.5483 18.7045 13.4946 18.8389C13.4408 19.1077 13.2258 19.2689 12.9571 19.2689Z" fill="url(#paint43_linear_3116_15634)"/>
<path d="M13.092 18.1672C12.7964 18.0865 12.5007 18.2747 12.4201 18.5703C12.3395 18.8659 12.5276 19.1616 12.8232 19.2422C13.1189 19.3228 13.4145 19.1347 13.4951 18.8391C13.5757 18.5703 13.3876 18.2478 13.092 18.1672Z" fill="url(#paint44_linear_3116_15634)"/>
<path d="M16.3163 18.3822C16.0744 18.3822 15.8325 18.221 15.7788 17.9522C15.7519 17.8178 15.7519 17.6566 15.8325 17.5222C15.9131 17.3878 16.0206 17.3072 16.1819 17.2534C16.2357 17.2534 16.2894 17.2266 16.3163 17.2266C16.5582 17.2266 16.8 17.3878 16.8538 17.6566C16.9344 17.9522 16.7463 18.2747 16.4507 18.3553C16.4238 18.3822 16.37 18.3822 16.3163 18.3822Z" fill="url(#paint45_linear_3116_15634)"/>
<path d="M16.4514 18.3555C16.747 18.2748 16.9351 17.9792 16.8545 17.6836C16.7739 17.3879 16.4782 17.1998 16.1826 17.2804C15.887 17.3611 15.6988 17.6567 15.7795 17.9523C15.8601 18.248 16.1557 18.4361 16.4514 18.3555Z" fill="url(#paint46_linear_3116_15634)"/>
<path d="M18.79 15.9374C18.6287 15.9374 18.4943 15.8836 18.3868 15.7761C18.1718 15.5611 18.1718 15.2117 18.3868 14.9698C18.4943 14.8623 18.6287 14.8086 18.79 14.8086C18.9512 14.8086 19.0856 14.8623 19.1931 14.9698C19.4081 15.1849 19.4081 15.5342 19.1931 15.7761C19.0587 15.8836 18.9244 15.9374 18.79 15.9374Z" fill="url(#paint47_linear_3116_15634)"/>
<path d="M19.1662 14.9698C18.9512 14.7548 18.6018 14.7548 18.3868 14.9698C18.1718 15.1849 18.1718 15.5342 18.3868 15.7492C18.6018 15.9642 18.9512 15.9642 19.1662 15.7492C19.3812 15.5342 19.3812 15.1849 19.1662 14.9698Z" fill="url(#paint48_linear_3116_15634)"/>
<path d="M21.9861 13.7579C21.9324 13.7579 21.8518 13.7579 21.798 13.731C21.4218 13.6235 21.1799 13.2204 21.2874 12.8442C21.368 12.5216 21.6636 12.3066 21.9861 12.3066C22.0399 12.3066 22.1205 12.3066 22.1743 12.3335C22.3624 12.3873 22.5237 12.4948 22.6043 12.6829C22.7118 12.8442 22.7387 13.0323 22.6849 13.2204C22.6043 13.5429 22.3086 13.7579 21.9861 13.7579Z" fill="url(#paint49_linear_3116_15634)"/>
<path d="M21.798 13.7318C22.1743 13.8393 22.5774 13.5974 22.6849 13.2211C22.7924 12.8449 22.5505 12.4417 22.1743 12.3342C21.798 12.2267 21.3949 12.4686 21.2874 12.8449C21.1799 13.2211 21.4218 13.6243 21.798 13.7318Z" fill="url(#paint50_linear_3116_15634)"/>
<path d="M21.2869 9.10949C20.9644 9.10949 20.6688 8.89448 20.5882 8.57197C20.4807 8.19572 20.7225 7.79258 21.0988 7.68508C21.1525 7.6582 21.2332 7.6582 21.2869 7.6582C21.6094 7.6582 21.9051 7.87321 21.9857 8.19572C22.0932 8.57197 21.8513 8.97511 21.475 9.08261C21.4213 9.10949 21.3407 9.10949 21.2869 9.10949Z" fill="url(#paint51_linear_3116_15634)"/>
<path d="M21.9857 8.22184C21.8782 7.84558 21.5019 7.6037 21.0988 7.7112C20.7225 7.8187 20.4807 8.19496 20.5882 8.5981C20.6957 8.97435 21.0719 9.21624 21.475 9.10873C21.8513 8.97435 22.0932 8.5981 21.9857 8.22184Z" fill="url(#paint52_linear_3116_15634)"/>
<path d="M18.3848 5.45324C18.1967 5.45324 18.0086 5.37261 17.8742 5.23823C17.7398 5.10385 17.6592 4.91573 17.6592 4.7276C17.6592 4.53947 17.7398 4.35134 17.8742 4.21696C18.0086 4.08258 18.1967 4.00195 18.3848 4.00195C18.573 4.00195 18.7611 4.08258 18.8955 4.21696C19.0298 4.35134 19.1105 4.53947 19.1105 4.7276C19.1105 4.91573 19.0298 5.10385 18.8955 5.23823C18.7342 5.37261 18.573 5.45324 18.3848 5.45324Z" fill="url(#paint53_linear_3116_15634)"/>
<path d="M18.8693 4.21719C18.6006 3.94844 18.1437 3.94844 17.8481 4.21719C17.5793 4.48595 17.5793 4.94283 17.8481 5.23847C18.1168 5.50722 18.5737 5.50722 18.8693 5.23847C19.165 4.94283 19.165 4.48595 18.8693 4.21719Z" fill="url(#paint54_linear_3116_15634)"/>
<path d="M14.0047 3.70714C13.9509 3.70714 13.8703 3.70714 13.8166 3.68027C13.4403 3.57277 13.1984 3.16963 13.3059 2.79337C13.3866 2.47086 13.6822 2.25586 14.0047 2.25586C14.0584 2.25586 14.1391 2.25586 14.1928 2.28274C14.381 2.33649 14.5422 2.44399 14.6228 2.63212C14.7303 2.79337 14.7572 2.9815 14.7035 3.16963C14.6228 3.49214 14.3272 3.70714 14.0047 3.70714Z" fill="url(#paint55_linear_3116_15634)"/>
<path d="M13.8165 3.681C14.1928 3.7885 14.5959 3.54662 14.7034 3.17036C14.8109 2.7941 14.5691 2.39097 14.1928 2.28347C13.8165 2.17596 13.4134 2.41784 13.3059 2.7941C13.2253 3.19724 13.4403 3.5735 13.8165 3.681Z" fill="url(#paint56_linear_3116_15634)"/>
<path d="M9.35528 4.40636C9.03277 4.40636 8.73714 4.19136 8.65651 3.86885C8.54901 3.49259 8.79089 3.08946 9.16715 2.98195C9.2209 2.95508 9.30153 2.95508 9.35528 2.95508C9.67779 2.95508 9.97342 3.17008 10.054 3.49259C10.1078 3.68072 10.0809 3.86885 9.97342 4.0301C9.86592 4.19136 9.73154 4.32574 9.54341 4.37949C9.48966 4.40636 9.43591 4.40636 9.35528 4.40636Z" fill="url(#paint57_linear_3116_15634)"/>
<path d="M9.54341 4.37826C9.91967 4.27076 10.1615 3.8945 10.054 3.49137C9.94654 3.11511 9.57028 2.87323 9.16715 2.98073C8.79089 3.08823 8.54901 3.46449 8.65651 3.86763C8.79089 4.24389 9.16715 4.48577 9.54341 4.37826Z" fill="url(#paint58_linear_3116_15634)"/>
<path d="M5.69994 7.33605C5.51181 7.33605 5.32368 7.25542 5.1893 7.12105C4.89367 6.82541 4.92055 6.36853 5.1893 6.09977C5.32368 5.96539 5.51181 5.88477 5.69994 5.88477C5.88807 5.88477 6.0762 5.96539 6.21058 6.09977C6.34496 6.23415 6.42558 6.42228 6.42558 6.61041C6.42558 6.79854 6.34496 6.98667 6.21058 7.12105C6.0762 7.25542 5.88807 7.33605 5.69994 7.33605Z" fill="url(#paint59_linear_3116_15634)"/>
<path d="M6.21015 6.09805C5.94139 5.8293 5.4845 5.8293 5.18887 6.09805C4.92012 6.36681 4.92012 6.82369 5.18887 7.11933C5.45763 7.38808 5.91451 7.38808 6.21015 7.11933C6.4789 6.82369 6.4789 6.36681 6.21015 6.09805Z" fill="url(#paint60_linear_3116_15634)"/>
<path d="M3.97955 11.6896C3.9258 11.6896 3.84517 11.6896 3.79142 11.6627C3.60329 11.6089 3.44204 11.5014 3.36141 11.3133C3.25391 11.1521 3.22703 10.9639 3.28078 10.7758C3.36141 10.4533 3.65704 10.2383 3.97955 10.2383C4.0333 10.2383 4.11393 10.2383 4.16768 10.2652C4.54394 10.3727 4.78582 10.7758 4.67832 11.1521C4.57081 11.4746 4.30206 11.6896 3.97955 11.6896Z" fill="url(#paint61_linear_3116_15634)"/>
<path d="M4.14098 10.2659C3.76472 10.1584 3.36158 10.4003 3.25408 10.7765C3.17345 11.1528 3.38846 11.5559 3.79159 11.6634C4.16785 11.7709 4.57099 11.529 4.67849 11.1528C4.75912 10.7765 4.54411 10.3734 4.14098 10.2659Z" fill="url(#paint62_linear_3116_15634)"/>
<path d="M4.65215 16.338C4.32965 16.338 4.03401 16.123 3.95339 15.8005C3.84588 15.4242 4.08777 15.0211 4.46402 14.9136C4.51778 14.8867 4.5984 14.8867 4.65215 14.8867C4.97466 14.8867 5.27029 15.1017 5.35092 15.4242C5.45842 15.8005 5.21654 16.2036 4.84028 16.3111C4.78653 16.3111 4.73278 16.338 4.65215 16.338Z" fill="url(#paint63_linear_3116_15634)"/>
<path d="M4.46402 14.9143C4.08777 15.0218 3.84588 15.3981 3.95339 15.8012C4.06089 16.1775 4.43715 16.4194 4.84028 16.3119C5.21654 16.2044 5.45842 15.8281 5.35092 15.425C5.24342 15.0487 4.84028 14.8068 4.46402 14.9143Z" fill="url(#paint64_linear_3116_15634)"/>
<path d="M7.58111 19.9943C7.39298 19.9943 7.20485 19.9136 7.07047 19.7792C6.9361 19.6449 6.85547 19.4567 6.85547 19.2686C6.85547 19.0805 6.9361 18.8924 7.07047 18.758C7.20485 18.6236 7.39298 18.543 7.58111 18.543C7.76924 18.543 7.95737 18.6236 8.09175 18.758C8.3605 19.0536 8.3605 19.5105 8.09175 19.7792C7.95737 19.9405 7.76924 19.9943 7.58111 19.9943Z" fill="url(#paint65_linear_3116_15634)"/>
<path d="M8.09101 18.7836C7.82225 18.5148 7.36536 18.5148 7.06973 18.7836C6.80097 19.0524 6.80097 19.5092 7.06973 19.8049C7.33849 20.0736 7.79537 20.0736 8.09101 19.8049C8.35976 19.5092 8.35976 19.0524 8.09101 18.7836Z" fill="url(#paint66_linear_3116_15634)"/>
<path d="M11.9354 21.7403C11.8816 21.7403 11.801 21.7403 11.7472 21.7135C11.371 21.606 11.1291 21.2028 11.2366 20.8266C11.3172 20.5041 11.6128 20.2891 11.9354 20.2891C11.9891 20.2891 12.0697 20.2891 12.1235 20.3159C12.3116 20.3697 12.4729 20.4772 12.5535 20.6653C12.661 20.8266 12.6879 21.0147 12.6341 21.2028C12.5535 21.4985 12.2579 21.7403 11.9354 21.7403Z" fill="url(#paint67_linear_3116_15634)"/>
<path d="M12.1235 20.3167C11.7472 20.2092 11.3441 20.451 11.2366 20.8273C11.1291 21.2036 11.371 21.6067 11.7472 21.7142C12.1235 21.8217 12.5266 21.5798 12.6341 21.2036C12.7416 20.8004 12.4997 20.4242 12.1235 20.3167Z" fill="url(#paint68_linear_3116_15634)"/>
<path d="M16.585 21.0411C16.2625 21.0411 15.9669 20.8261 15.8863 20.5036C15.8325 20.3155 15.8594 20.1274 15.9669 19.9661C16.0744 19.8048 16.2088 19.6705 16.3969 19.6167C16.4506 19.5898 16.5313 19.5898 16.585 19.5898C16.9075 19.5898 17.2032 19.8048 17.2838 20.1274C17.3913 20.5036 17.1494 20.9067 16.7731 21.0143C16.6925 21.0411 16.6388 21.0411 16.585 21.0411Z" fill="url(#paint69_linear_3116_15634)"/>
<path d="M16.3966 19.6174C16.0204 19.725 15.7785 20.1012 15.886 20.5043C15.9935 20.8806 16.3698 21.1225 16.7729 21.015C17.1492 20.9075 17.391 20.5312 17.2835 20.1281C17.176 19.7518 16.7729 19.5099 16.3966 19.6174Z" fill="url(#paint70_linear_3116_15634)"/>
<path d="M20.2667 18.1134C20.0785 18.1134 19.8904 18.0328 19.756 17.8984C19.6216 17.764 19.541 17.5759 19.541 17.3878C19.541 17.1996 19.6216 17.0115 19.756 16.8771C19.8904 16.7427 20.0785 16.6621 20.2667 16.6621C20.4548 16.6621 20.6429 16.7427 20.7773 16.8771C21.0461 17.1459 21.0461 17.6296 20.7773 17.8984C20.6429 18.0596 20.4548 18.1134 20.2667 18.1134Z" fill="url(#paint71_linear_3116_15634)"/>
<path d="M20.7492 17.8967C21.018 17.6279 21.018 17.171 20.7492 16.8754C20.4805 16.6066 20.0236 16.6066 19.7279 16.8754C19.4592 17.1442 19.4592 17.601 19.7279 17.8967C20.0236 18.1923 20.4805 18.1923 20.7492 17.8967Z" fill="url(#paint72_linear_3116_15634)"/>
<path d="M24.1369 15.8299C24.0562 15.8299 24.0025 15.8299 23.9219 15.803C23.7068 15.7493 23.5187 15.6149 23.4112 15.3999C23.3037 15.2117 23.2768 14.9699 23.3306 14.7549C23.4381 14.3786 23.7606 14.1367 24.1369 14.1367C24.2175 14.1367 24.2712 14.1367 24.3519 14.1636C24.8087 14.2711 25.0775 14.7549 24.9431 15.1849C24.8625 15.588 24.5131 15.8299 24.1369 15.8299Z" fill="url(#paint73_linear_3116_15634)"/>
<path d="M24.3523 14.1894C23.8954 14.0819 23.4385 14.3238 23.331 14.7806C23.2235 15.2375 23.4654 15.6944 23.9223 15.8019C24.3791 15.9094 24.836 15.6675 24.9435 15.2107C25.051 14.7538 24.7823 14.2969 24.3523 14.1894Z" fill="url(#paint74_linear_3116_15634)"/>
<path d="M24.1369 9.86309C23.7606 9.86309 23.4112 9.59433 23.3306 9.24495C23.2768 9.02994 23.3037 8.78806 23.4112 8.59993C23.5187 8.4118 23.7068 8.27742 23.9219 8.1968C24.0025 8.16992 24.0562 8.16992 24.1369 8.16992C24.5131 8.16992 24.8625 8.43868 24.9431 8.78806C24.9969 9.00307 24.97 9.24495 24.8625 9.43308C24.755 9.62121 24.5669 9.75558 24.3519 9.83621C24.2712 9.83621 24.2175 9.86309 24.1369 9.86309Z" fill="url(#paint75_linear_3116_15634)"/>
<path d="M24.3523 9.80973C24.8091 9.70223 25.051 9.24535 24.9435 8.78846C24.836 8.33157 24.3791 8.08969 23.9222 8.1972C23.4654 8.3047 23.2235 8.76158 23.331 9.21847C23.4385 9.67536 23.8954 9.94411 24.3523 9.80973Z" fill="url(#paint76_linear_3116_15634)"/>
<path d="M21.1544 4.67605C20.9394 4.67605 20.7244 4.59543 20.5632 4.43417C20.4019 4.27292 20.3213 4.05792 20.3213 3.84291C20.3213 3.62791 20.4019 3.4129 20.5632 3.25165C20.7244 3.09039 20.9394 3.00977 21.1544 3.00977C21.3694 3.00977 21.5844 3.09039 21.7457 3.25165C22.0682 3.57415 22.0682 4.11167 21.7457 4.43417C21.5844 4.59543 21.3694 4.67605 21.1544 4.67605Z" fill="url(#paint77_linear_3116_15634)"/>
<path d="M20.5632 4.43417C20.8857 4.75668 21.4232 4.75668 21.7457 4.43417C22.0682 4.11167 22.0682 3.57415 21.7457 3.25165C21.4232 2.92914 20.8857 2.92914 20.5632 3.25165C20.2407 3.57415 20.2407 4.08479 20.5632 4.43417Z" fill="url(#paint78_linear_3116_15634)"/>
<path d="M15.9669 1.69317C15.8863 1.69317 15.8325 1.69317 15.7519 1.66629C15.295 1.55879 15.0263 1.07503 15.1606 0.645015C15.2413 0.268756 15.5906 0 15.9669 0C16.0475 0 16.1013 0 16.1819 0.0268756C16.6388 0.134378 16.9076 0.61814 16.7732 1.04815C16.6926 1.42441 16.3432 1.69317 15.9669 1.69317Z" fill="url(#paint79_linear_3116_15634)"/>
<path d="M15.7519 1.63981C16.2088 1.74731 16.6657 1.50543 16.7732 1.04855C16.8807 0.591662 16.6388 0.134776 16.1819 0.0272738C15.725 -0.0802287 15.2681 0.161652 15.1606 0.618538C15.0263 1.07542 15.295 1.53231 15.7519 1.63981Z" fill="url(#paint80_linear_3116_15634)"/>
<path d="M9.97377 1.69317C9.59751 1.69317 9.24813 1.42441 9.1675 1.07503C9.11375 0.86002 9.14062 0.61814 9.24813 0.43001C9.35563 0.241881 9.54376 0.107503 9.75876 0.0268756C9.83939 0 9.92002 0 9.97377 0C10.35 0 10.6994 0.268756 10.78 0.61814C10.9144 1.07503 10.6457 1.53191 10.1888 1.66629C10.135 1.66629 10.0544 1.69317 9.97377 1.69317Z" fill="url(#paint81_linear_3116_15634)"/>
<path d="M10.1892 1.63981C10.6461 1.53231 10.9148 1.07542 10.7804 0.618538C10.6729 0.161652 10.216 -0.0802287 9.75916 0.0272738C9.30228 0.134776 9.0604 0.591662 9.1679 1.04855C9.30228 1.50543 9.75916 1.77419 10.1892 1.63981Z" fill="url(#paint82_linear_3116_15634)"/>
<path d="M4.81361 4.67605C4.59861 4.67605 4.3836 4.59543 4.22235 4.43417C4.0611 4.27292 3.98047 4.05792 3.98047 3.84291C3.98047 3.62791 4.0611 3.4129 4.22235 3.25165C4.3836 3.09039 4.59861 3.00977 4.81361 3.00977C5.02862 3.00977 5.24362 3.09039 5.40488 3.25165C5.56613 3.4129 5.64676 3.62791 5.64676 3.84291C5.64676 4.05792 5.56613 4.27292 5.40488 4.43417C5.24362 4.59543 5.02862 4.67605 4.81361 4.67605Z" fill="url(#paint83_linear_3116_15634)"/>
<path d="M4.22235 4.43417C4.54486 4.75668 5.08237 4.75668 5.40488 4.43417C5.72739 4.11167 5.72739 3.57415 5.40488 3.25165C5.08237 2.92914 4.54486 2.92914 4.22235 3.25165C3.89984 3.57415 3.89984 4.08479 4.22235 4.43417Z" fill="url(#paint84_linear_3116_15634)"/>
<path d="M1.80382 9.86356C1.7232 9.86356 1.66944 9.86355 1.58882 9.83668C1.13193 9.72918 0.863175 9.24542 0.997554 8.81541C1.10506 8.43915 1.42756 8.19727 1.80382 8.19727C1.88445 8.19727 1.9382 8.19727 2.01883 8.22414C2.23383 8.27789 2.42196 8.41227 2.52946 8.62728C2.63697 8.8154 2.66384 9.05729 2.61009 9.27229C2.52946 9.5948 2.20696 9.86356 1.80382 9.86356Z" fill="url(#paint85_linear_3116_15634)"/>
<path d="M2.01925 8.1972C1.56237 8.08969 1.10548 8.33157 0.997977 8.78846C0.890474 9.24535 1.13236 9.70223 1.58924 9.80973C2.04613 9.94411 2.50301 9.67536 2.61052 9.21847C2.74489 8.78846 2.47614 8.33157 2.01925 8.1972Z" fill="url(#paint86_linear_3116_15634)"/>
<path d="M1.80385 15.8299C1.42759 15.8299 1.07821 15.5611 0.997579 15.2117C0.943827 14.9967 0.970703 14.7549 1.07821 14.5667C1.18571 14.3786 1.37384 14.2442 1.58884 14.1636C1.66947 14.1367 1.72322 14.1367 1.80385 14.1367C2.18011 14.1367 2.52949 14.4055 2.61012 14.7549C2.66387 14.9699 2.63699 15.2117 2.52949 15.3999C2.42199 15.588 2.23386 15.7224 2.01885 15.803C1.9651 15.8299 1.88447 15.8299 1.80385 15.8299Z" fill="url(#paint87_linear_3116_15634)"/>
<path d="M1.58924 14.1909C1.13236 14.2984 0.890474 14.7553 0.997977 15.2122C1.10548 15.6691 1.56237 15.911 2.01925 15.8035C2.47614 15.6959 2.71802 15.2391 2.61052 14.7822C2.50301 14.3253 2.04613 14.0565 1.58924 14.1909Z" fill="url(#paint88_linear_3116_15634)"/>
<path d="M4.81361 21.0159C4.59861 21.0159 4.3836 20.9353 4.22235 20.774C3.89984 20.4515 3.89984 19.914 4.22235 19.5915C4.3836 19.4302 4.59861 19.3496 4.81361 19.3496C5.02862 19.3496 5.24362 19.4302 5.40488 19.5915C5.56613 19.7527 5.64676 19.9677 5.64676 20.1828C5.64676 20.3978 5.56613 20.6128 5.40488 20.774C5.24362 20.9353 5.02862 21.0159 4.81361 21.0159Z" fill="url(#paint89_linear_3116_15634)"/>
<path d="M5.40488 19.5915C5.08237 19.269 4.54486 19.269 4.22235 19.5915C3.89984 19.914 3.89984 20.4515 4.22235 20.774C4.54486 21.0965 5.08237 21.0965 5.40488 20.774C5.72739 20.4246 5.72739 19.914 5.40488 19.5915Z" fill="url(#paint90_linear_3116_15634)"/>
<path d="M9.97377 23.9998C9.89314 23.9998 9.83939 23.9998 9.75876 23.9729C9.54376 23.9192 9.35563 23.7848 9.24813 23.5698C9.14062 23.3817 9.11375 23.1398 9.1675 22.9248C9.275 22.5485 9.59751 22.3066 9.97377 22.3066C10.0544 22.3066 10.1081 22.3066 10.1888 22.3335C10.4038 22.3873 10.5919 22.5216 10.6994 22.7367C10.8069 22.9248 10.8338 23.1667 10.78 23.3817C10.6994 23.7579 10.3769 23.9998 9.97377 23.9998Z" fill="url(#paint91_linear_3116_15634)"/>
<path d="M10.1892 22.3613C9.73229 22.2538 9.2754 22.4956 9.1679 22.9525C9.0604 23.4094 9.30228 23.8663 9.75916 23.9738C10.216 24.0813 10.6729 23.8394 10.7804 23.3825C10.9148 22.9256 10.6461 22.4688 10.1892 22.3613Z" fill="url(#paint92_linear_3116_15634)"/>
<path d="M15.9679 23.9998C15.5917 23.9998 15.2423 23.731 15.1616 23.3817C15.1079 23.1667 15.1348 22.9248 15.2423 22.7367C15.3498 22.5485 15.5379 22.4141 15.7529 22.3335C15.8335 22.3066 15.8873 22.3066 15.9679 22.3066C16.3442 22.3066 16.6936 22.5754 16.7742 22.9248C16.8817 23.3817 16.6398 23.8386 16.1829 23.9461C16.1023 23.9998 16.0485 23.9998 15.9679 23.9998Z" fill="url(#paint93_linear_3116_15634)"/>
<path d="M15.7514 22.3608C15.2945 22.4683 15.0526 22.9252 15.1601 23.3821C15.2676 23.839 15.7245 24.0809 16.1814 23.9734C16.6382 23.8659 16.8801 23.409 16.7726 22.9521C16.6382 22.4952 16.1814 22.2265 15.7514 22.3608Z" fill="url(#paint94_linear_3116_15634)"/>
<path d="M21.1544 21.0159C20.9394 21.0159 20.7244 20.9353 20.5632 20.774C20.4019 20.6128 20.3213 20.3978 20.3213 20.1828C20.3213 19.9677 20.4019 19.7527 20.5632 19.5915C20.7244 19.4302 20.9394 19.3496 21.1544 19.3496C21.3694 19.3496 21.5844 19.4302 21.7457 19.5915C21.907 19.7527 21.9876 19.9677 21.9876 20.1828C21.9876 20.3978 21.907 20.6128 21.7457 20.774C21.5844 20.9353 21.3694 21.0159 21.1544 21.0159Z" fill="url(#paint95_linear_3116_15634)"/>
<path d="M21.7457 19.5915C21.4232 19.269 20.8857 19.269 20.5632 19.5915C20.2407 19.914 20.2407 20.4515 20.5632 20.774C20.8857 21.0965 21.4232 21.0965 21.7457 20.774C22.0682 20.4246 22.0682 19.914 21.7457 19.5915Z" fill="url(#paint96_linear_3116_15634)"/>
<path d="M46.1877 6.88V18H44.3637V10.384L40.9717 18H39.7077L36.2997 10.384V18H34.4757V6.88H36.4437L40.3477 15.6L44.2357 6.88H46.1877ZM49.833 8.016C49.5024 8.016 49.225 7.904 49.001 7.68C48.777 7.456 48.665 7.17867 48.665 6.848C48.665 6.51733 48.777 6.24 49.001 6.016C49.225 5.792 49.5024 5.68 49.833 5.68C50.153 5.68 50.425 5.792 50.649 6.016C50.873 6.24 50.985 6.51733 50.985 6.848C50.985 7.17867 50.873 7.456 50.649 7.68C50.425 7.904 50.153 8.016 49.833 8.016ZM50.729 9.184V18H48.905V9.184H50.729ZM52.8358 13.584C52.8358 12.6773 53.0171 11.8827 53.3798 11.2C53.7531 10.5067 54.2651 9.97333 54.9158 9.6C55.5665 9.22667 56.3131 9.04 57.1558 9.04C58.2225 9.04 59.1025 9.296 59.7958 9.808C60.4998 10.3093 60.9745 11.0293 61.2198 11.968H59.2518C59.0918 11.5307 58.8358 11.1893 58.4838 10.944C58.1318 10.6987 57.6891 10.576 57.1558 10.576C56.4091 10.576 55.8118 10.8427 55.3638 11.376C54.9265 11.8987 54.7078 12.6347 54.7078 13.584C54.7078 14.5333 54.9265 15.2747 55.3638 15.808C55.8118 16.3413 56.4091 16.608 57.1558 16.608C58.2118 16.608 58.9105 16.144 59.2518 15.216H61.2198C60.9638 16.112 60.4838 16.8267 59.7798 17.36C59.0758 17.8827 58.2011 18.144 57.1558 18.144C56.3131 18.144 55.5665 17.9573 54.9158 17.584C54.2651 17.2 53.7531 16.6667 53.3798 15.984C53.0171 15.2907 52.8358 14.4907 52.8358 13.584ZM65.1815 10.464C65.4482 10.016 65.8002 9.66933 66.2375 9.424C66.6855 9.168 67.2135 9.04 67.8215 9.04V10.928H67.3575C66.6429 10.928 66.0989 11.1093 65.7255 11.472C65.3629 11.8347 65.1815 12.464 65.1815 13.36V18H63.3575V9.184H65.1815V10.464ZM73.6422 18.144C72.8102 18.144 72.0582 17.9573 71.3862 17.584C70.7142 17.2 70.1862 16.6667 69.8022 15.984C69.4182 15.2907 69.2262 14.4907 69.2262 13.584C69.2262 12.688 69.4235 11.8933 69.8182 11.2C70.2128 10.5067 70.7515 9.97333 71.4342 9.6C72.1168 9.22667 72.8795 9.04 73.7222 9.04C74.5648 9.04 75.3275 9.22667 76.0102 9.6C76.6928 9.97333 77.2315 10.5067 77.6262 11.2C78.0208 11.8933 78.2182 12.688 78.2182 13.584C78.2182 14.48 78.0155 15.2747 77.6102 15.968C77.2048 16.6613 76.6502 17.2 75.9462 17.584C75.2528 17.9573 74.4848 18.144 73.6422 18.144ZM73.6422 16.56C74.1115 16.56 74.5488 16.448 74.9542 16.224C75.3702 16 75.7062 15.664 75.9622 15.216C76.2182 14.768 76.3462 14.224 76.3462 13.584C76.3462 12.944 76.2235 12.4053 75.9782 11.968C75.7328 11.52 75.4075 11.184 75.0022 10.96C74.5968 10.736 74.1595 10.624 73.6902 10.624C73.2208 10.624 72.7835 10.736 72.3782 10.96C71.9835 11.184 71.6688 11.52 71.4342 11.968C71.1995 12.4053 71.0822 12.944 71.0822 13.584C71.0822 14.5333 71.3222 15.2693 71.8022 15.792C72.2928 16.304 72.9062 16.56 73.6422 16.56ZM84.7893 9.04C85.4826 9.04 86.1013 9.184 86.6453 9.472C87.2 9.76 87.632 10.1867 87.9413 10.752C88.2506 11.3173 88.4053 12 88.4053 12.8V18H86.5973V13.072C86.5973 12.2827 86.4 11.68 86.0053 11.264C85.6106 10.8373 85.072 10.624 84.3893 10.624C83.7066 10.624 83.1626 10.8373 82.7573 11.264C82.3626 11.68 82.1653 12.2827 82.1653 13.072V18H80.3413V9.184H82.1653V10.192C82.464 9.82933 82.8426 9.54667 83.3013 9.344C83.7706 9.14133 84.2666 9.04 84.7893 9.04ZM90.4439 13.552C90.4439 12.6667 90.6252 11.8827 90.9879 11.2C91.3612 10.5173 91.8626 9.98933 92.4919 9.616C93.1319 9.232 93.8359 9.04 94.6039 9.04C95.2972 9.04 95.8999 9.17867 96.4119 9.456C96.9346 9.72267 97.3506 10.0587 97.6599 10.464V9.184H99.4999V18H97.6599V16.688C97.3506 17.104 96.9292 17.4507 96.3959 17.728C95.8626 18.0053 95.2546 18.144 94.5719 18.144C93.8146 18.144 93.1212 17.952 92.4919 17.568C91.8626 17.1733 91.3612 16.6293 90.9879 15.936C90.6252 15.232 90.4439 14.4373 90.4439 13.552ZM97.6599 13.584C97.6599 12.976 97.5319 12.448 97.2759 12C97.0306 11.552 96.7052 11.2107 96.2999 10.976C95.8946 10.7413 95.4572 10.624 94.9879 10.624C94.5186 10.624 94.0812 10.7413 93.6759 10.976C93.2706 11.2 92.9399 11.536 92.6839 11.984C92.4386 12.4213 92.3159 12.944 92.3159 13.552C92.3159 14.16 92.4386 14.6933 92.6839 15.152C92.9399 15.6107 93.2706 15.9627 93.6759 16.208C94.0919 16.4427 94.5292 16.56 94.9879 16.56C95.4572 16.56 95.8946 16.4427 96.2999 16.208C96.7052 15.9733 97.0306 15.632 97.2759 15.184C97.5319 14.7253 97.6599 14.192 97.6599 13.584ZM110.2 9.184V18H108.376V16.96C108.088 17.3227 107.709 17.6107 107.24 17.824C106.781 18.0267 106.29 18.128 105.768 18.128C105.074 18.128 104.45 17.984 103.896 17.696C103.352 17.408 102.92 16.9813 102.6 16.416C102.29 15.8507 102.136 15.168 102.136 14.368V9.184H103.944V14.096C103.944 14.8853 104.141 15.4933 104.536 15.92C104.93 16.336 105.469 16.544 106.152 16.544C106.834 16.544 107.373 16.336 107.768 15.92C108.173 15.4933 108.376 14.8853 108.376 14.096V9.184H110.2ZM115.054 10.672V15.552C115.054 15.8827 115.129 16.1227 115.278 16.272C115.438 16.4107 115.705 16.48 116.078 16.48H117.198V18H115.758C114.937 18 114.308 17.808 113.87 17.424C113.433 17.04 113.214 16.416 113.214 15.552V10.672H112.174V9.184H113.214V6.992H115.054V9.184H117.198V10.672H115.054Z" fill="#F4F4F5"/>
<defs>
<linearGradient id="paint0_linear_3116_15634" x1="17.0571" y1="11.8509" x2="17.8081" y2="11.8509" gradientUnits="userSpaceOnUse">
<stop stop-color="white" stop-opacity="0.5"/>
<stop offset="0.5" stop-color="white" stop-opacity="0.82"/>
<stop offset="1" stop-color="white" stop-opacity="0.64"/>
</linearGradient>
<linearGradient id="paint1_linear_3116_15634" x1="17.0729" y1="11.8529" x2="17.8184" y2="11.8529" gradientUnits="userSpaceOnUse">
<stop stop-color="white" stop-opacity="0.5"/>
<stop offset="0.5" stop-color="white" stop-opacity="0.82"/>
<stop offset="1" stop-color="white" stop-opacity="0.64"/>
</linearGradient>
<linearGradient id="paint2_linear_3116_15634" x1="16.404" y1="9.64782" x2="17.1701" y2="9.64782" gradientUnits="userSpaceOnUse">
<stop stop-color="white" stop-opacity="0.5"/>
<stop offset="0.5" stop-color="white" stop-opacity="0.82"/>
<stop offset="1" stop-color="white" stop-opacity="0.64"/>
</linearGradient>
<linearGradient id="paint3_linear_3116_15634" x1="16.3747" y1="9.64777" x2="17.1201" y2="9.64777" gradientUnits="userSpaceOnUse">
<stop stop-color="white" stop-opacity="0.5"/>
<stop offset="0.5" stop-color="white" stop-opacity="0.82"/>
<stop offset="1" stop-color="white" stop-opacity="0.64"/>
</linearGradient>
<linearGradient id="paint4_linear_3116_15634" x1="11.3733" y1="12.242" x2="14.6855" y2="12.242" gradientUnits="userSpaceOnUse">
<stop stop-color="white" stop-opacity="0.5"/>
<stop offset="0.5" stop-color="white" stop-opacity="0.82"/>
<stop offset="1" stop-color="white" stop-opacity="0.64"/>
</linearGradient>
<linearGradient id="paint5_linear_3116_15634" x1="14.7021" y1="8.06188" x2="15.4568" y2="8.06188" gradientUnits="userSpaceOnUse">
<stop stop-color="white" stop-opacity="0.5"/>
<stop offset="0.5" stop-color="white" stop-opacity="0.82"/>
<stop offset="1" stop-color="white" stop-opacity="0.64"/>
</linearGradient>
<linearGradient id="paint6_linear_3116_15634" x1="14.7221" y1="8.07664" x2="15.4663" y2="8.07664" gradientUnits="userSpaceOnUse">
<stop stop-color="white" stop-opacity="0.5"/>
<stop offset="0.5" stop-color="white" stop-opacity="0.82"/>
<stop offset="1" stop-color="white" stop-opacity="0.64"/>
</linearGradient>
<linearGradient id="paint7_linear_3116_15634" x1="12.4331" y1="7.55211" x2="13.1841" y2="7.55211" gradientUnits="userSpaceOnUse">
<stop stop-color="white" stop-opacity="0.5"/>
<stop offset="0.5" stop-color="white" stop-opacity="0.82"/>
<stop offset="1" stop-color="white" stop-opacity="0.64"/>
</linearGradient>
<linearGradient id="paint8_linear_3116_15634" x1="12.4499" y1="7.55207" x2="13.1953" y2="7.55207" gradientUnits="userSpaceOnUse">
<stop stop-color="white" stop-opacity="0.5"/>
<stop offset="0.5" stop-color="white" stop-opacity="0.82"/>
<stop offset="1" stop-color="white" stop-opacity="0.64"/>
</linearGradient>
<linearGradient id="paint9_linear_3116_15634" x1="10.2497" y1="8.19664" x2="11.0159" y2="8.19664" gradientUnits="userSpaceOnUse">
<stop stop-color="white" stop-opacity="0.5"/>
<stop offset="0.5" stop-color="white" stop-opacity="0.82"/>
<stop offset="1" stop-color="white" stop-opacity="0.64"/>
</linearGradient>
<linearGradient id="paint10_linear_3116_15634" x1="10.2467" y1="8.21867" x2="10.9922" y2="8.21867" gradientUnits="userSpaceOnUse">
<stop stop-color="white" stop-opacity="0.5"/>
<stop offset="0.5" stop-color="white" stop-opacity="0.82"/>
<stop offset="1" stop-color="white" stop-opacity="0.64"/>
</linearGradient>
<linearGradient id="paint11_linear_3116_15634" x1="8.65599" y1="9.89" x2="9.4159" y2="9.89" gradientUnits="userSpaceOnUse">
<stop stop-color="white" stop-opacity="0.5"/>
<stop offset="0.5" stop-color="white" stop-opacity="0.82"/>
<stop offset="1" stop-color="white" stop-opacity="0.64"/>
</linearGradient>
<linearGradient id="paint12_linear_3116_15634" x1="8.67526" y1="9.90281" x2="9.41945" y2="9.90281" gradientUnits="userSpaceOnUse">
<stop stop-color="white" stop-opacity="0.5"/>
<stop offset="0.5" stop-color="white" stop-opacity="0.82"/>
<stop offset="1" stop-color="white" stop-opacity="0.64"/>
</linearGradient>
<linearGradient id="paint13_linear_3116_15634" x1="8.13338" y1="12.1478" x2="8.88531" y2="12.1478" gradientUnits="userSpaceOnUse">
<stop stop-color="white" stop-opacity="0.5"/>
<stop offset="0.5" stop-color="white" stop-opacity="0.82"/>
<stop offset="1" stop-color="white" stop-opacity="0.64"/>
</linearGradient>
<linearGradient id="paint14_linear_3116_15634" x1="8.12296" y1="12.1478" x2="8.87018" y2="12.1478" gradientUnits="userSpaceOnUse">
<stop stop-color="white" stop-opacity="0.5"/>
<stop offset="0.5" stop-color="white" stop-opacity="0.82"/>
<stop offset="1" stop-color="white" stop-opacity="0.64"/>
</linearGradient>
<linearGradient id="paint15_linear_3116_15634" x1="8.79848" y1="14.3509" x2="9.56468" y2="14.3509" gradientUnits="userSpaceOnUse">
<stop stop-color="white" stop-opacity="0.5"/>
<stop offset="0.5" stop-color="white" stop-opacity="0.82"/>
<stop offset="1" stop-color="white" stop-opacity="0.64"/>
</linearGradient>
<linearGradient id="paint16_linear_3116_15634" x1="8.82193" y1="14.3561" x2="9.56739" y2="14.3561" gradientUnits="userSpaceOnUse">
<stop stop-color="white" stop-opacity="0.5"/>
<stop offset="0.5" stop-color="white" stop-opacity="0.82"/>
<stop offset="1" stop-color="white" stop-opacity="0.64"/>
</linearGradient>
<linearGradient id="paint17_linear_3116_15634" x1="10.4841" y1="15.9369" x2="11.244" y2="15.9369" gradientUnits="userSpaceOnUse">
<stop stop-color="white" stop-opacity="0.5"/>
<stop offset="0.5" stop-color="white" stop-opacity="0.82"/>
<stop offset="1" stop-color="white" stop-opacity="0.64"/>
</linearGradient>
<linearGradient id="paint18_linear_3116_15634" x1="10.5014" y1="15.9243" x2="11.2456" y2="15.9243" gradientUnits="userSpaceOnUse">
<stop stop-color="white" stop-opacity="0.5"/>
<stop offset="0.5" stop-color="white" stop-opacity="0.82"/>
<stop offset="1" stop-color="white" stop-opacity="0.64"/>
</linearGradient>
<linearGradient id="paint19_linear_3116_15634" x1="12.7308" y1="16.4759" x2="13.4809" y2="16.4759" gradientUnits="userSpaceOnUse">
<stop stop-color="white" stop-opacity="0.5"/>
<stop offset="0.5" stop-color="white" stop-opacity="0.82"/>
<stop offset="1" stop-color="white" stop-opacity="0.64"/>
</linearGradient>
<linearGradient id="paint20_linear_3116_15634" x1="12.7458" y1="16.4739" x2="13.4912" y2="16.4739" gradientUnits="userSpaceOnUse">
<stop stop-color="white" stop-opacity="0.5"/>
<stop offset="0.5" stop-color="white" stop-opacity="0.82"/>
<stop offset="1" stop-color="white" stop-opacity="0.64"/>
</linearGradient>
<linearGradient id="paint21_linear_3116_15634" x1="14.9571" y1="15.8021" x2="15.7196" y2="15.8021" gradientUnits="userSpaceOnUse">
<stop stop-color="white" stop-opacity="0.5"/>
<stop offset="0.5" stop-color="white" stop-opacity="0.82"/>
<stop offset="1" stop-color="white" stop-opacity="0.64"/>
</linearGradient>
<linearGradient id="paint22_linear_3116_15634" x1="14.9762" y1="15.8021" x2="15.7217" y2="15.8021" gradientUnits="userSpaceOnUse">
<stop stop-color="white" stop-opacity="0.5"/>
<stop offset="0.5" stop-color="white" stop-opacity="0.82"/>
<stop offset="1" stop-color="white" stop-opacity="0.64"/>
</linearGradient>
<linearGradient id="paint23_linear_3116_15634" x1="16.5259" y1="14.1227" x2="17.291" y2="14.1227" gradientUnits="userSpaceOnUse">
<stop stop-color="white" stop-opacity="0.5"/>
<stop offset="0.5" stop-color="white" stop-opacity="0.82"/>
<stop offset="1" stop-color="white" stop-opacity="0.64"/>
</linearGradient>
<linearGradient id="paint24_linear_3116_15634" x1="16.5493" y1="14.1134" x2="17.2935" y2="14.1134" gradientUnits="userSpaceOnUse">
<stop stop-color="white" stop-opacity="0.5"/>
<stop offset="0.5" stop-color="white" stop-opacity="0.82"/>
<stop offset="1" stop-color="white" stop-opacity="0.64"/>
</linearGradient>
<linearGradient id="paint25_linear_3116_15634" x1="19.2415" y1="11.9997" x2="20.1092" y2="11.9997" gradientUnits="userSpaceOnUse">
<stop stop-color="white" stop-opacity="0.5"/>
<stop offset="0.5" stop-color="white" stop-opacity="0.82"/>
<stop offset="1" stop-color="white" stop-opacity="0.64"/>
</linearGradient>
<linearGradient id="paint26_linear_3116_15634" x1="19.2679" y1="12.0133" x2="20.129" y2="12.0133" gradientUnits="userSpaceOnUse">
<stop stop-color="white" stop-opacity="0.5"/>
<stop offset="0.5" stop-color="white" stop-opacity="0.82"/>
<stop offset="1" stop-color="white" stop-opacity="0.64"/>
</linearGradient>
<linearGradient id="paint27_linear_3116_15634" x1="18.3562" y1="8.64032" x2="19.2198" y2="8.64032" gradientUnits="userSpaceOnUse">
<stop stop-color="white" stop-opacity="0.5"/>
<stop offset="0.5" stop-color="white" stop-opacity="0.82"/>
<stop offset="1" stop-color="white" stop-opacity="0.64"/>
</linearGradient>
<linearGradient id="paint28_linear_3116_15634" x1="18.3558" y1="8.65479" x2="19.2235" y2="8.65479" gradientUnits="userSpaceOnUse">
<stop stop-color="white" stop-opacity="0.5"/>
<stop offset="0.5" stop-color="white" stop-opacity="0.82"/>
<stop offset="1" stop-color="white" stop-opacity="0.64"/>
</linearGradient>
<linearGradient id="paint29_linear_3116_15634" x1="15.9035" y1="6.20891" x2="16.7839" y2="6.20891" gradientUnits="userSpaceOnUse">
<stop stop-color="white" stop-opacity="0.5"/>
<stop offset="0.5" stop-color="white" stop-opacity="0.82"/>
<stop offset="1" stop-color="white" stop-opacity="0.64"/>
</linearGradient>
<linearGradient id="paint30_linear_3116_15634" x1="15.9005" y1="6.19547" x2="16.76" y2="6.19547" gradientUnits="userSpaceOnUse">
<stop stop-color="white" stop-opacity="0.5"/>
<stop offset="0.5" stop-color="white" stop-opacity="0.82"/>
<stop offset="1" stop-color="white" stop-opacity="0.64"/>
</linearGradient>
<linearGradient id="paint31_linear_3116_15634" x1="12.5501" y1="5.28094" x2="13.4178" y2="5.28094" gradientUnits="userSpaceOnUse">
<stop stop-color="white" stop-opacity="0.5"/>
<stop offset="0.5" stop-color="white" stop-opacity="0.82"/>
<stop offset="1" stop-color="white" stop-opacity="0.64"/>
</linearGradient>
<linearGradient id="paint32_linear_3116_15634" x1="12.5501" y1="5.29451" x2="13.4178" y2="5.29451" gradientUnits="userSpaceOnUse">
<stop stop-color="white" stop-opacity="0.5"/>
<stop offset="0.5" stop-color="white" stop-opacity="0.82"/>
<stop offset="1" stop-color="white" stop-opacity="0.64"/>
</linearGradient>
<linearGradient id="paint33_linear_3116_15634" x1="9.19073" y1="6.16766" x2="10.0585" y2="6.16766" gradientUnits="userSpaceOnUse">
<stop stop-color="white" stop-opacity="0.5"/>
<stop offset="0.5" stop-color="white" stop-opacity="0.82"/>
<stop offset="1" stop-color="white" stop-opacity="0.64"/>
</linearGradient>
<linearGradient id="paint34_linear_3116_15634" x1="9.19073" y1="6.18123" x2="10.0585" y2="6.18123" gradientUnits="userSpaceOnUse">
<stop stop-color="white" stop-opacity="0.5"/>
<stop offset="0.5" stop-color="white" stop-opacity="0.82"/>
<stop offset="1" stop-color="white" stop-opacity="0.64"/>
</linearGradient>
<linearGradient id="paint35_linear_3116_15634" x1="6.73842" y1="8.62688" x2="7.61887" y2="8.62688" gradientUnits="userSpaceOnUse">
<stop stop-color="white" stop-opacity="0.5"/>
<stop offset="0.5" stop-color="white" stop-opacity="0.82"/>
<stop offset="1" stop-color="white" stop-opacity="0.64"/>
</linearGradient>
<linearGradient id="paint36_linear_3116_15634" x1="6.73547" y1="8.64078" x2="7.59495" y2="8.64078" gradientUnits="userSpaceOnUse">
<stop stop-color="white" stop-opacity="0.5"/>
<stop offset="0.5" stop-color="white" stop-opacity="0.82"/>
<stop offset="1" stop-color="white" stop-opacity="0.64"/>
</linearGradient>
<linearGradient id="paint37_linear_3116_15634" x1="5.83136" y1="11.9723" x2="6.69909" y2="11.9723" gradientUnits="userSpaceOnUse">
<stop stop-color="white" stop-opacity="0.5"/>
<stop offset="0.5" stop-color="white" stop-opacity="0.82"/>
<stop offset="1" stop-color="white" stop-opacity="0.64"/>
</linearGradient>
<linearGradient id="paint38_linear_3116_15634" x1="5.83136" y1="11.9859" x2="6.69909" y2="11.9859" gradientUnits="userSpaceOnUse">
<stop stop-color="white" stop-opacity="0.5"/>
<stop offset="0.5" stop-color="white" stop-opacity="0.82"/>
<stop offset="1" stop-color="white" stop-opacity="0.64"/>
</linearGradient>
<linearGradient id="paint39_linear_3116_15634" x1="6.71905" y1="15.3317" x2="7.58679" y2="15.3317" gradientUnits="userSpaceOnUse">
<stop stop-color="white" stop-opacity="0.5"/>
<stop offset="0.5" stop-color="white" stop-opacity="0.82"/>
<stop offset="1" stop-color="white" stop-opacity="0.64"/>
</linearGradient>
<linearGradient id="paint40_linear_3116_15634" x1="6.71905" y1="15.3453" x2="7.58679" y2="15.3453" gradientUnits="userSpaceOnUse">
<stop stop-color="white" stop-opacity="0.5"/>
<stop offset="0.5" stop-color="white" stop-opacity="0.82"/>
<stop offset="1" stop-color="white" stop-opacity="0.64"/>
</linearGradient>
<linearGradient id="paint41_linear_3116_15634" x1="9.15737" y1="17.7909" x2="10.0378" y2="17.7909" gradientUnits="userSpaceOnUse">
<stop stop-color="white" stop-opacity="0.5"/>
<stop offset="0.5" stop-color="white" stop-opacity="0.82"/>
<stop offset="1" stop-color="white" stop-opacity="0.64"/>
</linearGradient>
<linearGradient id="paint42_linear_3116_15634" x1="9.18176" y1="17.8048" x2="10.0412" y2="17.8048" gradientUnits="userSpaceOnUse">
<stop stop-color="white" stop-opacity="0.5"/>
<stop offset="0.5" stop-color="white" stop-opacity="0.82"/>
<stop offset="1" stop-color="white" stop-opacity="0.64"/>
</linearGradient>
<linearGradient id="paint43_linear_3116_15634" x1="12.516" y1="18.6911" x2="13.3982" y2="18.6911" gradientUnits="userSpaceOnUse">
<stop stop-color="white" stop-opacity="0.5"/>
<stop offset="0.5" stop-color="white" stop-opacity="0.82"/>
<stop offset="1" stop-color="white" stop-opacity="0.64"/>
</linearGradient>
<linearGradient id="paint44_linear_3116_15634" x1="12.5237" y1="18.7047" x2="13.3915" y2="18.7047" gradientUnits="userSpaceOnUse">
<stop stop-color="white" stop-opacity="0.5"/>
<stop offset="0.5" stop-color="white" stop-opacity="0.82"/>
<stop offset="1" stop-color="white" stop-opacity="0.64"/>
</linearGradient>
<linearGradient id="paint45_linear_3116_15634" x1="15.8848" y1="17.8044" x2="16.7504" y2="17.8044" gradientUnits="userSpaceOnUse">
<stop stop-color="white" stop-opacity="0.5"/>
<stop offset="0.5" stop-color="white" stop-opacity="0.82"/>
<stop offset="1" stop-color="white" stop-opacity="0.64"/>
</linearGradient>
<linearGradient id="paint46_linear_3116_15634" x1="15.8831" y1="17.8179" x2="16.7508" y2="17.8179" gradientUnits="userSpaceOnUse">
<stop stop-color="white" stop-opacity="0.5"/>
<stop offset="0.5" stop-color="white" stop-opacity="0.82"/>
<stop offset="1" stop-color="white" stop-opacity="0.64"/>
</linearGradient>
<linearGradient id="paint47_linear_3116_15634" x1="18.3498" y1="15.373" x2="19.2302" y2="15.373" gradientUnits="userSpaceOnUse">
<stop stop-color="white" stop-opacity="0.5"/>
<stop offset="0.5" stop-color="white" stop-opacity="0.82"/>
<stop offset="1" stop-color="white" stop-opacity="0.64"/>
</linearGradient>
<linearGradient id="paint48_linear_3116_15634" x1="18.3468" y1="15.3595" x2="19.2063" y2="15.3595" gradientUnits="userSpaceOnUse">
<stop stop-color="white" stop-opacity="0.5"/>
<stop offset="0.5" stop-color="white" stop-opacity="0.82"/>
<stop offset="1" stop-color="white" stop-opacity="0.64"/>
</linearGradient>
<linearGradient id="paint49_linear_3116_15634" x1="21.4212" y1="13.0323" x2="22.5523" y2="13.0323" gradientUnits="userSpaceOnUse">
<stop stop-color="white" stop-opacity="0.5"/>
<stop offset="0.5" stop-color="white" stop-opacity="0.82"/>
<stop offset="1" stop-color="white" stop-opacity="0.64"/>
</linearGradient>
<linearGradient id="paint50_linear_3116_15634" x1="21.4211" y1="13.033" x2="22.5512" y2="13.033" gradientUnits="userSpaceOnUse">
<stop stop-color="white" stop-opacity="0.5"/>
<stop offset="0.5" stop-color="white" stop-opacity="0.82"/>
<stop offset="1" stop-color="white" stop-opacity="0.64"/>
</linearGradient>
<linearGradient id="paint51_linear_3116_15634" x1="20.7219" y1="8.38383" x2="21.852" y2="8.38383" gradientUnits="userSpaceOnUse">
<stop stop-color="white" stop-opacity="0.5"/>
<stop offset="0.5" stop-color="white" stop-opacity="0.82"/>
<stop offset="1" stop-color="white" stop-opacity="0.64"/>
</linearGradient>
<linearGradient id="paint52_linear_3116_15634" x1="20.7219" y1="8.40995" x2="21.852" y2="8.40995" gradientUnits="userSpaceOnUse">
<stop stop-color="white" stop-opacity="0.5"/>
<stop offset="0.5" stop-color="white" stop-opacity="0.82"/>
<stop offset="1" stop-color="white" stop-opacity="0.64"/>
</linearGradient>
<linearGradient id="paint53_linear_3116_15634" x1="17.8188" y1="4.72758" x2="18.9508" y2="4.72758" gradientUnits="userSpaceOnUse">
<stop stop-color="white" stop-opacity="0.5"/>
<stop offset="0.5" stop-color="white" stop-opacity="0.82"/>
<stop offset="1" stop-color="white" stop-opacity="0.64"/>
</linearGradient>
<linearGradient id="paint54_linear_3116_15634" x1="17.8054" y1="4.72782" x2="18.9321" y2="4.72782" gradientUnits="userSpaceOnUse">
<stop stop-color="white" stop-opacity="0.5"/>
<stop offset="0.5" stop-color="white" stop-opacity="0.82"/>
<stop offset="1" stop-color="white" stop-opacity="0.64"/>
</linearGradient>
<linearGradient id="paint55_linear_3116_15634" x1="13.4398" y1="2.98149" x2="14.5708" y2="2.98149" gradientUnits="userSpaceOnUse">
<stop stop-color="white" stop-opacity="0.5"/>
<stop offset="0.5" stop-color="white" stop-opacity="0.82"/>
<stop offset="1" stop-color="white" stop-opacity="0.64"/>
</linearGradient>
<linearGradient id="paint56_linear_3116_15634" x1="13.4475" y1="2.98222" x2="14.5707" y2="2.98222" gradientUnits="userSpaceOnUse">
<stop stop-color="white" stop-opacity="0.5"/>
<stop offset="0.5" stop-color="white" stop-opacity="0.82"/>
<stop offset="1" stop-color="white" stop-opacity="0.64"/>
</linearGradient>
<linearGradient id="paint57_linear_3116_15634" x1="8.79037" y1="3.68071" x2="9.92142" y2="3.68071" gradientUnits="userSpaceOnUse">
<stop stop-color="white" stop-opacity="0.5"/>
<stop offset="0.5" stop-color="white" stop-opacity="0.82"/>
<stop offset="1" stop-color="white" stop-opacity="0.64"/>
</linearGradient>
<linearGradient id="paint58_linear_3116_15634" x1="8.79023" y1="3.67948" x2="9.92033" y2="3.67948" gradientUnits="userSpaceOnUse">
<stop stop-color="white" stop-opacity="0.5"/>
<stop offset="0.5" stop-color="white" stop-opacity="0.82"/>
<stop offset="1" stop-color="white" stop-opacity="0.64"/>
</linearGradient>
<linearGradient id="paint59_linear_3116_15634" x1="5.13682" y1="6.61039" x2="6.2663" y2="6.61039" gradientUnits="userSpaceOnUse">
<stop stop-color="white" stop-opacity="0.5"/>
<stop offset="0.5" stop-color="white" stop-opacity="0.82"/>
<stop offset="1" stop-color="white" stop-opacity="0.64"/>
</linearGradient>
<linearGradient id="paint60_linear_3116_15634" x1="5.14399" y1="6.60868" x2="6.25503" y2="6.60868" gradientUnits="userSpaceOnUse">
<stop stop-color="white" stop-opacity="0.5"/>
<stop offset="0.5" stop-color="white" stop-opacity="0.82"/>
<stop offset="1" stop-color="white" stop-opacity="0.64"/>
</linearGradient>
<linearGradient id="paint61_linear_3116_15634" x1="3.41341" y1="10.9639" x2="4.54446" y2="10.9639" gradientUnits="userSpaceOnUse">
<stop stop-color="white" stop-opacity="0.5"/>
<stop offset="0.5" stop-color="white" stop-opacity="0.82"/>
<stop offset="1" stop-color="white" stop-opacity="0.64"/>
</linearGradient>
<linearGradient id="paint62_linear_3116_15634" x1="3.39768" y1="10.9646" x2="4.53489" y2="10.9646" gradientUnits="userSpaceOnUse">
<stop stop-color="white" stop-opacity="0.5"/>
<stop offset="0.5" stop-color="white" stop-opacity="0.82"/>
<stop offset="1" stop-color="white" stop-opacity="0.64"/>
</linearGradient>
<linearGradient id="paint63_linear_3116_15634" x1="4.08711" y1="15.6123" x2="5.2172" y2="15.6123" gradientUnits="userSpaceOnUse">
<stop stop-color="white" stop-opacity="0.5"/>
<stop offset="0.5" stop-color="white" stop-opacity="0.82"/>
<stop offset="1" stop-color="white" stop-opacity="0.64"/>
</linearGradient>
<linearGradient id="paint64_linear_3116_15634" x1="4.08711" y1="15.6131" x2="5.2172" y2="15.6131" gradientUnits="userSpaceOnUse">
<stop stop-color="white" stop-opacity="0.5"/>
<stop offset="0.5" stop-color="white" stop-opacity="0.82"/>
<stop offset="1" stop-color="white" stop-opacity="0.64"/>
</linearGradient>
<linearGradient id="paint65_linear_3116_15634" x1="7.01363" y1="19.2686" x2="8.13515" y2="19.2686" gradientUnits="userSpaceOnUse">
<stop stop-color="white" stop-opacity="0.5"/>
<stop offset="0.5" stop-color="white" stop-opacity="0.82"/>
<stop offset="1" stop-color="white" stop-opacity="0.64"/>
</linearGradient>
<linearGradient id="paint66_linear_3116_15634" x1="7.02485" y1="19.2942" x2="8.13589" y2="19.2942" gradientUnits="userSpaceOnUse">
<stop stop-color="white" stop-opacity="0.5"/>
<stop offset="0.5" stop-color="white" stop-opacity="0.82"/>
<stop offset="1" stop-color="white" stop-opacity="0.64"/>
</linearGradient>
<linearGradient id="paint67_linear_3116_15634" x1="11.3704" y1="21.0147" x2="12.5015" y2="21.0147" gradientUnits="userSpaceOnUse">
<stop stop-color="white" stop-opacity="0.5"/>
<stop offset="0.5" stop-color="white" stop-opacity="0.82"/>
<stop offset="1" stop-color="white" stop-opacity="0.64"/>
</linearGradient>
<linearGradient id="paint68_linear_3116_15634" x1="11.3703" y1="21.0154" x2="12.5004" y2="21.0154" gradientUnits="userSpaceOnUse">
<stop stop-color="white" stop-opacity="0.5"/>
<stop offset="0.5" stop-color="white" stop-opacity="0.82"/>
<stop offset="1" stop-color="white" stop-opacity="0.64"/>
</linearGradient>
<linearGradient id="paint69_linear_3116_15634" x1="16.0189" y1="20.3155" x2="17.1499" y2="20.3155" gradientUnits="userSpaceOnUse">
<stop stop-color="white" stop-opacity="0.5"/>
<stop offset="0.5" stop-color="white" stop-opacity="0.82"/>
<stop offset="1" stop-color="white" stop-opacity="0.64"/>
</linearGradient>
<linearGradient id="paint70_linear_3116_15634" x1="16.0197" y1="20.3162" x2="17.1498" y2="20.3162" gradientUnits="userSpaceOnUse">
<stop stop-color="white" stop-opacity="0.5"/>
<stop offset="0.5" stop-color="white" stop-opacity="0.82"/>
<stop offset="1" stop-color="white" stop-opacity="0.64"/>
</linearGradient>
<linearGradient id="paint71_linear_3116_15634" x1="19.6992" y1="17.3877" x2="20.8207" y2="17.3877" gradientUnits="userSpaceOnUse">
<stop stop-color="white" stop-opacity="0.5"/>
<stop offset="0.5" stop-color="white" stop-opacity="0.82"/>
<stop offset="1" stop-color="white" stop-opacity="0.64"/>
</linearGradient>
<linearGradient id="paint72_linear_3116_15634" x1="19.6831" y1="17.3961" x2="20.7941" y2="17.3961" gradientUnits="userSpaceOnUse">
<stop stop-color="white" stop-opacity="0.5"/>
<stop offset="0.5" stop-color="white" stop-opacity="0.82"/>
<stop offset="1" stop-color="white" stop-opacity="0.64"/>
</linearGradient>
<linearGradient id="paint73_linear_3116_15634" x1="23.4879" y1="14.9833" x2="24.7936" y2="14.9833" gradientUnits="userSpaceOnUse">
<stop stop-color="white" stop-opacity="0.5"/>
<stop offset="0.5" stop-color="white" stop-opacity="0.82"/>
<stop offset="1" stop-color="white" stop-opacity="0.64"/>
</linearGradient>
<linearGradient id="paint74_linear_3116_15634" x1="23.4884" y1="14.9956" x2="24.7845" y2="14.9956" gradientUnits="userSpaceOnUse">
<stop stop-color="white" stop-opacity="0.5"/>
<stop offset="0.5" stop-color="white" stop-opacity="0.82"/>
<stop offset="1" stop-color="white" stop-opacity="0.64"/>
</linearGradient>
<linearGradient id="paint75_linear_3116_15634" x1="23.487" y1="9.01649" x2="24.7867" y2="9.01649" gradientUnits="userSpaceOnUse">
<stop stop-color="white" stop-opacity="0.5"/>
<stop offset="0.5" stop-color="white" stop-opacity="0.82"/>
<stop offset="1" stop-color="white" stop-opacity="0.64"/>
</linearGradient>
<linearGradient id="paint76_linear_3116_15634" x1="23.4886" y1="9.00812" x2="24.7859" y2="9.00812" gradientUnits="userSpaceOnUse">
<stop stop-color="white" stop-opacity="0.5"/>
<stop offset="0.5" stop-color="white" stop-opacity="0.82"/>
<stop offset="1" stop-color="white" stop-opacity="0.64"/>
</linearGradient>
<linearGradient id="paint77_linear_3116_15634" x1="20.5046" y1="3.84289" x2="21.8043" y2="3.84289" gradientUnits="userSpaceOnUse">
<stop stop-color="white" stop-opacity="0.5"/>
<stop offset="0.5" stop-color="white" stop-opacity="0.82"/>
<stop offset="1" stop-color="white" stop-opacity="0.64"/>
</linearGradient>
<linearGradient id="paint78_linear_3116_15634" x1="20.5046" y1="3.84289" x2="21.8043" y2="3.84289" gradientUnits="userSpaceOnUse">
<stop stop-color="white" stop-opacity="0.5"/>
<stop offset="0.5" stop-color="white" stop-opacity="0.82"/>
<stop offset="1" stop-color="white" stop-opacity="0.64"/>
</linearGradient>
<linearGradient id="paint79_linear_3116_15634" x1="15.311" y1="0.846567" x2="16.6228" y2="0.846567" gradientUnits="userSpaceOnUse">
<stop stop-color="white" stop-opacity="0.5"/>
<stop offset="0.5" stop-color="white" stop-opacity="0.82"/>
<stop offset="1" stop-color="white" stop-opacity="0.64"/>
</linearGradient>
<linearGradient id="paint80_linear_3116_15634" x1="15.31" y1="0.833528" x2="16.6145" y2="0.833528" gradientUnits="userSpaceOnUse">
<stop stop-color="white" stop-opacity="0.5"/>
<stop offset="0.5" stop-color="white" stop-opacity="0.82"/>
<stop offset="1" stop-color="white" stop-opacity="0.64"/>
</linearGradient>
<linearGradient id="paint81_linear_3116_15634" x1="9.32477" y1="0.846567" x2="10.6306" y2="0.846567" gradientUnits="userSpaceOnUse">
<stop stop-color="white" stop-opacity="0.5"/>
<stop offset="0.5" stop-color="white" stop-opacity="0.82"/>
<stop offset="1" stop-color="white" stop-opacity="0.64"/>
</linearGradient>
<linearGradient id="paint82_linear_3116_15634" x1="9.32656" y1="0.838199" x2="10.6311" y2="0.838199" gradientUnits="userSpaceOnUse">
<stop stop-color="white" stop-opacity="0.5"/>
<stop offset="0.5" stop-color="white" stop-opacity="0.82"/>
<stop offset="1" stop-color="white" stop-opacity="0.64"/>
</linearGradient>
<linearGradient id="paint83_linear_3116_15634" x1="4.16376" y1="3.84289" x2="5.46347" y2="3.84289" gradientUnits="userSpaceOnUse">
<stop stop-color="white" stop-opacity="0.5"/>
<stop offset="0.5" stop-color="white" stop-opacity="0.82"/>
<stop offset="1" stop-color="white" stop-opacity="0.64"/>
</linearGradient>
<linearGradient id="paint84_linear_3116_15634" x1="4.16376" y1="3.84289" x2="5.46347" y2="3.84289" gradientUnits="userSpaceOnUse">
<stop stop-color="white" stop-opacity="0.5"/>
<stop offset="0.5" stop-color="white" stop-opacity="0.82"/>
<stop offset="1" stop-color="white" stop-opacity="0.64"/>
</linearGradient>
<linearGradient id="paint85_linear_3116_15634" x1="1.14704" y1="9.0304" x2="2.45282" y2="9.0304" gradientUnits="userSpaceOnUse">
<stop stop-color="white" stop-opacity="0.5"/>
<stop offset="0.5" stop-color="white" stop-opacity="0.82"/>
<stop offset="1" stop-color="white" stop-opacity="0.64"/>
</linearGradient>
<linearGradient id="paint86_linear_3116_15634" x1="1.15663" y1="9.00812" x2="2.4612" y2="9.00812" gradientUnits="userSpaceOnUse">
<stop stop-color="white" stop-opacity="0.5"/>
<stop offset="0.5" stop-color="white" stop-opacity="0.82"/>
<stop offset="1" stop-color="white" stop-opacity="0.64"/>
</linearGradient>
<linearGradient id="paint87_linear_3116_15634" x1="1.154" y1="14.9833" x2="2.4537" y2="14.9833" gradientUnits="userSpaceOnUse">
<stop stop-color="white" stop-opacity="0.5"/>
<stop offset="0.5" stop-color="white" stop-opacity="0.82"/>
<stop offset="1" stop-color="white" stop-opacity="0.64"/>
</linearGradient>
<linearGradient id="paint88_linear_3116_15634" x1="1.15561" y1="14.9925" x2="2.45289" y2="14.9925" gradientUnits="userSpaceOnUse">
<stop stop-color="white" stop-opacity="0.5"/>
<stop offset="0.5" stop-color="white" stop-opacity="0.82"/>
<stop offset="1" stop-color="white" stop-opacity="0.64"/>
</linearGradient>
<linearGradient id="paint89_linear_3116_15634" x1="4.16376" y1="20.1827" x2="5.46347" y2="20.1827" gradientUnits="userSpaceOnUse">
<stop stop-color="white" stop-opacity="0.5"/>
<stop offset="0.5" stop-color="white" stop-opacity="0.82"/>
<stop offset="1" stop-color="white" stop-opacity="0.64"/>
</linearGradient>
<linearGradient id="paint90_linear_3116_15634" x1="4.16376" y1="20.1827" x2="5.46347" y2="20.1827" gradientUnits="userSpaceOnUse">
<stop stop-color="white" stop-opacity="0.5"/>
<stop offset="0.5" stop-color="white" stop-opacity="0.82"/>
<stop offset="1" stop-color="white" stop-opacity="0.64"/>
</linearGradient>
<linearGradient id="paint91_linear_3116_15634" x1="9.32392" y1="23.1532" x2="10.6236" y2="23.1532" gradientUnits="userSpaceOnUse">
<stop stop-color="white" stop-opacity="0.5"/>
<stop offset="0.5" stop-color="white" stop-opacity="0.82"/>
<stop offset="1" stop-color="white" stop-opacity="0.64"/>
</linearGradient>
<linearGradient id="paint92_linear_3116_15634" x1="9.32656" y1="23.1675" x2="10.6311" y2="23.1675" gradientUnits="userSpaceOnUse">
<stop stop-color="white" stop-opacity="0.5"/>
<stop offset="0.5" stop-color="white" stop-opacity="0.82"/>
<stop offset="1" stop-color="white" stop-opacity="0.64"/>
</linearGradient>
<linearGradient id="paint93_linear_3116_15634" x1="15.3179" y1="23.1532" x2="16.6164" y2="23.1532" gradientUnits="userSpaceOnUse">
<stop stop-color="white" stop-opacity="0.5"/>
<stop offset="0.5" stop-color="white" stop-opacity="0.82"/>
<stop offset="1" stop-color="white" stop-opacity="0.64"/>
</linearGradient>
<linearGradient id="paint94_linear_3116_15634" x1="15.3177" y1="23.1624" x2="16.615" y2="23.1624" gradientUnits="userSpaceOnUse">
<stop stop-color="white" stop-opacity="0.5"/>
<stop offset="0.5" stop-color="white" stop-opacity="0.82"/>
<stop offset="1" stop-color="white" stop-opacity="0.64"/>
</linearGradient>
<linearGradient id="paint95_linear_3116_15634" x1="20.5046" y1="20.1827" x2="21.8043" y2="20.1827" gradientUnits="userSpaceOnUse">
<stop stop-color="white" stop-opacity="0.5"/>
<stop offset="0.5" stop-color="white" stop-opacity="0.82"/>
<stop offset="1" stop-color="white" stop-opacity="0.64"/>
</linearGradient>
<linearGradient id="paint96_linear_3116_15634" x1="20.5046" y1="20.1827" x2="21.8043" y2="20.1827" gradientUnits="userSpaceOnUse">
<stop stop-color="white" stop-opacity="0.5"/>
<stop offset="0.5" stop-color="white" stop-opacity="0.82"/>
<stop offset="1" stop-color="white" stop-opacity="0.64"/>
</linearGradient>
</defs>
</svg>
