<svg width="100" height="24" viewBox="0 0 100 24" fill="none" xmlns="http://www.w3.org/2000/svg">
<path d="M11.2897 9.5509C10.0253 3.97314 7.39002 2.48827 6.71778 1.43862C6.44058 0.976226 6.19502 0.495585 5.98278 0C5.94727 0.495507 5.88203 0.807676 5.46085 1.18344C4.61518 1.93743 1.02358 4.86423 0.721325 11.2018C0.439712 17.1107 5.06527 20.7543 5.67639 21.1309C6.1463 21.3621 6.71861 21.1358 6.99775 20.9236C9.22753 19.3933 12.2741 15.3136 11.2921 9.5509" fill="white"/>
<path d="M6.17422 17.9844C6.05777 19.4469 5.97436 20.2967 5.67871 21.1325C5.67871 21.1325 5.87278 22.5249 6.00905 23.9998H6.49134C6.60639 22.9612 6.78204 21.9301 7.01741 20.912C6.39307 20.6048 6.19817 19.2677 6.17422 17.9844Z" fill="#B8C4C2"/>
<path d="M7.01701 20.9123C6.38607 20.6208 6.20356 19.2557 6.17548 17.9839C6.33151 15.886 6.377 13.7813 6.31174 11.6786C6.27871 10.5752 6.32743 1.45957 6.04004 0.125C6.23663 0.577004 6.46314 1.0154 6.71806 1.43727C7.3903 2.48774 10.0264 3.97261 11.2899 9.55037C12.2743 15.3032 9.24432 19.3721 7.01701 20.9123Z" fill="#A0A0A0"/>
<path d="M32.8475 6.88V18H31.0235V10.384L27.6315 18H26.3675L22.9595 10.384V18H21.1355V6.88H23.1035L27.0075 15.6L30.8955 6.88H32.8475ZM39.3889 18.144C38.5569 18.144 37.8049 17.9573 37.1329 17.584C36.4609 17.2 35.9329 16.6667 35.5489 15.984C35.1649 15.2907 34.9729 14.4907 34.9729 13.584C34.9729 12.688 35.1702 11.8933 35.5649 11.2C35.9596 10.5067 36.4982 9.97333 37.1809 9.6C37.8636 9.22667 38.6262 9.04 39.4689 9.04C40.3116 9.04 41.0742 9.22667 41.7569 9.6C42.4396 9.97333 42.9782 10.5067 43.3729 11.2C43.7676 11.8933 43.9649 12.688 43.9649 13.584C43.9649 14.48 43.7622 15.2747 43.3569 15.968C42.9516 16.6613 42.3969 17.2 41.6929 17.584C40.9996 17.9573 40.2316 18.144 39.3889 18.144ZM39.3889 16.56C39.8582 16.56 40.2956 16.448 40.7009 16.224C41.1169 16 41.4529 15.664 41.7089 15.216C41.9649 14.768 42.0929 14.224 42.0929 13.584C42.0929 12.944 41.9702 12.4053 41.7249 11.968C41.4796 11.52 41.1542 11.184 40.7489 10.96C40.3436 10.736 39.9062 10.624 39.4369 10.624C38.9676 10.624 38.5302 10.736 38.1249 10.96C37.7302 11.184 37.4156 11.52 37.1809 11.968C36.9462 12.4053 36.8289 12.944 36.8289 13.584C36.8289 14.5333 37.0689 15.2693 37.5489 15.792C38.0396 16.304 38.6529 16.56 39.3889 16.56ZM50.536 9.04C51.2293 9.04 51.848 9.184 52.392 9.472C52.9467 9.76 53.3787 10.1867 53.688 10.752C53.9973 11.3173 54.152 12 54.152 12.8V18H52.344V13.072C52.344 12.2827 52.1467 11.68 51.752 11.264C51.3573 10.8373 50.8187 10.624 50.136 10.624C49.4533 10.624 48.9093 10.8373 48.504 11.264C48.1093 11.68 47.912 12.2827 47.912 13.072V18H46.088V9.184H47.912V10.192C48.2107 9.82933 48.5893 9.54667 49.048 9.344C49.5173 9.14133 50.0133 9.04 50.536 9.04ZM60.3506 9.04C61.0333 9.04 61.636 9.17867 62.1586 9.456C62.692 9.72267 63.108 10.0587 63.4066 10.464V9.184H65.2466V18.144C65.2466 18.9547 65.076 19.6747 64.7346 20.304C64.3933 20.944 63.8973 21.4453 63.2466 21.808C62.6066 22.1707 61.8386 22.352 60.9426 22.352C59.748 22.352 58.756 22.0693 57.9666 21.504C57.1773 20.9493 56.7293 20.192 56.6226 19.232H58.4306C58.5693 19.6907 58.8626 20.0587 59.3106 20.336C59.7693 20.624 60.3133 20.768 60.9426 20.768C61.6786 20.768 62.2706 20.544 62.7186 20.096C63.1773 19.648 63.4066 18.9973 63.4066 18.144V16.672C63.0973 17.088 62.676 17.44 62.1426 17.728C61.62 18.0053 61.0226 18.144 60.3506 18.144C59.5826 18.144 58.8786 17.952 58.2386 17.568C57.6093 17.1733 57.108 16.6293 56.7346 15.936C56.372 15.232 56.1906 14.4373 56.1906 13.552C56.1906 12.6667 56.372 11.8827 56.7346 11.2C57.108 10.5173 57.6093 9.98933 58.2386 9.616C58.8786 9.232 59.5826 9.04 60.3506 9.04ZM63.4066 13.584C63.4066 12.976 63.2786 12.448 63.0226 12C62.7773 11.552 62.452 11.2107 62.0466 10.976C61.6413 10.7413 61.204 10.624 60.7346 10.624C60.2653 10.624 59.828 10.7413 59.4226 10.976C59.0173 11.2 58.6866 11.536 58.4306 11.984C58.1853 12.4213 58.0626 12.944 58.0626 13.552C58.0626 14.16 58.1853 14.6933 58.4306 15.152C58.6866 15.6107 59.0173 15.9627 59.4226 16.208C59.8386 16.4427 60.276 16.56 60.7346 16.56C61.204 16.56 61.6413 16.4427 62.0466 16.208C62.452 15.9733 62.7773 15.632 63.0226 15.184C63.2786 14.7253 63.4066 14.192 63.4066 13.584ZM71.7864 18.144C70.9544 18.144 70.2024 17.9573 69.5304 17.584C68.8584 17.2 68.3304 16.6667 67.9464 15.984C67.5624 15.2907 67.3704 14.4907 67.3704 13.584C67.3704 12.688 67.5677 11.8933 67.9624 11.2C68.357 10.5067 68.8957 9.97333 69.5784 9.6C70.261 9.22667 71.0237 9.04 71.8664 9.04C72.709 9.04 73.4717 9.22667 74.1544 9.6C74.837 9.97333 75.3757 10.5067 75.7704 11.2C76.165 11.8933 76.3624 12.688 76.3624 13.584C76.3624 14.48 76.1597 15.2747 75.7544 15.968C75.349 16.6613 74.7944 17.2 74.0904 17.584C73.397 17.9573 72.629 18.144 71.7864 18.144ZM71.7864 16.56C72.2557 16.56 72.693 16.448 73.0984 16.224C73.5144 16 73.8504 15.664 74.1064 15.216C74.3624 14.768 74.4904 14.224 74.4904 13.584C74.4904 12.944 74.3677 12.4053 74.1224 11.968C73.877 11.52 73.5517 11.184 73.1464 10.96C72.741 10.736 72.3037 10.624 71.8344 10.624C71.365 10.624 70.9277 10.736 70.5224 10.96C70.1277 11.184 69.813 11.52 69.5784 11.968C69.3437 12.4053 69.2264 12.944 69.2264 13.584C69.2264 14.5333 69.4664 15.2693 69.9464 15.792C70.437 16.304 71.0504 16.56 71.7864 16.56ZM82.1175 6.88C83.3015 6.88 84.3362 7.10933 85.2215 7.568C86.1175 8.016 86.8055 8.66667 87.2855 9.52C87.7762 10.3627 88.0215 11.3493 88.0215 12.48C88.0215 13.6107 87.7762 14.592 87.2855 15.424C86.8055 16.256 86.1175 16.896 85.2215 17.344C84.3362 17.7813 83.3015 18 82.1175 18H78.4855V6.88H82.1175ZM82.1175 16.512C83.4188 16.512 84.4162 16.16 85.1095 15.456C85.8028 14.752 86.1495 13.76 86.1495 12.48C86.1495 11.1893 85.8028 10.1813 85.1095 9.456C84.4162 8.73067 83.4188 8.368 82.1175 8.368H80.3095V16.512H82.1175ZM96.1013 12.288C96.6986 12.3947 97.2053 12.7093 97.6213 13.232C98.0373 13.7547 98.2453 14.3467 98.2453 15.008C98.2453 15.5733 98.0959 16.0853 97.7973 16.544C97.5093 16.992 97.0879 17.3493 96.5333 17.616C95.9786 17.872 95.3333 18 94.5973 18H90.1493V6.88H94.3893C95.1466 6.88 95.7973 7.008 96.3413 7.264C96.8853 7.52 97.2959 7.86667 97.5733 8.304C97.8506 8.73067 97.9893 9.21067 97.9893 9.744C97.9893 10.384 97.8186 10.9173 97.4773 11.344C97.1359 11.7707 96.6773 12.0853 96.1013 12.288ZM91.9733 11.552H94.2293C94.8266 11.552 95.2906 11.4187 95.6213 11.152C95.9626 10.8747 96.1333 10.48 96.1333 9.968C96.1333 9.46667 95.9626 9.07733 95.6213 8.8C95.2906 8.512 94.8266 8.368 94.2293 8.368H91.9733V11.552ZM94.4373 16.512C95.0559 16.512 95.5413 16.3627 95.8933 16.064C96.2453 15.7653 96.4213 15.3493 96.4213 14.816C96.4213 14.272 96.2346 13.84 95.8613 13.52C95.4879 13.2 94.9919 13.04 94.3733 13.04H91.9733V16.512H94.4373Z" fill="#F4F4F5"/>
</svg>
