<svg width="92" height="24" viewBox="0 0 92 24" fill="none" xmlns="http://www.w3.org/2000/svg">
<g clip-path="url(#clip0_3116_16846)">
<path d="M19.084 0H6.33398C3.22738 0 0.708984 2.5184 0.708984 5.625V18.375C0.708984 21.4816 3.22738 24 6.33398 24H19.084C22.1906 24 24.709 21.4816 24.709 18.375V5.625C24.709 2.5184 22.1906 0 19.084 0Z" fill="white"/>
<mask id="mask0_3116_16846" style="mask-type:luminance" maskUnits="userSpaceOnUse" x="2" y="2" width="21" height="20">
<path d="M2.70898 2H22.709V22H2.70898V2Z" fill="white"/>
</mask>
<g mask="url(#mask0_3116_16846)">
<path fill-rule="evenodd" clip-rule="evenodd" d="M19.8155 16.7078C18.8976 16.6823 18.1856 16.7763 17.5889 17.0273C17.417 17.0963 17.1413 17.0963 17.1186 17.3126C17.2105 17.4034 17.2216 17.5519 17.3021 17.6777C17.4396 17.906 17.681 18.2135 17.8988 18.373L18.6333 18.8978C19.0808 19.1713 19.5858 19.3312 20.0218 19.6049C20.2744 19.7647 20.5267 19.97 20.7793 20.1413C20.9079 20.2325 20.9858 20.3811 21.1466 20.4378V20.4033C21.0664 20.301 21.0432 20.1528 20.9632 20.0382L20.6185 19.7077C20.286 19.2629 19.8725 18.8748 19.425 18.5557C19.0577 18.3048 18.2546 17.9627 18.1054 17.5409L18.0828 17.5153C18.3349 17.4898 18.6333 17.401 18.8745 17.3326C19.265 17.2303 19.6205 17.2528 20.0218 17.1502L20.573 16.9905V16.8882C20.3664 16.683 20.2173 16.4092 19.9994 16.2155C19.4142 15.7136 18.7711 15.223 18.1054 14.8125C17.7497 14.5845 17.2905 14.4359 16.9118 14.2424C16.7737 14.1739 16.5445 14.1397 16.4643 14.0257C16.2572 13.7752 16.1427 13.444 15.9935 13.1473L15.0526 11.1628C14.846 10.718 14.7195 10.2731 14.4674 9.86259C13.2851 7.92356 11.9995 6.74897 10.0255 5.59678C9.60111 5.35725 9.09617 5.25422 8.55927 5.12897L7.69864 5.08303C7.51471 5.00325 7.33124 4.78641 7.17055 4.68366C6.51636 4.27303 4.82924 3.38353 4.3468 4.55587C4.03696 5.29716 4.80608 6.027 5.06717 6.40359C5.26264 6.66591 5.51474 6.96234 5.65283 7.25897C5.72999 7.45275 5.75577 7.65825 5.8363 7.86356C6.01967 8.36531 6.19199 8.92444 6.43302 9.39225C6.56164 9.63178 6.69674 9.88303 6.85742 10.0996C6.9493 10.2274 7.11008 10.2821 7.1443 10.4873C6.98352 10.7156 6.97246 11.0574 6.88058 11.343C6.46724 12.6319 6.62802 14.2286 7.21321 15.1776C7.39714 15.4626 7.83055 16.0901 8.41864 15.8504C8.93511 15.6451 8.81989 14.995 8.96905 14.4247C9.00374 14.288 8.98067 14.1967 9.0493 14.1052V14.1307L9.52002 15.0773C9.8758 15.6362 10.4958 16.218 11.012 16.606C11.2872 16.8113 11.5054 17.1652 11.8495 17.2904V17.2559H11.8269C11.7579 17.1536 11.6545 17.1076 11.5627 17.0278C11.3562 16.8226 11.1267 16.5715 10.9659 16.3435C10.4841 15.7049 10.0597 14.9976 9.6808 14.2677C9.49696 13.9142 9.33617 13.5263 9.18749 13.1728C9.11802 13.0358 9.11802 12.8302 9.00355 12.7623C8.83114 13.0128 8.57914 13.2301 8.4523 13.5379C8.23414 14.0282 8.21155 14.6328 8.1313 15.2602C8.08499 15.2716 8.10552 15.2602 8.08499 15.2857C7.71814 15.1947 7.59158 14.8178 7.45405 14.4988C7.1098 13.689 7.05214 12.3888 7.35055 11.4534C7.4308 11.2139 7.77552 10.4611 7.63789 10.233C7.56852 10.0163 7.33949 9.891 7.21292 9.71972C7.06377 9.50297 6.90355 9.22941 6.80014 8.98987C6.52489 8.35078 6.38727 7.64391 6.08858 7.00519C5.95049 6.70856 5.70974 6.4005 5.51446 6.12703C5.2963 5.81897 5.05583 5.60212 4.88352 5.23734C4.82614 5.10956 4.74589 4.90659 4.83767 4.76953C4.86036 4.67831 4.90658 4.64175 4.99799 4.62131C5.14705 4.49344 5.57211 4.65553 5.72127 4.7235C6.14567 4.89478 6.50146 5.05434 6.85724 5.29359C7.01802 5.40759 7.19033 5.62444 7.39686 5.68172H7.63818C8.00549 5.76141 8.41836 5.70722 8.76224 5.8095C9.37067 6.00375 9.92136 6.28856 10.4152 6.59681C11.9185 7.5435 13.1584 8.88937 13.9958 10.4978C14.1335 10.7602 14.1908 10.9997 14.3174 11.2734C14.5587 11.8326 14.8571 12.4027 15.0976 12.9504C15.3389 13.4865 15.5683 14.0344 15.9125 14.4791C16.0849 14.7187 16.7732 14.8439 17.0829 14.9694C17.3126 15.0717 17.6681 15.1638 17.8752 15.289C18.2651 15.5286 18.6554 15.8023 19.0224 16.0646C19.2058 16.2011 19.78 16.4864 19.8141 16.7139L19.8155 16.7078ZM8.11142 6.79622C7.9529 6.79483 7.79487 6.81398 7.64127 6.85322V6.87881H7.66386C7.75574 7.06134 7.91652 7.18687 8.03117 7.34662L8.29536 7.89412L8.31805 7.86862C8.47874 7.75462 8.55927 7.57209 8.55927 7.29862C8.49036 7.21884 8.47902 7.13878 8.42164 7.059C8.35274 6.945 8.20358 6.88772 8.11142 6.79678V6.79622Z" fill="black" stroke="black"/>
</g>
</g>
<path d="M45.8522 6.88V18H44.0282V10.384L40.6362 18H39.3722L35.9642 10.384V18H34.1402V6.88H36.1082L40.0122 15.6L43.9002 6.88H45.8522ZM56.5056 9.184L51.0976 22.144H49.2096L51.0016 17.856L47.5296 9.184H49.5616L52.0416 15.904L54.6176 9.184H56.5056ZM66.3424 18.112C65.5957 18.112 64.9237 17.984 64.3264 17.728C63.729 17.4613 63.2597 17.088 62.9184 16.608C62.577 16.128 62.4064 15.568 62.4064 14.928H64.3584C64.401 15.408 64.5877 15.8027 64.9184 16.112C65.2597 16.4213 65.7344 16.576 66.3424 16.576C66.9717 16.576 67.4624 16.4267 67.8144 16.128C68.1664 15.8187 68.3424 15.424 68.3424 14.944C68.3424 14.5707 68.2304 14.2667 68.0064 14.032C67.793 13.7973 67.521 13.616 67.1904 13.488C66.8704 13.36 66.4224 13.2213 65.8464 13.072C65.121 12.88 64.529 12.688 64.0704 12.496C63.6224 12.2933 63.2384 11.984 62.9184 11.568C62.5984 11.152 62.4384 10.5973 62.4384 9.904C62.4384 9.264 62.5984 8.704 62.9184 8.224C63.2384 7.744 63.6864 7.376 64.2624 7.12C64.8384 6.864 65.505 6.736 66.2624 6.736C67.3397 6.736 68.2197 7.008 68.9024 7.552C69.5957 8.08533 69.9797 8.82133 70.0544 9.76H68.0384C68.0064 9.35467 67.8144 9.008 67.4624 8.72C67.1104 8.432 66.6464 8.288 66.0704 8.288C65.5477 8.288 65.121 8.42133 64.7904 8.688C64.4597 8.95467 64.2944 9.33867 64.2944 9.84C64.2944 10.1813 64.3957 10.464 64.5984 10.688C64.8117 10.9013 65.0784 11.072 65.3984 11.2C65.7184 11.328 66.1557 11.4667 66.7104 11.616C67.4464 11.8187 68.0437 12.0213 68.5024 12.224C68.9717 12.4267 69.3664 12.7413 69.6864 13.168C70.017 13.584 70.1824 14.144 70.1824 14.848C70.1824 15.4133 70.0277 15.9467 69.7184 16.448C69.4197 16.9493 68.977 17.3547 68.3904 17.664C67.8144 17.9627 67.1317 18.112 66.3424 18.112ZM81.2626 20.016L79.3106 17.904C78.8306 18.0427 78.3026 18.112 77.7266 18.112C76.6919 18.112 75.7373 17.872 74.8626 17.392C73.9986 16.9013 73.3106 16.224 72.7986 15.36C72.2973 14.4853 72.0466 13.504 72.0466 12.416C72.0466 11.328 72.2973 10.352 72.7986 9.488C73.3106 8.624 73.9986 7.952 74.8626 7.472C75.7373 6.98133 76.6919 6.736 77.7266 6.736C78.7719 6.736 79.7266 6.98133 80.5906 7.472C81.4653 7.952 82.1533 8.624 82.6546 9.488C83.1559 10.352 83.4066 11.328 83.4066 12.416C83.4066 13.44 83.1826 14.368 82.7346 15.2C82.2973 16.0213 81.6893 16.6827 80.9106 17.184L83.5826 20.016H81.2626ZM73.9186 12.416C73.9186 13.2373 74.0786 13.9627 74.3986 14.592C74.7293 15.2107 75.1826 15.6907 75.7586 16.032C76.3346 16.3627 76.9906 16.528 77.7266 16.528C78.4626 16.528 79.1186 16.3627 79.6946 16.032C80.2706 15.6907 80.7186 15.2107 81.0386 14.592C81.3693 13.9627 81.5346 13.2373 81.5346 12.416C81.5346 11.5947 81.3693 10.8747 81.0386 10.256C80.7186 9.63733 80.2706 9.16267 79.6946 8.832C79.1186 8.50133 78.4626 8.336 77.7266 8.336C76.9906 8.336 76.3346 8.50133 75.7586 8.832C75.1826 9.16267 74.7293 9.63733 74.3986 10.256C74.0786 10.8747 73.9186 11.5947 73.9186 12.416ZM87.3924 16.528H91.1524V18H85.5684V6.88H87.3924V16.528Z" fill="#F4F4F5"/>
<defs>
<clipPath id="clip0_3116_16846">
<rect width="24" height="24" fill="white" transform="translate(0.708984)"/>
</clipPath>
</defs>
</svg>
