<svg width="92" height="24" viewBox="0 0 92 24" fill="none" xmlns="http://www.w3.org/2000/svg">
<g clip-path="url(#clip0_3116_15766)">
<mask id="mask0_3116_15766" style="mask-type:luminance" maskUnits="userSpaceOnUse" x="0" y="0" width="25" height="24">
<path d="M24.8223 0H0.822266V24H24.8223V0Z" fill="white"/>
</mask>
<g mask="url(#mask0_3116_15766)">
<mask id="mask1_3116_15766" style="mask-type:alpha" maskUnits="userSpaceOnUse" x="0" y="0" width="25" height="24">
<path d="M12.8223 24C19.4497 24 24.8223 18.6274 24.8223 12C24.8223 5.37258 19.4497 0 12.8223 0C6.19485 0 0.822266 5.37258 0.822266 12C0.822266 18.6274 6.19485 24 12.8223 24Z" fill="black"/>
</mask>
<g mask="url(#mask1_3116_15766)">
<path d="M12.8217 23.6004C19.2282 23.6004 24.4217 18.4069 24.4217 12.0004C24.4217 5.59389 19.2282 0.400391 12.8217 0.400391C6.41518 0.400391 1.22168 5.59389 1.22168 12.0004C1.22168 18.4069 6.41518 23.6004 12.8217 23.6004Z" stroke="white" stroke-width="0.8"/>
<path d="M20.7559 21.0038L10.0404 7.20117H8.02148V16.7972H9.63663V9.25232L19.4881 21.9805C19.9326 21.683 20.3561 21.3565 20.7559 21.0038Z" fill="url(#paint0_linear_3116_15766)"/>
<path d="M17.7553 7.20117H16.1553V16.8012H17.7553V7.20117Z" fill="url(#paint1_linear_3116_15766)"/>
</g>
</g>
</g>
<path d="M42.9638 18H41.5078L35.6518 9.12V18H34.1958V6.832H35.6518L41.5078 15.696V6.832H42.9638V18ZM53.7658 13.28C53.7658 13.5573 53.7498 13.8507 53.7178 14.16H46.7098C46.7632 15.024 47.0565 15.7013 47.5898 16.192C48.1338 16.672 48.7898 16.912 49.5578 16.912C50.1872 16.912 50.7098 16.768 51.1258 16.48C51.5525 16.1813 51.8512 15.7867 52.0218 15.296H53.5898C53.3552 16.1387 52.8858 16.8267 52.1818 17.36C51.4778 17.8827 50.6032 18.144 49.5578 18.144C48.7258 18.144 47.9792 17.9573 47.3178 17.584C46.6672 17.2107 46.1552 16.6827 45.7818 16C45.4085 15.3067 45.2218 14.5067 45.2218 13.6C45.2218 12.6933 45.4032 11.8987 45.7658 11.216C46.1285 10.5333 46.6352 10.0107 47.2858 9.648C47.9472 9.27467 48.7045 9.088 49.5578 9.088C50.3898 9.088 51.1258 9.26933 51.7658 9.632C52.4058 9.99467 52.8965 10.496 53.2378 11.136C53.5898 11.7653 53.7658 12.48 53.7658 13.28ZM52.2618 12.976C52.2618 12.4213 52.1392 11.9467 51.8938 11.552C51.6485 11.1467 51.3125 10.8427 50.8858 10.64C50.4698 10.4267 50.0058 10.32 49.4938 10.32C48.7578 10.32 48.1285 10.5547 47.6058 11.024C47.0938 11.4933 46.8005 12.144 46.7258 12.976H52.2618ZM60.5837 18L58.5037 14.736L56.5037 18H54.9837L57.8157 13.648L54.9837 9.232H56.6317L58.7117 12.48L60.6957 9.232H62.2157L59.3997 13.568L62.2317 18H60.5837ZM65.76 10.432V15.6C65.76 16.0267 65.8506 16.3307 66.032 16.512C66.2133 16.6827 66.528 16.768 66.976 16.768H68.048V18H66.736C65.9253 18 65.3173 17.8133 64.912 17.44C64.5066 17.0667 64.304 16.4533 64.304 15.6V10.432H63.168V9.232H64.304V7.024H65.76V9.232H68.048V10.432H65.76ZM80.3337 6.848V15.088C80.3337 16.0053 80.051 16.7413 79.4857 17.296C78.9204 17.84 78.1737 18.112 77.2457 18.112C76.307 18.112 75.555 17.8347 74.9897 17.28C74.4244 16.7147 74.1417 15.9467 74.1417 14.976H75.5977C75.6084 15.52 75.747 15.9627 76.0137 16.304C76.291 16.6453 76.7017 16.816 77.2457 16.816C77.7897 16.816 78.195 16.656 78.4617 16.336C78.7284 16.0053 78.8617 15.5893 78.8617 15.088V6.848H80.3337ZM87.0581 18.112C86.3221 18.112 85.6607 17.984 85.0741 17.728C84.4981 17.4613 84.0447 17.0987 83.7141 16.64C83.3834 16.1707 83.2127 15.632 83.2021 15.024H84.7541C84.8074 15.5467 85.0207 15.9893 85.3941 16.352C85.7781 16.704 86.3327 16.88 87.0581 16.88C87.7514 16.88 88.2954 16.7093 88.6901 16.368C89.0954 16.016 89.2981 15.568 89.2981 15.024C89.2981 14.5973 89.1807 14.2507 88.9461 13.984C88.7114 13.7173 88.4181 13.5147 88.0661 13.376C87.7141 13.2373 87.2394 13.088 86.6421 12.928C85.9061 12.736 85.3141 12.544 84.8661 12.352C84.4287 12.16 84.0501 11.8613 83.7301 11.456C83.4207 11.04 83.2661 10.4853 83.2661 9.792C83.2661 9.184 83.4207 8.64533 83.7301 8.176C84.0394 7.70667 84.4714 7.344 85.0261 7.088C85.5914 6.832 86.2367 6.704 86.9621 6.704C88.0074 6.704 88.8607 6.96533 89.5221 7.488C90.1941 8.01067 90.5727 8.704 90.6581 9.568H89.0581C89.0047 9.14133 88.7807 8.768 88.3861 8.448C87.9914 8.11733 87.4687 7.952 86.8181 7.952C86.2101 7.952 85.7141 8.112 85.3301 8.432C84.9461 8.74133 84.7541 9.17867 84.7541 9.744C84.7541 10.1493 84.8661 10.48 85.0901 10.736C85.3247 10.992 85.6074 11.1893 85.9381 11.328C86.2794 11.456 86.7541 11.6053 87.3621 11.776C88.0981 11.9787 88.6901 12.1813 89.1381 12.384C89.5861 12.576 89.9701 12.88 90.2901 13.296C90.6101 13.7013 90.7701 14.256 90.7701 14.96C90.7701 15.504 90.6261 16.016 90.3381 16.496C90.0501 16.976 89.6234 17.3653 89.0581 17.664C88.4927 17.9627 87.8261 18.112 87.0581 18.112Z" fill="#F4F4F5"/>
<defs>
<linearGradient id="paint0_linear_3116_15766" x1="15.3549" y1="15.5345" x2="20.0882" y2="21.4012" gradientUnits="userSpaceOnUse">
<stop stop-color="white"/>
<stop offset="1" stop-color="white" stop-opacity="0"/>
</linearGradient>
<linearGradient id="paint1_linear_3116_15766" x1="16.9553" y1="7.20117" x2="16.9285" y2="14.2512" gradientUnits="userSpaceOnUse">
<stop stop-color="white"/>
<stop offset="1" stop-color="white" stop-opacity="0"/>
</linearGradient>
<clipPath id="clip0_3116_15766">
<rect width="24" height="24" fill="white" transform="translate(0.822266)"/>
</clipPath>
</defs>
</svg>
