<svg width="90" height="24" viewBox="0 0 90 24" fill="none" xmlns="http://www.w3.org/2000/svg">
<g clip-path="url(#clip0_3193_38013)">
<path d="M11.8019 0.153333C11.9739 0.0529147 12.1696 0 12.3689 0C12.5681 0 12.7638 0.0529147 12.9359 0.153333L22.2569 5.59083C22.427 5.68976 22.5682 5.83158 22.6664 6.00214C22.7645 6.1727 22.8163 6.36603 22.8164 6.56283V17.4378C22.8163 17.6346 22.7645 17.828 22.6664 17.9985C22.5682 18.1691 22.427 18.3109 22.2569 18.4098L12.9359 23.8473C12.7638 23.9478 12.5681 24.0007 12.3689 24.0007C12.1696 24.0007 11.9739 23.9478 11.8019 23.8473L9.47235 22.4883C9.21456 22.338 9.02707 22.0913 8.95111 21.8027C8.87516 21.5141 8.91697 21.2071 9.06735 20.9493C9.21773 20.6915 9.46435 20.504 9.75297 20.4281C10.0416 20.3521 10.3486 20.394 10.6064 20.5443L12.3689 21.5733L20.5664 16.7913V7.20933L12.3689 2.42733L4.17285 7.20933V16.7913L5.84835 17.7693C6.36435 17.9343 7.00335 17.9748 7.45185 17.7768C7.68664 17.674 7.87926 17.4941 7.99785 17.2668C8.15385 16.9848 8.29785 16.5153 8.29785 15.7503V7.87533C8.29785 7.57696 8.41638 7.29082 8.62736 7.07984C8.83833 6.86886 9.12448 6.75033 9.42285 6.75033C9.72122 6.75033 10.0074 6.86886 10.2183 7.07984C10.4293 7.29082 10.5479 7.57696 10.5479 7.87533V15.7503C10.5479 16.7853 10.3544 17.6583 9.96285 18.3603C9.60641 19.0153 9.04308 19.5338 8.36085 19.8348C7.15185 20.3688 5.81535 20.1498 4.99785 19.8558C4.93333 19.8326 4.87107 19.8034 4.81185 19.7688L2.48085 18.4098C2.311 18.3107 2.1701 18.1688 2.07219 17.9983C1.97428 17.8277 1.92279 17.6345 1.92285 17.4378V6.56283C1.92279 6.36618 1.97428 6.17295 2.07219 6.0024C2.1701 5.83185 2.311 5.68995 2.48085 5.59083L11.8019 0.153333ZM12.7919 7.92483C13.3874 7.21683 14.3174 6.75033 15.5789 6.75033C16.7489 6.75033 17.6414 7.15233 18.2459 7.78983C18.351 7.89647 18.4337 8.02302 18.4893 8.16206C18.5449 8.3011 18.5721 8.44983 18.5695 8.59954C18.5668 8.74925 18.5343 8.89692 18.4738 9.0339C18.4133 9.17088 18.3261 9.29441 18.2173 9.39725C18.1085 9.50009 17.9802 9.58017 17.84 9.6328C17.6999 9.68542 17.5506 9.70954 17.401 9.70372C17.2513 9.69791 17.1044 9.66229 16.9687 9.59894C16.833 9.5356 16.7114 9.44581 16.6109 9.33483C16.4774 9.19833 16.2029 9.00033 15.5774 9.00033C14.9144 9.00033 14.6414 9.22233 14.5139 9.37233C14.3824 9.53252 14.3061 9.73084 14.2964 9.93783C14.2964 10.0623 14.3504 10.3083 14.5139 10.5033C14.6414 10.6533 14.9144 10.8753 15.5789 10.8753C15.6865 10.875 15.7935 10.8902 15.8969 10.9203C16.8269 11.0553 17.5349 11.4723 18.0209 12.0498C18.5789 12.7143 18.7649 13.5003 18.7649 14.0628C18.7649 14.6253 18.5789 15.4113 18.0209 16.0758C17.4254 16.7838 16.4954 17.2503 15.2339 17.2503C14.0639 17.2503 13.1714 16.8483 12.5684 16.2108C12.3708 15.9927 12.2666 15.7059 12.278 15.4119C12.2894 15.1179 12.4156 14.84 12.6295 14.6379C12.8433 14.4358 13.1279 14.3255 13.4221 14.3307C13.7163 14.336 13.9968 14.4563 14.2034 14.6658C14.3339 14.8038 14.6099 15.0003 15.2339 15.0003C15.8969 15.0003 16.1714 14.7783 16.2989 14.6283C16.4298 14.468 16.5055 14.2697 16.5149 14.0628C16.5051 13.8558 16.4288 13.6575 16.2974 13.4973C16.1714 13.3473 15.8969 13.1253 15.2339 13.1253C15.1257 13.1258 15.0181 13.1106 14.9144 13.0803C13.9844 12.9453 13.2764 12.5283 12.7919 11.9508C12.3194 11.3855 12.0561 10.6746 12.0464 9.93783C12.0464 9.37533 12.2324 8.58933 12.7919 7.92483Z" fill="url(#paint0_linear_3193_38013)"/>
</g>
<path d="M42.8495 18H41.0255L35.5375 9.696V18H33.7135V6.864H35.5375L41.0255 15.152V6.864H42.8495V18ZM49.3887 18.144C48.5567 18.144 47.8047 17.9573 47.1327 17.584C46.4607 17.2 45.9327 16.6667 45.5487 15.984C45.1647 15.2907 44.9727 14.4907 44.9727 13.584C44.9727 12.688 45.1701 11.8933 45.5647 11.2C45.9594 10.5067 46.4981 9.97333 47.1807 9.6C47.8634 9.22667 48.6261 9.04 49.4687 9.04C50.3114 9.04 51.0741 9.22667 51.7567 9.6C52.4394 9.97333 52.9781 10.5067 53.3727 11.2C53.7674 11.8933 53.9647 12.688 53.9647 13.584C53.9647 14.48 53.7621 15.2747 53.3567 15.968C52.9514 16.6613 52.3967 17.2 51.6927 17.584C50.9994 17.9573 50.2314 18.144 49.3887 18.144ZM49.3887 16.56C49.8581 16.56 50.2954 16.448 50.7007 16.224C51.1167 16 51.4527 15.664 51.7087 15.216C51.9647 14.768 52.0927 14.224 52.0927 13.584C52.0927 12.944 51.9701 12.4053 51.7247 11.968C51.4794 11.52 51.1541 11.184 50.7487 10.96C50.3434 10.736 49.9061 10.624 49.4367 10.624C48.9674 10.624 48.5301 10.736 48.1247 10.96C47.7301 11.184 47.4154 11.52 47.1807 11.968C46.9461 12.4053 46.8287 12.944 46.8287 13.584C46.8287 14.5333 47.0687 15.2693 47.5487 15.792C48.0394 16.304 48.6527 16.56 49.3887 16.56ZM55.4799 13.552C55.4799 12.6667 55.6612 11.8827 56.0239 11.2C56.3972 10.5173 56.8985 9.98933 57.5279 9.616C58.1679 9.232 58.8772 9.04 59.6559 9.04C60.2319 9.04 60.7972 9.168 61.3519 9.424C61.9172 9.66933 62.3652 10 62.6959 10.416V6.16H64.5359V18H62.6959V16.672C62.3972 17.0987 61.9812 17.4507 61.4479 17.728C60.9252 18.0053 60.3225 18.144 59.6399 18.144C58.8719 18.144 58.1679 17.952 57.5279 17.568C56.8985 17.1733 56.3972 16.6293 56.0239 15.936C55.6612 15.232 55.4799 14.4373 55.4799 13.552ZM62.6959 13.584C62.6959 12.976 62.5679 12.448 62.3119 12C62.0665 11.552 61.7412 11.2107 61.3359 10.976C60.9305 10.7413 60.4932 10.624 60.0239 10.624C59.5545 10.624 59.1172 10.7413 58.7119 10.976C58.3065 11.2 57.9759 11.536 57.7199 11.984C57.4745 12.4213 57.3519 12.944 57.3519 13.552C57.3519 14.16 57.4745 14.6933 57.7199 15.152C57.9759 15.6107 58.3065 15.9627 58.7119 16.208C59.1279 16.4427 59.5652 16.56 60.0239 16.56C60.4932 16.56 60.9305 16.4427 61.3359 16.208C61.7412 15.9733 62.0665 15.632 62.3119 15.184C62.5679 14.7253 62.6959 14.192 62.6959 13.584ZM75.3316 13.376C75.3316 13.7067 75.3103 14.0053 75.2676 14.272H68.5316C68.5849 14.976 68.8463 15.5413 69.3156 15.968C69.7849 16.3947 70.3609 16.608 71.0436 16.608C72.0249 16.608 72.7183 16.1973 73.1236 15.376H75.0916C74.8249 16.1867 74.3396 16.8533 73.6356 17.376C72.9423 17.888 72.0783 18.144 71.0436 18.144C70.2009 18.144 69.4436 17.9573 68.7716 17.584C68.1103 17.2 67.5876 16.6667 67.2036 15.984C66.8303 15.2907 66.6436 14.4907 66.6436 13.584C66.6436 12.6773 66.8249 11.8827 67.1876 11.2C67.5609 10.5067 68.0783 9.97333 68.7396 9.6C69.4116 9.22667 70.1796 9.04 71.0436 9.04C71.8756 9.04 72.6169 9.22133 73.2676 9.584C73.9183 9.94667 74.4249 10.4587 74.7876 11.12C75.1503 11.7707 75.3316 12.5227 75.3316 13.376ZM73.4276 12.8C73.4169 12.128 73.1769 11.5893 72.7076 11.184C72.2383 10.7787 71.6569 10.576 70.9636 10.576C70.3343 10.576 69.7956 10.7787 69.3476 11.184C68.8996 11.5787 68.6329 12.1173 68.5476 12.8H73.4276ZM78.3746 8.016C78.0439 8.016 77.7666 7.904 77.5426 7.68C77.3186 7.456 77.2066 7.17867 77.2066 6.848C77.2066 6.51733 77.3186 6.24 77.5426 6.016C77.7666 5.792 78.0439 5.68 78.3746 5.68C78.6946 5.68 78.9666 5.792 79.1906 6.016C79.4146 6.24 79.5266 6.51733 79.5266 6.848C79.5266 7.17867 79.4146 7.456 79.1906 7.68C78.9666 7.904 78.6946 8.016 78.3746 8.016ZM79.2706 19.728C79.2706 20.592 79.0519 21.216 78.6146 21.6C78.1879 21.9947 77.5639 22.192 76.7426 22.192H75.7986V20.656H76.4226C76.7959 20.656 77.0573 20.5813 77.2066 20.432C77.3666 20.2933 77.4466 20.0587 77.4466 19.728V9.184H79.2706V19.728ZM85.1854 18.144C84.492 18.144 83.868 18.0213 83.3134 17.776C82.7694 17.52 82.3374 17.1787 82.0174 16.752C81.6974 16.3147 81.5267 15.8293 81.5054 15.296H83.3934C83.4254 15.6693 83.6014 15.984 83.9214 16.24C84.252 16.4853 84.6627 16.608 85.1534 16.608C85.6654 16.608 86.06 16.512 86.3374 16.32C86.6254 16.1173 86.7694 15.8613 86.7694 15.552C86.7694 15.2213 86.6094 14.976 86.2894 14.816C85.98 14.656 85.484 14.48 84.8014 14.288C84.14 14.1067 83.6014 13.9307 83.1854 13.76C82.7694 13.5893 82.4067 13.328 82.0974 12.976C81.7987 12.624 81.6494 12.16 81.6494 11.584C81.6494 11.1147 81.788 10.688 82.0654 10.304C82.3427 9.90933 82.7374 9.6 83.2494 9.376C83.772 9.152 84.3694 9.04 85.0414 9.04C86.044 9.04 86.8494 9.296 87.4574 9.808C88.076 10.3093 88.4067 10.9973 88.4494 11.872H86.6254C86.5934 11.4773 86.4334 11.1627 86.1454 10.928C85.8574 10.6933 85.468 10.576 84.9774 10.576C84.4974 10.576 84.1294 10.6667 83.8734 10.848C83.6174 11.0293 83.4894 11.2693 83.4894 11.568C83.4894 11.8027 83.5747 12 83.7454 12.16C83.916 12.32 84.124 12.448 84.3694 12.544C84.6147 12.6293 84.9774 12.7413 85.4574 12.88C86.0974 13.0507 86.62 13.2267 87.0254 13.408C87.4414 13.5787 87.7987 13.8347 88.0974 14.176C88.396 14.5173 88.5507 14.9707 88.5614 15.536C88.5614 16.0373 88.4227 16.4853 88.1454 16.88C87.868 17.2747 87.4734 17.584 86.9614 17.808C86.46 18.032 85.868 18.144 85.1854 18.144Z" fill="#F4F4F5"/>
<defs>
<linearGradient id="paint0_linear_3193_38013" x1="4.22114" y1="12.0001" x2="20.5181" y2="12.0001" gradientUnits="userSpaceOnUse">
<stop stop-color="white" stop-opacity="0.5"/>
<stop offset="0.5" stop-color="white" stop-opacity="0.82"/>
<stop offset="1" stop-color="white" stop-opacity="0.64"/>
</linearGradient>
<clipPath id="clip0_3193_38013">
<rect width="24" height="24" fill="white" transform="translate(0.422852)"/>
</clipPath>
</defs>
</svg>
