<svg width="78" height="24" viewBox="0 0 78 24" fill="none" xmlns="http://www.w3.org/2000/svg">
<g clip-path="url(#clip0_3116_17294)">
<path d="M19.178 6.61058L18.0755 8.5196L14.3052 1.98916L2.73092 22.0339H10.5675C10.5675 23.0882 11.4222 23.9429 12.4765 23.9429H2.73092C2.04896 23.9429 1.41886 23.5789 1.07793 22.9882C0.73701 22.3976 0.737045 21.67 1.07803 21.0794L12.6523 1.03464C12.9933 0.443959 13.6235 0.0800781 14.3056 0.0800781C14.9876 0.0800781 15.6179 0.443959 15.9589 1.03464L19.178 6.61058Z" fill="url(#paint0_linear_3116_17294)"/>
<path d="M27.5332 21.0801L20.2805 8.52035L19.178 6.61133L18.0755 8.52035L10.8236 21.0801C10.4827 21.6707 10.4826 22.3984 10.8235 22.989C11.1645 23.5796 11.7946 23.9437 12.4765 23.9437H25.8779C26.56 23.9437 27.1903 23.58 27.5315 22.9893C27.8726 22.3987 27.8726 21.6709 27.5316 21.0801H27.5332ZM12.4765 22.0346L19.178 10.4294L25.8779 22.0346L12.4765 22.0346Z" fill="url(#paint1_linear_3116_17294)"/>
<path d="M32.7183 22.9887C32.3773 23.5792 31.7473 23.9432 31.0654 23.9432H25.8776C26.9319 23.9432 27.7866 23.0885 27.7866 22.0342H31.0614L21.7692 5.94033L20.2802 8.51989L19.1777 6.61087L20.1163 4.98582C20.4573 4.39513 21.0876 4.03125 21.7696 4.03125C22.4517 4.03125 23.0819 4.39513 23.4229 4.98582L32.7183 21.0797C33.0593 21.6703 33.0593 22.398 32.7183 22.9887Z" fill="url(#paint2_linear_3116_17294)"/>
</g>
<path d="M51.0722 18H49.6162L43.7602 9.12V18H42.3042V6.832H43.7602L49.6162 15.696V6.832H51.0722V18ZM61.6502 9.232V18H60.1942V16.704C59.9169 17.152 59.5276 17.504 59.0262 17.76C58.5356 18.0053 57.9916 18.128 57.3942 18.128C56.7116 18.128 56.0982 17.9893 55.5542 17.712C55.0102 17.424 54.5782 16.9973 54.2582 16.432C53.9489 15.8667 53.7942 15.1787 53.7942 14.368V9.232H55.2342V14.176C55.2342 15.04 55.4529 15.7067 55.8902 16.176C56.3276 16.6347 56.9249 16.864 57.6822 16.864C58.4609 16.864 59.0742 16.624 59.5222 16.144C59.9702 15.664 60.1942 14.9653 60.1942 14.048V9.232H61.6502ZM69.0046 18L66.9246 14.736L64.9246 18H63.4046L66.2366 13.648L63.4046 9.232H65.0526L67.1326 12.48L69.1166 9.232H70.6366L67.8206 13.568L70.6526 18H69.0046ZM74.1809 10.432V15.6C74.1809 16.0267 74.2715 16.3307 74.4529 16.512C74.6342 16.6827 74.9489 16.768 75.3969 16.768H76.4689V18H75.1569C74.3462 18 73.7382 17.8133 73.3329 17.44C72.9275 17.0667 72.7249 16.4533 72.7249 15.6V10.432H71.5889V9.232H72.7249V7.024H74.1809V9.232H76.4689V10.432H74.1809Z" fill="#F4F4F5"/>
<defs>
<linearGradient id="paint0_linear_3116_17294" x1="2.8414" y1="12.0113" x2="17.1588" y2="12.0113" gradientUnits="userSpaceOnUse">
<stop stop-color="white" stop-opacity="0.5"/>
<stop offset="0.5" stop-color="white" stop-opacity="0.82"/>
<stop offset="1" stop-color="white" stop-opacity="0.64"/>
</linearGradient>
<linearGradient id="paint1_linear_3116_17294" x1="12.462" y1="15.2773" x2="25.8932" y2="15.2773" gradientUnits="userSpaceOnUse">
<stop stop-color="white" stop-opacity="0.5"/>
<stop offset="0.5" stop-color="white" stop-opacity="0.82"/>
<stop offset="1" stop-color="white" stop-opacity="0.64"/>
</linearGradient>
<linearGradient id="paint2_linear_3116_17294" x1="20.6953" y1="13.987" x2="31.4565" y2="13.987" gradientUnits="userSpaceOnUse">
<stop stop-color="white" stop-opacity="0.5"/>
<stop offset="0.5" stop-color="white" stop-opacity="0.82"/>
<stop offset="1" stop-color="white" stop-opacity="0.64"/>
</linearGradient>
<clipPath id="clip0_3116_17294">
<rect width="32.2148" height="24" fill="white" transform="translate(0.821777)"/>
</clipPath>
</defs>
</svg>
