<svg width="97" height="24" viewBox="0 0 97 24" fill="none" xmlns="http://www.w3.org/2000/svg">
<g clip-path="url(#clip0_3116_17287)">
<path d="M22.3372 9.82242C22.6062 9.01451 22.6995 8.15845 22.6109 7.31155C22.5223 6.46465 22.2538 5.64646 21.8234 4.91173C21.1853 3.80042 20.2107 2.92055 19.0401 2.39909C17.8696 1.87763 16.5636 1.74154 15.3107 2.01047C14.7455 1.37357 14.0509 0.864745 13.2732 0.518041C12.4955 0.171337 11.6527 -0.00524328 10.8012 0.000118547C9.52023 -0.00297187 8.27133 0.400822 7.2346 1.15328C6.19787 1.90575 5.42688 2.968 5.03279 4.18689C4.19827 4.35771 3.40988 4.70484 2.72039 5.20503C2.03089 5.70522 1.45621 6.34693 1.0348 7.0872C0.391642 8.19543 0.117104 9.4793 0.25078 10.7536C0.384456 12.028 0.919438 13.2269 1.77857 14.1776C1.50956 14.9855 1.41624 15.8416 1.50486 16.6884C1.59347 17.5353 1.86197 18.3535 2.29239 19.0883C2.93052 20.1995 3.90516 21.0793 5.07571 21.6008C6.24625 22.1222 7.55219 22.2584 8.80511 21.9895C9.37023 22.6264 10.0649 23.1353 10.8426 23.482C11.6203 23.8287 12.4631 24.0052 13.3145 23.9999C14.5962 24.0032 15.8457 23.5993 16.8829 22.8463C17.92 22.0934 18.6911 21.0304 19.0849 19.8108C19.9194 19.6399 20.7078 19.2928 21.3973 18.7926C22.0868 18.2924 22.6615 17.6507 23.0829 16.9104C23.7252 15.8022 23.9991 14.5187 23.8651 13.2449C23.7311 11.9711 23.1961 10.7727 22.3372 9.82242ZM13.3164 22.4309C12.2644 22.4324 11.2453 22.064 10.4374 21.3901C10.4738 21.3702 10.5377 21.3352 10.5794 21.3097L15.358 18.5494C15.4779 18.4811 15.5775 18.3822 15.6465 18.2627C15.7156 18.1432 15.7515 18.0075 15.7507 17.8695V11.1325L17.7706 12.2988C17.7812 12.3041 17.7903 12.3119 17.7971 12.3215C17.804 12.3312 17.8083 12.3424 17.8098 12.3541V17.9333C17.8083 19.125 17.3345 20.2674 16.4923 21.1105C15.6501 21.9535 14.5081 22.4283 13.3164 22.4309ZM3.65313 18.3038C3.12615 17.3933 2.93622 16.3264 3.11659 15.2899C3.15207 15.3112 3.21405 15.3491 3.25853 15.3746L8.03715 18.1349C8.15624 18.2045 8.2917 18.2412 8.42964 18.2412C8.56759 18.2412 8.70305 18.2045 8.82213 18.1349L14.6564 14.7662V17.0987C14.657 17.1106 14.6547 17.1225 14.6497 17.1334C14.6447 17.1442 14.637 17.1536 14.6275 17.1607L9.7968 19.9498C8.76353 20.5449 7.53638 20.7058 6.38461 20.3972C5.23284 20.0887 4.25049 19.3358 3.65313 18.3038ZM2.39601 7.87164C2.92071 6.9599 3.74945 6.26181 4.73708 5.89962C4.73708 5.94078 4.73471 6.01368 4.73471 6.06426V11.5848C4.73386 11.7227 4.76975 11.8583 4.83869 11.9777C4.90762 12.0971 5.00712 12.196 5.12694 12.2642L10.9611 15.6325L8.94137 16.7987C8.93139 16.8053 8.91995 16.8093 8.90806 16.8104C8.89617 16.8115 8.8842 16.8096 8.87321 16.8049L4.04204 14.0134C3.01057 13.4161 2.25806 12.4341 1.9495 11.2828C1.64094 10.1314 1.80151 8.90475 2.39601 7.87164ZM18.9908 11.7334L13.1565 8.36466L15.1763 7.19886C15.1863 7.19229 15.1977 7.18829 15.2096 7.18722C15.2215 7.18615 15.2335 7.18805 15.2444 7.19274L20.0756 9.98184C20.8158 10.4094 21.4188 11.0389 21.8141 11.7968C22.2094 12.5546 22.3807 13.4094 22.3077 14.261C22.2348 15.1127 21.9207 15.9259 21.4023 16.6055C20.8839 17.2851 20.1827 17.803 19.3806 18.0985V12.4128C19.3817 12.2752 19.3462 12.1397 19.2777 12.0203C19.2092 11.9009 19.1102 11.8019 18.9908 11.7334ZM21.0011 8.70768C20.9656 8.6859 20.9036 8.64852 20.8592 8.62301L16.0805 5.86272C15.9614 5.79321 15.8259 5.75658 15.688 5.75658C15.5501 5.75658 15.4147 5.79321 15.2955 5.86272L9.46133 9.23148V6.89892C9.46066 6.88701 9.46295 6.87512 9.46798 6.86431C9.47302 6.8535 9.48064 6.8441 9.49019 6.83694L14.3209 4.05015C15.061 3.62342 15.9072 3.41627 16.7607 3.45291C17.6142 3.48955 18.4396 3.76848 19.1404 4.25707C19.8411 4.74565 20.3883 5.42369 20.7178 6.21185C21.0473 7.00002 21.1456 7.86572 21.0011 8.70768ZM8.36321 12.8651L6.34289 11.6989C6.33228 11.6936 6.32314 11.6858 6.3163 11.6761C6.30945 11.6664 6.3051 11.6552 6.30365 11.6435V6.06426C6.30421 5.20974 6.54816 4.37307 7.00696 3.65216C7.46575 2.93126 8.1204 2.35595 8.89428 1.99359C9.66816 1.63122 10.5292 1.49679 11.3767 1.60603C12.2242 1.71526 13.0231 2.06365 13.6798 2.6104C13.6434 2.63027 13.58 2.66529 13.5378 2.69084L8.75921 5.4511C8.6393 5.51925 8.53971 5.61811 8.47069 5.73752C8.40167 5.85693 8.36571 5.99258 8.36651 6.1305L8.36321 12.8651ZM9.46037 10.4995L12.0589 8.99868L14.6573 10.4985V13.4991L12.0589 14.999L9.46038 13.4991L9.46037 10.4995Z" fill="white"/>
</g>
<path d="M38.4608 18.112C37.4261 18.112 36.4821 17.872 35.6288 17.392C34.7755 16.9013 34.0981 16.224 33.5968 15.36C33.1061 14.4853 32.8608 13.504 32.8608 12.416C32.8608 11.328 33.1061 10.352 33.5968 9.488C34.0981 8.61333 34.7755 7.936 35.6288 7.456C36.4821 6.96533 37.4261 6.72 38.4608 6.72C39.5061 6.72 40.4555 6.96533 41.3088 7.456C42.1621 7.936 42.8341 8.608 43.3248 9.472C43.8155 10.336 44.0608 11.3173 44.0608 12.416C44.0608 13.5147 43.8155 14.496 43.3248 15.36C42.8341 16.224 42.1621 16.9013 41.3088 17.392C40.4555 17.872 39.5061 18.112 38.4608 18.112ZM38.4608 16.848C39.2395 16.848 39.9381 16.6667 40.5568 16.304C41.1861 15.9413 41.6768 15.424 42.0288 14.752C42.3915 14.08 42.5728 13.3013 42.5728 12.416C42.5728 11.52 42.3915 10.7413 42.0288 10.08C41.6768 9.408 41.1915 8.89067 40.5728 8.528C39.9541 8.16533 39.2501 7.984 38.4608 7.984C37.6715 7.984 36.9675 8.16533 36.3488 8.528C35.7301 8.89067 35.2395 9.408 34.8768 10.08C34.5248 10.7413 34.3488 11.52 34.3488 12.416C34.3488 13.3013 34.5248 14.08 34.8768 14.752C35.2395 15.424 35.7301 15.9413 36.3488 16.304C36.9781 16.6667 37.6821 16.848 38.4608 16.848ZM47.7589 10.848C48.0469 10.3467 48.4736 9.93067 49.0389 9.6C49.6149 9.25867 50.2816 9.088 51.0389 9.088C51.8176 9.088 52.5216 9.27467 53.1509 9.648C53.7909 10.0213 54.2923 10.5493 54.6549 11.232C55.0176 11.904 55.1989 12.688 55.1989 13.584C55.1989 14.4693 55.0176 15.2587 54.6549 15.952C54.2923 16.6453 53.7909 17.184 53.1509 17.568C52.5216 17.952 51.8176 18.144 51.0389 18.144C50.2923 18.144 49.6309 17.9787 49.0549 17.648C48.4896 17.3067 48.0576 16.8853 47.7589 16.384V22.16H46.3029V9.232H47.7589V10.848ZM53.7109 13.584C53.7109 12.9227 53.5776 12.3467 53.3109 11.856C53.0443 11.3653 52.6816 10.992 52.2229 10.736C51.7749 10.48 51.2789 10.352 50.7349 10.352C50.2016 10.352 49.7056 10.4853 49.2469 10.752C48.7989 11.008 48.4363 11.3867 48.1589 11.888C47.8923 12.3787 47.7589 12.9493 47.7589 13.6C47.7589 14.2613 47.8923 14.8427 48.1589 15.344C48.4363 15.8347 48.7989 16.2133 49.2469 16.48C49.7056 16.736 50.2016 16.864 50.7349 16.864C51.2789 16.864 51.7749 16.736 52.2229 16.48C52.6816 16.2133 53.0443 15.8347 53.3109 15.344C53.5776 14.8427 53.7109 14.256 53.7109 13.584ZM65.4354 13.28C65.4354 13.5573 65.4194 13.8507 65.3874 14.16H58.3794C58.4328 15.024 58.7261 15.7013 59.2594 16.192C59.8034 16.672 60.4594 16.912 61.2274 16.912C61.8568 16.912 62.3794 16.768 62.7954 16.48C63.2221 16.1813 63.5208 15.7867 63.6914 15.296H65.2594C65.0248 16.1387 64.5554 16.8267 63.8514 17.36C63.1474 17.8827 62.2728 18.144 61.2274 18.144C60.3954 18.144 59.6488 17.9573 58.9874 17.584C58.3368 17.2107 57.8248 16.6827 57.4514 16C57.0781 15.3067 56.8914 14.5067 56.8914 13.6C56.8914 12.6933 57.0728 11.8987 57.4354 11.216C57.7981 10.5333 58.3048 10.0107 58.9554 9.648C59.6168 9.27467 60.3741 9.088 61.2274 9.088C62.0594 9.088 62.7954 9.26933 63.4354 9.632C64.0754 9.99467 64.5661 10.496 64.9074 11.136C65.2594 11.7653 65.4354 12.48 65.4354 13.28ZM63.9314 12.976C63.9314 12.4213 63.8088 11.9467 63.5634 11.552C63.3181 11.1467 62.9821 10.8427 62.5554 10.64C62.1394 10.4267 61.6754 10.32 61.1634 10.32C60.4274 10.32 59.7981 10.5547 59.2754 11.024C58.7634 11.4933 58.4701 12.144 58.3954 12.976H63.9314ZM71.9493 9.072C73.016 9.072 73.88 9.39733 74.5413 10.048C75.2026 10.688 75.5333 11.616 75.5333 12.832V18H74.0933V13.04C74.0933 12.1653 73.8746 11.4987 73.4373 11.04C73 10.5707 72.4026 10.336 71.6453 10.336C70.8773 10.336 70.264 10.576 69.8053 11.056C69.3573 11.536 69.1333 12.2347 69.1333 13.152V18H67.6773V9.232H69.1333V10.48C69.4213 10.032 69.8106 9.68533 70.3013 9.44C70.8026 9.19467 71.352 9.072 71.9493 9.072ZM89.4093 15.52H84.5453L83.6493 18H82.1133L86.1453 6.912H87.8253L91.8413 18H90.3053L89.4093 15.52ZM88.9933 14.336L86.9773 8.704L84.9613 14.336H88.9933ZM95.3746 6.848V18H93.9186V6.848H95.3746Z" fill="#F4F4F5"/>
<defs>
<clipPath id="clip0_3116_17287">
<rect width="23.6805" height="24" fill="white" transform="translate(0.217773)"/>
</clipPath>
</defs>
</svg>
