<svg width="126" height="26" viewBox="0 0 126 26" fill="none" xmlns="http://www.w3.org/2000/svg">
<path d="M18.4047 18.9462C18.5707 17.5627 18.521 17.3599 19.5514 17.584L19.813 17.6069C20.6053 17.643 21.6417 17.4795 22.2507 17.1966C23.5614 16.5884 24.3387 15.573 23.0462 15.8398C20.098 16.448 19.8953 15.4497 19.8953 15.4497C23.0084 10.8305 24.3099 4.96696 23.1865 3.53167C20.1226 -0.38326 14.8191 1.46802 14.7304 1.51609L14.7021 1.52131C14.1196 1.40044 13.4677 1.32822 12.7353 1.31638C11.4012 1.29446 10.3888 1.66615 9.62087 2.24862C9.62087 2.24862 0.159705 -1.64926 0.599856 7.15059C0.693466 9.02257 3.28314 21.3155 6.37182 17.6025C7.50071 16.2448 8.59168 15.0968 8.59168 15.0968C9.13341 15.4567 9.782 15.6402 10.4622 15.5743L10.5148 15.5295C10.4984 15.698 10.5056 15.8629 10.5359 16.0581C9.74033 16.9472 9.97409 17.1033 8.3833 17.4307C6.77387 17.7624 7.71941 18.353 8.33658 18.5073C9.08499 18.6945 10.8163 18.9596 11.9865 17.3218L11.9399 17.5087C12.252 17.7584 12.2309 19.3035 12.2752 20.4074C12.3195 21.5114 12.3934 22.5416 12.6185 23.149C12.8435 23.7562 13.109 25.3207 15.1997 24.8726C16.947 24.4982 18.2829 23.9593 18.4047 18.9462Z" fill="url(#paint0_linear_3116_16863)" stroke="url(#paint1_linear_3116_16863)" stroke-width="0.5"/>
<path d="M23.0468 15.8378C20.0983 16.446 19.8956 15.4477 19.8956 15.4477C23.0087 10.8283 24.3101 4.96456 23.187 3.52945C20.1232 -0.385246 14.8194 1.46615 14.7309 1.51422L14.7024 1.51932C14.1199 1.39839 13.468 1.32635 12.7353 1.3144C11.4011 1.29253 10.3891 1.66416 9.62115 2.24652C9.62115 2.24652 0.159814 -1.65119 0.599847 7.14861C0.693458 9.0207 3.28307 21.3137 6.37187 17.6006C7.50082 16.2429 8.59161 15.0949 8.59161 15.0949C9.1334 15.4548 9.78199 15.6384 10.4619 15.5724L10.5148 15.5276C10.4983 15.6962 10.5058 15.8611 10.5359 16.0563C9.7402 16.9453 9.97402 17.1014 8.38335 17.4288C6.7738 17.7605 7.71934 18.3511 8.33669 18.5054C9.0851 18.6926 10.8166 18.9577 11.9865 17.32L11.9398 17.5068C12.2516 17.7565 12.4706 19.1312 12.4339 20.3772C12.3972 21.6234 12.3727 22.4789 12.6183 23.1471C12.864 23.8153 13.1088 25.3188 15.1999 24.8708C16.9472 24.4963 17.8527 23.526 17.9786 21.9074C18.068 20.7567 18.2703 20.9268 18.2831 19.898L18.4453 19.411C18.6324 17.8512 18.475 17.3479 19.5515 17.582L19.8131 17.605C20.6055 17.641 21.6424 17.4775 22.2511 17.1946C23.5616 16.5864 24.3389 15.571 23.0467 15.8378H23.0468Z" fill="url(#paint2_linear_3116_16863)"/>
<path d="M12.112 16.7324C12.0308 19.6349 12.1324 22.5575 12.4164 23.2679C12.7006 23.9782 13.3087 25.3598 15.4 24.9118C17.1471 24.5372 17.7828 23.8123 18.0586 22.2124C18.2618 21.0353 18.6535 17.7661 18.7037 17.0963" stroke="black" stroke-width="0.5" stroke-linecap="round" stroke-linejoin="round"/>
<path d="M9.606 2.18325C9.606 2.18325 0.13821 -1.68637 0.578361 7.11342C0.671972 8.98551 3.26176 21.2789 6.3505 17.5657C7.47922 16.2078 8.50002 15.1428 8.50002 15.1428" stroke="black" stroke-width="0.5" stroke-linecap="round" stroke-linejoin="round"/>
<path d="M14.7198 1.47659C14.3921 1.57935 19.9864 -0.568478 23.1657 3.49399C24.2887 4.92916 22.9873 10.7929 19.8742 15.4124" stroke="black" stroke-width="0.5" stroke-linecap="round" stroke-linejoin="round"/>
<path d="M19.8747 15.4119C19.8747 15.4119 20.0776 16.4104 23.0262 15.8018C24.3181 15.535 23.5406 16.5506 22.2303 17.1591C21.155 17.6582 18.7442 17.7861 18.7048 17.0964C18.6034 15.3171 19.9736 15.8577 19.8747 15.4119ZM19.8747 15.4119C19.7853 15.0103 19.1726 14.6163 18.7673 13.6335C18.4134 12.7758 13.9141 6.19811 20.015 7.17501C20.2385 7.12877 18.4238 1.37187 12.7142 1.27826C7.00581 1.18465 7.19309 8.29828 7.19309 8.29828" stroke="black" stroke-width="0.5" stroke-linecap="round" stroke-linejoin="bevel"/>
<path d="M10.5142 16.0218C9.71832 16.9108 9.95237 17.0669 8.36158 17.3945C6.75203 17.7262 7.69769 18.3167 8.31486 18.471C9.06328 18.6582 10.7947 18.9234 11.9647 17.2852C12.3209 16.7864 11.9626 15.9906 11.4732 15.7877C11.2367 15.6898 10.9205 15.567 10.5142 16.0218Z" stroke="black" stroke-width="0.5" stroke-linecap="round" stroke-linejoin="round"/>
<path d="M10.4625 16.0042C10.3823 15.4816 10.6343 14.8596 10.9043 14.1319C11.31 13.0401 12.2462 11.9482 11.4973 8.48486C10.9391 5.90404 7.19507 7.94776 7.19273 8.2977C7.19044 8.64752 7.36207 10.0714 7.13018 11.7296C6.8276 13.8933 8.50696 15.7232 10.4408 15.536" stroke="black" stroke-width="0.5" stroke-linecap="round" stroke-linejoin="round"/>
<path d="M9.57214 8.24602C9.55526 8.36554 9.79096 8.68447 10.0983 8.72709C10.4051 8.76988 10.6677 8.52064 10.6843 8.40124C10.701 8.28172 10.4656 8.15007 10.1581 8.10728C9.85116 8.06443 9.58844 8.1268 9.5722 8.24602H9.57214Z" fill="black" stroke="black" stroke-width="0.5"/>
<path d="M18.9161 8.00381C18.9328 8.12333 18.6974 8.44226 18.39 8.48488C18.083 8.52767 17.8203 8.27843 17.8035 8.15903C17.7873 8.03951 18.0228 7.90786 18.3298 7.86507C18.6369 7.82228 18.8995 7.88459 18.9161 8.00387V8.00381Z" fill="black" stroke="black" stroke-width="0.5"/>
<path d="M20.0146 7.17578C20.0652 8.11329 19.8127 8.75186 19.7809 9.74986C19.7338 11.2005 20.4725 12.8609 19.3594 14.5233" stroke="black" stroke-width="0.5" stroke-linecap="round" stroke-linejoin="round"/>
<path d="M41.0262 11.192C41.0262 11.7573 40.8929 12.2907 40.6262 12.792C40.3596 13.2933 39.9329 13.704 39.3462 14.024C38.7596 14.3333 38.0076 14.488 37.0902 14.488H35.0742V19H33.2502V7.88H37.0902C37.9436 7.88 38.6636 8.02933 39.2502 8.328C39.8476 8.616 40.2902 9.01067 40.5782 9.512C40.8769 10.0133 41.0262 10.5733 41.0262 11.192ZM37.0902 13C37.7836 13 38.3009 12.8453 38.6422 12.536C38.9836 12.216 39.1542 11.768 39.1542 11.192C39.1542 9.976 38.4662 9.368 37.0902 9.368H35.0742V13H37.0902ZM46.9099 19.144C46.0779 19.144 45.3259 18.9573 44.6539 18.584C43.9819 18.2 43.4539 17.6667 43.0699 16.984C42.6859 16.2907 42.4939 15.4907 42.4939 14.584C42.4939 13.688 42.6912 12.8933 43.0859 12.2C43.4805 11.5067 44.0192 10.9733 44.7019 10.6C45.3845 10.2267 46.1472 10.04 46.9899 10.04C47.8325 10.04 48.5952 10.2267 49.2779 10.6C49.9605 10.9733 50.4992 11.5067 50.8939 12.2C51.2885 12.8933 51.4859 13.688 51.4859 14.584C51.4859 15.48 51.2832 16.2747 50.8779 16.968C50.4725 17.6613 49.9179 18.2 49.2139 18.584C48.5205 18.9573 47.7525 19.144 46.9099 19.144ZM46.9099 17.56C47.3792 17.56 47.8165 17.448 48.2219 17.224C48.6379 17 48.9739 16.664 49.2299 16.216C49.4859 15.768 49.6139 15.224 49.6139 14.584C49.6139 13.944 49.4912 13.4053 49.2459 12.968C49.0005 12.52 48.6752 12.184 48.2699 11.96C47.8645 11.736 47.4272 11.624 46.9579 11.624C46.4885 11.624 46.0512 11.736 45.6459 11.96C45.2512 12.184 44.9365 12.52 44.7019 12.968C44.4672 13.4053 44.3499 13.944 44.3499 14.584C44.3499 15.5333 44.5899 16.2693 45.0699 16.792C45.5605 17.304 46.1739 17.56 46.9099 17.56ZM56.809 19.144C56.1157 19.144 55.4917 19.0213 54.937 18.776C54.393 18.52 53.961 18.1787 53.641 17.752C53.321 17.3147 53.1503 16.8293 53.129 16.296H55.017C55.049 16.6693 55.225 16.984 55.545 17.24C55.8757 17.4853 56.2863 17.608 56.777 17.608C57.289 17.608 57.6837 17.512 57.961 17.32C58.249 17.1173 58.393 16.8613 58.393 16.552C58.393 16.2213 58.233 15.976 57.913 15.816C57.6037 15.656 57.1077 15.48 56.425 15.288C55.7637 15.1067 55.225 14.9307 54.809 14.76C54.393 14.5893 54.0303 14.328 53.721 13.976C53.4223 13.624 53.273 13.16 53.273 12.584C53.273 12.1147 53.4117 11.688 53.689 11.304C53.9663 10.9093 54.361 10.6 54.873 10.376C55.3957 10.152 55.993 10.04 56.665 10.04C57.6677 10.04 58.473 10.296 59.081 10.808C59.6997 11.3093 60.0303 11.9973 60.073 12.872H58.249C58.217 12.4773 58.057 12.1627 57.769 11.928C57.481 11.6933 57.0917 11.576 56.601 11.576C56.121 11.576 55.753 11.6667 55.497 11.848C55.241 12.0293 55.113 12.2693 55.113 12.568C55.113 12.8027 55.1983 13 55.369 13.16C55.5397 13.32 55.7477 13.448 55.993 13.544C56.2383 13.6293 56.601 13.7413 57.081 13.88C57.721 14.0507 58.2437 14.2267 58.649 14.408C59.065 14.5787 59.4223 14.8347 59.721 15.176C60.0197 15.5173 60.1743 15.9707 60.185 16.536C60.185 17.0373 60.0463 17.4853 59.769 17.88C59.4917 18.2747 59.097 18.584 58.585 18.808C58.0837 19.032 57.4917 19.144 56.809 19.144ZM64.6039 11.672V16.552C64.6039 16.8827 64.6785 17.1227 64.8279 17.272C64.9879 17.4107 65.2545 17.48 65.6279 17.48H66.7479V19H65.3079C64.4865 19 63.8572 18.808 63.4199 18.424C62.9825 18.04 62.7639 17.416 62.7639 16.552V11.672H61.7239V10.184H62.7639V7.992H64.6039V10.184H66.7479V11.672H64.6039ZM72.301 10.04C72.9837 10.04 73.5863 10.1787 74.109 10.456C74.6423 10.7227 75.0583 11.0587 75.357 11.464V10.184H77.197V19.144C77.197 19.9547 77.0263 20.6747 76.685 21.304C76.3437 21.944 75.8477 22.4453 75.197 22.808C74.557 23.1707 73.789 23.352 72.893 23.352C71.6983 23.352 70.7063 23.0693 69.917 22.504C69.1277 21.9493 68.6797 21.192 68.573 20.232H70.381C70.5197 20.6907 70.813 21.0587 71.261 21.336C71.7197 21.624 72.2637 21.768 72.893 21.768C73.629 21.768 74.221 21.544 74.669 21.096C75.1277 20.648 75.357 19.9973 75.357 19.144V17.672C75.0477 18.088 74.6263 18.44 74.093 18.728C73.5703 19.0053 72.973 19.144 72.301 19.144C71.533 19.144 70.829 18.952 70.189 18.568C69.5597 18.1733 69.0583 17.6293 68.685 16.936C68.3223 16.232 68.141 15.4373 68.141 14.552C68.141 13.6667 68.3223 12.8827 68.685 12.2C69.0583 11.5173 69.5597 10.9893 70.189 10.616C70.829 10.232 71.533 10.04 72.301 10.04ZM75.357 14.584C75.357 13.976 75.229 13.448 74.973 13C74.7277 12.552 74.4023 12.2107 73.997 11.976C73.5917 11.7413 73.1543 11.624 72.685 11.624C72.2157 11.624 71.7783 11.7413 71.373 11.976C70.9677 12.2 70.637 12.536 70.381 12.984C70.1357 13.4213 70.013 13.944 70.013 14.552C70.013 15.16 70.1357 15.6933 70.381 16.152C70.637 16.6107 70.9677 16.9627 71.373 17.208C71.789 17.4427 72.2263 17.56 72.685 17.56C73.1543 17.56 73.5917 17.4427 73.997 17.208C74.4023 16.9733 74.7277 16.632 74.973 16.184C75.229 15.7253 75.357 15.192 75.357 14.584ZM81.7367 11.464C82.0034 11.016 82.3554 10.6693 82.7927 10.424C83.2407 10.168 83.7687 10.04 84.3767 10.04V11.928H83.9127C83.1981 11.928 82.6541 12.1093 82.2807 12.472C81.9181 12.8347 81.7367 13.464 81.7367 14.36V19H79.9127V10.184H81.7367V11.464ZM94.4534 14.376C94.4534 14.7067 94.432 15.0053 94.3894 15.272H87.6534C87.7067 15.976 87.968 16.5413 88.4374 16.968C88.9067 17.3947 89.4827 17.608 90.1654 17.608C91.1467 17.608 91.84 17.1973 92.2454 16.376H94.2134C93.9467 17.1867 93.4614 17.8533 92.7574 18.376C92.064 18.888 91.2 19.144 90.1654 19.144C89.3227 19.144 88.5654 18.9573 87.8934 18.584C87.232 18.2 86.7094 17.6667 86.3254 16.984C85.952 16.2907 85.7654 15.4907 85.7654 14.584C85.7654 13.6773 85.9467 12.8827 86.3094 12.2C86.6827 11.5067 87.2 10.9733 87.8614 10.6C88.5334 10.2267 89.3014 10.04 90.1654 10.04C90.9974 10.04 91.7387 10.2213 92.3894 10.584C93.04 10.9467 93.5467 11.4587 93.9094 12.12C94.272 12.7707 94.4534 13.5227 94.4534 14.376ZM92.5494 13.8C92.5387 13.128 92.2987 12.5893 91.8294 12.184C91.36 11.7787 90.7787 11.576 90.0854 11.576C89.456 11.576 88.9174 11.7787 88.4694 12.184C88.0214 12.5787 87.7547 13.1173 87.6694 13.8H92.5494ZM100.232 19.112C99.4857 19.112 98.8137 18.984 98.2164 18.728C97.619 18.4613 97.1497 18.088 96.8084 17.608C96.467 17.128 96.2964 16.568 96.2964 15.928H98.2484C98.291 16.408 98.4777 16.8027 98.8084 17.112C99.1497 17.4213 99.6244 17.576 100.232 17.576C100.862 17.576 101.352 17.4267 101.704 17.128C102.056 16.8187 102.232 16.424 102.232 15.944C102.232 15.5707 102.12 15.2667 101.896 15.032C101.683 14.7973 101.411 14.616 101.08 14.488C100.76 14.36 100.312 14.2213 99.7364 14.072C99.011 13.88 98.419 13.688 97.9604 13.496C97.5124 13.2933 97.1284 12.984 96.8084 12.568C96.4884 12.152 96.3284 11.5973 96.3284 10.904C96.3284 10.264 96.4884 9.704 96.8084 9.224C97.1284 8.744 97.5764 8.376 98.1524 8.12C98.7284 7.864 99.395 7.736 100.152 7.736C101.23 7.736 102.11 8.008 102.792 8.552C103.486 9.08533 103.87 9.82133 103.944 10.76H101.928C101.896 10.3547 101.704 10.008 101.352 9.72C101 9.432 100.536 9.288 99.9604 9.288C99.4377 9.288 99.011 9.42133 98.6804 9.688C98.3497 9.95467 98.1844 10.3387 98.1844 10.84C98.1844 11.1813 98.2857 11.464 98.4884 11.688C98.7017 11.9013 98.9684 12.072 99.2884 12.2C99.6084 12.328 100.046 12.4667 100.6 12.616C101.336 12.8187 101.934 13.0213 102.392 13.224C102.862 13.4267 103.256 13.7413 103.576 14.168C103.907 14.584 104.072 15.144 104.072 15.848C104.072 16.4133 103.918 16.9467 103.608 17.448C103.31 17.9493 102.867 18.3547 102.28 18.664C101.704 18.9627 101.022 19.112 100.232 19.112ZM115.153 21.016L113.201 18.904C112.721 19.0427 112.193 19.112 111.617 19.112C110.582 19.112 109.627 18.872 108.753 18.392C107.889 17.9013 107.201 17.224 106.689 16.36C106.187 15.4853 105.937 14.504 105.937 13.416C105.937 12.328 106.187 11.352 106.689 10.488C107.201 9.624 107.889 8.952 108.753 8.472C109.627 7.98133 110.582 7.736 111.617 7.736C112.662 7.736 113.617 7.98133 114.481 8.472C115.355 8.952 116.043 9.624 116.545 10.488C117.046 11.352 117.297 12.328 117.297 13.416C117.297 14.44 117.073 15.368 116.625 16.2C116.187 17.0213 115.579 17.6827 114.801 18.184L117.473 21.016H115.153ZM107.809 13.416C107.809 14.2373 107.969 14.9627 108.289 15.592C108.619 16.2107 109.073 16.6907 109.649 17.032C110.225 17.3627 110.881 17.528 111.617 17.528C112.353 17.528 113.009 17.3627 113.585 17.032C114.161 16.6907 114.609 16.2107 114.929 15.592C115.259 14.9627 115.425 14.2373 115.425 13.416C115.425 12.5947 115.259 11.8747 114.929 11.256C114.609 10.6373 114.161 10.1627 113.585 9.832C113.009 9.50133 112.353 9.336 111.617 9.336C110.881 9.336 110.225 9.50133 109.649 9.832C109.073 10.1627 108.619 10.6373 108.289 11.256C107.969 11.8747 107.809 12.5947 107.809 13.416ZM121.282 17.528H125.042V19H119.458V7.88H121.282V17.528Z" fill="#F4F4F5"/>
<defs>
<linearGradient id="paint0_linear_3116_16863" x1="3.12862" y1="12.9944" x2="21.1654" y2="12.9944" gradientUnits="userSpaceOnUse">
<stop stop-color="white" stop-opacity="0.5"/>
<stop offset="0.5" stop-color="white" stop-opacity="0.82"/>
<stop offset="1" stop-color="white" stop-opacity="0.64"/>
</linearGradient>
<linearGradient id="paint1_linear_3116_16863" x1="3.12862" y1="12.9944" x2="21.1654" y2="12.9944" gradientUnits="userSpaceOnUse">
<stop stop-color="white" stop-opacity="0.5"/>
<stop offset="0.5" stop-color="white" stop-opacity="0.82"/>
<stop offset="1" stop-color="white" stop-opacity="0.64"/>
</linearGradient>
<linearGradient id="paint2_linear_3116_16863" x1="3.12864" y1="12.9937" x2="21.1657" y2="12.9937" gradientUnits="userSpaceOnUse">
<stop stop-color="white" stop-opacity="0.5"/>
<stop offset="0.5" stop-color="white" stop-opacity="0.82"/>
<stop offset="1" stop-color="white" stop-opacity="0.64"/>
</linearGradient>
</defs>
</svg>
