<svg width="91" height="24" viewBox="0 0 91 24" fill="none" xmlns="http://www.w3.org/2000/svg">
<path d="M12.3727 0.000196307C11.3939 0.0047444 10.4591 0.0882237 9.63664 0.233762C7.2137 0.661815 6.77379 1.55777 6.77379 3.21006V5.39223H12.4995V6.11962H6.77379H4.62499C2.96094 6.11962 1.50385 7.11981 1.04809 9.0225C0.522383 11.2034 0.499065 12.5644 1.04809 14.8416C1.4551 16.5367 2.42708 17.7445 4.09112 17.7445H6.05975V15.1286C6.05975 13.2387 7.6949 11.5717 9.63664 11.5717H15.3557C16.9476 11.5717 18.2185 10.2609 18.2185 8.66215V3.21006C18.2185 1.65836 16.9095 0.492734 15.3557 0.233762C14.3721 0.0700311 13.3515 -0.00435186 12.3727 0.000196307ZM9.27628 1.75528C9.86771 1.75528 10.3507 2.24614 10.3507 2.8497C10.3507 3.45111 9.86771 3.93745 9.27628 3.93745C8.68273 3.93745 8.20188 3.45111 8.20188 2.8497C8.20188 2.24614 8.68273 1.75528 9.27628 1.75528Z" fill="url(#paint0_linear_3116_16335)"/>
<path d="M18.9327 6.11914V8.66167C18.9327 10.6329 17.2615 12.2919 15.3558 12.2919H9.63677C8.07024 12.2919 6.77393 13.6327 6.77393 15.2015V20.6536C6.77393 22.2053 8.12323 23.118 9.63677 23.5632C11.4492 24.0961 13.1872 24.1924 15.3558 23.5632C16.7973 23.1458 18.2186 22.3059 18.2186 20.6536V18.4714H12.4996V17.744H18.2186H21.0815C22.7455 17.744 23.3656 16.5833 23.9443 14.8412C24.5421 13.0476 24.5167 11.3228 23.9443 9.02203C23.5331 7.36546 22.7477 6.11914 21.0815 6.11914H18.9327ZM15.7162 19.9262C16.3097 19.9262 16.7906 20.4125 16.7906 21.014C16.7906 21.6175 16.3097 22.1084 15.7162 22.1084C15.1247 22.1084 14.6418 21.6175 14.6418 21.014C14.6418 20.4125 15.1247 19.9262 15.7162 19.9262Z" fill="white"/>
<path d="M41.6765 10.192C41.6765 10.7573 41.5432 11.2907 41.2765 11.792C41.0098 12.2933 40.5832 12.704 39.9965 13.024C39.4098 13.3333 38.6578 13.488 37.7405 13.488H35.7245V18H33.9005V6.88H37.7405C38.5938 6.88 39.3138 7.02933 39.9005 7.328C40.4978 7.616 40.9405 8.01067 41.2285 8.512C41.5272 9.01333 41.6765 9.57333 41.6765 10.192ZM37.7405 12C38.4338 12 38.9512 11.8453 39.2925 11.536C39.6338 11.216 39.8045 10.768 39.8045 10.192C39.8045 8.976 39.1165 8.368 37.7405 8.368H35.7245V12H37.7405ZM51.6721 9.184L46.2641 22.144H44.3761L46.1681 17.856L42.6961 9.184H44.7281L47.2081 15.904L49.7841 9.184H51.6721ZM55.4966 10.672V15.552C55.4966 15.8827 55.5713 16.1227 55.7206 16.272C55.8806 16.4107 56.1473 16.48 56.5206 16.48H57.6406V18H56.2006C55.3793 18 54.7499 17.808 54.3126 17.424C53.8753 17.04 53.6566 16.416 53.6566 15.552V10.672H52.6166V9.184H53.6566V6.992H55.4966V9.184H57.6406V10.672H55.4966ZM64.2017 9.04C64.8737 9.04 65.4711 9.184 65.9937 9.472C66.5271 9.76 66.9431 10.1867 67.2417 10.752C67.5511 11.3173 67.7057 12 67.7057 12.8V18H65.8977V13.072C65.8977 12.2827 65.7004 11.68 65.3057 11.264C64.9111 10.8373 64.3724 10.624 63.6897 10.624C63.0071 10.624 62.4631 10.8373 62.0577 11.264C61.6631 11.68 61.4657 12.2827 61.4657 13.072V18H59.6417V6.16H61.4657V10.208C61.7751 9.83467 62.1644 9.54667 62.6337 9.344C63.1137 9.14133 63.6364 9.04 64.2017 9.04ZM74.1764 18.144C73.3444 18.144 72.5924 17.9573 71.9204 17.584C71.2484 17.2 70.7204 16.6667 70.3364 15.984C69.9524 15.2907 69.7604 14.4907 69.7604 13.584C69.7604 12.688 69.9577 11.8933 70.3524 11.2C70.747 10.5067 71.2857 9.97333 71.9684 9.6C72.651 9.22667 73.4137 9.04 74.2564 9.04C75.099 9.04 75.8617 9.22667 76.5444 9.6C77.227 9.97333 77.7657 10.5067 78.1604 11.2C78.555 11.8933 78.7524 12.688 78.7524 13.584C78.7524 14.48 78.5497 15.2747 78.1444 15.968C77.739 16.6613 77.1844 17.2 76.4804 17.584C75.787 17.9573 75.019 18.144 74.1764 18.144ZM74.1764 16.56C74.6457 16.56 75.083 16.448 75.4884 16.224C75.9044 16 76.2404 15.664 76.4964 15.216C76.7524 14.768 76.8804 14.224 76.8804 13.584C76.8804 12.944 76.7577 12.4053 76.5124 11.968C76.267 11.52 75.9417 11.184 75.5364 10.96C75.131 10.736 74.6937 10.624 74.2244 10.624C73.755 10.624 73.3177 10.736 72.9124 10.96C72.5177 11.184 72.203 11.52 71.9684 11.968C71.7337 12.4053 71.6164 12.944 71.6164 13.584C71.6164 14.5333 71.8564 15.2693 72.3364 15.792C72.827 16.304 73.4404 16.56 74.1764 16.56ZM85.3235 9.04C86.0168 9.04 86.6355 9.184 87.1795 9.472C87.7342 9.76 88.1662 10.1867 88.4755 10.752C88.7848 11.3173 88.9395 12 88.9395 12.8V18H87.1315V13.072C87.1315 12.2827 86.9342 11.68 86.5395 11.264C86.1448 10.8373 85.6062 10.624 84.9235 10.624C84.2408 10.624 83.6968 10.8373 83.2915 11.264C82.8968 11.68 82.6995 12.2827 82.6995 13.072V18H80.8755V9.184H82.6995V10.192C82.9982 9.82933 83.3768 9.54667 83.8355 9.344C84.3048 9.14133 84.8008 9.04 85.3235 9.04Z" fill="#F4F4F5"/>
<defs>
<linearGradient id="paint0_linear_3116_16335" x1="2.57811" y1="8.87209" x2="16.2854" y2="8.87209" gradientUnits="userSpaceOnUse">
<stop stop-color="white" stop-opacity="0.5"/>
<stop offset="0.5" stop-color="white" stop-opacity="0.82"/>
<stop offset="1" stop-color="white" stop-opacity="0.64"/>
</linearGradient>
</defs>
</svg>
