<?xml version="1.0" standalone="no"?>
<!DOCTYPE svg PUBLIC "-//W3C//DTD SVG 1.0//EN" "http://www.w3.org/TR/2001/REC-SVG-20010904/DTD/svg10.dtd">
<svg xmlns="http://www.w3.org/2000/svg" xmlns:xlink="http://www.w3.org/1999/xlink" id="body_1" width="82" height="61">

<g transform="matrix(0.16827416 0 0 0.16827416 -0 -70.31305)">
	<g>
        <path d="M63.1 567.3L56.5 573.89996C 67.3 584.69995 67.3 602.1 56.5 612.69995C 45.7 623.49994 28.3 623.49994 17.7 612.69995C 6.9000006 601.89996 6.9000006 584.49994 17.7 573.89996L17.7 573.89996L34.800003 556.8L37.200005 554.39996L37.200005 541.49994L11.400005 567.2999C -2.9999943 581.69995 -2.9999943 604.8999 11.400005 619.2999C 25.800005 633.69995 49.000004 633.69995 63.100006 619.2999C 77.5 604.8 77.5 581.7 63.1 567.3z" stroke="none" fill="#EE4C2C" fill-rule="nonzero" />
        <path d="M55 560.9C 55 562.2255 54.531372 563.35693 53.594112 564.2941C 52.656857 565.23145 51.525486 565.7001 50.2 565.7C 48.87452 565.7001 47.74315 565.23145 46.80589 564.2941C 45.86863 563.35693 45.4 562.2255 45.4 560.9C 45.4 559.5746 45.86863 558.4432 46.80589 557.5059C 47.74315 556.56866 48.87452 556.10004 50.2 556.10004C 51.525486 556.10004 52.656857 556.56866 53.594112 557.5059C 54.531372 558.4432 55 559.5746 55 560.9C 55 560.95593 54.999027 561.0117 54.997078 561.06757" stroke="none" fill="#EE4C2C" fill-rule="nonzero" />
	</g>
	<g>
		<g>
            <path d="M129.8 600.3L118.700005 600.3L118.700005 628.8L110.3 628.8L110.3 547.7C 110.3 547.7 129.5 547.7 130.7 547.7C 152 547.7 162.2 558.2 162.2 572.9C 162.5 591 149.9 600.3 129.8 600.3zM130.7 555.8C 129.8 555.8 119 555.8 119 555.8L119 555.8L119 593.1L130.4 592.8C 145.7 592.5 154.09999 586.5 154.09999 573.89996C 154.1 562.1 145.7 555.8 130.7 555.8z" stroke="none" fill="#FFFFFF" fill-rule="nonzero" />
            <path d="M199.8 628.5L195 641.4C 189.6 655.80005 183.9 660 175.8 660C 171.3 660 168 658.8 164.40001 657.3L164.40001 657.3L166.8 649.8C 169.5 651.3 172.5 652.5 175.8 652.5C 180.3 652.5 183.6 650.1 188.1 638.7L188.1 638.7L192 628.2L168.9 569.60004L177.59999 569.60004L196.2 618.60004L214.5 569.60004L222.9 569.60004L199.8 628.5z" stroke="none" fill="#FFFFFF" fill-rule="nonzero" />
            <path d="M250.3 555.8L250.3 629.1L241.90001 629.1L241.90001 555.8L213.40001 555.8L213.40001 548L278.6 548L278.6 555.8C 278.5 555.8 250.3 555.8 250.3 555.8z" stroke="none" fill="#FFFFFF" fill-rule="nonzero" />
            <path d="M302.3 630.6C 285.8 630.6 273.8 618.3 273.8 599.39996C 273.8 580.49994 286.4 567.89996 303.19998 567.89996C 319.99997 567.89996 331.69998 580.19995 331.69998 599.1C 331.4 618 318.8 630.6 302.3 630.6zM302.6 575.4C 290 575.4 281.9 585.30005 281.9 599.4C 281.9 613.80005 290.3 623.7 302.9 623.7C 315.5 623.7 323.6 613.8 323.6 599.7C 323.6 585 315.2 575.4 302.6 575.4z" stroke="none" fill="#FFFFFF" fill-rule="nonzero" />
            <path d="M351.8 629.1L343.69998 629.1L343.69998 569.6L351.8 567.8L351.8 580.39996C 355.69998 572.89996 361.4 567.8 369.19998 567.8C 373.09998 567.8 376.69998 569 379.69998 570.5L379.69998 570.5L377.59998 578C 374.89996 576.5 371.89996 575.3 368.59998 575.3C 362.3 575.3 356.59998 580.1 351.8 590.6L351.8 590.6L351.8 629.1z" stroke="none" fill="#FFFFFF" fill-rule="nonzero" />
            <path d="M411.3 630.6C 393.3 630.6 382.19998 617.69995 382.19998 599.39996C 382.19998 580.8 394.49997 567.89996 411.3 567.89996C 418.5 567.89996 424.8 569.69995 429.9 572.99994L429.9 572.99994L427.8 580.19995C 423.3 577.19995 417.59998 575.39996 411.3 575.39996C 398.4 575.39996 390.59998 584.99994 390.59998 599.1C 390.59998 613.5 398.99997 623.1 411.59998 623.1C 417.59998 623.1 423.59998 621.3 428.09998 618.3L428.09998 618.3L429.89996 625.8C 424.5 628.8 418.2 630.6 411.3 630.6z" stroke="none" fill="#FFFFFF" fill-rule="nonzero" />
            <path d="M479.5 629.1L479.5 590.6C 479.5 580.1 475.3 575.6 466.9 575.6C 460 575.6 453.4 579.19995 448.6 584L448.6 584L448.6 629.1L440.5 629.1L440.5 541.69995L448.6 539.89996C 448.6 539.89996 448.6 577.19995 448.6 577.49994C 454.9 571.19995 462.7 568.19995 469.30002 568.19995C 480.7 568.19995 487.90002 575.69995 487.90002 588.6L487.90002 588.6L487.90002 629.19995L479.5 629.19995L479.5 629.1z" stroke="none" fill="#FFFFFF" fill-rule="nonzero" />
		</g>
	</g>
</g>
</svg>