<svg width="82" height="24" viewBox="0 0 82 24" fill="none" xmlns="http://www.w3.org/2000/svg">
<mask id="mask0_3116_16952" style="mask-type:luminance" maskUnits="userSpaceOnUse" x="0" y="0" width="29" height="24">
<path d="M28.9538 0H0.94873V24H28.9538V0Z" fill="white"/>
</mask>
<g mask="url(#mask0_3116_16952)">
<path d="M27.8512 18.5048C26.3593 19.2851 18.6169 22.4697 16.949 23.3438C15.2812 24.2179 14.388 24.193 13.0836 23.5695C11.7791 22.946 3.56809 19.6065 2.08005 18.895C1.33028 18.543 0.947754 18.2427 0.947754 17.9616V15.1289C0.947754 15.1289 11.6739 12.8012 13.4049 12.1739C15.1358 11.5465 15.7345 11.5312 17.2053 12.0706C18.6762 12.61 27.4935 14.2013 28.949 14.7292V17.5217C28.949 17.8124 28.6143 18.0955 27.8512 18.5029V18.5048Z" fill="#E6E6E6"/>
<path d="M27.8511 15.6842C26.3592 16.4608 18.6168 19.6453 16.949 20.5041C15.2811 21.3629 14.3879 21.3553 13.0835 20.7336C11.7791 20.112 3.56805 16.7725 2.08 16.0668C0.591956 15.361 0.563266 14.8675 2.02262 14.2976C3.48198 13.7276 11.6739 10.5201 13.4048 9.88889C15.1358 9.25771 15.7344 9.24432 17.2053 9.7856C18.6761 10.3269 26.386 13.389 27.8339 13.9227C29.2818 14.4563 29.3487 14.8943 27.8511 15.6689V15.6842Z" fill="#B5B5B5"/>
<path d="M27.8512 13.8914C26.3593 14.6698 18.6169 17.8525 16.949 18.7113C15.2812 19.57 14.3956 19.5624 13.0912 18.937C11.7868 18.3115 3.56809 14.9912 2.08005 14.2816C1.33028 13.9258 0.947754 13.6274 0.947754 13.3444V10.5213C0.947754 10.5213 11.6739 8.18592 13.4049 7.55857C15.1358 6.93122 15.7345 6.91401 17.2053 7.46103C18.6762 8.00805 27.4935 9.58408 28.949 10.1158V12.9083C28.949 13.199 28.6143 13.4897 27.8512 13.8914Z" fill="#E6E6E6"/>
<path d="M27.8514 11.0589C26.3595 11.8393 18.6171 15.0219 16.9492 15.8807C15.2814 16.7395 14.3882 16.7338 13.0838 16.1102C11.7793 15.4867 3.5683 12.1606 2.08025 11.4491C0.592205 10.7376 0.565428 10.2537 2.02287 9.68373C3.48031 9.11375 11.6741 5.89858 13.4051 5.28462C15.136 4.67066 15.7347 4.6324 17.2055 5.16603C18.6764 5.69966 26.3863 8.7886 27.8342 9.30693C29.282 9.82526 29.349 10.2805 27.8514 11.0532V11.0589Z" fill="#B5B5B5"/>
<path d="M27.8512 9.10278C26.3593 9.88315 18.6169 13.0677 16.949 13.9246C15.2812 14.7815 14.3956 14.7757 13.0912 14.1541C11.7868 13.5325 3.56809 10.2026 2.08005 9.49297C1.33028 9.14104 0.947754 8.84075 0.947754 8.55768V5.72504C0.947754 5.72504 11.6739 3.39733 13.4049 2.7719C15.1358 2.14646 15.7345 2.12733 17.2053 2.6667C18.6762 3.20607 27.4897 4.7974 28.9452 5.32912V8.12159C28.949 8.41614 28.6143 8.70304 27.8512 9.10278Z" fill="#E6E6E6"/>
<path d="M27.8511 6.27468C26.3592 7.03974 18.6168 10.2434 16.949 11.0946C15.2811 11.9457 14.3879 11.9438 13.0835 11.3241C11.7791 10.7044 3.56805 7.37063 2.08 6.66295C0.591956 5.95526 0.563266 5.46371 2.02262 4.89374C3.48198 4.32377 11.6739 1.11051 13.4048 0.486983C15.1358 -0.136543 15.7344 -0.155669 17.2053 0.383699C18.6761 0.923068 26.386 3.98905 27.8339 4.52077C29.2818 5.05249 29.3487 5.49431 27.8511 6.26894V6.27468Z" fill="white"/>
</g>
<path d="M15.3891 2.25131L17.2367 1.645L16.7356 2.84232L18.6157 3.54618L16.1924 3.79865L15.6473 5.1069L14.7713 3.64755L11.9692 3.39508L14.0617 2.64149L13.4324 1.48242L15.3891 2.25131Z" fill="#C6C6C6"/>
<path d="M15.5062 9.88835L10.9771 8.00821L17.4648 7.01172L15.5062 9.88835Z" fill="#C6C6C6"/>
<path d="M9.22688 4.27344C11.1395 4.27344 12.6945 4.87592 12.6945 5.6123C12.6945 6.34867 11.1357 6.95115 9.22688 6.95115C7.31805 6.95115 5.75732 6.34867 5.75732 5.6123C5.75732 4.87592 7.31231 4.27344 9.22688 4.27344Z" fill="#C6C6C6"/>
<path d="M21.4868 3.9043L25.3255 5.42103L21.4906 6.93777L21.4868 3.9043Z" fill="#DCDCDC"/>
<path d="M21.4867 3.9043L21.4906 6.93777L21.0736 7.10034L17.2368 5.58361L21.4867 3.9043Z" fill="#B5B5B5"/>
<path d="M44.5348 18L41.8788 13.44H40.1188V18H38.6628V6.848H42.2628C43.1055 6.848 43.8148 6.992 44.3908 7.28C44.9775 7.568 45.4148 7.95733 45.7028 8.448C45.9908 8.93867 46.1348 9.49867 46.1348 10.128C46.1348 10.896 45.9108 11.5733 45.4628 12.16C45.0255 12.7467 44.3641 13.136 43.4788 13.328L46.2788 18H44.5348ZM40.1188 12.272H42.2628C43.0521 12.272 43.6441 12.08 44.0388 11.696C44.4335 11.3013 44.6308 10.7787 44.6308 10.128C44.6308 9.46667 44.4335 8.95467 44.0388 8.592C43.6548 8.22933 43.0628 8.048 42.2628 8.048H40.1188V12.272ZM56.7172 13.28C56.7172 13.5573 56.7012 13.8507 56.6692 14.16H49.6612C49.7145 15.024 50.0078 15.7013 50.5412 16.192C51.0852 16.672 51.7412 16.912 52.5092 16.912C53.1385 16.912 53.6612 16.768 54.0772 16.48C54.5038 16.1813 54.8025 15.7867 54.9732 15.296H56.5412C56.3065 16.1387 55.8372 16.8267 55.1332 17.36C54.4292 17.8827 53.5545 18.144 52.5092 18.144C51.6772 18.144 50.9305 17.9573 50.2692 17.584C49.6185 17.2107 49.1065 16.6827 48.7332 16C48.3598 15.3067 48.1732 14.5067 48.1732 13.6C48.1732 12.6933 48.3545 11.8987 48.7172 11.216C49.0798 10.5333 49.5865 10.0107 50.2372 9.648C50.8985 9.27467 51.6558 9.088 52.5092 9.088C53.3412 9.088 54.0772 9.26933 54.7172 9.632C55.3572 9.99467 55.8478 10.496 56.1892 11.136C56.5412 11.7653 56.7172 12.48 56.7172 13.28ZM55.2132 12.976C55.2132 12.4213 55.0905 11.9467 54.8452 11.552C54.5998 11.1467 54.2638 10.8427 53.8372 10.64C53.4212 10.4267 52.9572 10.32 52.4452 10.32C51.7092 10.32 51.0798 10.5547 50.5572 11.024C50.0452 11.4933 49.7518 12.144 49.6772 12.976H55.2132ZM58.4151 13.584C58.4151 12.688 58.5964 11.904 58.9591 11.232C59.3217 10.5493 59.8177 10.0213 60.4471 9.648C61.0871 9.27467 61.8017 9.088 62.5911 9.088C63.2737 9.088 63.9084 9.248 64.4951 9.568C65.0817 9.87733 65.5297 10.288 65.8391 10.8V6.16H67.3111V18H65.8391V16.352C65.5511 16.8747 65.1244 17.3067 64.5591 17.648C63.9937 17.9787 63.3324 18.144 62.5751 18.144C61.7964 18.144 61.0871 17.952 60.4471 17.568C59.8177 17.184 59.3217 16.6453 58.9591 15.952C58.5964 15.2587 58.4151 14.4693 58.4151 13.584ZM65.8391 13.6C65.8391 12.9387 65.7057 12.3627 65.4391 11.872C65.1724 11.3813 64.8097 11.008 64.3511 10.752C63.9031 10.4853 63.4071 10.352 62.8631 10.352C62.3191 10.352 61.8231 10.48 61.3751 10.736C60.9271 10.992 60.5697 11.3653 60.3031 11.856C60.0364 12.3467 59.9031 12.9227 59.9031 13.584C59.9031 14.256 60.0364 14.8427 60.3031 15.344C60.5697 15.8347 60.9271 16.2133 61.3751 16.48C61.8231 16.736 62.3191 16.864 62.8631 16.864C63.4071 16.864 63.9031 16.736 64.3511 16.48C64.8097 16.2133 65.1724 15.8347 65.4391 15.344C65.7057 14.8427 65.8391 14.2613 65.8391 13.6ZM70.8436 7.808C70.5662 7.808 70.3316 7.712 70.1396 7.52C69.9476 7.328 69.8516 7.09333 69.8516 6.816C69.8516 6.53867 69.9476 6.304 70.1396 6.112C70.3316 5.92 70.5662 5.824 70.8436 5.824C71.1102 5.824 71.3342 5.92 71.5156 6.112C71.7076 6.304 71.8036 6.53867 71.8036 6.816C71.8036 7.09333 71.7076 7.328 71.5156 7.52C71.3342 7.712 71.1102 7.808 70.8436 7.808ZM71.5476 9.232V18H70.0916V9.232H71.5476ZM77.4531 18.144C76.7811 18.144 76.1784 18.032 75.6451 17.808C75.1117 17.5733 74.6904 17.2533 74.3811 16.848C74.0717 16.432 73.9011 15.9573 73.8691 15.424H75.3731C75.4157 15.8613 75.6184 16.2187 75.9811 16.496C76.3544 16.7733 76.8397 16.912 77.4371 16.912C77.9917 16.912 78.4291 16.7893 78.7491 16.544C79.0691 16.2987 79.2291 15.9893 79.2291 15.616C79.2291 15.232 79.0584 14.9493 78.7171 14.768C78.3757 14.576 77.8477 14.3893 77.1331 14.208C76.4824 14.0373 75.9491 13.8667 75.5331 13.696C75.1277 13.5147 74.7757 13.2533 74.4771 12.912C74.1891 12.56 74.0451 12.1013 74.0451 11.536C74.0451 11.088 74.1784 10.6773 74.4451 10.304C74.7117 9.93067 75.0904 9.63733 75.5811 9.424C76.0717 9.2 76.6317 9.088 77.2611 9.088C78.2317 9.088 79.0157 9.33333 79.6131 9.824C80.2104 10.3147 80.5304 10.9867 80.5731 11.84H79.1171C79.0851 11.3813 78.8984 11.0133 78.5571 10.736C78.2264 10.4587 77.7784 10.32 77.2131 10.32C76.6904 10.32 76.2744 10.432 75.9651 10.656C75.6557 10.88 75.5011 11.1733 75.5011 11.536C75.5011 11.824 75.5917 12.064 75.7731 12.256C75.9651 12.4373 76.1997 12.5867 76.4771 12.704C76.7651 12.8107 77.1597 12.9333 77.6611 13.072C78.2904 13.2427 78.8024 13.4133 79.1971 13.584C79.5917 13.744 79.9277 13.9893 80.2051 14.32C80.4931 14.6507 80.6424 15.0827 80.6531 15.616C80.6531 16.096 80.5197 16.528 80.2531 16.912C79.9864 17.296 79.6077 17.6 79.1171 17.824C78.6371 18.0373 78.0824 18.144 77.4531 18.144Z" fill="#F4F4F5"/>
</svg>
