<svg width="69" height="24" viewBox="0 0 69 24" fill="none" xmlns="http://www.w3.org/2000/svg">
<g clip-path="url(#clip0_3116_16313)">
<path d="M10.7205 8.71713H13.6639C15.4752 8.71713 15.4752 10.5284 13.6639 10.5284H10.7205V8.71713ZM3.70166 17.0945H12.7583V14.6039H10.7205V12.7926H12.9847C15.4752 12.7926 14.1168 17.0945 16.1545 17.0945H21.8149V12.7926H20.4564V13.2454C20.4564 15.0568 18.4186 14.8303 18.1922 13.6983C17.9658 12.5662 17.0602 11.6605 16.8337 11.6605C20.23 9.8492 18.1922 6.22656 15.4752 6.22656H4.83374V8.71713H7.09789V14.6039H3.70166V17.0945Z" fill="white"/>
<path d="M12.645 21.7354C18.022 21.7354 22.3809 17.3765 22.3809 11.9995C22.3809 6.62256 18.022 2.26367 12.645 2.26367C7.26807 2.26367 2.90918 6.62256 2.90918 11.9995C2.90918 17.3765 7.26807 21.7354 12.645 21.7354Z" stroke="white" stroke-width="0.5"/>
<path d="M23.0601 12.6788L24.1921 11.9996L23.0601 11.3203V12.6788Z" fill="white" stroke="white" stroke-width="0.5" stroke-linejoin="round"/>
<path d="M22.7272 14.6976L23.97 14.2523L22.9922 13.3652L22.7272 14.6976Z" fill="white" stroke="white" stroke-width="0.5" stroke-linejoin="round"/>
<path d="M22.007 16.6145L23.3128 16.4201L22.5269 15.3594L22.007 16.6145Z" fill="white" stroke="white" stroke-width="0.5" stroke-linejoin="round"/>
<path d="M20.9274 18.3522L22.246 18.4164L21.6821 17.2227L20.9274 18.3522Z" fill="white" stroke="white" stroke-width="0.5" stroke-linejoin="round"/>
<path d="M19.5291 19.8454L20.8099 20.1656L20.4897 18.8848L19.5291 19.8454Z" fill="white" stroke="white" stroke-width="0.5" stroke-linejoin="round"/>
<path d="M17.8666 21.0379L19.0603 21.6019L18.9961 20.2832L17.8666 21.0379Z" fill="white" stroke="white" stroke-width="0.5" stroke-linejoin="round"/>
<path d="M16.0027 21.8832L17.0635 22.6691L17.2578 21.3633L16.0027 21.8832Z" fill="white" stroke="white" stroke-width="0.5" stroke-linejoin="round"/>
<path d="M14.0104 22.3471L14.8974 23.3249L15.3428 22.082L14.0104 22.3471Z" fill="white" stroke="white" stroke-width="0.5" stroke-linejoin="round"/>
<path d="M11.9657 22.416L12.645 23.5481L13.3242 22.416H11.9657Z" fill="white" stroke="white" stroke-width="0.5" stroke-linejoin="round"/>
<path d="M9.94691 22.0826L10.3922 23.3255L11.2793 22.3477L9.94691 22.0826Z" fill="white" stroke="white" stroke-width="0.5" stroke-linejoin="round"/>
<path d="M8.03154 21.3629L8.22585 22.6688L9.28662 21.8828L8.03154 21.3629Z" fill="white" stroke="white" stroke-width="0.5" stroke-linejoin="round"/>
<path d="M6.2938 20.2824L6.22962 21.601L7.42334 21.0371L6.2938 20.2824Z" fill="white" stroke="white" stroke-width="0.5" stroke-linejoin="round"/>
<path d="M4.80014 18.8851L4.47995 20.1659L5.76074 19.8457L4.80014 18.8851Z" fill="white" stroke="white" stroke-width="0.5" stroke-linejoin="round"/>
<path d="M3.60757 17.222L3.04365 18.4157L4.3623 18.3516L3.60757 17.222Z" fill="white" stroke="white" stroke-width="0.5" stroke-linejoin="round"/>
<path d="M2.76235 15.3582L1.97639 16.419L3.28223 16.6133L2.76235 15.3582Z" fill="white" stroke="white" stroke-width="0.5" stroke-linejoin="round"/>
<path d="M2.29747 13.3668L1.31966 14.2539L2.5625 14.6992L2.29747 13.3668Z" fill="white" stroke="white" stroke-width="0.5" stroke-linejoin="round"/>
<path d="M2.22949 11.3212L1.09742 12.0004L2.22949 12.6797V11.3212Z" fill="white" stroke="white" stroke-width="0.5" stroke-linejoin="round"/>
<path d="M2.56239 9.30238L1.31955 9.74771L2.29736 10.6348L2.56239 9.30238Z" fill="white" stroke="white" stroke-width="0.5" stroke-linejoin="round"/>
<path d="M3.28257 7.3875L1.97673 7.58181L2.7627 8.64258L3.28257 7.3875Z" fill="white" stroke="white" stroke-width="0.5" stroke-linejoin="round"/>
<path d="M4.36216 5.64975L3.0435 5.58558L3.60742 6.7793L4.36216 5.64975Z" fill="white" stroke="white" stroke-width="0.5" stroke-linejoin="round"/>
<path d="M5.7604 4.15464L4.47961 3.83444L4.7998 5.11523L5.7604 4.15464Z" fill="white" stroke="white" stroke-width="0.5" stroke-linejoin="round"/>
<path d="M7.42349 2.96401L6.22977 2.4001L6.29395 3.71875L7.42349 2.96401Z" fill="white" stroke="white" stroke-width="0.5" stroke-linejoin="round"/>
<path d="M9.28682 2.1188L8.22605 1.33283L8.03174 2.63867L9.28682 2.1188Z" fill="white" stroke="white" stroke-width="0.5" stroke-linejoin="round"/>
<path d="M11.2792 1.65294L10.3921 0.675132L9.94678 1.91797L11.2792 1.65294Z" fill="white" stroke="white" stroke-width="0.5" stroke-linejoin="round"/>
<path d="M13.3243 1.58594L12.6451 0.453862L11.9658 1.58594L13.3243 1.58594Z" fill="white" stroke="white" stroke-width="0.5" stroke-linejoin="round"/>
<path d="M15.3431 1.91737L14.8978 0.674535L14.0107 1.65234L15.3431 1.91737Z" fill="white" stroke="white" stroke-width="0.5" stroke-linejoin="round"/>
<path d="M17.258 2.63706L17.0637 1.33122L16.0029 2.11719L17.258 2.63706Z" fill="white" stroke="white" stroke-width="0.5" stroke-linejoin="round"/>
<path d="M18.9958 3.71763L19.0599 2.39897L17.8662 2.96289L18.9958 3.71763Z" fill="white" stroke="white" stroke-width="0.5" stroke-linejoin="round"/>
<path d="M20.4899 5.11685L20.8101 3.83605L19.5293 4.15625L20.4899 5.11685Z" fill="white" stroke="white" stroke-width="0.5" stroke-linejoin="round"/>
<path d="M21.682 6.77798L22.2459 5.58426L20.9272 5.64844L21.682 6.77798Z" fill="white" stroke="white" stroke-width="0.5" stroke-linejoin="round"/>
<path d="M22.5272 8.6418L23.3132 7.58103L22.0073 7.38672L22.5272 8.6418Z" fill="white" stroke="white" stroke-width="0.5" stroke-linejoin="round"/>
<path d="M22.9921 10.6351L23.9699 9.74807L22.7271 9.30273L22.9921 10.6351Z" fill="white" stroke="white" stroke-width="0.5" stroke-linejoin="round"/>
<path d="M11.0596 2.49023L12.6445 4.07514L14.2294 2.49023H11.0596Z" fill="white" stroke="white" stroke-width="0.5" stroke-linejoin="round"/>
<path d="M21.1987 7.55469L20.1812 9.55179L22.1783 10.5694L21.1987 7.55469Z" fill="white" stroke="white" stroke-width="0.5" stroke-linejoin="round"/>
<path d="M19.5161 18.7617L17.3023 18.4111L16.9517 20.6249L19.5161 18.7617Z" fill="white" stroke="white" stroke-width="0.5" stroke-linejoin="round"/>
<path d="M8.3374 20.625L7.98677 18.4112L5.77297 18.7618L8.3374 20.625Z" fill="white" stroke="white" stroke-width="0.5" stroke-linejoin="round"/>
<path d="M3.11084 10.5684L5.10794 9.55079L4.09037 7.55369L3.11084 10.5684Z" fill="white" stroke="white" stroke-width="0.5" stroke-linejoin="round"/>
</g>
<path d="M39.641 18L37.081 13.552H35.689V18H33.865V6.88H37.705C38.5584 6.88 39.2784 7.02933 39.865 7.328C40.4624 7.62667 40.905 8.02667 41.193 8.528C41.4917 9.02933 41.641 9.58933 41.641 10.208C41.641 10.9333 41.4277 11.5947 41.001 12.192C40.585 12.7787 39.9397 13.1787 39.065 13.392L41.817 18H39.641ZM35.689 12.096H37.705C38.3877 12.096 38.8997 11.9253 39.241 11.584C39.593 11.2427 39.769 10.784 39.769 10.208C39.769 9.632 39.5984 9.184 39.257 8.864C38.9157 8.53333 38.3984 8.368 37.705 8.368H35.689V12.096ZM52.2784 9.184V18H50.4544V16.96C50.1664 17.3227 49.7877 17.6107 49.3184 17.824C48.8597 18.0267 48.3691 18.128 47.8464 18.128C47.1531 18.128 46.5291 17.984 45.9744 17.696C45.4304 17.408 44.9984 16.9813 44.6784 16.416C44.3691 15.8507 44.2144 15.168 44.2144 14.368V9.184H46.0224V14.096C46.0224 14.8853 46.2197 15.4933 46.6144 15.92C47.0091 16.336 47.5477 16.544 48.2304 16.544C48.9131 16.544 49.4517 16.336 49.8464 15.92C50.2517 15.4933 50.4544 14.8853 50.4544 14.096V9.184H52.2784ZM58.205 18.144C57.5117 18.144 56.8877 18.0213 56.333 17.776C55.789 17.52 55.357 17.1787 55.037 16.752C54.717 16.3147 54.5464 15.8293 54.525 15.296H56.413C56.445 15.6693 56.621 15.984 56.941 16.24C57.2717 16.4853 57.6824 16.608 58.173 16.608C58.685 16.608 59.0797 16.512 59.357 16.32C59.645 16.1173 59.789 15.8613 59.789 15.552C59.789 15.2213 59.629 14.976 59.309 14.816C58.9997 14.656 58.5037 14.48 57.821 14.288C57.1597 14.1067 56.621 13.9307 56.205 13.76C55.789 13.5893 55.4264 13.328 55.117 12.976C54.8184 12.624 54.669 12.16 54.669 11.584C54.669 11.1147 54.8077 10.688 55.085 10.304C55.3624 9.90933 55.757 9.6 56.269 9.376C56.7917 9.152 57.389 9.04 58.061 9.04C59.0637 9.04 59.869 9.296 60.477 9.808C61.0957 10.3093 61.4264 10.9973 61.469 11.872H59.645C59.613 11.4773 59.453 11.1627 59.165 10.928C58.877 10.6933 58.4877 10.576 57.997 10.576C57.517 10.576 57.149 10.6667 56.893 10.848C56.637 11.0293 56.509 11.2693 56.509 11.568C56.509 11.8027 56.5944 12 56.765 12.16C56.9357 12.32 57.1437 12.448 57.389 12.544C57.6344 12.6293 57.997 12.7413 58.477 12.88C59.117 13.0507 59.6397 13.2267 60.045 13.408C60.461 13.5787 60.8184 13.8347 61.117 14.176C61.4157 14.5173 61.5704 14.9707 61.581 15.536C61.581 16.0373 61.4424 16.4853 61.165 16.88C60.8877 17.2747 60.493 17.584 59.981 17.808C59.4797 18.032 58.8877 18.144 58.205 18.144ZM65.9999 10.672V15.552C65.9999 15.8827 66.0746 16.1227 66.2239 16.272C66.3839 16.4107 66.6506 16.48 67.0239 16.48H68.1439V18H66.7039C65.8826 18 65.2532 17.808 64.8159 17.424C64.3786 17.04 64.1599 16.416 64.1599 15.552V10.672H63.1199V9.184H64.1599V6.992H65.9999V9.184H68.1439V10.672H65.9999Z" fill="#F4F4F5"/>
<defs>
<clipPath id="clip0_3116_16313">
<rect width="24" height="24" fill="white" transform="translate(0.64502)"/>
</clipPath>
</defs>
</svg>
