<svg width="71" height="24" viewBox="0 0 71 24" fill="none" xmlns="http://www.w3.org/2000/svg">
<path fill-rule="evenodd" clip-rule="evenodd" d="M0.0224609 8.9309C0.231806 9.21945 1.99709 9.76375 4.63032 10.3307C7.26354 10.8354 10.002 12.8281 12.1317 12.2137C13.5722 11.7972 15.1349 8.08673 15.1349 7.53564V7.47906C15.1349 7.09432 14.8464 6.78539 14.3564 6.52852C12.3478 5.50216 11.9676 5.12421 11.223 5.32903C7.35746 6.39612 0.532811 5.85069 0.0224609 8.9309Z" fill="#515151"/>
<path fill-rule="evenodd" clip-rule="evenodd" d="M0.0224609 16.4651C0.231806 16.7582 1.99709 17.298 4.63032 17.8661C7.57247 18.4024 10.131 20.1507 12.2618 19.5352C13.7023 19.1187 15.1349 15.6221 15.1349 15.0699V15.0156C15.1349 14.632 14.8464 14.3219 14.3564 14.0662C12.8242 13.2514 10.7998 12.3541 10.0563 12.5589C6.184 13.6237 1.00808 13.8579 0.0224609 16.4651Z" fill="#515151"/>
<path fill-rule="evenodd" clip-rule="evenodd" d="M0.000874631 10.5508V10.6051C-0.000291544 10.587 -0.000291544 10.5689 0.000874631 10.5508Z" fill="#555555"/>
<path fill-rule="evenodd" clip-rule="evenodd" d="M12.2565 1.45636C8.69651 2.48498 3.04872 3.06549 0.00585938 3.06549V8.87624C0.00682703 8.89622 0.0143877 8.91532 0.0273598 8.93055C2.10384 8.93055 8.51433 8.25159 12.3821 7.18789C13.0567 7.01621 13.7181 6.7965 14.3613 6.53044C14.8343 6.3177 15.1398 6.09364 15.1398 5.86053V0C15.1353 0.552219 13.697 1.04107 12.2565 1.45636Z" fill="white"/>
<path fill-rule="evenodd" clip-rule="evenodd" d="M12.2565 8.99152C10.1257 9.60598 7.25033 10.0631 4.63069 10.3302C2.87219 10.5101 1.22911 10.604 0.00585938 10.604V16.4103C0.00682703 16.4302 0.0143877 16.4493 0.0273598 16.4646C2.10384 16.4646 8.51433 15.7856 12.3821 14.7231C13.0565 14.5509 13.7179 14.3312 14.3613 14.0656C14.8343 13.8517 15.1398 13.6288 15.1398 13.3957V7.53516C15.1353 8.08624 13.697 8.57509 12.2565 8.99152Z" fill="white"/>
<path fill-rule="evenodd" clip-rule="evenodd" d="M12.2562 16.5323C10.1254 17.1468 7.24998 17.6028 4.63033 17.871C2.86957 18.0509 1.22423 18.1449 0.000976562 18.1449V24.0009C2.05595 24.0009 8.49926 23.3276 12.3772 22.2593C13.8064 21.8655 15.1349 21.4174 15.1349 20.9308V15.0703C15.1349 15.6271 13.6967 16.1114 12.2562 16.5323Z" fill="white"/>
<path d="M28.2855 18.112C27.5389 18.112 26.8669 17.984 26.2695 17.728C25.6722 17.4613 25.2029 17.088 24.8615 16.608C24.5202 16.128 24.3495 15.568 24.3495 14.928H26.3015C26.3442 15.408 26.5309 15.8027 26.8615 16.112C27.2029 16.4213 27.6775 16.576 28.2855 16.576C28.9149 16.576 29.4055 16.4267 29.7575 16.128C30.1095 15.8187 30.2855 15.424 30.2855 14.944C30.2855 14.5707 30.1735 14.2667 29.9495 14.032C29.7362 13.7973 29.4642 13.616 29.1335 13.488C28.8135 13.36 28.3655 13.2213 27.7895 13.072C27.0642 12.88 26.4722 12.688 26.0135 12.496C25.5655 12.2933 25.1815 11.984 24.8615 11.568C24.5415 11.152 24.3815 10.5973 24.3815 9.904C24.3815 9.264 24.5415 8.704 24.8615 8.224C25.1815 7.744 25.6295 7.376 26.2055 7.12C26.7815 6.864 27.4482 6.736 28.2055 6.736C29.2829 6.736 30.1629 7.008 30.8455 7.552C31.5389 8.08533 31.9229 8.82133 31.9975 9.76H29.9815C29.9495 9.35467 29.7575 9.008 29.4055 8.72C29.0535 8.432 28.5895 8.288 28.0135 8.288C27.4909 8.288 27.0642 8.42133 26.7335 8.688C26.4029 8.95467 26.2375 9.33867 26.2375 9.84C26.2375 10.1813 26.3389 10.464 26.5415 10.688C26.7549 10.9013 27.0215 11.072 27.3415 11.2C27.6615 11.328 28.0989 11.4667 28.6535 11.616C29.3895 11.8187 29.9869 12.0213 30.4455 12.224C30.9149 12.4267 31.3095 12.7413 31.6295 13.168C31.9602 13.584 32.1255 14.144 32.1255 14.848C32.1255 15.4133 31.9709 15.9467 31.6615 16.448C31.3629 16.9493 30.9202 17.3547 30.3335 17.664C29.7575 17.9627 29.0749 18.112 28.2855 18.112ZM33.9898 13.584C33.9898 12.6773 34.1711 11.8827 34.5338 11.2C34.9071 10.5067 35.4191 9.97333 36.0698 9.6C36.7204 9.22667 37.4671 9.04 38.3098 9.04C39.3764 9.04 40.2564 9.296 40.9498 9.808C41.6538 10.3093 42.1284 11.0293 42.3738 11.968H40.4058C40.2458 11.5307 39.9898 11.1893 39.6378 10.944C39.2858 10.6987 38.8431 10.576 38.3098 10.576C37.5631 10.576 36.9658 10.8427 36.5178 11.376C36.0804 11.8987 35.8618 12.6347 35.8618 13.584C35.8618 14.5333 36.0804 15.2747 36.5178 15.808C36.9658 16.3413 37.5631 16.608 38.3098 16.608C39.3658 16.608 40.0644 16.144 40.4058 15.216H42.3738C42.1178 16.112 41.6378 16.8267 40.9338 17.36C40.2298 17.8827 39.3551 18.144 38.3098 18.144C37.4671 18.144 36.7204 17.9573 36.0698 17.584C35.4191 17.2 34.9071 16.6667 34.5338 15.984C34.1711 15.2907 33.9898 14.4907 33.9898 13.584ZM43.9035 13.552C43.9035 12.6667 44.0849 11.8827 44.4475 11.2C44.8209 10.5173 45.3222 9.98933 45.9515 9.616C46.5915 9.232 47.2955 9.04 48.0635 9.04C48.7569 9.04 49.3595 9.17867 49.8715 9.456C50.3942 9.72267 50.8102 10.0587 51.1195 10.464V9.184H52.9595V18H51.1195V16.688C50.8102 17.104 50.3889 17.4507 49.8555 17.728C49.3222 18.0053 48.7142 18.144 48.0315 18.144C47.2742 18.144 46.5809 17.952 45.9515 17.568C45.3222 17.1733 44.8209 16.6293 44.4475 15.936C44.0849 15.232 43.9035 14.4373 43.9035 13.552ZM51.1195 13.584C51.1195 12.976 50.9915 12.448 50.7355 12C50.4902 11.552 50.1649 11.2107 49.7595 10.976C49.3542 10.7413 48.9169 10.624 48.4475 10.624C47.9782 10.624 47.5409 10.7413 47.1355 10.976C46.7302 11.2 46.3995 11.536 46.1435 11.984C45.8982 12.4213 45.7755 12.944 45.7755 13.552C45.7755 14.16 45.8982 14.6933 46.1435 15.152C46.3995 15.6107 46.7302 15.9627 47.1355 16.208C47.5515 16.4427 47.9889 16.56 48.4475 16.56C48.9169 16.56 49.3542 16.4427 49.7595 16.208C50.1649 15.9733 50.4902 15.632 50.7355 15.184C50.9915 14.7253 51.1195 14.192 51.1195 13.584ZM57.4993 6.16V18H55.6753V6.16H57.4993ZM59.606 13.552C59.606 12.6667 59.7874 11.8827 60.15 11.2C60.5234 10.5173 61.0247 9.98933 61.654 9.616C62.294 9.232 62.998 9.04 63.766 9.04C64.4594 9.04 65.062 9.17867 65.574 9.456C66.0967 9.72267 66.5127 10.0587 66.822 10.464V9.184H68.662V18H66.822V16.688C66.5127 17.104 66.0914 17.4507 65.558 17.728C65.0247 18.0053 64.4167 18.144 63.734 18.144C62.9767 18.144 62.2834 17.952 61.654 17.568C61.0247 17.1733 60.5234 16.6293 60.15 15.936C59.7874 15.232 59.606 14.4373 59.606 13.552ZM66.822 13.584C66.822 12.976 66.694 12.448 66.438 12C66.1927 11.552 65.8674 11.2107 65.462 10.976C65.0567 10.7413 64.6194 10.624 64.15 10.624C63.6807 10.624 63.2434 10.7413 62.838 10.976C62.4327 11.2 62.102 11.536 61.846 11.984C61.6007 12.4213 61.478 12.944 61.478 13.552C61.478 14.16 61.6007 14.6933 61.846 15.152C62.102 15.6107 62.4327 15.9627 62.838 16.208C63.254 16.4427 63.6914 16.56 64.15 16.56C64.6194 16.56 65.0567 16.4427 65.462 16.208C65.8674 15.9733 66.1927 15.632 66.438 15.184C66.694 14.7253 66.822 14.192 66.822 13.584Z" fill="#F4F4F5"/>
</svg>
