<svg width="100" height="26" viewBox="0 0 100 26" fill="none" xmlns="http://www.w3.org/2000/svg">
<path d="M5.93469 23.1683C6.07589 23.9096 5.61699 24.6156 4.87569 24.7921C4.13439 24.9333 3.4284 24.4744 3.2519 23.7331C3.2519 23.7331 0.745605 11.9783 0.745605 9.57787C0.745605 4.56529 4.73449 1 10.3472 1C15.9599 1 19.9487 4.52999 19.9487 9.54257C19.9487 11.943 17.4425 23.6978 17.4425 23.6978C17.3013 24.4391 16.5953 24.9333 15.854 24.7921C15.1127 24.6509 14.6185 23.9449 14.7597 23.2036" fill="white"/>
<path d="M5.93469 23.1683C6.07589 23.9096 5.61699 24.6156 4.87569 24.7921C4.13439 24.9333 3.4284 24.4744 3.2519 23.7331C3.2519 23.7331 0.745605 11.9783 0.745605 9.57787C0.745605 4.56529 4.73449 1 10.3472 1C15.9599 1 19.9487 4.52999 19.9487 9.54257C19.9487 11.943 17.4425 23.6978 17.4425 23.6978C17.3013 24.4391 16.5953 24.9333 15.854 24.7921C15.1127 24.6509 14.6185 23.9449 14.7597 23.2036" stroke="black" stroke-width="0.596703" stroke-linecap="round" stroke-linejoin="round"/>
<path d="M16.8422 19.8145L16.1715 23.6268C16.0656 24.3681 15.3596 24.8976 14.6183 24.7917C13.877 24.6858 13.3475 23.9798 13.4534 23.2385" fill="white"/>
<path d="M16.9838 19.8149L16.6661 21.827L16.4896 22.8154L16.419 23.3449L16.3131 23.8744C16.066 24.7216 15.1835 25.1805 14.3363 24.9334C13.9833 24.8275 13.7009 24.6157 13.4891 24.3333C13.2773 24.0156 13.1714 23.592 13.242 23.2037C13.242 23.0978 13.3832 22.9919 13.4891 23.0272C13.595 23.0272 13.7009 23.1684 13.6656 23.2743C13.595 23.8744 13.9833 24.4039 14.5834 24.5098C15.1482 24.6157 15.7483 24.298 15.9248 23.7332C15.9601 23.6273 15.9954 23.4155 16.0307 23.2743L16.1366 22.7801L16.3131 21.7917L16.7014 19.8149C16.7179 19.7825 16.7432 19.7554 16.7744 19.7367C16.8057 19.7179 16.8415 19.7084 16.8779 19.709C16.9485 19.709 16.9838 19.7796 16.9838 19.8149Z" fill="black"/>
<path d="M7.09941 12.9312C9.45838 12.9312 11.3707 11.0189 11.3707 8.65996C11.3707 6.30099 9.45838 4.38867 7.09941 4.38867C4.74045 4.38867 2.82812 6.30099 2.82812 8.65996C2.82812 11.0189 4.74045 12.9312 7.09941 12.9312Z" fill="white" stroke="black" stroke-width="0.596703" stroke-linejoin="round"/>
<path d="M7.98238 5.8374C7.24108 5.9786 7.09988 7.6024 7.52348 8.06129C7.80588 8.34369 8.40598 8.44959 8.40598 8.66139C8.40598 8.87319 7.80588 8.97909 7.52348 9.26149C7.06458 9.72039 7.24108 11.3442 7.98238 11.4854C8.86488 11.6619 10.2063 10.6029 10.2063 8.66139C10.2063 6.7199 8.86488 5.6609 7.98238 5.8374Z" fill="black"/>
<path d="M5.05176 14.416C5.19296 14.8749 5.65186 15.5809 6.25195 15.4397C6.53435 15.3691 6.71085 14.9808 6.71085 14.416" fill="white"/>
<path d="M5.05176 14.416C5.19296 14.8749 5.65186 15.5809 6.25195 15.4397C6.53435 15.3691 6.71085 14.9808 6.71085 14.416" stroke="black" stroke-width="0.497253" stroke-linecap="round" stroke-linejoin="round"/>
<path d="M8.86377 14.1333C9.00497 14.7334 9.14617 15.157 9.60507 15.157C10.064 15.157 10.6288 14.5569 10.4876 13.5332" fill="white"/>
<path d="M8.86377 14.1333C9.00497 14.7334 9.14617 15.157 9.60507 15.157C10.064 15.157 10.6288 14.5569 10.4876 13.5332" stroke="black" stroke-width="0.596703" stroke-linecap="round" stroke-linejoin="round"/>
<path d="M4.16972 14.0957C7.02901 14.5193 9.9236 13.8133 12.2887 12.1895C12.3946 12.1542 12.5358 12.1895 12.5711 12.2954C12.6064 12.366 12.6064 12.4719 12.5358 12.5425C10.0648 14.2369 7.06431 14.9076 4.09912 14.484C3.99322 14.4487 3.95792 14.3428 3.99322 14.2369C4.06382 14.131 4.09912 14.0957 4.16972 14.0957ZM12.6417 12.8602C12.6014 12.667 12.5013 12.4914 12.3556 12.3583C12.2098 12.2252 12.0259 12.1415 11.8298 12.1189C11.7239 12.1542 11.5827 12.0836 11.5827 11.9424C11.5474 11.8365 11.618 11.6953 11.7592 11.6953H11.9004C12.4652 11.8012 12.8888 12.2601 12.9594 12.8249C12.9594 12.8955 12.8888 12.9661 12.8182 12.9661C12.7123 13.0014 12.6417 12.9308 12.6417 12.8602Z" fill="black"/>
<path d="M7.2407 23.2385C7.3466 23.9798 6.8524 24.6858 6.0758 24.7917C5.3345 24.8976 4.6285 24.4034 4.52261 23.6268L3.88721 19.8145" fill="white"/>
<path d="M7.48754 23.2038C7.59344 24.0863 6.95804 24.8629 6.11084 24.9688C5.33424 25.0747 4.62825 24.5805 4.41645 23.8745L4.31055 23.345L4.09875 21.8624C3.92225 21.1564 3.81635 20.4857 3.71045 19.815C3.71045 19.7444 3.78105 19.6738 3.85165 19.6738C3.92225 19.6738 3.99285 19.7091 3.99285 19.7797L4.38115 21.7565L4.69885 23.2391L4.80475 23.698C4.98125 24.2628 5.54604 24.6158 6.14614 24.4746C6.71094 24.3334 7.09924 23.8039 7.02864 23.2391C7.02864 23.1332 7.09924 22.992 7.20514 22.992C7.34634 22.9567 7.45224 23.0626 7.48754 23.2038Z" fill="black"/>
<path d="M9.21786 23.3094C9.25316 24.0507 8.68836 24.7214 7.91177 24.7567C7.20577 24.792 6.57037 24.2625 6.49977 23.5565L6.07617 19.7441" fill="white"/>
<path d="M9.46505 23.31C9.50035 24.1925 8.82965 24.9338 7.94715 24.9691C7.17055 25.0044 6.49986 24.5102 6.32336 23.7689C6.28806 23.5924 6.25276 23.4159 6.25276 23.2394L6.21746 22.7452L6.11156 21.7568L5.93506 19.7447C5.93506 19.6741 6.00566 19.6035 6.07626 19.6035C6.14686 19.6035 6.21746 19.6388 6.21746 19.7094L6.64106 22.7099L6.71166 23.2041C6.74696 23.3806 6.74696 23.5571 6.78226 23.663C6.92346 24.2278 7.48825 24.6161 8.05305 24.5102C8.33217 24.4574 8.58393 24.3083 8.76452 24.089C8.94511 23.8697 9.0431 23.5941 9.04145 23.31C9.04145 23.2041 9.14735 23.0982 9.28855 23.0982C9.35915 23.1335 9.42975 23.2041 9.46505 23.31Z" fill="black"/>
<path d="M14.6184 19.709L14.1948 23.5567C14.1242 24.298 13.4888 24.8628 12.7122 24.7922C11.9709 24.7216 11.4061 24.0862 11.4767 23.3096" fill="white"/>
<path d="M14.7946 19.709L14.6181 21.7211L14.5122 22.7095L14.4769 23.2037C14.4769 23.3802 14.4416 23.5567 14.4063 23.7332C14.3004 24.1215 14.0886 24.4392 13.7356 24.6863C12.9943 25.1805 12.0412 25.004 11.547 24.2627C11.3352 23.9803 11.2646 23.6273 11.2646 23.2743C11.2999 23.1684 11.4058 23.0625 11.5117 23.0978C11.6176 23.0978 11.6882 23.2037 11.6882 23.3096C11.6529 23.9097 12.0765 24.4039 12.6766 24.5098C13.2414 24.5804 13.8062 24.2274 13.9474 23.6626L14.018 23.2037L14.2298 21.7211L14.5122 19.709C14.5475 19.6384 14.6181 19.5678 14.6887 19.6031C14.724 19.6031 14.7593 19.6384 14.7946 19.709Z" fill="black"/>
<path d="M11.8299 19.5684L11.724 23.416C11.724 24.1573 11.1239 24.7927 10.3473 24.7927C9.60604 24.7927 8.97065 24.1926 8.97065 23.416L8.86475 19.5684" fill="white"/>
<path d="M11.9712 19.6023L11.9359 22.5675V23.3088C11.9359 23.5912 11.9006 23.8736 11.7594 24.1207C11.3711 24.8973 10.3827 25.215 9.60613 24.7914C9.18253 24.5796 8.86483 24.156 8.79423 23.6971C8.75893 23.5559 8.75893 23.4147 8.75893 23.2735V22.5322L8.72363 19.567C8.72363 19.4964 8.79423 19.4258 8.86483 19.4258C8.93543 19.4258 9.00603 19.4964 9.00603 19.567L9.18253 23.2735C9.18253 23.3794 9.18253 23.4853 9.21783 23.5912L9.32373 23.8736C9.64143 24.4384 10.3121 24.6502 10.8769 24.3325C11.0887 24.2266 11.2299 24.0501 11.3358 23.8736L11.4417 23.5912C11.477 23.4853 11.477 23.3794 11.477 23.2735L11.6535 19.567C11.6535 19.4964 11.7241 19.4258 11.7947 19.4258C11.9359 19.4258 11.9712 19.4964 11.9712 19.6023Z" fill="black"/>
<path d="M32.9271 19.112C32.1804 19.112 31.5084 18.984 30.9111 18.728C30.3138 18.4613 29.8444 18.088 29.5031 17.608C29.1618 17.128 28.9911 16.568 28.9911 15.928H30.9431C30.9858 16.408 31.1724 16.8027 31.5031 17.112C31.8444 17.4213 32.3191 17.576 32.9271 17.576C33.5564 17.576 34.0471 17.4267 34.3991 17.128C34.7511 16.8187 34.9271 16.424 34.9271 15.944C34.9271 15.5707 34.8151 15.2667 34.5911 15.032C34.3778 14.7973 34.1058 14.616 33.7751 14.488C33.4551 14.36 33.0071 14.2213 32.4311 14.072C31.7058 13.88 31.1138 13.688 30.6551 13.496C30.2071 13.2933 29.8231 12.984 29.5031 12.568C29.1831 12.152 29.0231 11.5973 29.0231 10.904C29.0231 10.264 29.1831 9.704 29.5031 9.224C29.8231 8.744 30.2711 8.376 30.8471 8.12C31.4231 7.864 32.0898 7.736 32.8471 7.736C33.9244 7.736 34.8044 8.008 35.4871 8.552C36.1804 9.08533 36.5644 9.82133 36.6391 10.76H34.6231C34.5911 10.3547 34.3991 10.008 34.0471 9.72C33.6951 9.432 33.2311 9.288 32.6551 9.288C32.1324 9.288 31.7058 9.42133 31.3751 9.688C31.0444 9.95467 30.8791 10.3387 30.8791 10.84C30.8791 11.1813 30.9804 11.464 31.1831 11.688C31.3964 11.9013 31.6631 12.072 31.9831 12.2C32.3031 12.328 32.7404 12.4667 33.2951 12.616C34.0311 12.8187 34.6284 13.0213 35.0871 13.224C35.5564 13.4267 35.9511 13.7413 36.2711 14.168C36.6018 14.584 36.7671 15.144 36.7671 15.848C36.7671 16.4133 36.6124 16.9467 36.3031 17.448C36.0044 17.9493 35.5618 18.3547 34.9751 18.664C34.3991 18.9627 33.7164 19.112 32.9271 19.112ZM38.6314 14.584C38.6314 13.6773 38.8127 12.8827 39.1754 12.2C39.5487 11.5067 40.0607 10.9733 40.7114 10.6C41.362 10.2267 42.1087 10.04 42.9514 10.04C44.018 10.04 44.898 10.296 45.5914 10.808C46.2954 11.3093 46.77 12.0293 47.0154 12.968H45.0474C44.8874 12.5307 44.6314 12.1893 44.2794 11.944C43.9274 11.6987 43.4847 11.576 42.9514 11.576C42.2047 11.576 41.6074 11.8427 41.1594 12.376C40.722 12.8987 40.5034 13.6347 40.5034 14.584C40.5034 15.5333 40.722 16.2747 41.1594 16.808C41.6074 17.3413 42.2047 17.608 42.9514 17.608C44.0074 17.608 44.706 17.144 45.0474 16.216H47.0154C46.7594 17.112 46.2794 17.8267 45.5754 18.36C44.8714 18.8827 43.9967 19.144 42.9514 19.144C42.1087 19.144 41.362 18.9573 40.7114 18.584C40.0607 18.2 39.5487 17.6667 39.1754 16.984C38.8127 16.2907 38.6314 15.4907 38.6314 14.584ZM57.0891 10.184L51.6811 23.144H49.7931L51.5851 18.856L48.1131 10.184H50.1451L52.6251 16.904L55.2011 10.184H57.0891ZM60.6096 7.16V19H58.7856V7.16H60.6096ZM65.1484 7.16V19H63.3244V7.16H65.1484ZM67.2551 14.552C67.2551 13.6667 67.4364 12.8827 67.7991 12.2C68.1724 11.5173 68.6738 10.9893 69.3031 10.616C69.9431 10.232 70.6471 10.04 71.4151 10.04C72.1084 10.04 72.7111 10.1787 73.2231 10.456C73.7458 10.7227 74.1618 11.0587 74.4711 11.464V10.184H76.3111V19H74.4711V17.688C74.1618 18.104 73.7404 18.4507 73.2071 18.728C72.6738 19.0053 72.0658 19.144 71.3831 19.144C70.6258 19.144 69.9324 18.952 69.3031 18.568C68.6738 18.1733 68.1724 17.6293 67.7991 16.936C67.4364 16.232 67.2551 15.4373 67.2551 14.552ZM74.4711 14.584C74.4711 13.976 74.3431 13.448 74.0871 13C73.8418 12.552 73.5164 12.2107 73.1111 11.976C72.7058 11.7413 72.2684 11.624 71.7991 11.624C71.3298 11.624 70.8924 11.7413 70.4871 11.976C70.0818 12.2 69.7511 12.536 69.4951 12.984C69.2498 13.4213 69.1271 13.944 69.1271 14.552C69.1271 15.16 69.2498 15.6933 69.4951 16.152C69.7511 16.6107 70.0818 16.9627 70.4871 17.208C70.9031 17.4427 71.3404 17.56 71.7991 17.56C72.2684 17.56 72.7058 17.4427 73.1111 17.208C73.5164 16.9733 73.8418 16.632 74.0871 16.184C74.3431 15.7253 74.4711 15.192 74.4711 14.584ZM78.4189 14.552C78.4189 13.6667 78.6002 12.8827 78.9629 12.2C79.3362 11.5173 79.8375 10.9893 80.4669 10.616C81.1069 10.232 81.8162 10.04 82.5949 10.04C83.1709 10.04 83.7362 10.168 84.2909 10.424C84.8562 10.6693 85.3042 11 85.6349 11.416V7.16H87.4749V19H85.6349V17.672C85.3362 18.0987 84.9202 18.4507 84.3869 18.728C83.8642 19.0053 83.2615 19.144 82.5789 19.144C81.8109 19.144 81.1069 18.952 80.4669 18.568C79.8375 18.1733 79.3362 17.6293 78.9629 16.936C78.6002 16.232 78.4189 15.4373 78.4189 14.552ZM85.6349 14.584C85.6349 13.976 85.5069 13.448 85.2509 13C85.0055 12.552 84.6802 12.2107 84.2749 11.976C83.8695 11.7413 83.4322 11.624 82.9629 11.624C82.4935 11.624 82.0562 11.7413 81.6509 11.976C81.2455 12.2 80.9149 12.536 80.6589 12.984C80.4135 13.4213 80.2909 13.944 80.2909 14.552C80.2909 15.16 80.4135 15.6933 80.6589 16.152C80.9149 16.6107 81.2455 16.9627 81.6509 17.208C82.0669 17.4427 82.5042 17.56 82.9629 17.56C83.4322 17.56 83.8695 17.4427 84.2749 17.208C84.6802 16.9733 85.0055 16.632 85.2509 16.184C85.5069 15.7253 85.6349 15.192 85.6349 14.584ZM92.0146 11.496C92.3239 11.0693 92.7453 10.7227 93.2786 10.456C93.8226 10.1787 94.4253 10.04 95.0866 10.04C95.8653 10.04 96.5693 10.2267 97.1986 10.6C97.8279 10.9733 98.3239 11.5067 98.6866 12.2C99.0493 12.8827 99.2306 13.6667 99.2306 14.552C99.2306 15.4373 99.0493 16.232 98.6866 16.936C98.3239 17.6293 97.8226 18.1733 97.1826 18.568C96.5533 18.952 95.8546 19.144 95.0866 19.144C94.4039 19.144 93.7959 19.0107 93.2626 18.744C92.7399 18.4773 92.3239 18.136 92.0146 17.72V19H90.1906V7.16H92.0146V11.496ZM97.3746 14.552C97.3746 13.944 97.2466 13.4213 96.9906 12.984C96.7453 12.536 96.4146 12.2 95.9986 11.976C95.5933 11.7413 95.1559 11.624 94.6866 11.624C94.2279 11.624 93.7906 11.7413 93.3746 11.976C92.9693 12.2107 92.6386 12.552 92.3826 13C92.1373 13.448 92.0146 13.976 92.0146 14.584C92.0146 15.192 92.1373 15.7253 92.3826 16.184C92.6386 16.632 92.9693 16.9733 93.3746 17.208C93.7906 17.4427 94.2279 17.56 94.6866 17.56C95.1559 17.56 95.5933 17.4427 95.9986 17.208C96.4146 16.9627 96.7453 16.6107 96.9906 16.152C97.2466 15.6933 97.3746 15.16 97.3746 14.552Z" fill="#F4F4F5"/>
</svg>
