<svg width="109" height="24" viewBox="0 0 109 24" fill="none" xmlns="http://www.w3.org/2000/svg">
<g clip-path="url(#clip0_3116_17308)">
<path opacity="0.6" d="M8.92291 8H0.922852V24H16.9229V8H8.92291Z" fill="url(#paint0_linear_3116_17308)"/>
<path opacity="0.6" d="M8.92285 0V15.9999H24.9228V0H8.92285Z" fill="url(#paint1_linear_3116_17308)"/>
<path d="M0.922852 24H8.92282V16H0.922852V24ZM16.9229 7.99997H24.9229V0H16.9229V7.99997Z" fill="url(#paint2_linear_3116_17308)"/>
<path d="M8.92285 16H16.9228V8H8.92285V16Z" fill="url(#paint3_linear_3116_17308)"/>
</g>
<path d="M37.8052 18.112C37.0692 18.112 36.4079 17.984 35.8212 17.728C35.2452 17.4613 34.7919 17.0987 34.4612 16.64C34.1306 16.1707 33.9599 15.632 33.9492 15.024H35.5012C35.5546 15.5467 35.7679 15.9893 36.1412 16.352C36.5252 16.704 37.0799 16.88 37.8052 16.88C38.4986 16.88 39.0426 16.7093 39.4372 16.368C39.8426 16.016 40.0452 15.568 40.0452 15.024C40.0452 14.5973 39.9279 14.2507 39.6932 13.984C39.4586 13.7173 39.1652 13.5147 38.8132 13.376C38.4612 13.2373 37.9866 13.088 37.3892 12.928C36.6532 12.736 36.0612 12.544 35.6132 12.352C35.1759 12.16 34.7972 11.8613 34.4772 11.456C34.1679 11.04 34.0132 10.4853 34.0132 9.792C34.0132 9.184 34.1679 8.64533 34.4772 8.176C34.7866 7.70667 35.2186 7.344 35.7732 7.088C36.3386 6.832 36.9839 6.704 37.7092 6.704C38.7546 6.704 39.6079 6.96533 40.2692 7.488C40.9412 8.01067 41.3199 8.704 41.4052 9.568H39.8052C39.7519 9.14133 39.5279 8.768 39.1332 8.448C38.7386 8.11733 38.2159 7.952 37.5652 7.952C36.9572 7.952 36.4612 8.112 36.0772 8.432C35.6932 8.74133 35.5012 9.17867 35.5012 9.744C35.5012 10.1493 35.6132 10.48 35.8372 10.736C36.0719 10.992 36.3546 11.1893 36.6852 11.328C37.0266 11.456 37.5012 11.6053 38.1092 11.776C38.8452 11.9787 39.4372 12.1813 39.8852 12.384C40.3332 12.576 40.7172 12.88 41.0372 13.296C41.3572 13.7013 41.5172 14.256 41.5172 14.96C41.5172 15.504 41.3732 16.016 41.0852 16.496C40.7972 16.976 40.3706 17.3653 39.8052 17.664C39.2399 17.9627 38.5732 18.112 37.8052 18.112ZM51.9799 13.28C51.9799 13.5573 51.9639 13.8507 51.9319 14.16H44.9239C44.9772 15.024 45.2705 15.7013 45.8039 16.192C46.3479 16.672 47.0039 16.912 47.7719 16.912C48.4012 16.912 48.9239 16.768 49.3399 16.48C49.7665 16.1813 50.0652 15.7867 50.2359 15.296H51.8039C51.5692 16.1387 51.0999 16.8267 50.3959 17.36C49.6919 17.8827 48.8172 18.144 47.7719 18.144C46.9399 18.144 46.1932 17.9573 45.5319 17.584C44.8812 17.2107 44.3692 16.6827 43.9959 16C43.6225 15.3067 43.4359 14.5067 43.4359 13.6C43.4359 12.6933 43.6172 11.8987 43.9799 11.216C44.3425 10.5333 44.8492 10.0107 45.4999 9.648C46.1612 9.27467 46.9185 9.088 47.7719 9.088C48.6039 9.088 49.3399 9.26933 49.9799 9.632C50.6199 9.99467 51.1105 10.496 51.4519 11.136C51.8039 11.7653 51.9799 12.48 51.9799 13.28ZM50.4759 12.976C50.4759 12.4213 50.3532 11.9467 50.1079 11.552C49.8625 11.1467 49.5265 10.8427 49.0999 10.64C48.6839 10.4267 48.2199 10.32 47.7079 10.32C46.9719 10.32 46.3425 10.5547 45.8199 11.024C45.3079 11.4933 45.0145 12.144 44.9399 12.976H50.4759ZM58.4937 9.072C59.5604 9.072 60.4244 9.39733 61.0857 10.048C61.7471 10.688 62.0777 11.616 62.0777 12.832V18H60.6377V13.04C60.6377 12.1653 60.4191 11.4987 59.9817 11.04C59.5444 10.5707 58.9471 10.336 58.1897 10.336C57.4217 10.336 56.8084 10.576 56.3497 11.056C55.9017 11.536 55.6777 12.2347 55.6777 13.152V18H54.2217V9.232H55.6777V10.48C55.9657 10.032 56.3551 9.68533 56.8457 9.44C57.3471 9.19467 57.8964 9.072 58.4937 9.072ZM64.2321 13.584C64.2321 12.688 64.4134 11.904 64.7761 11.232C65.1388 10.5493 65.6348 10.0213 66.2641 9.648C66.9041 9.27467 67.6188 9.088 68.4081 9.088C69.0908 9.088 69.7254 9.248 70.3121 9.568C70.8988 9.87733 71.3468 10.288 71.6561 10.8V6.16H73.1281V18H71.6561V16.352C71.3681 16.8747 70.9414 17.3067 70.3761 17.648C69.8108 17.9787 69.1494 18.144 68.3921 18.144C67.6134 18.144 66.9041 17.952 66.2641 17.568C65.6348 17.184 65.1388 16.6453 64.7761 15.952C64.4134 15.2587 64.2321 14.4693 64.2321 13.584ZM71.6561 13.6C71.6561 12.9387 71.5228 12.3627 71.2561 11.872C70.9894 11.3813 70.6268 11.008 70.1681 10.752C69.7201 10.4853 69.2241 10.352 68.6801 10.352C68.1361 10.352 67.6401 10.48 67.1921 10.736C66.7441 10.992 66.3868 11.3653 66.1201 11.856C65.8534 12.3467 65.7201 12.9227 65.7201 13.584C65.7201 14.256 65.8534 14.8427 66.1201 15.344C66.3868 15.8347 66.7441 16.2133 67.1921 16.48C67.6401 16.736 68.1361 16.864 68.6801 16.864C69.2241 16.864 69.7201 16.736 70.1681 16.48C70.6268 16.2133 70.9894 15.8347 71.2561 15.344C71.5228 14.8427 71.6561 14.2613 71.6561 13.6ZM84.3566 10.08C84.0473 9.42933 83.5993 8.928 83.0126 8.576C82.4259 8.21333 81.7433 8.032 80.9646 8.032C80.1859 8.032 79.4819 8.21333 78.8526 8.576C78.2339 8.928 77.7433 9.44 77.3806 10.112C77.0286 10.7733 76.8526 11.5413 76.8526 12.416C76.8526 13.2907 77.0286 14.0587 77.3806 14.72C77.7433 15.3813 78.2339 15.8933 78.8526 16.256C79.4819 16.608 80.1859 16.784 80.9646 16.784C82.0526 16.784 82.9486 16.4587 83.6526 15.808C84.3566 15.1573 84.7673 14.2773 84.8846 13.168H80.4366V11.984H86.4366V13.104C86.3513 14.0213 86.0633 14.864 85.5726 15.632C85.0819 16.3893 84.4366 16.992 83.6366 17.44C82.8366 17.8773 81.9459 18.096 80.9646 18.096C79.9299 18.096 78.9859 17.856 78.1326 17.376C77.2793 16.8853 76.6019 16.208 76.1006 15.344C75.6099 14.48 75.3646 13.504 75.3646 12.416C75.3646 11.328 75.6099 10.352 76.1006 9.488C76.6019 8.61333 77.2793 7.936 78.1326 7.456C78.9859 6.96533 79.9299 6.72 80.9646 6.72C82.1486 6.72 83.1939 7.01333 84.1006 7.6C85.0179 8.18667 85.6846 9.01333 86.1006 10.08H84.3566ZM90.1377 10.656C90.3937 10.1547 90.7564 9.76533 91.2257 9.488C91.7057 9.21067 92.2871 9.072 92.9697 9.072V10.576H92.5857C90.9537 10.576 90.1377 11.4613 90.1377 13.232V18H88.6817V9.232H90.1377V10.656ZM95.7225 7.808C95.4451 7.808 95.2105 7.712 95.0185 7.52C94.8265 7.328 94.7305 7.09333 94.7305 6.816C94.7305 6.53867 94.8265 6.304 95.0185 6.112C95.2105 5.92 95.4451 5.824 95.7225 5.824C95.9891 5.824 96.2131 5.92 96.3945 6.112C96.5865 6.304 96.6825 6.53867 96.6825 6.816C96.6825 7.09333 96.5865 7.328 96.3945 7.52C96.2131 7.712 95.9891 7.808 95.7225 7.808ZM96.4265 9.232V18H94.9705V9.232H96.4265ZM98.684 13.584C98.684 12.688 98.8653 11.904 99.228 11.232C99.5906 10.5493 100.087 10.0213 100.716 9.648C101.356 9.27467 102.071 9.088 102.86 9.088C103.543 9.088 104.177 9.248 104.764 9.568C105.351 9.87733 105.799 10.288 106.108 10.8V6.16H107.58V18H106.108V16.352C105.82 16.8747 105.393 17.3067 104.828 17.648C104.263 17.9787 103.601 18.144 102.844 18.144C102.065 18.144 101.356 17.952 100.716 17.568C100.087 17.184 99.5906 16.6453 99.228 15.952C98.8653 15.2587 98.684 14.4693 98.684 13.584ZM106.108 13.6C106.108 12.9387 105.975 12.3627 105.708 11.872C105.441 11.3813 105.079 11.008 104.62 10.752C104.172 10.4853 103.676 10.352 103.132 10.352C102.588 10.352 102.092 10.48 101.644 10.736C101.196 10.992 100.839 11.3653 100.572 11.856C100.305 12.3467 100.172 12.9227 100.172 13.584C100.172 14.256 100.305 14.8427 100.572 15.344C100.839 15.8347 101.196 16.2133 101.644 16.48C102.092 16.736 102.588 16.864 103.132 16.864C103.676 16.864 104.172 16.736 104.62 16.48C105.079 16.2133 105.441 15.8347 105.708 15.344C105.975 14.8427 106.108 14.2613 106.108 13.6Z" fill="#F4F4F5"/>
<defs>
<linearGradient id="paint0_linear_3116_17308" x1="2.68286" y1="15.9999" x2="15.1629" y2="15.9999" gradientUnits="userSpaceOnUse">
<stop stop-color="white" stop-opacity="0.5"/>
<stop offset="0.5" stop-color="white" stop-opacity="0.82"/>
<stop offset="1" stop-color="white" stop-opacity="0.64"/>
</linearGradient>
<linearGradient id="paint1_linear_3116_17308" x1="10.6828" y1="7.99982" x2="23.1628" y2="7.99982" gradientUnits="userSpaceOnUse">
<stop stop-color="white" stop-opacity="0.5"/>
<stop offset="0.5" stop-color="white" stop-opacity="0.82"/>
<stop offset="1" stop-color="white" stop-opacity="0.64"/>
</linearGradient>
<linearGradient id="paint2_linear_3116_17308" x1="3.56286" y1="11.9998" x2="22.2829" y2="11.9998" gradientUnits="userSpaceOnUse">
<stop stop-color="white" stop-opacity="0.5"/>
<stop offset="0.5" stop-color="white" stop-opacity="0.82"/>
<stop offset="1" stop-color="white" stop-opacity="0.64"/>
</linearGradient>
<linearGradient id="paint3_linear_3116_17308" x1="9.80285" y1="11.9999" x2="16.0428" y2="11.9999" gradientUnits="userSpaceOnUse">
<stop stop-color="white" stop-opacity="0.5"/>
<stop offset="0.5" stop-color="white" stop-opacity="0.82"/>
<stop offset="1" stop-color="white" stop-opacity="0.64"/>
</linearGradient>
<clipPath id="clip0_3116_17308">
<rect width="24" height="24" fill="white" transform="translate(0.922852)"/>
</clipPath>
</defs>
</svg>
