<svg width="85" height="24" viewBox="0 0 85 24" fill="none" xmlns="http://www.w3.org/2000/svg">
<g clip-path="url(#clip0_3195_38018)">
<path opacity="0.45" d="M11.9523 0L8.094 6.85756H0.383301L4.23865 0H11.9523Z" fill="url(#paint0_linear_3195_38018)"/>
<path opacity="0.6" d="M8.09412 6.85756H15.8078L11.9524 0H4.23877L8.09412 6.85756Z" fill="url(#paint1_linear_3195_38018)"/>
<path opacity="0.8" d="M4.23865 13.7122L8.094 6.85756L4.23865 0L0.383301 6.85756L4.23865 13.7122Z" fill="url(#paint2_linear_3195_38018)"/>
<path opacity="0.45" d="M4.27686 24.0001L8.13516 17.1426H15.8488L11.9905 24.0001H4.27686Z" fill="url(#paint3_linear_3195_38018)"/>
<path opacity="0.6" d="M8.13553 17.1426H0.421875L4.27723 24.0001H11.9909L8.13553 17.1426Z" fill="url(#paint4_linear_3195_38018)"/>
<path opacity="0.8" d="M11.9906 10.2871L8.13525 17.1417L11.9906 23.9993L15.8489 17.1417L11.9906 10.2871Z" fill="url(#paint5_linear_3195_38018)"/>
</g>
<path d="M28.7806 18.112C28.034 18.112 27.362 17.984 26.7646 17.728C26.1673 17.4613 25.698 17.088 25.3566 16.608C25.0153 16.128 24.8446 15.568 24.8446 14.928H26.7966C26.8393 15.408 27.026 15.8027 27.3566 16.112C27.698 16.4213 28.1726 16.576 28.7806 16.576C29.41 16.576 29.9006 16.4267 30.2526 16.128C30.6046 15.8187 30.7806 15.424 30.7806 14.944C30.7806 14.5707 30.6686 14.2667 30.4446 14.032C30.2313 13.7973 29.9593 13.616 29.6286 13.488C29.3086 13.36 28.8606 13.2213 28.2846 13.072C27.5593 12.88 26.9673 12.688 26.5086 12.496C26.0606 12.2933 25.6766 11.984 25.3566 11.568C25.0366 11.152 24.8766 10.5973 24.8766 9.904C24.8766 9.264 25.0366 8.704 25.3566 8.224C25.6766 7.744 26.1246 7.376 26.7006 7.12C27.2766 6.864 27.9433 6.736 28.7006 6.736C29.778 6.736 30.658 7.008 31.3406 7.552C32.034 8.08533 32.418 8.82133 32.4926 9.76H30.4766C30.4446 9.35467 30.2526 9.008 29.9006 8.72C29.5486 8.432 29.0846 8.288 28.5086 8.288C27.986 8.288 27.5593 8.42133 27.2286 8.688C26.898 8.95467 26.7326 9.33867 26.7326 9.84C26.7326 10.1813 26.834 10.464 27.0366 10.688C27.25 10.9013 27.5166 11.072 27.8366 11.2C28.1566 11.328 28.594 11.4667 29.1486 11.616C29.8846 11.8187 30.482 12.0213 30.9406 12.224C31.41 12.4267 31.8046 12.7413 32.1246 13.168C32.4553 13.584 32.6206 14.144 32.6206 14.848C32.6206 15.4133 32.466 15.9467 32.1566 16.448C31.858 16.9493 31.4153 17.3547 30.8286 17.664C30.2526 17.9627 29.57 18.112 28.7806 18.112ZM38.9169 18.144C38.0849 18.144 37.3329 17.9573 36.6609 17.584C35.9889 17.2 35.4609 16.6667 35.0769 15.984C34.6929 15.2907 34.5009 14.4907 34.5009 13.584C34.5009 12.688 34.6982 11.8933 35.0929 11.2C35.4875 10.5067 36.0262 9.97333 36.7089 9.6C37.3915 9.22667 38.1542 9.04 38.9969 9.04C39.8395 9.04 40.6022 9.22667 41.2849 9.6C41.9675 9.97333 42.5062 10.5067 42.9009 11.2C43.2955 11.8933 43.4929 12.688 43.4929 13.584C43.4929 14.48 43.2902 15.2747 42.8849 15.968C42.4795 16.6613 41.9249 17.2 41.2209 17.584C40.5275 17.9573 39.7595 18.144 38.9169 18.144ZM38.9169 16.56C39.3862 16.56 39.8235 16.448 40.2289 16.224C40.6449 16 40.9809 15.664 41.2369 15.216C41.4929 14.768 41.6209 14.224 41.6209 13.584C41.6209 12.944 41.4982 12.4053 41.2529 11.968C41.0075 11.52 40.6822 11.184 40.2769 10.96C39.8715 10.736 39.4342 10.624 38.9649 10.624C38.4955 10.624 38.0582 10.736 37.6529 10.96C37.2582 11.184 36.9435 11.52 36.7089 11.968C36.4742 12.4053 36.3569 12.944 36.3569 13.584C36.3569 14.5333 36.5969 15.2693 37.0769 15.792C37.5675 16.304 38.1809 16.56 38.9169 16.56ZM47.44 6.16V18H45.616V6.16H47.44ZM51.0827 8.016C50.7521 8.016 50.4747 7.904 50.2507 7.68C50.0267 7.456 49.9147 7.17867 49.9147 6.848C49.9147 6.51733 50.0267 6.24 50.2507 6.016C50.4747 5.792 50.7521 5.68 51.0827 5.68C51.4027 5.68 51.6747 5.792 51.8987 6.016C52.1227 6.24 52.2347 6.51733 52.2347 6.848C52.2347 7.17867 52.1227 7.456 51.8987 7.68C51.6747 7.904 51.4027 8.016 51.0827 8.016ZM51.9787 9.184V18H50.1547V9.184H51.9787ZM54.0855 13.552C54.0855 12.6667 54.2668 11.8827 54.6295 11.2C55.0028 10.5173 55.5042 9.98933 56.1335 9.616C56.7735 9.232 57.4828 9.04 58.2615 9.04C58.8375 9.04 59.4028 9.168 59.9575 9.424C60.5228 9.66933 60.9708 10 61.3015 10.416V6.16H63.1415V18H61.3015V16.672C61.0028 17.0987 60.5868 17.4507 60.0535 17.728C59.5308 18.0053 58.9282 18.144 58.2455 18.144C57.4775 18.144 56.7735 17.952 56.1335 17.568C55.5042 17.1733 55.0028 16.6293 54.6295 15.936C54.2668 15.232 54.0855 14.4373 54.0855 13.552ZM61.3015 13.584C61.3015 12.976 61.1735 12.448 60.9175 12C60.6722 11.552 60.3468 11.2107 59.9415 10.976C59.5362 10.7413 59.0988 10.624 58.6295 10.624C58.1602 10.624 57.7228 10.7413 57.3175 10.976C56.9122 11.2 56.5815 11.536 56.3255 11.984C56.0802 12.4213 55.9575 12.944 55.9575 13.552C55.9575 14.16 56.0802 14.6933 56.3255 15.152C56.5815 15.6107 56.9122 15.9627 57.3175 16.208C57.7335 16.4427 58.1708 16.56 58.6295 16.56C59.0988 16.56 59.5362 16.4427 59.9415 16.208C60.3468 15.9733 60.6722 15.632 60.9175 15.184C61.1735 14.7253 61.3015 14.192 61.3015 13.584ZM66.7852 8.016C66.4546 8.016 66.1772 7.904 65.9532 7.68C65.7292 7.456 65.6172 7.17867 65.6172 6.848C65.6172 6.51733 65.7292 6.24 65.9532 6.016C66.1772 5.792 66.4546 5.68 66.7852 5.68C67.1052 5.68 67.3772 5.792 67.6012 6.016C67.8252 6.24 67.9372 6.51733 67.9372 6.848C67.9372 7.17867 67.8252 7.456 67.6012 7.68C67.3772 7.904 67.1052 8.016 66.7852 8.016ZM67.6812 9.184V18H65.8572V9.184H67.6812ZM72.524 10.672V15.552C72.524 15.8827 72.5987 16.1227 72.748 16.272C72.908 16.4107 73.1747 16.48 73.548 16.48H74.668V18H73.228C72.4067 18 71.7773 17.808 71.34 17.424C70.9027 17.04 70.684 16.416 70.684 15.552V10.672H69.644V9.184H70.684V6.992H72.524V9.184H74.668V10.672H72.524ZM84.6051 9.184L79.1971 22.144H77.3091L79.1011 17.856L75.6291 9.184H77.6611L80.1411 15.904L82.7171 9.184H84.6051Z" fill="#F4F4F5"/>
<defs>
<linearGradient id="paint0_linear_3195_38018" x1="1.65589" y1="3.42872" x2="10.6797" y2="3.42872" gradientUnits="userSpaceOnUse">
<stop stop-color="white" stop-opacity="0.5"/>
<stop offset="0.5" stop-color="white" stop-opacity="0.82"/>
<stop offset="1" stop-color="white" stop-opacity="0.64"/>
</linearGradient>
<linearGradient id="paint1_linear_3195_38018" x1="5.51136" y1="3.42872" x2="14.5352" y2="3.42872" gradientUnits="userSpaceOnUse">
<stop stop-color="white" stop-opacity="0.5"/>
<stop offset="0.5" stop-color="white" stop-opacity="0.82"/>
<stop offset="1" stop-color="white" stop-opacity="0.64"/>
</linearGradient>
<linearGradient id="paint2_linear_3195_38018" x1="1.23148" y1="6.85596" x2="7.24584" y2="6.85596" gradientUnits="userSpaceOnUse">
<stop stop-color="white" stop-opacity="0.5"/>
<stop offset="0.5" stop-color="white" stop-opacity="0.82"/>
<stop offset="1" stop-color="white" stop-opacity="0.64"/>
</linearGradient>
<linearGradient id="paint3_linear_3195_38018" x1="5.54977" y1="20.5713" x2="14.5759" y2="20.5713" gradientUnits="userSpaceOnUse">
<stop stop-color="white" stop-opacity="0.5"/>
<stop offset="0.5" stop-color="white" stop-opacity="0.82"/>
<stop offset="1" stop-color="white" stop-opacity="0.64"/>
</linearGradient>
<linearGradient id="paint4_linear_3195_38018" x1="1.69447" y1="20.5713" x2="10.7183" y2="20.5713" gradientUnits="userSpaceOnUse">
<stop stop-color="white" stop-opacity="0.5"/>
<stop offset="0.5" stop-color="white" stop-opacity="0.82"/>
<stop offset="1" stop-color="white" stop-opacity="0.64"/>
</linearGradient>
<linearGradient id="paint5_linear_3195_38018" x1="8.98376" y1="17.1431" x2="15.0004" y2="17.1431" gradientUnits="userSpaceOnUse">
<stop stop-color="white" stop-opacity="0.5"/>
<stop offset="0.5" stop-color="white" stop-opacity="0.82"/>
<stop offset="1" stop-color="white" stop-opacity="0.64"/>
</linearGradient>
<clipPath id="clip0_3195_38018">
<rect width="15.4657" height="24" fill="white" transform="translate(0.383301)"/>
</clipPath>
</defs>
</svg>
