<svg width="76" height="24" viewBox="0 0 76 24" fill="none" xmlns="http://www.w3.org/2000/svg">
<g clip-path="url(#clip0_3116_16577)">
<path d="M5.74686 22.5153L0.445134 13.3202C-0.0455135 12.4684 -0.0455135 11.4189 0.445134 10.5671L5.74686 1.37881C6.23977 0.52472 7.15065 0 8.13195 0H18.7286C19.7121 0 20.6253 0.52472 21.1137 1.37881L26.4177 10.5716C26.9083 11.4235 26.9083 12.4729 26.4177 13.3247L21.1159 22.5198C20.623 23.3739 19.7121 23.8986 18.7308 23.8986H8.13876C7.15065 23.8941 6.24205 23.3671 5.74686 22.5153Z" fill="url(#paint0_linear_3116_16577)"/>
<path d="M6.19876 21.8912L1.21278 13.2435C0.749387 12.4417 0.749387 11.4536 1.21278 10.654L6.19876 2.00407C6.66442 1.19995 7.52078 0.707031 8.44529 0.707031H18.4172C19.3418 0.707031 20.2004 1.19995 20.6638 2.00407L25.6543 10.6495C26.1177 11.4513 26.1177 12.4394 25.6543 13.239L20.6661 21.8935C20.2004 22.6976 19.344 23.1905 18.4195 23.1905H8.44983C7.52078 23.1905 6.66442 22.6953 6.19876 21.8912Z" fill="white"/>
<path d="M7.54504 9.93122C7.31842 9.70836 7.17855 9.39759 7.17969 9.052C7.17969 7.25978 8.63119 5.80828 10.4234 5.81055H16.5838C17.8626 5.81055 18.9007 6.84863 18.9007 8.1275V10.0515C18.9007 10.1787 18.7985 10.2832 18.669 10.2832H14.209L18.4464 14.5218C18.4532 14.5286 18.4598 14.5354 18.4664 14.5422C18.7309 14.7472 18.9007 15.068 18.9007 15.4282C18.9007 17.2794 17.397 18.7832 15.5457 18.7832H9.41487C8.18143 18.7832 7.17742 17.7814 7.17969 16.5435V14.5309C7.17969 14.4105 7.2751 14.3083 7.4023 14.3083H11.9135L7.634 10.0288C7.60238 9.99742 7.57273 9.96486 7.54504 9.93122Z" fill="black"/>
<path opacity="0.6" d="M15.4123 17.8113L10.917 14.3086H11.9119L15.4123 17.8113Z" fill="white"/>
<path opacity="0.6" d="M10.6689 6.74219L14.2102 10.2835H15.4119L10.6689 6.74219Z" fill="white"/>
</g>
<path d="M39.9437 18.112C39.1971 18.112 38.5251 17.984 37.9277 17.728C37.3304 17.4613 36.8611 17.088 36.5197 16.608C36.1784 16.128 36.0077 15.568 36.0077 14.928H37.9597C38.0024 15.408 38.1891 15.8027 38.5197 16.112C38.8611 16.4213 39.3357 16.576 39.9437 16.576C40.5731 16.576 41.0637 16.4267 41.4157 16.128C41.7677 15.8187 41.9437 15.424 41.9437 14.944C41.9437 14.5707 41.8317 14.2667 41.6077 14.032C41.3944 13.7973 41.1224 13.616 40.7917 13.488C40.4717 13.36 40.0237 13.2213 39.4477 13.072C38.7224 12.88 38.1304 12.688 37.6717 12.496C37.2237 12.2933 36.8397 11.984 36.5197 11.568C36.1997 11.152 36.0397 10.5973 36.0397 9.904C36.0397 9.264 36.1997 8.704 36.5197 8.224C36.8397 7.744 37.2877 7.376 37.8637 7.12C38.4397 6.864 39.1064 6.736 39.8637 6.736C40.9411 6.736 41.8211 7.008 42.5037 7.552C43.1971 8.08533 43.5811 8.82133 43.6557 9.76H41.6397C41.6077 9.35467 41.4157 9.008 41.0637 8.72C40.7117 8.432 40.2477 8.288 39.6717 8.288C39.1491 8.288 38.7224 8.42133 38.3917 8.688C38.0611 8.95467 37.8957 9.33867 37.8957 9.84C37.8957 10.1813 37.9971 10.464 38.1997 10.688C38.4131 10.9013 38.6797 11.072 38.9997 11.2C39.3197 11.328 39.7571 11.4667 40.3117 11.616C41.0477 11.8187 41.6451 12.0213 42.1037 12.224C42.5731 12.4267 42.9677 12.7413 43.2877 13.168C43.6184 13.584 43.7837 14.144 43.7837 14.848C43.7837 15.4133 43.6291 15.9467 43.3197 16.448C43.0211 16.9493 42.5784 17.3547 41.9917 17.664C41.4157 17.9627 40.7331 18.112 39.9437 18.112ZM50.08 18.144C49.248 18.144 48.496 17.9573 47.824 17.584C47.152 17.2 46.624 16.6667 46.24 15.984C45.856 15.2907 45.664 14.4907 45.664 13.584C45.664 12.688 45.8613 11.8933 46.256 11.2C46.6506 10.5067 47.1893 9.97333 47.872 9.6C48.5546 9.22667 49.3173 9.04 50.16 9.04C51.0026 9.04 51.7653 9.22667 52.448 9.6C53.1306 9.97333 53.6693 10.5067 54.064 11.2C54.4586 11.8933 54.656 12.688 54.656 13.584C54.656 14.48 54.4533 15.2747 54.048 15.968C53.6426 16.6613 53.088 17.2 52.384 17.584C51.6906 17.9573 50.9226 18.144 50.08 18.144ZM50.08 16.56C50.5493 16.56 50.9866 16.448 51.392 16.224C51.808 16 52.144 15.664 52.4 15.216C52.656 14.768 52.784 14.224 52.784 13.584C52.784 12.944 52.6613 12.4053 52.416 11.968C52.1706 11.52 51.8453 11.184 51.44 10.96C51.0346 10.736 50.5973 10.624 50.128 10.624C49.6586 10.624 49.2213 10.736 48.816 10.96C48.4213 11.184 48.1066 11.52 47.872 11.968C47.6373 12.4053 47.52 12.944 47.52 13.584C47.52 14.5333 47.76 15.2693 48.24 15.792C48.7306 16.304 49.344 16.56 50.08 16.56ZM58.6031 6.16V18H56.7791V6.16H58.6031ZM62.2459 8.016C61.9152 8.016 61.6379 7.904 61.4139 7.68C61.1899 7.456 61.0779 7.17867 61.0779 6.848C61.0779 6.51733 61.1899 6.24 61.4139 6.016C61.6379 5.792 61.9152 5.68 62.2459 5.68C62.5659 5.68 62.8379 5.792 63.0619 6.016C63.2859 6.24 63.3979 6.51733 63.3979 6.848C63.3979 7.17867 63.2859 7.456 63.0619 7.68C62.8379 7.904 62.5659 8.016 62.2459 8.016ZM63.1419 9.184V18H61.3179V9.184H63.1419ZM65.2486 13.552C65.2486 12.6667 65.4299 11.8827 65.7926 11.2C66.1659 10.5173 66.6673 9.98933 67.2966 9.616C67.9366 9.232 68.6459 9.04 69.4246 9.04C70.0006 9.04 70.5659 9.168 71.1206 9.424C71.6859 9.66933 72.1339 10 72.4646 10.416V6.16H74.3046V18H72.4646V16.672C72.1659 17.0987 71.7499 17.4507 71.2166 17.728C70.6939 18.0053 70.0913 18.144 69.4086 18.144C68.6406 18.144 67.9366 17.952 67.2966 17.568C66.6673 17.1733 66.1659 16.6293 65.7926 15.936C65.4299 15.232 65.2486 14.4373 65.2486 13.552ZM72.4646 13.584C72.4646 12.976 72.3366 12.448 72.0806 12C71.8353 11.552 71.5099 11.2107 71.1046 10.976C70.6993 10.7413 70.2619 10.624 69.7926 10.624C69.3233 10.624 68.8859 10.7413 68.4806 10.976C68.0753 11.2 67.7446 11.536 67.4886 11.984C67.2433 12.4213 67.1206 12.944 67.1206 13.552C67.1206 14.16 67.2433 14.6933 67.4886 15.152C67.7446 15.6107 68.0753 15.9627 68.4806 16.208C68.8966 16.4427 69.3339 16.56 69.7926 16.56C70.2619 16.56 70.6993 16.4427 71.1046 16.208C71.5099 15.9733 71.8353 15.632 72.0806 15.184C72.3366 14.7253 72.4646 14.192 72.4646 13.584Z" fill="#F4F4F5"/>
<defs>
<linearGradient id="paint0_linear_3116_16577" x1="3.01509" y1="11.9491" x2="23.8477" y2="11.9491" gradientUnits="userSpaceOnUse">
<stop stop-color="white" stop-opacity="0.5"/>
<stop offset="0.5" stop-color="white" stop-opacity="0.82"/>
<stop offset="1" stop-color="white" stop-opacity="0.64"/>
</linearGradient>
<clipPath id="clip0_3116_16577">
<rect width="26.713" height="24" fill="white" transform="translate(0.0771484)"/>
</clipPath>
</defs>
</svg>
