<svg width="79" height="24" viewBox="0 0 79 24" fill="none" xmlns="http://www.w3.org/2000/svg">
<path d="M23.9983 6.64752C23.9969 6.40615 23.9942 6.1649 23.9876 5.92325C23.9735 5.39759 23.9424 4.86717 23.849 4.34713C23.7542 3.81901 23.5992 3.32794 23.355 2.84819C23.1152 2.37705 22.8018 1.94591 22.4279 1.57204C22.0541 1.19816 21.623 0.884782 21.1516 0.644907C20.6723 0.40095 20.1812 0.246017 19.6535 0.151215C19.1332 0.0575037 18.6028 0.0266303 18.0767 0.0124059C17.8352 0.00585948 17.5939 0.00311159 17.3524 0.00161641C17.0659 0 16.7791 0 16.4926 0H10.1394H7.50746C7.22067 0 6.93421 0 6.6477 0.00165682C6.40616 0.003152 6.16459 0.00589989 5.92342 0.0124463C5.79193 0.0160024 5.66015 0.0206092 5.52829 0.0269536C5.13276 0.0460272 4.73662 0.0809821 4.34658 0.151255C3.95084 0.222377 3.57559 0.327282 3.21053 0.478214C3.08885 0.528485 2.96827 0.583928 2.84841 0.644907C2.4949 0.824813 2.16394 1.04606 1.86293 1.30315C1.76259 1.38886 1.66556 1.47853 1.57213 1.572C1.19818 1.94587 0.884756 2.37701 0.645003 2.84815C0.400763 3.3279 0.245992 3.81897 0.151109 4.34709C0.0577616 4.86713 0.0267265 5.39755 0.012583 5.92321C0.0059557 6.16486 0.0031674 6.40611 0.0015914 6.64748C-0.00022706 6.93415 1.54008e-05 7.22086 1.54008e-05 7.50745V11.4199V16.4924C1.54008e-05 16.7793 -0.000267471 17.0657 0.0015914 17.3526C0.0031674 17.594 0.0059557 17.8352 0.012583 18.0765C0.0267265 18.6024 0.0577212 19.1329 0.151109 19.6527C0.245992 20.1807 0.400763 20.6722 0.645003 21.1518C0.884756 21.6231 1.19818 22.0541 1.57213 22.4278C1.94581 22.8019 2.37706 23.1152 2.84845 23.3552C3.32784 23.5992 3.81894 23.754 4.3467 23.8488C4.8667 23.9424 5.39753 23.9735 5.92346 23.9875C6.16463 23.994 6.4062 23.9968 6.64774 23.9982C6.93425 24.0003 7.22071 24 7.5075 24H16.4926C16.7791 24 17.0659 24.0003 17.3524 23.9982C17.5939 23.9968 17.8351 23.994 18.0767 23.9875C18.6027 23.9735 19.1332 23.9423 19.6535 23.8488C20.1811 23.754 20.6723 23.5992 21.1516 23.3552C21.623 23.1152 22.0541 22.8019 22.4279 22.4278C22.8018 22.0541 23.1152 21.6231 23.3549 21.1518C23.5992 20.6722 23.7541 20.1807 23.8489 19.6527C23.9424 19.1329 23.9735 18.6024 23.9875 18.0765C23.9941 17.8352 23.9968 17.594 23.9983 17.3526C24.0001 17.0657 24 16.7793 24 16.4924V7.50745C24 7.22086 24.0001 6.93415 23.9983 6.64752Z" fill="white"/>
<path d="M19.0174 14.8141C19.0168 14.8133 19.0163 14.8128 19.0157 14.8121C19.0423 14.7218 19.0697 14.632 19.0929 14.5394C20.089 10.5707 17.6579 5.87868 13.5439 3.4082C15.3467 5.85217 16.1439 8.81238 15.4357 11.4011C15.3725 11.632 15.2966 11.8537 15.2126 12.069C15.1215 12.0092 15.0068 11.9413 14.8527 11.8563C14.8527 11.8563 10.7604 9.32955 6.32497 4.86038C6.20859 4.74307 8.6901 8.40719 11.5063 11.3826C10.1795 10.6379 6.4818 7.94752 4.14092 5.80501C4.42852 6.28464 4.77059 6.74649 5.14661 7.19112C7.10145 9.67025 9.65081 12.7291 12.7051 15.0779C10.5591 16.3912 7.52685 16.4933 4.50776 15.0793C3.76102 14.7294 3.05902 14.3071 2.40918 13.8274C3.68715 15.8715 5.65541 17.6352 8.05097 18.6648C10.9078 19.8925 13.7486 19.8093 15.8645 18.6849L15.8629 18.6873C15.8725 18.6812 15.8848 18.6746 15.8948 18.6684C15.9817 18.6217 16.068 18.5741 16.1523 18.5239C17.1689 17.9962 19.1769 17.4609 20.2546 19.5579C20.5186 20.0711 21.0795 17.3513 19.0174 14.8141Z" fill="black"/>
<path d="M40.5521 18.112C39.8055 18.112 39.1335 17.984 38.5361 17.728C37.9388 17.4613 37.4695 17.088 37.1281 16.608C36.7868 16.128 36.6161 15.568 36.6161 14.928H38.5681C38.6108 15.408 38.7975 15.8027 39.1281 16.112C39.4695 16.4213 39.9441 16.576 40.5521 16.576C41.1815 16.576 41.6721 16.4267 42.0241 16.128C42.3761 15.8187 42.5521 15.424 42.5521 14.944C42.5521 14.5707 42.4401 14.2667 42.2161 14.032C42.0028 13.7973 41.7308 13.616 41.4001 13.488C41.0801 13.36 40.6321 13.2213 40.0561 13.072C39.3308 12.88 38.7388 12.688 38.2801 12.496C37.8321 12.2933 37.4481 11.984 37.1281 11.568C36.8081 11.152 36.6481 10.5973 36.6481 9.904C36.6481 9.264 36.8081 8.704 37.1281 8.224C37.4481 7.744 37.8961 7.376 38.4721 7.12C39.0481 6.864 39.7148 6.736 40.4721 6.736C41.5495 6.736 42.4295 7.008 43.1121 7.552C43.8055 8.08533 44.1895 8.82133 44.2641 9.76H42.2481C42.2161 9.35467 42.0241 9.008 41.6721 8.72C41.3201 8.432 40.8561 8.288 40.2801 8.288C39.7575 8.288 39.3308 8.42133 39.0001 8.688C38.6695 8.95467 38.5041 9.33867 38.5041 9.84C38.5041 10.1813 38.6055 10.464 38.8081 10.688C39.0215 10.9013 39.2881 11.072 39.6081 11.2C39.9281 11.328 40.3655 11.4667 40.9201 11.616C41.6561 11.8187 42.2535 12.0213 42.7121 12.224C43.1815 12.4267 43.5761 12.7413 43.8961 13.168C44.2268 13.584 44.3921 14.144 44.3921 14.848C44.3921 15.4133 44.2375 15.9467 43.9281 16.448C43.6295 16.9493 43.1868 17.3547 42.6001 17.664C42.0241 17.9627 41.3415 18.112 40.5521 18.112ZM58.7044 9.184L55.9684 18H54.0484L52.2724 11.488L50.4964 18H48.5764L45.8244 9.184H47.6804L49.5204 16.272L51.3924 9.184H53.2964L55.0884 16.24L56.9124 9.184H58.7044ZM61.3155 8.016C60.9848 8.016 60.7075 7.904 60.4835 7.68C60.2595 7.456 60.1475 7.17867 60.1475 6.848C60.1475 6.51733 60.2595 6.24 60.4835 6.016C60.7075 5.792 60.9848 5.68 61.3155 5.68C61.6355 5.68 61.9075 5.792 62.1315 6.016C62.3555 6.24 62.4675 6.51733 62.4675 6.848C62.4675 7.17867 62.3555 7.456 62.1315 7.68C61.9075 7.904 61.6355 8.016 61.3155 8.016ZM62.2115 9.184V18H60.3875V9.184H62.2115ZM68.6223 10.672H66.9902V18H65.1502V10.672H64.1102V9.184H65.1502V8.56C65.1502 7.54667 65.4169 6.81067 65.9502 6.352C66.4942 5.88267 67.3422 5.648 68.4942 5.648V7.168C67.9396 7.168 67.5502 7.27467 67.3262 7.488C67.1022 7.69067 66.9902 8.048 66.9902 8.56V9.184H68.6223V10.672ZM72.6867 10.672V15.552C72.6867 15.8827 72.7614 16.1227 72.9107 16.272C73.0707 16.4107 73.3374 16.48 73.7107 16.48H74.8307V18H73.3907C72.5694 18 71.9401 17.808 71.5027 17.424C71.0654 17.04 70.8467 16.416 70.8467 15.552V10.672H69.8067V9.184H70.8467V6.992H72.6867V9.184H74.8307V10.672H72.6867Z" fill="#F4F4F5"/>
</svg>
