<?xml version="1.0" encoding="UTF-8"?>
<svg xmlns="http://www.w3.org/2000/svg" xmlns:xlink="http://www.w3.org/1999/xlink" width="120px" height="60px" viewBox="0 0 120 60" version="1.1">
<g id="surface1">
<path style=" stroke:none;fill-rule:nonzero;fill:rgb(96.470588%,74.117647%,22.745098%);fill-opacity:1;" d="M 17.832031 31.152344 L 21.890625 28.796875 L 25.890625 31.152344 L 21.890625 33.460938 L 17.832031 31.203125 Z M 5.648438 24.183594 L 21.898438 14.960938 L 33.980469 21.828125 L 29.980469 28.796875 L 21.910156 24.183594 L 9.730469 31.101562 Z M 5.648438 24.183594 "/>
<path style=" stroke:none;fill-rule:nonzero;fill:rgb(92.156863%,54.901961%,13.72549%);fill-opacity:1;" d="M 17.832031 40.375 L 17.832031 35.765625 L 21.832031 33.457031 L 25.890625 31.152344 L 25.890625 35.765625 L 21.890625 38.070312 L 21.890625 42.683594 L 17.832031 45.039062 Z M 17.832031 31.152344 L 13.773438 28.847656 L 9.710938 31.101562 L 9.710938 26.488281 L 21.890625 19.570312 L 21.890625 28.796875 Z M 29.910156 26.492188 L 29.910156 24.183594 L 33.972656 21.828125 L 34.023438 26.441406 L 29.960938 28.796875 Z M 29.910156 26.492188 "/>
<path style=" stroke:none;fill-rule:nonzero;fill:rgb(89.019608%,35.294118%,16.862745%);fill-opacity:1;" d="M 13.769531 42.582031 L 13.769531 28.847656 L 17.769531 26.589844 L 17.820312 31.152344 L 21.878906 33.410156 L 21.878906 38.070312 L 17.820312 35.914062 L 17.820312 45.039062 Z M 7.65625 29.898438 L 5.648438 28.695312 L 5.648438 24.1875 L 9.710938 26.492188 L 9.710938 31.105469 Z M 21.890625 24.183594 L 21.890625 19.574219 L 29.910156 24.183594 L 29.960938 28.796875 Z M 21.890625 24.183594 "/>
<path style=" stroke:none;fill-rule:nonzero;fill:rgb(93.72549%,40%,22.352941%);fill-opacity:1;" d="M 41.824219 25.777344 L 41.824219 36.378906 L 39.960938 36.378906 L 39.960938 25.777344 L 36.34375 25.777344 L 36.34375 23.949219 L 45.441406 23.949219 L 45.441406 25.777344 Z M 51.609375 29.628906 C 51.722656 30.089844 51.773438 30.5625 51.761719 31.039062 L 45.75 32.820312 C 45.796875 33.269531 45.785156 33.085938 45.925781 33.40625 C 46.066406 33.726562 46.246094 33.988281 46.457031 34.207031 C 46.667969 34.425781 46.90625 34.566406 47.15625 34.667969 C 47.40625 34.765625 47.695312 34.820312 47.972656 34.816406 C 48.371094 34.816406 48.722656 34.753906 49.046875 34.621094 C 49.386719 34.484375 49.707031 34.296875 49.996094 34.070312 L 51.078125 35.242188 C 50.675781 35.628906 50.207031 35.933594 49.691406 36.148438 C 49.183594 36.359375 48.574219 36.46875 47.867188 36.46875 C 47.332031 36.46875 46.804688 36.359375 46.3125 36.148438 C 45.8125 35.933594 45.394531 35.621094 45.027344 35.207031 C 44.660156 34.792969 44.371094 34.285156 44.15625 33.683594 C 43.945312 33.078125 43.839844 32.382812 43.839844 31.625 C 43.839844 30.832031 43.9375 30.125 44.140625 29.53125 C 44.34375 28.9375 44.621094 28.429688 44.972656 28.015625 C 45.324219 27.609375 45.765625 27.289062 46.261719 27.082031 C 46.785156 26.867188 47.351562 26.757812 47.917969 26.765625 C 48.582031 26.765625 49.160156 26.886719 49.648438 27.136719 C 50.140625 27.386719 50.550781 27.722656 50.871094 28.136719 C 51.210938 28.585938 51.457031 29.09375 51.601562 29.636719 Z M 49.863281 30.046875 C 49.839844 29.726562 49.617188 29.347656 49.4375 29.09375 C 49.265625 28.867188 49.035156 28.695312 48.773438 28.589844 C 48.5 28.480469 48.128906 28.4375 47.804688 28.449219 C 47.203125 28.476562 46.503906 28.6875 46.171875 29.148438 C 45.839844 29.609375 45.734375 30.410156 45.75 31.265625 Z M 58.359375 36.261719 L 58.359375 30.992188 C 58.359375 30.046875 58.191406 29.390625 57.855469 29.003906 C 57.519531 28.617188 57.046875 28.4375 56.453125 28.4375 C 55.839844 28.4375 55.367188 28.644531 55.035156 29.058594 C 54.703125 29.46875 54.535156 30.058594 54.535156 30.8125 L 54.535156 36.257812 L 52.699219 36.257812 L 52.699219 26.949219 L 54.527344 26.949219 L 54.527344 27.835938 C 54.765625 27.492188 55.09375 27.234375 55.511719 27.039062 C 55.933594 26.839844 56.382812 26.753906 56.867188 26.753906 C 57.957031 26.753906 58.78125 27.105469 59.34375 27.800781 C 59.90625 28.496094 60.1875 29.539062 60.1875 30.921875 L 60.1875 36.261719 Z M 67.691406 33.8125 C 67.691406 34.335938 67.59375 34.769531 67.398438 35.117188 C 67.214844 35.457031 66.949219 35.746094 66.628906 35.960938 C 66.308594 36.175781 65.925781 36.328125 65.527344 36.421875 C 65.09375 36.515625 64.648438 36.566406 64.203125 36.5625 C 63.566406 36.5625 62.929688 36.449219 62.296875 36.226562 C 61.707031 36.023438 61.148438 35.734375 60.640625 35.375 L 61.464844 34 C 61.878906 34.296875 62.335938 34.53125 62.820312 34.691406 C 63.285156 34.847656 63.738281 34.921875 64.175781 34.921875 C 65.3125 34.921875 65.878906 34.578125 65.878906 33.890625 C 65.878906 33.535156 65.6875 33.253906 65.304688 33.042969 C 64.921875 32.832031 64.390625 32.59375 63.714844 32.34375 C 63.28125 32.179688 62.855469 31.988281 62.449219 31.765625 C 62.101562 31.570312 61.816406 31.359375 61.597656 31.136719 C 61.386719 30.921875 61.222656 30.664062 61.125 30.382812 C 61.03125 30.105469 60.984375 29.78125 60.984375 29.414062 C 60.984375 29 61.0625 28.636719 61.214844 28.316406 C 61.363281 28 61.589844 27.726562 61.871094 27.515625 C 62.152344 27.304688 62.488281 27.144531 62.871094 27.035156 C 63.25 26.929688 63.6875 26.878906 64.148438 26.878906 C 64.746094 26.878906 65.308594 26.972656 65.859375 27.160156 C 66.410156 27.351562 66.890625 27.597656 67.304688 27.90625 L 66.519531 29.300781 C 66.140625 29.027344 65.757812 28.828125 65.367188 28.695312 C 64.976562 28.566406 64.566406 28.503906 64.105469 28.503906 C 63.648438 28.503906 63.332031 28.582031 63.132812 28.742188 C 62.9375 28.886719 62.824219 29.113281 62.828125 29.355469 C 62.828125 29.46875 62.851562 29.578125 62.898438 29.683594 C 62.945312 29.78125 63.035156 29.886719 63.164062 29.980469 C 63.328125 30.109375 63.503906 30.21875 63.6875 30.308594 C 63.96875 30.449219 64.257812 30.578125 64.550781 30.691406 L 65.914062 31.269531 C 66.269531 31.429688 66.601562 31.636719 66.898438 31.890625 C 67.15625 32.109375 67.359375 32.382812 67.492188 32.695312 C 67.625 33.003906 67.6875 33.375 67.6875 33.8125 Z M 76.191406 31.667969 C 76.191406 32.4375 76.085938 33.125 75.871094 33.734375 C 75.65625 34.34375 75.371094 34.859375 74.984375 35.277344 C 74.613281 35.691406 74.160156 36.015625 73.652344 36.234375 C 73.152344 36.453125 72.589844 36.5625 71.984375 36.5625 C 71.386719 36.5625 70.851562 36.449219 70.351562 36.21875 C 69.855469 35.984375 69.414062 35.648438 69.058594 35.230469 C 68.691406 34.808594 68.40625 34.296875 68.199219 33.707031 C 67.992188 33.113281 67.898438 32.453125 67.898438 31.71875 C 67.898438 30.960938 68.003906 30.28125 68.21875 29.679688 C 68.433594 29.074219 68.722656 28.5625 69.097656 28.144531 C 69.457031 27.730469 69.90625 27.402344 70.410156 27.1875 C 70.921875 26.96875 71.460938 26.859375 72.050781 26.859375 C 72.617188 26.851562 73.179688 26.972656 73.699219 27.203125 C 74.203125 27.429688 74.652344 27.761719 75.019531 28.171875 C 75.394531 28.585938 75.683594 29.089844 75.890625 29.6875 C 76.097656 30.285156 76.191406 30.945312 76.191406 31.664062 Z M 74.34375 31.71875 C 74.34375 30.761719 74.144531 30.003906 73.714844 29.441406 C 73.285156 28.878906 72.714844 28.597656 71.96875 28.597656 C 71.3125 28.574219 70.691406 28.894531 70.328125 29.441406 C 69.933594 30.003906 69.734375 30.742188 69.734375 31.667969 C 69.734375 32.695312 69.945312 33.480469 70.375 34.015625 C 70.773438 34.542969 71.398438 34.84375 72.058594 34.824219 C 72.402344 34.824219 72.714844 34.742188 73 34.574219 C 73.285156 34.40625 73.53125 34.179688 73.726562 33.910156 C 73.9375 33.613281 74.09375 33.277344 74.1875 32.925781 C 74.292969 32.546875 74.347656 32.144531 74.347656 31.71875 Z M 82.078125 28.988281 C 81.882812 28.882812 81.675781 28.800781 81.460938 28.738281 C 81.246094 28.679688 80.984375 28.640625 80.679688 28.640625 C 80.097656 28.640625 79.648438 28.839844 79.332031 29.242188 C 79.011719 29.644531 78.851562 30.242188 78.851562 31.035156 L 78.851562 36.355469 L 77.023438 36.355469 L 77.023438 27.042969 L 78.851562 27.042969 L 78.851562 27.929688 C 79.078125 27.609375 79.378906 27.34375 79.730469 27.15625 C 80.113281 26.949219 80.542969 26.839844 80.980469 26.847656 C 81.359375 26.847656 81.679688 26.882812 81.910156 26.945312 C 82.140625 27.007812 82.359375 27.105469 82.558594 27.238281 L 82.078125 28.980469 Z M 82.078125 28.988281 "/>
<path style=" stroke:none;fill-rule:nonzero;fill:rgb(65.098039%,65.490196%,66.27451%);fill-opacity:1;" d="M 85.148438 25.777344 L 85.148438 29.023438 L 88.714844 29.023438 L 88.714844 30.851562 L 85.148438 30.851562 L 85.148438 36.367188 L 83.285156 36.367188 L 83.285156 23.949219 L 91.285156 23.949219 L 91.285156 25.777344 Z M 91.589844 36.367188 L 91.589844 24.394531 L 93.414062 23.4375 L 93.414062 36.371094 Z M 102.746094 31.667969 C 102.746094 32.4375 102.640625 33.125 102.429688 33.734375 C 102.214844 34.34375 101.917969 34.859375 101.539062 35.277344 C 101.171875 35.691406 100.71875 36.019531 100.210938 36.234375 C 99.699219 36.457031 99.144531 36.5625 98.542969 36.5625 C 97.953125 36.5625 97.40625 36.449219 96.910156 36.21875 C 96.414062 35.988281 95.980469 35.65625 95.613281 35.234375 C 95.246094 34.808594 94.960938 34.300781 94.753906 33.707031 C 94.546875 33.113281 94.453125 32.453125 94.453125 31.71875 C 94.453125 30.964844 94.5625 30.28125 94.773438 29.679688 C 94.988281 29.078125 95.28125 28.566406 95.652344 28.144531 C 96.023438 27.726562 96.453125 27.40625 96.964844 27.1875 C 97.480469 26.96875 98.015625 26.859375 98.605469 26.859375 C 99.195312 26.859375 99.746094 26.972656 100.257812 27.203125 C 100.757812 27.433594 101.210938 27.761719 101.578125 28.171875 C 101.949219 28.585938 102.238281 29.09375 102.449219 29.6875 C 102.65625 30.285156 102.746094 30.945312 102.746094 31.667969 Z M 100.902344 31.722656 C 100.902344 30.761719 100.703125 30.003906 100.273438 29.441406 C 99.84375 28.878906 99.269531 28.597656 98.527344 28.597656 C 97.828125 28.597656 97.28125 28.878906 96.886719 29.441406 C 96.492188 30.003906 96.292969 30.746094 96.292969 31.667969 C 96.292969 32.699219 96.503906 33.480469 96.933594 34.019531 C 97.332031 34.542969 97.957031 34.84375 98.617188 34.824219 C 98.945312 34.828125 99.273438 34.742188 99.558594 34.578125 C 99.84375 34.410156 100.089844 34.183594 100.285156 33.910156 C 100.484375 33.632812 100.640625 33.304688 100.742188 32.925781 C 100.847656 32.546875 100.902344 32.148438 100.902344 31.722656 Z M 111.761719 36.367188 L 110.199219 36.367188 L 108.941406 31.667969 L 108.664062 30.578125 L 108.460938 29.683594 L 108.257812 30.589844 L 107.980469 31.6875 L 106.738281 36.371094 L 105.179688 36.371094 L 102.625 27.058594 L 104.425781 27.058594 L 105.523438 31.582031 L 105.789062 32.699219 L 105.984375 33.621094 L 106.214844 32.699219 L 106.5 31.582031 L 107.742188 27.058594 L 109.214844 27.058594 L 110.476562 31.601562 L 110.75 32.710938 L 110.972656 33.625 L 111.175781 32.695312 L 111.433594 31.585938 L 112.53125 27.058594 L 114.332031 27.058594 Z M 111.761719 36.367188 "/>
</g>
</svg>
