<svg width="112" height="24" viewBox="0 0 112 24" fill="none" xmlns="http://www.w3.org/2000/svg">
<path opacity="0.5" d="M15.1689 8.02052V15.5925L21.7289 11.8085V4.22852L15.1689 8.02052Z" fill="white"/>
<path d="M7.8877 4.22852L14.4477 8.02052V15.5925L7.8877 11.8045V4.22852Z" fill="white"/>
<path d="M0.608398 0V7.576L7.1684 11.364V3.788L0.608398 0ZM7.8884 20.212L14.4484 24V16.424L7.8884 12.636V20.212Z" fill="white"/>
<path d="M37.9039 6.848V8.032H34.8639V18H33.4079V8.032H30.3519V6.848H37.9039ZM48.0161 13.28C48.0161 13.5573 48.0001 13.8507 47.9681 14.16H40.9601C41.0135 15.024 41.3068 15.7013 41.8401 16.192C42.3841 16.672 43.0401 16.912 43.8081 16.912C44.4375 16.912 44.9601 16.768 45.3761 16.48C45.8028 16.1813 46.1015 15.7867 46.2721 15.296H47.8401C47.6055 16.1387 47.1361 16.8267 46.4321 17.36C45.7281 17.8827 44.8535 18.144 43.8081 18.144C42.9761 18.144 42.2295 17.9573 41.5681 17.584C40.9175 17.2107 40.4055 16.6827 40.0321 16C39.6588 15.3067 39.4721 14.5067 39.4721 13.6C39.4721 12.6933 39.6535 11.8987 40.0161 11.216C40.3788 10.5333 40.8855 10.0107 41.5361 9.648C42.1975 9.27467 42.9548 9.088 43.8081 9.088C44.6401 9.088 45.3761 9.26933 46.0161 9.632C46.6561 9.99467 47.1468 10.496 47.4881 11.136C47.8401 11.7653 48.0161 12.48 48.0161 13.28ZM46.5121 12.976C46.5121 12.4213 46.3895 11.9467 46.1441 11.552C45.8988 11.1467 45.5628 10.8427 45.1361 10.64C44.7201 10.4267 44.2561 10.32 43.7441 10.32C43.0081 10.32 42.3788 10.5547 41.8561 11.024C41.3441 11.4933 41.0508 12.144 40.9761 12.976H46.5121ZM51.714 10.656C51.97 10.1547 52.3327 9.76533 52.802 9.488C53.282 9.21067 53.8633 9.072 54.546 9.072V10.576H54.162C52.53 10.576 51.714 11.4613 51.714 13.232V18H50.258V9.232H51.714V10.656ZM58.0028 10.656C58.2588 10.1547 58.6214 9.76533 59.0908 9.488C59.5708 9.21067 60.1521 9.072 60.8348 9.072V10.576H60.4508C58.8188 10.576 58.0028 11.4613 58.0028 13.232V18H56.5468V9.232H58.0028V10.656ZM62.2915 13.584C62.2915 12.688 62.4729 11.904 62.8355 11.232C63.1982 10.5493 63.6942 10.0213 64.3235 9.648C64.9635 9.27467 65.6729 9.088 66.4515 9.088C67.2195 9.088 67.8862 9.25333 68.4515 9.584C69.0169 9.91467 69.4382 10.3307 69.7155 10.832V9.232H71.1875V18H69.7155V16.368C69.4275 16.88 68.9955 17.3067 68.4195 17.648C67.8542 17.9787 67.1929 18.144 66.4355 18.144C65.6569 18.144 64.9529 17.952 64.3235 17.568C63.6942 17.184 63.1982 16.6453 62.8355 15.952C62.4729 15.2587 62.2915 14.4693 62.2915 13.584ZM69.7155 13.6C69.7155 12.9387 69.5822 12.3627 69.3155 11.872C69.0489 11.3813 68.6862 11.008 68.2275 10.752C67.7795 10.4853 67.2835 10.352 66.7395 10.352C66.1955 10.352 65.6995 10.48 65.2515 10.736C64.8035 10.992 64.4462 11.3653 64.1795 11.856C63.9129 12.3467 63.7795 12.9227 63.7795 13.584C63.7795 14.256 63.9129 14.8427 64.1795 15.344C64.4462 15.8347 64.8035 16.2133 65.2515 16.48C65.6995 16.736 66.1955 16.864 66.7395 16.864C67.2835 16.864 67.7795 16.736 68.2275 16.48C68.6862 16.2133 69.0489 15.8347 69.3155 15.344C69.5822 14.8427 69.7155 14.2613 69.7155 13.6ZM77.536 10.432H75.696V18H74.24V10.432H73.104V9.232H74.24V8.608C74.24 7.62667 74.4907 6.912 74.992 6.464C75.504 6.00533 76.32 5.776 77.44 5.776V6.992C76.8 6.992 76.3467 7.12 76.08 7.376C75.824 7.62133 75.696 8.032 75.696 8.608V9.232H77.536V10.432ZM83.3776 18.144C82.5563 18.144 81.8096 17.9573 81.1376 17.584C80.4763 17.2107 79.9536 16.6827 79.5696 16C79.1963 15.3067 79.0096 14.5067 79.0096 13.6C79.0096 12.704 79.2016 11.9147 79.5856 11.232C79.9803 10.5387 80.5136 10.0107 81.1856 9.648C81.8576 9.27467 82.6096 9.088 83.4416 9.088C84.2736 9.088 85.0256 9.27467 85.6976 9.648C86.3696 10.0107 86.8976 10.5333 87.2816 11.216C87.6763 11.8987 87.8736 12.6933 87.8736 13.6C87.8736 14.5067 87.671 15.3067 87.2656 16C86.871 16.6827 86.3323 17.2107 85.6496 17.584C84.967 17.9573 84.2096 18.144 83.3776 18.144ZM83.3776 16.864C83.9003 16.864 84.391 16.7413 84.8496 16.496C85.3083 16.2507 85.6763 15.8827 85.9536 15.392C86.2416 14.9013 86.3856 14.304 86.3856 13.6C86.3856 12.896 86.247 12.2987 85.9696 11.808C85.6923 11.3173 85.3296 10.9547 84.8816 10.72C84.4336 10.4747 83.9483 10.352 83.4256 10.352C82.8923 10.352 82.4016 10.4747 81.9536 10.72C81.5163 10.9547 81.1643 11.3173 80.8976 11.808C80.631 12.2987 80.4976 12.896 80.4976 13.6C80.4976 14.3147 80.6256 14.9173 80.8816 15.408C81.1483 15.8987 81.5003 16.2667 81.9376 16.512C82.375 16.7467 82.855 16.864 83.3776 16.864ZM91.564 10.656C91.82 10.1547 92.1827 9.76533 92.652 9.488C93.132 9.21067 93.7134 9.072 94.396 9.072V10.576H94.012C92.38 10.576 91.564 11.4613 91.564 13.232V18H90.108V9.232H91.564V10.656ZM106.941 9.072C107.623 9.072 108.231 9.216 108.765 9.504C109.298 9.78133 109.719 10.2027 110.029 10.768C110.338 11.3333 110.493 12.0213 110.493 12.832V18H109.053V13.04C109.053 12.1653 108.834 11.4987 108.397 11.04C107.97 10.5707 107.389 10.336 106.653 10.336C105.895 10.336 105.293 10.5813 104.845 11.072C104.397 11.552 104.173 12.2507 104.173 13.168V18H102.733V13.04C102.733 12.1653 102.514 11.4987 102.077 11.04C101.65 10.5707 101.069 10.336 100.333 10.336C99.5754 10.336 98.9728 10.5813 98.5248 11.072C98.0768 11.552 97.8528 12.2507 97.8528 13.168V18H96.3968V9.232H97.8528V10.496C98.1408 10.0373 98.5248 9.68533 99.0048 9.44C99.4954 9.19467 100.034 9.072 100.621 9.072C101.357 9.072 102.007 9.23733 102.573 9.568C103.138 9.89867 103.559 10.384 103.837 11.024C104.082 10.4053 104.487 9.92533 105.053 9.584C105.618 9.24267 106.247 9.072 106.941 9.072Z" fill="#F4F4F5"/>
</svg>
