<svg width="85" height="24" viewBox="0 0 85 24" fill="none" xmlns="http://www.w3.org/2000/svg">
<path d="M12.1538 9.04C12.1538 10.4 11.0338 11.52 9.67379 11.52C8.31379 11.52 7.19379 10.4 7.19379 9.04C7.19379 7.68 8.31379 6.56 9.67379 6.56C11.0338 6.56 12.1538 7.68 12.1538 9.04ZM9.67379 12.48C8.31379 12.48 7.19379 13.6 7.19379 14.96C7.19379 16.32 8.31379 17.44 9.67379 17.44C11.0338 17.44 12.1538 16.32 12.1538 14.96C12.1538 13.6 11.0338 12.48 9.67379 12.48ZM24.6338 12C24.6338 18.64 19.2738 24 12.6338 24C5.99379 24 0.633789 18.64 0.633789 12C0.633789 5.36 5.99379 0 12.6338 0C19.2738 0 24.6338 5.36 24.6338 12ZM21.4338 12C21.4338 7.12 17.5138 3.2 12.6338 3.2C7.75379 3.2 3.83379 7.12 3.83379 12C3.83379 16.88 7.75379 20.8 12.6338 20.8C17.5138 20.8 21.4338 16.88 21.4338 12ZM15.5938 12.48C14.2338 12.48 13.1138 13.6 13.1138 14.96C13.1138 16.32 14.2338 17.44 15.5938 17.44C16.9538 17.44 18.0738 16.32 18.0738 14.96C18.0738 13.6 16.9538 12.48 15.5938 12.48ZM15.5938 6.56C14.2338 6.56 13.1138 7.68 13.1138 9.04C13.1138 10.4 14.2338 11.52 15.5938 11.52C16.9538 11.52 18.0738 10.4 18.0738 9.04C18.0738 7.68 16.9538 6.56 15.5938 6.56Z" fill="white"/>
<path d="M41.4015 6.88V8.368H38.4415V18H36.6175V8.368H33.6415V6.88H41.4015ZM55.4088 9.184L52.6728 18H50.7528L48.9768 11.488L47.2008 18H45.2808L42.5288 9.184H44.3848L46.2248 16.272L48.0968 9.184H50.0008L51.7928 16.24L53.6168 9.184H55.4088ZM58.0199 8.016C57.6892 8.016 57.4119 7.904 57.1879 7.68C56.9639 7.456 56.8519 7.17867 56.8519 6.848C56.8519 6.51733 56.9639 6.24 57.1879 6.016C57.4119 5.792 57.6892 5.68 58.0199 5.68C58.3399 5.68 58.6119 5.792 58.8359 6.016C59.0599 6.24 59.1719 6.51733 59.1719 6.848C59.1719 7.17867 59.0599 7.456 58.8359 7.68C58.6119 7.904 58.3399 8.016 58.0199 8.016ZM58.9159 9.184V18H57.0919V9.184H58.9159ZM63.4547 6.16V18H61.6307V6.16H63.4547ZM67.9934 6.16V18H66.1694V6.16H67.9934ZM71.6362 8.016C71.3055 8.016 71.0282 7.904 70.8042 7.68C70.5802 7.456 70.4682 7.17867 70.4682 6.848C70.4682 6.51733 70.5802 6.24 70.8042 6.016C71.0282 5.792 71.3055 5.68 71.6362 5.68C71.9562 5.68 72.2282 5.792 72.4522 6.016C72.6762 6.24 72.7882 6.51733 72.7882 6.848C72.7882 7.17867 72.6762 7.456 72.4522 7.68C72.2282 7.904 71.9562 8.016 71.6362 8.016ZM72.5322 9.184V18H70.7082V9.184H72.5322ZM79.0709 18.144C78.2389 18.144 77.4869 17.9573 76.8149 17.584C76.1429 17.2 75.6149 16.6667 75.2309 15.984C74.8469 15.2907 74.6549 14.4907 74.6549 13.584C74.6549 12.688 74.8522 11.8933 75.2469 11.2C75.6416 10.5067 76.1802 9.97333 76.8629 9.6C77.5456 9.22667 78.3082 9.04 79.1509 9.04C79.9936 9.04 80.7562 9.22667 81.4389 9.6C82.1216 9.97333 82.6602 10.5067 83.0549 11.2C83.4496 11.8933 83.6469 12.688 83.6469 13.584C83.6469 14.48 83.4442 15.2747 83.0389 15.968C82.6336 16.6613 82.0789 17.2 81.3749 17.584C80.6816 17.9573 79.9136 18.144 79.0709 18.144ZM79.0709 16.56C79.5402 16.56 79.9776 16.448 80.3829 16.224C80.7989 16 81.1349 15.664 81.3909 15.216C81.6469 14.768 81.7749 14.224 81.7749 13.584C81.7749 12.944 81.6522 12.4053 81.4069 11.968C81.1616 11.52 80.8362 11.184 80.4309 10.96C80.0256 10.736 79.5882 10.624 79.1189 10.624C78.6496 10.624 78.2122 10.736 77.8069 10.96C77.4122 11.184 77.0976 11.52 76.8629 11.968C76.6282 12.4053 76.5109 12.944 76.5109 13.584C76.5109 14.5333 76.7509 15.2693 77.2309 15.792C77.7216 16.304 78.3349 16.56 79.0709 16.56Z" fill="#F4F4F5"/>
</svg>
