<svg width="121" height="24" viewBox="0 0 121 24" fill="none" xmlns="http://www.w3.org/2000/svg">
<g clip-path="url(#clip0_3116_15616)">
<path d="M22.0396 0H2.72705C1.43263 0 0.383301 1.04933 0.383301 2.34375V21.6562C0.383301 22.9507 1.43263 24 2.72705 24H22.0396C23.334 24 24.3833 22.9507 24.3833 21.6562V2.34375C24.3833 1.04933 23.334 0 22.0396 0Z" fill="white"/>
<path fill-rule="evenodd" clip-rule="evenodd" d="M15.2398 19.098V21.4446C15.6213 21.6402 16.0725 21.7868 16.5933 21.8846C17.1142 21.9824 17.6632 22.0312 18.2403 22.0312C18.8027 22.0312 19.337 21.9775 19.8432 21.8699C20.3494 21.7624 20.7933 21.5851 21.1748 21.3383C21.5562 21.0914 21.8582 20.7687 22.0808 20.3703C22.3033 19.9718 22.4146 19.4793 22.4146 18.8927C22.4146 18.4673 22.351 18.0946 22.2238 17.7744C22.0966 17.4542 21.9133 17.1694 21.6736 16.9201C21.434 16.6708 21.1466 16.4471 20.8116 16.2491C20.4766 16.0511 20.0988 15.8641 19.6782 15.6881C19.3701 15.561 19.0937 15.4376 18.8492 15.3178C18.6046 15.198 18.3968 15.0758 18.2256 14.9512C18.0544 14.8265 17.9224 14.6945 17.8295 14.5552C17.7366 14.4158 17.6901 14.2582 17.6901 14.0821C17.6901 13.9208 17.7316 13.7754 17.8148 13.6458C17.898 13.5163 18.0153 13.4051 18.1669 13.3122C18.3186 13.2193 18.5044 13.1472 18.7245 13.0958C18.9446 13.0445 19.1891 13.0189 19.4581 13.0189C19.6537 13.0189 19.8603 13.0335 20.078 13.0628C20.2956 13.0922 20.5145 13.1374 20.7346 13.1985C20.9547 13.2596 21.1686 13.3366 21.3765 13.4295C21.5843 13.5224 21.7763 13.6299 21.9524 13.7522V11.5596C21.5954 11.4227 21.2053 11.3212 20.7823 11.2552C20.3592 11.1892 19.8738 11.1562 19.3261 11.1562C18.7685 11.1562 18.2403 11.2162 17.7414 11.3359C17.2426 11.4557 16.8037 11.6427 16.4246 11.8969C16.0456 12.1511 15.746 12.475 15.5259 12.8685C15.3059 13.2621 15.1958 13.7326 15.1958 14.2801C15.1958 14.9792 15.3976 15.5757 15.8011 16.0695C16.2045 16.5632 16.8171 16.9812 17.6387 17.3234C17.9615 17.4554 18.2623 17.5849 18.5411 17.712C18.8198 17.8392 19.0607 17.9712 19.2637 18.108C19.4666 18.2449 19.6268 18.394 19.7442 18.5554C19.8616 18.7167 19.9203 18.9 19.9203 19.1054C19.9203 19.2569 19.8836 19.3974 19.8102 19.527C19.7369 19.6566 19.6256 19.769 19.4764 19.8643C19.3273 19.9597 19.1414 20.0342 18.9189 20.088C18.6963 20.1418 18.4359 20.1686 18.1376 20.1686C17.6289 20.1686 17.1252 20.0794 16.6263 19.901C16.1275 19.7226 15.6653 19.4549 15.2398 19.098ZM11.2949 13.3163H14.3052V11.3906H5.91455V13.3163H8.91014V21.8906H11.2949V13.3163Z" fill="black"/>
</g>
<path d="M41.1476 6.88V8.368H38.1876V18H36.3636V8.368H33.3876V6.88H41.1476ZM51.2509 9.184L45.8429 22.144H43.9549L45.7469 17.856L42.2749 9.184H44.3069L46.7869 15.904L49.3629 9.184H51.2509ZM54.7714 10.48C55.0807 10.0747 55.502 9.73333 56.0354 9.456C56.5687 9.17867 57.1714 9.04 57.8434 9.04C58.6114 9.04 59.31 9.232 59.9394 9.616C60.5794 9.98933 61.0807 10.5173 61.4434 11.2C61.806 11.8827 61.9874 12.6667 61.9874 13.552C61.9874 14.4373 61.806 15.232 61.4434 15.936C61.0807 16.6293 60.5794 17.1733 59.9394 17.568C59.31 17.952 58.6114 18.144 57.8434 18.144C57.1714 18.144 56.574 18.0107 56.0514 17.744C55.5287 17.4667 55.102 17.1253 54.7714 16.72V22.192H52.9474V9.184H54.7714V10.48ZM60.1314 13.552C60.1314 12.944 60.0034 12.4213 59.7474 11.984C59.502 11.536 59.1714 11.2 58.7554 10.976C58.35 10.7413 57.9127 10.624 57.4434 10.624C56.9847 10.624 56.5474 10.7413 56.1314 10.976C55.726 11.2107 55.3954 11.552 55.1394 12C54.894 12.448 54.7714 12.976 54.7714 13.584C54.7714 14.192 54.894 14.7253 55.1394 15.184C55.3954 15.632 55.726 15.9733 56.1314 16.208C56.5474 16.4427 56.9847 16.56 57.4434 16.56C57.9127 16.56 58.35 16.4427 58.7554 16.208C59.1714 15.9627 59.502 15.6107 59.7474 15.152C60.0034 14.6933 60.1314 14.16 60.1314 13.552ZM72.1911 13.376C72.1911 13.7067 72.1698 14.0053 72.1271 14.272H65.3911C65.4444 14.976 65.7058 15.5413 66.1751 15.968C66.6444 16.3947 67.2204 16.608 67.9031 16.608C68.8844 16.608 69.5778 16.1973 69.9831 15.376H71.9511C71.6844 16.1867 71.1991 16.8533 70.4951 17.376C69.8018 17.888 68.9378 18.144 67.9031 18.144C67.0604 18.144 66.3031 17.9573 65.6311 17.584C64.9698 17.2 64.4471 16.6667 64.0631 15.984C63.6898 15.2907 63.5031 14.4907 63.5031 13.584C63.5031 12.6773 63.6844 11.8827 64.0471 11.2C64.4204 10.5067 64.9378 9.97333 65.5991 9.6C66.2711 9.22667 67.0391 9.04 67.9031 9.04C68.7351 9.04 69.4764 9.22133 70.1271 9.584C70.7778 9.94667 71.2844 10.4587 71.6471 11.12C72.0098 11.7707 72.1911 12.5227 72.1911 13.376ZM70.2871 12.8C70.2764 12.128 70.0364 11.5893 69.5671 11.184C69.0978 10.7787 68.5164 10.576 67.8231 10.576C67.1938 10.576 66.6551 10.7787 66.2071 11.184C65.7591 11.5787 65.4924 12.1173 65.4071 12.8H70.2871ZM77.5061 18.144C76.8128 18.144 76.1888 18.0213 75.6341 17.776C75.0901 17.52 74.6581 17.1787 74.3381 16.752C74.0181 16.3147 73.8474 15.8293 73.8261 15.296H75.7141C75.7461 15.6693 75.9221 15.984 76.2421 16.24C76.5728 16.4853 76.9834 16.608 77.4741 16.608C77.9861 16.608 78.3808 16.512 78.6581 16.32C78.9461 16.1173 79.0901 15.8613 79.0901 15.552C79.0901 15.2213 78.9301 14.976 78.6101 14.816C78.3008 14.656 77.8048 14.48 77.1221 14.288C76.4608 14.1067 75.9221 13.9307 75.5061 13.76C75.0901 13.5893 74.7274 13.328 74.4181 12.976C74.1194 12.624 73.9701 12.16 73.9701 11.584C73.9701 11.1147 74.1088 10.688 74.3861 10.304C74.6634 9.90933 75.0581 9.6 75.5701 9.376C76.0928 9.152 76.6901 9.04 77.3621 9.04C78.3648 9.04 79.1701 9.296 79.7781 9.808C80.3968 10.3093 80.7274 10.9973 80.7701 11.872H78.9461C78.9141 11.4773 78.7541 11.1627 78.4661 10.928C78.1781 10.6933 77.7888 10.576 77.2981 10.576C76.8181 10.576 76.4501 10.6667 76.1941 10.848C75.9381 11.0293 75.8101 11.2693 75.8101 11.568C75.8101 11.8027 75.8954 12 76.0661 12.16C76.2368 12.32 76.4448 12.448 76.6901 12.544C76.9354 12.6293 77.2981 12.7413 77.7781 12.88C78.4181 13.0507 78.9408 13.2267 79.3461 13.408C79.7621 13.5787 80.1194 13.8347 80.4181 14.176C80.7168 14.5173 80.8714 14.9707 80.8821 15.536C80.8821 16.0373 80.7434 16.4853 80.4661 16.88C80.1888 17.2747 79.7941 17.584 79.2821 17.808C78.7808 18.032 78.1888 18.144 77.5061 18.144ZM82.565 13.584C82.565 12.6773 82.7463 11.8827 83.109 11.2C83.4823 10.5067 83.9943 9.97333 84.645 9.6C85.2957 9.22667 86.0423 9.04 86.885 9.04C87.9517 9.04 88.8317 9.296 89.525 9.808C90.229 10.3093 90.7037 11.0293 90.949 11.968H88.981C88.821 11.5307 88.565 11.1893 88.213 10.944C87.861 10.6987 87.4183 10.576 86.885 10.576C86.1383 10.576 85.541 10.8427 85.093 11.376C84.6557 11.8987 84.437 12.6347 84.437 13.584C84.437 14.5333 84.6557 15.2747 85.093 15.808C85.541 16.3413 86.1383 16.608 86.885 16.608C87.941 16.608 88.6397 16.144 88.981 15.216H90.949C90.693 16.112 90.213 16.8267 89.509 17.36C88.805 17.8827 87.9303 18.144 86.885 18.144C86.0423 18.144 85.2957 17.9573 84.645 17.584C83.9943 17.2 83.4823 16.6667 83.109 15.984C82.7463 15.2907 82.565 14.4907 82.565 13.584ZM94.9107 10.464C95.1774 10.016 95.5294 9.66933 95.9667 9.424C96.4147 9.168 96.9427 9.04 97.5507 9.04V10.928H97.0867C96.3721 10.928 95.8281 11.1093 95.4547 11.472C95.0921 11.8347 94.9107 12.464 94.9107 13.36V18H93.0867V9.184H94.9107V10.464ZM100.475 8.016C100.145 8.016 99.8674 7.904 99.6434 7.68C99.4194 7.456 99.3074 7.17867 99.3074 6.848C99.3074 6.51733 99.4194 6.24 99.6434 6.016C99.8674 5.792 100.145 5.68 100.475 5.68C100.795 5.68 101.067 5.792 101.291 6.016C101.515 6.24 101.627 6.51733 101.627 6.848C101.627 7.17867 101.515 7.456 101.291 7.68C101.067 7.904 100.795 8.016 100.475 8.016ZM101.371 9.184V18H99.5474V9.184H101.371ZM105.91 10.48C106.219 10.0747 106.641 9.73333 107.174 9.456C107.707 9.17867 108.31 9.04 108.982 9.04C109.75 9.04 110.449 9.232 111.078 9.616C111.718 9.98933 112.219 10.5173 112.582 11.2C112.945 11.8827 113.126 12.6667 113.126 13.552C113.126 14.4373 112.945 15.232 112.582 15.936C112.219 16.6293 111.718 17.1733 111.078 17.568C110.449 17.952 109.75 18.144 108.982 18.144C108.31 18.144 107.713 18.0107 107.19 17.744C106.667 17.4667 106.241 17.1253 105.91 16.72V22.192H104.086V9.184H105.91V10.48ZM111.27 13.552C111.27 12.944 111.142 12.4213 110.886 11.984C110.641 11.536 110.31 11.2 109.894 10.976C109.489 10.7413 109.051 10.624 108.582 10.624C108.123 10.624 107.686 10.7413 107.27 10.976C106.865 11.2107 106.534 11.552 106.278 12C106.033 12.448 105.91 12.976 105.91 13.584C105.91 14.192 106.033 14.7253 106.278 15.184C106.534 15.632 106.865 15.9733 107.27 16.208C107.686 16.4427 108.123 16.56 108.582 16.56C109.051 16.56 109.489 16.4427 109.894 16.208C110.31 15.9627 110.641 15.6107 110.886 15.152C111.142 14.6933 111.27 14.16 111.27 13.552ZM117.378 10.672V15.552C117.378 15.8827 117.453 16.1227 117.602 16.272C117.762 16.4107 118.029 16.48 118.402 16.48H119.522V18H118.082C117.261 18 116.631 17.808 116.194 17.424C115.757 17.04 115.538 16.416 115.538 15.552V10.672H114.498V9.184H115.538V6.992H117.378V9.184H119.522V10.672H117.378Z" fill="#F4F4F5"/>
<defs>
<clipPath id="clip0_3116_15616">
<rect width="24" height="24" fill="white" transform="translate(0.383301)"/>
</clipPath>
</defs>
</svg>
