<svg width="111" height="24" viewBox="0 0 111 24" fill="none" xmlns="http://www.w3.org/2000/svg">
<path fill-rule="evenodd" clip-rule="evenodd" d="M89.5079 24C89.6431 23.4038 89.7727 22.8048 89.9026 22.205C90.1497 21.0636 90.3975 19.9192 90.6849 18.7846C90.8464 18.0923 90.5464 18.0462 89.9926 18.0462C89.4072 18.0616 88.8115 18.0564 88.2192 18.0513H88.2192H88.2191H88.219C87.9242 18.0487 87.6302 18.0462 87.3387 18.0462C87.2677 18.0462 87.188 18.0549 87.1082 18.0636C86.9288 18.0833 86.7494 18.103 86.6695 18.0231C86.1213 17.4597 86.1961 16.8058 86.2706 16.1543C86.309 15.8185 86.3474 15.4834 86.3003 15.1615C86.208 14.6077 86.6233 14.5846 87.0387 14.5846C87.4618 14.5846 87.8849 14.5821 88.3079 14.5795C89.1541 14.5744 90.0003 14.5692 90.8464 14.5846C91.4233 14.6077 91.7003 14.3769 91.7926 13.8231C91.8631 13.4707 91.93 13.1183 91.9968 12.7664L91.9969 12.7658L91.997 12.7651L91.9972 12.7643L91.9972 12.764C92.1709 11.8493 92.344 10.9379 92.5772 10.0385C92.7387 9.41539 92.5541 9.32308 92.0003 9.32308L91.9775 9.32362C91.0162 9.34651 90.0773 9.36887 89.1156 9.32308C87.7607 9.26078 87.9298 8.55734 88.0978 7.85824C88.1788 7.52145 88.2595 7.18568 88.1695 6.92308C87.9156 6.23077 88.1003 5.60769 89.1849 5.7C89.8949 5.7568 90.605 5.7437 91.315 5.73059C91.7588 5.72239 92.2026 5.7142 92.6464 5.72308C93.2926 5.74615 93.5926 5.53846 93.708 4.86923C93.9272 3.75739 94.189 2.65617 94.4499 1.55837L94.45 1.55805L94.4501 1.55772L94.4508 1.5546C94.5741 1.0359 94.6973 0.517948 94.8157 0H98.7387C98.8429 1.19099 98.5534 2.31475 98.2604 3.45183C98.0992 4.07733 97.937 4.70687 97.8387 5.35385C98.5938 5.41811 99.4048 5.40408 100.241 5.38962C100.605 5.38331 100.975 5.37692 101.346 5.37692C101.969 5.37692 102.177 4.93846 102.293 4.43077C102.396 3.94601 102.506 3.46702 102.616 2.98803L102.616 2.98794L102.616 2.98783L102.616 2.98769C102.725 2.5091 102.835 2.03051 102.939 1.54615L102.961 1.43842L102.961 1.43836C103.068 0.918292 103.176 0.388495 103.608 0H107.531C107.816 0.702932 107.615 1.35731 107.412 2.01596L107.412 2.01608L107.412 2.01677L107.412 2.01684L107.412 2.0169C107.335 2.26611 107.259 2.51593 107.208 2.76923L107.181 2.90051C106.676 5.37693 106.676 5.37732 109.285 5.4C109.37 5.4 109.455 5.39784 109.542 5.39567C110.02 5.38364 110.513 5.37122 110.923 5.72308V9.36923C110.227 9.81085 109.468 9.7649 108.711 9.71907C108.44 9.70264 108.168 9.68622 107.9 9.69231L107.829 9.69377C105.662 9.73822 105.657 9.73831 105.223 11.8615C105.17 12.123 105.118 12.3565 105.072 12.565L105.072 12.5653L105.072 12.5654C104.896 13.3567 104.801 13.7886 104.973 14.0244C105.181 14.3078 105.776 14.3078 107.086 14.3077L107.162 14.3077C107.508 14.3077 107.854 14.3077 108.2 14.3308C109.008 14.3538 109.331 14.7923 109.4 15.5538C109.654 18.1154 109.4 18.3923 106.839 18.4154C106.415 18.4182 106.052 18.4133 105.739 18.4091C104.791 18.3962 104.302 18.3895 104 18.624C103.678 18.874 103.569 19.3981 103.345 20.4809L103.345 20.4811C103.288 20.7552 103.223 21.0651 103.146 21.4154C103.094 21.6408 103.064 21.875 103.034 22.1095C102.943 22.811 102.852 23.5157 102.177 24H98.4849C98.183 23.6578 98.2497 23.263 98.3176 22.8615L98.3176 22.8612L98.3178 22.8603C98.3277 22.8018 98.3376 22.7432 98.3464 22.6846C98.5541 21.5538 98.7618 20.4462 99.0387 19.3385C99.2233 18.6231 98.9464 18.4154 98.231 18.3692L98.2226 18.3687C96.6526 18.2764 95.8815 18.231 95.4069 18.5841C94.9489 18.9249 94.7669 19.6368 94.4094 21.0357L94.3772 21.1615C94.3036 21.4424 94.2688 21.7368 94.234 22.0313L94.234 22.0318C94.1487 22.7535 94.0634 23.4756 93.4079 24H89.5079ZM97.9772 14.5846C95.4849 14.5846 95.4849 14.5846 96.0618 12.1154L96.0619 12.1152C96.3842 10.7339 96.5457 10.0416 96.9819 9.69467C97.4201 9.34615 98.1355 9.34615 99.5695 9.34615C100.584 9.34615 101.086 9.34615 101.277 9.59004C101.465 9.82897 101.356 10.302 101.139 11.2385C101.105 11.3957 101.071 11.5583 101.038 11.7211L101.037 11.7224L101.035 11.7346C101 11.9019 100.966 12.0692 100.931 12.2308C100.4 14.5846 100.4 14.5846 97.9772 14.5846ZM48.9388 9.00018C50.6926 6.36941 52.8618 4.9848 55.7695 4.86941C57.2003 4.80018 57.2926 4.86941 57.2465 6.23095V6.5771C57.1541 8.5848 57.1541 8.5848 55.1926 8.72326C52.0541 8.93095 49.7695 11.1002 49.1926 14.4694C48.8518 16.3949 48.9011 18.3329 48.9501 20.265C48.9675 20.9496 48.9849 21.6334 48.9849 22.3156C48.9849 23.3079 48.708 23.4925 47.7618 23.4694L47.6258 23.4659C46.3626 23.4336 45.7274 23.4174 45.408 23.0916C45.0849 22.762 45.0849 22.1157 45.0849 20.8156C45.0849 19.5983 45.0864 18.3811 45.0878 17.1638C45.0921 13.5118 45.0965 9.85985 45.0618 6.20787C45.0618 5.40018 45.1772 5.00787 46.1003 5.10018C46.4249 5.13348 46.7886 5.10973 47.1469 5.08633C47.7819 5.04486 48.4001 5.00449 48.7541 5.2848C49.1497 5.60424 49.0739 6.24456 48.9961 6.90171V6.90174V6.90177V6.90181C48.9559 7.24155 48.9152 7.58578 48.9388 7.89249C48.9529 8.06211 48.9497 8.22308 48.9451 8.45493V8.45508L48.9451 8.45547V8.45558V8.45571C48.9422 8.60222 48.9388 8.77703 48.9388 9.00018ZM4.40002 16.1659L4.40011 16.1658L4.40117 16.1646L4.40155 16.1642C5.76267 14.6242 7.12379 13.0843 8.48492 11.5386C9.38492 10.5233 10.2849 9.4848 11.1618 8.44633C10.9504 8.18207 10.7121 8.2137 10.488 8.24346H10.488C10.4185 8.25268 10.3504 8.26172 10.2849 8.26172C7.37722 8.23864 4.44645 8.23864 1.53876 8.26172C0.892608 8.26172 0.592608 8.16941 0.592608 7.40787L0.592604 7.33865C0.592489 6.21945 0.592432 5.65983 0.872212 5.38002C1.15201 5.10018 1.71168 5.10018 2.83107 5.10018C3.8456 5.10018 4.86157 5.10162 5.87826 5.10306H5.87841H5.87855H5.8787H5.87877C8.9321 5.10739 11.9919 5.11173 15.0388 5.0771C15.8465 5.0771 16.1695 5.21557 16.1695 6.11557C16.1465 7.15403 15.9388 7.93864 15.2003 8.76941C13.0321 11.1545 10.912 13.5878 8.78794 16.0257C7.97313 16.9609 7.15772 17.8968 6.33876 18.831C6.0387 19.1685 5.73864 19.5213 5.35188 19.9761L5.06953 20.3079H9.70799C10.211 20.3079 10.7125 20.3093 11.213 20.3108C12.7101 20.3151 14.1975 20.3194 15.6849 20.2848C16.3311 20.2617 16.5157 20.4463 16.5157 21.0925L16.5163 21.1591C16.539 23.4233 16.539 23.4233 14.1849 23.4233H1.51569C1.41223 23.4233 1.30735 23.4175 1.20211 23.4118H1.20207H1.20203H1.20199C0.884688 23.3945 0.564099 23.3769 0.269531 23.5156C0.315685 22.6386 0.315685 21.7156 0.315685 20.7925C1.67713 19.2464 3.03857 17.7062 4.40002 16.1659ZM27.2158 23.6318C27.4917 23.6882 27.7708 23.7452 27.9619 24H31.4234C31.4653 23.8324 31.5832 23.8169 31.7254 23.7983L31.7255 23.7982C31.74 23.7963 31.7547 23.7944 31.7695 23.7923C34.4003 23.4692 36.408 22.1538 37.8619 19.9846C39.0157 18.2538 38.9926 18.2077 37.008 17.8154C36.808 17.7846 36.608 17.7333 36.408 17.682C36.308 17.6564 36.208 17.6307 36.108 17.6077C35.6003 17.4923 35.208 17.5384 34.8849 18.0923C33.5003 20.4 31.2849 20.9538 28.8157 20.5384C26.5311 20.1692 25.1695 18.6231 24.5003 16.4538C24.0849 15.1615 24.108 15.1615 25.4926 15.1615H38.3926C38.4475 15.1615 38.5018 15.1632 38.5548 15.1647L38.5548 15.1647C38.9472 15.1766 39.2695 15.1863 39.2695 14.5154C39.2695 11.3307 38.3234 8.56152 35.7388 6.5769C32.4388 4.03844 28.8388 3.92306 25.1926 5.79229C21.9619 7.45383 20.0003 11.3769 20.3926 15.0923C20.8311 19.2 22.8619 22.0846 26.8542 23.5384C26.9686 23.5813 27.0919 23.6065 27.2158 23.6318L27.2158 23.6318ZM28.608 12.5049L28.6087 12.5049C29.0008 12.5064 29.3928 12.5078 29.7849 12.5078C30.2186 12.5078 30.6541 12.5041 31.0911 12.5003H31.0911L31.0915 12.5003C32.1888 12.4909 33.2945 12.4814 34.4003 12.5309C35.1618 12.554 35.3003 12.3232 35.0926 11.6309C34.3772 9.36934 32.4157 7.98472 29.8541 8.0078C27.431 8.03087 25.1233 9.69241 24.5233 11.7924C24.3849 12.3232 24.4541 12.554 25.0772 12.5309C26.2541 12.4963 27.431 12.5006 28.6079 12.5049H28.608ZM68.531 24.0001C68.334 23.7211 68.0436 23.6755 67.7595 23.631C67.6442 23.6129 67.5299 23.595 67.4233 23.5616C62.7387 22.2924 59.9233 18.277 60.3156 13.5463C60.731 8.56164 64.4002 5.05395 69.2464 4.73087C74.7848 4.38472 79.1002 7.43088 80.0464 12.3463C81.131 18.0001 77.6002 22.8924 71.7618 23.7693C71.6951 23.786 71.6405 23.8507 71.5893 23.9115C71.5695 23.9349 71.5503 23.9578 71.531 23.977C70.5156 24.0001 69.5233 24.0001 68.531 24.0001ZM64.0773 14.2846C64.0773 10.7307 66.7542 7.98458 70.2389 8.00766C73.7465 8.00766 76.3773 10.7077 76.3773 14.3077C76.3773 17.9077 73.7465 20.5846 70.2389 20.5846C66.7312 20.5846 64.0773 17.8615 64.0773 14.2846Z" fill="#FEFEFE"/>
</svg>
