<svg width="175" height="56" viewBox="0 0 175 56" fill="none" xmlns="http://www.w3.org/2000/svg">
<rect x="0.5" y="0.5" width="174" height="55" rx="7.5" fill="black"/>
<g clip-path="url(#clip0_1838_9334)">
<path fill-rule="evenodd" clip-rule="evenodd" d="M36.6693 18.5102C35.7169 19.6602 34.1177 20.5227 32.8419 20.5227C32.6982 20.5227 32.5544 20.5047 32.4646 20.4867C32.4466 20.4148 32.4107 20.1992 32.4107 19.9836C32.4107 18.5102 33.1474 17.0727 33.956 16.1562C34.9802 14.9523 36.6872 14.0539 38.1068 14C38.1427 14.1617 38.1607 14.3594 38.1607 14.557C38.1607 16.0125 37.5318 17.468 36.6693 18.5102ZM30.4198 41.4237C29.7794 41.6988 29.1726 41.9594 28.3492 41.9594C26.5883 41.9594 25.3664 40.3422 23.9648 38.3657C22.3297 36.0297 21 32.418 21 29.0039C21 23.5055 24.5758 20.5946 28.0977 20.5946C29.1256 20.5946 30.0648 20.9715 30.9 21.3066C31.5685 21.5749 32.1704 21.8165 32.6977 21.8165C33.155 21.8165 33.7249 21.5912 34.3892 21.3287C35.317 20.9621 36.4289 20.5227 37.675 20.5227C38.4656 20.5227 41.3586 20.5946 43.2633 23.3258C43.2524 23.3343 43.2291 23.3497 43.1952 23.3721C42.7265 23.6815 40.2266 25.3318 40.2266 28.7164C40.2266 32.9032 43.8742 34.3946 44 34.4305C43.9968 34.4386 43.9893 34.4616 43.9775 34.4982C43.8576 34.8693 43.286 36.6385 42.0594 38.4375C40.8555 40.1625 39.5797 41.9235 37.675 41.9235C36.7362 41.9235 36.138 41.6586 35.5204 41.385C34.8613 41.0932 34.1801 40.7914 33.0391 40.7914C31.8919 40.7914 31.1349 41.1166 30.4198 41.4237Z" fill="white"/>
</g>
<path d="M83.7518 19V13.4H86.0318C86.6292 13.4 87.1518 13.52 87.5998 13.76C88.0532 13.9947 88.4052 14.3227 88.6558 14.744C88.9065 15.1653 89.0318 15.6507 89.0318 16.2C89.0318 16.7493 88.9065 17.2347 88.6558 17.656C88.4052 18.0773 88.0532 18.408 87.5998 18.648C87.1518 18.8827 86.6292 19 86.0318 19H83.7518ZM84.3438 18.488H85.9998C86.4958 18.488 86.9252 18.392 87.2878 18.2C87.6558 18.0027 87.9412 17.7333 88.1438 17.392C88.3465 17.0453 88.4478 16.648 88.4478 16.2C88.4478 15.7467 88.3465 15.3493 88.1438 15.008C87.9412 14.6667 87.6558 14.4 87.2878 14.208C86.9252 14.0107 86.4958 13.912 85.9998 13.912H84.3438V18.488ZM91.9532 19.04C91.5479 19.04 91.1826 18.9493 90.8572 18.768C90.5372 18.5813 90.2839 18.328 90.0972 18.008C89.9106 17.6827 89.8172 17.312 89.8172 16.896C89.8172 16.4747 89.9106 16.104 90.0972 15.784C90.2839 15.464 90.5372 15.2133 90.8572 15.032C91.1772 14.8507 91.5426 14.76 91.9532 14.76C92.3692 14.76 92.7372 14.8507 93.0572 15.032C93.3826 15.2133 93.6359 15.464 93.8172 15.784C94.0039 16.104 94.0972 16.4747 94.0972 16.896C94.0972 17.312 94.0039 17.6827 93.8172 18.008C93.6359 18.328 93.3826 18.5813 93.0572 18.768C92.7319 18.9493 92.3639 19.04 91.9532 19.04ZM91.9532 18.536C92.2572 18.536 92.5266 18.4693 92.7612 18.336C92.9959 18.1973 93.1799 18.0053 93.3132 17.76C93.4519 17.5093 93.5212 17.2213 93.5212 16.896C93.5212 16.5653 93.4519 16.2773 93.3132 16.032C93.1799 15.7867 92.9959 15.5973 92.7612 15.464C92.5266 15.3253 92.2599 15.256 91.9612 15.256C91.6626 15.256 91.3959 15.3253 91.1612 15.464C90.9266 15.5973 90.7399 15.7867 90.6012 16.032C90.4626 16.2773 90.3932 16.5653 90.3932 16.896C90.3932 17.2213 90.4626 17.5093 90.6012 17.76C90.7399 18.0053 90.9266 18.1973 91.1612 18.336C91.3959 18.4693 91.6599 18.536 91.9532 18.536ZM95.9957 19L94.4117 14.8H94.9557L96.3957 18.696H96.1477L97.6277 14.8H98.1157L99.5797 18.696H99.3317L100.796 14.8H101.316L99.7237 19H99.1877L97.7797 15.336H97.9477L96.5317 19H95.9957ZM104.315 14.76C104.656 14.76 104.955 14.8267 105.211 14.96C105.472 15.088 105.675 15.2853 105.819 15.552C105.968 15.8187 106.043 16.1547 106.043 16.56V19H105.475V16.616C105.475 16.1733 105.363 15.84 105.139 15.616C104.92 15.3867 104.611 15.272 104.211 15.272C103.912 15.272 103.651 15.3333 103.427 15.456C103.208 15.5733 103.038 15.7467 102.915 15.976C102.798 16.2 102.739 16.472 102.739 16.792V19H102.171V14.8H102.715V15.952L102.627 15.736C102.76 15.432 102.974 15.1947 103.267 15.024C103.56 14.848 103.91 14.76 104.315 14.76ZM107.577 19V13.064H108.145V19H107.577ZM111.438 19.04C111.032 19.04 110.667 18.9493 110.342 18.768C110.022 18.5813 109.768 18.328 109.582 18.008C109.395 17.6827 109.302 17.312 109.302 16.896C109.302 16.4747 109.395 16.104 109.582 15.784C109.768 15.464 110.022 15.2133 110.342 15.032C110.662 14.8507 111.027 14.76 111.438 14.76C111.854 14.76 112.222 14.8507 112.542 15.032C112.867 15.2133 113.12 15.464 113.302 15.784C113.488 16.104 113.582 16.4747 113.582 16.896C113.582 17.312 113.488 17.6827 113.302 18.008C113.12 18.328 112.867 18.5813 112.542 18.768C112.216 18.9493 111.848 19.04 111.438 19.04ZM111.438 18.536C111.742 18.536 112.011 18.4693 112.246 18.336C112.48 18.1973 112.664 18.0053 112.798 17.76C112.936 17.5093 113.006 17.2213 113.006 16.896C113.006 16.5653 112.936 16.2773 112.798 16.032C112.664 15.7867 112.48 15.5973 112.246 15.464C112.011 15.3253 111.744 15.256 111.446 15.256C111.147 15.256 110.88 15.3253 110.646 15.464C110.411 15.5973 110.224 15.7867 110.086 16.032C109.947 16.2773 109.878 16.5653 109.878 16.896C109.878 17.2213 109.947 17.5093 110.086 17.76C110.224 18.0053 110.411 18.1973 110.646 18.336C110.88 18.4693 111.144 18.536 111.438 18.536ZM117.35 19V18.072L117.326 17.92V16.368C117.326 16.0107 117.224 15.736 117.022 15.544C116.824 15.352 116.528 15.256 116.134 15.256C115.862 15.256 115.603 15.3013 115.358 15.392C115.112 15.4827 114.904 15.6027 114.734 15.752L114.478 15.328C114.691 15.1467 114.947 15.008 115.246 14.912C115.544 14.8107 115.859 14.76 116.19 14.76C116.734 14.76 117.152 14.896 117.446 15.168C117.744 15.4347 117.894 15.8427 117.894 16.392V19H117.35ZM115.902 19.04C115.587 19.04 115.312 18.9893 115.078 18.888C114.848 18.7813 114.672 18.6373 114.55 18.456C114.427 18.2693 114.366 18.056 114.366 17.816C114.366 17.5973 114.416 17.4 114.518 17.224C114.624 17.0427 114.795 16.8987 115.03 16.792C115.27 16.68 115.59 16.624 115.99 16.624H117.438V17.048H116.006C115.6 17.048 115.318 17.12 115.158 17.264C115.003 17.408 114.926 17.5867 114.926 17.8C114.926 18.04 115.019 18.232 115.206 18.376C115.392 18.52 115.654 18.592 115.99 18.592C116.31 18.592 116.584 18.52 116.814 18.376C117.048 18.2267 117.219 18.0133 117.326 17.736L117.454 18.128C117.347 18.4053 117.16 18.6267 116.894 18.792C116.632 18.9573 116.302 19.04 115.902 19.04ZM121.109 19.04C120.709 19.04 120.349 18.9493 120.029 18.768C119.714 18.5867 119.466 18.336 119.285 18.016C119.103 17.6907 119.013 17.3173 119.013 16.896C119.013 16.4693 119.103 16.096 119.285 15.776C119.466 15.456 119.714 15.208 120.029 15.032C120.349 14.8507 120.709 14.76 121.109 14.76C121.477 14.76 121.805 14.8427 122.093 15.008C122.386 15.1733 122.618 15.416 122.789 15.736C122.965 16.0507 123.053 16.4373 123.053 16.896C123.053 17.3493 122.967 17.736 122.797 18.056C122.626 18.376 122.394 18.6213 122.101 18.792C121.813 18.9573 121.482 19.04 121.109 19.04ZM121.149 18.536C121.447 18.536 121.714 18.4693 121.949 18.336C122.189 18.1973 122.375 18.0053 122.509 17.76C122.647 17.5093 122.717 17.2213 122.717 16.896C122.717 16.5653 122.647 16.2773 122.509 16.032C122.375 15.7867 122.189 15.5973 121.949 15.464C121.714 15.3253 121.447 15.256 121.149 15.256C120.855 15.256 120.591 15.3253 120.357 15.464C120.122 15.5973 119.935 15.7867 119.797 16.032C119.658 16.2773 119.589 16.5653 119.589 16.896C119.589 17.2213 119.658 17.5093 119.797 17.76C119.935 18.0053 120.122 18.1973 120.357 18.336C120.591 18.4693 120.855 18.536 121.149 18.536ZM122.733 19V17.736L122.789 16.888L122.709 16.04V13.064H123.277V19H122.733ZM128.664 19.04C128.259 19.04 127.893 18.9493 127.568 18.768C127.248 18.5813 126.995 18.328 126.808 18.008C126.621 17.6827 126.528 17.312 126.528 16.896C126.528 16.4747 126.621 16.104 126.808 15.784C126.995 15.464 127.248 15.2133 127.568 15.032C127.888 14.8507 128.253 14.76 128.664 14.76C129.08 14.76 129.448 14.8507 129.768 15.032C130.093 15.2133 130.347 15.464 130.528 15.784C130.715 16.104 130.808 16.4747 130.808 16.896C130.808 17.312 130.715 17.6827 130.528 18.008C130.347 18.328 130.093 18.5813 129.768 18.768C129.443 18.9493 129.075 19.04 128.664 19.04ZM128.664 18.536C128.968 18.536 129.237 18.4693 129.472 18.336C129.707 18.1973 129.891 18.0053 130.024 17.76C130.163 17.5093 130.232 17.2213 130.232 16.896C130.232 16.5653 130.163 16.2773 130.024 16.032C129.891 15.7867 129.707 15.5973 129.472 15.464C129.237 15.3253 128.971 15.256 128.672 15.256C128.373 15.256 128.107 15.3253 127.872 15.464C127.637 15.5973 127.451 15.7867 127.312 16.032C127.173 16.2773 127.104 16.5653 127.104 16.896C127.104 17.2213 127.173 17.5093 127.312 17.76C127.451 18.0053 127.637 18.1973 127.872 18.336C128.107 18.4693 128.371 18.536 128.664 18.536ZM134.112 14.76C134.453 14.76 134.752 14.8267 135.008 14.96C135.269 15.088 135.472 15.2853 135.616 15.552C135.765 15.8187 135.84 16.1547 135.84 16.56V19H135.272V16.616C135.272 16.1733 135.16 15.84 134.936 15.616C134.717 15.3867 134.408 15.272 134.008 15.272C133.709 15.272 133.448 15.3333 133.224 15.456C133.005 15.5733 132.834 15.7467 132.712 15.976C132.594 16.2 132.536 16.472 132.536 16.792V19H131.968V14.8H132.512V15.952L132.424 15.736C132.557 15.432 132.77 15.1947 133.064 15.024C133.357 14.848 133.706 14.76 134.112 14.76ZM140.796 19.04C140.401 19.04 140.097 18.9333 139.884 18.72C139.67 18.5067 139.564 18.2053 139.564 17.816V13.872H140.132V17.784C140.132 18.0293 140.193 18.2187 140.316 18.352C140.444 18.4853 140.625 18.552 140.86 18.552C141.11 18.552 141.318 18.48 141.484 18.336L141.684 18.744C141.572 18.8453 141.436 18.92 141.276 18.968C141.121 19.016 140.961 19.04 140.796 19.04ZM138.812 15.272V14.8H141.412V15.272H138.812ZM144.862 14.76C145.203 14.76 145.502 14.8267 145.758 14.96C146.019 15.088 146.222 15.2853 146.366 15.552C146.515 15.8187 146.59 16.1547 146.59 16.56V19H146.022V16.616C146.022 16.1733 145.91 15.84 145.686 15.616C145.467 15.3867 145.158 15.272 144.758 15.272C144.459 15.272 144.198 15.3333 143.974 15.456C143.755 15.5733 143.584 15.7467 143.462 15.976C143.344 16.2 143.286 16.472 143.286 16.792V19H142.718V13.064H143.286V15.952L143.174 15.736C143.307 15.432 143.52 15.1947 143.814 15.024C144.107 14.848 144.456 14.76 144.862 14.76ZM149.908 19.04C149.471 19.04 149.087 18.9493 148.756 18.768C148.425 18.5813 148.167 18.328 147.98 18.008C147.793 17.6827 147.7 17.312 147.7 16.896C147.7 16.48 147.788 16.112 147.964 15.792C148.145 15.472 148.391 15.2213 148.7 15.04C149.015 14.8533 149.367 14.76 149.756 14.76C150.151 14.76 150.5 14.8507 150.804 15.032C151.113 15.208 151.356 15.4587 151.532 15.784C151.708 16.104 151.796 16.4747 151.796 16.896C151.796 16.9227 151.793 16.952 151.788 16.984C151.788 17.0107 151.788 17.04 151.788 17.072H148.132V16.648H151.484L151.26 16.816C151.26 16.512 151.193 16.2427 151.06 16.008C150.932 15.768 150.756 15.5813 150.532 15.448C150.308 15.3147 150.049 15.248 149.756 15.248C149.468 15.248 149.209 15.3147 148.98 15.448C148.751 15.5813 148.572 15.768 148.444 16.008C148.316 16.248 148.252 16.5227 148.252 16.832V16.92C148.252 17.24 148.321 17.5227 148.46 17.768C148.604 18.008 148.801 18.1973 149.052 18.336C149.308 18.4693 149.599 18.536 149.924 18.536C150.18 18.536 150.417 18.4907 150.636 18.4C150.86 18.3093 151.052 18.1707 151.212 17.984L151.532 18.352C151.345 18.576 151.111 18.7467 150.828 18.864C150.551 18.9813 150.244 19.04 149.908 19.04Z" fill="white"/>
<path d="M82.8718 38L87.9918 26.8H89.1598L94.2798 38H93.0318L88.3278 27.488H88.8078L84.1038 38H82.8718ZM84.8878 35.008L85.2398 34.048H91.7518L92.1038 35.008H84.8878ZM100.229 38.08C99.5033 38.08 98.8473 37.9147 98.2606 37.584C97.6739 37.2427 97.2046 36.7573 96.8526 36.128C96.5113 35.488 96.3406 34.7093 96.3406 33.792C96.3406 32.8747 96.5113 32.1013 96.8526 31.472C97.1939 30.832 97.6579 30.3467 98.2446 30.016C98.8313 29.6853 99.4926 29.52 100.229 29.52C101.029 29.52 101.743 29.7013 102.373 30.064C103.013 30.416 103.514 30.9173 103.877 31.568C104.239 32.208 104.421 32.9493 104.421 33.792C104.421 34.6453 104.239 35.392 103.877 36.032C103.514 36.672 103.013 37.1733 102.373 37.536C101.743 37.8987 101.029 38.08 100.229 38.08ZM95.8926 41.104V29.6H96.9806V32.128L96.8686 33.808L97.0286 35.504V41.104H95.8926ZM100.149 37.072C100.746 37.072 101.279 36.9387 101.749 36.672C102.218 36.3947 102.591 36.0107 102.869 35.52C103.146 35.0187 103.285 34.4427 103.285 33.792C103.285 33.1413 103.146 32.5707 102.869 32.08C102.591 31.5893 102.218 31.2053 101.749 30.928C101.279 30.6507 100.746 30.512 100.149 30.512C99.5513 30.512 99.0126 30.6507 98.5326 30.928C98.0633 31.2053 97.6899 31.5893 97.4126 32.08C97.1459 32.5707 97.0126 33.1413 97.0126 33.792C97.0126 34.4427 97.1459 35.0187 97.4126 35.52C97.6899 36.0107 98.0633 36.3947 98.5326 36.672C99.0126 36.9387 99.5513 37.072 100.149 37.072ZM111.072 38.08C110.347 38.08 109.691 37.9147 109.104 37.584C108.518 37.2427 108.048 36.7573 107.696 36.128C107.355 35.488 107.184 34.7093 107.184 33.792C107.184 32.8747 107.355 32.1013 107.696 31.472C108.038 30.832 108.502 30.3467 109.088 30.016C109.675 29.6853 110.336 29.52 111.072 29.52C111.872 29.52 112.587 29.7013 113.216 30.064C113.856 30.416 114.358 30.9173 114.72 31.568C115.083 32.208 115.264 32.9493 115.264 33.792C115.264 34.6453 115.083 35.392 114.72 36.032C114.358 36.672 113.856 37.1733 113.216 37.536C112.587 37.8987 111.872 38.08 111.072 38.08ZM106.736 41.104V29.6H107.824V32.128L107.712 33.808L107.872 35.504V41.104H106.736ZM110.992 37.072C111.59 37.072 112.123 36.9387 112.592 36.672C113.062 36.3947 113.435 36.0107 113.712 35.52C113.99 35.0187 114.128 34.4427 114.128 33.792C114.128 33.1413 113.99 32.5707 113.712 32.08C113.435 31.5893 113.062 31.2053 112.592 30.928C112.123 30.6507 111.59 30.512 110.992 30.512C110.395 30.512 109.856 30.6507 109.376 30.928C108.907 31.2053 108.534 31.5893 108.256 32.08C107.99 32.5707 107.856 33.1413 107.856 33.792C107.856 34.4427 107.99 35.0187 108.256 35.52C108.534 36.0107 108.907 36.3947 109.376 36.672C109.856 36.9387 110.395 37.072 110.992 37.072ZM125.096 38.096C124.264 38.096 123.464 37.9627 122.696 37.696C121.938 37.4187 121.352 37.0667 120.936 36.64L121.4 35.728C121.794 36.112 122.322 36.4373 122.984 36.704C123.656 36.96 124.36 37.088 125.096 37.088C125.8 37.088 126.37 37.0027 126.808 36.832C127.256 36.6507 127.581 36.4107 127.784 36.112C127.997 35.8133 128.104 35.4827 128.104 35.12C128.104 34.6827 127.976 34.3307 127.72 34.064C127.474 33.7973 127.149 33.5893 126.744 33.44C126.338 33.28 125.89 33.1413 125.4 33.024C124.909 32.9067 124.418 32.784 123.928 32.656C123.437 32.5173 122.984 32.336 122.568 32.112C122.162 31.888 121.832 31.5947 121.576 31.232C121.33 30.8587 121.208 30.3733 121.208 29.776C121.208 29.2213 121.352 28.7147 121.64 28.256C121.938 27.7867 122.392 27.4133 123 27.136C123.608 26.848 124.386 26.704 125.336 26.704C125.965 26.704 126.589 26.7947 127.208 26.976C127.826 27.1467 128.36 27.3867 128.808 27.696L128.408 28.64C127.928 28.32 127.416 28.0853 126.872 27.936C126.338 27.7867 125.821 27.712 125.32 27.712C124.648 27.712 124.093 27.8027 123.656 27.984C123.218 28.1653 122.893 28.4107 122.68 28.72C122.477 29.0187 122.376 29.36 122.376 29.744C122.376 30.1813 122.498 30.5333 122.744 30.8C123 31.0667 123.33 31.2747 123.736 31.424C124.152 31.5733 124.605 31.7067 125.096 31.824C125.586 31.9413 126.072 32.0693 126.552 32.208C127.042 32.3467 127.49 32.528 127.896 32.752C128.312 32.9653 128.642 33.2533 128.888 33.616C129.144 33.9787 129.272 34.4533 129.272 35.04C129.272 35.584 129.122 36.0907 128.824 36.56C128.525 37.0187 128.066 37.392 127.448 37.68C126.84 37.9573 126.056 38.096 125.096 38.096ZM134.267 38.08C133.478 38.08 132.87 37.8667 132.443 37.44C132.017 37.0133 131.803 36.4107 131.803 35.632V27.744H132.939V35.568C132.939 36.0587 133.062 36.4373 133.307 36.704C133.563 36.9707 133.926 37.104 134.395 37.104C134.897 37.104 135.313 36.96 135.643 36.672L136.043 37.488C135.819 37.6907 135.547 37.84 135.227 37.936C134.918 38.032 134.598 38.08 134.267 38.08ZM130.299 30.544V29.6H135.499V30.544H130.299ZM141.238 38.08C140.428 38.08 139.697 37.8987 139.046 37.536C138.406 37.1627 137.9 36.656 137.526 36.016C137.153 35.3653 136.966 34.624 136.966 33.792C136.966 32.9493 137.153 32.208 137.526 31.568C137.9 30.928 138.406 30.4267 139.046 30.064C139.686 29.7013 140.417 29.52 141.238 29.52C142.07 29.52 142.806 29.7013 143.446 30.064C144.097 30.4267 144.604 30.928 144.966 31.568C145.34 32.208 145.526 32.9493 145.526 33.792C145.526 34.624 145.34 35.3653 144.966 36.016C144.604 36.656 144.097 37.1627 143.446 37.536C142.796 37.8987 142.06 38.08 141.238 38.08ZM141.238 37.072C141.846 37.072 142.385 36.9387 142.854 36.672C143.324 36.3947 143.692 36.0107 143.958 35.52C144.236 35.0187 144.374 34.4427 144.374 33.792C144.374 33.1307 144.236 32.5547 143.958 32.064C143.692 31.5733 143.324 31.1947 142.854 30.928C142.385 30.6507 141.852 30.512 141.254 30.512C140.657 30.512 140.124 30.6507 139.654 30.928C139.185 31.1947 138.812 31.5733 138.534 32.064C138.257 32.5547 138.118 33.1307 138.118 33.792C138.118 34.4427 138.257 35.0187 138.534 35.52C138.812 36.0107 139.185 36.3947 139.654 36.672C140.124 36.9387 140.652 37.072 141.238 37.072ZM147.846 38V29.6H148.934V31.888L148.822 31.488C149.056 30.848 149.451 30.3627 150.006 30.032C150.56 29.6907 151.248 29.52 152.07 29.52V30.624C152.027 30.624 151.984 30.624 151.942 30.624C151.899 30.6133 151.856 30.608 151.814 30.608C150.928 30.608 150.235 30.88 149.734 31.424C149.232 31.9573 148.982 32.72 148.982 33.712V38H147.846ZM157.632 38.08C156.758 38.08 155.99 37.8987 155.328 37.536C154.667 37.1627 154.15 36.656 153.776 36.016C153.403 35.3653 153.216 34.624 153.216 33.792C153.216 32.96 153.392 32.224 153.744 31.584C154.107 30.944 154.598 30.4427 155.216 30.08C155.846 29.7067 156.55 29.52 157.328 29.52C158.118 29.52 158.816 29.7013 159.424 30.064C160.043 30.416 160.528 30.9173 160.88 31.568C161.232 32.208 161.408 32.9493 161.408 33.792C161.408 33.8453 161.403 33.904 161.392 33.968C161.392 34.0213 161.392 34.08 161.392 34.144H154.08V33.296H160.784L160.336 33.632C160.336 33.024 160.203 32.4853 159.936 32.016C159.68 31.536 159.328 31.1627 158.88 30.896C158.432 30.6293 157.915 30.496 157.328 30.496C156.752 30.496 156.235 30.6293 155.776 30.896C155.318 31.1627 154.96 31.536 154.704 32.016C154.448 32.496 154.32 33.0453 154.32 33.664V33.84C154.32 34.48 154.459 35.0453 154.736 35.536C155.024 36.016 155.419 36.3947 155.92 36.672C156.432 36.9387 157.014 37.072 157.664 37.072C158.176 37.072 158.651 36.9813 159.088 36.8C159.536 36.6187 159.92 36.3413 160.24 35.968L160.88 36.704C160.507 37.152 160.038 37.4933 159.472 37.728C158.918 37.9627 158.304 38.08 157.632 38.08Z" fill="white"/>
<rect x="0.5" y="0.5" width="174" height="55" rx="7.5" stroke="#A0A0AB"/>
<defs>
<clipPath id="clip0_1838_9334">
<rect width="23" height="28" fill="white" transform="translate(21 14)"/>
</clipPath>
</defs>
</svg>
