<svg width="175" height="56" viewBox="0 0 175 56" fill="none" xmlns="http://www.w3.org/2000/svg">
<rect x="0.5" y="0.5" width="174" height="55" rx="7.5" fill="black"/>
<g clip-path="url(#clip0_1838_9341)">
<path d="M39.2791 32.0145C42.3564 30.3303 44.7065 29.0438 44.9203 28.9266C45.558 28.5775 46.2262 27.6868 44.9203 26.9748C44.5006 26.7455 42.2136 25.4985 39.2755 23.8955L35.2344 27.9676L39.2791 32.0145Z" fill="url(#paint0_linear_1838_9341)"/>
<path d="M35.2356 27.9678L22.3105 40.9915C22.6024 41.0285 22.9535 40.9512 23.3573 40.7302C24.1933 40.2726 33.1713 35.3583 39.2805 32.0143L35.2356 27.9678Z" fill="url(#paint1_linear_1838_9341)"/>
<path d="M35.2351 27.9674L39.2762 23.8953C39.2762 23.8953 24.256 15.7006 23.3568 15.21C23.0112 15.0214 22.6343 14.9556 22.3008 15.0299L35.2351 27.9674Z" fill="url(#paint2_linear_1838_9341)"/>
<path d="M35.2347 27.9676L22.3002 15.0303C21.766 15.1494 21.3281 15.6118 21.3281 16.5412C21.3281 18.051 21.3281 38.1715 21.3281 39.4391C21.3281 40.3144 21.6725 40.9299 22.3095 40.9913L35.2347 27.9676Z" fill="url(#paint3_linear_1838_9341)"/>
</g>
<path d="M67.7421 19V13.4H70.0221C70.6194 13.4 71.1421 13.52 71.5901 13.76C72.0434 13.9947 72.3954 14.3227 72.6461 14.744C72.8967 15.1653 73.0221 15.6507 73.0221 16.2C73.0221 16.7493 72.8967 17.2347 72.6461 17.656C72.3954 18.0773 72.0434 18.408 71.5901 18.648C71.1421 18.8827 70.6194 19 70.0221 19H67.7421ZM68.3341 18.488H69.9901C70.4861 18.488 70.9154 18.392 71.2781 18.2C71.6461 18.0027 71.9314 17.7333 72.1341 17.392C72.3367 17.0453 72.4381 16.648 72.4381 16.2C72.4381 15.7467 72.3367 15.3493 72.1341 15.008C71.9314 14.6667 71.6461 14.4 71.2781 14.208C70.9154 14.0107 70.4861 13.912 69.9901 13.912H68.3341V18.488ZM75.9435 19.04C75.5381 19.04 75.1728 18.9493 74.8475 18.768C74.5275 18.5813 74.2741 18.328 74.0875 18.008C73.9008 17.6827 73.8075 17.312 73.8075 16.896C73.8075 16.4747 73.9008 16.104 74.0875 15.784C74.2741 15.464 74.5275 15.2133 74.8475 15.032C75.1675 14.8507 75.5328 14.76 75.9435 14.76C76.3595 14.76 76.7275 14.8507 77.0475 15.032C77.3728 15.2133 77.6261 15.464 77.8075 15.784C77.9941 16.104 78.0875 16.4747 78.0875 16.896C78.0875 17.312 77.9941 17.6827 77.8075 18.008C77.6261 18.328 77.3728 18.5813 77.0475 18.768C76.7221 18.9493 76.3541 19.04 75.9435 19.04ZM75.9435 18.536C76.2475 18.536 76.5168 18.4693 76.7515 18.336C76.9861 18.1973 77.1701 18.0053 77.3035 17.76C77.4421 17.5093 77.5115 17.2213 77.5115 16.896C77.5115 16.5653 77.4421 16.2773 77.3035 16.032C77.1701 15.7867 76.9861 15.5973 76.7515 15.464C76.5168 15.3253 76.2501 15.256 75.9515 15.256C75.6528 15.256 75.3861 15.3253 75.1515 15.464C74.9168 15.5973 74.7301 15.7867 74.5915 16.032C74.4528 16.2773 74.3835 16.5653 74.3835 16.896C74.3835 17.2213 74.4528 17.5093 74.5915 17.76C74.7301 18.0053 74.9168 18.1973 75.1515 18.336C75.3861 18.4693 75.6501 18.536 75.9435 18.536ZM79.9859 19L78.4019 14.8H78.9459L80.3859 18.696H80.1379L81.6179 14.8H82.1059L83.5699 18.696H83.3219L84.7859 14.8H85.3059L83.7139 19H83.1779L81.7699 15.336H81.9379L80.5219 19H79.9859ZM88.3051 14.76C88.6465 14.76 88.9451 14.8267 89.2011 14.96C89.4625 15.088 89.6651 15.2853 89.8091 15.552C89.9585 15.8187 90.0331 16.1547 90.0331 16.56V19H89.4651V16.616C89.4651 16.1733 89.3531 15.84 89.1291 15.616C88.9105 15.3867 88.6011 15.272 88.2011 15.272C87.9025 15.272 87.6411 15.3333 87.4171 15.456C87.1985 15.5733 87.0278 15.7467 86.9051 15.976C86.7878 16.2 86.7291 16.472 86.7291 16.792V19H86.1611V14.8H86.7051V15.952L86.6171 15.736C86.7505 15.432 86.9638 15.1947 87.2571 15.024C87.5505 14.848 87.8998 14.76 88.3051 14.76ZM91.5674 19V13.064H92.1354V19H91.5674ZM95.4278 19.04C95.0225 19.04 94.6572 18.9493 94.3318 18.768C94.0118 18.5813 93.7585 18.328 93.5718 18.008C93.3852 17.6827 93.2918 17.312 93.2918 16.896C93.2918 16.4747 93.3852 16.104 93.5718 15.784C93.7585 15.464 94.0118 15.2133 94.3318 15.032C94.6518 14.8507 95.0172 14.76 95.4278 14.76C95.8438 14.76 96.2118 14.8507 96.5318 15.032C96.8572 15.2133 97.1105 15.464 97.2918 15.784C97.4785 16.104 97.5718 16.4747 97.5718 16.896C97.5718 17.312 97.4785 17.6827 97.2918 18.008C97.1105 18.328 96.8572 18.5813 96.5318 18.768C96.2065 18.9493 95.8385 19.04 95.4278 19.04ZM95.4278 18.536C95.7318 18.536 96.0012 18.4693 96.2358 18.336C96.4705 18.1973 96.6545 18.0053 96.7878 17.76C96.9265 17.5093 96.9958 17.2213 96.9958 16.896C96.9958 16.5653 96.9265 16.2773 96.7878 16.032C96.6545 15.7867 96.4705 15.5973 96.2358 15.464C96.0012 15.3253 95.7345 15.256 95.4358 15.256C95.1372 15.256 94.8705 15.3253 94.6358 15.464C94.4012 15.5973 94.2145 15.7867 94.0758 16.032C93.9372 16.2773 93.8678 16.5653 93.8678 16.896C93.8678 17.2213 93.9372 17.5093 94.0758 17.76C94.2145 18.0053 94.4012 18.1973 94.6358 18.336C94.8705 18.4693 95.1345 18.536 95.4278 18.536ZM101.34 19V18.072L101.316 17.92V16.368C101.316 16.0107 101.215 15.736 101.012 15.544C100.815 15.352 100.519 15.256 100.124 15.256C99.852 15.256 99.5933 15.3013 99.348 15.392C99.1027 15.4827 98.8947 15.6027 98.724 15.752L98.468 15.328C98.6813 15.1467 98.9373 15.008 99.236 14.912C99.5347 14.8107 99.8493 14.76 100.18 14.76C100.724 14.76 101.143 14.896 101.436 15.168C101.735 15.4347 101.884 15.8427 101.884 16.392V19H101.34ZM99.892 19.04C99.5773 19.04 99.3027 18.9893 99.068 18.888C98.8387 18.7813 98.6627 18.6373 98.54 18.456C98.4173 18.2693 98.356 18.056 98.356 17.816C98.356 17.5973 98.4067 17.4 98.508 17.224C98.6147 17.0427 98.7853 16.8987 99.02 16.792C99.26 16.68 99.58 16.624 99.98 16.624H101.428V17.048H99.996C99.5907 17.048 99.308 17.12 99.148 17.264C98.9933 17.408 98.916 17.5867 98.916 17.8C98.916 18.04 99.0093 18.232 99.196 18.376C99.3827 18.52 99.644 18.592 99.98 18.592C100.3 18.592 100.575 18.52 100.804 18.376C101.039 18.2267 101.209 18.0133 101.316 17.736L101.444 18.128C101.337 18.4053 101.151 18.6267 100.884 18.792C100.623 18.9573 100.292 19.04 99.892 19.04ZM105.099 19.04C104.699 19.04 104.339 18.9493 104.019 18.768C103.704 18.5867 103.456 18.336 103.275 18.016C103.093 17.6907 103.003 17.3173 103.003 16.896C103.003 16.4693 103.093 16.096 103.275 15.776C103.456 15.456 103.704 15.208 104.019 15.032C104.339 14.8507 104.699 14.76 105.099 14.76C105.467 14.76 105.795 14.8427 106.083 15.008C106.376 15.1733 106.608 15.416 106.779 15.736C106.955 16.0507 107.043 16.4373 107.043 16.896C107.043 17.3493 106.957 17.736 106.787 18.056C106.616 18.376 106.384 18.6213 106.091 18.792C105.803 18.9573 105.472 19.04 105.099 19.04ZM105.139 18.536C105.437 18.536 105.704 18.4693 105.939 18.336C106.179 18.1973 106.365 18.0053 106.499 17.76C106.637 17.5093 106.707 17.2213 106.707 16.896C106.707 16.5653 106.637 16.2773 106.499 16.032C106.365 15.7867 106.179 15.5973 105.939 15.464C105.704 15.3253 105.437 15.256 105.139 15.256C104.845 15.256 104.581 15.3253 104.347 15.464C104.112 15.5973 103.925 15.7867 103.787 16.032C103.648 16.2773 103.579 16.5653 103.579 16.896C103.579 17.2213 103.648 17.5093 103.787 17.76C103.925 18.0053 104.112 18.1973 104.347 18.336C104.581 18.4693 104.845 18.536 105.139 18.536ZM106.723 19V17.736L106.779 16.888L106.699 16.04V13.064H107.267V19H106.723ZM112.654 19.04C112.249 19.04 111.884 18.9493 111.558 18.768C111.238 18.5813 110.985 18.328 110.798 18.008C110.612 17.6827 110.518 17.312 110.518 16.896C110.518 16.4747 110.612 16.104 110.798 15.784C110.985 15.464 111.238 15.2133 111.558 15.032C111.878 14.8507 112.244 14.76 112.654 14.76C113.07 14.76 113.438 14.8507 113.758 15.032C114.084 15.2133 114.337 15.464 114.518 15.784C114.705 16.104 114.798 16.4747 114.798 16.896C114.798 17.312 114.705 17.6827 114.518 18.008C114.337 18.328 114.084 18.5813 113.758 18.768C113.433 18.9493 113.065 19.04 112.654 19.04ZM112.654 18.536C112.958 18.536 113.228 18.4693 113.462 18.336C113.697 18.1973 113.881 18.0053 114.014 17.76C114.153 17.5093 114.222 17.2213 114.222 16.896C114.222 16.5653 114.153 16.2773 114.014 16.032C113.881 15.7867 113.697 15.5973 113.462 15.464C113.228 15.3253 112.961 15.256 112.662 15.256C112.364 15.256 112.097 15.3253 111.862 15.464C111.628 15.5973 111.441 15.7867 111.302 16.032C111.164 16.2773 111.094 16.5653 111.094 16.896C111.094 17.2213 111.164 17.5093 111.302 17.76C111.441 18.0053 111.628 18.1973 111.862 18.336C112.097 18.4693 112.361 18.536 112.654 18.536ZM118.102 14.76C118.443 14.76 118.742 14.8267 118.998 14.96C119.259 15.088 119.462 15.2853 119.606 15.552C119.755 15.8187 119.83 16.1547 119.83 16.56V19H119.262V16.616C119.262 16.1733 119.15 15.84 118.926 15.616C118.707 15.3867 118.398 15.272 117.998 15.272C117.699 15.272 117.438 15.3333 117.214 15.456C116.995 15.5733 116.825 15.7467 116.702 15.976C116.585 16.2 116.526 16.472 116.526 16.792V19H115.958V14.8H116.502V15.952L116.414 15.736C116.547 15.432 116.761 15.1947 117.054 15.024C117.347 14.848 117.697 14.76 118.102 14.76ZM124.786 19.04C124.391 19.04 124.087 18.9333 123.874 18.72C123.661 18.5067 123.554 18.2053 123.554 17.816V13.872H124.122V17.784C124.122 18.0293 124.183 18.2187 124.306 18.352C124.434 18.4853 124.615 18.552 124.85 18.552C125.101 18.552 125.309 18.48 125.474 18.336L125.674 18.744C125.562 18.8453 125.426 18.92 125.266 18.968C125.111 19.016 124.951 19.04 124.786 19.04ZM122.802 15.272V14.8H125.402V15.272H122.802ZM128.852 14.76C129.193 14.76 129.492 14.8267 129.748 14.96C130.009 15.088 130.212 15.2853 130.356 15.552C130.505 15.8187 130.58 16.1547 130.58 16.56V19H130.012V16.616C130.012 16.1733 129.9 15.84 129.676 15.616C129.457 15.3867 129.148 15.272 128.748 15.272C128.449 15.272 128.188 15.3333 127.964 15.456C127.745 15.5733 127.575 15.7467 127.452 15.976C127.335 16.2 127.276 16.472 127.276 16.792V19H126.708V13.064H127.276V15.952L127.164 15.736C127.297 15.432 127.511 15.1947 127.804 15.024C128.097 14.848 128.447 14.76 128.852 14.76ZM133.898 19.04C133.461 19.04 133.077 18.9493 132.746 18.768C132.416 18.5813 132.157 18.328 131.97 18.008C131.784 17.6827 131.69 17.312 131.69 16.896C131.69 16.48 131.778 16.112 131.954 15.792C132.136 15.472 132.381 15.2213 132.69 15.04C133.005 14.8533 133.357 14.76 133.746 14.76C134.141 14.76 134.49 14.8507 134.794 15.032C135.104 15.208 135.346 15.4587 135.522 15.784C135.698 16.104 135.786 16.4747 135.786 16.896C135.786 16.9227 135.784 16.952 135.778 16.984C135.778 17.0107 135.778 17.04 135.778 17.072H132.122V16.648H135.474L135.25 16.816C135.25 16.512 135.184 16.2427 135.05 16.008C134.922 15.768 134.746 15.5813 134.522 15.448C134.298 15.3147 134.04 15.248 133.746 15.248C133.458 15.248 133.2 15.3147 132.97 15.448C132.741 15.5813 132.562 15.768 132.434 16.008C132.306 16.248 132.242 16.5227 132.242 16.832V16.92C132.242 17.24 132.312 17.5227 132.45 17.768C132.594 18.008 132.792 18.1973 133.042 18.336C133.298 18.4693 133.589 18.536 133.914 18.536C134.17 18.536 134.408 18.4907 134.626 18.4C134.85 18.3093 135.042 18.1707 135.202 17.984L135.522 18.352C135.336 18.576 135.101 18.7467 134.818 18.864C134.541 18.9813 134.234 19.04 133.898 19.04Z" fill="white"/>
<path d="M73.5661 38.096C72.7127 38.096 71.9234 37.9573 71.1981 37.68C70.4834 37.392 69.8594 36.992 69.3261 36.48C68.8034 35.968 68.3927 35.3653 68.0941 34.672C67.8061 33.9787 67.6621 33.2213 67.6621 32.4C67.6621 31.5787 67.8061 30.8213 68.0941 30.128C68.3927 29.4347 68.8087 28.832 69.3421 28.32C69.8754 27.808 70.4994 27.4133 71.2141 27.136C71.9394 26.848 72.7287 26.704 73.5821 26.704C74.4354 26.704 75.2141 26.8373 75.9181 27.104C76.6327 27.3707 77.2407 27.776 77.7421 28.32L77.0061 29.072C76.5367 28.6027 76.0194 28.2667 75.4541 28.064C74.8887 27.8613 74.2807 27.76 73.6301 27.76C72.9367 27.76 72.2967 27.8773 71.7101 28.112C71.1341 28.336 70.6274 28.6613 70.1901 29.088C69.7634 29.504 69.4274 29.9947 69.1821 30.56C68.9474 31.1147 68.8301 31.728 68.8301 32.4C68.8301 33.0613 68.9474 33.6747 69.1821 34.24C69.4274 34.8053 69.7634 35.3013 70.1901 35.728C70.6274 36.144 71.1341 36.4693 71.7101 36.704C72.2967 36.928 72.9314 37.04 73.6141 37.04C74.2541 37.04 74.8567 36.944 75.4221 36.752C75.9981 36.56 76.5261 36.2347 77.0061 35.776L77.6781 36.672C77.1447 37.1413 76.5207 37.4987 75.8061 37.744C75.0914 37.9787 74.3447 38.096 73.5661 38.096ZM76.5421 36.528V32.4H77.6781V36.672L76.5421 36.528ZM84.2131 38.08C83.4024 38.08 82.6717 37.8987 82.0211 37.536C81.3811 37.1627 80.8744 36.656 80.5011 36.016C80.1277 35.3653 79.9411 34.624 79.9411 33.792C79.9411 32.9493 80.1277 32.208 80.5011 31.568C80.8744 30.928 81.3811 30.4267 82.0211 30.064C82.6611 29.7013 83.3917 29.52 84.2131 29.52C85.0451 29.52 85.7811 29.7013 86.4211 30.064C87.0717 30.4267 87.5784 30.928 87.9411 31.568C88.3144 32.208 88.5011 32.9493 88.5011 33.792C88.5011 34.624 88.3144 35.3653 87.9411 36.016C87.5784 36.656 87.0717 37.1627 86.4211 37.536C85.7704 37.8987 85.0344 38.08 84.2131 38.08ZM84.2131 37.072C84.8211 37.072 85.3597 36.9387 85.8291 36.672C86.2984 36.3947 86.6664 36.0107 86.9331 35.52C87.2104 35.0187 87.3491 34.4427 87.3491 33.792C87.3491 33.1307 87.2104 32.5547 86.9331 32.064C86.6664 31.5733 86.2984 31.1947 85.8291 30.928C85.3597 30.6507 84.8264 30.512 84.2291 30.512C83.6317 30.512 83.0984 30.6507 82.6291 30.928C82.1597 31.1947 81.7864 31.5733 81.5091 32.064C81.2317 32.5547 81.0931 33.1307 81.0931 33.792C81.0931 34.4427 81.2317 35.0187 81.5091 35.52C81.7864 36.0107 82.1597 36.3947 82.6291 36.672C83.0984 36.9387 83.6264 37.072 84.2131 37.072ZM94.2443 38.08C93.4337 38.08 92.703 37.8987 92.0523 37.536C91.4123 37.1627 90.9057 36.656 90.5323 36.016C90.159 35.3653 89.9723 34.624 89.9723 33.792C89.9723 32.9493 90.159 32.208 90.5323 31.568C90.9057 30.928 91.4123 30.4267 92.0523 30.064C92.6923 29.7013 93.423 29.52 94.2443 29.52C95.0763 29.52 95.8123 29.7013 96.4523 30.064C97.103 30.4267 97.6097 30.928 97.9723 31.568C98.3457 32.208 98.5323 32.9493 98.5323 33.792C98.5323 34.624 98.3457 35.3653 97.9723 36.016C97.6097 36.656 97.103 37.1627 96.4523 37.536C95.8017 37.8987 95.0657 38.08 94.2443 38.08ZM94.2443 37.072C94.8523 37.072 95.391 36.9387 95.8603 36.672C96.3297 36.3947 96.6977 36.0107 96.9643 35.52C97.2417 35.0187 97.3803 34.4427 97.3803 33.792C97.3803 33.1307 97.2417 32.5547 96.9643 32.064C96.6977 31.5733 96.3297 31.1947 95.8603 30.928C95.391 30.6507 94.8577 30.512 94.2603 30.512C93.663 30.512 93.1297 30.6507 92.6603 30.928C92.191 31.1947 91.8177 31.5733 91.5403 32.064C91.263 32.5547 91.1243 33.1307 91.1243 33.792C91.1243 34.4427 91.263 35.0187 91.5403 35.52C91.8177 36.0107 92.191 36.3947 92.6603 36.672C93.1297 36.9387 93.6577 37.072 94.2443 37.072ZM104.436 41.184C103.668 41.184 102.932 41.072 102.228 40.848C101.524 40.624 100.953 40.304 100.516 39.888L101.092 39.024C101.486 39.376 101.972 39.6533 102.548 39.856C103.134 40.0693 103.753 40.176 104.404 40.176C105.47 40.176 106.254 39.9253 106.756 39.424C107.257 38.9333 107.508 38.1653 107.508 37.12V35.024L107.668 33.584L107.556 32.144V29.6H108.644V36.976C108.644 38.4267 108.286 39.488 107.572 40.16C106.868 40.8427 105.822 41.184 104.436 41.184ZM104.228 37.68C103.428 37.68 102.708 37.5093 102.068 37.168C101.428 36.816 100.921 36.3307 100.548 35.712C100.185 35.0933 100.004 34.384 100.004 33.584C100.004 32.784 100.185 32.08 100.548 31.472C100.921 30.8533 101.428 30.3733 102.068 30.032C102.708 29.6907 103.428 29.52 104.228 29.52C104.974 29.52 105.646 29.6747 106.244 29.984C106.841 30.2933 107.316 30.752 107.668 31.36C108.02 31.968 108.196 32.7093 108.196 33.584C108.196 34.4587 108.02 35.2 107.668 35.808C107.316 36.416 106.841 36.88 106.244 37.2C105.646 37.52 104.974 37.68 104.228 37.68ZM104.34 36.672C104.958 36.672 105.508 36.544 105.988 36.288C106.468 36.0213 106.846 35.6587 107.124 35.2C107.401 34.7307 107.54 34.192 107.54 33.584C107.54 32.976 107.401 32.4427 107.124 31.984C106.846 31.5253 106.468 31.168 105.988 30.912C105.508 30.6453 104.958 30.512 104.34 30.512C103.732 30.512 103.182 30.6453 102.692 30.912C102.212 31.168 101.833 31.5253 101.556 31.984C101.289 32.4427 101.156 32.976 101.156 33.584C101.156 34.192 101.289 34.7307 101.556 35.2C101.833 35.6587 102.212 36.0213 102.692 36.288C103.182 36.544 103.732 36.672 104.34 36.672ZM111.805 38V26.128H112.941V38H111.805ZM119.67 38.08C118.795 38.08 118.027 37.8987 117.366 37.536C116.704 37.1627 116.187 36.656 115.814 36.016C115.44 35.3653 115.254 34.624 115.254 33.792C115.254 32.96 115.43 32.224 115.782 31.584C116.144 30.944 116.635 30.4427 117.254 30.08C117.883 29.7067 118.587 29.52 119.366 29.52C120.155 29.52 120.854 29.7013 121.462 30.064C122.08 30.416 122.566 30.9173 122.918 31.568C123.27 32.208 123.446 32.9493 123.446 33.792C123.446 33.8453 123.44 33.904 123.43 33.968C123.43 34.0213 123.43 34.08 123.43 34.144H116.118V33.296H122.822L122.374 33.632C122.374 33.024 122.24 32.4853 121.974 32.016C121.718 31.536 121.366 31.1627 120.918 30.896C120.47 30.6293 119.952 30.496 119.366 30.496C118.79 30.496 118.272 30.6293 117.814 30.896C117.355 31.1627 116.998 31.536 116.742 32.016C116.486 32.496 116.358 33.0453 116.358 33.664V33.84C116.358 34.48 116.496 35.0453 116.774 35.536C117.062 36.016 117.456 36.3947 117.958 36.672C118.47 36.9387 119.051 37.072 119.702 37.072C120.214 37.072 120.688 36.9813 121.126 36.8C121.574 36.6187 121.958 36.3413 122.278 35.968L122.918 36.704C122.544 37.152 122.075 37.4933 121.51 37.728C120.955 37.9627 120.342 38.08 119.67 38.08ZM130.185 38V26.8H134.377C135.327 26.8 136.143 26.9547 136.825 27.264C137.508 27.5627 138.031 28 138.393 28.576C138.767 29.1413 138.953 29.8293 138.953 30.64C138.953 31.4293 138.767 32.112 138.393 32.688C138.031 33.2533 137.508 33.6907 136.825 34C136.143 34.3093 135.327 34.464 134.377 34.464H130.841L131.369 33.904V38H130.185ZM131.369 34L130.841 33.424H134.345C135.465 33.424 136.313 33.184 136.889 32.704C137.476 32.2133 137.769 31.5253 137.769 30.64C137.769 29.744 137.476 29.0507 136.889 28.56C136.313 28.0693 135.465 27.824 134.345 27.824H130.841L131.369 27.264V34ZM141.43 38V26.128H142.566V38H141.43ZM150.991 38V36.144L150.943 35.84V32.736C150.943 32.0213 150.74 31.472 150.335 31.088C149.94 30.704 149.348 30.512 148.559 30.512C148.015 30.512 147.497 30.6027 147.007 30.784C146.516 30.9653 146.1 31.2053 145.759 31.504L145.247 30.656C145.673 30.2933 146.185 30.016 146.783 29.824C147.38 29.6213 148.009 29.52 148.671 29.52C149.759 29.52 150.596 29.792 151.183 30.336C151.78 30.8693 152.079 31.6853 152.079 32.784V38H150.991ZM148.095 38.08C147.465 38.08 146.916 37.9787 146.447 37.776C145.988 37.5627 145.636 37.2747 145.391 36.912C145.145 36.5387 145.023 36.112 145.023 35.632C145.023 35.1947 145.124 34.8 145.327 34.448C145.54 34.0853 145.881 33.7973 146.351 33.584C146.831 33.36 147.471 33.248 148.271 33.248H151.167V34.096H148.303C147.492 34.096 146.927 34.24 146.607 34.528C146.297 34.816 146.143 35.1733 146.143 35.6C146.143 36.08 146.329 36.464 146.703 36.752C147.076 37.04 147.599 37.184 148.271 37.184C148.911 37.184 149.46 37.04 149.919 36.752C150.388 36.4533 150.729 36.0267 150.943 35.472L151.199 36.256C150.985 36.8107 150.612 37.2533 150.079 37.584C149.556 37.9147 148.895 38.08 148.095 38.08ZM155.072 41.184C154.677 41.184 154.298 41.12 153.936 40.992C153.584 40.864 153.28 40.672 153.024 40.416L153.552 39.568C153.765 39.7707 153.994 39.9253 154.24 40.032C154.496 40.1493 154.778 40.208 155.088 40.208C155.461 40.208 155.781 40.1013 156.048 39.888C156.325 39.6853 156.586 39.3227 156.832 38.8L157.376 37.568L157.504 37.392L160.96 29.6H162.08L157.872 39.008C157.637 39.552 157.376 39.984 157.088 40.304C156.81 40.624 156.506 40.848 156.176 40.976C155.845 41.1147 155.477 41.184 155.072 41.184ZM157.312 38.24L153.44 29.6H154.624L158.048 37.312L157.312 38.24Z" fill="white"/>
<rect x="0.5" y="0.5" width="174" height="55" rx="7.5" stroke="#A0A0AB"/>
<defs>
<linearGradient id="paint0_linear_1838_9341" x1="41.8931" y1="30.6827" x2="38.6081" y2="24.2356" gradientUnits="userSpaceOnUse">
<stop stop-color="#FCD08F"/>
<stop offset="1" stop-color="#F79673"/>
</linearGradient>
<linearGradient id="paint1_linear_1838_9341" x1="37.118" y1="29.723" x2="24.6102" y2="43.1359" gradientUnits="userSpaceOnUse">
<stop stop-color="#E74047"/>
<stop offset="1" stop-color="#7F50A0"/>
</linearGradient>
<linearGradient id="paint2_linear_1838_9341" x1="37.184" y1="26.0854" x2="24.4777" y2="12.9277" gradientUnits="userSpaceOnUse">
<stop stop-color="#E6FFAB"/>
<stop offset="1" stop-color="#47BEBC"/>
</linearGradient>
<linearGradient id="paint3_linear_1838_9341" x1="28.2816" y1="40.9913" x2="28.2816" y2="15.0304" gradientUnits="userSpaceOnUse">
<stop stop-color="#84E9DB"/>
<stop offset="1" stop-color="#197491"/>
</linearGradient>
<clipPath id="clip0_1838_9341">
<rect width="24.342" height="26" fill="white" transform="translate(21.3281 15)"/>
</clipPath>
</defs>
</svg>
