<svg width="20" height="20" viewBox="0 0 20 20" fill="none" xmlns="http://www.w3.org/2000/svg">
<g id="cloud-share 1" clip-path="url(#clip0_1763_34754)">
<path id="Vector" d="M17.5004 14.1668C16.854 14.1676 16.2333 14.4198 15.7696 14.8702L13.3029 13.636C13.3195 13.5359 13.3298 13.4349 13.3337 13.3335C13.3298 13.2321 13.3195 13.1311 13.3029 13.031L15.7696 11.7968C16.1849 12.1947 16.725 12.4368 17.2983 12.4822C17.8717 12.5276 18.4431 12.3736 18.9159 12.0461C19.3887 11.7187 19.7339 11.2379 19.893 10.6852C20.0521 10.1325 20.0154 9.54181 19.789 9.01307C19.5627 8.48434 19.1606 8.05005 18.6509 7.78369C18.1411 7.51733 17.555 7.43526 16.9917 7.55138C16.4284 7.66749 15.9225 7.97465 15.5596 8.42088C15.1968 8.86711 14.9992 9.42501 15.0004 10.0002C15.0043 10.1015 15.0146 10.2026 15.0312 10.3027L12.5646 11.5368C12.2117 11.1954 11.7662 10.9655 11.2835 10.8757C10.8009 10.7859 10.3025 10.8401 9.85046 11.0318C9.39845 11.2234 9.01286 11.5438 8.74179 11.9531C8.47072 12.3625 8.32617 12.8425 8.32617 13.3335C8.32617 13.8244 8.47072 14.3045 8.74179 14.7138C9.01286 15.1232 9.39845 15.4436 9.85046 15.6352C10.3025 15.8268 10.8009 15.8811 11.2835 15.7913C11.7662 15.7015 12.2117 15.4715 12.5646 15.1302L15.0312 16.3643C15.0146 16.4644 15.0043 16.5654 15.0004 16.6668C15.0004 17.1613 15.147 17.6446 15.4217 18.0557C15.6964 18.4669 16.0869 18.7873 16.5437 18.9765C17.0005 19.1657 17.5032 19.2152 17.9881 19.1188C18.4731 19.0223 18.9185 18.7842 19.2682 18.4346C19.6178 18.085 19.8559 17.6395 19.9524 17.1545C20.0488 16.6696 19.9993 16.1669 19.8101 15.7101C19.6209 15.2533 19.3004 14.8628 18.8893 14.5881C18.4782 14.3134 17.9948 14.1668 17.5004 14.1668ZM17.5004 9.16682C17.6652 9.16682 17.8263 9.21569 17.9634 9.30726C18.1004 9.39883 18.2072 9.52898 18.2703 9.68125C18.3334 9.83352 18.3499 10.0011 18.3177 10.1627C18.2856 10.3244 18.2062 10.4729 18.0896 10.5894C17.9731 10.706 17.8246 10.7853 17.663 10.8175C17.5013 10.8496 17.3338 10.8331 17.1815 10.7701C17.0292 10.707 16.8991 10.6002 16.8075 10.4631C16.7159 10.3261 16.6671 10.165 16.6671 10.0002C16.6671 9.77914 16.7549 9.56718 16.9111 9.4109C17.0674 9.25462 17.2794 9.16682 17.5004 9.16682ZM10.8337 14.1668C10.6689 14.1668 10.5078 14.1179 10.3708 14.0264C10.2337 13.9348 10.1269 13.8047 10.0638 13.6524C10.0008 13.5001 9.98425 13.3326 10.0164 13.1709C10.0486 13.0093 10.1279 12.8608 10.2445 12.7442C10.361 12.6277 10.5095 12.5483 10.6712 12.5162C10.8328 12.484 11.0004 12.5005 11.1526 12.5636C11.3049 12.6267 11.435 12.7335 11.5266 12.8705C11.6182 13.0076 11.6671 13.1687 11.6671 13.3335C11.6671 13.5545 11.5793 13.7665 11.423 13.9227C11.2667 14.079 11.0547 14.1668 10.8337 14.1668ZM17.5004 17.5002C17.3356 17.5002 17.1745 17.4513 17.0374 17.3597C16.9004 17.2681 16.7936 17.138 16.7305 16.9857C16.6674 16.8335 16.6509 16.6659 16.6831 16.5042C16.7152 16.3426 16.7946 16.1941 16.9111 16.0776C17.0277 15.961 17.1762 15.8817 17.3378 15.8495C17.4995 15.8173 17.667 15.8338 17.8193 15.8969C17.9716 15.96 18.1017 16.0668 18.1933 16.2038C18.2849 16.3409 18.3337 16.502 18.3337 16.6668C18.3337 16.8878 18.2459 17.0998 18.0896 17.2561C17.9334 17.4124 17.7214 17.5002 17.5004 17.5002Z" fill="#3772FF"/>
<path id="Vector_2" d="M13.3337 17.4998H4.58369C3.87404 17.5019 3.18809 17.2446 2.65495 16.7762C2.12181 16.3079 1.77826 15.6608 1.68895 14.9568C1.59964 14.2528 1.77074 13.5404 2.17005 12.9537C2.56935 12.3671 3.16932 11.9466 3.85702 11.7715L5.05535 11.4623L4.31869 10.469C3.67829 9.61163 3.33272 8.56996 3.33369 7.49983C3.34319 6.23815 3.82934 5.02671 4.69464 4.10845C5.55993 3.1902 6.74039 2.63303 7.99929 2.54868C9.25818 2.46434 10.5024 2.85905 11.4825 3.65366C12.4625 4.44827 13.106 5.58403 13.2837 6.83316L13.367 7.44649L14.8237 5.98983C14.45 4.39914 13.5052 3.00107 12.1686 2.06113C10.8321 1.12119 9.19685 0.70484 7.57352 0.891151C5.9502 1.07746 4.45182 1.85346 3.36296 3.07176C2.2741 4.29007 1.67058 5.86585 1.66702 7.49983C1.6662 8.56517 1.92354 9.61484 2.41702 10.559C1.51796 11.0408 0.805687 11.8092 0.39337 12.7422C-0.0189474 13.6751 -0.107659 14.7191 0.14133 15.7083C0.390319 16.6974 0.962726 17.575 1.76761 18.2016C2.57249 18.8282 3.56368 19.1678 4.58369 19.1665H13.3337C13.6045 19.1649 13.875 19.1468 14.1437 19.1123C13.7876 18.6337 13.5397 18.0836 13.417 17.4998C13.3895 17.4998 13.362 17.4998 13.3337 17.4998Z" fill="#3772FF"/>
</g>
<defs>
<clipPath id="clip0_1763_34754">
<rect width="20" height="20" fill="white"/>
</clipPath>
</defs>
</svg>
