<svg width="24" height="25" viewBox="0 0 24 25" fill="none" xmlns="http://www.w3.org/2000/svg">
<g id="Email">
<g id="sms">
<path id="Vector" d="M17 4.20117H7C4 4.20117 2 5.70117 2 9.20117V16.2012C2 19.7012 4 21.2012 7 21.2012H17C20 21.2012 22 19.7012 22 16.2012V9.20117C22 5.70117 20 4.20117 17 4.20117ZM17.47 10.2912L14.34 12.7912C13.68 13.3212 12.84 13.5812 12 13.5812C11.16 13.5812 10.31 13.3212 9.66 12.7912L6.53 10.2912C6.21 10.0312 6.16 9.55117 6.41 9.23117C6.67 8.91117 7.14 8.85117 7.46 9.11117L10.59 11.6112C11.35 12.2212 12.64 12.2212 13.4 11.6112L16.53 9.11117C16.85 8.85117 17.33 8.90117 17.58 9.23117C17.84 9.55117 17.79 10.0312 17.47 10.2912Z" fill="#4C6EF6"/>
</g>
</g>
</svg>
