<svg width="20" height="20" viewBox="0 0 20 20" fill="none" xmlns="http://www.w3.org/2000/svg">
<g id="confetti 1" clip-path="url(#clip0_1763_34763)">
<path id="Vector" d="M4.16634 11.6667C4.62658 11.6667 4.99967 11.2936 4.99967 10.8333C4.99967 10.3731 4.62658 10 4.16634 10C3.7061 10 3.33301 10.3731 3.33301 10.8333C3.33301 11.2936 3.7061 11.6667 4.16634 11.6667Z" fill="#3772FF"/>
<path id="Vector_2" d="M0.833333 8.33317C1.29357 8.33317 1.66667 7.96007 1.66667 7.49984C1.66667 7.0396 1.29357 6.6665 0.833333 6.6665C0.373096 6.6665 0 7.0396 0 7.49984C0 7.96007 0.373096 8.33317 0.833333 8.33317Z" fill="#3772FF"/>
<path id="Vector_3" d="M4.16634 5.00016C4.62658 5.00016 4.99967 4.62707 4.99967 4.16683C4.99967 3.70659 4.62658 3.3335 4.16634 3.3335C3.7061 3.3335 3.33301 3.70659 3.33301 4.16683C3.33301 4.62707 3.7061 5.00016 4.16634 5.00016Z" fill="#3772FF"/>
<path id="Vector_4" d="M0.833333 1.66667C1.29357 1.66667 1.66667 1.29357 1.66667 0.833333C1.66667 0.373096 1.29357 0 0.833333 0C0.373096 0 0 0.373096 0 0.833333C0 1.29357 0.373096 1.66667 0.833333 1.66667Z" fill="#3772FF"/>
<path id="Vector_5" d="M19.1663 11.6667C19.6266 11.6667 19.9997 11.2936 19.9997 10.8333C19.9997 10.3731 19.6266 10 19.1663 10C18.7061 10 18.333 10.3731 18.333 10.8333C18.333 11.2936 18.7061 11.6667 19.1663 11.6667Z" fill="#3772FF"/>
<path id="Vector_6" d="M15.8333 8.33317C16.2936 8.33317 16.6667 7.96007 16.6667 7.49984C16.6667 7.0396 16.2936 6.6665 15.8333 6.6665C15.3731 6.6665 15 7.0396 15 7.49984C15 7.96007 15.3731 8.33317 15.8333 8.33317Z" fill="#3772FF"/>
<path id="Vector_7" d="M19.1663 5.00016C19.6266 5.00016 19.9997 4.62707 19.9997 4.16683C19.9997 3.70659 19.6266 3.3335 19.1663 3.3335C18.7061 3.3335 18.333 3.70659 18.333 4.16683C18.333 4.62707 18.7061 5.00016 19.1663 5.00016Z" fill="#3772FF"/>
<path id="Vector_8" d="M15.8333 1.66667C16.2936 1.66667 16.6667 1.29357 16.6667 0.833333C16.6667 0.373096 16.2936 0 15.8333 0C15.3731 0 15 0.373096 15 0.833333C15 1.29357 15.3731 1.66667 15.8333 1.66667Z" fill="#3772FF"/>
<path id="Vector_9" d="M11.6663 20.0002C12.1266 20.0002 12.4997 19.6271 12.4997 19.1668C12.4997 18.7066 12.1266 18.3335 11.6663 18.3335C11.2061 18.3335 10.833 18.7066 10.833 19.1668C10.833 19.6271 11.2061 20.0002 11.6663 20.0002Z" fill="#3772FF"/>
<path id="Vector_10" d="M8.33333 16.6667C8.79357 16.6667 9.16667 16.2936 9.16667 15.8333C9.16667 15.3731 8.79357 15 8.33333 15C7.8731 15 7.5 15.3731 7.5 15.8333C7.5 16.2936 7.8731 16.6667 8.33333 16.6667Z" fill="#3772FF"/>
<path id="Vector_11" d="M11.6663 13.3332C12.1266 13.3332 12.4997 12.9601 12.4997 12.4998C12.4997 12.0396 12.1266 11.6665 11.6663 11.6665C11.2061 11.6665 10.833 12.0396 10.833 12.4998C10.833 12.9601 11.2061 13.3332 11.6663 13.3332Z" fill="#3772FF"/>
<path id="Vector_12" d="M8.33333 10.0002C8.79357 10.0002 9.16667 9.62707 9.16667 9.16683C9.16667 8.70659 8.79357 8.3335 8.33333 8.3335C7.8731 8.3335 7.5 8.70659 7.5 9.16683C7.5 9.62707 7.8731 10.0002 8.33333 10.0002Z" fill="#3772FF"/>
<path id="Vector_13" d="M12.5003 2.5C12.0583 2.5 11.6344 2.32441 11.3218 2.01184C11.0093 1.69928 10.8337 1.27536 10.8337 0.833333C10.8337 0.61232 10.7459 0.400358 10.5896 0.244078C10.4333 0.0877974 10.2213 0 10.0003 0C9.77931 0 9.56735 0.0877974 9.41107 0.244078C9.25479 0.400358 9.16699 0.61232 9.16699 0.833333C9.16699 1.27536 8.9914 1.69928 8.67884 2.01184C8.36628 2.32441 7.94235 2.5 7.50033 2.5C7.27931 2.5 7.06735 2.5878 6.91107 2.74408C6.75479 2.90036 6.66699 3.11232 6.66699 3.33333C6.66699 3.55435 6.75479 3.76631 6.91107 3.92259C7.06735 4.07887 7.27931 4.16667 7.50033 4.16667C7.94235 4.16667 8.36628 4.34226 8.67884 4.65482C8.9914 4.96738 9.16699 5.39131 9.16699 5.83333C9.16699 6.05435 9.25479 6.26631 9.41107 6.42259C9.56735 6.57887 9.77931 6.66667 10.0003 6.66667C10.2213 6.66667 10.4333 6.57887 10.5896 6.42259C10.7459 6.26631 10.8337 6.05435 10.8337 5.83333C10.8337 5.39131 11.0093 4.96738 11.3218 4.65482C11.6344 4.34226 12.0583 4.16667 12.5003 4.16667C12.7213 4.16667 12.9333 4.07887 13.0896 3.92259C13.2459 3.76631 13.3337 3.55435 13.3337 3.33333C13.3337 3.11232 13.2459 2.90036 13.0896 2.74408C12.9333 2.5878 12.7213 2.5 12.5003 2.5Z" fill="#3772FF"/>
<path id="Vector_14" d="M5.83333 15.8335C5.39131 15.8335 4.96738 15.6579 4.65482 15.3453C4.34226 15.0328 4.16667 14.6089 4.16667 14.1668C4.16667 13.9458 4.07887 13.7339 3.92259 13.5776C3.76631 13.4213 3.55435 13.3335 3.33333 13.3335C3.11232 13.3335 2.90036 13.4213 2.74408 13.5776C2.5878 13.7339 2.5 13.9458 2.5 14.1668C2.5 14.6089 2.32441 15.0328 2.01184 15.3453C1.69928 15.6579 1.27536 15.8335 0.833333 15.8335C0.61232 15.8335 0.400358 15.9213 0.244078 16.0776C0.0877974 16.2339 0 16.4458 0 16.6668C0 16.8878 0.0877974 17.0998 0.244078 17.2561C0.400358 17.4124 0.61232 17.5002 0.833333 17.5002C1.27536 17.5002 1.69928 17.6758 2.01184 17.9883C2.32441 18.3009 2.5 18.7248 2.5 19.1668C2.5 19.3878 2.5878 19.5998 2.74408 19.7561C2.90036 19.9124 3.11232 20.0002 3.33333 20.0002C3.55435 20.0002 3.76631 19.9124 3.92259 19.7561C4.07887 19.5998 4.16667 19.3878 4.16667 19.1668C4.16667 18.7248 4.34226 18.3009 4.65482 17.9883C4.96738 17.6758 5.39131 17.5002 5.83333 17.5002C6.05435 17.5002 6.26631 17.4124 6.42259 17.2561C6.57887 17.0998 6.66667 16.8878 6.66667 16.6668C6.66667 16.4458 6.57887 16.2339 6.42259 16.0776C6.26631 15.9213 6.05435 15.8335 5.83333 15.8335Z" fill="#3772FF"/>
<path id="Vector_15" d="M19.1663 15.8335C18.7243 15.8335 18.3004 15.6579 17.9878 15.3453C17.6753 15.0328 17.4997 14.6089 17.4997 14.1668C17.4997 13.9458 17.4119 13.7339 17.2556 13.5776C17.0993 13.4213 16.8874 13.3335 16.6663 13.3335C16.4453 13.3335 16.2334 13.4213 16.0771 13.5776C15.9208 13.7339 15.833 13.9458 15.833 14.1668C15.833 14.6089 15.6574 15.0328 15.3449 15.3453C15.0323 15.6579 14.6084 15.8335 14.1663 15.8335C13.9453 15.8335 13.7334 15.9213 13.5771 16.0776C13.4208 16.2339 13.333 16.4458 13.333 16.6668C13.333 16.8878 13.4208 17.0998 13.5771 17.2561C13.7334 17.4124 13.9453 17.5002 14.1663 17.5002C14.6084 17.5002 15.0323 17.6758 15.3449 17.9883C15.6574 18.3009 15.833 18.7248 15.833 19.1668C15.833 19.3878 15.9208 19.5998 16.0771 19.7561C16.2334 19.9124 16.4453 20.0002 16.6663 20.0002C16.8874 20.0002 17.0993 19.9124 17.2556 19.7561C17.4119 19.5998 17.4997 19.3878 17.4997 19.1668C17.4997 18.7248 17.6753 18.3009 17.9878 17.9883C18.3004 17.6758 18.7243 17.5002 19.1663 17.5002C19.3874 17.5002 19.5993 17.4124 19.7556 17.2561C19.9119 17.0998 19.9997 16.8878 19.9997 16.6668C19.9997 16.4458 19.9119 16.2339 19.7556 16.0776C19.5993 15.9213 19.3874 15.8335 19.1663 15.8335Z" fill="#3772FF"/>
</g>
<defs>
<clipPath id="clip0_1763_34763">
<rect width="20" height="20" fill="white"/>
</clipPath>
</defs>
</svg>
