<svg width="21" height="21" viewBox="0 0 21 21" fill="none" xmlns="http://www.w3.org/2000/svg">
<path id="Vector" d="M10.117 0.299072C4.58158 0.299072 0.078125 4.78509 0.078125 10.2991C0.078125 15.8126 4.58158 20.2991 10.117 20.2991C15.652 20.2991 20.1558 15.8126 20.1558 10.2991C20.1558 4.78509 15.6528 0.299072 10.117 0.299072ZM12.6136 10.6511H10.9803V16.4499H8.56017C8.56017 16.4499 8.56017 13.2814 8.56017 10.6511H7.40974V8.60166H8.56017V7.27603C8.56017 6.32662 9.01306 4.8431 11.0026 4.8431L12.7959 4.84995V6.83939C12.7959 6.83939 11.7062 6.83939 11.4943 6.83939C11.2824 6.83939 10.9811 6.94493 10.9811 7.39768V8.60206H12.825L12.6136 10.6511Z" fill="#636363"/>
</svg>
