<svg width="34" height="32" viewBox="0 0 34 32" fill="none" xmlns="http://www.w3.org/2000/svg">
<g id="Group 1171274866">
<path id="Vector" d="M19.0446 25.1424V24.788C19.0492 24.4736 19.1456 24.1674 19.322 23.9071C19.4983 23.6468 19.7469 23.4437 20.0372 23.3229C20.3275 23.202 20.6468 23.1687 20.9558 23.227C21.2648 23.2852 21.55 23.4326 21.7763 23.6508C22.0537 23.9763 22.4435 24.2788 22.8393 23.9079L24.9138 21.8334C25.2784 21.4352 24.9923 21.0572 24.6566 20.7705C24.4325 20.547 24.2802 20.2618 24.2192 19.9513C24.1581 19.6408 24.191 19.3191 24.3137 19.0274C24.4678 18.6835 24.7312 18.4001 25.0629 18.2213C25.3947 18.0425 25.7762 17.9784 26.1482 18.0388C26.2997 18.0383 26.4448 17.978 26.5518 17.8709C26.6589 17.7638 26.7193 17.6187 26.7197 17.4673V14.5298C26.7193 14.3784 26.6589 14.2333 26.5518 14.1262C26.4447 14.0191 26.2996 13.9588 26.1482 13.9583C25.7762 14.0187 25.3947 13.9545 25.063 13.7757C24.7312 13.5969 24.4678 13.3136 24.3137 12.9696C24.191 12.6779 24.1581 12.3563 24.2192 12.0458C24.2803 11.7353 24.4326 11.4501 24.6566 11.2266C24.9822 10.9492 25.2846 10.5594 24.9138 10.1636L22.8393 8.08911C22.441 7.72443 22.063 8.01059 21.7763 8.34633C21.5517 8.56923 21.2661 8.72066 20.9556 8.78152C20.6451 8.84239 20.3235 8.80997 20.0313 8.68835C19.7392 8.56672 19.4896 8.36135 19.314 8.0981C19.1384 7.83484 19.0447 7.5255 19.0446 7.20906V6.85469C19.0442 6.70326 18.9838 6.55817 18.8767 6.45109C18.7696 6.34401 18.6245 6.28366 18.4731 6.2832H15.5357C15.3842 6.28366 15.2391 6.34401 15.1321 6.45109C15.025 6.55817 14.9646 6.70326 14.9642 6.85469C15.0355 7.22799 14.9758 7.61446 14.7952 7.94885C14.6146 8.28324 14.3241 8.54508 13.9728 8.69015C13.6216 8.83522 13.231 8.85464 12.8671 8.74513C12.5032 8.63562 12.1882 8.40389 11.9753 8.08906C11.9224 8.03608 11.8596 7.99405 11.7905 7.96537C11.7213 7.93669 11.6472 7.92193 11.5724 7.92193C11.4975 7.92194 11.4234 7.9367 11.3543 7.96539C11.2851 7.99407 11.2223 8.03611 11.1695 8.08909L9.09497 10.1636C9.04199 10.2165 8.99996 10.2793 8.97128 10.3484C8.9426 10.4175 8.92784 10.4917 8.92784 10.5665C8.92784 10.6413 8.9426 10.7155 8.97128 10.7846C8.99996 10.8537 9.04199 10.9165 9.09497 10.9694C9.40981 11.1823 9.64155 11.4973 9.75107 11.8612C9.86058 12.2252 9.84116 12.6157 9.69608 12.967C9.551 13.3183 9.28915 13.6087 8.95475 13.7893C8.62034 13.9699 8.23386 14.0296 7.86055 13.9583C7.70912 13.9587 7.56401 14.0191 7.45693 14.1262C7.34986 14.2333 7.2895 14.3784 7.28906 14.5298V17.4673C7.28951 17.6187 7.34987 17.7638 7.45695 17.8709C7.56402 17.9779 7.70912 18.0383 7.86055 18.0387H8.21488C8.53133 18.0388 8.84069 18.1325 9.10396 18.3081C9.36723 18.4837 9.57263 18.7333 9.69425 19.0254C9.81588 19.3176 9.8483 19.6392 9.78741 19.9498C9.72653 20.2603 9.57508 20.5459 9.35214 20.7705C9.02656 21.0478 8.72418 21.4376 9.09497 21.8334L11.1695 23.9079C11.5677 24.2726 11.9458 23.9864 12.2324 23.6508C12.4827 23.4104 12.803 23.2561 13.1469 23.2102C13.4908 23.1642 13.8404 23.2291 14.1449 23.3954C14.4495 23.5617 14.6931 23.8207 14.8404 24.1349C14.9877 24.449 15.031 24.8019 14.9641 25.1424C14.9646 25.2938 15.0249 25.4389 15.132 25.546C15.2391 25.6531 15.3842 25.7134 15.5357 25.7138H18.4731C18.6245 25.7134 18.7696 25.653 18.8767 25.546C18.9838 25.4389 19.0442 25.2938 19.0446 25.1424ZM17.0044 21.4277C15.5649 21.4264 14.1847 20.854 13.1668 19.8361C12.149 18.8182 11.5765 17.438 11.5752 15.9985C11.8721 8.79579 22.1378 8.79784 22.4335 15.9986C22.4322 17.4381 21.8598 18.8182 20.8419 19.8361C19.824 20.854 18.4439 21.4264 17.0044 21.4277Z" fill="white"/>
<path id="Vector_2" d="M17.0047 11.7119C11.3325 11.9087 11.3311 20.0865 17.0046 20.2843C18.1414 20.2843 19.2316 19.8327 20.0354 19.0289C20.8392 18.2251 21.2908 17.1349 21.2908 15.9981C21.2908 14.8614 20.8392 13.7711 20.0354 12.9673C19.2316 12.1635 18.1414 11.7119 17.0047 11.7119Z" fill="white"/>
<path id="Vector_3" d="M19.8617 4.5683C19.8631 4.114 20.0441 3.67869 20.3653 3.35745C20.6866 3.03621 21.1219 2.85516 21.5762 2.85383L28.5141 2.85376C28.6532 3.39149 28.9835 3.86005 29.4433 4.17164C29.9031 4.48322 30.4607 4.61645 31.0117 4.54636C31.5627 4.47626 32.0692 4.20766 32.4363 3.79087C32.8034 3.37408 33.006 2.83772 33.006 2.28231C33.006 1.72689 32.8034 1.19053 32.4363 0.773743C32.0692 0.356957 31.5627 0.0883484 31.0117 0.0182535C30.4607 -0.0518414 29.9031 0.0813886 29.4433 0.392977C28.9835 0.704565 28.6532 1.17312 28.5141 1.71085H21.5762C20.8184 1.71112 20.0918 2.01226 19.556 2.54807C19.0202 3.08388 18.719 3.81051 18.7188 4.56826C18.7211 4.7183 18.7823 4.8614 18.8892 4.96669C18.9961 5.07197 19.1402 5.13098 19.2902 5.13099C19.4403 5.13099 19.5843 5.07199 19.6912 4.96671C19.7982 4.86144 19.8594 4.71833 19.8617 4.5683Z" fill="white"/>
<path id="Vector_4" d="M5.49386 2.8538H12.4317C12.886 2.85513 13.3213 3.03618 13.6426 3.35741C13.9638 3.67864 14.1449 4.11394 14.1462 4.56824C14.1491 4.71788 14.2106 4.8604 14.3175 4.9652C14.4243 5.07 14.568 5.12871 14.7177 5.12871C14.8674 5.12872 15.011 5.07002 15.1179 4.96523C15.2248 4.86043 15.2863 4.71791 15.2892 4.56827C15.2889 3.81051 14.9878 3.08387 14.452 2.54805C13.9161 2.01224 13.1895 1.7111 12.4317 1.71082H5.49386C5.35478 1.1731 5.02439 0.704545 4.5646 0.392963C4.10482 0.0813812 3.54719 -0.0518431 2.99621 0.0182557C2.44524 0.0883545 1.93873 0.356965 1.57161 0.773752C1.20449 1.19054 1.00195 1.7269 1.00195 2.28231C1.00195 2.83773 1.20449 3.37409 1.57161 3.79087C1.93873 4.20766 2.44524 4.47627 2.99621 4.54637C3.54719 4.61647 4.10482 4.48324 4.5646 4.17166C5.02439 3.86008 5.35478 3.39152 5.49386 2.8538Z" fill="white"/>
<path id="Vector_5" d="M28.5141 29.1421H21.5762C21.1219 29.1408 20.6866 28.9597 20.3654 28.6385C20.0441 28.3173 19.8631 27.882 19.8617 27.4277C19.8588 27.278 19.7973 27.1355 19.6905 27.0307C19.5836 26.9259 19.4399 26.8672 19.2903 26.8672C19.1406 26.8672 18.9969 26.9259 18.89 27.0307C18.7832 27.1355 18.7217 27.278 18.7188 27.4276C18.719 28.1854 19.0202 28.912 19.556 29.4478C20.0918 29.9837 20.8184 30.2848 21.5762 30.2851L28.5141 30.285C28.6532 30.8227 28.9835 31.2913 29.4433 31.6029C29.9031 31.9145 30.4607 32.0477 31.0117 31.9776C31.5627 31.9075 32.0692 31.6389 32.4363 31.2221C32.8034 30.8053 33.006 30.269 33.006 29.7136C33.006 29.1581 32.8034 28.6218 32.4363 28.205C32.0692 27.7882 31.5627 27.5196 31.0117 27.4495C30.4607 27.3794 29.9031 27.5126 29.4433 27.8242C28.9835 28.1358 28.6532 28.6044 28.5141 29.1421Z" fill="white"/>
<path id="Vector_6" d="M14.1458 27.4279C14.1445 27.8822 13.9634 28.3175 13.6422 28.6388C13.321 28.96 12.8857 29.1411 12.4314 29.1424L5.49348 29.1425C5.35439 28.6038 5.02359 28.1342 4.5631 27.822C4.10261 27.5097 3.54403 27.3761 2.99208 27.4462C2.44012 27.5163 1.93268 27.7853 1.56487 28.2028C1.19706 28.6203 0.994141 29.1575 0.994141 29.7139C0.994141 30.2703 1.19706 30.8076 1.56487 31.2251C1.93268 31.6426 2.44012 31.9116 2.99208 31.9817C3.54403 32.0518 4.10261 31.9182 4.5631 31.6059C5.02359 31.2936 5.35439 30.8241 5.49348 30.2854H12.4314C13.1891 30.2851 13.9158 29.984 14.4516 29.4482C14.9874 28.9123 15.2885 28.1857 15.2888 27.4279C15.2865 27.2779 15.2253 27.1348 15.1183 27.0295C15.0114 26.9242 14.8674 26.8652 14.7173 26.8652C14.5673 26.8652 14.4232 26.9242 14.3163 27.0295C14.2094 27.1348 14.1482 27.2779 14.1458 27.4279Z" fill="white"/>
</g>
</svg>
