<svg width="20" height="20" viewBox="0 0 20 20" fill="none" xmlns="http://www.w3.org/2000/svg">
<g id="Icon section/job" clip-path="url(#clip0_2053_10764)">
<path id="Vector" d="M15.8333 3.33333H14.9167C14.5333 1.43333 12.85 0 10.8333 0H9.16667C7.15833 0 5.475 1.43333 5.08333 3.33333H4.16667C1.86667 3.33333 0 5.2 0 7.5V15.8333C0 18.1333 1.86667 20 4.16667 20H15.8333C18.1333 20 20 18.1333 20 15.8333V7.5C20 5.2 18.1333 3.33333 15.8333 3.33333ZM9.16667 1.66667H10.8333C11.9167 1.66667 12.85 2.36667 13.1917 3.33333H6.80833C7.15 2.36667 8.075 1.66667 9.16667 1.66667ZM18.3333 15.8333C18.3333 17.2083 17.2083 18.3333 15.8333 18.3333H4.16667C2.79167 18.3333 1.66667 17.2083 1.66667 15.8333V7.5C1.66667 6.125 2.79167 5 4.16667 5H15.8333C17.2083 5 18.3333 6.125 18.3333 7.5V15.8333Z" fill="#3772FF"/>
</g>
<defs>
<clipPath id="clip0_2053_10764">
<rect width="20" height="20" fill="white"/>
</clipPath>
</defs>
</svg>
