<svg width="22" height="22" viewBox="0 0 22 22" fill="none" xmlns="http://www.w3.org/2000/svg">
<path d="M7.6908 16.9492V7.63583C7.6908 7.26916 7.8008 6.91166 8.00246 6.60916L10.505 2.8875C10.8991 2.29166 11.88 1.87 12.7141 2.18166C13.6125 2.48416 14.2083 3.4925 14.0158 4.39083L13.5391 7.38833C13.5025 7.66333 13.5758 7.91083 13.7316 8.10333C13.8875 8.2775 14.1166 8.3875 14.3641 8.3875H18.1316C18.8558 8.3875 19.4791 8.68083 19.8458 9.19416C20.1941 9.68916 20.2583 10.3308 20.0291 10.9817L17.7741 17.8475C17.49 18.9842 16.2525 19.91 15.0241 19.91H11.4491C10.835 19.91 9.9733 19.6992 9.57913 19.305L8.4058 18.3975C7.95663 18.0583 7.6908 17.5175 7.6908 16.9492Z" fill="#39E991"/>
<path d="M4.77587 5.84833H3.83171C2.41087 5.84833 1.83337 6.39833 1.83337 7.75499V16.9767C1.83337 18.3333 2.41087 18.8833 3.83171 18.8833H4.77587C6.19671 18.8833 6.77421 18.3333 6.77421 16.9767V7.75499C6.77421 6.39833 6.19671 5.84833 4.77587 5.84833Z" fill="#39E991"/>
</svg>
