<svg width="18" height="18" viewBox="0 0 18 18" fill="none" xmlns="http://www.w3.org/2000/svg">
<path d="M4.93527 3.95638C4.93508 4.33358 4.78505 4.69525 4.5182 4.96184C4.25135 5.22842 3.88953 5.37808 3.51233 5.37789C3.13513 5.3777 2.77346 5.22768 2.50688 4.96083C2.24029 4.69398 2.09063 4.33216 2.09082 3.95496C2.09101 3.57776 2.24103 3.21609 2.50788 2.9495C2.77473 2.68292 3.13656 2.53326 3.51375 2.53345C3.89095 2.53364 4.25262 2.68366 4.51921 2.95051C4.78579 3.21736 4.93545 3.57918 4.93527 3.95638ZM4.97793 6.43105H2.13349V15.3342H4.97793V6.43105ZM9.47215 6.43105H6.64193V15.3342H9.44371V10.6622C9.44371 8.05949 12.8357 7.81771 12.8357 10.6622V15.3342H15.6446V9.69505C15.6446 5.30749 10.6242 5.47105 9.44371 7.62571L9.47215 6.43105Z" fill="#70707B"/>
</svg>
