<svg width="21" height="21" viewBox="0 0 21 21" fill="none" xmlns="http://www.w3.org/2000/svg">
<path id="Linkedin" d="M10.0389 0.299072C8.05336 0.299072 6.11245 0.885562 4.46157 1.98438C2.81069 3.08319 1.52398 4.64498 0.764167 6.47224C0.00434966 8.2995 -0.194453 10.3102 0.192898 12.25C0.58025 14.1898 1.53636 15.9716 2.94032 17.3701C4.34428 18.7687 6.13303 19.7211 8.08038 20.1069C10.0277 20.4928 12.0462 20.2947 13.8806 19.5379C15.7149 18.781 17.2828 17.4993 18.3859 15.8548C19.489 14.2103 20.0777 12.2769 20.0777 10.2991C20.0777 7.64691 19.0201 5.10337 17.1374 3.228C15.2548 1.35264 12.7013 0.299072 10.0389 0.299072ZM7.11967 15.5622H4.92961V8.5346H7.11967V15.5622ZM6.02332 7.57539C5.77127 7.57642 5.52458 7.503 5.31441 7.36441C5.10424 7.22581 4.94004 7.02826 4.84257 6.79672C4.74509 6.56518 4.71871 6.31006 4.76676 6.06359C4.81481 5.81712 4.93514 5.59038 5.11253 5.41202C5.28993 5.23365 5.51642 5.11168 5.76339 5.06152C6.01036 5.01136 6.26671 5.03526 6.50004 5.1302C6.73338 5.22514 6.93322 5.38685 7.07431 5.5949C7.2154 5.80295 7.2914 6.048 7.29271 6.29907C7.29341 6.63574 7.16028 6.95899 6.92241 7.19816C6.68454 7.43733 6.36129 7.57295 6.02332 7.57539ZM15.3225 15.5622H13.1337V12.1412C13.1337 11.3254 13.1179 10.2793 11.9951 10.2793C10.8724 10.2793 10.6742 11.1662 10.6742 12.082V15.5622H8.49341V8.5346H10.595V9.49249H10.6253C10.9173 8.93986 11.6319 8.35696 12.6978 8.35696C14.9143 8.35696 15.3225 9.81223 15.3225 11.7017V15.5622Z" fill="#636363"/>
</svg>
