<svg width="24" height="25" viewBox="0 0 24 25" fill="none" xmlns="http://www.w3.org/2000/svg">
<g id="Location">
<path id="Vector" d="M20.6201 9.15117C19.5701 4.53117 15.5401 2.45117 12.0001 2.45117C12.0001 2.45117 12.0001 2.45117 11.9901 2.45117C8.4601 2.45117 4.4201 4.52117 3.3701 9.14117C2.2001 14.3012 5.3601 18.6712 8.2201 21.4212C9.2801 22.4412 10.6401 22.9512 12.0001 22.9512C13.3601 22.9512 14.7201 22.4412 15.7701 21.4212C18.6301 18.6712 21.7901 14.3112 20.6201 9.15117ZM12.0001 14.1612C10.2601 14.1612 8.8501 12.7512 8.8501 11.0112C8.8501 9.27117 10.2601 7.86117 12.0001 7.86117C13.7401 7.86117 15.1501 9.27117 15.1501 11.0112C15.1501 12.7512 13.7401 14.1612 12.0001 14.1612Z" fill="#4C6EF6"/>
</g>
</svg>
