<svg width="20" height="20" viewBox="0 0 20 20" fill="none" xmlns="http://www.w3.org/2000/svg">
<g id="mobile-button 1">
<path id="Vector" d="M12.4997 20H7.49967C5.20217 20 3.33301 18.1308 3.33301 15.8333V4.16667C3.33301 1.86917 5.20217 0 7.49967 0H12.4997C14.7972 0 16.6663 1.86917 16.6663 4.16667V15.8333C16.6663 18.1308 14.7972 20 12.4997 20ZM7.49967 1.66667C6.12134 1.66667 4.99967 2.78833 4.99967 4.16667V15.8333C4.99967 17.2117 6.12134 18.3333 7.49967 18.3333H12.4997C13.878 18.3333 14.9997 17.2117 14.9997 15.8333V4.16667C14.9997 2.78833 13.878 1.66667 12.4997 1.66667H7.49967ZM11.6663 15.8333C11.6663 15.3733 11.293 15 10.833 15H9.16634C8.70634 15 8.33301 15.3733 8.33301 15.8333C8.33301 16.2933 8.70634 16.6667 9.16634 16.6667H10.833C11.293 16.6667 11.6663 16.2933 11.6663 15.8333Z" fill="#3772FF"/>
</g>
</svg>
