<svg width="22" height="22" viewBox="0 0 22 22" fill="none" xmlns="http://www.w3.org/2000/svg">
<path d="M9.39587 9.19413C9.39587 9.68913 9.53337 9.76246 9.84504 9.87246L10.3125 10.0375V8.47913H10.0375C9.68921 8.47913 9.39587 8.79996 9.39587 9.19413Z" fill="#0C56EF"/>
<path d="M11.6875 13.5209H11.9625C12.32 13.5209 12.6042 13.2 12.6042 12.8059C12.6042 12.3109 12.4667 12.2375 12.155 12.1275L11.6875 11.9625V13.5209Z" fill="#0C56EF"/>
<path d="M17.9484 5.02337L16.0692 6.90254C15.9317 7.04004 15.7575 7.10421 15.5834 7.10421C15.4092 7.10421 15.235 7.04004 15.0975 6.90254C14.8317 6.63671 14.8317 6.19671 15.0975 5.93087L16.9767 4.05171C15.3634 2.67671 13.2825 1.83337 11 1.83337C5.94004 1.83337 1.83337 5.94004 1.83337 11C1.83337 16.06 5.94004 20.1667 11 20.1667C16.06 20.1667 20.1667 16.06 20.1667 11C20.1667 8.71754 19.3234 6.63671 17.9484 5.02337ZM12.6042 10.835C13.1909 11.0459 13.9792 11.4675 13.9792 12.815C13.9792 13.9609 13.0717 14.905 11.9625 14.905H11.6875V15.1342C11.6875 15.51 11.3759 15.8217 11 15.8217C10.6242 15.8217 10.3125 15.51 10.3125 15.1342V14.905H10.2392C9.02004 14.905 8.02087 13.8784 8.02087 12.6134C8.02087 12.2284 8.33254 11.9167 8.70837 11.9167C9.08421 11.9167 9.39587 12.2284 9.39587 12.6042C9.39587 13.1084 9.77171 13.5209 10.2392 13.5209H10.3125V11.4859L9.39587 11.165C8.80921 10.9542 8.02087 10.5325 8.02087 9.18504C8.02087 8.03921 8.92837 7.09504 10.0375 7.09504H10.3125V6.87504C10.3125 6.49921 10.6242 6.18754 11 6.18754C11.3759 6.18754 11.6875 6.49921 11.6875 6.87504V7.10421H11.7609C12.98 7.10421 13.9792 8.13087 13.9792 9.39587C13.9792 9.77171 13.6675 10.0834 13.2917 10.0834C12.9159 10.0834 12.6042 9.77171 12.6042 9.39587C12.6042 8.89171 12.2284 8.47921 11.7609 8.47921H11.6875V10.5142L12.6042 10.835Z" fill="#0C56EF"/>
<path d="M20.7992 1.56754C20.7258 1.40254 20.5975 1.26504 20.4233 1.19171C20.3408 1.16421 20.2583 1.14587 20.1667 1.14587H16.5C16.1242 1.14587 15.8125 1.45754 15.8125 1.83337C15.8125 2.20921 16.1242 2.52087 16.5 2.52087H18.5075L16.9767 4.05171C17.325 4.35421 17.6458 4.67504 17.9483 5.02337L19.4792 3.49254V5.50004C19.4792 5.87587 19.7908 6.18754 20.1667 6.18754C20.5425 6.18754 20.8542 5.87587 20.8542 5.50004V1.83337C20.8542 1.74171 20.8358 1.65921 20.7992 1.56754Z" fill="#0C56EF"/>
</svg>
