<svg width="22" height="22" viewBox="0 0 22 22" fill="none" xmlns="http://www.w3.org/2000/svg">
<path d="M17.2425 5.72916H18.4892C18.315 5.48166 18.1317 5.2525 17.9392 5.02333L17.2425 5.72916Z" fill="#E7B51D"/>
<path d="M16.9767 4.05166C16.7475 3.85916 16.5183 3.67583 16.2708 3.50166V4.74833L16.9767 4.05166Z" fill="#E7B51D"/>
<path d="M17.9483 5.02334L20.6525 2.31917C20.9183 2.05334 20.9183 1.61334 20.6525 1.34751C20.3867 1.08167 19.9467 1.08167 19.6808 1.34751L16.9767 4.05167C17.325 4.35417 17.6458 4.68417 17.9483 5.02334Z" fill="#E7B51D"/>
<path d="M16.2708 2.75C16.2708 2.37417 15.9592 2.0625 15.5833 2.0625C15.2167 2.0625 14.9233 2.35583 14.905 2.71333C15.3817 2.9425 15.84 3.19917 16.2708 3.50167V2.75Z" fill="#E7B51D"/>
<path d="M19.9375 6.41667C19.9375 6.04084 19.6258 5.72917 19.25 5.72917H18.4892C18.7917 6.16001 19.0575 6.61834 19.2775 7.09501C19.6442 7.07667 19.9375 6.78334 19.9375 6.41667Z" fill="#E7B51D"/>
<path d="M11.6875 13.5208H11.9625C12.32 13.5208 12.6042 13.2 12.6042 12.8058C12.6042 12.3108 12.4667 12.2375 12.155 12.1275L11.6875 11.9625V13.5208Z" fill="#E7B51D"/>
<path d="M19.2867 7.09499C19.2775 7.09499 19.2683 7.10416 19.25 7.10416H15.5833C15.4917 7.10416 15.4092 7.08583 15.3175 7.04916C15.1525 6.97583 15.015 6.8475 14.9417 6.67333C14.9142 6.59083 14.8958 6.50833 14.8958 6.41666V2.74999C14.8958 2.74083 14.905 2.73166 14.905 2.71333C13.7133 2.15416 12.3933 1.83333 11 1.83333C5.94001 1.83333 1.83334 5.93999 1.83334 11C1.83334 16.06 5.94001 20.1667 11 20.1667C16.06 20.1667 20.1667 16.06 20.1667 11C20.1667 9.60666 19.8458 8.28666 19.2867 7.09499ZM12.6042 10.835C13.1908 11.0367 13.9792 11.4675 13.9792 12.815C13.9792 13.9608 13.0717 14.905 11.9625 14.905H11.6875V15.1342C11.6875 15.51 11.3758 15.8217 11 15.8217C10.6242 15.8217 10.3125 15.51 10.3125 15.1342V14.905H10.2392C9.02001 14.905 8.02084 13.8783 8.02084 12.6133C8.02084 12.2283 8.33251 11.9167 8.70834 11.9167C9.08418 11.9167 9.39584 12.2283 9.39584 12.6042C9.39584 13.1083 9.77168 13.5208 10.2392 13.5208H10.3125V11.4858L9.39584 11.165C8.80918 10.9633 8.02084 10.5325 8.02084 9.185C8.02084 8.03916 8.92834 7.09499 10.0375 7.09499H10.3125V6.87499C10.3125 6.49916 10.6242 6.18749 11 6.18749C11.3758 6.18749 11.6875 6.49916 11.6875 6.87499V7.10416H11.7608C12.98 7.10416 13.9792 8.13083 13.9792 9.39583C13.9792 9.77166 13.6675 10.0833 13.2917 10.0833C12.9158 10.0833 12.6042 9.77166 12.6042 9.39583C12.6042 8.89166 12.2283 8.47916 11.7608 8.47916H11.6875V10.5142L12.6042 10.835Z" fill="#E7B51D"/>
<path d="M9.39584 9.19417C9.39584 9.68917 9.53334 9.7625 9.84501 9.8725L10.3125 10.0375V8.47917H10.0375C9.68918 8.47917 9.39584 8.8 9.39584 9.19417Z" fill="#E7B51D"/>
</svg>
