<svg width="19" height="18" viewBox="0 0 19 18" fill="none" xmlns="http://www.w3.org/2000/svg">
<path d="M13.6475 5.8275C13.595 5.82 13.5425 5.82 13.49 5.8275C12.3275 5.79 11.405 4.8375 11.405 3.6675C11.405 2.475 12.3725 1.5 13.5725 1.5C14.765 1.5 15.74 2.4675 15.74 3.6675C15.7325 4.8375 14.81 5.79 13.6475 5.8275Z" fill="#0C56EF"/>
<path d="M16.0925 11.0251C15.2525 11.5876 14.075 11.7976 12.9875 11.6551C13.2725 11.0401 13.4225 10.3576 13.43 9.63756C13.43 8.88756 13.265 8.17506 12.95 7.55256C14.06 7.40256 15.2375 7.61256 16.085 8.17506C17.27 8.95506 17.27 10.2376 16.0925 11.0251Z" fill="#0C56EF"/>
<path d="M5.33 5.8275C5.3825 5.82 5.435 5.82 5.4875 5.8275C6.65 5.79 7.5725 4.8375 7.5725 3.6675C7.5725 2.4675 6.605 1.5 5.40499 1.5C4.21249 1.5 3.245 2.4675 3.245 3.6675C3.245 4.8375 4.1675 5.79 5.33 5.8275Z" fill="#0C56EF"/>
<path d="M5.4125 9.63746C5.4125 10.365 5.57 11.055 5.855 11.6775C4.7975 11.79 3.695 11.565 2.885 11.0325C1.7 10.245 1.7 8.96246 2.885 8.17496C3.6875 7.63496 4.82 7.41746 5.885 7.53746C5.5775 8.16746 5.4125 8.87996 5.4125 9.63746Z" fill="#0C56EF"/>
<path d="M9.59001 11.9025C9.53001 11.895 9.46251 11.895 9.39501 11.9025C8.01501 11.8575 6.91251 10.725 6.91251 9.33C6.92001 7.905 8.06751 6.75 9.50001 6.75C10.925 6.75 12.08 7.905 12.08 9.33C12.0725 10.725 10.9775 11.8575 9.59001 11.9025Z" fill="#0C56EF"/>
<path d="M7.15251 13.455C6.02001 14.2125 6.02001 15.4575 7.15251 16.2075C8.44251 17.07 10.5575 17.07 11.8475 16.2075C12.98 15.45 12.98 14.205 11.8475 13.455C10.565 12.5925 8.45001 12.5925 7.15251 13.455Z" fill="#0C56EF"/>
</svg>
