<svg width="22" height="22" viewBox="0 0 22 22" fill="none" xmlns="http://www.w3.org/2000/svg">
<path d="M14.8408 1.83334H7.15918C3.82251 1.83334 1.83334 3.82251 1.83334 7.15918V14.8317C1.83334 18.1775 3.82251 20.1667 7.15918 20.1667H14.8317C18.1683 20.1667 20.1575 18.1775 20.1575 14.8408V7.15918C20.1667 3.82251 18.1775 1.83334 14.8408 1.83334ZM6.99418 16.6375C6.99418 17.0133 6.68251 17.325 6.30668 17.325C5.93084 17.325 5.61918 17.0133 5.61918 16.6375V14.74C5.61918 14.3642 5.93084 14.0525 6.30668 14.0525C6.68251 14.0525 6.99418 14.3642 6.99418 14.74V16.6375ZM11.6875 16.6375C11.6875 17.0133 11.3758 17.325 11 17.325C10.6242 17.325 10.3125 17.0133 10.3125 16.6375V12.8333C10.3125 12.4575 10.6242 12.1458 11 12.1458C11.3758 12.1458 11.6875 12.4575 11.6875 12.8333V16.6375ZM16.3808 16.6375C16.3808 17.0133 16.0692 17.325 15.6933 17.325C15.3175 17.325 15.0058 17.0133 15.0058 16.6375V10.9358C15.0058 10.56 15.3175 10.2483 15.6933 10.2483C16.0692 10.2483 16.3808 10.56 16.3808 10.9358V16.6375ZM16.3808 8.03918C16.3808 8.41501 16.0692 8.72668 15.6933 8.72668C15.3175 8.72668 15.0058 8.41501 15.0058 8.03918V7.15001C12.6683 9.55168 9.74418 11.2475 6.47168 12.0633C6.41668 12.0817 6.36168 12.0817 6.30668 12.0817C5.99501 12.0817 5.72001 11.8708 5.63751 11.5592C5.54584 11.1925 5.76584 10.8167 6.14168 10.725C9.23084 9.95501 11.9808 8.33251 14.1625 6.04084H13.0167C12.6408 6.04084 12.3292 5.72918 12.3292 5.35334C12.3292 4.97751 12.6408 4.66584 13.0167 4.66584H15.7025C15.7392 4.66584 15.7667 4.68418 15.8033 4.68418C15.8492 4.69334 15.895 4.69334 15.9408 4.71168C15.9867 4.73001 16.0233 4.75751 16.0692 4.78501C16.0967 4.80334 16.1242 4.81251 16.1517 4.83084C16.1608 4.84001 16.1608 4.84918 16.17 4.84918C16.2067 4.88584 16.2342 4.92251 16.2617 4.95918C16.2892 4.99584 16.3167 5.02334 16.3258 5.06001C16.3442 5.09668 16.3442 5.13334 16.3533 5.17918C16.3625 5.22501 16.3808 5.27084 16.3808 5.32584C16.3808 5.33501 16.39 5.34418 16.39 5.35334V8.03918H16.3808Z" fill="#6FCD78"/>
</svg>
