<svg width="22" height="22" viewBox="0 0 22 22" fill="none" xmlns="http://www.w3.org/2000/svg">
<path d="M14.8408 1.83331H7.15918C3.82251 1.83331 1.83334 3.82248 1.83334 7.15915V14.8316C1.83334 18.1775 3.82251 20.1666 7.15918 20.1666H14.8317C18.1683 20.1666 20.1575 18.1775 20.1575 14.8408V7.15915C20.1667 3.82248 18.1775 1.83331 14.8408 1.83331ZM5.95834 11.5225H8.49751C8.87334 11.5225 9.18501 11.8341 9.18501 12.21C9.18501 12.5858 8.87334 12.8975 8.49751 12.8975H5.95834C5.58251 12.8975 5.27084 12.5858 5.27084 12.21C5.27084 11.8341 5.58251 11.5225 5.95834 11.5225ZM11.8892 16.3441H5.95834C5.58251 16.3441 5.27084 16.0325 5.27084 15.6566C5.27084 15.2808 5.58251 14.9691 5.95834 14.9691H11.8892C12.265 14.9691 12.5767 15.2808 12.5767 15.6566C12.5767 16.0325 12.2742 16.3441 11.8892 16.3441ZM16.0417 16.3441H14.3458C13.97 16.3441 13.6583 16.0325 13.6583 15.6566C13.6583 15.2808 13.97 14.9691 14.3458 14.9691H16.0417C16.4175 14.9691 16.7292 15.2808 16.7292 15.6566C16.7292 16.0325 16.4175 16.3441 16.0417 16.3441ZM16.0417 12.8975H10.9725C10.5967 12.8975 10.285 12.5858 10.285 12.21C10.285 11.8341 10.5967 11.5225 10.9725 11.5225H16.0417C16.4175 11.5225 16.7292 11.8341 16.7292 12.21C16.7292 12.5858 16.4175 12.8975 16.0417 12.8975Z" fill="#0C56EF"/>
</svg>
