<svg width="19" height="18" viewBox="0 0 19 18" fill="none" xmlns="http://www.w3.org/2000/svg">
<path d="M9.5 1.5C5.36 1.5 2 4.86 2 9C2 13.14 5.36 16.5 9.5 16.5C13.64 16.5 17 13.14 17 9C17 4.86 13.64 1.5 9.5 1.5ZM6.8975 10.1025C7.115 10.32 7.115 10.68 6.8975 10.8975C6.785 11.01 6.6425 11.0625 6.5 11.0625C6.3575 11.0625 6.215 11.01 6.1025 10.8975L4.6025 9.3975C4.385 9.18 4.385 8.82 4.6025 8.6025L6.1025 7.1025C6.32 6.885 6.68 6.885 6.8975 7.1025C7.115 7.32 7.115 7.68 6.8975 7.8975L5.795 9L6.8975 10.1025ZM10.7675 7.47L9.2675 10.9725C9.1775 11.1825 8.9675 11.31 8.75 11.31C8.675 11.31 8.6 11.295 8.5325 11.265C8.2475 11.145 8.1125 10.815 8.24 10.5225L9.74 7.02C9.86 6.735 10.19 6.6 10.475 6.7275C10.76 6.855 10.8875 7.185 10.7675 7.47ZM14.3975 9.3975L12.8975 10.8975C12.785 11.01 12.6425 11.0625 12.5 11.0625C12.3575 11.0625 12.215 11.01 12.1025 10.8975C11.885 10.68 11.885 10.32 12.1025 10.1025L13.205 9L12.1025 7.8975C11.885 7.68 11.885 7.32 12.1025 7.1025C12.32 6.885 12.68 6.885 12.8975 7.1025L14.3975 8.6025C14.615 8.82 14.615 9.18 14.3975 9.3975Z" fill="#E7B51D"/>
</svg>
