<svg width="20" height="19" viewBox="0 0 20 19" fill="none" xmlns="http://www.w3.org/2000/svg">
<path d="M9.67838 1.58301C5.3163 1.58301 1.76172 5.13759 1.76172 9.49967C1.76172 13.8618 5.3163 17.4163 9.67838 17.4163C14.0405 17.4163 17.5951 13.8618 17.5951 9.49967C17.5951 5.13759 14.0405 1.58301 9.67838 1.58301ZM13.4626 7.67884L8.9738 12.1676C8.86297 12.2784 8.71255 12.3418 8.55422 12.3418C8.39588 12.3418 8.24547 12.2784 8.13464 12.1676L5.89422 9.92717C5.66463 9.69759 5.66463 9.31759 5.89422 9.08801C6.1238 8.85842 6.5038 8.85842 6.73339 9.08801L8.55422 10.9088L12.6234 6.83967C12.853 6.61009 13.233 6.61009 13.4626 6.83967C13.6921 7.06926 13.6921 7.44134 13.4626 7.67884Z" fill="white"/>
</svg>
