<svg width="21" height="20" viewBox="0 0 21 20" fill="none" xmlns="http://www.w3.org/2000/svg">
<g id="vuesax/bold/tick-circle">
<g id="vuesax/bold/tick-circle_2">
<g id="tick-circle">
<path id="Vector" d="M10.5001 1.66675C5.90841 1.66675 2.16675 5.40841 2.16675 10.0001C2.16675 14.5917 5.90841 18.3334 10.5001 18.3334C15.0917 18.3334 18.8334 14.5917 18.8334 10.0001C18.8334 5.40841 15.0917 1.66675 10.5001 1.66675ZM14.4834 8.08342L9.75841 12.8084C9.64175 12.9251 9.48342 12.9917 9.31675 12.9917C9.15008 12.9917 8.99175 12.9251 8.87508 12.8084L6.51675 10.4501C6.27508 10.2084 6.27508 9.80841 6.51675 9.56675C6.75841 9.32508 7.15841 9.32508 7.40008 9.56675L9.31675 11.4834L13.6001 7.20008C13.8417 6.95842 14.2417 6.95842 14.4834 7.20008C14.7251 7.44175 14.7251 7.83342 14.4834 8.08342Z" fill="#6FCD78"/>
</g>
</g>
</g>
</svg>
