<svg width="22" height="22" viewBox="0 0 22 22" fill="none" xmlns="http://www.w3.org/2000/svg">
<path d="M11 4.26251C6.61832 4.26251 3.05249 7.82835 3.05249 12.21C3.05249 16.5917 6.61832 20.1667 11 20.1667C15.3817 20.1667 18.9475 16.6008 18.9475 12.2192C18.9475 7.83751 15.3817 4.26251 11 4.26251ZM11.6875 11.9167C11.6875 12.2925 11.3758 12.6042 11 12.6042C10.6242 12.6042 10.3125 12.2925 10.3125 11.9167V7.33335C10.3125 6.95751 10.6242 6.64585 11 6.64585C11.3758 6.64585 11.6875 6.95751 11.6875 7.33335V11.9167Z" fill="#E7B51D"/>
<path d="M13.6491 3.16248H8.3508C7.98413 3.16248 7.6908 2.86915 7.6908 2.50248C7.6908 2.13581 7.98413 1.83331 8.3508 1.83331H13.6491C14.0158 1.83331 14.3091 2.12665 14.3091 2.49331C14.3091 2.85998 14.0158 3.16248 13.6491 3.16248Z" fill="#E7B51D"/>
</svg>
