<svg width="24" height="24" viewBox="0 0 24 24" fill="none" xmlns="http://www.w3.org/2000/svg">
<g id="vuesax/bold/timer">
<g id="vuesax/bold/timer_2">
<g id="timer">
<path id="Vector" d="M4.08008 13.3199C4.08008 8.95412 7.63429 5.3999 12.0001 5.3999C16.3647 5.3999 19.9201 8.96299 19.9201 13.3299C19.9201 17.6957 16.3659 21.2499 12.0001 21.2499C7.63542 21.2499 4.08008 17.6868 4.08008 13.3199ZM12.0001 14.4999C12.8243 14.4999 13.5001 13.8241 13.5001 12.9999V7.9999C13.5001 7.17569 12.8243 6.4999 12.0001 6.4999C11.1759 6.4999 10.5001 7.17569 10.5001 7.9999V12.9999C10.5001 13.8241 11.1759 14.4999 12.0001 14.4999Z" stroke="#70707B" stroke-width="1.5"/>
<path id="Vector_2" d="M14.8901 3.45H9.11014C8.71014 3.45 8.39014 3.13 8.39014 2.73C8.39014 2.33 8.71014 2 9.11014 2H14.8901C15.2901 2 15.6101 2.32 15.6101 2.72C15.6101 3.12 15.2901 3.45 14.8901 3.45Z" fill="#70707B"/>
</g>
</g>
</g>
</svg>
