<svg width="15" height="31" viewBox="0 0 15 31" fill="none" xmlns="http://www.w3.org/2000/svg">
<g clip-path="url(#clip0_2701_72687)">
<path d="M12.8897 14.8044C13.2235 14.8044 13.5323 14.7192 13.8161 14.549C14.0999 14.3787 14.3185 14.1467 14.4721 13.8529C14.205 13.9798 13.9246 14.0616 13.6308 14.0983C13.337 14.135 13.0466 14.12 12.7595 14.0532C12.7395 13.9397 12.7128 13.8262 12.6794 13.7127C12.5725 13.2453 12.3672 12.8264 12.0634 12.4558C11.7596 12.0852 11.3924 11.7981 10.9618 11.5945C10.5311 11.3908 10.0754 11.2923 9.59466 11.299L9.93518 11.1788C9.95521 11.1722 10.012 11.1555 10.1054 11.1288C10.3458 11.0687 10.5194 11.0153 10.6262 10.9685C10.8132 10.875 10.885 10.7766 10.8416 10.6731C10.7982 10.5696 10.6329 10.5545 10.3458 10.628C10.1856 10.6681 9.94854 10.7448 9.63472 10.8583L9.4244 10.9385C9.62471 10.865 9.78161 10.7916 9.89512 10.7181C10.0754 10.6046 10.1756 10.4811 10.1956 10.3476C9.76158 10.4143 9.381 10.5946 9.05384 10.8884C9.17402 10.7682 9.24747 10.6247 9.27417 10.4577C8.77341 10.7715 8.31938 11.269 7.91209 11.95C7.62499 12.4441 7.32119 13.1151 7.0007 13.9631C6.67353 13.6226 6.3063 13.3288 5.89901 13.0817C4.6905 12.4474 3.44527 11.8999 2.16331 11.4392C2.16331 11.8398 2.27681 12.2087 2.50383 12.5459C2.73084 12.8831 3.0313 13.1251 3.4052 13.272C3.10474 13.2587 2.80762 13.2921 2.51384 13.3722C2.58729 13.7261 2.73752 14.0165 2.96453 14.2435C3.23161 14.5106 3.62554 14.7042 4.14634 14.8244C3.95938 14.8177 3.77911 14.8478 3.60551 14.9145C3.43191 14.9813 3.27834 15.0815 3.14481 15.215C3.3184 15.5422 3.57046 15.7859 3.90096 15.9461C4.23147 16.1064 4.57699 16.1531 4.93755 16.0863C4.67715 16.1998 4.50355 16.3367 4.41675 16.497C4.33663 16.6439 4.33329 16.7891 4.40673 16.9326C4.48018 17.0762 4.60704 17.1863 4.78732 17.2631C4.96759 17.3399 5.1679 17.3616 5.38823 17.3282C4.9075 17.8223 4.33997 18.1628 3.68563 18.3498C3.04465 18.5367 2.40033 18.5568 1.75268 18.4099C1.09167 18.2563 0.507442 17.9458 0 17.4785C0.707748 18.4399 1.58242 19.1677 2.62401 19.6618C3.58548 20.1158 4.62707 20.3495 5.74879 20.3629C6.81708 20.3695 7.84866 20.1759 8.84351 19.782C9.83837 19.388 10.6797 18.8405 11.3674 18.1395C12.0951 17.3983 12.5725 16.5604 12.7996 15.6256C13.1267 15.6523 13.4422 15.6073 13.746 15.4904C14.0498 15.3736 14.3152 15.1983 14.5422 14.9646C13.9814 15.0447 13.4305 14.9913 12.8897 14.8044Z" fill="#70707B"/>
</g>
<defs>
<clipPath id="clip0_2701_72687">
<rect width="14.5422" height="29.8667" fill="white" transform="matrix(1 0 0 -1 0 30.2888)"/>
</clipPath>
</defs>
</svg>
