<svg width="21" height="21" viewBox="0 0 21 21" fill="none" xmlns="http://www.w3.org/2000/svg">
<path id="Vector" d="M10.1941 0.299072C4.65873 0.299072 0.155273 4.78509 0.155273 10.2991C0.155273 15.8126 4.65873 20.2991 10.1941 20.2991C15.7291 20.2991 20.233 15.8126 20.233 10.2991C20.233 4.78509 15.7299 0.299072 10.1941 0.299072ZM14.6725 8.01034C14.677 8.10943 14.6794 8.20933 14.6794 8.30922C14.6794 11.3508 12.3559 14.8568 8.10476 14.8568C6.79986 14.8568 5.58514 14.477 4.56289 13.8236C4.74365 13.845 4.92763 13.8558 5.11405 13.8558C6.19695 13.8558 7.19291 13.4877 7.98385 12.8706C6.97293 12.852 6.11931 12.1866 5.82533 11.2718C5.96605 11.2984 6.11122 11.3133 6.25962 11.3133C6.4703 11.3133 6.67491 11.2859 6.8686 11.2332C5.81158 11.0221 5.01538 10.092 5.01538 8.97627C5.01538 8.9666 5.01538 8.95653 5.01579 8.94726C5.32715 9.11926 5.6834 9.22318 6.06189 9.23487C5.4424 8.8228 5.03439 8.11789 5.03439 7.31953C5.03439 6.8974 5.14802 6.50184 5.34696 6.16188C6.48607 7.55477 8.18927 8.47075 10.1092 8.56742C10.0696 8.39865 10.0498 8.22343 10.0498 8.04257C10.0498 6.77172 11.0841 5.74095 12.3599 5.74095C13.0247 5.74095 13.6244 6.02049 14.0466 6.46761C14.5734 6.36449 15.0668 6.17356 15.5144 5.90892C15.3405 6.44666 14.9754 6.8974 14.497 7.18258C14.9649 7.12699 15.4113 7.00374 15.8242 6.82046C15.516 7.28127 15.1242 7.68689 14.6725 8.01034Z" fill="#636363"/>
</svg>
