<svg width="20" height="20" viewBox="0 0 20 20" fill="none" xmlns="http://www.w3.org/2000/svg">
<g id="browser 1" clip-path="url(#clip0_1763_34740)">
<path id="Vector" d="M15.8333 0.833496H4.16667C3.062 0.834819 2.00296 1.27423 1.22185 2.05535C0.440735 2.83646 0.00132321 3.8955 0 5.00016L0 15.0002C0.00132321 16.1048 0.440735 17.1639 1.22185 17.945C2.00296 18.7261 3.062 19.1655 4.16667 19.1668H15.8333C16.938 19.1655 17.997 18.7261 18.7782 17.945C19.5593 17.1639 19.9987 16.1048 20 15.0002V5.00016C19.9987 3.8955 19.5593 2.83646 18.7782 2.05535C17.997 1.27423 16.938 0.834819 15.8333 0.833496ZM4.16667 2.50016H15.8333C16.4964 2.50016 17.1323 2.76355 17.6011 3.2324C18.0699 3.70124 18.3333 4.33712 18.3333 5.00016V5.8335H1.66667V5.00016C1.66667 4.33712 1.93006 3.70124 2.3989 3.2324C2.86774 2.76355 3.50363 2.50016 4.16667 2.50016ZM15.8333 17.5002H4.16667C3.50363 17.5002 2.86774 17.2368 2.3989 16.7679C1.93006 16.2991 1.66667 15.6632 1.66667 15.0002V7.50016H18.3333V15.0002C18.3333 15.6632 18.0699 16.2991 17.6011 16.7679C17.1323 17.2368 16.4964 17.5002 15.8333 17.5002ZM15.8333 10.8335C15.8333 11.0545 15.7455 11.2665 15.5893 11.4228C15.433 11.579 15.221 11.6668 15 11.6668H5C4.77899 11.6668 4.56702 11.579 4.41074 11.4228C4.25446 11.2665 4.16667 11.0545 4.16667 10.8335C4.16667 10.6125 4.25446 10.4005 4.41074 10.2442C4.56702 10.088 4.77899 10.0002 5 10.0002H15C15.221 10.0002 15.433 10.088 15.5893 10.2442C15.7455 10.4005 15.8333 10.6125 15.8333 10.8335ZM12.5 14.1668C12.5 14.3878 12.4122 14.5998 12.2559 14.7561C12.0996 14.9124 11.8877 15.0002 11.6667 15.0002H5C4.77899 15.0002 4.56702 14.9124 4.41074 14.7561C4.25446 14.5998 4.16667 14.3878 4.16667 14.1668C4.16667 13.9458 4.25446 13.7339 4.41074 13.5776C4.56702 13.4213 4.77899 13.3335 5 13.3335H11.6667C11.8877 13.3335 12.0996 13.4213 12.2559 13.5776C12.4122 13.7339 12.5 13.9458 12.5 14.1668ZM2.5 4.16683C2.5 4.00201 2.54887 3.8409 2.64044 3.70385C2.73201 3.56681 2.86216 3.46 3.01443 3.39693C3.1667 3.33386 3.33426 3.31735 3.49591 3.34951C3.65756 3.38166 3.80605 3.46103 3.92259 3.57757C4.03913 3.69412 4.1185 3.8426 4.15065 4.00425C4.18281 4.16591 4.16631 4.33346 4.10323 4.48573C4.04016 4.638 3.93335 4.76815 3.79631 4.85972C3.65927 4.95129 3.49815 5.00016 3.33333 5.00016C3.11232 5.00016 2.90036 4.91237 2.74408 4.75609C2.5878 4.5998 2.5 4.38784 2.5 4.16683ZM5 4.16683C5 4.00201 5.04887 3.8409 5.14044 3.70385C5.23201 3.56681 5.36216 3.46 5.51443 3.39693C5.6667 3.33386 5.83426 3.31735 5.99591 3.34951C6.15756 3.38166 6.30605 3.46103 6.42259 3.57757C6.53913 3.69412 6.6185 3.8426 6.65065 4.00425C6.68281 4.16591 6.66631 4.33346 6.60323 4.48573C6.54016 4.638 6.43335 4.76815 6.29631 4.85972C6.15927 4.95129 5.99815 5.00016 5.83333 5.00016C5.61232 5.00016 5.40036 4.91237 5.24408 4.75609C5.0878 4.5998 5 4.38784 5 4.16683ZM7.5 4.16683C7.5 4.00201 7.54887 3.8409 7.64044 3.70385C7.73201 3.56681 7.86216 3.46 8.01443 3.39693C8.1667 3.33386 8.33426 3.31735 8.49591 3.34951C8.65756 3.38166 8.80604 3.46103 8.92259 3.57757C9.03913 3.69412 9.1185 3.8426 9.15065 4.00425C9.18281 4.16591 9.16631 4.33346 9.10323 4.48573C9.04016 4.638 8.93335 4.76815 8.79631 4.85972C8.65927 4.95129 8.49815 5.00016 8.33333 5.00016C8.11232 5.00016 7.90036 4.91237 7.74408 4.75609C7.5878 4.5998 7.5 4.38784 7.5 4.16683Z" fill="#3772FF"/>
</g>
<defs>
<clipPath id="clip0_1763_34740">
<rect width="20" height="20" fill="white"/>
</clipPath>
</defs>
</svg>
