<svg width="32" height="32" viewBox="0 0 32 32" fill="none" xmlns="http://www.w3.org/2000/svg">
<g id="Group">
<g id="Group_2">
<path id="Vector" d="M13.4047 11.9332C20.8079 11.9332 26.8094 9.26187 26.8094 5.96661C26.8094 2.67134 20.8079 0 13.4047 0C6.0015 0 0 2.67134 0 5.96661C0 9.26187 6.0015 11.9332 13.4047 11.9332Z" fill="white"/>
<path id="Vector_2" d="M16.5089 27.8794C15.5692 27.6402 14.8675 26.8741 14.6903 25.9381C14.2663 25.9567 13.8374 25.9666 13.4047 25.9666C6.00008 25.9666 0 23.2976 0 20C0 21.3761 0 22.2959 0 24.562C0 27.8584 6.00008 30.5286 13.4047 30.5286C14.4696 30.5286 15.501 30.4679 16.4953 30.3625C16.0638 29.5976 16.044 28.653 16.5089 27.8794Z" fill="white"/>
<path id="Vector_3" d="M13.4047 24.3301C13.8237 24.3301 14.2353 24.319 14.6444 24.3029V23.6186C14.6444 22.4731 15.4266 21.4875 16.5213 21.2148C16.2337 20.7276 16.1283 20.1735 16.1965 19.6392C15.2952 19.7235 14.363 19.7693 13.4047 19.7693C6.00008 19.7693 0 17.1003 0 13.8027C0 15.1788 0 16.0986 0 18.3648C0.00123969 21.6599 6.00008 24.3301 13.4047 24.3301Z" fill="white"/>
<path id="Vector_4" d="M13.4054 18.1312C14.7294 18.1312 16.0063 18.0432 17.215 17.8833L18.2167 16.8816C18.6964 16.4006 19.3311 16.1551 19.9708 16.1551C20.401 16.1551 20.8324 16.2667 21.2204 16.4936C21.5031 15.4138 22.4824 14.644 23.618 14.644H25.4775C25.511 14.644 25.5444 14.6514 25.5767 14.6526C26.3614 13.8952 26.8089 13.0534 26.8089 12.1646C26.8089 10.9534 26.8089 9.69141 26.8089 7.60254C26.8089 10.8989 20.8088 13.5691 13.4042 13.5691C5.99955 13.5691 0.00195312 10.8989 0.00195312 7.60254C0.00195312 8.97859 0.00195312 9.89844 0.00195312 12.1646C0.00195312 15.4609 6.00079 18.1312 13.4054 18.1312Z" fill="white"/>
</g>
<g id="Group_3">
<path id="Vector_5" d="M31.9993 25.477V23.6175L29.7864 23.2555C29.6563 22.7324 29.4505 22.2402 29.179 21.7865L30.4683 19.9493L29.153 18.634L27.3381 19.9393C26.8856 19.6654 26.3897 19.4559 25.8628 19.3257L25.476 17.124H23.6165L23.2582 19.3195C22.7301 19.4484 22.2318 19.6542 21.7781 19.9257L19.9681 18.634L18.6528 19.9493L19.926 21.7691C19.6495 22.2253 19.44 22.7224 19.3086 23.2543L17.123 23.6175V25.477L19.3074 25.8638C19.4375 26.3956 19.647 26.894 19.9247 27.3502L18.6342 29.1539L19.9495 30.4705L21.7719 29.1948C22.2281 29.4688 22.7252 29.6746 23.2521 29.8048L23.6165 32.0002H25.476L25.8665 29.7986C26.3909 29.6672 26.8868 29.4564 27.3393 29.1824L29.1753 30.4705L30.4893 29.1539L29.179 27.3353C29.4505 26.8828 29.6563 26.3894 29.7852 25.8638L31.9993 25.477ZM24.5612 27.1556C23.1306 27.1556 21.9677 25.9952 21.9677 24.5621C21.9677 23.1315 23.1306 21.9687 24.5612 21.9687C25.9942 21.9687 27.1546 23.1315 27.1546 24.5621C27.1546 25.9952 25.9942 27.1556 24.5612 27.1556Z" fill="white"/>
</g>
</g>
</svg>
