<svg width="72" height="72" viewBox="0 0 72 72" fill="none" xmlns="http://www.w3.org/2000/svg">
<rect width="72" height="72" rx="36" fill="#099DFD"/>
<path d="M33.4047 31.9332C40.8079 31.9332 46.8094 29.2619 46.8094 25.9666C46.8094 22.6713 40.8079 20 33.4047 20C26.0015 20 20 22.6713 20 25.9666C20 29.2619 26.0015 31.9332 33.4047 31.9332Z" fill="white"/>
<path d="M36.5089 47.8794C35.5692 47.6402 34.8675 46.8741 34.6903 45.9381C34.2663 45.9567 33.8374 45.9666 33.4047 45.9666C26.0001 45.9666 20 43.2976 20 40C20 41.3761 20 42.2959 20 44.562C20 47.8584 26.0001 50.5286 33.4047 50.5286C34.4696 50.5286 35.501 50.4679 36.4953 50.3625C36.0638 49.5976 36.044 48.653 36.5089 47.8794Z" fill="white"/>
<path d="M33.4047 44.3301C33.8237 44.3301 34.2353 44.319 34.6444 44.3029V43.6186C34.6444 42.4731 35.4266 41.4875 36.5213 41.2148C36.2337 40.7276 36.1283 40.1735 36.1965 39.6392C35.2952 39.7235 34.363 39.7693 33.4047 39.7693C26.0001 39.7693 20 37.1003 20 33.8027C20 35.1788 20 36.0986 20 38.3648C20.0012 41.6599 26.0001 44.3301 33.4047 44.3301Z" fill="white"/>
<path d="M33.4054 38.1312C34.7294 38.1312 36.0063 38.0432 37.215 37.8833L38.2167 36.8816C38.6964 36.4006 39.3311 36.1551 39.9708 36.1551C40.401 36.1551 40.8324 36.2667 41.2204 36.4936C41.5031 35.4138 42.4824 34.644 43.618 34.644H45.4775C45.511 34.644 45.5444 34.6514 45.5767 34.6526C46.3614 33.8952 46.8089 33.0534 46.8089 32.1646C46.8089 30.9534 46.8089 29.6914 46.8089 27.6025C46.8089 30.8989 40.8088 33.5691 33.4042 33.5691C25.9996 33.5691 20.002 30.8989 20.002 27.6025C20.002 28.9786 20.002 29.8984 20.002 32.1646C20.002 35.4609 26.0008 38.1312 33.4054 38.1312Z" fill="white"/>
<path d="M51.9993 45.477V43.6175L49.7864 43.2555C49.6563 42.7324 49.4505 42.2402 49.179 41.7865L50.4683 39.9493L49.153 38.634L47.3381 39.9393C46.8856 39.6654 46.3897 39.4559 45.8628 39.3257L45.476 37.124H43.6165L43.2582 39.3195C42.7301 39.4484 42.2318 39.6542 41.7781 39.9257L39.9681 38.634L38.6528 39.9493L39.926 41.7691C39.6495 42.2253 39.44 42.7224 39.3086 43.2543L37.123 43.6175V45.477L39.3074 45.8638C39.4375 46.3956 39.647 46.894 39.9247 47.3502L38.6342 49.1539L39.9495 50.4705L41.7719 49.1948C42.2281 49.4688 42.7252 49.6746 43.2521 49.8048L43.6165 52.0002H45.476L45.8665 49.7986C46.3909 49.6672 46.8868 49.4564 47.3393 49.1824L49.1753 50.4705L50.4893 49.1539L49.179 47.3353C49.4505 46.8828 49.6563 46.3894 49.7852 45.8638L51.9993 45.477ZM44.5612 47.1556C43.1306 47.1556 41.9677 45.9952 41.9677 44.5621C41.9677 43.1315 43.1306 41.9687 44.5612 41.9687C45.9942 41.9687 47.1546 43.1315 47.1546 44.5621C47.1546 45.9952 45.9942 47.1556 44.5612 47.1556Z" fill="white"/>
</svg>
