<svg width="72" height="72" viewBox="0 0 72 72" fill="none" xmlns="http://www.w3.org/2000/svg">
<rect width="72" height="72" rx="36" fill="#3280FA"/>
<path d="M38.0446 45.1424V44.788C38.0492 44.4736 38.1456 44.1674 38.322 43.9071C38.4983 43.6468 38.7469 43.4437 39.0372 43.3229C39.3275 43.202 39.6468 43.1687 39.9558 43.227C40.2648 43.2852 40.55 43.4326 40.7763 43.6508C41.0537 43.9763 41.4435 44.2788 41.8393 43.9079L43.9138 41.8334C44.2784 41.4352 43.9923 41.0572 43.6566 40.7705C43.4325 40.547 43.2802 40.2618 43.2192 39.9513C43.1581 39.6408 43.191 39.3191 43.3137 39.0274C43.4678 38.6835 43.7312 38.4001 44.0629 38.2213C44.3947 38.0425 44.7762 37.9784 45.1482 38.0388C45.2997 38.0383 45.4448 37.978 45.5518 37.8709C45.6589 37.7638 45.7193 37.6187 45.7197 37.4673V34.5298C45.7193 34.3784 45.6589 34.2333 45.5518 34.1262C45.4447 34.0191 45.2996 33.9588 45.1482 33.9583C44.7762 34.0187 44.3947 33.9545 44.063 33.7757C43.7312 33.5969 43.4678 33.3136 43.3137 32.9696C43.191 32.6779 43.1581 32.3563 43.2192 32.0458C43.2803 31.7353 43.4326 31.4501 43.6566 31.2266C43.9822 30.9492 44.2846 30.5594 43.9138 30.1636L41.8393 28.0891C41.441 27.7244 41.063 28.0106 40.7763 28.3463C40.5517 28.5692 40.2661 28.7207 39.9556 28.7815C39.6451 28.8424 39.3235 28.81 39.0313 28.6883C38.7392 28.5667 38.4896 28.3613 38.314 28.0981C38.1384 27.8348 38.0447 27.5255 38.0446 27.2091V26.8547C38.0442 26.7033 37.9838 26.5582 37.8767 26.4511C37.7696 26.344 37.6245 26.2837 37.4731 26.2832H34.5357C34.3842 26.2837 34.2391 26.344 34.1321 26.4511C34.025 26.5582 33.9646 26.7033 33.9642 26.8547C34.0355 27.228 33.9758 27.6145 33.7952 27.9489C33.6146 28.2832 33.3241 28.5451 32.9728 28.6901C32.6216 28.8352 32.231 28.8546 31.8671 28.7451C31.5032 28.6356 31.1882 28.4039 30.9753 28.0891C30.9224 28.0361 30.8596 27.994 30.7905 27.9654C30.7213 27.9367 30.6472 27.9219 30.5724 27.9219C30.4975 27.9219 30.4234 27.9367 30.3543 27.9654C30.2851 27.9941 30.2223 28.0361 30.1695 28.0891L28.095 30.1636C28.042 30.2165 28 30.2793 27.9713 30.3484C27.9426 30.4175 27.9278 30.4917 27.9278 30.5665C27.9278 30.6413 27.9426 30.7155 27.9713 30.7846C28 30.8537 28.042 30.9165 28.095 30.9694C28.4098 31.1823 28.6416 31.4973 28.7511 31.8612C28.8606 32.2252 28.8412 32.6157 28.6961 32.967C28.551 33.3183 28.2892 33.6087 27.9547 33.7893C27.6203 33.9699 27.2339 34.0296 26.8606 33.9583C26.7091 33.9587 26.564 34.0191 26.4569 34.1262C26.3499 34.2333 26.2895 34.3784 26.2891 34.5298V37.4673C26.2895 37.6187 26.3499 37.7638 26.4569 37.8709C26.564 37.9779 26.7091 38.0383 26.8606 38.0387H27.2149C27.5313 38.0388 27.8407 38.1325 28.104 38.3081C28.3672 38.4837 28.5726 38.7333 28.6943 39.0254C28.8159 39.3176 28.8483 39.6392 28.7874 39.9498C28.7265 40.2603 28.5751 40.5459 28.3521 40.7705C28.0266 41.0478 27.7242 41.4376 28.095 41.8334L30.1695 43.9079C30.5677 44.2726 30.9458 43.9864 31.2324 43.6508C31.4827 43.4104 31.803 43.2561 32.1469 43.2102C32.4908 43.1642 32.8404 43.2291 33.1449 43.3954C33.4495 43.5617 33.6931 43.8207 33.8404 44.1349C33.9877 44.449 34.031 44.8019 33.9641 45.1424C33.9646 45.2938 34.0249 45.4389 34.132 45.546C34.2391 45.6531 34.3842 45.7134 34.5357 45.7138H37.4731C37.6245 45.7134 37.7696 45.653 37.8767 45.546C37.9838 45.4389 38.0442 45.2938 38.0446 45.1424ZM36.0044 41.4277C34.5649 41.4264 33.1847 40.854 32.1668 39.8361C31.149 38.8182 30.5765 37.438 30.5752 35.9985C30.8721 28.7958 41.1378 28.7978 41.4335 35.9986C41.4322 37.4381 40.8598 38.8182 39.8419 39.8361C38.824 40.854 37.4439 41.4264 36.0044 41.4277Z" fill="white"/>
<path d="M36.0047 31.7119C30.3325 31.9087 30.3311 40.0865 36.0046 40.2843C37.1414 40.2843 38.2316 39.8327 39.0354 39.0289C39.8392 38.2251 40.2908 37.1349 40.2908 35.9981C40.2908 34.8614 39.8392 33.7711 39.0354 32.9673C38.2316 32.1635 37.1414 31.7119 36.0047 31.7119Z" fill="white"/>
<path d="M38.8617 24.5683C38.8631 24.114 39.0441 23.6787 39.3653 23.3575C39.6866 23.0362 40.1219 22.8552 40.5762 22.8538L47.5141 22.8538C47.6532 23.3915 47.9835 23.86 48.4433 24.1716C48.9031 24.4832 49.4607 24.6165 50.0117 24.5464C50.5627 24.4763 51.0692 24.2077 51.4363 23.7909C51.8034 23.3741 52.006 22.8377 52.006 22.2823C52.006 21.7269 51.8034 21.1905 51.4363 20.7737C51.0692 20.357 50.5627 20.0883 50.0117 20.0183C49.4607 19.9482 48.9031 20.0814 48.4433 20.393C47.9835 20.7046 47.6532 21.1731 47.5141 21.7109H40.5762C39.8184 21.7111 39.0918 22.0123 38.556 22.5481C38.0202 23.0839 37.719 23.8105 37.7188 24.5683C37.7211 24.7183 37.7823 24.8614 37.8892 24.9667C37.9961 25.072 38.1402 25.131 38.2902 25.131C38.4403 25.131 38.5843 25.072 38.6912 24.9667C38.7982 24.8614 38.8594 24.7183 38.8617 24.5683Z" fill="white"/>
<path d="M24.4939 22.8538H31.4317C31.886 22.8551 32.3213 23.0362 32.6426 23.3574C32.9638 23.6786 33.1449 24.1139 33.1462 24.5682C33.1491 24.7179 33.2106 24.8604 33.3175 24.9652C33.4243 25.07 33.568 25.1287 33.7177 25.1287C33.8674 25.1287 34.011 25.07 34.1179 24.9652C34.2248 24.8604 34.2863 24.7179 34.2892 24.5683C34.2889 23.8105 33.9878 23.0839 33.452 22.5481C32.9161 22.0122 32.1895 21.7111 31.4317 21.7108H24.4939C24.3548 21.1731 24.0244 20.7045 23.5646 20.393C23.1048 20.0814 22.5472 19.9482 21.9962 20.0183C21.4452 20.0884 20.9387 20.357 20.5716 20.7738C20.2045 21.1905 20.002 21.7269 20.002 22.2823C20.002 22.8377 20.2045 23.3741 20.5716 23.7909C20.9387 24.2077 21.4452 24.4763 21.9962 24.5464C22.5472 24.6165 23.1048 24.4832 23.5646 24.1717C24.0244 23.8601 24.3548 23.3915 24.4939 22.8538Z" fill="white"/>
<path d="M47.5141 49.1421H40.5762C40.1219 49.1408 39.6866 48.9597 39.3654 48.6385C39.0441 48.3173 38.8631 47.882 38.8617 47.4277C38.8588 47.278 38.7973 47.1355 38.6905 47.0307C38.5836 46.9259 38.4399 46.8672 38.2903 46.8672C38.1406 46.8672 37.9969 46.9259 37.89 47.0307C37.7832 47.1355 37.7217 47.278 37.7188 47.4276C37.719 48.1854 38.0202 48.912 38.556 49.4478C39.0918 49.9837 39.8184 50.2848 40.5762 50.2851L47.5141 50.285C47.6532 50.8227 47.9835 51.2913 48.4433 51.6029C48.9031 51.9145 49.4607 52.0477 50.0117 51.9776C50.5627 51.9075 51.0692 51.6389 51.4363 51.2221C51.8034 50.8053 52.006 50.269 52.006 49.7136C52.006 49.1581 51.8034 48.6218 51.4363 48.205C51.0692 47.7882 50.5627 47.5196 50.0117 47.4495C49.4607 47.3794 48.9031 47.5126 48.4433 47.8242C47.9835 48.1358 47.6532 48.6044 47.5141 49.1421Z" fill="white"/>
<path d="M33.1458 47.4279C33.1445 47.8822 32.9634 48.3175 32.6422 48.6388C32.321 48.96 31.8857 49.1411 31.4314 49.1424L24.4935 49.1425C24.3544 48.6038 24.0236 48.1342 23.5631 47.822C23.1026 47.5097 22.544 47.3761 21.9921 47.4462C21.4401 47.5163 20.9327 47.7853 20.5649 48.2028C20.1971 48.6203 19.9941 49.1575 19.9941 49.7139C19.9941 50.2703 20.1971 50.8076 20.5649 51.2251C20.9327 51.6426 21.4401 51.9116 21.9921 51.9817C22.544 52.0518 23.1026 51.9182 23.5631 51.6059C24.0236 51.2936 24.3544 50.8241 24.4935 50.2854H31.4314C32.1891 50.2851 32.9158 49.984 33.4516 49.4482C33.9874 48.9123 34.2885 48.1857 34.2888 47.4279C34.2865 47.2779 34.2253 47.1348 34.1183 47.0295C34.0114 46.9242 33.8674 46.8652 33.7173 46.8652C33.5673 46.8652 33.4232 46.9242 33.3163 47.0295C33.2094 47.1348 33.1482 47.2779 33.1458 47.4279Z" fill="white"/>
</svg>
