<svg width="77" height="52" viewBox="0 0 77 52" fill="none" xmlns="http://www.w3.org/2000/svg">
<g clip-path="url(#clip0_544_13816)">
<path d="M39.2093 2.5C38.0872 2.73474 28.2118 4.00224 26.9824 4.60448C26.6991 5.16054 26.1069 6.89543 25.9192 7.16994C25.1255 7.33733 21.9094 7.93701 21.7072 8.05181C21.594 8.38532 20.855 9.80915 20.6849 9.9759C20.0038 10.1427 16.8285 10.7197 16.432 10.9981C16.2056 12.3321 15.3413 25.6808 21.012 34.4079C26.6827 43.1349 36.6007 48.9439 39.2093 49.5H39.2298C41.8384 48.9439 51.736 43.1349 57.4067 34.4079C63.0767 25.6802 62.2348 12.3321 62.0071 10.9981C61.61 10.7197 58.4341 10.1427 57.7543 9.9759C57.5841 9.80915 56.8458 8.38532 56.7319 8.05181C56.5304 7.93701 53.3149 7.33669 52.52 7.16994C52.3322 6.89543 51.7407 5.16054 51.4568 4.60448C50.2313 4.00416 40.3471 2.73923 39.2093 2.5ZM39.2093 5.90725C40.1816 6.1112 48.6304 7.21804 49.6779 7.73113C49.9193 8.20638 50.4179 9.68104 50.5776 9.91578C51.2561 10.0582 54.0238 10.5592 54.1966 10.6574C54.2934 10.9421 54.9094 12.1785 55.0553 12.3209C55.637 12.4633 58.3559 12.9454 58.6948 13.1827C58.8891 14.3231 59.616 25.7262 54.7691 33.1853C49.9221 40.645 41.4596 45.6181 39.2298 46.0928H39.2093C36.9795 45.6181 28.517 40.6444 23.67 33.1853C18.8238 25.7262 19.5507 14.3231 19.7443 13.1827C20.0839 12.9448 22.8021 12.4633 23.3838 12.3209C23.5297 12.1785 24.1457 10.9421 24.2425 10.6574C24.4153 10.5592 27.1626 10.0582 27.8411 9.91578C28.0014 9.68104 28.5191 8.20638 28.7612 7.73113C29.8113 7.21611 38.2502 6.10735 39.2093 5.90725Z" fill="#26272B"/>
<path d="M39.744 9.62547C39.4025 9.65564 39.3515 9.86979 39.3494 9.95934C39.2793 20.4207 39.3126 31.5189 39.2179 42.2662C39.2951 42.6062 39.9003 42.0837 40.2482 41.9127C44.6773 39.7313 58.4919 27.7447 50.5511 23.4516C56.6315 19.8895 55.5479 16.49 52.8529 14.6335C47.2803 10.793 40.9225 9.83946 40.1824 9.66475C39.9974 9.62107 39.8579 9.61542 39.744 9.62547ZM43.4487 13.9265C43.535 13.8844 47.1069 15.0708 49.0605 16.2636C51.3003 17.6311 50.542 18.9454 49.2359 19.7398C48.5267 20.1728 44.1379 22.9968 43.4048 23.157C43.3887 22.6122 43.3855 16.468 43.4487 13.9265ZM46.7149 25.8869C47.2043 25.9004 47.6691 26.0406 48.0083 26.3583C48.3113 26.6178 49.6471 27.9079 46.8026 31.602C45.7434 33.2775 43.5223 35.3789 43.2733 35.5888C43.2431 35.5963 43.2307 35.5547 43.2075 35.5692C43.2307 34.3682 43.1948 28.5543 43.2733 26.9278C43.4306 26.8543 45.2469 25.8464 46.7149 25.8869Z" fill="#26272B"/>
<path d="M26.7583 13.4138C26.4378 13.5533 23.7073 15.3214 23.4325 15.6003C23.3565 18.065 24.0062 24.7149 26.3995 29.905C26.7021 30.5614 27.0307 31.177 27.3864 31.7341C28.0689 32.9325 28.1072 32.8377 28.9014 31.6901C29.4517 30.9333 30.2453 29.8108 30.4442 29.5797C30.7184 30.5099 32.4916 36.3124 34.9855 39.8192C36.091 41.3751 37.7889 42.8448 37.7821 42.2393C37.7141 36.3143 37.5474 10.6671 37.7302 9.6219C36.9946 9.60431 34.5816 9.92402 34.1042 10.1759C34.0647 11.1137 34.4358 28.6997 34.2073 30.6996C32.5169 26.5113 31.9401 15.459 32.2742 10.8989C31.3595 11.0848 29.1287 11.9949 28.8088 12.3209C28.3974 13.1582 28.9589 22.3412 29.5431 25.4234C29.3436 25.7431 28.7686 26.6112 28.6772 26.7506C27.5198 24.6332 26.4137 18.087 26.7583 13.4138Z" fill="#26272B"/>
</g>
<defs>
<clipPath id="clip0_544_13816">
<rect width="76" height="52" fill="white" transform="translate(0.5)"/>
</clipPath>
</defs>
</svg>
