<svg width="486" height="491" viewBox="0 0 486 491" fill="none" xmlns="http://www.w3.org/2000/svg">
<g clip-path="url(#clip0_1305_126421)">
<mask id="mask0_1305_126421" style="mask-type:luminance" maskUnits="userSpaceOnUse" x="0" y="46" width="384" height="384">
<path d="M384 238C384 131.961 298.039 46 192 46C85.9613 46 0 131.961 0 238C0 344.039 85.9613 430 192 430C298.039 430 384 344.039 384 238Z" fill="white"/>
</mask>
<g mask="url(#mask0_1305_126421)">
<path d="M384 238C384 131.961 298.039 46 192 46C85.9613 46 0 131.961 0 238C0 344.039 85.9613 430 192 430C298.039 430 384 344.039 384 238Z" fill="white"/>
<path d="M325 144.5H59C54.8579 144.5 51.5 147.858 51.5 152V698C51.5 702.142 54.8579 705.5 59 705.5H325C329.142 705.5 332.5 702.142 332.5 698V152C332.5 147.858 329.142 144.5 325 144.5Z" fill="white"/>
<path d="M69.0161 173L69.8421 170.634H73.6641L74.4901 173H76.3801L72.6841 162.766H70.8501L67.1541 173H69.0161ZM71.5361 165.818C71.6341 165.538 71.7181 165.23 71.7601 165.034C71.7881 165.244 71.8861 165.552 71.9701 165.818L73.1461 169.122H70.3741L71.5361 165.818ZM78.8394 173V169.276C78.8394 168.156 79.4834 167.428 80.5334 167.428C81.4154 167.428 81.9894 167.988 81.9894 169.15V173H83.6974V168.744C83.6974 166.952 82.8014 165.874 81.0654 165.874C80.1274 165.874 79.2874 166.28 78.8534 166.98L78.7134 166.084H77.1314V173H78.8394ZM87.1535 173.182C88.2314 173.182 89.1695 172.692 89.4635 171.978L89.5895 173H91.0875V168.8C91.0875 166.882 89.9395 165.874 88.0775 165.874C86.2015 165.874 84.9695 166.854 84.9695 168.352H86.4255C86.4255 167.624 86.9855 167.204 87.9935 167.204C88.8615 167.204 89.4215 167.582 89.4215 168.52V168.674L87.3495 168.828C85.7115 168.954 84.7875 169.752 84.7875 171.026C84.7875 172.328 85.6834 173.182 87.1535 173.182ZM87.7135 171.894C86.9435 171.894 86.5235 171.586 86.5235 170.956C86.5235 170.396 86.9295 170.046 87.9935 169.948L89.4355 169.836V170.2C89.4355 171.264 88.7635 171.894 87.7135 171.894ZM94.2075 173V162.584H92.5135V173H94.2075ZM95.1171 176.206C95.4951 176.304 95.9151 176.36 96.3911 176.36C97.5251 176.36 98.2531 175.828 98.7711 174.54L102.159 166.084H100.395L98.5191 171.124L96.7411 166.084H94.9351L97.7211 173.294L97.5251 173.812C97.2311 174.624 96.8111 174.778 96.1391 174.778H95.1171V176.206ZM102.167 170.9C102.167 172.258 103.259 173.182 104.981 173.182C106.689 173.182 107.879 172.314 107.879 170.914C107.879 169.85 107.291 169.318 106.129 169.052L104.883 168.758C104.295 168.618 103.987 168.366 103.987 167.974C103.987 167.456 104.379 167.148 105.051 167.148C105.709 167.148 106.101 167.526 106.115 168.114H107.739C107.725 166.77 106.675 165.874 105.121 165.874C103.525 165.874 102.377 166.686 102.377 168.044C102.377 169.15 102.979 169.738 104.225 170.018L105.471 170.312C106.087 170.452 106.269 170.704 106.269 171.054C106.269 171.558 105.835 171.88 105.037 171.88C104.253 171.88 103.805 171.502 103.791 170.9H102.167ZM109.753 164.698C110.313 164.698 110.775 164.236 110.775 163.662C110.775 163.088 110.313 162.64 109.753 162.64C109.165 162.64 108.703 163.088 108.703 163.662C108.703 164.236 109.165 164.698 109.753 164.698ZM108.899 173H110.607V166.084H108.899V173ZM111.56 170.9C111.56 172.258 112.652 173.182 114.374 173.182C116.082 173.182 117.272 172.314 117.272 170.914C117.272 169.85 116.684 169.318 115.522 169.052L114.276 168.758C113.688 168.618 113.38 168.366 113.38 167.974C113.38 167.456 113.772 167.148 114.444 167.148C115.102 167.148 115.494 167.526 115.508 168.114H117.132C117.118 166.77 116.068 165.874 114.514 165.874C112.918 165.874 111.77 166.686 111.77 168.044C111.77 169.15 112.372 169.738 113.618 170.018L114.864 170.312C115.48 170.452 115.662 170.704 115.662 171.054C115.662 171.558 115.228 171.88 114.43 171.88C113.646 171.88 113.198 171.502 113.184 170.9H111.56Z" fill="#383942"/>
<path d="M308.389 162.12V173.88C308.389 174.307 307.995 174.627 307.582 174.533C304.602 173.867 302.389 171.193 302.389 168C302.389 164.807 304.602 162.133 307.582 161.467C307.995 161.373 308.389 161.693 308.389 162.12ZM309.742 162.12V166.66C309.742 167.027 310.042 167.327 310.409 167.327H314.935C315.362 167.327 315.682 166.933 315.589 166.513C315.022 164.007 313.055 162.033 310.555 161.467C310.135 161.373 309.742 161.693 309.742 162.12ZM309.742 169.34V173.88C309.742 174.307 310.135 174.627 310.555 174.533C313.062 173.967 315.029 171.987 315.595 169.48C315.689 169.067 315.362 168.667 314.942 168.667H310.415C310.042 168.673 309.742 168.973 309.742 169.34Z" fill="#5167F6"/>
<path d="M67 184H317" stroke="#DEDFE3" stroke-width="0.5" stroke-linecap="round"/>
<path d="M99 224C99 215.163 91.8366 208 83 208C74.1634 208 67 215.163 67 224C67 232.837 74.1634 240 83 240C91.8366 240 99 232.837 99 224Z" fill="#F4F4F6"/>
<path d="M83.5861 220.706L80.9961 223.296C80.6061 223.686 80.6061 224.316 80.9961 224.706L83.5861 227.296C84.2161 227.926 85.2961 227.476 85.2961 226.586V221.406C85.2961 220.516 84.2161 220.076 83.5861 220.706Z" fill="#131316"/>
<path d="M158.956 225L160.372 220.944H166.924L168.34 225H171.58L165.244 207.456H162.1L155.764 225H158.956ZM163.276 212.688C163.444 212.208 163.588 211.68 163.66 211.344C163.708 211.704 163.876 212.232 164.02 212.688L166.036 218.352H161.284L163.276 212.688ZM179.983 213.144V219.36C179.983 221.616 179.095 222.696 177.247 222.696C175.615 222.696 174.727 221.784 174.727 219.528V213.144H171.799V220.56C171.799 223.464 173.407 225.312 176.143 225.312C177.727 225.312 179.263 224.544 179.983 223.416L180.199 225H182.911V213.144H179.983ZM184.303 218.808C184.303 222.24 186.511 224.76 189.871 224.76C191.575 224.76 193.039 224.064 193.783 222.96V224.928C193.783 226.896 192.487 228.168 190.471 228.168C188.671 228.168 187.495 227.256 187.303 225.72H184.375C184.735 228.888 187.063 230.832 190.471 230.832C194.311 230.832 196.687 228.36 196.687 224.4V213.144H193.975L193.807 214.776C193.111 213.504 191.719 212.76 189.943 212.76C186.559 212.76 184.303 215.352 184.303 218.808ZM187.255 218.736C187.255 216.792 188.503 215.328 190.447 215.328C192.487 215.328 193.711 216.72 193.711 218.736C193.711 220.8 192.463 222.216 190.447 222.216C188.527 222.216 187.255 220.728 187.255 218.736ZM206.797 213.144V219.36C206.797 221.616 205.909 222.696 204.061 222.696C202.429 222.696 201.541 221.784 201.541 219.528V213.144H198.613V220.56C198.613 223.464 200.221 225.312 202.957 225.312C204.541 225.312 206.077 224.544 206.797 223.416L207.013 225H209.725V213.144H206.797ZM210.643 221.4C210.643 223.728 212.515 225.312 215.467 225.312C218.395 225.312 220.435 223.824 220.435 221.424C220.435 219.6 219.427 218.688 217.435 218.232L215.299 217.728C214.291 217.488 213.763 217.056 213.763 216.384C213.763 215.496 214.435 214.968 215.587 214.968C216.715 214.968 217.387 215.616 217.411 216.624H220.195C220.171 214.32 218.371 212.784 215.707 212.784C212.971 212.784 211.003 214.176 211.003 216.504C211.003 218.4 212.035 219.408 214.171 219.888L216.307 220.392C217.363 220.632 217.675 221.064 217.675 221.664C217.675 222.528 216.931 223.08 215.563 223.08C214.219 223.08 213.451 222.432 213.427 221.4H210.643ZM225.736 225V215.592H228.04V213.144H225.736V209.448H222.808V213.144H220.528V215.592H222.808V225H225.736Z" fill="#131316"/>
<path d="M183.908 244.988V243.896H179.9L181.7 242.336C183.236 241.004 183.848 240.128 183.848 238.892C183.848 237.224 182.732 236.168 180.992 236.168C179.228 236.168 178.052 237.38 178.016 239.24H179.192C179.216 238.004 179.912 237.224 180.98 237.224C182.024 237.224 182.648 237.872 182.648 238.964C182.648 239.888 182.252 240.476 180.848 241.688L178.052 244.1V245L183.908 244.988ZM184.75 240.668C184.75 243.368 186.082 245.156 188.326 245.156C190.558 245.156 191.89 243.368 191.89 240.668C191.89 237.98 190.498 236.156 188.326 236.156C186.142 236.156 184.75 237.98 184.75 240.668ZM185.914 240.668C185.914 238.508 186.802 237.212 188.326 237.212C189.85 237.212 190.726 238.508 190.726 240.668C190.726 242.804 189.85 244.1 188.326 244.1C186.802 244.1 185.914 242.804 185.914 240.668ZM198.651 244.988V243.896H194.643L196.443 242.336C197.979 241.004 198.591 240.128 198.591 238.892C198.591 237.224 197.475 236.168 195.735 236.168C193.971 236.168 192.795 237.38 192.759 239.24H193.935C193.959 238.004 194.655 237.224 195.723 237.224C196.767 237.224 197.391 237.872 197.391 238.964C197.391 239.888 196.995 240.476 195.591 241.688L192.795 244.1V245L198.651 244.988ZM205.36 244.988V243.896H201.352L203.152 242.336C204.688 241.004 205.3 240.128 205.3 238.892C205.3 237.224 204.184 236.168 202.444 236.168C200.68 236.168 199.504 237.38 199.468 239.24H200.644C200.668 238.004 201.364 237.224 202.432 237.224C203.476 237.224 204.1 237.872 204.1 238.964C204.1 239.888 203.704 240.476 202.3 241.688L199.504 244.1V245L205.36 244.988Z" fill="#868898"/>
<path d="M317 224C317 215.163 309.837 208 301 208C292.163 208 285 215.163 285 224C285 232.837 292.163 240 301 240C309.837 240 317 232.837 317 224Z" fill="#F4F4F6"/>
<path d="M300.414 227.292L303.004 224.702C303.394 224.312 303.394 223.682 303.004 223.292L300.414 220.702C299.784 220.082 298.704 220.522 298.704 221.412V226.582C298.704 227.482 299.784 227.922 300.414 227.292Z" fill="#131316"/>
<mask id="mask1_1305_126421" style="mask-type:luminance" maskUnits="userSpaceOnUse" x="67" y="264" width="250" height="250">
<path d="M317 264H67V514H317V264Z" fill="white"/>
</mask>
<g mask="url(#mask1_1305_126421)">
<path d="M317 264H67V514H317V264Z" fill="white"/>
<path d="M310.882 427.627C302.725 452.733 286.829 474.611 265.473 490.127C244.117 505.643 218.397 514 192 514V489C213.118 489 233.694 482.315 250.779 469.902C267.863 457.489 280.58 439.986 287.106 419.902L310.882 427.627Z" fill="#0C56EF"/>
<path d="M192 264C211.726 264 231.173 268.669 248.749 277.624C266.325 286.58 281.532 299.568 293.127 315.527C304.722 331.486 312.375 349.962 315.461 369.446C318.547 388.929 316.978 408.866 310.882 427.627L287.106 419.902C291.982 404.893 293.238 388.943 290.769 373.357C288.3 357.77 282.178 342.989 272.902 330.221C263.626 317.454 251.46 307.064 237.399 299.899C223.338 292.735 207.781 289 192 289V264Z" fill="#C4CFFF"/>
<path d="M192 514C175.585 514 159.33 510.767 144.165 504.485C128.999 498.203 115.219 488.996 103.612 477.388C92.0043 465.781 82.7969 452.001 76.515 436.835C70.2332 421.67 67 405.415 67 389C67 372.585 70.2332 356.33 76.5151 341.165C82.7969 325.999 92.0044 312.219 103.612 300.612C115.219 289.004 128.999 279.797 144.165 273.515C159.33 267.233 175.585 264 192 264V289C178.868 289 165.864 291.587 153.732 296.612C141.599 301.637 130.575 309.003 121.289 318.289C112.003 327.575 104.638 338.599 99.6121 350.732C94.5866 362.864 92 375.868 92 389C92 402.132 94.5866 415.136 99.612 427.268C104.638 439.401 112.003 450.425 121.289 459.711C130.575 468.997 141.599 476.362 153.732 481.388C165.864 486.413 178.868 489 192 489V514Z" fill="#5167F6"/>
<path d="M140.628 396.04H143.092V393.32C147.38 392.84 150.132 390.152 150.132 386.248C150.132 382.856 148.276 380.872 144.18 379.976L143.092 379.72V372.84C144.756 373.192 145.716 374.312 145.78 376.04H149.748C149.62 372.2 147.124 369.672 143.092 369.256V366.536H140.628V369.256C136.372 369.704 133.556 372.392 133.556 376.136C133.556 379.656 135.572 381.896 139.604 382.76L140.628 382.984V389.8C138.548 389.544 137.364 388.392 137.332 386.568H133.236C133.332 390.472 136.18 393.064 140.628 393.384V396.04ZM140.5 379.144C138.452 378.696 137.556 377.704 137.556 376.008C137.556 374.28 138.708 373.128 140.628 372.808V379.176L140.5 379.144ZM143.316 383.56C145.236 383.976 146.164 384.968 146.164 386.6C146.164 388.232 145.012 389.352 143.092 389.736V383.496L143.316 383.56ZM158.254 381.416C161.518 381.416 163.054 383.144 163.054 385.512C163.054 388.104 161.358 389.768 158.798 389.768C156.302 389.768 154.638 388.232 154.638 385.544H150.606C150.606 390.6 154.158 393.416 158.734 393.416C163.47 393.416 167.214 390.376 167.214 385.576C167.214 381.448 164.43 378.824 160.846 378.12L166.542 372.872V369.608H151.694V373.224H161.422L155.406 378.76V381.416H158.254ZM171.263 393.384C172.671 393.384 173.855 392.232 173.855 390.856C173.855 389.448 172.671 388.296 171.263 388.296C169.855 388.296 168.671 389.448 168.671 390.856C168.671 392.232 169.855 393.384 171.263 393.384ZM178.391 376.488C175.767 380.04 174.839 382.088 174.839 384.904C174.839 389.704 178.615 393.416 183.671 393.416C188.663 393.416 192.375 389.928 192.375 384.936C192.375 380.2 189.111 376.808 184.279 376.808C183.703 376.808 183.095 376.904 182.519 377.064L188.119 369.608H183.447L178.391 376.488ZM179.031 384.936C179.031 382.12 180.887 380.168 183.671 380.168C186.359 380.168 188.247 382.12 188.247 384.936C188.247 387.784 186.327 389.768 183.671 389.768C180.919 389.768 179.031 387.784 179.031 384.936ZM209.415 392.968V389.16H199.687L203.911 385.544C207.463 382.504 209.255 380.04 209.255 376.776C209.255 372.04 206.151 369.192 201.159 369.192C196.199 369.192 192.935 372.52 192.903 377.64H196.967C196.999 374.632 198.599 372.84 201.159 372.84C203.623 372.84 205.063 374.344 205.063 377C205.063 379.24 204.007 380.776 200.839 383.464L193.191 389.928V393L209.415 392.968ZM210.659 381.352C210.659 388.584 214.339 393.416 220.547 393.416C226.755 393.416 230.467 388.584 230.467 381.352C230.467 374.088 226.531 369.16 220.547 369.16C214.563 369.16 210.659 374.088 210.659 381.352ZM214.691 381.352C214.691 375.816 216.867 372.776 220.547 372.776C224.259 372.776 226.435 375.816 226.435 381.352C226.435 386.76 224.259 389.8 220.547 389.8C216.867 389.8 214.691 386.76 214.691 381.352ZM236.641 391.592C236.641 389.608 235.489 388.296 233.889 388.296C232.449 388.296 231.457 389.32 231.457 390.856C231.457 392.136 232.481 393.064 233.729 393.064C234.113 393.064 234.401 393 234.657 392.872C234.657 393.992 233.569 394.856 232.129 395.112V396.68C234.721 396.36 236.641 394.248 236.641 391.592ZM239.426 386.184H249.73V382.728H239.426V386.184Z" fill="#131316"/>
<path d="M200 417C200 412.582 196.418 409 192 409C187.582 409 184 412.582 184 417C184 421.418 187.582 425 192 425C196.418 425 200 421.418 200 417Z" fill="#E8F2FF"/>
<path d="M192.5 420.396V414.811L194.94 417.251C195.135 417.446 195.455 417.446 195.65 417.251C195.845 417.056 195.845 416.741 195.65 416.546L192.355 413.251C192.16 413.056 191.845 413.056 191.65 413.251L188.35 416.541C188.155 416.736 188.155 417.051 188.35 417.246C188.545 417.441 188.86 417.441 189.055 417.246L191.5 414.811V420.396C191.5 420.671 191.725 420.896 192 420.896C192.275 420.896 192.5 420.671 192.5 420.396Z" fill="#0C56EF"/>
<path d="M140.979 430.608V438H142.455V429.228H139.059V430.608H140.979ZM144.957 431.808C143.973 433.14 143.625 433.908 143.625 434.964C143.625 436.764 145.041 438.156 146.937 438.156C148.809 438.156 150.201 436.848 150.201 434.976C150.201 433.2 148.977 431.928 147.165 431.928C146.949 431.928 146.721 431.964 146.505 432.024L148.605 429.228H146.853L144.957 431.808ZM145.197 434.976C145.197 433.92 145.893 433.188 146.937 433.188C147.945 433.188 148.653 433.92 148.653 434.976C148.653 436.044 147.933 436.788 146.937 436.788C145.905 436.788 145.197 436.044 145.197 434.976ZM151.946 438.144C152.474 438.144 152.918 437.712 152.918 437.196C152.918 436.668 152.474 436.236 151.946 436.236C151.418 436.236 150.974 436.668 150.974 437.196C150.974 437.712 151.418 438.144 151.946 438.144ZM154.603 430.608V438H156.079V429.228H152.683V430.608H154.603ZM157.238 435.516C157.238 437.112 158.546 438.144 160.574 438.144C162.614 438.144 163.922 437.1 163.922 435.516C163.922 434.46 163.322 433.608 162.398 433.284C163.178 432.96 163.61 432.3 163.61 431.448C163.61 430.02 162.398 429.072 160.598 429.072C158.786 429.072 157.55 430.032 157.55 431.424C157.55 432.276 157.97 432.936 158.738 433.284C157.826 433.632 157.238 434.472 157.238 435.516ZM158.942 431.556C158.942 430.836 159.578 430.38 160.574 430.38C161.558 430.38 162.182 430.836 162.182 431.568C162.182 432.3 161.558 432.756 160.574 432.756C159.578 432.756 158.942 432.288 158.942 431.556ZM158.738 435.408C158.738 434.556 159.446 434.028 160.574 434.028C161.702 434.028 162.41 434.556 162.41 435.408C162.41 436.26 161.702 436.788 160.586 436.788C159.446 436.788 158.738 436.26 158.738 435.408ZM169.174 431.364C169.174 430.02 168.214 429.06 166.882 429.06C165.55 429.06 164.59 430.02 164.59 431.364C164.59 432.72 165.55 433.668 166.882 433.668C168.214 433.668 169.174 432.72 169.174 431.364ZM173.986 429.24H172.522L165.862 438H167.326L173.986 429.24ZM168.01 431.364C168.01 432.06 167.554 432.54 166.882 432.54C166.222 432.54 165.766 432.06 165.766 431.364C165.766 430.668 166.21 430.188 166.882 430.188C167.554 430.188 168.01 430.668 168.01 431.364ZM175.27 435.852C175.27 434.508 174.322 433.548 172.99 433.548C171.646 433.548 170.698 434.508 170.698 435.852C170.698 437.196 171.646 438.156 172.99 438.156C174.322 438.156 175.27 437.196 175.27 435.852ZM174.106 435.852C174.106 436.548 173.65 437.028 172.99 437.028C172.318 437.028 171.862 436.548 171.862 435.852C171.862 435.156 172.318 434.676 172.99 434.676C173.65 434.676 174.106 435.156 174.106 435.852Z" fill="#0C56EF"/>
<path d="M178.923 435.072C178.923 436.92 180.063 438.144 181.791 438.144C183.207 438.144 184.299 437.292 184.527 436.02H183.399C183.195 436.716 182.595 437.136 181.791 437.136C180.723 437.136 180.039 436.32 180.039 435.06C180.039 433.788 180.771 432.972 181.839 432.972C182.595 432.972 183.195 433.368 183.387 434.112H184.515C184.311 432.804 183.279 431.964 181.803 431.964C180.087 431.964 178.923 433.236 178.923 435.072ZM185.093 435.06C185.093 436.872 186.389 438.144 188.153 438.144C189.905 438.144 191.201 436.872 191.201 435.06C191.201 433.248 189.905 431.976 188.153 431.976C186.389 431.976 185.093 433.248 185.093 435.06ZM186.233 435.06C186.233 433.836 187.013 432.984 188.153 432.984C189.281 432.984 190.073 433.836 190.073 435.06C190.073 436.284 189.281 437.136 188.153 437.136C187.013 437.136 186.233 436.284 186.233 435.06ZM193.338 438V434.52C193.338 433.584 193.902 432.996 194.754 432.996C195.546 432.996 196.05 433.5 196.05 434.424V438H197.166V434.52C197.166 433.584 197.73 432.984 198.582 432.984C199.374 432.984 199.89 433.512 199.89 434.436V438H200.994V434.16C200.994 432.804 200.178 431.964 198.834 431.964C197.922 431.964 197.214 432.42 196.938 433.152C196.638 432.42 195.99 431.964 195.078 431.964C194.25 431.964 193.626 432.348 193.326 432.9L193.218 432.132H192.21V438H193.338ZM202.317 440.628H203.445V437.04C203.829 437.76 204.609 438.156 205.545 438.156C207.285 438.156 208.269 436.812 208.269 435.024C208.269 433.224 207.225 431.964 205.545 431.964C204.609 431.964 203.817 432.384 203.421 433.188L203.337 432.132H202.317V440.628ZM203.457 435.072C203.457 433.848 204.153 432.996 205.305 432.996C206.457 432.996 207.141 433.86 207.141 435.072C207.141 436.272 206.457 437.136 205.305 437.136C204.153 437.136 203.457 436.272 203.457 435.072ZM210.989 438.144C211.937 438.144 212.741 437.724 213.041 437.052L213.161 438H214.121V434.316C214.121 432.732 213.137 431.964 211.685 431.964C210.173 431.964 209.165 432.768 209.165 433.992H210.149C210.149 433.284 210.689 432.864 211.637 432.864C212.429 432.864 213.017 433.212 213.017 434.196V434.364L211.169 434.508C209.789 434.616 208.985 435.288 208.985 436.368C208.985 437.436 209.729 438.144 210.989 438.144ZM211.313 437.268C210.581 437.268 210.125 436.956 210.125 436.332C210.125 435.756 210.533 435.372 211.529 435.276L213.029 435.156V435.468C213.029 436.572 212.381 437.268 211.313 437.268ZM218.803 432.084C218.575 432.036 218.407 432.012 218.203 432.012C217.399 432.012 216.811 432.42 216.571 433.032L216.499 432.144H215.443V438H216.571V434.892C216.571 433.764 217.231 433.116 218.299 433.116H218.803V432.084ZM221.942 438.144C223.394 438.144 224.378 437.436 224.666 436.176H223.61C223.418 436.848 222.842 437.208 221.966 437.208C220.85 437.208 220.202 436.524 220.118 435.288L224.654 435.276V434.856C224.654 433.116 223.562 431.964 221.894 431.964C220.19 431.964 219.026 433.236 219.026 435.072C219.026 436.896 220.214 438.144 221.942 438.144ZM221.894 432.912C222.89 432.912 223.526 433.56 223.526 434.532H220.142C220.286 433.5 220.91 432.912 221.894 432.912ZM228.026 438.144C228.962 438.144 229.754 437.736 230.138 436.932L230.234 438H231.242V429.168H230.126V433.08C229.73 432.36 228.974 431.964 228.074 431.964C226.334 431.964 225.29 433.284 225.29 435.084C225.29 436.872 226.322 438.144 228.026 438.144ZM228.254 437.124C227.102 437.124 226.43 436.26 226.43 435.048C226.43 433.848 227.102 432.984 228.254 432.984C229.406 432.984 230.114 433.848 230.114 435.048C230.114 436.272 229.406 437.124 228.254 437.124ZM237.326 438V433.08H238.478V432.132H237.326V430.296H236.198V432.132H235.046V433.08H236.198V438H237.326ZM238.808 435.06C238.808 436.872 240.104 438.144 241.868 438.144C243.62 438.144 244.916 436.872 244.916 435.06C244.916 433.248 243.62 431.976 241.868 431.976C240.104 431.976 238.808 433.248 238.808 435.06ZM239.948 435.06C239.948 433.836 240.728 432.984 241.868 432.984C242.996 432.984 243.788 433.836 243.788 435.06C243.788 436.284 242.996 437.136 241.868 437.136C240.728 437.136 239.948 436.284 239.948 435.06ZM166.724 454V445.168H165.596V454H166.724ZM169.86 454.144C170.808 454.144 171.612 453.724 171.912 453.052L172.032 454H172.992V450.316C172.992 448.732 172.008 447.964 170.556 447.964C169.044 447.964 168.036 448.768 168.036 449.992H169.02C169.02 449.284 169.56 448.864 170.508 448.864C171.3 448.864 171.888 449.212 171.888 450.196V450.364L170.04 450.508C168.66 450.616 167.856 451.288 167.856 452.368C167.856 453.436 168.6 454.144 169.86 454.144ZM170.184 453.268C169.452 453.268 168.996 452.956 168.996 452.332C168.996 451.756 169.404 451.372 170.4 451.276L171.9 451.156V451.468C171.9 452.572 171.252 453.268 170.184 453.268ZM173.834 452.296C173.834 453.412 174.71 454.144 176.09 454.144C177.482 454.144 178.442 453.436 178.442 452.32C178.442 451.444 177.95 450.988 176.954 450.748L175.922 450.496C175.346 450.352 175.058 450.088 175.058 449.692C175.058 449.152 175.454 448.84 176.162 448.84C176.846 448.84 177.242 449.212 177.266 449.8H178.346C178.322 448.684 177.482 447.964 176.198 447.964C174.902 447.964 173.99 448.648 173.99 449.728C173.99 450.592 174.482 451.108 175.526 451.36L176.558 451.6C177.17 451.756 177.362 451.996 177.362 452.392C177.362 452.932 176.906 453.256 176.114 453.256C175.37 453.256 174.914 452.896 174.914 452.296H173.834ZM181.109 454V449.08H182.261V448.132H181.109V446.296H179.981V448.132H178.829V449.08H179.981V454H181.109ZM187.203 454V450.52C187.203 449.584 187.767 448.996 188.619 448.996C189.411 448.996 189.915 449.5 189.915 450.424V454H191.031V450.52C191.031 449.584 191.595 448.984 192.447 448.984C193.239 448.984 193.755 449.512 193.755 450.436V454H194.859V450.16C194.859 448.804 194.043 447.964 192.699 447.964C191.787 447.964 191.079 448.42 190.803 449.152C190.503 448.42 189.855 447.964 188.943 447.964C188.115 447.964 187.491 448.348 187.191 448.9L187.083 448.132H186.075V454H187.203ZM195.799 451.06C195.799 452.872 197.095 454.144 198.859 454.144C200.611 454.144 201.907 452.872 201.907 451.06C201.907 449.248 200.611 447.976 198.859 447.976C197.095 447.976 195.799 449.248 195.799 451.06ZM196.939 451.06C196.939 449.836 197.719 448.984 198.859 448.984C199.987 448.984 200.779 449.836 200.779 451.06C200.779 452.284 199.987 453.136 198.859 453.136C197.719 453.136 196.939 452.284 196.939 451.06ZM204.043 454V450.892C204.043 449.752 204.655 448.996 205.711 448.996C206.575 448.996 207.127 449.476 207.127 450.664V454H208.255V450.412C208.255 448.912 207.547 447.964 205.999 447.964C205.171 447.964 204.427 448.36 204.055 449.032L203.935 448.132H202.915V454H204.043ZM211.234 454V449.08H212.386V448.132H211.234V446.296H210.106V448.132H208.954V449.08H210.106V454H211.234ZM214.286 453.988V450.796C214.286 449.788 214.874 448.996 215.966 448.996C216.806 448.996 217.37 449.476 217.37 450.664V454H218.498V450.412C218.498 448.912 217.778 447.964 216.278 447.964C215.366 447.964 214.658 448.396 214.286 449.032V445.168H213.158V453.988H214.286Z" fill="#5E606E"/>
</g>
<path d="M325 144.5H59C54.8579 144.5 51.5 147.858 51.5 152V698C51.5 702.142 54.8579 705.5 59 705.5H325C329.142 705.5 332.5 702.142 332.5 698V152C332.5 147.858 329.142 144.5 325 144.5Z" stroke="#F4F4F6"/>
</g>
<path d="M383.5 238C383.5 132.237 297.763 46.5 192 46.5C86.2375 46.5 0.5 132.237 0.5 238C0.5 343.763 86.2375 429.5 192 429.5C297.763 429.5 383.5 343.763 383.5 238Z" stroke="#F4F4F6"/>
<path d="M478 40.5H212C207.858 40.5 204.5 43.8579 204.5 48V184C204.5 188.142 207.858 191.5 212 191.5H478C482.142 191.5 485.5 188.142 485.5 184V48C485.5 43.8579 482.142 40.5 478 40.5Z" fill="white"/>
<path d="M222.926 68.9996V64.6596H227.462V68.9996H229.254V58.7656H227.462V62.9936H222.926V58.7656H221.134V68.9996H222.926ZM231.847 60.6976C232.407 60.6976 232.869 60.2356 232.869 59.6616C232.869 59.0876 232.407 58.6396 231.847 58.6396C231.259 58.6396 230.797 59.0876 230.797 59.6616C230.797 60.2356 231.259 60.6976 231.847 60.6976ZM230.993 68.9996H232.701V62.0836H230.993V68.9996ZM233.653 66.8996C233.653 68.2576 234.745 69.1816 236.467 69.1816C238.175 69.1816 239.365 68.3136 239.365 66.9136C239.365 65.8496 238.777 65.3176 237.615 65.0516L236.369 64.7576C235.781 64.6176 235.473 64.3656 235.473 63.9736C235.473 63.4556 235.865 63.1476 236.537 63.1476C237.195 63.1476 237.587 63.5256 237.601 64.1136H239.225C239.211 62.7696 238.161 61.8736 236.607 61.8736C235.011 61.8736 233.863 62.6856 233.863 64.0436C233.863 65.1496 234.465 65.7376 235.711 66.0176L236.957 66.3116C237.573 66.4516 237.755 66.7036 237.755 67.0536C237.755 67.5576 237.321 67.8796 236.523 67.8796C235.739 67.8796 235.291 67.5016 235.277 66.8996H233.653ZM242.738 68.9996V63.5116H244.082V62.0836H242.738V59.9276H241.03V62.0836H239.7V63.5116H241.03V68.9996H242.738ZM244.389 65.5276C244.389 67.6836 245.943 69.1676 248.085 69.1676C250.227 69.1676 251.781 67.6836 251.781 65.5276C251.781 63.3716 250.227 61.8876 248.085 61.8876C245.943 61.8876 244.389 63.3716 244.389 65.5276ZM246.097 65.5276C246.097 64.2676 246.909 63.4136 248.085 63.4136C249.261 63.4136 250.073 64.2676 250.073 65.5276C250.073 66.7876 249.261 67.6416 248.085 67.6416C246.909 67.6416 246.097 66.7876 246.097 65.5276ZM257.195 62.0556C256.915 61.9856 256.677 61.9576 256.439 61.9576C255.515 61.9576 254.857 62.4196 254.563 63.1056L254.465 62.0976H252.855V68.9996H254.563V65.6396C254.563 64.2956 255.333 63.6376 256.565 63.6376H257.195V62.0556ZM257.674 72.2057C258.052 72.3037 258.472 72.3596 258.948 72.3596C260.082 72.3596 260.81 71.8276 261.328 70.5396L264.716 62.0836H262.952L261.076 67.1236L259.298 62.0836H257.492L260.278 69.2936L260.082 69.8116C259.788 70.6236 259.368 70.7776 258.696 70.7776H257.674V72.2057Z" fill="#383942"/>
<path d="M462.936 58.0013C459.543 57.908 456.763 60.6346 456.763 64.0013H455.569C455.269 64.0013 455.123 64.3613 455.336 64.568L457.196 66.4346C457.329 66.568 457.536 66.568 457.669 66.4346L459.529 64.568C459.736 64.3613 459.589 64.0013 459.289 64.0013H458.096C458.096 61.4013 460.216 59.3013 462.829 59.3346C465.309 59.368 467.396 61.4546 467.429 63.9346C467.463 66.5413 465.363 68.668 462.763 68.668C461.689 68.668 460.696 68.3013 459.909 67.6813C459.643 67.4746 459.269 67.4946 459.029 67.7346C458.749 68.0146 458.769 68.488 459.083 68.728C460.096 69.528 461.369 70.0013 462.763 70.0013C466.129 70.0013 468.856 67.2213 468.763 63.828C468.676 60.7013 466.063 58.088 462.936 58.0013ZM462.596 61.3346C462.323 61.3346 462.096 61.5613 462.096 61.8346V64.288C462.096 64.5213 462.223 64.7413 462.423 64.8613L464.503 66.0946C464.743 66.2346 465.049 66.1546 465.189 65.9213C465.329 65.6813 465.249 65.3746 465.016 65.2346L463.096 64.0946V61.828C463.096 61.5613 462.869 61.3346 462.596 61.3346Z" fill="#5167F6"/>
<path d="M220 80H470" stroke="#DEDFE3" stroke-width="0.5" stroke-linecap="round"/>
<path d="M226.42 109V107.584H222.508V105.256H226.012V103.9H222.508V101.644H226.42V100.228H220.972V109H226.42ZM231.349 103.048C231.109 102.988 230.905 102.964 230.701 102.964C229.909 102.964 229.345 103.36 229.093 103.948L229.009 103.084H227.629V109H229.093V106.12C229.093 104.968 229.753 104.404 230.809 104.404H231.349V103.048ZM231.644 107.2C231.644 108.364 232.58 109.156 234.056 109.156C235.52 109.156 236.54 108.412 236.54 107.212C236.54 106.3 236.036 105.844 235.04 105.616L233.972 105.364C233.468 105.244 233.204 105.028 233.204 104.692C233.204 104.248 233.54 103.984 234.116 103.984C234.68 103.984 235.016 104.308 235.028 104.812H236.42C236.408 103.66 235.508 102.892 234.176 102.892C232.808 102.892 231.824 103.588 231.824 104.752C231.824 105.7 232.34 106.204 233.408 106.444L234.476 106.696C235.004 106.816 235.16 107.032 235.16 107.332C235.16 107.764 234.788 108.04 234.104 108.04C233.432 108.04 233.048 107.716 233.036 107.2H231.644ZM239.179 109.156C240.103 109.156 240.907 108.736 241.159 108.124L241.267 109H242.551V105.4C242.551 103.756 241.567 102.892 239.971 102.892C238.363 102.892 237.307 103.732 237.307 105.016H238.555C238.555 104.392 239.035 104.032 239.899 104.032C240.643 104.032 241.123 104.356 241.123 105.16V105.292L239.347 105.424C237.943 105.532 237.151 106.216 237.151 107.308C237.151 108.424 237.919 109.156 239.179 109.156ZM239.659 108.052C238.999 108.052 238.639 107.788 238.639 107.248C238.639 106.768 238.987 106.468 239.899 106.384L241.135 106.288V106.6C241.135 107.512 240.559 108.052 239.659 108.052ZM246.185 109.156C247.085 109.156 247.853 108.76 248.213 108.076L248.309 109H249.653V100.072H248.201V103.828C247.829 103.24 247.097 102.892 246.269 102.892C244.481 102.892 243.401 104.212 243.401 106.06C243.401 107.896 244.469 109.156 246.185 109.156ZM246.509 107.812C245.489 107.812 244.865 107.068 244.865 106.012C244.865 104.956 245.489 104.2 246.509 104.2C247.529 104.2 248.189 104.944 248.189 106.012C248.189 107.08 247.529 107.812 246.509 107.812ZM254.149 109H257.701C259.513 109 260.557 108.124 260.557 106.624C260.557 105.604 260.089 104.908 259.165 104.608C259.993 104.26 260.425 103.564 260.425 102.592C260.425 101.128 259.369 100.228 257.641 100.228H254.149V109ZM257.509 101.584C258.373 101.584 258.853 101.992 258.853 102.748C258.853 103.528 258.385 103.972 257.545 103.972H255.685V101.584H257.509ZM257.641 105.268C258.493 105.268 258.985 105.688 258.985 106.432C258.985 107.224 258.505 107.644 257.641 107.644H255.685V105.268H257.641ZM262.318 109.144C262.846 109.144 263.29 108.712 263.29 108.196C263.29 107.668 262.846 107.236 262.318 107.236C261.79 107.236 261.346 107.668 261.346 108.196C261.346 108.712 261.79 109.144 262.318 109.144Z" fill="#131316"/>
<path d="M221.368 125L222.136 122.84H225.784L226.564 125H227.8L224.62 116.324H223.312L220.144 125H221.368ZM223.816 118.196C223.876 118.016 223.936 117.812 223.96 117.692C223.984 117.824 224.044 118.028 224.104 118.196L225.436 121.82H222.496L223.816 118.196ZM229.673 125V116.168H228.545V125H229.673ZM232.246 125V116.168H231.118V125H232.246ZM236.198 125.144C237.65 125.144 238.634 124.436 238.922 123.176H237.866C237.674 123.848 237.098 124.208 236.222 124.208C235.106 124.208 234.458 123.524 234.374 122.288L238.91 122.276V121.856C238.91 120.116 237.818 118.964 236.15 118.964C234.446 118.964 233.282 120.236 233.282 122.072C233.282 123.896 234.47 125.144 236.198 125.144ZM236.15 119.912C237.146 119.912 237.782 120.56 237.782 121.532H234.398C234.542 120.5 235.166 119.912 236.15 119.912ZM239.202 127.628C239.502 127.7 239.814 127.748 240.186 127.748C241.086 127.748 241.674 127.328 242.07 126.32L244.842 119.132H243.678L241.938 123.86L240.234 119.132H239.046L241.41 125.312L241.206 125.876C240.93 126.62 240.498 126.704 239.958 126.704H239.202V127.628ZM248.736 125H252.168C253.884 125 254.928 124.124 254.928 122.684C254.928 121.652 254.436 120.956 253.476 120.644C254.34 120.284 254.772 119.612 254.772 118.616C254.772 117.188 253.74 116.324 252.048 116.324H248.736V125ZM251.976 117.368C252.996 117.368 253.572 117.86 253.572 118.724C253.572 119.624 253.02 120.152 252.048 120.152H249.912V117.368H251.976ZM252.144 121.172C253.14 121.172 253.716 121.676 253.716 122.54C253.716 123.44 253.152 123.956 252.144 123.956H249.912V121.172H252.144ZM260.024 119.132V122.228C260.024 123.488 259.46 124.148 258.428 124.148C257.564 124.148 257.024 123.668 257.024 122.408V119.132H255.896V122.78C255.896 124.22 256.664 125.144 258.032 125.144C258.896 125.144 259.676 124.724 260.012 124.112L260.132 125H261.14V119.132H260.024ZM261.939 123.296C261.939 124.412 262.815 125.144 264.195 125.144C265.587 125.144 266.547 124.436 266.547 123.32C266.547 122.444 266.055 121.988 265.059 121.748L264.027 121.496C263.451 121.352 263.163 121.088 263.163 120.692C263.163 120.152 263.559 119.84 264.267 119.84C264.951 119.84 265.347 120.212 265.371 120.8H266.451C266.427 119.684 265.587 118.964 264.303 118.964C263.007 118.964 262.095 119.648 262.095 120.728C262.095 121.592 262.587 122.108 263.631 122.36L264.663 122.6C265.275 122.756 265.467 122.996 265.467 123.392C265.467 123.932 265.011 124.256 264.219 124.256C263.475 124.256 263.019 123.896 263.019 123.296H261.939ZM268.11 117.74C268.518 117.74 268.854 117.404 268.854 116.996C268.854 116.576 268.518 116.252 268.11 116.252C267.702 116.252 267.366 116.576 267.366 116.996C267.366 117.404 267.702 117.74 268.11 117.74ZM267.558 125H268.686V119.132H267.558V125ZM271.212 125V121.892C271.212 120.752 271.824 119.996 272.88 119.996C273.744 119.996 274.296 120.476 274.296 121.664V125H275.424V121.412C275.424 119.912 274.716 118.964 273.168 118.964C272.34 118.964 271.596 119.36 271.224 120.032L271.104 119.132H270.084V125H271.212ZM279.278 125.144C280.73 125.144 281.714 124.436 282.002 123.176H280.946C280.754 123.848 280.178 124.208 279.302 124.208C278.186 124.208 277.538 123.524 277.454 122.288L281.99 122.276V121.856C281.99 120.116 280.898 118.964 279.23 118.964C277.526 118.964 276.362 120.236 276.362 122.072C276.362 123.896 277.55 125.144 279.278 125.144ZM279.23 119.912C280.226 119.912 280.862 120.56 280.862 121.532H277.478C277.622 120.5 278.246 119.912 279.23 119.912ZM282.53 123.296C282.53 124.412 283.406 125.144 284.786 125.144C286.178 125.144 287.138 124.436 287.138 123.32C287.138 122.444 286.646 121.988 285.65 121.748L284.618 121.496C284.042 121.352 283.754 121.088 283.754 120.692C283.754 120.152 284.15 119.84 284.858 119.84C285.542 119.84 285.938 120.212 285.962 120.8H287.042C287.018 119.684 286.178 118.964 284.894 118.964C283.598 118.964 282.686 119.648 282.686 120.728C282.686 121.592 283.178 122.108 284.222 122.36L285.254 122.6C285.866 122.756 286.058 122.996 286.058 123.392C286.058 123.932 285.602 124.256 284.81 124.256C284.066 124.256 283.61 123.896 283.61 123.296H282.53ZM287.669 123.296C287.669 124.412 288.545 125.144 289.925 125.144C291.317 125.144 292.277 124.436 292.277 123.32C292.277 122.444 291.785 121.988 290.789 121.748L289.757 121.496C289.181 121.352 288.893 121.088 288.893 120.692C288.893 120.152 289.289 119.84 289.997 119.84C290.681 119.84 291.077 120.212 291.101 120.8H292.181C292.157 119.684 291.317 118.964 290.033 118.964C288.737 118.964 287.825 119.648 287.825 120.728C287.825 121.592 288.317 122.108 289.361 122.36L290.393 122.6C291.005 122.756 291.197 122.996 291.197 123.392C291.197 123.932 290.741 124.256 289.949 124.256C289.205 124.256 288.749 123.896 288.749 123.296H287.669Z" fill="#868898"/>
<path d="M470 112C470 103.163 462.837 96 454 96C445.163 96 438 103.163 438 112C438 120.837 445.163 128 454 128C462.837 128 470 120.837 470 112Z" fill="#F4F4F6"/>
<path d="M456 111C456 110.634 456.3 110.334 456.667 110.334C457.033 110.334 457.333 110.634 457.333 111C457.333 111.367 457.033 111.667 456.667 111.667C456.3 111.667 456 111.367 456 111ZM451.333 110.334H454.667V109H451.333V110.334ZM460.667 109.334V113.98L458.787 114.607L457.667 118.334H454V117H452.667V118.334H449C449 118.334 447.333 112.694 447.333 110.667C447.333 108.64 448.973 107 451 107H454.333C454.94 106.194 455.907 105.667 457 105.667C457.553 105.667 458 106.114 458 106.667C458 106.807 457.973 106.934 457.92 107.054C457.827 107.28 457.747 107.54 457.707 107.82L459.22 109.334H460.667ZM459.333 110.667H458.667L456.333 108.334C456.333 107.9 456.393 107.474 456.507 107.06C455.86 107.227 455.333 107.707 455.113 108.334H451C449.713 108.334 448.667 109.38 448.667 110.667C448.667 111.92 449.48 115.1 450.007 117H451.333V115.667H455.333V117H456.673L457.707 113.567L459.333 113.02V110.667Z" fill="#717484"/>
<path d="M220 136H470" stroke="#DEDFE3" stroke-linecap="round" stroke-dasharray="4 4"/>
<path d="M226.24 171.28H228.088V169.24C231.304 168.88 233.368 166.864 233.368 163.936C233.368 161.392 231.976 159.904 228.904 159.232L228.088 159.04V153.88C229.336 154.144 230.056 154.984 230.104 156.28H233.08C232.984 153.4 231.112 151.504 228.088 151.192V149.152H226.24V151.192C223.048 151.528 220.936 153.544 220.936 156.352C220.936 158.992 222.448 160.672 225.472 161.32L226.24 161.488V166.6C224.68 166.408 223.792 165.544 223.768 164.176H220.696C220.768 167.104 222.904 169.048 226.24 169.288V171.28ZM226.144 158.608C224.608 158.272 223.936 157.528 223.936 156.256C223.936 154.96 224.8 154.096 226.24 153.856V158.632L226.144 158.608ZM228.256 161.92C229.696 162.232 230.392 162.976 230.392 164.2C230.392 165.424 229.528 166.264 228.088 166.552V161.872L228.256 161.92ZM239.459 160.312C241.907 160.312 243.059 161.608 243.059 163.384C243.059 165.328 241.787 166.576 239.867 166.576C237.995 166.576 236.747 165.424 236.747 163.408H233.723C233.723 167.2 236.387 169.312 239.819 169.312C243.371 169.312 246.179 167.032 246.179 163.432C246.179 160.336 244.091 158.368 241.403 157.84L245.675 153.904V151.456H234.539V154.168H241.835L237.323 158.32V160.312H239.459ZM249.216 169.288C250.272 169.288 251.16 168.424 251.16 167.392C251.16 166.336 250.272 165.472 249.216 165.472C248.16 165.472 247.272 166.336 247.272 167.392C247.272 168.424 248.16 169.288 249.216 169.288ZM254.562 156.616C252.594 159.28 251.898 160.816 251.898 162.928C251.898 166.528 254.73 169.312 258.522 169.312C262.266 169.312 265.05 166.696 265.05 162.952C265.05 159.4 262.602 156.856 258.978 156.856C258.546 156.856 258.09 156.928 257.658 157.048L261.858 151.456H258.354L254.562 156.616ZM255.042 162.952C255.042 160.84 256.434 159.376 258.522 159.376C260.538 159.376 261.954 160.84 261.954 162.952C261.954 165.088 260.514 166.576 258.522 166.576C256.458 166.576 255.042 165.088 255.042 162.952ZM277.83 168.976V166.12H270.534L273.702 163.408C276.366 161.128 277.71 159.28 277.71 156.832C277.71 153.28 275.382 151.144 271.638 151.144C267.918 151.144 265.47 153.64 265.446 157.48H268.494C268.518 155.224 269.718 153.88 271.638 153.88C273.486 153.88 274.566 155.008 274.566 157C274.566 158.68 273.774 159.832 271.398 161.848L265.662 166.696V169L277.83 168.976ZM278.763 160.264C278.763 165.688 281.523 169.312 286.179 169.312C290.835 169.312 293.619 165.688 293.619 160.264C293.619 154.816 290.667 151.12 286.179 151.12C281.691 151.12 278.763 154.816 278.763 160.264ZM281.787 160.264C281.787 156.112 283.419 153.832 286.179 153.832C288.963 153.832 290.595 156.112 290.595 160.264C290.595 164.32 288.963 166.6 286.179 166.6C283.419 166.6 281.787 164.32 281.787 160.264ZM298.25 167.944C298.25 166.456 297.386 165.472 296.186 165.472C295.106 165.472 294.362 166.24 294.362 167.392C294.362 168.352 295.13 169.048 296.066 169.048C296.354 169.048 296.57 169 296.762 168.904C296.762 169.744 295.946 170.392 294.866 170.584V171.76C296.81 171.52 298.25 169.936 298.25 167.944ZM300.338 163.888H308.066V161.296H300.338V163.888Z" fill="#131316"/>
<path d="M458 148H409C402.373 148 397 153.373 397 160C397 166.627 402.373 172 409 172H458C464.627 172 470 166.627 470 160C470 153.373 464.627 148 458 148Z" fill="#E8F2FF"/>
<path d="M412.176 154.072H411V162.748H412.176V154.072ZM414.895 162.748V159.64C414.895 158.5 415.507 157.744 416.563 157.744C417.427 157.744 417.979 158.224 417.979 159.412V162.748H419.107V159.16C419.107 157.66 418.399 156.712 416.851 156.712C416.023 156.712 415.279 157.108 414.907 157.78L414.787 156.88H413.767V162.748H414.895ZM420.046 159.82C420.046 161.668 421.186 162.892 422.914 162.892C424.33 162.892 425.422 162.04 425.65 160.768H424.522C424.318 161.464 423.718 161.884 422.914 161.884C421.846 161.884 421.162 161.068 421.162 159.808C421.162 158.536 421.894 157.72 422.962 157.72C423.718 157.72 424.318 158.116 424.51 158.86H425.638C425.434 157.552 424.402 156.712 422.926 156.712C421.21 156.712 420.046 157.984 420.046 159.82ZM426.216 159.808C426.216 161.62 427.512 162.892 429.276 162.892C431.028 162.892 432.324 161.62 432.324 159.808C432.324 157.996 431.028 156.724 429.276 156.724C427.512 156.724 426.216 157.996 426.216 159.808ZM427.356 159.808C427.356 158.584 428.136 157.732 429.276 157.732C430.404 157.732 431.196 158.584 431.196 159.808C431.196 161.032 430.404 161.884 429.276 161.884C428.136 161.884 427.356 161.032 427.356 159.808ZM434.46 162.748V159.268C434.46 158.332 435.024 157.744 435.876 157.744C436.668 157.744 437.172 158.248 437.172 159.172V162.748H438.288V159.268C438.288 158.332 438.852 157.732 439.704 157.732C440.496 157.732 441.012 158.26 441.012 159.184V162.748H442.116V158.908C442.116 157.552 441.3 156.712 439.956 156.712C439.044 156.712 438.336 157.168 438.06 157.9C437.76 157.168 437.112 156.712 436.2 156.712C435.372 156.712 434.748 157.096 434.448 157.648L434.34 156.88H433.332V162.748H434.46ZM443.992 155.488C444.4 155.488 444.736 155.152 444.736 154.744C444.736 154.324 444.4 154 443.992 154C443.584 154 443.248 154.324 443.248 154.744C443.248 155.152 443.584 155.488 443.992 155.488ZM443.44 162.748H444.568V156.88H443.44V162.748ZM447.094 162.748V159.64C447.094 158.5 447.706 157.744 448.762 157.744C449.626 157.744 450.178 158.224 450.178 159.412V162.748H451.306V159.16C451.306 157.66 450.598 156.712 449.05 156.712C448.222 156.712 447.478 157.108 447.106 157.78L446.986 156.88H445.966V162.748H447.094ZM452.256 159.664C452.256 161.308 453.312 162.592 454.98 162.592C455.904 162.592 456.672 162.184 457.056 161.5V162.676C457.056 163.792 456.336 164.512 455.232 164.512C454.248 164.512 453.6 164.008 453.456 163.144H452.328C452.544 164.632 453.636 165.532 455.232 165.532C457.032 165.532 458.172 164.356 458.172 162.508V156.88H457.164L457.08 157.876C456.708 157.144 455.976 156.712 455.028 156.712C453.324 156.712 452.256 158.008 452.256 159.664ZM453.384 159.64C453.384 158.56 454.056 157.696 455.184 157.696C456.336 157.696 457.008 158.512 457.008 159.64C457.008 160.792 456.312 161.608 455.172 161.608C454.068 161.608 453.384 160.744 453.384 159.64Z" fill="#0C56EF"/>
<path d="M478 40.5H212C207.858 40.5 204.5 43.8579 204.5 48V184C204.5 188.142 207.858 191.5 212 191.5H478C482.142 191.5 485.5 188.142 485.5 184V48C485.5 43.8579 482.142 40.5 478 40.5Z" stroke="#F4F4F6"/>
<path d="M438 208.5H274C269.858 208.5 266.5 211.858 266.5 216V444C266.5 448.142 269.858 451.5 274 451.5H438C442.142 451.5 445.5 448.142 445.5 444V216C445.5 211.858 442.142 208.5 438 208.5Z" fill="white"/>
<path d="M287.614 228.278C288.846 228.278 289.882 228.838 290.204 230.042H292.094C291.8 227.956 289.994 226.598 287.656 226.598C284.576 226.598 282.546 228.81 282.546 231.918C282.546 235.068 284.548 237.154 287.418 237.154C288.804 237.154 289.966 236.608 290.526 235.824L290.638 237H292.15V231.246H287.39V232.828H290.484V232.87C290.484 234.508 289.406 235.488 287.628 235.488C285.738 235.488 284.422 234.242 284.422 231.96C284.422 229.748 285.584 228.278 287.614 228.278ZM297.893 230.056C297.613 229.986 297.375 229.958 297.137 229.958C296.213 229.958 295.555 230.42 295.261 231.106L295.163 230.098H293.553V237H295.261V233.64C295.261 232.296 296.031 231.638 297.263 231.638H297.893V230.056ZM300.554 237.182C301.632 237.182 302.57 236.692 302.864 235.978L302.99 237H304.488V232.8C304.488 230.882 303.34 229.874 301.478 229.874C299.602 229.874 298.37 230.854 298.37 232.352H299.826C299.826 231.624 300.386 231.204 301.394 231.204C302.262 231.204 302.822 231.582 302.822 232.52V232.674L300.75 232.828C299.112 232.954 298.188 233.752 298.188 235.026C298.188 236.328 299.084 237.182 300.554 237.182ZM301.114 235.894C300.344 235.894 299.924 235.586 299.924 234.956C299.924 234.396 300.33 234.046 301.394 233.948L302.836 233.836V234.2C302.836 235.264 302.164 235.894 301.114 235.894ZM305.886 240.206H307.594V236.076C308.028 236.776 308.924 237.182 309.96 237.182C312.018 237.182 313.194 235.614 313.194 233.458C313.194 231.288 311.906 229.874 309.96 229.874C308.91 229.874 308 230.336 307.58 231.134L307.468 230.084H305.886V240.206ZM307.608 233.542C307.608 232.296 308.378 231.428 309.554 231.428C310.758 231.428 311.472 232.31 311.472 233.542C311.472 234.774 310.758 235.642 309.554 235.642C308.378 235.642 307.608 234.788 307.608 233.542ZM315.982 237V233.22C315.982 232.184 316.612 231.428 317.69 231.428C318.558 231.428 319.132 231.988 319.132 233.15V237H320.84V232.744C320.84 230.952 319.944 229.874 318.236 229.874C317.242 229.874 316.43 230.308 315.996 230.98V226.584H314.274V237H315.982Z" fill="#383942"/>
<path d="M418.267 230.133H418.4C418.913 230.133 419.333 230.553 419.333 231.067V235.733C419.333 236.247 418.913 236.667 418.4 236.667H418.267C417.753 236.667 417.333 236.247 417.333 235.733V231.067C417.333 230.553 417.753 230.133 418.267 230.133ZM422 227.333C422.513 227.333 422.933 227.753 422.933 228.267V235.733C422.933 236.247 422.513 236.667 422 236.667C421.487 236.667 421.067 236.247 421.067 235.733V228.267C421.067 227.753 421.487 227.333 422 227.333ZM425.733 232.667C426.247 232.667 426.667 233.087 426.667 233.6V235.733C426.667 236.247 426.247 236.667 425.733 236.667C425.22 236.667 424.8 236.247 424.8 235.733V233.6C424.8 233.087 425.22 232.667 425.733 232.667Z" fill="#5167F6"/>
<path d="M282 248H430" stroke="#DEDFE3" stroke-width="0.5" stroke-linecap="round"/>
<path d="M285.876 269C288.444 269 290.172 267.248 290.172 264.668C290.172 262.076 288.42 260.324 285.828 260.324H283.008V269H285.876ZM285.744 261.404C287.724 261.404 288.948 262.652 288.948 264.668C288.948 266.66 287.724 267.908 285.792 267.908H284.184V261.404H285.744ZM293.768 269.144C295.22 269.144 296.204 268.436 296.492 267.176H295.436C295.244 267.848 294.668 268.208 293.792 268.208C292.676 268.208 292.028 267.524 291.944 266.288L296.48 266.276V265.856C296.48 264.116 295.388 262.964 293.72 262.964C292.016 262.964 290.852 264.236 290.852 266.072C290.852 267.896 292.04 269.144 293.768 269.144ZM293.72 263.912C294.716 263.912 295.352 264.56 295.352 265.532H291.968C292.112 264.5 292.736 263.912 293.72 263.912ZM297.02 267.296C297.02 268.412 297.896 269.144 299.276 269.144C300.668 269.144 301.628 268.436 301.628 267.32C301.628 266.444 301.136 265.988 300.14 265.748L299.108 265.496C298.532 265.352 298.244 265.088 298.244 264.692C298.244 264.152 298.64 263.84 299.348 263.84C300.032 263.84 300.428 264.212 300.452 264.8H301.532C301.508 263.684 300.668 262.964 299.384 262.964C298.088 262.964 297.176 263.648 297.176 264.728C297.176 265.592 297.668 266.108 298.712 266.36L299.744 266.6C300.356 266.756 300.548 266.996 300.548 267.392C300.548 267.932 300.092 268.256 299.3 268.256C298.556 268.256 298.1 267.896 298.1 267.296H297.02ZM302.255 266.072C302.255 267.92 303.395 269.144 305.123 269.144C306.539 269.144 307.631 268.292 307.859 267.02H306.731C306.527 267.716 305.927 268.136 305.123 268.136C304.055 268.136 303.371 267.32 303.371 266.06C303.371 264.788 304.103 263.972 305.171 263.972C305.927 263.972 306.527 264.368 306.719 265.112H307.847C307.643 263.804 306.611 262.964 305.135 262.964C303.419 262.964 302.255 264.236 302.255 266.072ZM312.169 263.084C311.941 263.036 311.773 263.012 311.569 263.012C310.765 263.012 310.177 263.42 309.937 264.032L309.865 263.144H308.809V269H309.937V265.892C309.937 264.764 310.597 264.116 311.665 264.116H312.169V263.084ZM313.539 261.74C313.947 261.74 314.283 261.404 314.283 260.996C314.283 260.576 313.947 260.252 313.539 260.252C313.131 260.252 312.795 260.576 312.795 260.996C312.795 261.404 313.131 261.74 313.539 261.74ZM312.987 269H314.115V263.132H312.987V269ZM315.513 271.628H316.641V268.04C317.025 268.76 317.805 269.156 318.741 269.156C320.481 269.156 321.465 267.812 321.465 266.024C321.465 264.224 320.421 262.964 318.741 262.964C317.805 262.964 317.013 263.384 316.617 264.188L316.533 263.132H315.513V271.628ZM316.653 266.072C316.653 264.848 317.349 263.996 318.501 263.996C319.653 263.996 320.337 264.86 320.337 266.072C320.337 267.272 319.653 268.136 318.501 268.136C317.349 268.136 316.653 267.272 316.653 266.072ZM324.065 269V264.08H325.217V263.132H324.065V261.296H322.937V263.132H321.785V264.08H322.937V269H324.065ZM326.542 261.74C326.95 261.74 327.286 261.404 327.286 260.996C327.286 260.576 326.95 260.252 326.542 260.252C326.134 260.252 325.798 260.576 325.798 260.996C325.798 261.404 326.134 261.74 326.542 261.74ZM325.99 269H327.118V263.132H325.99V269ZM328.131 266.06C328.131 267.872 329.427 269.144 331.191 269.144C332.943 269.144 334.239 267.872 334.239 266.06C334.239 264.248 332.943 262.976 331.191 262.976C329.427 262.976 328.131 264.248 328.131 266.06ZM329.271 266.06C329.271 264.836 330.051 263.984 331.191 263.984C332.319 263.984 333.111 264.836 333.111 266.06C333.111 267.284 332.319 268.136 331.191 268.136C330.051 268.136 329.271 267.284 329.271 266.06ZM336.376 269V265.892C336.376 264.752 336.988 263.996 338.044 263.996C338.908 263.996 339.46 264.476 339.46 265.664V269H340.588V265.412C340.588 263.912 339.88 262.964 338.332 262.964C337.504 262.964 336.76 263.36 336.388 264.032L336.268 263.132H335.248V269H336.376ZM344.58 265.916C344.58 267.56 345.636 268.844 347.304 268.844C348.228 268.844 348.996 268.436 349.38 267.752V268.928C349.38 270.044 348.66 270.764 347.556 270.764C346.572 270.764 345.924 270.26 345.78 269.396H344.652C344.868 270.884 345.96 271.784 347.556 271.784C349.356 271.784 350.496 270.608 350.496 268.76V263.132H349.488L349.404 264.128C349.032 263.396 348.3 262.964 347.352 262.964C345.648 262.964 344.58 264.26 344.58 265.916ZM345.708 265.892C345.708 264.812 346.38 263.948 347.508 263.948C348.66 263.948 349.332 264.764 349.332 265.892C349.332 267.044 348.636 267.86 347.496 267.86C346.392 267.86 345.708 266.996 345.708 265.892ZM351.499 266.06C351.499 267.872 352.795 269.144 354.559 269.144C356.311 269.144 357.607 267.872 357.607 266.06C357.607 264.248 356.311 262.976 354.559 262.976C352.795 262.976 351.499 264.248 351.499 266.06ZM352.639 266.06C352.639 264.836 353.419 263.984 354.559 263.984C355.687 263.984 356.479 264.836 356.479 266.06C356.479 267.284 355.687 268.136 354.559 268.136C353.419 268.136 352.639 267.284 352.639 266.06ZM361.148 269.144C362.6 269.144 363.584 268.436 363.872 267.176H362.816C362.624 267.848 362.048 268.208 361.172 268.208C360.056 268.208 359.408 267.524 359.324 266.288L363.86 266.276V265.856C363.86 264.116 362.768 262.964 361.1 262.964C359.396 262.964 358.232 264.236 358.232 266.072C358.232 267.896 359.42 269.144 361.148 269.144ZM361.1 263.912C362.096 263.912 362.732 264.56 362.732 265.532H359.348C359.492 264.5 360.116 263.912 361.1 263.912ZM364.4 267.296C364.4 268.412 365.276 269.144 366.656 269.144C368.048 269.144 369.008 268.436 369.008 267.32C369.008 266.444 368.516 265.988 367.52 265.748L366.488 265.496C365.912 265.352 365.624 265.088 365.624 264.692C365.624 264.152 366.02 263.84 366.728 263.84C367.412 263.84 367.808 264.212 367.832 264.8H368.912C368.888 263.684 368.048 262.964 366.764 262.964C365.468 262.964 364.556 263.648 364.556 264.728C364.556 265.592 365.048 266.108 366.092 266.36L367.124 266.6C367.736 266.756 367.928 266.996 367.928 267.392C367.928 267.932 367.472 268.256 366.68 268.256C365.936 268.256 365.48 267.896 365.48 267.296H364.4ZM373.612 261.74C374.02 261.74 374.356 261.404 374.356 260.996C374.356 260.576 374.02 260.252 373.612 260.252C373.204 260.252 372.868 260.576 372.868 260.996C372.868 261.404 373.204 261.74 373.612 261.74ZM373.06 269H374.188V263.132H373.06V269ZM376.714 269V265.892C376.714 264.752 377.326 263.996 378.382 263.996C379.246 263.996 379.798 264.476 379.798 265.664V269H380.926V265.412C380.926 263.912 380.218 262.964 378.67 262.964C377.842 262.964 377.098 263.36 376.726 264.032L376.606 263.132H375.586V269H376.714ZM386.417 268.988V265.796C386.417 264.788 387.005 263.996 388.097 263.996C388.937 263.996 389.501 264.476 389.501 265.664V269H390.629V265.412C390.629 263.912 389.909 262.964 388.409 262.964C387.497 262.964 386.789 263.396 386.417 264.032V260.168H385.289V268.988H386.417ZM394.484 269.144C395.936 269.144 396.92 268.436 397.208 267.176H396.152C395.96 267.848 395.384 268.208 394.508 268.208C393.392 268.208 392.744 267.524 392.66 266.288L397.196 266.276V265.856C397.196 264.116 396.104 262.964 394.436 262.964C392.732 262.964 391.568 264.236 391.568 266.072C391.568 267.896 392.756 269.144 394.484 269.144ZM394.436 263.912C395.432 263.912 396.068 264.56 396.068 265.532H392.684C392.828 264.5 393.452 263.912 394.436 263.912ZM401.576 263.084C401.348 263.036 401.18 263.012 400.976 263.012C400.172 263.012 399.584 263.42 399.344 264.032L399.272 263.144H398.216V269H399.344V265.892C399.344 264.764 400.004 264.116 401.072 264.116H401.576V263.084ZM404.715 269.144C406.167 269.144 407.151 268.436 407.439 267.176H406.383C406.191 267.848 405.615 268.208 404.739 268.208C403.623 268.208 402.975 267.524 402.891 266.288L407.427 266.276V265.856C407.427 264.116 406.335 262.964 404.667 262.964C402.963 262.964 401.799 264.236 401.799 266.072C401.799 267.896 402.987 269.144 404.715 269.144ZM404.667 263.912C405.663 263.912 406.299 264.56 406.299 265.532H402.915C403.059 264.5 403.683 263.912 404.667 263.912ZM409.775 268.532C409.775 267.872 409.367 267.452 408.863 267.452C408.383 267.452 408.059 267.8 408.059 268.28C408.059 268.724 408.395 269.012 408.791 269.012C408.935 269.012 409.031 268.988 409.115 268.94C409.115 269.312 408.767 269.636 408.275 269.72V270.224C409.127 270.116 409.775 269.396 409.775 268.532ZM283.968 285V276.168H282.84V285H283.968ZM285.005 282.06C285.005 283.872 286.301 285.144 288.065 285.144C289.817 285.144 291.113 283.872 291.113 282.06C291.113 280.248 289.817 278.976 288.065 278.976C286.301 278.976 285.005 280.248 285.005 282.06ZM286.145 282.06C286.145 280.836 286.925 279.984 288.065 279.984C289.193 279.984 289.985 280.836 289.985 282.06C289.985 283.284 289.193 284.136 288.065 284.136C286.925 284.136 286.145 283.284 286.145 282.06ZM295.481 279.084C295.253 279.036 295.085 279.012 294.881 279.012C294.077 279.012 293.489 279.42 293.249 280.032L293.177 279.144H292.121V285H293.249V281.892C293.249 280.764 293.909 280.116 294.977 280.116H295.481V279.084ZM298.62 285.144C300.072 285.144 301.056 284.436 301.344 283.176H300.288C300.096 283.848 299.52 284.208 298.644 284.208C297.528 284.208 296.88 283.524 296.796 282.288L301.332 282.276V281.856C301.332 280.116 300.24 278.964 298.572 278.964C296.868 278.964 295.704 280.236 295.704 282.072C295.704 283.896 296.892 285.144 298.62 285.144ZM298.572 279.912C299.568 279.912 300.204 280.56 300.204 281.532H296.82C296.964 280.5 297.588 279.912 298.572 279.912ZM303.48 285V281.52C303.48 280.584 304.044 279.996 304.896 279.996C305.688 279.996 306.192 280.5 306.192 281.424V285H307.308V281.52C307.308 280.584 307.872 279.984 308.724 279.984C309.516 279.984 310.032 280.512 310.032 281.436V285H311.136V281.16C311.136 279.804 310.32 278.964 308.976 278.964C308.064 278.964 307.356 279.42 307.08 280.152C306.78 279.42 306.132 278.964 305.22 278.964C304.392 278.964 303.768 279.348 303.468 279.9L303.36 279.132H302.352V285H303.48ZM316.053 277.74C316.461 277.74 316.797 277.404 316.797 276.996C316.797 276.576 316.461 276.252 316.053 276.252C315.645 276.252 315.309 276.576 315.309 276.996C315.309 277.404 315.645 277.74 316.053 277.74ZM315.501 285H316.629V279.132H315.501V285ZM318.027 287.628H319.155V284.04C319.539 284.76 320.319 285.156 321.255 285.156C322.995 285.156 323.979 283.812 323.979 282.024C323.979 280.224 322.935 278.964 321.255 278.964C320.319 278.964 319.527 279.384 319.131 280.188L319.047 279.132H318.027V287.628ZM319.167 282.072C319.167 280.848 319.863 279.996 321.015 279.996C322.167 279.996 322.851 280.86 322.851 282.072C322.851 283.272 322.167 284.136 321.015 284.136C319.863 284.136 319.167 283.272 319.167 282.072ZM324.502 283.296C324.502 284.412 325.378 285.144 326.758 285.144C328.15 285.144 329.11 284.436 329.11 283.32C329.11 282.444 328.618 281.988 327.622 281.748L326.59 281.496C326.014 281.352 325.726 281.088 325.726 280.692C325.726 280.152 326.122 279.84 326.83 279.84C327.514 279.84 327.91 280.212 327.934 280.8H329.014C328.99 279.684 328.15 278.964 326.866 278.964C325.57 278.964 324.658 279.648 324.658 280.728C324.658 281.592 325.15 282.108 326.194 282.36L327.226 282.6C327.838 282.756 328.03 282.996 328.03 283.392C328.03 283.932 327.574 284.256 326.782 284.256C326.038 284.256 325.582 283.896 325.582 283.296H324.502ZM334.177 279.132V282.228C334.177 283.488 333.613 284.148 332.581 284.148C331.717 284.148 331.177 283.668 331.177 282.408V279.132H330.049V282.78C330.049 284.22 330.817 285.144 332.185 285.144C333.049 285.144 333.829 284.724 334.165 284.112L334.285 285H335.293V279.132H334.177ZM337.817 285V281.52C337.817 280.584 338.381 279.996 339.233 279.996C340.025 279.996 340.529 280.5 340.529 281.424V285H341.645V281.52C341.645 280.584 342.209 279.984 343.061 279.984C343.853 279.984 344.369 280.512 344.369 281.436V285H345.473V281.16C345.473 279.804 344.657 278.964 343.313 278.964C342.401 278.964 341.693 279.42 341.417 280.152C341.117 279.42 340.469 278.964 339.557 278.964C338.729 278.964 338.105 279.348 337.805 279.9L337.697 279.132H336.689V285H337.817ZM347.637 285.144C348.093 285.144 348.489 284.76 348.489 284.304C348.489 283.836 348.093 283.452 347.637 283.452C347.169 283.452 346.773 283.836 346.773 284.304C346.773 284.76 347.169 285.144 347.637 285.144Z" fill="#5E606E"/>
<path d="M297 341.25C297 340.56 297.56 340 298.25 340C298.94 340 299.5 340.56 299.5 341.25V404H297V341.25Z" fill="#5167F6"/>
<path d="M307.5 381.25C307.5 380.56 308.06 380 308.75 380C309.44 380 310 380.56 310 381.25V404H307.5V381.25Z" fill="#F65071"/>
<path d="M318 367.25C318 366.56 318.56 366 319.25 366C319.94 366 320.5 366.56 320.5 367.25V404H318V367.25Z" fill="#F69250"/>
<path d="M328.5 389.25C328.5 388.56 329.06 388 329.75 388C330.44 388 331 388.56 331 389.25V404H328.5V389.25Z" fill="#F65071"/>
<path d="M339 317.25C339 316.56 339.56 316 340.25 316C340.94 316 341.5 316.56 341.5 317.25V404H339V317.25Z" fill="#0C56EF"/>
<path d="M349.5 349.25C349.5 348.56 350.06 348 350.75 348C351.44 348 352 348.56 352 349.25V404H349.5V349.25Z" fill="#5167F6"/>
<path d="M360 373.25C360 372.56 360.56 372 361.25 372C361.94 372 362.5 372.56 362.5 373.25V404H360V373.25Z" fill="#F65071"/>
<path d="M370.5 367.25C370.5 366.56 371.06 366 371.75 366C372.44 366 373 366.56 373 367.25V404H370.5V367.25Z" fill="#F69250"/>
<path d="M381 327.25C381 326.56 381.56 326 382.25 326C382.94 326 383.5 326.56 383.5 327.25V404H381V327.25Z" fill="#5167F6"/>
<path d="M391.5 389.25C391.5 388.56 392.06 388 392.75 388C393.44 388 394 388.56 394 389.25V404H391.5V389.25Z" fill="#F65071"/>
<path d="M402 363.25C402 362.56 402.56 362 403.25 362C403.94 362 404.5 362.56 404.5 363.25V404H402V363.25Z" fill="#5167F6"/>
<path d="M412.5 381.25C412.5 380.56 413.06 380 413.75 380C414.44 380 415 380.56 415 381.25V404H412.5V381.25Z" fill="#F65071"/>
<path d="M426 303.5H286C283.515 303.5 281.5 305.515 281.5 308V400C281.5 402.485 283.515 404.5 286 404.5H426C428.485 404.5 430.5 402.485 430.5 400V308C430.5 305.515 428.485 303.5 426 303.5Z" stroke="#DEDFE3"/>
<path d="M293.097 424.702L294.057 425.662L290.804 428.916L288.611 426.722C288.351 426.462 287.931 426.462 287.671 426.722L283.671 430.729C283.411 430.989 283.411 431.409 283.671 431.669C283.931 431.929 284.351 431.929 284.611 431.669L288.137 428.136L290.331 430.329C290.591 430.589 291.011 430.589 291.271 430.329L294.997 426.609L295.957 427.569C296.164 427.776 296.524 427.629 296.524 427.336V424.469C296.531 424.282 296.384 424.136 296.197 424.136H293.337C293.037 424.136 292.891 424.496 293.097 424.702Z" fill="#0C56EF"/>
<path d="M411.408 432.988V431.896H407.4L409.2 430.336C410.736 429.004 411.348 428.128 411.348 426.892C411.348 425.224 410.232 424.168 408.492 424.168C406.728 424.168 405.552 425.38 405.516 427.24H406.692C406.716 426.004 407.412 425.224 408.48 425.224C409.524 425.224 410.148 425.872 410.148 426.964C410.148 427.888 409.752 428.476 408.348 429.688L405.552 432.1V433L411.408 432.988ZM418.484 431.248V430.204H417.452V424.324H415.928L411.836 430.204V431.248H416.324V433H417.452V431.248H418.484ZM413.108 430.204L416.324 425.572V430.204H413.108ZM423.701 426.376C423.701 425.08 422.789 424.156 421.505 424.156C420.233 424.156 419.321 425.08 419.321 426.376C419.321 427.66 420.233 428.584 421.505 428.584C422.789 428.584 423.701 427.66 423.701 426.376ZM428.273 424.336H427.121L420.533 433H421.685L428.273 424.336ZM422.777 426.376C422.777 427.144 422.249 427.684 421.505 427.684C420.761 427.684 420.245 427.144 420.245 426.376C420.245 425.596 420.761 425.056 421.505 425.056C422.261 425.056 422.777 425.596 422.777 426.376ZM429.509 430.948C429.509 429.652 428.585 428.74 427.313 428.74C426.041 428.74 425.117 429.652 425.117 430.948C425.117 432.232 426.041 433.156 427.313 433.156C428.585 433.156 429.509 432.232 429.509 430.948ZM428.573 430.948C428.573 431.716 428.057 432.256 427.313 432.256C426.569 432.256 426.053 431.716 426.053 430.948C426.053 430.168 426.569 429.628 427.313 429.628C428.069 429.628 428.573 430.168 428.573 430.948Z" fill="#5E606E"/>
<path d="M438 208.5H274C269.858 208.5 266.5 211.858 266.5 216V444C266.5 448.142 269.858 451.5 274 451.5H438C442.142 451.5 445.5 448.142 445.5 444V216C445.5 211.858 442.142 208.5 438 208.5Z" stroke="#F4F4F6"/>
</g>
<defs>
<clipPath id="clip0_1305_126421">
<rect width="486" height="412" fill="white" transform="translate(0 40)"/>
</clipPath>
</defs>
</svg>
