<svg width="153" height="111" viewBox="0 0 153 111" fill="none" xmlns="http://www.w3.org/2000/svg">
<path id="&#226;&#128;&#157;" opacity="0.4" d="M1.87764 103.567C8.30664 96.7885 13.358 90.472 17.0317 84.6176C20.7054 78.7633 22.5423 73.9874 22.5423 70.2899C22.5423 68.133 21.7769 66.1302 20.2462 64.2815C19.0216 62.4328 17.0317 60.43 14.2764 58.2731C9.99043 54.8838 6.62286 51.3403 4.17372 47.6429C1.72457 43.9454 0.5 39.0154 0.5 32.8529C0.5 23.3011 3.40834 15.598 9.22506 9.74369C15.0418 3.58123 22.3892 0.5 31.2674 0.5C40.7578 0.5 48.4114 3.58123 54.2281 9.74369C60.3509 15.598 63.4124 23.3011 63.4124 32.8529C63.4124 44.8697 58.361 58.1191 48.2583 72.6008C38.4617 86.7745 25.2976 99.4076 8.76585 110.5L1.87764 103.567ZM90.9652 103.567C97.3943 96.7885 102.446 90.472 106.119 84.6176C109.793 78.7633 111.63 73.9874 111.63 70.2899C111.63 68.133 110.865 66.1302 109.334 64.2815C108.109 62.4328 106.119 60.43 103.364 58.2731C99.078 54.8838 95.7105 51.3403 93.2613 47.6429C90.8122 43.9454 89.5876 39.0154 89.5876 32.8529C89.5876 23.3011 92.496 15.598 98.3127 9.74369C104.129 3.58123 111.477 0.5 120.355 0.5C129.845 0.5 137.499 3.58123 143.316 9.74369C149.439 15.598 152.5 23.3011 152.5 32.8529C152.5 44.8697 147.449 58.1191 137.346 72.6008C127.549 86.7745 114.385 99.4076 97.8535 110.5L90.9652 103.567Z" fill="#A6B4FF"/>
</svg>
