<svg width="46" height="45" viewBox="0 0 46 45" fill="none" xmlns="http://www.w3.org/2000/svg">
<rect x="0.5" width="45" height="45" rx="22.5" fill="#2FA6E6"/>
<path d="M23.0007 14.5834C18.6386 14.5834 15.084 18.138 15.084 22.5C15.084 26.8621 18.6386 30.4167 23.0007 30.4167C27.3627 30.4167 30.9173 26.8621 30.9173 22.5C30.9173 18.138 27.3627 14.5834 23.0007 14.5834ZM26.7848 20.6792L22.2961 25.168C22.1852 25.2788 22.0348 25.3421 21.8765 25.3421C21.7182 25.3421 21.5677 25.2788 21.4569 25.168L19.2165 22.9275C18.9869 22.698 18.9869 22.318 19.2165 22.0884C19.4461 21.8588 19.8261 21.8588 20.0557 22.0884L21.8765 23.9092L25.9457 19.84C26.1752 19.6105 26.5552 19.6105 26.7848 19.84C27.0144 20.0696 27.0144 20.4417 26.7848 20.6792Z" fill="white"/>
</svg>
