<svg width="32" height="32" viewBox="0 0 32 32" fill="none" xmlns="http://www.w3.org/2000/svg">
<rect x="0.5" y="0.5" width="31" height="31" rx="15.5" fill="#2FA6E6"/>
<path d="M16.0007 8.08301C11.6386 8.08301 8.08398 11.6376 8.08398 15.9997C8.08398 20.3618 11.6386 23.9163 16.0007 23.9163C20.3627 23.9163 23.9173 20.3618 23.9173 15.9997C23.9173 11.6376 20.3627 8.08301 16.0007 8.08301ZM19.7848 14.1788L15.2961 18.6676C15.1852 18.7784 15.0348 18.8418 14.8765 18.8418C14.7182 18.8418 14.5677 18.7784 14.4569 18.6676L12.2165 16.4272C11.9869 16.1976 11.9869 15.8176 12.2165 15.588C12.4461 15.3584 12.8261 15.3584 13.0557 15.588L14.8765 17.4088L18.9457 13.3397C19.1752 13.1101 19.5552 13.1101 19.7848 13.3397C20.0144 13.5693 20.0144 13.9413 19.7848 14.1788Z" fill="white"/>
</svg>
