<svg width="17" height="43" viewBox="0 0 17 43" fill="none" xmlns="http://www.w3.org/2000/svg">
<g clip-path="url(#clip0_606_10674)">
<path d="M11.5218 13.044H5.51426C4.60646 13.044 3.76274 13.2736 2.9831 13.7328C2.22482 14.1707 1.62674 14.7688 1.18886 15.5271C0.72962 16.296 0.5 17.1344 0.5 18.0422V24.0497C0.5 24.9575 0.72962 25.8012 1.18886 26.5809C1.62674 27.3391 2.22482 27.9372 2.9831 28.3751C3.76274 28.8343 4.60646 29.064 5.51426 29.064H11.5218C12.4296 29.064 13.2679 28.8343 14.0369 28.3751C14.7952 27.9372 15.3933 27.3391 15.8311 26.5809C16.2904 25.8012 16.52 24.9575 16.52 24.0497V18.0422C16.52 17.1344 16.2904 16.296 15.8311 15.5271C15.3933 14.7688 14.7952 14.1707 14.0369 13.7328C13.2679 13.2736 12.4296 13.044 11.5218 13.044ZM15.0141 24.0497C15.0141 24.6798 14.8566 25.2646 14.5415 25.8039C14.2265 26.3432 13.8019 26.7704 13.2679 27.0855C12.7339 27.4006 12.1519 27.5581 11.5218 27.5581H5.51426C4.87346 27.5581 4.28606 27.4006 3.75206 27.0855C3.21806 26.7704 2.79353 26.3459 2.47847 25.8119C2.16341 25.2779 2.00588 24.6905 2.00588 24.0497V18.0422C2.00588 17.4121 2.16341 16.83 2.47847 16.296C2.79353 15.762 3.22073 15.3375 3.76007 15.0224C4.29941 14.7074 4.88414 14.5498 5.51426 14.5498H11.5218C12.1519 14.5498 12.7339 14.7074 13.2679 15.0224C13.8019 15.3375 14.2265 15.762 14.5415 16.296C14.8566 16.83 15.0141 17.4121 15.0141 18.0422V24.0497ZM8.51 17.049C7.78376 17.049 7.11359 17.2279 6.49949 17.5856C5.88539 17.9434 5.39945 18.4294 5.04167 19.0435C4.68389 19.6576 4.505 20.3277 4.505 21.054C4.505 21.7802 4.68389 22.4504 5.04167 23.0645C5.39945 23.6786 5.88539 24.1645 6.49949 24.5223C7.11359 24.8801 7.78376 25.059 8.51 25.059C9.23624 25.059 9.90641 24.8801 10.5205 24.5223C11.1346 24.1645 11.6206 23.6786 11.9783 23.0645C12.3361 22.4504 12.515 21.7802 12.515 21.054C12.515 20.3277 12.3361 19.6576 11.9783 19.0435C11.6206 18.4294 11.1346 17.9434 10.5205 17.5856C9.90641 17.2279 9.23624 17.049 8.51 17.049ZM8.51 23.5531C8.06144 23.5531 7.64492 23.4409 7.26044 23.2167C6.87596 22.9924 6.57158 22.688 6.3473 22.3035C6.12302 21.919 6.01088 21.5025 6.01088 21.054C6.01088 20.6054 6.12302 20.1889 6.3473 19.8044C6.57158 19.4199 6.87596 19.1155 7.26044 18.8913C7.64492 18.667 8.06144 18.5548 8.51 18.5548C8.95856 18.5548 9.37508 18.667 9.75956 18.8913C10.144 19.1155 10.4484 19.4199 10.6727 19.8044C10.897 20.1889 11.0091 20.6054 11.0091 21.054C11.0091 21.5025 10.897 21.919 10.6727 22.3035C10.4484 22.688 10.144 22.9924 9.75956 23.2167C9.37508 23.4409 8.95856 23.5531 8.51 23.5531ZM12.8194 16.2159C12.9689 16.2159 13.0944 16.2667 13.1959 16.3681C13.2973 16.4696 13.348 16.5951 13.348 16.7446C13.348 16.8941 13.2946 17.0223 13.1878 17.1291C13.081 17.2359 12.9556 17.2893 12.8114 17.2893C12.6672 17.2893 12.5417 17.2359 12.4349 17.1291C12.3281 17.0223 12.2747 16.8941 12.2747 16.7446C12.2747 16.5951 12.3281 16.4696 12.4349 16.3681C12.5417 16.2667 12.6699 16.2159 12.8194 16.2159Z" fill="white"/>
</g>
<defs>
<clipPath id="clip0_606_10674">
<rect width="16.02" height="42" fill="white" transform="matrix(1 0 0 -1 0.5 42.0542)"/>
</clipPath>
</defs>
</svg>
