<svg width="21" height="43" viewBox="0 0 21 43" fill="none" xmlns="http://www.w3.org/2000/svg">
<g clip-path="url(#clip0_606_10668)">
<path d="M18.6261 20.2798C19.0956 20.2798 19.5299 20.1601 19.9289 19.9207C20.328 19.6812 20.6355 19.355 20.8514 18.9418C20.4758 19.1202 20.0815 19.2352 19.6684 19.2869C19.2552 19.3385 18.8468 19.3174 18.443 19.2235C18.4149 19.0639 18.3773 18.9043 18.3304 18.7447C18.1801 18.0874 17.8914 17.4982 17.4642 16.9771C17.037 16.456 16.5206 16.0523 15.915 15.7659C15.3094 15.4795 14.6685 15.341 13.9925 15.3504L14.4714 15.1814C14.4995 15.172 14.5793 15.1485 14.7108 15.111C15.0488 15.0265 15.2929 14.9514 15.4431 14.8856C15.706 14.7542 15.807 14.6157 15.746 14.4702C15.6849 14.3246 15.4525 14.3035 15.0488 14.4068C14.8235 14.4631 14.4901 14.5711 14.0488 14.7307L13.7531 14.8434C14.0347 14.7401 14.2554 14.6368 14.415 14.5335C14.6685 14.3739 14.8094 14.2002 14.8375 14.0124C14.2272 14.1063 13.692 14.3598 13.232 14.773C13.401 14.604 13.5042 14.4021 13.5418 14.1673C12.8376 14.6086 12.1991 15.3082 11.6264 16.2659C11.2226 16.9607 10.7954 17.9043 10.3447 19.0968C9.88465 18.6179 9.36824 18.2048 8.79549 17.8574C7.09602 16.9654 5.3449 16.1954 3.54215 15.5476C3.54215 16.1109 3.70177 16.6297 4.02101 17.1039C4.34024 17.578 4.76276 17.9184 5.28857 18.125C4.86605 18.1062 4.44822 18.1531 4.03509 18.2658C4.13837 18.7634 4.34963 19.1719 4.66887 19.4911C5.04444 19.8667 5.59842 20.139 6.33079 20.308C6.06788 20.2986 5.81437 20.3408 5.57025 20.4347C5.32613 20.5286 5.11017 20.6695 4.92238 20.8573C5.16651 21.3173 5.52095 21.66 5.98573 21.8854C6.4505 22.1107 6.9364 22.1765 7.44342 22.0826C7.07724 22.2422 6.83312 22.4347 6.71105 22.66C6.59838 22.8666 6.59369 23.0708 6.69697 23.2727C6.80025 23.4745 6.97865 23.6295 7.23216 23.7374C7.48568 23.8454 7.76736 23.8759 8.0772 23.829C7.40117 24.5238 6.60308 25.0027 5.68292 25.2656C4.78154 25.5285 3.87547 25.5566 2.9647 25.3501C2.03516 25.1341 1.21359 24.6975 0.5 24.0402C1.49527 25.3923 2.72528 26.4158 4.19001 27.1106C5.54208 27.749 7.00682 28.0777 8.58423 28.0964C10.0865 28.1058 11.5372 27.8335 12.9362 27.2796C14.3352 26.7256 15.5183 25.9557 16.4854 24.9698C17.5088 23.9276 18.1801 22.7492 18.4994 21.4347C18.9595 21.4723 19.4031 21.4089 19.8303 21.2446C20.2575 21.0803 20.6308 20.8338 20.95 20.5052C20.1613 20.6178 19.3867 20.5427 18.6261 20.2798Z" fill="white"/>
</g>
<defs>
<clipPath id="clip0_606_10668">
<rect width="20.45" height="42" fill="white" transform="matrix(1 0 0 -1 0.5 42.0542)"/>
</clipPath>
</defs>
</svg>
