<svg width="46" height="45" viewBox="0 0 46 45" fill="none" xmlns="http://www.w3.org/2000/svg">
<rect x="0.5" width="45" height="45" rx="22.5" fill="#E7B51D"/>
<path d="M23.0007 14.5833C18.6386 14.5833 15.084 18.1378 15.084 22.4999C15.084 26.862 18.6386 30.4166 23.0007 30.4166C27.3627 30.4166 30.9173 26.862 30.9173 22.4999C30.9173 18.1378 27.3627 14.5833 23.0007 14.5833ZM26.7848 20.6791L22.2961 25.1678C22.1852 25.2787 22.0348 25.342 21.8765 25.342C21.7182 25.342 21.5677 25.2787 21.4569 25.1678L19.2165 22.9274C18.9869 22.6978 18.9869 22.3178 19.2165 22.0883C19.4461 21.8587 19.8261 21.8587 20.0557 22.0883L21.8765 23.9091L25.9457 19.8399C26.1752 19.6103 26.5552 19.6103 26.7848 19.8399C27.0144 20.0695 27.0144 20.4416 26.7848 20.6791Z" fill="white"/>
</svg>
