<svg width="70" height="24" viewBox="0 0 70 24" fill="none" xmlns="http://www.w3.org/2000/svg">
<path d="M39.0382 10.8441C38.2886 10.8449 37.5556 10.6233 36.932 10.2074C36.3083 9.79146 35.822 9.19992 35.5346 8.50758C35.2472 7.81525 35.1716 7.05323 35.3174 6.31792C35.4632 5.58262 35.8238 4.90707 36.3536 4.37675C36.8834 3.84642 37.5585 3.48514 38.2937 3.33862C39.0289 3.1921 39.7909 3.26691 40.4836 3.5536C41.1762 3.84029 41.7682 4.32597 42.1848 4.9492C42.6013 5.57243 42.8237 6.3052 42.8237 7.05481C42.8226 8.05882 42.4236 9.02147 41.714 9.73177C41.0045 10.4421 40.0422 10.8421 39.0382 10.8441ZM39.0382 0.184082C37.6793 0.184082 36.3509 0.587043 35.221 1.34201C34.0912 2.09698 33.2105 3.17004 32.6905 4.4255C32.1705 5.68096 32.0344 7.06244 32.2995 8.39523C32.5646 9.72802 33.219 10.9523 34.1799 11.9132C35.1408 12.874 36.365 13.5284 37.6978 13.7935C39.0306 14.0586 40.4121 13.9226 41.6675 13.4025C42.923 12.8825 43.9961 12.0019 44.751 10.872C45.506 9.7421 45.9089 8.41372 45.9089 7.05481C45.9059 5.23352 45.181 3.4877 43.8932 2.19984C42.6053 0.911992 40.8595 0.187134 39.0382 0.184082Z" fill="#099DFD"/>
<path d="M50.4535 1.95413L50.3688 2.03876L50.2765 2.12724L50.215 2.01568L50.1611 1.92335C49.9162 1.46937 49.5677 1.07952 49.144 0.785419C48.7202 0.491322 48.2331 0.301267 47.7221 0.230675L47.4644 0.180664V13.9298L47.7221 13.8952C48.5115 13.8044 49.2386 13.4226 49.7615 12.8243C50.2844 12.226 50.5654 11.4543 50.5496 10.6599V7.05524C50.5571 6.12061 50.9069 5.22113 51.5329 4.52708C52.1589 3.83302 53.0176 3.39254 53.9465 3.28904L54.1504 3.26595V0.188358L53.9042 0.215287C52.5852 0.386991 51.364 1.00302 50.4419 1.96182" fill="#099DFD"/>
<path d="M8.20879 10.848C7.45934 10.848 6.72672 10.6257 6.10357 10.2093C5.48043 9.79297 4.99475 9.20116 4.70794 8.50876C4.42114 7.81636 4.3461 7.05446 4.49231 6.31941C4.63852 5.58436 4.99942 4.90917 5.52936 4.37923C6.0593 3.84929 6.73449 3.48839 7.46954 3.34218C8.20459 3.19597 8.96649 3.27101 9.65889 3.55781C10.3513 3.84462 10.9431 4.3303 11.3595 4.95344C11.7758 5.57659 11.9981 6.30921 11.9981 7.05866C11.9971 8.06333 11.5975 9.02656 10.8871 9.73697C10.1767 10.4474 9.21346 10.8469 8.20879 10.848ZM12.6213 1.53822L12.5636 1.61516L12.5059 1.6921L12.4289 1.6344L12.3559 1.57669C11.4866 0.919922 10.4736 0.479286 9.40046 0.291148C8.32734 0.103011 7.22486 0.172767 6.18401 0.49466C5.14316 0.816553 4.19378 1.38135 3.41422 2.14245C2.63466 2.90355 2.04727 3.83912 1.70053 4.87196C1.35378 5.90479 1.25762 7.00528 1.41999 8.0826C1.58235 9.15992 1.99859 10.1832 2.63434 11.068C3.27009 11.9527 4.10713 12.6736 5.07638 13.1711C6.04563 13.6687 7.1193 13.9286 8.20879 13.9294C9.70728 13.9337 11.1652 13.4428 12.3559 12.5329L12.4289 12.4791L12.5059 12.4175L12.5636 12.4983L12.6213 12.5753C12.8806 12.933 13.2095 13.2347 13.5883 13.4621C13.9671 13.6895 14.388 13.838 14.8256 13.8986L15.0795 13.9332V0.184082L14.8256 0.218705C14.3883 0.279073 13.9677 0.42705 13.589 0.653778C13.2102 0.880505 12.8811 1.18132 12.6213 1.53822Z" fill="#099DFD"/>
<path d="M61.7893 10.8484C61.04 10.8476 60.3077 10.6247 59.6851 10.2079C59.0625 9.79106 58.5774 9.19899 58.2912 8.50652C58.005 7.81406 57.9305 7.05228 58.0771 6.31748C58.2237 5.58268 58.585 4.90786 59.115 4.3783C59.6451 3.84874 60.3203 3.48823 61.0553 3.34233C61.7902 3.19643 62.5519 3.2717 63.2441 3.55861C63.9363 3.84553 64.5279 4.33121 64.9441 4.95427C65.3603 5.57733 65.5824 6.3098 65.5824 7.05909C65.5814 8.06376 65.1818 9.02699 64.4714 9.7374C63.761 10.4478 62.7978 10.8474 61.7931 10.8484M68.4061 0.219133C67.9684 0.27986 67.5474 0.427964 67.168 0.654642C66.7887 0.88132 66.4588 1.18195 66.1979 1.53865L66.1441 1.61174L66.0864 1.69253L66.0094 1.63483L65.9363 1.57712C65.0675 0.918154 64.0543 0.475445 62.9805 0.285596C61.9067 0.0957464 60.8031 0.164209 59.761 0.485323C58.7189 0.806437 57.7682 1.37098 56.9875 2.13228C56.2068 2.89358 55.6185 3.82978 55.2712 4.86346C54.924 5.89715 54.8278 6.99865 54.9905 8.07689C55.1533 9.15513 55.5704 10.1791 56.2072 11.0643C56.8441 11.9494 57.6825 12.6703 58.6532 13.1672C59.6238 13.6641 60.6988 13.9229 61.7893 13.9221C63.2878 13.9265 64.7457 13.4355 65.9363 12.5257L66.0094 12.4718L66.0864 12.4103L66.1441 12.491L66.1979 12.568C66.4583 12.9256 66.788 13.227 67.1673 13.4544C67.5467 13.6818 67.968 13.8304 68.4061 13.8914L68.66 13.926V0.18451L68.4061 0.219133Z" fill="#099DFD"/>
<path d="M23.7202 3.26601C24.4695 3.26677 25.2017 3.48966 25.8243 3.90649C26.447 4.32333 26.9321 4.9154 27.2183 5.60787C27.5045 6.30034 27.579 7.06212 27.4323 7.79691C27.2857 8.53171 26.9245 9.20653 26.3944 9.73609C25.8643 10.2656 25.1891 10.6262 24.4542 10.7721C23.7192 10.918 22.9575 10.8427 22.2653 10.5558C21.5732 10.2689 20.9816 9.78318 20.5654 9.16012C20.1492 8.53706 19.927 7.80459 19.927 7.0553C19.9275 6.55686 20.0263 6.0634 20.2176 5.60313C20.4089 5.14287 20.6891 4.72483 21.0421 4.37291C21.3951 4.021 21.814 3.7421 22.2748 3.55217C22.7357 3.36224 23.2294 3.265 23.7279 3.26601M28.0173 12.4142C29.3685 11.3383 30.2638 9.79197 30.5241 8.08448C30.7844 6.37698 30.3906 4.63413 29.4214 3.20446C29.3252 3.05828 29.2175 2.91594 29.106 2.77744C29.5035 2.51577 29.8403 2.17196 30.0938 1.76916C30.3473 1.36636 30.5116 0.913928 30.5755 0.442319L30.614 0.18457H23.6932C22.2715 0.187668 20.8858 0.631978 19.7273 1.45618C18.5689 2.28038 17.6948 3.44383 17.2258 4.78596C16.7567 6.12809 16.7158 7.58271 17.1087 8.94908C17.5016 10.3154 18.3089 11.5262 19.4192 12.4142C19.1241 12.6476 18.8488 12.9049 18.596 13.1836L20.6887 15.4918C21.0221 15.0419 21.4511 14.6715 21.9447 14.4073C22.4384 14.143 22.9844 13.9914 23.5437 13.9634C24.1029 13.9354 24.6614 14.0317 25.179 14.2454C25.6965 14.459 26.1603 14.7847 26.537 15.199C26.9136 15.6133 27.1938 16.106 27.3573 16.6415C27.5208 17.177 27.5635 17.7421 27.4825 18.2962C27.4015 18.8502 27.1987 19.3794 26.8888 19.8457C26.5788 20.312 26.1693 20.7038 25.6898 20.993L27.7864 23.3012C28.63 22.6752 29.3186 21.8639 29.7992 20.9299C30.2799 19.9958 30.5397 18.9639 30.5586 17.9136C30.5776 16.8633 30.3552 15.8227 29.9086 14.8719C29.462 13.9211 28.8031 13.0856 27.9826 12.4296" fill="#099DFD"/>
</svg>
