<svg width="73" height="60" viewBox="0 0 73 60" fill="none" xmlns="http://www.w3.org/2000/svg">
<path d="M41.0035 32.8436C40.2539 32.8444 39.5209 32.6228 38.8973 32.2069C38.2736 31.791 37.7874 31.1994 37.5 30.5071C37.2126 29.8148 37.137 29.0527 37.2828 28.3174C37.4285 27.5821 37.7891 26.9066 38.3189 26.3763C38.8487 25.8459 39.5239 25.4847 40.259 25.3381C40.9942 25.1916 41.7563 25.2664 42.4489 25.5531C43.1415 25.8398 43.7336 26.3255 44.1501 26.9487C44.5667 27.5719 44.789 28.3047 44.789 29.0543C44.788 30.0583 44.3889 31.021 43.6794 31.7313C42.9698 32.4416 42.0075 32.8416 41.0035 32.8436ZM41.0035 22.1836C39.6446 22.1836 38.3163 22.5866 37.1864 23.3415C36.0565 24.0965 35.1758 25.1695 34.6558 26.425C34.1358 27.6805 33.9997 29.0619 34.2648 30.3947C34.5299 31.7275 35.1843 32.9518 36.1452 33.9127C37.1061 34.8736 38.3303 35.5279 39.6631 35.793C40.9959 36.0581 42.3774 35.9221 43.6329 35.4021C44.8883 34.882 45.9614 34.0014 46.7163 32.8715C47.4713 31.7416 47.8743 30.4132 47.8743 29.0543C47.8712 27.233 47.1464 25.4872 45.8585 24.1994C44.5707 22.9115 42.8248 22.1866 41.0035 22.1836Z" fill="#099DFD"/>
<path d="M52.4188 23.9541L52.3342 24.0388L52.2418 24.1272L52.1803 24.0157L52.1264 23.9234C51.8815 23.4694 51.5331 23.0795 51.1093 22.7854C50.6855 22.4913 50.1984 22.3013 49.6874 22.2307L49.4297 22.1807V35.9298L49.6874 35.8952C50.4768 35.8044 51.2039 35.4226 51.7268 34.8243C52.2497 34.226 52.5307 33.4543 52.515 32.6599V29.0552C52.5224 28.1206 52.8722 27.2211 53.4982 26.5271C54.1242 25.833 54.983 25.3925 55.9119 25.289L56.1158 25.266V22.1884L55.8696 22.2153C54.5505 22.387 53.3293 23.003 52.4073 23.9618" fill="#099DFD"/>
<path d="M10.1741 32.8484C9.42467 32.8484 8.69205 32.6262 8.06891 32.2098C7.44576 31.7935 6.96008 31.2016 6.67328 30.5092C6.38647 29.8168 6.31143 29.0549 6.45764 28.3199C6.60385 27.5848 6.96475 26.9097 7.49469 26.3797C8.02463 25.8498 8.69982 25.4889 9.43487 25.3427C10.1699 25.1965 10.9318 25.2715 11.6242 25.5583C12.3166 25.8451 12.9084 26.3308 13.3248 26.9539C13.7412 27.5771 13.9634 28.3097 13.9634 29.0591C13.9624 30.0638 13.5628 31.027 12.8524 31.7375C12.142 32.4479 11.1788 32.8474 10.1741 32.8484ZM14.5866 23.5387L14.5289 23.6157L14.4712 23.6926L14.3943 23.6349L14.3212 23.5772C13.4519 22.9204 12.4389 22.4798 11.3658 22.2916C10.2927 22.1035 9.1902 22.1733 8.14935 22.4951C7.1085 22.817 6.15912 23.3818 5.37955 24.1429C4.59999 24.904 4.0126 25.8396 3.66586 26.8724C3.31911 27.9053 3.22296 29.0058 3.38532 30.0831C3.54769 31.1604 3.96392 32.1837 4.59967 33.0684C5.23542 33.9532 6.07246 34.6741 7.04171 35.1716C8.01096 35.6692 9.08464 35.9291 10.1741 35.9299C11.6726 35.9342 13.1305 35.4433 14.3212 34.5334L14.3943 34.4796L14.4712 34.418L14.5289 34.4988L14.5866 34.5757C14.8459 34.9335 15.1748 35.2352 15.5536 35.4626C15.9324 35.69 16.3533 35.8385 16.791 35.8991L17.0449 35.9337V22.1846L16.791 22.2192C16.3537 22.2796 15.9331 22.4275 15.5543 22.6543C15.1755 22.881 14.8464 23.1818 14.5866 23.5387Z" fill="#099DFD"/>
<path d="M63.7546 32.8484C63.0053 32.8476 62.2731 32.6247 61.6504 32.2079C61.0278 31.7911 60.5427 31.199 60.2565 30.5065C59.9703 29.8141 59.8958 29.0523 60.0424 28.3175C60.1891 27.5827 60.5503 26.9079 61.0804 26.3783C61.6105 25.8487 62.2857 25.4882 63.0206 25.3423C63.7556 25.1964 64.5173 25.2717 65.2094 25.5586C65.9016 25.8455 66.4932 26.3312 66.9094 26.9543C67.3256 27.5773 67.5477 28.3098 67.5477 29.0591C67.5467 30.0638 67.1472 31.027 66.4368 31.7374C65.7263 32.4478 64.7631 32.8474 63.7584 32.8484M70.3714 22.2191C69.9337 22.2799 69.5127 22.428 69.1333 22.6546C68.754 22.8813 68.4241 23.1819 68.1633 23.5387L68.1094 23.6117L68.0517 23.6925L67.9748 23.6348L67.9017 23.5771C67.0328 22.9182 66.0196 22.4754 64.9458 22.2856C63.872 22.0957 62.7685 22.1642 61.7264 22.4853C60.6843 22.8064 59.7336 23.371 58.9528 24.1323C58.1721 24.8936 57.5838 25.8298 57.2366 26.8635C56.8893 27.8972 56.7931 28.9986 56.9559 30.0769C57.1186 31.1551 57.5357 32.1791 58.1726 33.0643C58.8095 33.9494 59.6479 34.6703 60.6185 35.1672C61.5892 35.6641 62.6641 35.9229 63.7546 35.9221C65.2531 35.9265 66.711 35.4355 67.9017 34.5257L67.9748 34.4718L68.0517 34.4103L68.1094 34.491L68.1633 34.568C68.4236 34.9256 68.7533 35.227 69.1327 35.4544C69.5121 35.6818 69.9334 35.8304 70.3714 35.8914L70.6253 35.926V22.1845L70.3714 22.2191Z" fill="#099DFD"/>
<path d="M25.6855 25.266C26.4348 25.2668 27.167 25.4897 27.7897 25.9065C28.4123 26.3233 28.8974 26.9154 29.1836 27.6079C29.4698 28.3003 29.5443 29.0621 29.3977 29.7969C29.251 30.5317 28.8898 31.2065 28.3597 31.7361C27.8296 32.2656 27.1544 32.6262 26.4195 32.7721C25.6845 32.918 24.9228 32.8427 24.2307 32.5558C23.5385 32.2689 22.9469 31.7832 22.5307 31.1601C22.1145 30.5371 21.8924 29.8046 21.8924 29.0553C21.8929 28.5569 21.9916 28.0634 22.1829 27.6031C22.3743 27.1429 22.6544 26.7248 23.0074 26.3729C23.3604 26.021 23.7793 25.7421 24.2401 25.5522C24.701 25.3622 25.1947 25.265 25.6932 25.266M29.9826 34.4142C31.3338 33.3383 32.2291 31.792 32.4894 30.0845C32.7498 28.377 32.3559 26.6341 31.3867 25.2045C31.2906 25.0583 31.1829 24.9159 31.0713 24.7774C31.4688 24.5158 31.8057 24.172 32.0592 23.7692C32.3126 23.3664 32.4769 22.9139 32.5408 22.4423L32.5793 22.1846H25.6586C24.2368 22.1877 22.8511 22.632 21.6927 23.4562C20.5342 24.2804 19.6602 25.4438 19.1911 26.786C18.7221 28.1281 18.6812 29.5827 19.0741 30.9491C19.4669 32.3154 20.2742 33.5262 21.3846 34.4142C21.0895 34.6476 20.8141 34.9049 20.5613 35.1836L22.6541 37.4918C22.9875 37.0419 23.4164 36.6715 23.91 36.4073C24.4037 36.143 24.9498 35.9914 25.509 35.9634C26.0682 35.9354 26.6267 36.0317 27.1443 36.2454C27.6619 36.459 28.1256 36.7847 28.5023 37.199C28.8789 37.6133 29.1591 38.106 29.3226 38.6415C29.4861 39.177 29.5289 39.7421 29.4479 40.2962C29.3669 40.8502 29.1641 41.3794 28.8541 41.8457C28.5441 42.312 28.1347 42.7038 27.6552 42.993L29.7518 45.3012C30.5953 44.6752 31.284 43.8639 31.7646 42.9299C32.2452 41.9958 32.505 40.9639 32.5239 39.9136C32.5429 38.8633 32.3205 37.8227 31.8739 36.8719C31.4273 35.9211 30.7684 35.0856 29.948 34.4296" fill="#099DFD"/>
</svg>
