<svg width="46" height="40" viewBox="0 0 46 40" fill="none" xmlns="http://www.w3.org/2000/svg">
<g style="mix-blend-mode:luminosity">
<path d="M3.5218 33.1709C1.98364 33.1709 0.401978 34.4035 0.401978 36.5609C0.401978 38.5333 1.79262 39.9264 3.5218 39.9264C4.94915 39.9264 5.58531 38.9684 5.58531 38.9684V39.386C5.58531 39.5834 5.77193 39.8036 6.00292 39.8036H7.03467V33.3183H5.58531V34.1412C5.58531 34.1412 4.94382 33.1709 3.5218 33.1709ZM3.77999 34.497C5.04623 34.497 5.71044 35.6106 5.71044 36.5605C5.71044 37.6184 4.92181 38.6232 3.78267 38.6232C2.83042 38.6232 1.87654 37.852 1.87654 36.5465C1.87654 35.3681 2.69742 34.497 3.77999 34.497Z" fill="#343434"/>
<path d="M9.04908 39.8036C8.8264 39.8036 8.63147 39.6439 8.63147 39.386V33.3183H10.0808V34.1209C10.4093 33.6272 11.0509 33.1689 12.0358 33.1689C13.6455 33.1689 14.5026 34.4521 14.5026 35.652V39.8036H13.4954C13.2313 39.8036 13.0533 39.5825 13.0533 39.3614V35.9714C13.0533 35.3063 12.6458 34.4985 11.7033 34.4985C10.6864 34.4985 10.0808 35.4596 10.0808 36.3644V39.8036L9.04908 39.8036Z" fill="#343434"/>
<path d="M18.7278 33.1705C17.1897 33.1705 15.608 34.403 15.608 36.5605C15.608 38.5328 16.9987 39.926 18.7278 39.926C20.1552 39.926 20.7913 38.9679 20.7913 38.9679V39.3855C20.7913 39.5829 20.978 39.8031 21.209 39.8031H22.2407V30.0752H20.7913V34.1408C20.7913 34.1408 20.1499 33.1705 18.7278 33.1705ZM18.986 34.4966C20.2523 34.4966 20.9165 35.6102 20.9165 36.56C20.9165 37.618 20.1278 38.6228 18.9887 38.6228C18.0365 38.6228 17.0826 37.8515 17.0826 36.5461C17.0826 35.3676 17.9034 34.4966 18.986 34.4966Z" fill="#343434"/>
<path d="M24.255 39.8031C24.0323 39.8031 23.8374 39.6434 23.8374 39.3855V33.3178H25.2868V34.3987C25.5362 33.7932 26.0746 33.2441 27.0309 33.2441C27.2975 33.2441 27.5468 33.2933 27.5468 33.2933V34.7918C27.5468 34.7918 27.2355 34.6689 26.859 34.6689C25.842 34.6689 25.2868 35.63 25.2868 36.5348V39.8031H24.255Z" fill="#343434"/>
<path d="M36.3411 39.8036C36.1184 39.8036 35.9235 39.6439 35.9235 39.386V33.3184H37.3728V39.8036L36.3411 39.8036Z" fill="#343434"/>
<path d="M41.6228 33.1705C40.0846 33.1705 38.5029 34.403 38.5029 36.5605C38.5029 38.5328 39.8936 39.926 41.6228 39.926C43.0501 39.926 43.6863 38.9679 43.6863 38.9679V39.3855C43.6863 39.5829 43.8729 39.8031 44.1039 39.8031H45.1356V30.0752H43.6863V34.1408C43.6863 34.1408 43.0448 33.1705 41.6228 33.1705ZM41.8809 34.4966C43.1472 34.4966 43.8114 35.6102 43.8114 36.56C43.8114 37.618 43.0228 38.6228 41.8836 38.6228C40.9314 38.6228 39.9775 37.8515 39.9775 36.5461C39.9775 35.3676 40.7984 34.4966 41.8809 34.4966Z" fill="#343434"/>
<path d="M36.638 31.9196C37.1673 31.9196 37.5964 31.4905 37.5964 30.9613C37.5964 30.432 37.1673 30.0029 36.638 30.0029C36.1087 30.0029 35.6797 30.432 35.6797 30.9613C35.6797 31.4905 36.1087 31.9196 36.638 31.9196Z" fill="#343434"/>
<path d="M31.3693 33.1689C29.7584 33.1689 27.9886 34.3714 27.9886 36.5496C27.9886 38.5346 29.4961 39.9269 31.3658 39.9269C33.6701 39.9269 34.7952 38.0745 34.7952 36.5622C34.7952 34.7065 33.3464 33.1689 31.3693 33.1689ZM31.3746 34.5224C32.4886 34.5224 33.3195 35.4203 33.3195 36.5537C33.3195 37.7068 32.4374 38.5966 31.3779 38.5966C30.3944 38.5966 29.4383 37.7962 29.4383 36.5731C29.4383 35.3296 30.3476 34.5224 31.3746 34.5224Z" fill="#343434"/>
<path d="M33.6856 8.43291L37.3939 2.0091C37.6032 1.64898 37.4766 1.19152 37.1214 0.982262C36.7661 0.773004 36.3038 0.894663 36.0994 1.25479L32.3424 7.76133C29.476 6.45223 26.2495 5.72225 22.7797 5.72225C19.3099 5.72225 16.0834 6.45222 13.217 7.76133L9.46001 1.25479C9.25075 0.894663 8.79329 0.773004 8.43317 0.982262C8.07305 1.19152 7.95138 1.64898 8.16064 2.0091L11.8689 8.43291C5.47432 11.8979 1.1431 18.3704 0.427734 25.9475H45.1317C44.4163 18.3703 40.0851 11.8978 33.6856 8.43291ZM12.5162 19.6697C11.4796 19.6697 10.6426 18.8278 10.6426 17.7961C10.6426 16.7595 11.4845 15.9225 12.5162 15.9225C13.5528 15.9225 14.3898 16.7644 14.3898 17.7961C14.3947 18.8278 13.5528 19.6697 12.5162 19.6697ZM33.0384 19.6697C32.0018 19.6697 31.1648 18.8278 31.1648 17.7961C31.1648 16.7595 32.0067 15.9225 33.0384 15.9225C34.075 15.9225 34.912 16.7644 34.912 17.7961C34.9169 18.8278 34.075 19.6697 33.0384 19.6697Z" fill="#343434"/>
</g>
</svg>
