<svg width="64" height="64" viewBox="0 0 64 64" fill="none" xmlns="http://www.w3.org/2000/svg">
<g style="mix-blend-mode:luminosity">
<path d="M10.5569 46.3867C8.80322 46.3867 7 47.7757 7 50.2068C7 52.4294 8.58544 53.9992 10.5569 53.9992C12.1842 53.9992 12.9094 52.9196 12.9094 52.9196V53.3902C12.9094 53.6126 13.1222 53.8608 13.3855 53.8608H14.5618V46.5528H12.9094V47.4802C12.9094 47.4802 12.1781 46.3867 10.5569 46.3867ZM10.8512 47.8811C12.2948 47.8811 13.0521 49.1359 13.0521 50.2063C13.0521 51.3985 12.153 52.5307 10.8543 52.5307C9.76863 52.5307 8.68112 51.6616 8.68112 50.1905C8.68112 48.8626 9.61699 47.8811 10.8512 47.8811Z" fill="black"/>
<path d="M16.8584 53.8611C16.6046 53.8611 16.3823 53.6811 16.3823 53.3905V46.5531H18.0347V47.4574C18.4091 46.9012 19.1407 46.3848 20.2635 46.3848C22.0987 46.3848 23.0759 47.8307 23.0759 49.1828V53.8611H21.9277C21.6266 53.8611 21.4235 53.6119 21.4235 53.3628V49.5427C21.4235 48.7932 20.9589 47.883 19.8845 47.883C18.7251 47.883 18.0347 48.966 18.0347 49.9856V53.861L16.8584 53.8611Z" fill="black"/>
<path d="M27.893 46.3873C26.1394 46.3873 24.3362 47.7763 24.3362 50.2074C24.3362 52.43 25.9216 53.9998 27.893 53.9998C29.5203 53.9998 30.2456 52.9202 30.2456 52.9202V53.3908C30.2456 53.6132 30.4583 53.8614 30.7217 53.8614H31.898V42.8994H30.2456V47.4807C30.2456 47.4807 29.5142 46.3873 27.893 46.3873ZM28.1874 47.8817C29.631 47.8817 30.3882 49.1365 30.3882 50.2069C30.3882 51.3991 29.4891 52.5313 28.1904 52.5313C27.1048 52.5313 26.0173 51.6622 26.0173 50.1911C26.0173 48.8632 26.9531 47.8817 28.1874 47.8817Z" fill="black"/>
<path d="M34.1945 53.8607C33.9406 53.8607 33.7184 53.6808 33.7184 53.3902V46.5528H35.3708V47.7708C35.6552 47.0884 36.2689 46.4697 37.3592 46.4697C37.6632 46.4697 37.9474 46.5251 37.9474 46.5251V48.2137C37.9474 48.2137 37.5925 48.0753 37.1632 48.0753C36.0038 48.0753 35.3708 49.1583 35.3708 50.1779V53.8607H34.1945Z" fill="black"/>
<path d="M47.9737 53.8607C47.7198 53.8607 47.4976 53.6807 47.4976 53.3901V46.5527H49.15V53.8607L47.9737 53.8607Z" fill="black"/>
<path d="M53.995 46.3873C52.2413 46.3873 50.4381 47.7763 50.4381 50.2074C50.4381 52.43 52.0236 53.9998 53.995 53.9998C55.6223 53.9998 56.3475 52.9202 56.3475 52.9202V53.3908C56.3475 53.6132 56.5603 53.8614 56.8236 53.8614H57.9999V42.8994H56.3475V47.4807C56.3475 47.4807 55.6162 46.3873 53.995 46.3873ZM54.2893 47.8817C55.7329 47.8817 56.4902 49.1365 56.4902 50.2069C56.4902 51.3991 55.5911 52.5313 54.2924 52.5313C53.2067 52.5313 52.1192 51.6622 52.1192 50.1911C52.1192 48.8632 53.0551 47.8817 54.2893 47.8817Z" fill="black"/>
<path d="M48.3122 44.9772C48.9156 44.9772 49.4048 44.4937 49.4048 43.8973C49.4048 43.3009 48.9156 42.8174 48.3122 42.8174C47.7088 42.8174 47.2196 43.3009 47.2196 43.8973C47.2196 44.4937 47.7088 44.9772 48.3122 44.9772Z" fill="black"/>
<path d="M42.3053 46.3848C40.4688 46.3848 38.451 47.7397 38.451 50.1943C38.451 52.431 40.1697 54 42.3013 54C44.9283 54 46.2111 51.9126 46.2111 50.2085C46.2111 48.1173 44.5593 46.3848 42.3053 46.3848ZM42.3113 47.91C43.5813 47.91 44.5286 48.9217 44.5286 50.1989C44.5286 51.4983 43.523 52.5009 42.3151 52.5009C41.1938 52.5009 40.1038 51.599 40.1038 50.2207C40.1038 48.8195 41.1405 47.91 42.3113 47.91Z" fill="black"/>
<path d="M44.9462 18.5112L49.174 11.2725C49.4126 10.8667 49.2683 10.3512 48.8633 10.1154C48.4583 9.87956 47.9312 10.0167 47.6982 10.4225L43.4149 17.7544C40.147 16.2792 36.4685 15.4566 32.5126 15.4566C28.5567 15.4566 24.8782 16.2792 21.6103 17.7544L17.3271 10.4225C17.0885 10.0167 16.567 9.87956 16.1564 10.1154C15.7458 10.3512 15.6071 10.8667 15.8457 11.2725L20.0734 18.5112C12.7831 22.4157 7.84511 29.7093 7.02954 38.2476H57.9958C57.1802 29.7092 52.2422 22.4156 44.9462 18.5112ZM20.8114 31.1734C19.6296 31.1734 18.6753 30.2247 18.6753 29.0622C18.6753 27.8941 19.6351 26.9509 20.8114 26.9509C21.9931 26.9509 22.9474 27.8996 22.9474 29.0622C22.953 30.2247 21.9931 31.1734 20.8114 31.1734ZM44.2084 31.1734C43.0266 31.1734 42.0723 30.2247 42.0723 29.0622C42.0723 27.8941 43.0322 26.9509 44.2084 26.9509C45.3902 26.9509 46.3444 27.8996 46.3444 29.0622C46.35 30.2247 45.3902 31.1734 44.2084 31.1734Z" fill="black"/>
</g>
</svg>
