<svg width="64" height="64" viewBox="0 0 64 64" fill="none" xmlns="http://www.w3.org/2000/svg">
<path d="M41.5449 3C41.6633 3 41.7818 3 41.907 3C42.1976 6.58981 40.8273 9.27211 39.1621 11.2145C37.5281 13.1436 35.2906 15.0145 31.6718 14.7306C31.4304 11.1922 32.8028 8.70883 34.4658 6.77087C36.0082 4.96478 38.8357 3.35764 41.5449 3Z" fill="black"/>
<path d="M52.4997 40.3649C52.4997 40.4007 52.4997 40.432 52.4997 40.4655C51.4827 43.5457 50.032 46.1855 48.2617 48.6354C46.6456 50.8594 44.6651 53.8524 41.129 53.8524C38.0734 53.8524 36.0438 51.8877 32.9122 51.834C29.5996 51.7804 27.7778 53.4769 24.7491 53.9039C24.4026 53.9039 24.0561 53.9039 23.7164 53.9039C21.4923 53.582 19.6974 51.8206 18.3898 50.2336C14.534 45.544 11.5544 39.4865 11.0001 31.7346C11.0001 30.9747 11.0001 30.2169 11.0001 29.4569C11.2348 23.909 13.9305 19.3983 17.5136 17.2122C19.4046 16.0499 22.0042 15.0597 24.8988 15.5023C26.1394 15.6945 27.4068 16.1192 28.5177 16.5394C29.5705 16.944 30.8871 17.6615 32.1343 17.6235C32.9793 17.5989 33.8197 17.1586 34.6713 16.8479C37.1659 15.9471 39.6112 14.9144 42.8345 15.3995C46.7082 15.9851 49.4575 17.7062 51.1563 20.3617C47.8794 22.4472 45.2888 25.59 45.7314 30.9568C46.1248 35.8319 48.9591 38.684 52.4997 40.3649Z" fill="black"/>
</svg>
