<svg width="68" height="41" viewBox="0 0 68 41" fill="none" xmlns="http://www.w3.org/2000/svg">
<g clip-path="url(#clip0_1016_43634)">
<path d="M19.4495 14.7446C19.4495 15.5658 19.5383 16.2317 19.6936 16.7199C19.8712 17.2082 20.0931 17.7408 20.4038 18.3179C20.5148 18.4954 20.5592 18.673 20.5592 18.8284C20.5592 19.0503 20.426 19.2722 20.1375 19.4942L18.7393 20.4263C18.5395 20.5595 18.3398 20.6261 18.1622 20.6261C17.9403 20.6261 17.7183 20.5151 17.4964 20.3153C17.1857 19.9824 16.9194 19.6273 16.6974 19.2722C16.4755 18.8949 16.2535 18.4732 16.0094 17.9628C14.2783 20.0046 12.1033 21.0256 9.48436 21.0256C7.62006 21.0256 6.13306 20.4929 5.04556 19.4276C3.95805 18.3623 3.4032 16.9419 3.4032 15.1663C3.4032 13.2798 4.06902 11.7485 5.42285 10.5944C6.77669 9.44028 8.57441 8.86323 10.8604 8.86323C11.615 8.86323 12.3918 8.92982 13.213 9.04079C14.0341 9.15176 14.8775 9.32931 15.7653 9.52905V7.90889C15.7653 6.22215 15.4102 5.04586 14.7221 4.35785C14.0119 3.66983 12.8135 3.33692 11.1045 3.33692C10.3277 3.33692 9.52875 3.4257 8.70757 3.62544C7.88639 3.82519 7.08741 4.06932 6.31062 4.38004C5.95551 4.5354 5.68918 4.62418 5.53382 4.66856C5.37847 4.71295 5.2675 4.73515 5.17872 4.73515C4.868 4.73515 4.71265 4.51321 4.71265 4.04713V2.95962C4.71265 2.60452 4.75703 2.33819 4.868 2.18283C4.97897 2.02747 5.17872 1.87212 5.48944 1.71676C6.26623 1.31727 7.19838 0.984356 8.28588 0.718028C9.37339 0.429505 10.5275 0.296341 11.7481 0.296341C14.3892 0.296341 16.3201 0.89558 17.563 2.09406C18.7837 3.29253 19.4051 5.11244 19.4051 7.55379V14.7446H19.4495ZM10.4387 18.1181C11.1711 18.1181 11.9257 17.985 12.7247 17.7186C13.5237 17.4523 14.2339 16.9641 14.8331 16.2982C15.1882 15.8765 15.4546 15.4105 15.5877 14.8778C15.7209 14.3452 15.8097 13.7015 15.8097 12.9469V12.0148C15.166 11.8594 14.478 11.7263 13.7678 11.6375C13.0576 11.5487 12.3696 11.5043 11.6816 11.5043C10.1946 11.5043 9.10706 11.7928 8.37466 12.3921C7.64226 12.9913 7.28715 13.8347 7.28715 14.9444C7.28715 15.9875 7.55348 16.7643 8.10833 17.297C8.64099 17.8518 9.41778 18.1181 10.4387 18.1181ZM28.2605 20.5151C27.861 20.5151 27.5947 20.4485 27.4171 20.2932C27.2396 20.16 27.0842 19.8493 26.9511 19.4276L21.7355 2.27161C21.6023 1.82773 21.5357 1.53921 21.5357 1.38385C21.5357 1.02874 21.7133 0.828998 22.0684 0.828998H24.2434C24.6651 0.828998 24.9536 0.89558 25.109 1.05094C25.2865 1.1841 25.4197 1.49482 25.5528 1.9165L29.2814 16.6089L32.7437 1.9165C32.8547 1.47262 32.9878 1.1841 33.1654 1.05094C33.3429 0.917774 33.6536 0.828998 34.0531 0.828998H35.8287C36.2503 0.828998 36.5389 0.89558 36.7164 1.05094C36.894 1.1841 37.0493 1.49482 37.1381 1.9165L40.6448 16.7865L44.4843 1.9165C44.6175 1.47262 44.7729 1.1841 44.9282 1.05094C45.1058 0.917774 45.3943 0.828998 45.7938 0.828998H47.8578C48.2129 0.828998 48.4127 1.00655 48.4127 1.38385C48.4127 1.49482 48.3905 1.60579 48.3683 1.73895C48.3461 1.87212 48.3017 2.04967 48.2129 2.2938L42.8642 19.4498C42.731 19.8937 42.5756 20.1822 42.3981 20.3153C42.2205 20.4485 41.932 20.5373 41.5547 20.5373H39.646C39.2243 20.5373 38.9358 20.4707 38.7583 20.3153C38.5807 20.16 38.4254 19.8715 38.3366 19.4276L34.8965 5.11244L31.4786 19.4054C31.3677 19.8493 31.2345 20.1378 31.0569 20.2932C30.8794 20.4485 30.5687 20.5151 30.1692 20.5151H28.2605ZM56.7798 21.1143C55.6257 21.1143 54.4716 20.9812 53.3619 20.7148C52.2522 20.4485 51.3867 20.16 50.8096 19.8271C50.4545 19.6273 50.2104 19.4054 50.1216 19.2056C50.0328 19.0059 49.9884 18.784 49.9884 18.5842V17.4523C49.9884 16.9862 50.166 16.7643 50.4989 16.7643C50.6321 16.7643 50.7652 16.7865 50.8984 16.8309C51.0316 16.8753 51.2313 16.9641 51.4533 17.0528C52.2079 17.3857 53.029 17.6521 53.8946 17.8296C54.7824 18.0072 55.6479 18.0959 56.5357 18.0959C57.9339 18.0959 59.0214 17.8518 59.776 17.3635C60.5306 16.8753 60.9301 16.1651 60.9301 15.2551C60.9301 14.6337 60.7304 14.1232 60.3309 13.7015C59.9314 13.2798 59.1768 12.9025 58.0893 12.5474L54.8711 11.5487C53.251 11.0382 52.0525 10.2837 51.3201 9.28492C50.5877 8.30838 50.2104 7.22088 50.2104 6.06679C50.2104 5.13464 50.4101 4.31346 50.8096 3.60325C51.2091 2.89304 51.7418 2.27161 52.4076 1.78334C53.0734 1.27288 53.828 0.89558 54.7158 0.629251C55.6035 0.362923 56.5357 0.251953 57.5122 0.251953C58.0005 0.251953 58.511 0.274147 58.9992 0.340729C59.5097 0.407311 59.9758 0.496087 60.4418 0.584863C60.8857 0.695834 61.3074 0.806804 61.7069 0.939968C62.1064 1.07313 62.4171 1.2063 62.639 1.33946C62.9498 1.51701 63.1717 1.69456 63.3049 1.89431C63.438 2.07186 63.5046 2.316 63.5046 2.62671V3.66983C63.5046 4.13591 63.3271 4.38004 62.9941 4.38004C62.8166 4.38004 62.5281 4.29127 62.1508 4.11371C60.8857 3.53667 59.4653 3.24815 57.8895 3.24815C56.6245 3.24815 55.6257 3.44789 54.9377 3.86958C54.2497 4.29127 53.8946 4.93489 53.8946 5.84485C53.8946 6.46628 54.1165 6.99894 54.5604 7.42062C55.0043 7.84231 55.8255 8.264 57.0018 8.64129L60.1533 9.64003C61.7513 10.1505 62.9054 10.8607 63.5934 11.7707C64.2814 12.6806 64.6143 13.7237 64.6143 14.8778C64.6143 15.8322 64.4146 16.6977 64.0373 17.4523C63.6378 18.2069 63.1051 18.8727 62.4171 19.4054C61.7291 19.9602 60.9079 20.3597 59.9536 20.6483C58.9548 20.959 57.9117 21.1143 56.7798 21.1143Z" fill="#343434"/>
<path fill-rule="evenodd" clip-rule="evenodd" d="M60.9745 31.9004C53.6727 37.2935 43.0639 40.1566 33.9422 40.1566C21.1584 40.1566 9.63973 35.4292 0.939671 27.5726C0.251656 26.9511 0.873089 26.1078 1.69427 26.596C11.1045 32.0558 22.712 35.3627 34.719 35.3627C42.8198 35.3627 51.7196 33.6759 59.9092 30.2136C61.1299 29.6588 62.173 31.0126 60.9745 31.9004Z" fill="#343434"/>
<path fill-rule="evenodd" clip-rule="evenodd" d="M64.0152 28.4385C63.083 27.24 57.8453 27.8615 55.4705 28.15C54.7603 28.2388 54.6493 27.6173 55.2929 27.1513C59.4654 24.2216 66.3234 25.065 67.1224 26.0416C67.9213 27.0403 66.9004 33.8982 62.9943 37.183C62.395 37.6934 61.818 37.4271 62.0843 36.7613C62.9721 34.5641 64.9473 29.6148 64.0152 28.4385Z" fill="#343434"/>
</g>
<defs>
<clipPath id="clip0_1016_43634">
<rect width="67.4698" height="40.3931" fill="white" transform="translate(0.273926 0.0078125)"/>
</clipPath>
</defs>
</svg>
