<svg width="84" height="50" viewBox="0 0 84 50" fill="none" xmlns="http://www.w3.org/2000/svg">
<g id="Amazon_Web_Services_Logo 1" clip-path="url(#clip0_2146_15140)">
<g id="Group">
<path id="Vector" d="M23.9798 18.2423C23.9798 19.2588 24.0897 20.083 24.282 20.6874C24.5018 21.2917 24.7765 21.9511 25.1611 22.6654C25.2985 22.8852 25.3535 23.1049 25.3535 23.2972C25.3535 23.572 25.1886 23.8467 24.8315 24.1214L23.1007 25.2753C22.8534 25.4401 22.6062 25.5225 22.3864 25.5225C22.1117 25.5225 21.837 25.3852 21.5622 25.1379C21.1776 24.7258 20.848 24.2863 20.5732 23.8467C20.2985 23.3797 20.0238 22.8577 19.7216 22.2258C17.5787 24.7533 14.8864 26.017 11.6447 26.017C9.33697 26.017 7.49631 25.3577 6.15015 24.039C4.804 22.7203 4.11719 20.9621 4.11719 18.7643C4.11719 16.4291 4.94136 14.5335 6.61719 13.1049C8.29301 11.6764 10.5183 10.9621 13.348 10.9621C14.282 10.9621 15.2436 11.0445 16.26 11.1819C17.2765 11.3192 18.3205 11.539 19.4194 11.7863V9.78076C19.4194 7.69284 18.9798 6.2368 18.1282 5.38515C17.2491 4.5335 15.7655 4.12142 13.6502 4.12142C12.6886 4.12142 11.6996 4.23131 10.6831 4.47856C9.66664 4.72581 8.67763 5.02801 7.71609 5.41262C7.27653 5.60493 6.94686 5.71482 6.75455 5.76977C6.56224 5.82471 6.42488 5.85218 6.31499 5.85218C5.93037 5.85218 5.73807 5.57746 5.73807 5.00054V3.65438C5.73807 3.21482 5.79301 2.88515 5.93037 2.69284C6.06774 2.50054 6.31499 2.30823 6.6996 2.11592C7.66114 1.62142 8.81499 1.20933 10.1611 0.879657C11.5073 0.522515 12.9359 0.357679 14.4469 0.357679C17.7161 0.357679 20.1062 1.09944 21.6447 2.58295C23.1556 4.06647 23.9249 6.31922 23.9249 9.3412V18.2423H23.9798ZM12.826 22.4181C13.7326 22.4181 14.6666 22.2533 15.6556 21.9236C16.6447 21.5939 17.5238 20.9895 18.2655 20.1654C18.7051 19.6434 19.0348 19.0665 19.1996 18.4071C19.3644 17.7478 19.4743 16.9511 19.4743 16.017V14.8632C18.6776 14.6709 17.826 14.506 16.9469 14.3961C16.0677 14.2863 15.2161 14.2313 14.3644 14.2313C12.5238 14.2313 11.1776 14.5884 10.271 15.3302C9.36444 16.072 8.92488 17.1159 8.92488 18.4895C8.92488 19.7808 9.25455 20.7423 9.94136 21.4016C10.6007 22.0885 11.5622 22.4181 12.826 22.4181ZM34.8864 25.3852C34.3919 25.3852 34.0622 25.3027 33.8425 25.1104C33.6227 24.9456 33.4304 24.561 33.2655 24.039L26.8095 2.80273C26.6447 2.25328 26.5622 1.89614 26.5622 1.70383C26.5622 1.26427 26.782 1.01702 27.2216 1.01702H29.9139C30.4359 1.01702 30.793 1.09944 30.9853 1.29175C31.2051 1.45658 31.3699 1.8412 31.5348 2.36317L36.1502 20.55L40.4359 2.36317C40.5732 1.81372 40.7381 1.45658 40.9578 1.29175C41.1776 1.12691 41.5622 1.01702 42.0567 1.01702H44.2545C44.7765 1.01702 45.1337 1.09944 45.3534 1.29175C45.5732 1.45658 45.7655 1.8412 45.8754 2.36317L50.2161 20.7698L54.9688 2.36317C55.1337 1.81372 55.326 1.45658 55.5183 1.29175C55.7381 1.12691 56.0952 1.01702 56.5897 1.01702H59.1447C59.5842 1.01702 59.8315 1.2368 59.8315 1.70383C59.8315 1.8412 59.804 1.97856 59.7765 2.14339C59.749 2.30823 59.6941 2.52801 59.5842 2.83021L52.9633 24.0665C52.7985 24.6159 52.6062 24.9731 52.3864 25.1379C52.1666 25.3027 51.8095 25.4126 51.3425 25.4126H48.9798C48.4578 25.4126 48.1007 25.3302 47.8809 25.1379C47.6611 24.9456 47.4688 24.5885 47.3589 24.039L43.1007 6.31922L38.8699 24.0115C38.7326 24.561 38.5677 24.9181 38.348 25.1104C38.1282 25.3027 37.7436 25.3852 37.2491 25.3852H34.8864ZM70.1886 26.1269C68.76 26.1269 67.3315 25.9621 65.9578 25.6324C64.5842 25.3027 63.5128 24.9456 62.7985 24.5335C62.3589 24.2863 62.0567 24.0115 61.9469 23.7643C61.837 23.517 61.782 23.2423 61.782 22.995V21.5939C61.782 21.017 62.0018 20.7423 62.4139 20.7423C62.5787 20.7423 62.7436 20.7698 62.9084 20.8247C63.0732 20.8797 63.3205 20.9895 63.5952 21.0994C64.5293 21.5115 65.5458 21.8412 66.6172 22.061C67.7161 22.2808 68.7875 22.3906 69.8864 22.3906C71.6172 22.3906 72.9633 22.0884 73.8974 21.4841C74.8315 20.8797 75.326 20.0005 75.326 18.8742C75.326 18.1049 75.0787 17.4731 74.5842 16.9511C74.0897 16.4291 73.1556 15.9621 71.8095 15.5225L67.826 14.2863C65.8205 13.6544 64.337 12.7203 63.4304 11.4841C62.5238 10.2753 62.0567 8.92911 62.0567 7.50054C62.0567 6.34669 62.304 5.33021 62.7985 4.45109C63.293 3.57197 63.9523 2.80273 64.7765 2.19834C65.6007 1.56647 66.5348 1.09944 67.6337 0.769767C68.7326 0.440097 69.8864 0.302734 71.0952 0.302734C71.6996 0.302734 72.3315 0.330207 72.9359 0.412624C73.5677 0.495042 74.1447 0.604932 74.7216 0.714822C75.271 0.852185 75.793 0.989548 76.2875 1.15438C76.782 1.31922 77.1666 1.48405 77.4414 1.64889C77.826 1.86867 78.1007 2.08845 78.2655 2.3357C78.4304 2.55548 78.5128 2.85768 78.5128 3.24229V4.5335C78.5128 5.11043 78.293 5.41262 77.8809 5.41262C77.6611 5.41262 77.304 5.30273 76.837 5.08295C75.271 4.36867 73.5128 4.01153 71.5622 4.01153C69.9963 4.01153 68.76 4.25878 67.9084 4.78076C67.0567 5.30273 66.6172 6.09944 66.6172 7.22581C66.6172 7.99504 66.8919 8.65438 67.4414 9.17636C67.9908 9.69834 69.0073 10.2203 70.4633 10.6874L74.3644 11.9236C76.3425 12.5555 77.771 13.4346 78.6227 14.561C79.4743 15.6874 79.8864 16.9786 79.8864 18.4071C79.8864 19.5885 79.6392 20.6599 79.1721 21.5939C78.6776 22.528 78.0183 23.3522 77.1666 24.0115C76.315 24.6983 75.2985 25.1928 74.1172 25.55C72.8809 25.9346 71.5897 26.1269 70.1886 26.1269Z" fill="#252F3E"/>
<g id="Group_2">
<path id="Vector_2" fill-rule="evenodd" clip-rule="evenodd" d="M75.3803 39.4789C66.3418 46.1547 53.21 49.6986 41.9188 49.6986C26.0946 49.6986 11.8363 43.847 1.06711 34.1217C0.215462 33.3525 0.984693 32.3085 2.00118 32.9129C13.6495 39.6712 28.0177 43.7646 42.8803 43.7646C52.9078 43.7646 63.9243 41.6767 74.0616 37.391C75.5726 36.7041 76.8638 38.38 75.3803 39.4789Z" fill="#FF9900"/>
<path id="Vector_3" fill-rule="evenodd" clip-rule="evenodd" d="M79.1446 35.1932C77.9908 33.7097 71.5073 34.4789 68.5677 34.8361C67.6886 34.9459 67.5512 34.1767 68.3479 33.5998C73.5128 29.9734 82.0018 31.0174 82.9908 32.2262C83.9798 33.4624 82.7161 41.9514 77.8809 46.0174C77.1391 46.6492 76.4248 46.3196 76.7545 45.4954C77.8534 42.7756 80.2985 36.6492 79.1446 35.1932Z" fill="#FF9900"/>
</g>
</g>
</g>
<defs>
<clipPath id="clip0_2146_15140">
<rect width="83.5165" height="50" fill="white" transform="translate(0.242188)"/>
</clipPath>
</defs>
</svg>
