<svg width="84" height="50" viewBox="0 0 84 50" fill="none" xmlns="http://www.w3.org/2000/svg">
<g clip-path="url(#clip0_2172_152513)">
<path d="M23.9793 18.2418C23.9793 19.2583 24.0892 20.0825 24.2815 20.6869C24.5013 21.2913 24.776 21.9506 25.1607 22.6649C25.298 22.8847 25.353 23.1044 25.353 23.2968C25.353 23.5715 25.1881 23.8462 24.831 24.1209L23.1002 25.2748C22.853 25.4396 22.6057 25.522 22.3859 25.522C22.1112 25.522 21.8365 25.3847 21.5618 25.1374C21.1771 24.7253 20.8475 24.2858 20.5727 23.8462C20.298 23.3792 20.0233 22.8572 19.7211 22.2253C17.5782 24.7528 14.8859 26.0165 11.6442 26.0165C9.33648 26.0165 7.49582 25.3572 6.14967 24.0385C4.80351 22.7198 4.1167 20.9616 4.1167 18.7638C4.1167 16.4286 4.94088 14.533 6.6167 13.1044C8.29252 11.6759 10.5178 10.9616 13.3475 10.9616C14.2815 10.9616 15.2431 11.044 16.2596 11.1814C17.276 11.3187 18.32 11.5385 19.4189 11.7858V9.78027C19.4189 7.69236 18.9793 6.23631 18.1277 5.38466C17.2486 4.53302 15.765 4.12093 13.6497 4.12093C12.6881 4.12093 11.6991 4.23082 10.6826 4.47807C9.66615 4.72532 8.67714 5.02752 7.7156 5.41214C7.27604 5.60444 6.94637 5.71433 6.75406 5.76928C6.56175 5.82422 6.42439 5.8517 6.3145 5.8517C5.92989 5.8517 5.73758 5.57697 5.73758 5.00005V3.65389C5.73758 3.21433 5.79252 2.88466 5.92989 2.69236C6.06725 2.50005 6.3145 2.30774 6.69912 2.11543C7.66065 1.62093 8.8145 1.20884 10.1607 0.879169C11.5068 0.522026 12.9354 0.357191 14.4464 0.357191C17.7156 0.357191 20.1057 1.09895 21.6442 2.58247C23.1552 4.06598 23.9244 6.31873 23.9244 9.34071V18.2418H23.9793ZM12.8255 22.4176C13.7321 22.4176 14.6661 22.2528 15.6552 21.9231C16.6442 21.5935 17.5233 20.9891 18.2651 20.1649C18.7046 19.6429 19.0343 19.066 19.1991 18.4066C19.364 17.7473 19.4738 16.9506 19.4738 16.0165V14.8627C18.6771 14.6704 17.8255 14.5055 16.9464 14.3957C16.0672 14.2858 15.2156 14.2308 14.364 14.2308C12.5233 14.2308 11.1771 14.588 10.2705 15.3297C9.36395 16.0715 8.92439 17.1154 8.92439 18.4891C8.92439 19.7803 9.25406 20.7418 9.94087 21.4011C10.6002 22.088 11.5618 22.4176 12.8255 22.4176ZM34.8859 25.3847C34.3914 25.3847 34.0618 25.3022 33.842 25.1099C33.6222 24.9451 33.4299 24.5605 33.265 24.0385L26.809 2.80225C26.6442 2.2528 26.5618 1.89565 26.5618 1.70335C26.5618 1.26378 26.7815 1.01653 27.2211 1.01653H29.9134C30.4354 1.01653 30.7925 1.09895 30.9848 1.29126C31.2046 1.45609 31.3694 1.84071 31.5343 2.36269L36.1497 20.5495L40.4354 2.36269C40.5727 1.81324 40.7376 1.45609 40.9574 1.29126C41.1771 1.12642 41.5617 1.01653 42.0563 1.01653H44.2541C44.776 1.01653 45.1332 1.09895 45.353 1.29126C45.5727 1.45609 45.765 1.84071 45.8749 2.36269L50.2156 20.7693L54.9683 2.36269C55.1332 1.81324 55.3255 1.45609 55.5178 1.29126C55.7376 1.12642 56.0947 1.01653 56.5892 1.01653H59.1442C59.5837 1.01653 59.831 1.23631 59.831 1.70335C59.831 1.84071 59.8035 1.97807 59.776 2.14291C59.7486 2.30774 59.6936 2.52752 59.5837 2.82972L52.9628 24.066C52.798 24.6154 52.6057 24.9726 52.3859 25.1374C52.1661 25.3022 51.809 25.4121 51.342 25.4121H48.9793C48.4574 25.4121 48.1002 25.3297 47.8804 25.1374C47.6606 24.9451 47.4683 24.588 47.3585 24.0385L43.1002 6.31873L38.8694 24.011C38.7321 24.5605 38.5672 24.9176 38.3475 25.1099C38.1277 25.3022 37.7431 25.3847 37.2486 25.3847H34.8859ZM70.1881 26.1264C68.7596 26.1264 67.331 25.9616 65.9574 25.6319C64.5837 25.3022 63.5123 24.9451 62.798 24.533C62.3585 24.2858 62.0563 24.011 61.9464 23.7638C61.8365 23.5165 61.7815 23.2418 61.7815 22.9946V21.5935C61.7815 21.0165 62.0013 20.7418 62.4134 20.7418C62.5782 20.7418 62.7431 20.7693 62.9079 20.8242C63.0727 20.8792 63.32 20.9891 63.5947 21.099C64.5288 21.511 65.5453 21.8407 66.6167 22.0605C67.7156 22.2803 68.787 22.3902 69.8859 22.3902C71.6167 22.3902 72.9628 22.088 73.8969 21.4836C74.831 20.8792 75.3255 20 75.3255 18.8737C75.3255 18.1044 75.0782 17.4726 74.5837 16.9506C74.0892 16.4286 73.1552 15.9616 71.809 15.522L67.8255 14.2858C65.82 13.6539 64.3365 12.7198 63.4299 11.4836C62.5233 10.2748 62.0563 8.92862 62.0563 7.50005C62.0563 6.3462 62.3035 5.32972 62.798 4.4506C63.2925 3.57148 63.9519 2.80225 64.776 2.19785C65.6002 1.56598 66.5343 1.09895 67.6332 0.769279C68.7321 0.439609 69.8859 0.302246 71.0947 0.302246C71.6991 0.302246 72.331 0.329719 72.9354 0.412136C73.5672 0.494554 74.1442 0.604444 74.7211 0.714334C75.2705 0.851697 75.7925 0.989059 76.287 1.15389C76.7815 1.31873 77.1661 1.48356 77.4409 1.6484C77.8255 1.86818 78.1002 2.08796 78.265 2.33521C78.4299 2.55499 78.5123 2.85719 78.5123 3.24181V4.53302C78.5123 5.10994 78.2925 5.41214 77.8804 5.41214C77.6607 5.41214 77.3035 5.30225 76.8365 5.08247C75.2705 4.36818 73.5123 4.01104 71.5618 4.01104C69.9958 4.01104 68.7596 4.25829 67.9079 4.78027C67.0563 5.30225 66.6167 6.09895 66.6167 7.22532C66.6167 7.99455 66.8914 8.6539 67.4409 9.17587C67.9903 9.69785 69.0068 10.2198 70.4628 10.6869L74.3639 11.9231C76.342 12.555 77.7705 13.4341 78.6222 14.5605C79.4738 15.6869 79.8859 16.9781 79.8859 18.4066C79.8859 19.588 79.6387 20.6594 79.1716 21.5935C78.6771 22.5275 78.0178 23.3517 77.1661 24.011C76.3145 24.6979 75.298 25.1924 74.1167 25.5495C72.8804 25.9341 71.5892 26.1264 70.1881 26.1264Z" fill="#252F3E"/>
<path fill-rule="evenodd" clip-rule="evenodd" d="M75.3798 39.4779C66.3413 46.1537 53.2095 49.6977 41.9183 49.6977C26.0941 49.6977 11.8359 43.846 1.06662 34.1207C0.214974 33.3515 0.984205 32.3076 2.00069 32.912C13.649 39.6702 28.0172 43.7636 42.8798 43.7636C52.9073 43.7636 63.9238 41.6757 74.0611 37.39C75.5721 36.7032 76.8633 38.379 75.3798 39.4779Z" fill="#FF9900"/>
<path fill-rule="evenodd" clip-rule="evenodd" d="M79.1441 35.1922C77.9903 33.7087 71.5068 34.4779 68.5672 34.8351C67.6881 34.945 67.5507 34.1757 68.3474 33.5988C73.5123 29.9724 82.0013 31.0164 82.9903 32.2252C83.9793 33.4614 82.7156 41.9505 77.8804 46.0164C77.1386 46.6483 76.4244 46.3186 76.754 45.4944C77.8529 42.7746 80.298 36.6483 79.1441 35.1922Z" fill="#FF9900"/>
</g>
<defs>
<clipPath id="clip0_2172_152513">
<rect width="83.5165" height="50" fill="white" transform="translate(0.241699)"/>
</clipPath>
</defs>
</svg>
