<svg width="137" height="40" viewBox="0 0 137 40" fill="none" xmlns="http://www.w3.org/2000/svg">
<g clip-path="url(#clip0_1016_43640)">
<path d="M23.8745 37.6421C30.3512 36.498 35.7006 35.5512 35.7621 35.5382L35.8738 35.5145L29.7591 28.2413C26.3961 24.241 23.6445 20.9526 23.6445 20.9336C23.6445 20.8977 29.9584 3.5106 29.9939 3.44874C30.0057 3.42806 34.3025 10.8464 40.4096 21.4312C46.1272 31.341 50.841 39.5116 50.8848 39.5881L50.9645 39.7274L31.5316 39.7248L12.0987 39.7224L23.8745 37.6421ZM98.3975 35.8831C95.4394 35.6935 93.719 34.0091 93.2631 30.8563C93.1418 30.0176 93.1413 29.9958 93.1289 24.551L93.1169 19.2814H94.4261H95.7352L95.7455 24.3785C95.7548 28.9724 95.7607 29.511 95.8046 29.8342C95.9828 31.1457 96.3377 32.0277 96.9418 32.6608C97.4253 33.1674 97.9914 33.4641 98.7749 33.6215C99.1446 33.6958 100.196 33.6959 100.533 33.6218C101.328 33.447 101.964 33.1013 102.526 32.5399C103.166 31.9 103.64 30.9921 103.869 29.9655L103.946 29.6194L103.954 24.4792L103.963 19.3389H105.3H106.636V27.4196V35.5002H105.313H103.991V34.2181C103.991 33.347 103.981 32.9392 103.961 32.946C103.944 32.9514 103.877 33.0554 103.81 33.1769C103.354 34.0083 102.595 34.7685 101.762 35.2266C100.765 35.7756 99.7643 35.9708 98.3975 35.8831ZM128.422 35.8701C127.378 35.7916 126.278 35.4326 125.38 34.8767C123.486 33.7051 122.365 31.7738 122.037 29.1161C121.923 28.1965 121.91 26.9611 122.004 26.1797C122.216 24.4335 122.902 22.7194 123.879 21.4956C124.13 21.1819 124.698 20.6137 125.012 20.3632C125.859 19.6869 126.85 19.2139 127.902 18.9837C128.515 18.8496 129.594 18.7867 130.245 18.847C131.881 18.9987 133.381 19.7689 134.4 20.9813C135.435 22.213 136.004 23.9342 136.077 26.0536C136.089 26.3857 136.091 26.968 136.083 27.3476L136.069 28.0378L130.339 28.045L124.609 28.0523V28.308C124.609 29.0863 124.798 29.9729 125.126 30.7272C125.408 31.3777 125.893 32.0879 126.291 32.4317C127.106 33.1365 128.104 33.5583 129.196 33.6598C129.601 33.6975 130.632 33.6578 131.094 33.587C132.41 33.3847 133.661 32.8684 134.672 32.1107C134.791 32.0216 134.905 31.9383 134.925 31.9257C134.954 31.9072 134.961 32.1401 134.961 33.1191L134.96 34.3355L134.689 34.5029C133.546 35.21 132.236 35.664 130.849 35.8339C130.436 35.8847 128.917 35.9073 128.422 35.8701ZM133.409 25.6109C133.409 24.307 132.859 22.8586 132.082 22.1128C131.527 21.5805 130.856 21.2553 130.059 21.1318C129.681 21.0733 128.886 21.0958 128.488 21.1762C127.648 21.3461 126.952 21.7158 126.345 22.3152C125.707 22.946 125.228 23.7123 124.927 24.5853C124.819 24.8992 124.692 25.4146 124.653 25.7013L124.634 25.8379H129.022H133.409V25.6109ZM55.6855 35.4642C55.6922 35.4444 57.6379 30.3329 60.0092 24.1054L64.3208 12.7825L65.7061 12.7825L67.0914 12.7824L67.2064 13.0771C67.5576 13.9779 75.8378 35.4756 75.8378 35.4867C75.8378 35.4941 75.1746 35.5 74.3641 35.4999L72.8903 35.4996L71.6969 32.3223L70.5035 29.1449L65.6983 29.1449L60.8931 29.1448L60.8513 29.2527C60.8284 29.312 60.3185 30.7417 59.7183 32.4298L58.627 35.499L57.1501 35.4995C55.9811 35.5 55.6758 35.4926 55.6855 35.4642ZM69.6264 26.7202C69.6264 26.7151 68.8233 24.5379 67.8417 21.8819C66.0053 16.9129 65.9026 16.6139 65.7575 15.8162C65.6895 15.4421 65.6551 15.4317 65.6147 15.773C65.5858 16.017 65.4606 16.563 65.3641 16.8658C65.3163 17.016 64.4893 19.2857 63.5265 21.9096C62.5636 24.5334 61.7758 26.6912 61.7758 26.7047C61.7758 26.7183 63.5422 26.7293 65.7011 26.7293C67.86 26.7293 69.6264 26.7252 69.6264 26.7202ZM76.7293 35.0863V34.6725L81.5167 28.0912L86.3042 21.51L81.9697 21.4956L77.6351 21.4812L77.6276 20.3813L77.6201 19.2814H83.8894H90.1587V19.6529V20.0244L85.3707 26.6415C82.7373 30.2809 80.5827 33.2648 80.5827 33.2723C80.5827 33.2797 82.7114 33.2859 85.3132 33.2859H90.0436V34.393V35.5001H83.3865H76.7293V35.0863ZM111.86 35.4809C111.85 35.4704 111.841 31.8212 111.841 27.3716V19.2814H113.15H114.458V20.9492C114.458 21.8666 114.469 22.6171 114.483 22.6171C114.496 22.6171 114.56 22.467 114.624 22.2834C114.919 21.4425 115.429 20.6566 116.086 20.0321C116.678 19.4695 117.355 19.133 118.153 19.0043C118.378 18.9681 118.567 18.9612 119.016 18.9729C119.579 18.9875 119.874 19.0287 120.217 19.1407L120.324 19.176V20.5341V21.8922L120.015 21.7375C119.469 21.4642 118.93 21.356 118.283 21.3897C117.861 21.4116 117.584 21.4657 117.247 21.5922C116.554 21.8524 115.992 22.3118 115.599 22.9388C115.03 23.8465 114.624 25.0132 114.504 26.0855C114.483 26.278 114.47 27.8453 114.465 30.935L114.458 35.5001H113.169C112.46 35.5001 111.871 35.4915 111.86 35.4809ZM0.552856 35.4241C0.552856 35.4139 3.43406 30.4124 6.95553 24.3096L13.3582 13.2137L20.8198 6.95192C24.9236 3.50796 28.2924 0.685952 28.3059 0.680806C28.3194 0.67566 28.2654 0.811534 28.1859 0.982751C28.1064 1.15397 24.4604 8.97424 20.0837 18.3611L12.126 35.4282L6.33944 35.4355C3.15682 35.4395 0.552856 35.4344 0.552856 35.4241Z" fill="#343434"/>
</g>
<defs>
<clipPath id="clip0_1016_43640">
<rect width="135.535" height="39.0467" fill="white" transform="translate(0.552856 0.680664)"/>
</clipPath>
</defs>
</svg>
