<svg width="64" height="64" viewBox="0 0 64 64" fill="none" xmlns="http://www.w3.org/2000/svg">
<path d="M9.26143 43.8776C8.73276 44.7113 8.21425 45.5513 7.70601 46.3976C7.26165 47.1388 7.48388 48.1023 8.22452 48.5469L18.3716 54.7724C19.1123 55.2171 20.0751 54.9948 20.5196 54.2536C20.8899 53.5866 21.4083 52.6973 22.0009 51.7337C26.0003 45.1376 30.0741 45.8787 37.3325 49.3621L47.4056 54.1055C48.2203 54.4762 49.109 54.1055 49.4793 53.3643L54.2938 42.4694C54.6641 41.7285 54.2938 40.765 53.5531 40.3942C51.4052 39.4307 47.1833 37.4298 43.4801 35.5769C29.7777 28.9809 18.1494 29.4256 9.26143 43.8776Z" fill="black"/>
<path d="M54.7386 19.123C55.2674 18.2894 55.7859 17.4494 56.2941 16.6031C56.7385 15.8619 56.5162 14.8984 55.7757 14.4538L45.6285 8.22814C44.8877 7.78349 43.9249 8.00582 43.4806 8.74694C43.1103 9.41401 42.5917 10.3033 41.9993 11.2669C37.9997 17.863 33.9261 17.1219 26.6675 13.6385L16.5945 8.89522C15.7797 8.52461 14.891 8.89522 14.5207 9.63634L9.70631 20.531C9.33599 21.2722 9.70631 22.2356 10.447 22.6063C12.5949 23.5699 16.8166 25.5708 20.52 27.4237C34.2222 33.9458 45.8506 33.5751 54.7386 19.123Z" fill="black"/>
</svg>
