<svg width="153" height="40" viewBox="0 0 153 40" fill="none" xmlns="http://www.w3.org/2000/svg">
<g style="mix-blend-mode:luminosity">
<path d="M71.9026 11.9021C71.0949 11.8769 70.4387 12.5079 70.4134 13.2903V20.5595C66.9555 17.7831 61.8822 18.3384 59.1058 21.7963C57.97 23.235 57.339 25.0018 57.339 26.8443C57.2632 31.2866 60.7969 34.9465 65.2392 35.0222C69.6815 35.0979 73.3413 31.5643 73.417 27.122V13.3913C73.417 12.9874 73.2656 12.6088 72.9879 12.3312C72.685 12.0535 72.3064 11.9021 71.9026 11.9021ZM70.0096 28.7878C69.5048 29.9994 68.5456 30.9585 67.3341 31.4885C66.0721 32.0186 64.6586 32.0186 63.3966 31.4885C62.1851 30.9837 61.2512 29.9994 60.7464 28.8131C60.2163 27.5763 60.2163 26.1628 60.7464 24.9008C61.2512 23.6893 62.2103 22.7302 63.3966 22.2254C64.6586 21.6953 66.0721 21.6953 67.3341 22.2254C68.5456 22.7554 69.5048 23.7145 70.0096 24.9261C70.5396 26.1376 70.5396 27.5511 70.0096 28.7878ZM88.6874 21.1653C85.5576 18.0355 80.459 18.0355 77.3292 21.1653C75.8148 22.6797 74.9819 24.7242 74.9819 26.8443C74.9062 31.2866 78.4398 34.9465 82.8821 35.0222C87.3244 35.0979 90.9842 31.5643 91.0599 27.122V26.8443C91.0599 25.7842 90.858 24.7494 90.4542 23.765C90.0503 22.7806 89.4446 21.8972 88.6874 21.1653ZM87.6525 28.7626C87.4001 29.3684 87.0215 29.8984 86.5672 30.3527C86.1129 30.8071 85.5576 31.1857 84.977 31.4381C83.715 31.9681 82.3016 31.9681 81.0396 31.4381C79.828 30.9333 78.8689 29.9489 78.3641 28.7626C77.8341 27.5258 77.8341 26.1124 78.3641 24.8503C78.8689 23.6388 79.828 22.7049 81.0396 22.1749C82.3016 21.6448 83.715 21.6448 84.977 22.1749C85.5828 22.4273 86.1129 22.8059 86.5672 23.2602C87.0215 23.7145 87.4001 24.2698 87.6525 24.8503C88.1826 26.1376 88.1826 27.5511 87.6525 28.7626ZM121.929 20.2819C121.929 20.0799 121.878 19.878 121.803 19.7013C121.727 19.5247 121.601 19.3732 121.474 19.2218C121.348 19.0956 121.172 18.9694 120.995 18.8937C120.818 18.8179 120.616 18.7675 120.414 18.7675C120.137 18.7675 119.859 18.8432 119.607 18.9946L111.025 24.5727V13.4165C111.025 13.0127 110.874 12.6341 110.596 12.3564C110.318 12.0788 109.94 11.9021 109.536 11.9021C108.703 11.9021 108.047 12.5583 108.021 13.3913V33.3563C108.021 33.7602 108.173 34.1388 108.45 34.4164C108.728 34.7193 109.107 34.8707 109.511 34.8707C109.914 34.8707 110.293 34.7193 110.571 34.4164C110.848 34.1388 111.025 33.7602 111 33.3563V28.1821L112.741 27.0463L119.38 34.4921C119.657 34.7445 120.011 34.896 120.389 34.8707C120.591 34.8707 120.793 34.8455 120.97 34.7445C121.146 34.6688 121.298 34.5679 121.449 34.4164C121.575 34.265 121.702 34.1135 121.777 33.9368C121.853 33.7602 121.904 33.5582 121.904 33.3563C121.904 32.9777 121.752 32.5991 121.5 32.3215L115.341 25.3804L121.348 21.4682C121.752 21.2158 121.954 20.7614 121.929 20.2819ZM97.0167 23.2602C97.471 22.8059 98.0263 22.4273 98.632 22.1749C99.263 21.9225 99.9193 21.771 100.601 21.771C101.207 21.771 101.787 21.872 102.342 22.0739C102.898 22.3011 103.428 22.604 103.882 23.0078C104.16 23.235 104.513 23.3359 104.866 23.3359C105.27 23.3612 105.674 23.2097 105.952 22.9069C106.229 22.6292 106.381 22.2254 106.381 21.8215C106.381 21.3924 106.204 20.9633 105.851 20.6857C104.412 19.3985 102.544 18.6917 100.601 18.7422C96.1585 18.7422 92.5491 22.3516 92.5491 26.7939C92.5491 31.2361 96.1332 34.8203 100.55 34.8455C102.494 34.8455 104.362 34.164 105.826 32.902C106.128 32.6244 106.305 32.2205 106.305 31.7914C106.33 30.9837 105.699 30.3275 104.917 30.3022H104.816C104.463 30.3022 104.134 30.4032 103.857 30.6051C103.402 31.009 102.898 31.3119 102.342 31.539C101.787 31.7409 101.181 31.8419 100.601 31.8419C99.9193 31.8419 99.263 31.7157 98.632 31.4381C98.0263 31.1857 97.4962 30.8071 97.0167 30.3527C95.0479 28.384 95.0479 25.2037 96.9914 23.235C97.0166 23.2855 97.0167 23.2855 97.0167 23.2602ZM151.738 19.8023C151.435 19.5247 151.107 19.3227 150.728 19.1965C150.299 19.0451 149.845 18.9441 149.39 18.8937C148.936 18.8432 148.482 18.8179 148.027 18.8179C147.119 18.8179 146.185 18.9694 145.327 19.2975C144.468 19.6004 143.686 20.0547 142.979 20.61V20.3071C142.954 19.4742 142.247 18.8432 141.414 18.8684C141.037 18.881 140.678 19.0366 140.411 19.3038C140.144 19.5709 139.988 19.9295 139.976 20.3071V33.4068C140.001 34.2397 140.708 34.8707 141.54 34.8455C141.918 34.8329 142.277 34.6773 142.544 34.4101C142.811 34.143 142.967 33.7844 142.979 33.4068V26.8696C142.979 26.1881 143.105 25.5318 143.383 24.9008C143.635 24.2951 143.989 23.765 144.468 23.3107C144.923 22.8564 145.478 22.4778 146.058 22.2254C146.689 21.973 147.346 21.8215 148.027 21.8215C148.709 21.8215 149.365 21.9477 149.996 22.1749C150.198 22.2758 150.4 22.3263 150.627 22.3263C150.829 22.3263 151.031 22.3011 151.207 22.2001C151.384 22.1244 151.536 22.0234 151.687 21.872C151.813 21.7458 151.939 21.5691 152.015 21.3924C152.091 21.2158 152.141 21.0138 152.141 20.8119C152.167 20.4333 152.015 20.0799 151.738 19.8023ZM137.805 23.765C136.518 20.7867 133.59 18.8432 130.359 18.8179C125.917 18.8179 122.333 22.402 122.307 26.8443C122.307 31.2866 125.917 34.896 130.359 34.896C132.277 34.896 134.145 34.2145 135.609 32.9525L135.659 32.902C135.786 32.801 135.912 32.6748 135.988 32.5234C136.467 31.8167 136.291 30.8828 135.609 30.4032C135.028 30.0246 134.271 30.1003 133.766 30.5799C133.716 30.6304 133.565 30.7566 133.565 30.7818L133.539 30.8071C133.11 31.1604 132.631 31.4633 132.101 31.64C131.545 31.8419 130.965 31.9429 130.359 31.9176C129.804 31.9176 129.274 31.8419 128.744 31.6652C128.239 31.4885 127.759 31.2614 127.33 30.9333C126.901 30.6304 126.523 30.2518 126.22 29.8227C125.892 29.3936 125.664 28.8888 125.513 28.384H136.871C137.275 28.384 137.653 28.2325 137.931 27.9549C138.234 27.6773 138.385 27.2987 138.36 26.8948C138.385 25.8095 138.184 24.7494 137.805 23.765ZM125.513 25.3804C125.664 24.8503 125.892 24.3708 126.22 23.9417C126.523 23.5126 126.901 23.134 127.33 22.8311C127.759 22.5282 128.239 22.2758 128.744 22.0992C129.248 21.9225 129.804 21.8468 130.334 21.8468C130.864 21.8468 131.419 21.9225 131.924 22.0992C132.934 22.4273 133.817 23.0835 134.448 23.9417C134.776 24.3708 135.003 24.8756 135.18 25.3804H125.513ZM146.614 32.7001C146.033 32.7001 145.579 33.1796 145.579 33.7602C145.579 34.3407 146.058 34.795 146.639 34.795C147.22 34.795 147.674 34.3154 147.674 33.7602C147.674 33.1544 147.194 32.7001 146.614 32.7001ZM146.614 34.5678C146.159 34.5931 145.781 34.2397 145.756 33.7854C145.73 33.3311 146.084 32.9525 146.538 32.9272C146.992 32.902 147.371 33.2554 147.396 33.7097V33.7602C147.421 34.1892 147.068 34.5678 146.639 34.5678H146.614Z" fill="#343434"/>
<path d="M146.866 33.7599C146.992 33.7346 147.068 33.6337 147.068 33.5075C147.068 33.4065 147.043 33.3308 146.967 33.2803C146.866 33.2298 146.74 33.2046 146.614 33.2046C146.488 33.2046 146.336 33.2046 146.21 33.2298V34.2647H146.437V33.8608H146.538C146.664 33.8608 146.74 33.9113 146.765 34.0123C146.79 34.088 146.816 34.1889 146.841 34.2647H147.093C147.043 34.1889 147.018 34.088 147.018 34.0123C147.043 33.9113 146.967 33.8103 146.866 33.7599ZM146.563 33.6841H146.437V33.3813H146.563C146.715 33.3813 146.79 33.457 146.79 33.5327C146.816 33.6337 146.689 33.7094 146.563 33.6841ZM54.5878 15.284C54.4363 15.1578 53.0734 14.1229 50.1455 14.1229C49.3883 14.1229 48.6058 14.1987 47.8486 14.3249C47.2933 10.4631 44.0878 8.59532 43.9616 8.49436L43.1792 8.04004L42.6744 8.772C42.0434 9.75638 41.5638 10.8669 41.2862 12.0028C40.7561 14.1987 41.0842 16.2684 42.1948 18.0352C40.8571 18.7924 38.6864 18.9691 38.2321 18.9943H2.39092C1.45704 18.9943 0.699827 19.7515 0.699827 20.6854C0.649347 23.8152 1.17939 26.945 2.26472 29.8981C3.5015 33.1288 5.34404 35.5267 7.71662 36.9906C10.3921 38.6312 14.7587 39.5651 19.6805 39.5651C21.9016 39.5651 24.1228 39.3632 26.3187 38.9594C29.3728 38.4041 32.3006 37.344 35.0013 35.8043C37.2225 34.5171 39.2165 32.8764 40.9076 30.9582C43.7597 27.7527 45.4508 24.1686 46.6876 20.9883H47.1924C50.2969 20.9883 52.2152 19.7515 53.2753 18.6914C53.982 18.0352 54.5121 17.2275 54.8907 16.3188L55.1178 15.6626L54.5878 15.284Z" fill="#343434"/>
<path d="M5.72266 17.9596H10.5183C10.7455 17.9596 10.9474 17.7829 10.9474 17.5305V13.2396C10.9474 13.0125 10.7707 12.8106 10.5183 12.8106H5.72266C5.4955 12.8106 5.29358 12.9872 5.29358 13.2396V17.5305C5.31882 17.7829 5.4955 17.9596 5.72266 17.9596ZM12.3356 17.9596H17.1313C17.3584 17.9596 17.5603 17.7829 17.5603 17.5305V13.2396C17.5603 13.0125 17.3837 12.8106 17.1313 12.8106H12.3356C12.1084 12.8106 11.9065 12.9872 11.9065 13.2396V17.5305C11.9318 17.7829 12.1084 17.9596 12.3356 17.9596ZM19.0748 17.9596H23.8704C24.0976 17.9596 24.2995 17.7829 24.2995 17.5305V13.2396C24.2995 13.0125 24.1228 12.8106 23.8704 12.8106H19.0748C18.8476 12.8106 18.6457 12.9872 18.6457 13.2396V17.5305C18.6457 17.7829 18.8224 17.9596 19.0748 17.9596ZM25.7129 17.9596H30.5086C30.7358 17.9596 30.9377 17.7829 30.9377 17.5305V13.2396C30.9377 13.0125 30.761 12.8106 30.5086 12.8106H25.7129C25.4858 12.8106 25.2839 12.9872 25.2839 13.2396V17.5305C25.2839 17.7829 25.4858 17.9596 25.7129 17.9596ZM12.3356 11.8262H17.1313C17.3584 11.8262 17.5603 11.6243 17.5603 11.3971V7.10626C17.5603 6.8791 17.3837 6.67718 17.1313 6.67718H12.3356C12.1084 6.67718 11.9065 6.85386 11.9065 7.10626V11.3971C11.9318 11.6243 12.1084 11.8262 12.3356 11.8262ZM19.0748 11.8262H23.8704C24.0976 11.8262 24.2995 11.6243 24.2995 11.3971V7.10626C24.2995 6.8791 24.1228 6.67718 23.8704 6.67718H19.0748C18.8476 6.67718 18.6457 6.85386 18.6457 7.10626V11.3971C18.6457 11.6243 18.8224 11.8262 19.0748 11.8262ZM25.7129 11.8262H30.5086C30.7358 11.8262 30.9377 11.6243 30.9377 11.3971V7.10626C30.9377 6.8791 30.7358 6.67718 30.5086 6.67718H25.7129C25.4858 6.67718 25.2839 6.85386 25.2839 7.10626V11.3971C25.2839 11.6243 25.4858 11.8262 25.7129 11.8262ZM25.7129 5.66757H30.5086C30.7358 5.66757 30.9377 5.49089 30.9377 5.23849V0.947642C30.9377 0.72048 30.7358 0.518555 30.5086 0.518555H25.7129C25.4858 0.518555 25.2839 0.69524 25.2839 0.947642V5.23849C25.2839 5.46565 25.4858 5.66757 25.7129 5.66757ZM32.4016 17.9596H37.1973C37.4244 17.9596 37.6264 17.7829 37.6264 17.5305V13.2396C37.6264 13.0125 37.4497 12.8106 37.1973 12.8106H32.4016C32.1745 12.8106 31.9725 12.9872 31.9725 13.2396V17.5305C31.9978 17.7829 32.1745 17.9596 32.4016 17.9596Z" fill="#343434"/>
</g>
</svg>
