<svg width="88" height="60" viewBox="0 0 88 60" fill="none" xmlns="http://www.w3.org/2000/svg">
<path d="M49.6882 23.6174H58.6244H49.6882ZM39.0499 23.6174H47.9861H39.0499ZM28.6244 23.6174H37.5605H28.6244ZM18.1988 23.6174H26.9222H18.1988ZM7.56055 23.6174H16.4967H7.56055ZM18.1988 13.8302H26.9222H18.1988ZM28.6244 13.8302H37.5605H28.6244ZM39.0499 13.8302H47.9861H39.0499ZM39.0499 4.04297H47.9861H39.0499Z" fill="black"/>
<path fill-rule="evenodd" clip-rule="evenodd" d="M47.9861 8.08511H39.0499V0H47.9861V8.08511ZM26.9222 17.8723H18.1988V9.78723H26.9222V17.8723ZM37.5605 17.8723H28.6244V9.78723H37.5605V17.8723ZM47.9861 17.8723H39.0499V9.78723H47.9861V17.8723ZM16.4967 27.6596H7.56055V19.5745H16.4967V27.6596ZM26.9222 27.6596H18.1988V19.5745H26.9222V27.6596ZM37.5605 27.6596H28.6244V19.5745H37.5605V27.6596ZM47.9861 27.6596H39.0499V19.5745H47.9861V27.6596ZM58.6244 27.6596H49.6882V19.5745H58.6244V27.6596Z" fill="#066DA5"/>
<path d="M87.1357 24.0427C87.1357 24.0427 83.3059 20.4257 75.4336 21.7023C74.5825 15.5321 67.9868 11.915 67.9868 11.915C67.9868 11.915 61.8166 19.3618 66.2846 27.6597C65.008 28.298 62.8804 29.1491 59.6889 29.1491H1.17826C0.114433 33.1916 0.114434 60.0001 29.4761 60.0001C50.54 60.0001 66.2846 50.2129 73.7314 32.3406C84.7953 33.1916 87.1357 24.0427 87.1357 24.0427Z" fill="#066DA5"/>
</svg>
