<svg width="88" height="60" viewBox="0 0 88 60" fill="none" xmlns="http://www.w3.org/2000/svg">
<path d="M49.6872 23.6169H58.6234ZM39.0489 23.6169H47.9851ZM28.6234 23.6169H37.5596ZM18.1979 23.6169H26.9213ZM7.55957 23.6169H16.4957ZM18.1979 13.8297H26.9213ZM28.6234 13.8297H37.5596ZM39.0489 13.8297H47.9851ZM39.0489 4.04248H47.9851Z" fill="black"/>
<path fill-rule="evenodd" clip-rule="evenodd" d="M47.9851 8.08511H39.0489V0H47.9851V8.08511ZM26.9213 17.8723H18.1979V9.78723H26.9213V17.8723ZM37.5596 17.8723H28.6234V9.78723H37.5596V17.8723ZM47.9851 17.8723H39.0489V9.78723H47.9851V17.8723ZM16.4957 27.6596H7.55957V19.5745H16.4957V27.6596ZM26.9213 27.6596H18.1979V19.5745H26.9213V27.6596ZM37.5596 27.6596H28.6234V19.5745H37.5596V27.6596ZM47.9851 27.6596H39.0489V19.5745H47.9851V27.6596ZM58.6234 27.6596H49.6872V19.5745H58.6234V27.6596Z" fill="#066DA5"/>
<path d="M87.1352 24.0427C87.1352 24.0427 83.3054 20.4257 75.4331 21.7023C74.582 15.5321 67.9863 11.915 67.9863 11.915C67.9863 11.915 61.8161 19.3618 66.2842 27.6597C65.0076 28.298 62.8799 29.1491 59.6884 29.1491H1.17777C0.113944 33.1916 0.113946 60.0001 29.4756 60.0001C50.5395 60.0001 66.2842 50.2129 73.731 32.3406C84.7948 33.1916 87.1352 24.0427 87.1352 24.0427Z" fill="#066DA5"/>
</svg>
