<svg width="84" height="44" viewBox="0 0 84 44" fill="none" xmlns="http://www.w3.org/2000/svg">
<path d="M34.7383 24.0642C35.0732 24.3385 35.4758 24.4144 35.896 24.4067C36.0638 24.4029 36.2308 24.3749 36.3986 24.3669C36.4894 24.3627 36.5844 24.3684 36.6737 24.3879C36.843 24.4262 36.9185 24.4006 36.9763 24.2382C37.1074 23.8677 37.169 23.4838 37.125 23.0927C37.1035 22.9054 37.0644 22.7131 36.9901 22.5411C36.6978 21.858 35.8129 21.5776 35.1574 21.9503C35.0732 21.9982 34.9935 22.0545 34.918 22.1162C34.8383 22.181 34.7663 22.256 34.6836 22.3334C34.7203 22.3763 34.751 22.4169 34.7855 22.4526C34.8648 22.5338 34.8946 22.6299 34.8705 22.738C34.7954 23.0774 34.9421 23.3184 35.2252 23.4727C35.4275 23.5831 35.6489 23.6624 35.8692 23.7355C35.9826 23.7742 36.0994 23.8018 36.2182 23.8259C36.2546 23.8248 36.2699 23.8187 36.2983 23.7961C36.4749 23.6819 36.6013 23.5317 36.6794 23.336C36.7216 23.4513 36.7132 23.6436 36.676 23.7865C36.653 23.875 36.668 24.0907 36.7128 24.1535C36.7093 24.1573 36.7059 24.1615 36.7036 24.1654C36.6825 24.155 36.6618 24.1447 36.6419 24.1328C36.4151 23.9934 36.1615 23.9497 35.9029 23.9175C35.583 23.8769 35.272 23.8037 34.9996 23.6195C34.6717 23.3977 34.4958 23.0893 34.4771 22.6928C34.4763 22.6805 34.4744 22.669 34.4702 22.6361C34.1737 23.2161 34.2645 23.6754 34.7383 24.0642Z" fill="black"/>
<path d="M35.1708 22.816C35.1708 23.1765 35.4631 23.4688 35.8228 23.4688C36.1837 23.4688 36.476 23.1765 36.476 22.816C36.476 22.4555 36.1837 22.1632 35.8228 22.1632C35.4631 22.1632 35.1708 22.4555 35.1708 22.816Z" fill="url(#paint0_linear_1016_43621)"/>
<path d="M5.21263 35.2045C7.31272 38.098 10.12 39.9586 13.6138 40.767C14.7768 41.0363 15.9594 41.1102 17.1524 41.1052C20.0707 41.0926 22.9906 41.1003 25.9059 41.0999C27.8689 41.0991 29.8326 41.0999 31.794 41.0949C32.261 41.0941 32.7268 41.0631 33.1735 40.9076C33.6118 40.7555 33.95 40.4873 34.1381 40.0521C34.4082 39.4246 34.1776 38.6343 33.5953 38.2087C33.1678 37.8965 32.6774 37.8061 32.1606 37.8291C32.0219 37.8356 31.8833 37.8574 31.745 37.8716C31.7132 37.875 31.6791 37.8823 31.6488 37.8754C31.6044 37.8655 31.5622 37.8436 31.5193 37.8275C31.5438 37.7915 31.5615 37.7478 31.5936 37.721C32.1273 37.2674 32.4947 36.7081 32.6705 36.0289C32.7345 35.7822 32.7533 35.5313 32.7303 35.2777C32.7287 35.2582 32.7272 35.2386 32.7264 35.2195C32.7215 35.0884 32.7659 35.0478 32.8954 35.0417C33.2769 35.0241 33.6585 35.0091 34.0389 34.9793C34.2209 34.9647 34.4005 34.9203 34.6055 34.9076C34.5814 34.939 34.5637 34.9854 34.5319 34.9999C34.2278 35.1405 34.0289 35.375 33.9293 35.6876C33.8125 36.0557 33.7305 36.4319 33.7474 36.8223C33.7734 37.4529 34.0186 37.9953 34.4178 38.4734C34.7767 38.9025 35.2188 39.2254 35.7188 39.4706C35.7831 39.502 35.8 39.5296 35.7777 39.602C35.7138 39.8085 35.7214 40.0169 35.7942 40.223C35.8383 40.3486 35.9191 40.4398 36.0344 40.5045C36.2972 40.6509 36.5999 40.6716 36.8864 40.5517C36.8944 40.5927 36.9013 40.639 36.9117 40.6789C36.9944 40.993 37.1971 41.1179 37.5032 41.3018H37.7169C37.7258 41.3018 37.7338 41.2792 37.7426 41.2776C38.2816 41.1864 38.508 40.6938 38.4456 40.2272C38.4295 40.1069 38.3946 39.9885 38.3713 39.8801C38.6153 39.8158 38.867 39.766 39.1072 39.6821C40.2162 39.2963 40.9483 38.5477 41.2586 37.4073C41.3823 36.951 41.3057 36.5423 40.9517 36.2036C40.9295 36.1818 40.9276 36.1278 40.933 36.0914C41.0015 35.6604 41.108 35.2325 41.136 34.7988C41.2023 33.7702 40.879 32.8677 40.1637 32.1157C40.1216 32.0716 40.1189 32.0345 40.13 31.9801C40.1771 31.7494 40.2312 31.5192 40.2595 31.2859C40.3181 30.8155 40.1384 30.4251 39.8247 30.0857C39.7971 30.0554 39.7661 30.0229 39.7531 29.9853C39.6653 29.7237 39.4841 29.5455 39.2447 29.4252C38.762 29.182 38.2502 29.1326 37.7227 29.2203C37.3771 29.2781 37.0619 29.4237 36.7496 29.5716C36.6117 29.6367 36.4857 29.6693 36.3581 29.5578C36.3367 29.539 36.3026 29.5344 36.2823 29.5164C36.247 29.4831 36.1877 29.4367 36.1945 29.4088C36.2037 29.3659 36.2543 29.3172 36.2987 29.2996C36.5416 29.2038 36.7925 29.1521 37.0557 29.1521C37.253 29.1521 37.4515 29.1467 37.6468 29.1234C38.2701 29.0479 38.8417 28.823 39.3784 28.5028C39.414 28.4813 39.4539 28.4629 39.4941 28.4564C40.1879 28.3499 40.7453 27.8052 40.8663 27.1148C40.8786 27.0451 40.877 26.965 40.9131 26.9095C41.2069 26.4552 41.231 25.9721 41.0609 25.476C40.9533 25.1622 40.8039 24.8619 40.6855 24.5516C40.6227 24.3865 40.5579 24.2145 40.5418 24.0417C40.4989 23.5502 40.4338 23.0637 40.302 22.5886C40.0205 21.575 39.5186 20.6966 38.713 20.0074C37.8997 19.3121 36.9462 18.9462 35.89 18.8336C35.7969 18.8236 35.7479 18.7941 35.7069 18.7022C35.4763 18.1793 35.097 17.8119 34.5511 17.6211C34.4094 17.5717 34.268 17.5602 34.1347 17.6207C33.9447 17.7081 33.7512 17.7958 33.5807 17.9157C33.1348 18.2268 32.782 18.6309 32.4889 19.088C32.4663 19.1225 32.4407 19.1677 32.4066 19.1791C32.3606 19.1941 32.2928 19.1995 32.2575 19.1749C32.2303 19.1565 32.2242 19.0822 32.2349 19.0389C32.2472 18.988 32.2863 18.9428 32.3169 18.898C33.0931 17.7755 33.5869 16.5404 33.814 15.195C33.8217 15.1525 33.8516 15.1073 33.8834 15.0751C34.0738 14.8809 34.2711 14.6936 34.4599 14.4978C34.7626 14.1856 34.948 13.8079 35.0468 13.388C35.0725 13.278 35.0847 13.165 35.0924 13.0528C35.0947 13.0187 35.0614 12.9827 35.0445 12.9471C35.0081 12.9681 34.9606 12.9808 34.9384 13.011C34.8867 13.0815 34.8503 13.1624 34.8028 13.2351C34.7714 13.2834 34.7304 13.3248 34.6932 13.3708C34.6817 13.3436 34.6844 13.3282 34.6902 13.3137C34.8936 12.7969 35.0346 12.2636 35.1027 11.7116C35.1219 11.5576 35.1349 11.4021 35.1388 11.2473C35.1418 11.1347 35.0671 11.063 34.9916 11.0937C34.9514 11.1098 34.9166 11.1435 34.8855 11.1745C34.5837 11.4737 34.2278 11.6955 33.8631 11.9054C33.855 11.8939 33.8489 11.8894 33.8485 11.8836C33.8386 11.8292 33.8286 11.7756 33.8205 11.7212C33.7229 11.0833 33.5547 10.4631 33.3605 9.84826C33.2118 9.37859 33.1279 8.89819 33.2099 8.40363C33.2589 8.10903 33.3635 7.84164 33.6137 7.65392C33.6328 7.63975 33.6455 7.61715 33.6673 7.59186C33.6382 7.57692 33.6202 7.56236 33.5999 7.55815C33.2382 7.47847 32.8647 7.5252 32.6621 7.94009C32.6391 7.98644 32.6085 8.02858 32.5663 8.09792C32.5207 8.00675 32.4755 7.94737 32.461 7.88186C32.3889 7.55432 32.3713 7.2218 32.402 6.88736C32.4407 6.47439 32.5866 6.09628 32.7663 5.72775C32.8126 5.63198 32.8567 5.53352 32.8866 5.43239C32.9398 5.24889 32.8375 5.11328 32.6456 5.11634C32.5502 5.11826 32.4499 5.1332 32.3617 5.16653C31.889 5.34428 31.5297 5.6565 31.2906 6.10356C31.2711 6.13995 31.2535 6.17635 31.232 6.21964C31.0424 6.03499 30.8696 5.8557 30.7796 5.60976C30.7217 5.45231 30.6459 5.30061 30.5674 5.15312C30.5107 5.047 30.4685 5.04968 30.3996 5.14584C30.3808 5.17189 30.3643 5.20024 30.344 5.22514C30.2912 5.28911 30.2502 5.2895 30.2084 5.21748C30.1712 5.15388 30.1433 5.08378 30.118 5.01482C29.9946 4.68154 29.7931 4.40533 29.5158 4.1839C29.497 4.16973 29.4756 4.15862 29.4315 4.1318C29.4476 4.23715 29.461 4.31875 29.4717 4.40073C29.4832 4.48463 29.4928 4.56853 29.5035 4.65702C29.4782 4.65395 29.471 4.65472 29.466 4.65166C29.4388 4.63442 29.4116 4.61641 29.3851 4.59764C28.265 3.8238 27.0403 3.28594 25.7163 2.97143C25.3129 2.87566 24.89 2.84195 24.5257 2.61324C24.5176 2.60788 24.5073 2.6052 24.4985 2.60098C24.4264 2.57225 24.3736 2.58795 24.3176 2.64427C24.282 2.67951 24.2184 2.69522 24.1679 2.69446C24.0058 2.69062 23.8445 2.655 23.6833 2.64159C23.5354 2.62933 23.3829 2.59562 23.2404 2.55999C22.9968 2.49831 22.7596 2.26118 22.5198 2.26118H22.3447C22.2888 2.26118 22.2225 2.42208 22.1773 2.47839C22.098 2.57761 22.0007 2.69369 21.8762 2.70174C21.051 2.75307 20.2355 2.87297 19.4325 3.07295C18.2097 3.37635 17.0608 3.84717 16.0318 4.5873C15.2798 5.1286 14.6347 5.77143 14.1773 6.58626C14.0838 6.75175 14.0099 6.92912 13.9359 7.10419C13.8796 7.23904 13.8662 7.38154 13.913 7.5229C13.952 7.63898 14.0398 7.70334 14.1578 7.68495C14.8301 7.57922 15.399 7.82478 15.9238 8.20595C16.4456 8.58598 16.8432 9.07212 17.07 9.68046C17.404 10.5792 17.2232 11.3837 16.5934 12.0958C16.5298 12.1679 16.4578 12.233 16.3804 12.3107C16.3513 12.2016 16.3272 12.1023 16.2985 12.0035C16.1559 11.517 15.9525 11.0626 15.6062 10.6834C15.4051 10.4623 15.3254 10.7244 15.376 11.1247C15.4848 11.9755 15.2235 12.7076 14.6309 13.3233C14.5949 13.3608 14.5405 13.3845 14.4895 13.4026C13.8651 13.624 13.2364 13.8339 12.6154 14.0649C11.5068 14.4775 10.4364 14.9732 9.42201 15.5839C9.40822 15.5919 9.39366 15.5996 9.37872 15.6076C9.28256 15.5456 9.24311 15.4525 9.24732 15.3494C9.25268 15.2115 9.27529 15.0736 9.29138 14.9361C9.29291 14.9196 9.29827 14.9043 9.2998 14.8882C9.33275 14.6449 9.23774 14.5656 9.01364 14.6744C8.90139 14.7292 8.79834 14.82 8.71751 14.9161C8.45931 15.2253 8.29918 15.5915 8.14556 15.9585C8.06434 16.1524 7.99998 16.3531 7.918 16.5466C7.88812 16.617 7.841 16.6887 7.78277 16.7381C6.90435 17.4851 6.08607 18.2889 5.3923 19.2144C4.79813 20.0074 4.29092 20.8506 3.8791 21.7524C3.86875 21.7761 3.85688 21.7991 3.84539 21.8217C3.84232 21.8271 3.83619 21.8301 3.82317 21.8416C3.68832 21.0513 3.6615 20.2644 3.7408 19.4695C3.67759 19.7055 3.60749 19.9403 3.55232 20.1779C3.32707 21.1371 3.25696 22.1082 3.324 23.0909C3.32745 23.1407 3.31481 23.1939 3.29949 23.2422C3.00719 24.1612 2.80492 25.0998 2.71911 26.0594C2.41915 29.4137 3.23398 32.48 5.21263 35.2076V35.2045ZM4.41619 24.8841C5.02913 26.2245 5.79761 27.4746 6.63542 28.6836C6.67948 28.7472 6.69978 28.8096 6.70361 28.8881C6.72238 29.2762 6.74269 29.6639 6.77448 30.0508C6.79364 30.2784 6.83539 30.5048 6.86681 30.7308C4.62957 28.2691 3.55501 25.3714 3.58833 22.027C3.62588 22.2864 3.65039 22.5285 3.69675 22.766C3.83926 23.5038 4.10512 24.2014 4.41619 24.8822V24.8841ZM12.6373 14.9928C12.6323 15.0123 12.6327 15.0192 12.6292 15.0242C12.6131 15.0479 12.5959 15.0717 12.579 15.0958C11.8481 16.1198 11.2501 17.2158 10.8084 18.3953C10.4916 19.2404 10.2694 20.1089 10.1721 21.0084C10.1043 21.6386 10.0989 22.2684 10.1721 22.8986C10.1759 22.9281 10.1755 22.9744 10.1583 22.9871C10.0154 23.0893 9.86831 23.1859 9.71814 23.2866C9.70818 23.2502 9.70013 23.2257 9.69477 23.2C9.46415 22.1623 9.33888 21.1149 9.39941 20.0491C9.43848 19.3665 9.55532 18.7003 9.80931 18.0624C9.81659 18.0441 9.81966 18.0245 9.82464 18.0057C9.74342 18.1218 9.67408 18.2417 9.61432 18.3662C9.14235 19.3469 8.95579 20.3943 8.91863 21.4696C8.8853 22.4415 8.98376 23.4073 9.17185 24.365C9.00827 24.4236 8.82477 24.3957 8.56044 24.2654C8.5524 24.2972 8.55316 24.3374 8.53478 24.3589C8.11912 24.8263 7.77013 25.3377 7.49776 25.9004C7.49086 25.9146 7.48052 25.9257 7.46864 25.9433C7.26445 25.7123 7.08785 25.4729 6.98097 25.1802C6.9484 25.2998 6.92121 25.4177 6.91393 25.5377C6.89056 25.9284 6.97599 26.3031 7.09896 26.6701C7.13152 26.7685 7.12118 26.849 7.06946 26.9417C6.89286 26.772 6.83156 26.5498 6.75226 26.3245C6.67258 26.4314 6.645 26.539 6.63887 26.6536C6.62316 26.9647 6.6994 27.26 6.81777 27.5408C6.9101 27.7603 6.79057 27.9431 6.77946 28.1679C6.73579 28.1109 6.70783 28.0794 6.68446 28.0442C6.38143 27.5971 6.06539 27.1585 5.77884 26.7007C5.10039 25.6162 4.54644 24.4719 4.16373 23.2479C4.14918 23.1997 4.14381 23.1376 4.16067 23.0916C4.80196 21.3271 5.78075 19.7718 7.08402 18.4218C7.09973 18.4053 7.11926 18.3919 7.14685 18.3685C7.14531 18.4007 7.14493 18.4168 7.14301 18.4329C7.08862 18.8823 7.02234 19.3312 6.98403 19.7817C6.91699 20.5717 6.9304 21.3605 7.08785 22.1412C7.19358 22.6653 7.36597 23.1652 7.69236 23.5985C7.91647 23.8954 8.19114 24.1317 8.54282 24.2689C8.45816 24.1846 8.36622 24.1072 8.29113 24.0156C8.08082 23.7609 7.93486 23.469 7.82644 23.1583C7.59812 22.5044 7.54602 21.8251 7.54258 21.1394C7.53913 20.4613 7.59889 19.7879 7.69275 19.1171C7.7935 18.3992 7.9157 17.6855 8.12066 16.9894C8.25474 16.5355 8.41755 16.0922 8.67154 15.6892C8.70717 15.6329 8.76808 15.5923 8.8175 15.5444C8.84699 15.6061 8.89258 15.6651 8.90331 15.7294C8.93702 15.9367 8.99142 16.1355 8.91288 16.3554C8.6045 17.2227 8.43326 18.1203 8.35357 19.0359C8.33672 19.2282 8.33174 19.4213 8.32101 19.6136C8.3689 19.4404 8.39418 19.265 8.42981 19.0922C8.66771 17.9326 9.19407 16.9331 10.0871 16.142C10.1709 16.0681 10.2667 16.0033 10.3659 15.952C11.0003 15.6203 11.6592 15.3444 12.332 15.1008C12.4312 15.0652 12.5304 15.0307 12.6373 14.9935V14.9928ZM32.2093 6.07445C32.2108 6.13957 32.1844 6.207 32.1625 6.27097C31.9166 6.99233 31.8381 7.73284 31.8821 8.49021C31.8902 8.62582 31.8978 8.76565 31.8733 8.89705C31.7266 9.68238 31.3132 10.3497 30.9125 11.0427C30.9014 11.0128 30.8976 11.0075 30.8976 11.0025C30.8531 9.84519 30.8876 8.69171 31.1152 7.55202C31.1987 7.1356 31.3174 6.72953 31.5412 6.36215C31.6511 6.1798 31.7883 6.02273 31.9771 5.91546C32.0357 5.88214 32.0982 5.8626 32.1445 5.91662C32.1798 5.95799 32.2081 6.02043 32.2093 6.07445ZM32.6878 12.2115C32.505 12.3437 32.3131 12.4678 32.1124 12.5693C31.4059 12.9245 30.6574 13.1773 29.9173 13.4501C29.7732 13.5029 29.6349 13.5788 29.5062 13.6631C29.2503 13.8308 29.0599 14.0657 28.8948 14.3201C28.8159 14.4407 28.7419 14.5645 28.6653 14.6867C28.6672 14.6457 28.6799 14.6097 28.6902 14.5729C28.7776 14.2752 28.8772 13.9806 28.9473 13.6788C29.045 13.2577 29.1997 12.8643 29.4342 12.5031C29.561 12.3081 29.7023 12.1215 29.8261 11.9238C29.9042 11.7993 29.9724 11.6649 30.0268 11.5281C30.059 11.4461 30.0556 11.3503 30.0686 11.2611C30.0556 11.2546 30.0429 11.2481 30.0291 11.2419C29.99 11.2749 29.9456 11.3036 29.9123 11.3419C29.7763 11.4978 29.6456 11.6591 29.5062 11.8124C29.4759 11.8461 29.4085 11.8794 29.3744 11.8671C29.3419 11.8553 29.3074 11.7829 29.312 11.7407C29.3292 11.5718 29.3392 11.3975 29.392 11.2381C29.4648 11.0186 29.5798 10.8129 29.6648 10.596C29.7066 10.4899 29.7338 10.3731 29.7433 10.2597C29.7479 10.2061 29.6958 10.1478 29.6702 10.0923C29.6246 10.1233 29.5721 10.1482 29.5345 10.1877C29.4679 10.2578 29.4146 10.3401 29.3461 10.4087C29.2783 10.4758 29.2154 10.4646 29.1764 10.3792C29.1484 10.3195 29.1204 10.2463 29.1296 10.1854C29.153 10.0333 29.1944 9.88388 29.2331 9.73409C29.2691 9.59733 29.32 9.46287 29.348 9.32496C29.3671 9.23186 29.3434 9.13954 29.2457 9.06943C29.2185 9.10966 29.1886 9.14376 29.171 9.1836C29.1327 9.26558 29.1024 9.35139 29.0668 9.43375C28.9844 9.623 28.912 9.81837 28.8147 9.99996C28.7289 10.1597 28.6443 10.1455 28.5519 9.99038C28.3734 9.68697 28.1968 9.38127 27.9972 9.09165C27.8873 8.93267 27.8233 8.76909 27.8064 8.58291C27.7842 8.33505 27.772 8.08566 27.7459 7.83781C27.7359 7.7451 27.711 7.64894 27.6099 7.56198C27.5885 7.66656 27.5705 7.75237 27.5536 7.83819C27.5283 7.96499 27.5111 8.09333 27.4762 8.21745C27.4521 8.30441 27.382 8.3136 27.3383 8.23584C27.2988 8.16535 27.272 8.08068 27.2663 8.00023C27.2556 7.84853 27.2693 7.69606 27.2613 7.54398C27.2582 7.47502 27.2333 7.40568 27.2073 7.34017C27.1962 7.31182 27.159 7.29344 27.1337 7.27045C27.1169 7.2988 27.0943 7.32485 27.0847 7.35588C27.0728 7.39189 27.0717 7.43173 27.0659 7.47042C27.0495 7.58229 27.0403 7.69645 27.0138 7.80563C26.9859 7.92362 26.9115 7.94392 26.838 7.84815C26.7706 7.76042 26.7173 7.6566 26.6836 7.55126C26.6319 7.38844 26.6101 7.2172 26.5606 7.05286C26.5376 6.97585 26.4848 6.90537 26.4354 6.83986C26.417 6.81611 26.3633 6.80078 26.3338 6.80959C26.312 6.81534 26.2906 6.86553 26.2894 6.89656C26.2867 7.02259 26.2917 7.14901 26.2936 7.27505C26.294 7.33749 26.2936 7.39993 26.2936 7.46736C26.266 7.46123 26.2553 7.46161 26.2484 7.45701C26.2327 7.44629 26.217 7.43365 26.2044 7.41947C26.0749 7.28156 25.9879 7.12181 25.9607 6.93256C25.9488 6.84867 25.9446 6.76477 25.9289 6.68241C25.9098 6.5851 25.8515 6.54794 25.7527 6.5602C25.6489 6.57246 25.583 6.64793 25.5726 6.77971C25.5654 6.86514 25.5711 6.95134 25.5711 7.05018C25.4531 6.98965 25.3482 6.9341 25.2417 6.88123C24.1529 6.34223 23.0033 6.00818 21.7973 5.8672C21.0185 5.77641 20.2397 5.77411 19.4674 5.93079C19.0004 6.02541 18.5556 6.1775 18.1698 6.4698C18.1131 6.51232 18.061 6.56097 18.0066 6.60732C18.4365 6.35831 18.6878 6.25718 19.0755 6.18325C19.7811 6.04763 20.4875 6.06793 21.1928 6.17022C22.4336 6.35065 23.6063 6.74179 24.7084 7.34285C25.5627 7.80869 26.3342 8.38026 26.9583 9.13571C27.0054 9.19202 27.0498 9.25025 27.0939 9.30772C25.8163 8.69784 24.3732 9.84596 22.9297 9.33645C24.908 10.3562 26.0795 9.04262 27.1935 9.89269C27.4774 10.1088 27.5279 10.6658 26.879 10.5727C26.2599 10.4842 27.8114 10.7907 28.0895 12.4031C28.0738 12.6663 28.0371 12.934 27.9769 13.2079C27.7103 14.4158 27.1479 15.4827 26.3756 16.4404C25.5803 17.4273 24.5816 18.1617 23.4591 18.7359C23.4431 18.7397 23.4254 18.7455 23.4032 18.7547C23.4063 18.7409 23.4059 18.7344 23.4082 18.7309C23.4239 18.706 23.44 18.6815 23.4561 18.6574C23.9924 17.8602 24.433 17.0181 24.6471 16.0731C24.7942 15.4253 24.8118 14.7767 24.6073 14.1354C24.3786 13.4194 23.9212 12.8743 23.3235 12.4376C22.6539 11.948 21.8973 11.6423 21.1085 11.4078C20.94 11.3576 20.7683 11.3132 20.5776 11.2607C20.599 11.2837 20.6013 11.2898 20.6067 11.2917C20.6392 11.3055 20.6726 11.3182 20.7059 11.3312C21.2568 11.5461 21.7816 11.8093 22.2574 12.164C22.9424 12.6735 23.4461 13.3144 23.6748 14.1484C23.8767 14.8859 23.8319 15.6233 23.6518 16.3569C23.4193 17.3074 22.9887 18.1682 22.4689 18.9911C22.3501 19.1791 22.2087 19.3044 21.995 19.368C21.7364 19.4442 21.4836 19.5435 21.2039 19.6423C21.9954 18.7926 22.0172 17.5974 21.8655 16.8959C21.8628 16.9082 21.8594 16.9162 21.859 16.9247C21.8318 17.4962 21.6372 18.0111 21.3177 18.4808C20.8411 19.1818 20.1956 19.6929 19.467 20.1085C19.4107 20.1407 19.3417 20.151 19.2785 20.1713C19.5421 19.8676 19.744 19.5366 19.8623 19.1569C19.9773 18.7899 20.0171 18.2145 19.9409 18.008C19.8206 18.4091 19.6953 18.6704 19.4275 19.0117C18.9678 19.5975 18.4342 20.1039 17.8155 20.5257C17.4006 20.8096 16.9662 21.0444 16.4988 21.2229C15.6725 21.5397 14.8105 21.734 13.9532 21.9439C13.2 22.1282 12.4476 22.3193 11.7002 22.5281C11.2922 22.6423 10.9003 22.8104 10.5613 23.0763C10.5008 22.9415 10.387 22.4649 10.3828 22.0864C10.3334 17.6234 13.8835 15.2406 14.9645 13.9917C15.2794 13.6282 15.4603 13.1827 15.6185 12.7321C15.6828 12.5494 15.738 12.364 15.7985 12.1744C15.8089 12.1878 15.8188 12.1966 15.8238 12.2065C16.1261 12.7865 16.3122 13.3796 16.1667 14.0515C15.9445 15.0793 15.5311 15.9972 14.7515 16.7255C14.7431 16.7335 14.7362 16.7439 14.7094 16.7745C14.7473 16.755 14.7607 16.7496 14.7734 16.7416C15.4143 16.3723 16 15.9329 16.4954 15.3801C17.3282 14.4514 17.7753 13.3646 17.8369 12.1165C17.8638 11.5729 17.789 11.0362 17.7281 10.4999C17.5665 9.07097 16.5229 7.91481 15.1208 7.57347C15.0155 7.54781 14.9086 7.51141 14.8132 7.46123C14.6788 7.38997 14.6416 7.27236 14.6925 7.13062C14.7109 7.07967 14.7381 7.03025 14.7672 6.98428C15.0163 6.59736 15.3319 6.27748 15.7208 6.02963C15.9203 5.90282 16.1199 5.7764 16.3122 5.63887C17.101 5.07535 17.9499 4.63748 18.8881 4.38005C19.2754 4.27393 19.667 4.18007 20.0738 4.2157C20.2014 4.22643 20.3255 4.27355 20.4523 4.28849C20.5048 4.295 20.5622 4.25822 20.6178 4.24137C20.5864 4.20612 20.5615 4.15939 20.5228 4.13755C20.278 3.99657 20.0071 3.9529 19.7298 3.94371C19.3218 3.92992 18.9245 4.0073 18.5276 4.08813C18.4878 4.09618 18.4457 4.09618 18.4047 4.10001C18.7299 3.81844 19.0988 3.63723 19.4984 3.51695C20.1554 3.31774 20.8269 3.27254 21.5069 3.32962C21.7245 3.348 21.9452 3.35682 22.1459 3.47059C22.3428 3.58169 22.5497 3.67478 22.7535 3.77362C22.7976 3.79507 22.8466 3.8058 22.8937 3.8215C22.9006 3.81384 22.9075 3.80656 22.9148 3.7989C22.8933 3.74374 22.8757 3.68704 22.8485 3.63494C22.7749 3.49089 22.6949 3.3503 22.6209 3.20626C22.6075 3.17868 22.6141 3.13999 22.6121 3.10666C22.6428 3.10512 22.6773 3.09363 22.7037 3.10283C22.86 3.15493 23.0194 3.2009 23.168 3.271C23.3806 3.37176 23.602 3.40623 23.8338 3.42194C24.1495 3.44377 24.4659 3.47366 24.7797 3.51848C25.2401 3.58475 25.591 3.82227 25.8186 4.23409C25.8718 4.33025 25.9285 4.42448 25.9864 4.51834C26.0071 4.55167 26.0354 4.5804 26.0603 4.61066C26.0714 4.60568 26.0837 4.60109 26.0948 4.59534C26.0232 4.35016 25.9515 4.10499 25.8761 3.84679C26.1147 3.9008 26.363 4.0663 26.5599 4.29768C26.6595 4.41338 26.7483 4.53711 26.8468 4.6528C26.8863 4.69878 26.9395 4.73249 26.9862 4.77233C26.9993 4.76505 27.0127 4.75892 27.0261 4.75164C27.0069 4.58768 26.9874 4.42372 26.969 4.25937C26.9786 4.25592 26.9889 4.25209 26.9993 4.24903C27.1475 4.33982 27.2946 4.43291 27.4433 4.52294C27.9482 4.82711 28.4213 5.16959 28.7757 5.65228C28.8243 5.71894 28.8607 5.70975 28.8864 5.62853C28.9182 5.52702 28.9388 5.42205 28.9737 5.3213C28.9841 5.29065 29.0266 5.24889 29.0511 5.25081C29.0852 5.2531 29.1327 5.28682 29.1442 5.31785C29.1679 5.38297 29.1775 5.45499 29.1821 5.52548C29.1917 5.66722 29.1882 5.81012 29.2032 5.95109C29.2078 5.99438 29.2537 6.03422 29.2813 6.07483C29.3177 6.04265 29.3675 6.01737 29.3867 5.97676C29.443 5.86068 29.4847 5.73771 29.5372 5.61934C29.5855 5.50978 29.6142 5.50786 29.6843 5.60133C29.7763 5.72431 29.8797 5.82353 30.0529 5.81088C30.2138 5.79862 30.2341 5.8105 30.2938 5.96029C30.3961 6.21581 30.4831 6.47631 30.588 6.73029C30.6378 6.85135 30.7141 6.96168 30.7742 7.07814C30.7892 7.10572 30.8022 7.14518 30.7945 7.17238C30.5815 7.86003 30.5225 8.56835 30.5156 9.28243C30.5091 9.94326 30.5222 10.6041 30.4996 11.2638C30.4823 11.7798 30.3957 12.2832 30.0107 12.6808C30.064 12.664 30.1145 12.6448 30.162 12.6203C30.4103 12.4916 30.6133 12.3065 30.7911 12.0935C31.1841 11.6231 31.4427 11.078 31.6718 10.5148C31.8553 10.0636 32.0403 9.61227 32.233 9.16482C32.2809 9.05373 32.3606 8.95566 32.4318 8.85529C32.4491 8.83154 32.5 8.80434 32.5196 8.81391C32.5483 8.82694 32.5759 8.86946 32.5801 8.90241C32.5901 8.97519 32.5901 9.05143 32.5866 9.1246C32.5701 9.49351 32.5395 9.86205 32.6031 10.2298C32.6123 10.2861 32.6284 10.3493 32.6142 10.4011C32.4759 10.9056 32.2962 11.3929 31.9852 11.8215C31.9756 11.835 31.9695 11.8514 31.9495 11.8894C32.1713 11.7905 32.3204 11.6442 32.441 11.4722C32.5617 11.2994 32.6674 11.1159 32.7866 10.9251C32.8368 11.1297 32.885 11.3266 32.9333 11.5235C33.0019 11.8093 32.9161 12.0434 32.6855 12.2111L32.6878 12.2115ZM32.9383 15.1682C32.3721 15.7034 31.7009 16.0803 30.996 16.4006C30.0418 16.8343 29.0427 17.135 28.0236 17.3717C27.6593 17.4564 27.2927 17.5296 26.9035 17.6131C27.0602 17.4189 27.1989 17.2449 27.3414 17.0729C27.3548 17.0565 27.3854 17.0488 27.4096 17.0457C28.0482 16.9795 28.6619 16.8143 29.2534 16.5684C30.6214 16.0003 31.7925 15.1425 32.8364 14.1021C32.846 14.0925 32.8529 14.0802 32.8605 14.0695C32.8249 14.0802 32.7981 14.0979 32.7716 14.1162C31.8909 14.7277 30.9849 15.2977 30.0322 15.7911C29.4223 16.1056 28.8009 16.3945 28.1328 16.5657C27.9754 16.6059 27.8145 16.6328 27.6302 16.6703C27.6559 16.6266 27.6658 16.6105 27.675 16.5937C27.885 16.2267 28.116 15.8685 28.2983 15.4877C28.4125 15.2483 28.5722 15.0728 28.7749 14.9184C29.5334 14.3411 30.3693 13.8956 31.2221 13.4784C31.2297 13.475 31.2393 13.4761 31.2669 13.4715C30.9424 13.986 30.6294 14.4875 30.0701 14.7694C30.2149 14.7457 30.3586 14.7215 30.4969 14.6794C30.9259 14.548 31.2868 14.2951 31.6258 14.0117C32.0403 13.6654 32.4414 13.3014 32.8617 12.9605C33.0785 12.7842 33.3103 12.6138 33.5604 12.4923C33.8232 12.3655 34.1151 12.3 34.3959 12.2127C34.4676 12.1893 34.545 12.1851 34.6503 12.1667C34.6158 12.3445 34.6013 12.5004 34.5542 12.6452C34.2339 13.6244 33.6845 14.4618 32.9383 15.1682ZM27.7743 22.738C27.567 22.8534 27.3467 22.9568 27.1207 23.0257C26.6576 23.166 26.1752 23.1683 25.6952 23.1671C25.3551 23.1663 25.0149 23.1617 24.6751 23.1656C24.59 23.1667 24.5057 23.1935 24.4211 23.2089C24.4207 23.2242 24.4199 23.2399 24.4195 23.256C24.4927 23.2843 24.564 23.3184 24.6387 23.3395C24.8754 23.4069 25.1133 23.4674 25.3497 23.5333C25.3957 23.5467 25.4382 23.5732 25.483 23.5939C25.4815 23.6034 25.4799 23.6126 25.4784 23.6218C25.4478 23.6341 25.4171 23.6513 25.3845 23.6582C24.9095 23.7525 24.4364 23.8674 23.9572 23.9356C23.1458 24.0513 22.3413 24.1919 21.5556 24.4309C21.4889 24.4508 21.415 24.4604 21.346 24.4558C20.5515 24.401 19.7574 24.3436 18.9625 24.2857C18.0438 24.2187 17.1252 24.2099 16.2077 24.3068C15.1653 24.4167 14.157 24.6638 13.1809 25.0412C11.7784 25.5832 10.5073 26.3559 9.31168 27.2616C9.29137 27.2769 9.27222 27.2949 9.2523 27.3114C9.29138 27.3041 9.32164 27.2876 9.35075 27.27C10.4414 26.6187 11.5665 26.0376 12.7553 25.5848C13.7628 25.2013 14.7975 24.9243 15.8667 24.7826C16.6394 24.6803 17.4152 24.6569 18.1936 24.6615C19.064 24.6661 19.9355 24.6615 20.8059 24.6611C20.8174 24.6611 20.8285 24.6627 20.8411 24.6638C20.8381 24.6715 20.8377 24.6757 20.8361 24.6765C20.8155 24.6853 20.7948 24.6941 20.7737 24.7025C19.9956 25.0067 19.2578 25.3867 18.5843 25.8828C18.3809 26.0334 18.1626 26.1468 17.9289 26.2345C17.7477 26.3031 17.5653 26.3701 17.3803 26.4283C16.4306 26.7283 15.4476 26.8754 14.4704 27.052C13.6651 27.1972 12.8602 27.3458 12.0619 27.5221C11.334 27.6826 10.6314 27.9289 9.97864 28.3001C8.85734 28.9372 8.19804 29.8903 8.01837 31.1702C7.99002 31.3713 7.97393 31.5748 7.95363 31.7556C7.91456 31.6828 7.87203 31.5947 7.82185 31.5104C7.397 30.7959 7.09973 30.0355 7.00702 29.2046C6.88213 28.0817 7.20239 27.1133 8.01607 26.3176C8.04902 26.2851 8.07201 26.241 8.09346 26.1981C8.21068 25.9606 8.3076 25.7112 8.44398 25.4863C8.83244 24.8485 9.3814 24.3681 9.99894 23.962C10.8191 23.4238 11.7156 23.048 12.6407 22.7354C14.0995 22.2419 15.6008 21.9198 17.1114 21.6298C18.3403 21.3934 19.5719 21.1666 20.8005 20.9279C21.759 20.7425 22.6911 20.4797 23.5733 20.0453C24.68 19.5006 25.7048 18.8462 26.5725 17.9613C26.6012 17.9314 26.6564 17.9153 26.7001 17.9138C27.2805 17.8973 27.857 17.8433 28.4274 17.7353C30.0238 17.4326 31.4864 16.8109 32.8253 15.8938C32.8471 15.8796 32.8705 15.8685 32.9069 15.8467C32.8988 15.8945 32.8954 15.9233 32.8885 15.9509C32.7759 16.45 32.6299 16.9396 32.4395 17.4143C31.5094 19.7369 29.9625 21.521 27.7735 22.7392L27.7743 22.738ZM40.6154 34.8973C40.5767 35.2788 40.4974 35.6573 40.4139 36.0324C40.284 36.6097 39.9312 36.9916 39.3592 37.1644C39.1033 37.2418 38.8405 37.2724 38.5739 37.2732C38.0502 37.2743 37.5373 37.1904 37.0304 37.0648C36.6083 36.9591 36.2007 36.8169 35.8344 36.5756C35.4854 36.3454 35.2253 36.0462 35.1246 35.629C35.0625 35.3685 35.0801 35.1103 35.1227 34.849C35.1395 34.7452 35.1843 34.7 35.2797 34.6624C36.1137 34.3295 36.7795 33.8013 37.1791 32.9784C37.2323 32.8696 37.3082 32.8148 37.4243 32.8026C37.8231 32.7585 38.2138 32.7731 38.5781 32.9665C38.8122 33.0906 39.0455 33.0765 39.2765 32.9642C39.3715 32.9179 39.4638 32.8608 39.5481 32.7968C39.6531 32.7167 39.7485 32.6236 39.8645 32.5217C39.8745 32.5386 39.8814 32.5539 39.8917 32.5662C40.4691 33.2393 40.7027 34.0235 40.6154 34.8973ZM34.4477 36.6009C34.5116 36.643 34.5691 36.6966 34.6266 36.7495C35.1234 37.2127 35.6961 37.549 36.3309 37.7873C36.8975 37.9999 37.4863 38.0953 38.0859 38.1275C38.5295 38.1512 38.9762 38.1474 39.4075 38.0298C39.7025 37.9493 39.9856 37.8279 40.2771 37.7321C40.3392 37.7118 40.4334 37.6977 40.4752 37.7298C40.5461 37.7842 40.4928 37.8716 40.4668 37.944C40.4656 37.947 40.4629 37.9497 40.4618 37.952C40.2541 38.3478 39.9829 38.6899 39.6155 38.9496C38.9536 39.4173 38.2092 39.5097 37.4289 39.4204C37.3009 39.4059 37.1902 39.4292 37.0856 39.4886C37.0366 39.5166 37.0063 39.5771 36.9672 39.6231C36.9745 39.6315 36.9814 39.6403 36.9883 39.6487C37.0163 39.6457 37.0439 39.6407 37.0718 39.6399C37.2166 39.6353 37.3641 39.6131 37.5055 39.6319C37.9614 39.6924 38.1789 40.195 37.9165 40.5662C37.8284 40.6915 37.7139 40.7819 37.5511 40.7612C37.3833 40.739 37.2998 40.6145 37.2427 40.4701C37.2289 40.4348 37.2235 40.395 37.2193 40.3563C37.2025 40.2103 37.1917 40.1904 37.0416 40.195C36.9002 40.1992 36.7592 40.2214 36.6186 40.2425C36.4439 40.2674 36.3305 40.2027 36.2758 40.0337C36.2313 39.8974 36.2447 39.7598 36.3118 39.6384C36.3842 39.5058 36.4761 39.3852 36.5554 39.2641C36.3432 39.1752 36.1099 39.0952 35.8931 38.9825C35.0629 38.5523 34.5005 37.9011 34.2887 36.9752C34.2672 36.8847 34.2584 36.789 34.2615 36.6959C34.2657 36.5645 34.3392 36.5289 34.4477 36.6009ZM34.8806 35.4424C34.943 35.6382 34.984 35.8366 35.0671 36.0148C35.2602 36.427 35.6034 36.6947 36.0045 36.8798C36.9561 37.3173 37.9594 37.513 39.0045 37.4241C39.6374 37.3705 40.1614 37.1062 40.4556 36.5009C40.4568 36.4986 40.4606 36.4971 40.4721 36.4879C40.6656 36.5775 40.7736 36.7269 40.7997 36.9365C40.8234 37.1295 40.741 37.2789 40.5786 37.3655C40.3687 37.4774 40.1545 37.5923 39.9285 37.6609C38.9739 37.9501 38.0085 37.9432 37.0439 37.7095C36.3091 37.5318 35.631 37.2303 35.0395 36.7526C34.8089 36.5664 34.5982 36.3611 34.4668 36.0891C34.4343 36.0216 34.404 35.9404 34.4094 35.8688C34.4262 35.6466 34.6729 35.4413 34.8806 35.4424ZM4.55908 30.581C3.78409 29.2329 3.3807 27.8021 3.38032 27.5822C3.37802 26.8961 3.43089 26.2123 3.53394 25.5311C3.55769 25.3733 3.5891 25.2166 3.6163 25.0592C3.64541 25.0879 3.65499 25.117 3.6638 25.1465C3.77835 25.5269 3.87795 25.9127 4.00897 26.2874C4.69776 28.2507 5.74551 30.0114 7.04303 31.6276C7.09015 31.6866 7.13075 31.7563 7.15412 31.828C7.43608 32.6964 7.84062 33.4848 8.35932 34.1985C7.77779 33.9503 7.11505 33.8614 6.32589 32.9531C7.29548 34.823 9.59248 35.5639 9.59248 35.5639C10.8709 36.7078 12.358 37.4632 14.0057 37.9156C14.1386 37.952 14.2731 37.9811 14.4075 38.0133C14.378 37.985 14.3451 37.9731 14.3121 37.9605C13.0863 37.5222 11.9561 36.9104 10.9333 36.104C9.66029 35.1003 8.69797 33.8641 8.12257 32.339C8.0609 32.1754 8.03178 32.0222 8.09499 31.8533C8.1379 31.7383 8.16011 31.6161 8.19574 31.4985C8.4662 30.6147 8.88952 29.8202 9.57026 29.1789C10.2215 28.5648 11.0042 28.1932 11.8531 27.9431C12.8698 27.6446 13.9202 27.5347 14.9657 27.3979C15.5721 27.319 16.1755 27.2232 16.78 27.1309C16.9424 27.1064 17.1029 27.0666 17.2757 27.0309C17.2627 27.0524 17.2589 27.062 17.2523 27.0692C16.78 27.5991 16.3869 28.1814 16.0743 28.8196C16.0556 28.8587 16.0123 28.8981 15.9709 28.9111C15.6916 28.9996 15.4143 29.1038 15.1277 29.1613C14.7029 29.246 14.2685 29.2785 13.8436 29.3624C11.5654 29.8145 10.8632 31.0354 10.8735 31.0243C11.5654 30.2895 12.6725 30.0822 12.9648 29.9803C13.6467 29.7432 14.3531 29.6788 15.0691 29.6861C15.2783 29.6888 15.4871 29.7014 15.7024 29.7099C15.0603 31.8069 15.1446 33.8511 16.015 35.8546C16.0157 35.8171 16.0073 35.7807 15.9981 35.7447C15.6575 34.4514 15.5196 33.1431 15.7142 31.8104C15.9491 30.1937 16.652 28.8157 17.8262 27.6807C18.7062 26.8302 19.7409 26.218 20.8511 25.7246C21.9057 25.2557 23.0144 24.9653 24.1322 24.696C24.9735 24.4934 25.8182 24.2945 26.6487 24.0501C27.7612 23.7241 28.7684 23.1886 29.6265 22.3967C29.7594 22.2741 29.8935 22.1489 30.0031 22.006C30.726 21.0701 31.6074 20.338 32.692 19.8607C32.7605 19.6312 32.8804 19.3891 33.067 19.1362C33.3321 18.7819 33.66 18.4892 34.0132 18.2268C34.1132 18.1529 34.2462 18.1107 34.3707 18.0858C34.5063 18.0578 34.5879 18.1234 34.6342 18.2551C34.6465 18.2919 34.6549 18.3295 34.6622 18.3674C34.7346 18.3923 34.8066 18.4314 34.8775 18.4861C34.9261 18.5237 34.9729 18.5643 35.0158 18.6072C35.2154 18.8079 35.3552 19.047 35.4686 19.3033C35.4931 19.3588 35.5261 19.3807 35.5831 19.3879C35.7176 19.4056 35.8524 19.4239 35.9854 19.45C38.1429 19.8768 39.714 21.516 39.9887 23.8747C40.0132 24.0869 40.0116 24.3076 40.0752 24.5068C40.1564 24.76 40.2913 24.996 40.4032 25.2396C40.5016 25.4538 40.6096 25.6641 40.6947 25.8836C40.782 26.1085 40.7931 26.3429 40.725 26.5793C40.7016 26.6605 40.6541 26.6819 40.5909 26.6425C40.502 26.5866 40.4219 26.5164 40.3373 26.4532C40.2342 26.3762 40.1381 26.2881 40.0266 26.2272C39.9358 26.177 39.8327 26.1878 39.7515 26.2805C39.7703 26.2946 39.786 26.3057 39.7998 26.3188C40.022 26.5164 40.2449 26.713 40.4637 26.9145C40.4897 26.9382 40.5085 26.9869 40.5062 27.0237C40.4867 27.337 40.3829 27.6205 40.1603 27.8461C39.8741 28.1361 39.5374 28.2909 39.119 28.1928C39.1083 28.3488 39.0976 28.3756 39.008 28.4238C38.426 28.7391 37.8093 28.9245 37.1423 28.9123C36.6516 28.9039 36.2091 29.0594 35.7869 29.2954C35.6559 29.3685 35.5153 29.4344 35.3709 29.4727C34.915 29.5938 34.4469 29.6287 33.9765 29.6409C33.9378 29.6417 33.8998 29.644 33.8615 29.6459C33.8857 29.6731 33.9098 29.6815 33.9339 29.6873C34.3094 29.7761 34.6898 29.7873 35.0732 29.7597C35.1974 29.7509 35.3372 29.724 35.4452 29.7677C35.7617 29.8964 36.0685 30.0508 36.3731 30.2075C36.4585 30.2516 36.5336 30.2726 36.6202 30.2405C36.8136 30.1677 37.0078 30.0964 37.1963 30.0125C37.597 29.8344 38.0073 29.7271 38.4498 29.788C38.6919 29.821 38.9279 29.8742 39.139 30.0033C39.2757 30.0872 39.3838 30.1949 39.3945 30.3696C39.3964 30.3941 39.4186 30.4213 39.4385 30.4393C39.4952 30.4918 39.5581 30.5389 39.6151 30.591C39.7837 30.7465 39.855 30.9396 39.8343 31.1675C39.8163 31.3591 39.7596 31.3909 39.5929 31.3062C39.5125 31.2656 39.4286 31.2323 39.3443 31.2966C39.4512 31.3644 39.5558 31.4261 39.6558 31.4947C39.8055 31.5974 39.8588 31.7456 39.8534 31.9234C39.8377 32.4191 39.2531 32.8581 38.7513 32.7474C38.5858 32.711 38.4379 32.6455 38.3475 32.4888C38.3356 32.4681 38.3015 32.4463 38.2785 32.4478C38.1475 32.4547 38.0138 32.4539 37.8874 32.4823C37.6556 32.5348 37.4262 32.5907 37.1875 32.5451C37.0776 32.5244 36.9692 32.4942 36.8554 32.4677C36.7665 32.7773 36.6202 33.0527 36.4248 33.3017C35.9708 33.8786 35.374 34.2441 34.6856 34.4698C33.793 34.7628 32.8758 34.795 31.9576 34.6632C30.6302 34.4736 29.6893 33.753 29.1817 32.503C29.0561 32.1938 28.9913 31.8602 28.8967 31.5376C28.7446 31.0177 28.5416 30.5182 28.2719 30.0466C27.8378 29.2889 27.2682 28.6652 26.4878 28.2538C25.6113 27.7918 24.6797 27.6994 23.7147 27.871C23.5315 27.9036 23.3515 27.9507 23.1488 27.9963C23.5017 28.0174 23.8261 28.0251 24.1476 28.0576C25.0428 28.1476 25.8818 28.4162 26.6441 28.8993C27.5509 29.4743 28.229 30.2282 28.5125 31.2978C28.6638 31.869 28.8764 32.4233 29.1419 32.9543C29.3185 33.3098 29.5139 33.6503 29.7866 33.9426C30.2398 34.428 30.8091 34.7023 31.4366 34.8789C31.6297 34.9329 31.8212 34.9927 32.0116 35.054C32.1058 35.0846 32.1648 35.1513 32.202 35.2467C32.307 35.5194 32.3372 35.7983 32.2805 36.0849C32.1928 36.5358 31.9721 36.9188 31.6752 37.2617C31.4201 37.5567 31.1006 37.7727 30.7811 37.9884C30.6256 38.0926 30.4746 38.2056 30.3329 38.3275C30.2103 38.432 30.1356 38.5753 30.1433 38.7385C30.1567 39.0308 30.1739 39.0772 30.4651 38.9802C30.5107 38.9649 30.5559 38.9469 30.6003 38.9278C30.8382 38.8255 31.0749 38.7213 31.314 38.6213C31.7729 38.4294 32.2491 38.3585 32.7379 38.4761C33.28 38.6056 33.6623 38.9239 33.8343 39.4679C33.8696 39.5794 33.878 39.6974 33.8182 39.7978C33.7895 39.8472 33.7156 39.8958 33.6608 39.8974C33.6114 39.8989 33.5531 39.8426 33.5125 39.7985C33.4876 39.7709 33.4884 39.7196 33.4773 39.6794C33.4214 39.4694 33.3298 39.2836 33.1237 39.1821C33.0846 39.1626 33.0402 39.1572 32.9981 39.145C33.2727 39.43 33.4214 39.7525 33.4014 40.1414C33.3865 40.4367 33.1551 40.6291 32.8575 40.6122C32.7709 40.6072 32.71 40.5666 32.7004 40.4823C32.6885 40.3804 32.6931 40.2766 32.6912 40.1739C32.6878 40.051 32.6969 39.9265 32.6797 39.8062C32.6525 39.6089 32.5311 39.4806 32.3414 39.4196C32.2499 39.3905 32.1618 39.4062 32.0767 39.4495C32.1962 39.474 32.3104 39.5101 32.3706 39.6219C32.4284 39.7292 32.4874 39.841 32.5165 39.9579C32.579 40.21 32.5487 40.4532 32.3169 40.608C32.2127 40.6773 32.0717 40.7061 31.9438 40.7237C31.6691 40.762 31.4056 40.6846 31.1401 40.6229C30.9807 40.5861 30.8156 40.5612 30.6532 40.5609C30.4996 40.5605 30.3444 40.593 30.1923 40.6206C29.266 40.7873 28.3351 40.7168 27.3919 40.7053C26.3718 40.6926 25.3516 40.6992 24.3314 40.6984C22.5053 40.6984 20.6787 40.6976 18.8533 40.6976C18.099 40.6976 17.3443 40.7049 16.59 40.7003C15.5499 40.6938 14.5209 40.5762 13.5149 40.3126C9.68404 39.3105 6.81471 37.236 4.92608 33.758C4.09286 32.2245 3.61707 30.5833 3.44966 28.8621C3.42935 28.6594 4.57402 30.7898 4.56291 30.581H4.55908Z" fill="black"/>
<path d="M46.4234 33.2146V36.5096H51.7436V38.3801H46.4234V43.3233H44.3983V31.3301H52.3954L52.3783 33.218L46.4234 33.2146Z" fill="#343437"/>
<path d="M56.3823 43.3244H54.4601V30.5918H56.3823V43.3244Z" fill="#343437"/>
<path d="M61.0694 43.3241H59.1472V34.1963H61.0694V43.3241ZM59.2675 32.3746C59.0272 32.1343 58.9071 31.8483 58.9071 31.5164C58.9071 31.1845 59.0272 30.8985 59.2675 30.6582C59.5077 30.418 59.7938 30.2979 60.1257 30.2979C60.4575 30.2979 60.7435 30.418 60.9838 30.6582C61.2241 30.8985 61.3442 31.1845 61.3442 31.5164C61.3442 31.8483 61.2241 32.1343 60.9838 32.3746C60.7436 32.6148 60.4575 32.735 60.1257 32.735C59.7939 32.735 59.5078 32.6148 59.2675 32.3746Z" fill="#343437"/>
<path d="M65.805 38.3806V43.3239H63.8828V34.196H65.805V35.8607C66.1139 35.3002 66.5372 34.8596 67.0749 34.5391C67.6241 34.2188 68.2133 34.0586 68.8425 34.0586C69.872 34.0586 70.7015 34.3732 71.331 35.0023C71.9717 35.6314 72.2921 36.541 72.2921 37.731V43.3266H70.3699V38.3157C70.3699 36.6338 69.672 35.7928 68.2762 35.7928C67.6126 35.7928 67.0348 36.0159 66.5429 36.4621C66.051 36.897 65.805 37.5377 65.805 38.3843V38.3806Z" fill="#343437"/>
<path d="M76.8706 43.3244H74.9484V30.5918H76.8706V38.0719L80.5773 34.1936H83.0484L79.5819 37.8148L83.306 43.3234H80.9721L78.2608 39.3248L76.8706 40.732V43.3244Z" fill="#343437"/>
<defs>
<linearGradient id="paint0_linear_1016_43621" x1="36.5154" y1="21.3541" x2="34.9831" y2="24.1771" gradientUnits="userSpaceOnUse">
<stop stop-color="#4A4A4A"/>
<stop offset="0.3836" stop-color="#545454"/>
<stop offset="0.7317" stop-color="#FBFBFB"/>
</linearGradient>
</defs>
</svg>
