<svg width="138" height="40" viewBox="0 0 138 40" fill="none" xmlns="http://www.w3.org/2000/svg">
<g style="mix-blend-mode:luminosity" clip-path="url(#clip0_1016_43597)">
<path d="M20.0623 1.46702L31.7864 1.4541L12.1166 21.1138L6.99031 26.2114L1.15771 20.3716L20.0623 1.46702ZM19.9532 19.0208C20.1054 18.8198 20.3853 18.9189 20.5978 18.893L31.7764 18.8959L21.5883 29.0739L15.7256 23.247L19.9532 19.0208Z" fill="#68686B"/>
<path d="M48.2649 9.66699L61.0455 9.6713L61.0441 12.1878C57.7007 12.1878 54.3559 12.1778 51.0111 12.1921C50.7556 12.2768 50.8762 12.5969 50.8475 12.7936L50.8575 19.5622C50.9422 19.8163 51.2638 19.6942 51.4619 19.7258L60.0406 19.7215V22.2351C57.3734 22.2337 54.7076 22.2337 52.0404 22.2351C51.6442 22.2337 51.2437 22.2093 50.8518 22.2768L50.8216 31.8317C49.9617 31.7973 49.1033 31.8289 48.2434 31.8102L48.2419 10.0733L48.2649 9.66699ZM64.1449 9.6713H66.769L66.7705 24.71L66.7418 31.7915C65.8876 31.7757 65.0335 31.7714 64.1807 31.7944C64.1147 31.4441 64.142 31.0881 64.142 30.735L64.1449 9.6713ZM89.8295 11.5361L92.4623 11.5375L92.4666 15.9877C93.7543 16.0193 95.0492 15.9303 96.334 16.0322C96.2981 16.8303 96.3282 17.6285 96.3139 18.4267C95.0334 18.4295 93.7543 18.4396 92.4752 18.4209L92.4652 27.2839C92.4925 28.1051 92.6676 29.097 93.4658 29.5205C94.3773 30.0387 95.4971 29.7947 96.3598 29.2951V31.8734C95.4095 32.304 94.3256 32.3557 93.305 32.2164C91.8666 31.9968 90.4885 31.0163 90.0535 29.5909C89.7649 28.8099 89.831 27.9673 89.8252 27.1519L89.8195 18.52L89.7549 18.4468C88.8462 18.3979 87.9346 18.4539 87.0245 18.4223C87.0302 17.6098 86.9929 16.7973 87.0446 15.9862C87.9691 15.9704 88.8979 16.0279 89.8209 15.9575L89.8295 11.5361ZM100.952 11.5275C101.828 11.5576 102.703 11.5174 103.578 11.5475L103.638 11.6136C103.671 13.075 103.594 14.5407 103.672 15.9992C104.92 15.9762 106.167 15.9949 107.413 15.9877L107.422 18.408C106.167 18.4554 104.908 18.4267 103.654 18.4195L103.639 27.4361C103.638 28.2213 103.865 29.1501 104.624 29.5363C105.556 30.0445 106.686 29.7832 107.551 29.2635L107.548 31.8561C106.625 32.2724 105.585 32.3528 104.588 32.238C103.295 32.0657 102.029 31.335 101.422 30.1507C101.129 29.5306 100.965 28.8444 100.938 28.1596V18.4295C100.029 18.4281 99.1218 18.4324 98.2145 18.4295L98.2203 15.9791C99.1146 16.0035 100.009 15.9719 100.903 16.002C100.998 14.5148 100.896 13.0175 100.952 11.5275ZM113.731 16.0709C115.549 15.3173 117.646 15.3029 119.502 15.9346C121.628 16.6681 123.273 18.5228 123.876 20.6747C124.271 21.8676 124.255 23.1352 124.199 24.3755L111.703 24.3885C111.806 25.7192 112.204 27.0758 113.128 28.0749C114.442 29.6066 116.703 30.1751 118.612 29.5736C119.951 29.1789 120.997 28.1481 121.684 26.9638C122.445 27.304 123.184 27.6916 123.942 28.0405C122.906 30.0158 121.021 31.5848 118.806 32.0097C116.987 32.35 114.997 32.3586 113.329 31.4599C111.165 30.3847 109.674 28.1955 109.25 25.8412C108.941 24.0324 109.037 22.1189 109.718 20.402C110.431 18.5171 111.874 16.8849 113.731 16.0709ZM114.72 18.3405C113.192 19.0468 112.207 20.6159 111.9 22.2351L121.483 22.205C121.331 21.147 120.955 20.0718 120.18 19.3066C118.822 17.851 116.5 17.5668 114.72 18.3405ZM129.888 18.5487C130.889 16.1183 133.962 14.8421 136.393 15.8599V18.6965C135.372 18.2946 134.228 18.0462 133.15 18.3635C131.677 18.8013 130.587 20.1149 130.17 21.5604C129.883 22.5366 129.99 23.5558 130.002 24.5564C129.89 25.8513 130.058 27.1476 129.973 28.4424C130.042 29.5607 129.913 30.679 130.007 31.7987C129.115 31.8418 128.222 31.7958 127.33 31.826C127.278 28.451 127.323 25.0746 127.309 21.6983L127.329 16.0149C128.166 16.0379 129.004 16.0121 129.842 16.0322C129.918 16.8705 129.749 17.7132 129.888 18.5487ZM70.533 15.9834C71.423 16.0207 72.3203 15.9303 73.206 16.0307L73.1931 25.4393C73.1845 26.5891 73.3481 27.8452 74.1434 28.7381C75.1698 29.8751 76.9082 30.0832 78.3122 29.6339C80.1885 28.9621 81.4977 26.9753 81.4216 24.9885L81.4503 15.9834L84.1304 15.9891L84.1147 31.7872C83.2648 31.7729 82.4164 31.7872 81.568 31.7772L81.558 29.5291C81.0081 30.2196 80.4311 30.9187 79.6429 31.3537C78.0294 32.3715 75.9823 32.5064 74.175 31.9853C73.0093 31.6336 71.9944 30.8168 71.4101 29.7488C70.7168 28.5745 70.5416 27.1863 70.5014 25.8484L70.533 15.9834Z" fill="#343434"/>
<path d="M9.88147 29.084L15.7256 23.2471L21.5883 29.0739L21.6127 29.0998L15.727 34.9309L9.88147 29.084Z" fill="#ACBBF9"/>
<path d="M15.7272 34.9308L21.6129 29.0996L31.7808 39.2776C27.9508 39.2862 24.1222 39.2747 20.2936 39.2833C20.0754 39.3321 19.9405 39.1326 19.8012 39.0091L15.7272 34.9308Z" fill="#2E46A5"/>
</g>
<defs>
<clipPath id="clip0_1016_43597">
<rect width="136.807" height="39.0467" fill="white" transform="translate(0.498779 0.879883)"/>
</clipPath>
</defs>
</svg>
