<svg width="254" height="40" viewBox="0 0 254 40" fill="none" xmlns="http://www.w3.org/2000/svg">
<g clip-path="url(#clip0_1016_43644)">
<path d="M31.3672 11.0143H32.7618L36.7362 7.03995L36.9314 5.35258C34.6546 3.343 31.9031 1.94702 28.9368 1.29651C25.9705 0.645988 22.8873 0.762409 19.9785 1.63477C17.0697 2.50713 14.4313 4.10663 12.3126 6.28218C10.1938 8.45773 8.66464 11.1375 7.86951 14.0684C8.31227 13.8869 8.80274 13.8574 9.26403 13.9847L17.2128 12.6738C17.2128 12.6738 17.6172 12.0045 17.8264 12.0463C19.5296 10.1758 21.8833 9.027 24.4058 8.83516C26.9283 8.64332 29.4287 9.42291 31.3951 11.0143H31.3672Z" fill="#343434"/>
<path d="M42.398 14.068C41.4845 10.7039 39.6088 7.67965 37.0012 5.36621L31.4231 10.9443C32.5856 11.8942 33.5173 13.0957 34.1478 14.4581C34.7783 15.8206 35.0911 17.3084 35.0628 18.8094V19.7995C35.7148 19.7995 36.3603 19.928 36.9626 20.1774C37.565 20.4269 38.1122 20.7926 38.5732 21.2536C39.0342 21.7146 39.3999 22.2619 39.6494 22.8642C39.8989 23.4665 40.0273 24.1121 40.0273 24.764C40.0273 25.416 39.8989 26.0616 39.6494 26.6639C39.3999 27.2662 39.0342 27.8135 38.5732 28.2745C38.1122 28.7355 37.565 29.1012 36.9626 29.3507C36.3603 29.6001 35.7148 29.7286 35.0628 29.7286H25.1338L25.1338 37.6773H35.0628C37.8354 37.6989 40.5414 36.8275 42.7804 35.192C45.0194 33.5565 46.6725 31.2437 47.4952 28.5958C48.3178 25.948 48.2664 23.1056 47.3484 20.4892C46.4304 17.8729 44.6947 15.6215 42.398 14.068Z" fill="#343434" fill-opacity="0.81"/>
<path d="M15.1908 37.6216H25.1198V29.6728H15.1908C14.4834 29.6727 13.7843 29.5205 13.1408 29.2266L7.39539 35.0278C9.63978 36.7226 12.3784 37.6338 15.1908 37.6216Z" fill="#212121" fill-opacity="0.5"/>
<path d="M15.1908 11.837C12.5005 11.8531 9.88239 12.709 7.70217 14.2852C5.52194 15.8615 3.88846 18.0793 3.02987 20.6289C2.17129 23.1786 2.13047 25.9327 2.91312 28.5067C3.69578 31.0807 5.26282 33.346 7.39538 34.9861L13.1548 29.2267C12.4229 28.896 11.7821 28.3927 11.2875 27.76C10.7929 27.1273 10.4592 26.384 10.315 25.5939C10.1708 24.8038 10.2204 23.9905 10.4596 23.2239C10.6988 22.4572 11.1205 21.76 11.6883 21.1921C12.2562 20.6242 12.9534 20.2025 13.7201 19.9633C14.4868 19.7241 15.3001 19.6745 16.0901 19.8187C16.8802 19.9629 17.6235 20.2966 18.2563 20.7912C18.889 21.2859 19.3923 21.9266 19.723 22.6585L25.4824 16.8991C24.2735 15.3188 22.7155 14.0395 20.9301 13.1613C19.1447 12.2832 17.1804 11.8299 15.1908 11.837Z" fill="#0E0E0E" fill-opacity="0.3"/>
<path d="M74.5137 32.0716C72.8042 32.0933 71.1079 31.7698 69.5264 31.1205C67.9449 30.4711 66.5108 29.5092 65.3098 28.2924C64.0711 27.1272 63.0881 25.7173 62.4231 24.1521C61.7581 22.5869 61.4257 20.9006 61.447 19.2001C61.4266 17.4997 61.7594 15.8137 62.4243 14.2486C63.0892 12.6835 64.0718 11.2735 65.3098 10.1078C66.5049 8.87838 67.9364 7.90358 69.5182 7.24211C71.0999 6.58064 72.7992 6.24619 74.5137 6.25891C76.1473 6.23714 77.7689 6.5403 79.2844 7.15077C80.7998 7.76124 82.1787 8.66685 83.341 9.81494L80.8588 12.339C79.1589 10.6962 76.8774 9.79367 74.5137 9.82889C73.2875 9.81383 72.0716 10.054 70.9433 10.5342C69.8149 11.0143 68.7988 11.7239 67.9594 12.6179C67.0871 13.4833 66.399 14.5163 65.9364 15.6547C65.4739 16.7931 65.2465 18.0133 65.268 19.2419C65.2578 20.4565 65.4906 21.6608 65.9528 22.7841C66.4151 23.9073 67.0973 24.9267 67.9594 25.7822C69.6864 27.5032 72.0168 28.4822 74.4546 28.5109C76.8925 28.5395 79.2453 27.6156 81.0122 25.9356C82.1061 24.7377 82.7771 23.2143 82.9227 21.5987H74.5555V18.0287H86.3951C86.5114 18.7477 86.5581 19.4762 86.5345 20.2042C86.6081 21.7108 86.3755 23.2167 85.8505 24.6309C85.3256 26.0451 84.5194 27.3381 83.4805 28.4318C82.3255 29.6344 80.93 30.5801 79.385 31.2072C77.84 31.8343 76.1801 32.1289 74.5137 32.0716ZM102.042 29.7009C100.453 31.2239 98.3368 32.0743 96.1358 32.0743C93.9348 32.0743 91.8189 31.2239 90.23 29.7009C89.4391 28.9341 88.8163 28.0113 88.401 26.991C87.9857 25.9707 87.787 24.8753 87.8175 23.7741C87.7878 22.6731 87.9869 21.5779 88.4022 20.5578C88.8175 19.5376 89.4398 18.6147 90.23 17.8474C91.8205 16.3275 93.9358 15.4794 96.1358 15.4794C98.3358 15.4794 100.451 16.3275 102.042 17.8474C102.832 18.6147 103.454 19.5376 103.869 20.5578C104.285 21.5779 104.484 22.6731 104.454 23.7741C104.483 24.8763 104.282 25.9724 103.864 26.9927C103.446 28.013 102.821 28.9353 102.028 29.7009H102.042ZM92.8378 27.372C93.2604 27.8233 93.7712 28.1831 94.3385 28.4291C94.9057 28.6751 95.5175 28.802 96.1358 28.802C96.7541 28.802 97.3659 28.6751 97.9332 28.4291C98.5005 28.1831 99.0112 27.8233 99.4339 27.372C99.8947 26.8957 100.255 26.332 100.495 25.7141C100.734 25.0962 100.848 24.4366 100.828 23.7741C100.849 23.1095 100.736 22.4474 100.497 21.8271C100.257 21.2068 99.8957 20.6407 99.4339 20.1623C99.0056 19.7156 98.4915 19.3601 97.9223 19.1173C97.3531 18.8745 96.7407 18.7493 96.1219 18.7493C95.5031 18.7493 94.8906 18.8745 94.3214 19.1173C93.7523 19.3601 93.2381 19.7156 92.8099 20.1623C92.348 20.6407 91.9866 21.2068 91.7471 21.8271C91.5076 22.4474 91.3948 23.1095 91.4153 23.7741C91.3977 24.4375 91.5133 25.0977 91.7552 25.7157C91.9971 26.3337 92.3605 26.8969 92.8238 27.372H92.8378ZM120.198 29.7009C118.609 31.2239 116.494 32.0743 114.293 32.0743C112.092 32.0743 109.976 31.2239 108.387 29.7009C107.596 28.9341 106.973 28.0113 106.558 26.991C106.142 25.9707 105.944 24.8753 105.974 23.7741C105.945 22.6731 106.144 21.5779 106.559 20.5578C106.974 19.5376 107.597 18.6147 108.387 17.8474C109.976 16.3243 112.092 15.474 114.293 15.474C116.494 15.474 118.609 16.3243 120.198 17.8474C120.988 18.6147 121.611 19.5376 122.026 20.5578C122.441 21.5779 122.64 22.6731 122.611 23.7741C122.641 24.8753 122.443 25.9707 122.027 26.991C121.612 28.0113 120.989 28.9341 120.198 29.7009ZM110.994 27.372C111.417 27.8233 111.928 28.1831 112.495 28.4291C113.062 28.6751 113.674 28.802 114.293 28.802C114.911 28.802 115.523 28.6751 116.09 28.4291C116.657 28.1831 117.168 27.8233 117.591 27.372C118.051 26.8957 118.412 26.332 118.652 25.7141C118.891 25.0962 119.005 24.4366 118.985 23.7741C119.006 23.1095 118.893 22.4474 118.653 21.8271C118.414 21.2068 118.052 20.6407 117.591 20.1623C117.162 19.7156 116.648 19.3601 116.079 19.1173C115.51 18.8745 114.897 18.7493 114.279 18.7493C113.66 18.7493 113.047 18.8745 112.478 19.1173C111.909 19.3601 111.395 19.7156 110.967 20.1623C110.505 20.6407 110.143 21.2068 109.904 21.8271C109.664 22.4474 109.551 23.1095 109.572 23.7741C109.554 24.4375 109.67 25.0977 109.912 25.7157C110.154 26.3337 110.517 26.8969 110.981 27.372H110.994ZM132.135 39.5183C130.464 39.5715 128.825 39.0497 127.492 38.0401C126.308 37.1502 125.376 35.9681 124.786 34.6096L127.966 33.2848C128.312 34.0967 128.853 34.8105 129.542 35.3626C130.279 35.9567 131.203 36.2682 132.149 36.2412C132.749 36.2777 133.35 36.1845 133.911 35.9679C134.472 35.7513 134.979 35.4165 135.399 34.9861C136.239 33.9727 136.654 32.6731 136.556 31.3603V30.1611H136.431C135.899 30.7922 135.228 31.291 134.47 31.6177C133.713 31.9445 132.889 32.0903 132.066 32.0437C131.019 32.0468 129.982 31.8328 129.022 31.4152C128.062 30.9975 127.199 30.3853 126.488 29.6172C125.716 28.8552 125.106 27.9445 124.696 26.9401C124.286 25.9358 124.085 24.8587 124.103 23.7741C124.084 22.6832 124.285 21.5996 124.695 20.5884C125.105 19.5771 125.714 18.659 126.488 17.8892C127.197 17.1179 128.06 16.5026 129.02 16.0825C129.98 15.6624 131.018 15.4466 132.066 15.4488C132.953 15.4473 133.829 15.6425 134.632 16.0206C135.326 16.3237 135.945 16.7761 136.445 17.3454H136.57V16.0206H140.028V30.8723C140.119 32.0471 139.97 33.2282 139.589 34.3432C139.207 35.4582 138.602 36.4837 137.811 37.3568C137.057 38.0779 136.167 38.6407 135.192 39.0119C134.217 39.3832 133.178 39.5554 132.135 39.5183ZM132.386 28.8084C132.982 28.8215 133.573 28.7033 134.118 28.4623C134.662 28.2213 135.147 27.8633 135.538 27.4138C136.399 26.4278 136.852 25.1517 136.807 23.8439C136.859 22.5139 136.405 21.2137 135.538 20.2042C135.148 19.7539 134.663 19.3954 134.118 19.1544C133.573 18.9133 132.982 18.7956 132.386 18.8096C131.775 18.7971 131.167 18.9149 130.605 19.1554C130.042 19.3958 129.537 19.7534 129.123 20.2042C128.201 21.1774 127.7 22.4753 127.729 23.816C127.715 24.4736 127.83 25.1275 128.07 25.7401C128.309 26.3528 128.667 26.9121 129.123 27.386C129.535 27.8411 130.039 28.2034 130.602 28.4486C131.164 28.6939 131.773 28.8165 132.386 28.8084ZM146.178 7.19324V31.5695H142.539V7.19324H146.178ZM156.163 32.0716C155.073 32.0996 153.989 31.9022 152.979 31.4919C151.969 31.0816 151.054 30.4671 150.292 29.6869C149.519 28.9125 148.912 27.989 148.507 26.9726C148.101 25.9561 147.907 24.868 147.935 23.7741C147.894 22.6776 148.074 21.584 148.465 20.5586C148.855 19.5332 149.448 18.5969 150.208 17.8056C150.925 17.0504 151.791 16.4531 152.752 16.0521C153.712 15.6511 154.746 15.4551 155.787 15.4767C156.744 15.4666 157.693 15.6517 158.576 16.0206C159.371 16.3416 160.096 16.8154 160.709 17.4151C161.236 17.9235 161.704 18.4895 162.104 19.1025C162.427 19.62 162.703 20.1662 162.927 20.7341L163.303 21.6823L152.147 26.2703C152.484 27.0456 153.049 27.7004 153.766 28.1484C154.483 28.5965 155.318 28.8169 156.163 28.7805C156.985 28.7827 157.793 28.5719 158.509 28.1687C159.226 27.7654 159.825 27.1834 160.249 26.4795L163.038 28.3621C162.326 29.3804 161.416 30.2438 160.361 30.9002C159.106 31.6927 157.647 32.1 156.163 32.0716ZM151.505 23.5231L158.924 20.4412C158.696 19.8978 158.287 19.4497 157.767 19.1722C157.184 18.8433 156.525 18.6749 155.856 18.6841C154.721 18.7135 153.644 19.1896 152.858 20.0089C152.388 20.459 152.023 21.0073 151.789 21.6148C151.555 22.2223 151.458 22.8739 151.505 23.5231Z" fill="#343434"/>
<path d="M182.366 32.0715C180.818 32.0982 179.281 31.8118 177.846 31.2296C176.412 30.6474 175.11 29.7813 174.018 28.6834C172.927 27.5854 172.069 26.2782 171.495 24.8403C170.921 23.4024 170.644 21.8633 170.68 20.3156C170.644 18.7679 170.921 17.2289 171.495 15.7909C172.069 14.353 172.927 13.0458 174.018 11.9479C175.11 10.8499 176.412 9.98383 177.846 9.40161C179.281 8.81939 180.818 8.53305 182.366 8.55977C183.933 8.51078 185.49 8.81646 186.922 9.45397C188.354 10.0915 189.624 11.0443 190.636 12.2413L188.628 14.1936C187.885 13.2592 186.932 12.5132 185.846 12.0165C184.76 11.5197 183.573 11.2862 182.38 11.3349C181.232 11.309 180.09 11.5156 179.024 11.9421C177.957 12.3687 176.988 13.0065 176.175 13.8171C175.329 14.6678 174.668 15.6842 174.233 16.8026C173.799 17.9209 173.6 19.1169 173.65 20.3156C173.6 21.5143 173.799 22.7103 174.233 23.8287C174.668 24.947 175.329 25.9634 176.175 26.8141C176.988 27.6247 177.957 28.2625 179.024 28.6891C180.09 29.1157 181.232 29.3222 182.38 29.2963C183.713 29.3113 185.032 29.0257 186.239 28.4607C187.446 27.8958 188.51 27.066 189.353 26.0332L191.361 28.0413C190.309 29.2986 188.989 30.304 187.498 30.9837C185.89 31.7259 184.137 32.0976 182.366 32.0715Z" fill="#343434"/>
<path d="M196.758 31.5694H193.871V9.04785H196.758V31.5694Z" fill="#343434"/>
<path d="M201.471 18.0142C202.984 16.512 205.029 15.6689 207.161 15.6689C209.293 15.6689 211.338 16.512 212.851 18.0142C213.59 18.7952 214.168 19.7147 214.551 20.7199C214.934 21.725 215.114 22.796 215.082 23.8712C215.114 24.9463 214.934 26.0173 214.551 27.0225C214.168 28.0277 213.59 28.9472 212.851 29.7282C211.338 31.2304 209.293 32.0734 207.161 32.0734C205.029 32.0734 202.984 31.2304 201.471 29.7282C200.732 28.9472 200.154 28.0277 199.771 27.0225C199.388 26.0173 199.207 24.9463 199.24 23.8712C199.207 22.796 199.388 21.725 199.771 20.7199C200.154 19.7147 200.732 18.7952 201.471 18.0142ZM203.619 27.9153C204.074 28.396 204.622 28.7789 205.229 29.0405C205.837 29.3022 206.492 29.4371 207.154 29.4371C207.816 29.4371 208.47 29.3022 209.078 29.0405C209.686 28.7789 210.234 28.396 210.689 27.9153C211.194 27.3739 211.585 26.7375 211.842 26.0432C212.098 25.3489 212.213 24.6106 212.181 23.8712C212.213 23.1318 212.098 22.3935 211.842 21.6992C211.585 21.0049 211.194 20.3685 210.689 19.8271C210.234 19.3464 209.686 18.9635 209.078 18.7019C208.47 18.4402 207.816 18.3053 207.154 18.3053C206.492 18.3053 205.837 18.4402 205.229 18.7019C204.622 18.9635 204.074 19.3464 203.619 19.8271C203.114 20.3685 202.722 21.0049 202.466 21.6992C202.21 22.3935 202.095 23.1318 202.127 23.8712C202.098 24.6092 202.217 25.3455 202.475 26.0373C202.734 26.7292 203.127 27.3628 203.633 27.9014L203.619 27.9153Z" fill="#343434"/>
<path d="M231.077 31.5694H228.288V29.4358H228.204C227.708 30.2461 227.005 30.9102 226.168 31.3602C225.3 31.8636 224.313 32.1282 223.309 32.1272C222.494 32.1829 221.677 32.0539 220.919 31.7496C220.161 31.4454 219.481 30.9738 218.931 30.3701C217.874 29.0339 217.343 27.3573 217.438 25.6566V16.1738H220.325V25.1267C220.325 27.9994 221.594 29.4358 224.132 29.4358C224.696 29.4533 225.256 29.336 225.765 29.0934C226.275 28.8508 226.719 28.4901 227.061 28.0412C227.809 27.093 228.208 25.9161 228.19 24.7083V16.1738H231.077V31.5694Z" fill="#343434"/>
<path d="M240.88 32.0714C239.901 32.0747 238.933 31.8657 238.042 31.4589C237.151 31.052 236.359 30.457 235.721 29.7147C234.275 28.1179 233.501 26.025 233.559 23.8716C233.501 21.7183 234.275 19.6254 235.721 18.0286C236.359 17.2863 237.151 16.6913 238.042 16.2844C238.933 15.8776 239.901 15.6686 240.88 15.6718C241.978 15.6545 243.061 15.9135 244.032 16.4249C244.885 16.8541 245.607 17.5042 246.124 18.3075H246.249L246.124 16.1739V9.04785H249.011V31.5694H246.222V29.4358H246.096C245.58 30.239 244.857 30.8892 244.004 31.3184C243.042 31.8253 241.968 32.0841 240.88 32.0714ZM241.355 29.4358C242.007 29.4453 242.654 29.3159 243.253 29.0563C243.851 28.7966 244.388 28.4126 244.827 27.9297C245.808 26.8132 246.309 25.3551 246.222 23.8716C246.309 22.3882 245.808 20.9301 244.827 19.8136C244.385 19.3281 243.847 18.9402 243.247 18.6748C242.646 18.4094 241.997 18.2723 241.341 18.2723C240.684 18.2723 240.035 18.4094 239.435 18.6748C238.834 18.9402 238.296 19.3281 237.854 19.8136C237.367 20.3628 236.993 21.0027 236.754 21.6966C236.515 22.3906 236.415 23.125 236.46 23.8577C236.415 24.5904 236.515 25.3248 236.754 26.0188C236.993 26.7127 237.367 27.3526 237.854 27.9018C238.294 28.3933 238.834 28.7847 239.438 29.0493C240.042 29.314 240.695 29.4458 241.355 29.4358Z" fill="#343434"/>
</g>
<defs>
<clipPath id="clip0_1016_43644">
<rect width="252.409" height="39.0467" fill="white" transform="translate(0.896851 0.680664)"/>
</clipPath>
</defs>
</svg>
