<svg width="64" height="64" viewBox="0 0 64 64" fill="none" xmlns="http://www.w3.org/2000/svg">
<path d="M32 5C16.5303 5 4.00049 17.3198 4.00049 32.5142C4.00049 44.673 12.0223 54.9838 23.1451 58.619C24.5451 58.878 25.0584 58.0264 25.0584 57.2961C25.0584 56.6427 25.0351 54.9114 25.0234 52.6178C17.2349 54.2768 15.5923 48.9265 15.5923 48.9265C14.3183 45.7509 12.4773 44.9016 12.4773 44.9016C9.94105 43.196 12.6733 43.231 12.6733 43.231C15.4849 43.4223 16.9619 46.0659 16.9619 46.0659C19.4585 50.2729 23.5161 49.0572 25.1168 48.3549C25.3688 46.5746 26.0898 45.3636 26.8901 44.6753C20.6719 43.987 14.1363 41.621 14.1363 31.0792C14.1363 28.0763 15.2213 25.6216 17.0179 23.6967C16.7029 23.0013 15.7579 20.2037 17.2629 16.4145C17.2629 16.4145 19.6079 15.6771 24.9628 19.2354C27.2027 18.6241 29.5827 18.3208 31.9627 18.3068C34.3426 18.3208 36.7226 18.6241 38.9625 19.2354C44.2824 15.6771 46.6274 16.4145 46.6274 16.4145C48.1324 20.2037 47.1874 23.0013 46.9074 23.6967C48.6923 25.6216 49.7773 28.0763 49.7773 31.0792C49.7773 41.649 43.2324 43.9753 37.0026 44.652C37.9825 45.4779 38.8925 47.1649 38.8925 49.7432C38.8925 53.4251 38.8575 56.3837 38.8575 57.2774C38.8575 57.9984 39.3475 58.8594 40.7825 58.584C51.9846 54.9721 59.9995 44.6543 59.9995 32.5142C59.9995 17.3198 47.4627 5 32 5Z" fill="black"/>
</svg>
