<svg width="106" height="40" viewBox="0 0 106 40" fill="none" xmlns="http://www.w3.org/2000/svg">
<g clip-path="url(#clip0_1016_43543)">
<path d="M8.22597 11.9676C8.02148 11.9676 7.97036 11.8658 8.07261 11.7131L9.14616 10.3385C9.2484 10.1858 9.50401 10.084 9.7085 10.084H27.9589C28.1634 10.084 28.2145 10.2367 28.1123 10.3894L27.2432 11.7131C27.141 11.8658 26.8854 12.0185 26.732 12.0185L8.22597 11.9676Z" fill="#343434"/>
<path d="M0.506611 16.6512C0.302124 16.6512 0.251002 16.5494 0.353246 16.3966L1.4268 15.0221C1.52904 14.8694 1.78465 14.7676 1.98914 14.7676H25.3006C25.5051 14.7676 25.6074 14.9203 25.5562 15.073L25.1473 16.2948C25.0961 16.4985 24.8917 16.6003 24.6872 16.6003L0.506611 16.6512Z" fill="#343434"/>
<path d="M12.8779 21.3348C12.6735 21.3348 12.6223 21.1821 12.7246 21.0293L13.4403 19.7566C13.5425 19.6039 13.747 19.4512 13.9515 19.4512H24.1758C24.3803 19.4512 24.4826 19.6039 24.4826 19.8075L24.3803 21.0293C24.3803 21.233 24.1758 21.3857 24.0225 21.3857L12.8779 21.3348Z" fill="#343434"/>
<path d="M65.9423 11.0515C62.7216 11.866 60.5234 12.4769 57.3539 13.2915C56.587 13.4951 56.5359 13.546 55.8713 12.7824C55.1045 11.9169 54.5422 11.357 53.4686 10.8479C50.248 9.26971 47.1295 9.72789 44.2156 11.6115C40.7393 13.8515 38.9501 17.1605 39.0012 21.2841C39.0523 25.3567 41.864 28.7167 45.9026 29.2767C49.3789 29.7349 52.2928 28.5131 54.5933 25.9167C55.0534 25.3567 55.4624 24.7458 55.9736 24.0331C54.1332 24.0331 51.8327 24.0331 46.1071 24.0331C45.0335 24.0331 44.7779 23.3713 45.1358 22.5059C45.8004 20.9277 47.0273 18.2805 47.743 16.9569C47.8964 16.6514 48.2542 16.1423 49.021 16.1423C51.6282 16.1423 61.2391 16.1423 67.6293 16.1423C67.5271 17.5169 67.5271 18.8914 67.3226 20.2659C66.7603 23.9313 65.38 27.2913 63.1306 30.2439C59.4499 35.0802 54.6444 38.0838 48.5609 38.8984C43.551 39.5602 38.8989 38.5929 34.8092 35.5384C31.0262 32.6875 28.8791 28.9203 28.3168 24.2368C27.6522 18.6878 29.2881 13.6987 32.6621 9.32062C36.2917 4.58615 41.0972 1.58256 46.9762 0.513482C51.7816 -0.35196 56.3826 0.208032 60.5234 3.00799C63.2329 4.78978 65.1755 7.23338 66.4535 10.1861C66.7603 10.6442 66.5558 10.8988 65.9423 11.0515Z" fill="#343434"/>
<path d="M82.8636 39.2041C78.2115 39.1023 73.9684 37.7787 70.3899 34.7242C67.3737 32.1278 65.4822 28.8188 64.8688 24.8988C63.9486 19.1462 65.5334 14.0554 69.0096 9.52453C72.7415 4.63733 77.2402 2.09192 83.3237 1.02284C88.5381 0.106492 93.4458 0.615576 97.8934 3.61917C101.932 6.36822 104.437 10.0845 105.102 14.9717C105.971 21.8443 103.977 27.4443 99.2226 32.2296C95.8485 35.6405 91.7077 37.7787 86.9534 38.7459C85.5731 39.0005 84.1928 39.0514 82.8636 39.2041ZM95.0306 18.6371C94.9795 17.9753 94.9795 17.4662 94.8772 16.9571C93.957 11.9172 89.305 9.06636 84.4484 10.1863C79.6941 11.2554 76.6268 14.259 75.5021 19.0444C74.5819 23.0152 76.5245 27.037 80.2053 28.6661C83.017 29.8879 85.8287 29.7351 88.5381 28.3606C92.5767 26.2734 94.775 23.0152 95.0306 18.6371Z" fill="#343434"/>
</g>
<defs>
<clipPath id="clip0_1016_43543">
<rect width="105.004" height="39.0467" fill="white" transform="translate(0.30188 0.157227)"/>
</clipPath>
</defs>
</svg>
