<svg width="64" height="64" viewBox="0 0 64 64" fill="none" xmlns="http://www.w3.org/2000/svg">
<path d="M4.82959 27.0701C4.70496 27.0701 4.6738 27.0047 4.73611 26.9067L5.39045 26.0238C5.45277 25.9257 5.60856 25.8604 5.73319 25.8604H16.8569C16.9815 25.8604 17.0126 25.9584 16.9503 26.0565L16.4206 26.9067C16.3583 27.0047 16.2025 27.1028 16.109 27.1028L4.82959 27.0701Z" fill="black"/>
<path d="M0.124635 30.0789C0 30.0789 -0.0311587 30.0135 0.0311587 29.9154L0.685492 29.0326C0.747809 28.9345 0.903603 28.8691 1.02824 28.8691H15.2366C15.3612 28.8691 15.4236 28.9672 15.3924 29.0653L15.1431 29.85C15.112 29.9808 14.9873 30.0462 14.8627 30.0462L0.124635 30.0789Z" fill="black"/>
<path d="M7.66504 33.0867C7.54041 33.0867 7.50925 32.9886 7.57156 32.8906L8.00779 32.0731C8.0701 31.975 8.19474 31.877 8.31937 31.877H14.5511C14.6758 31.877 14.7381 31.975 14.7381 32.1058L14.6758 32.8906C14.6758 33.0213 14.5511 33.1194 14.4576 33.1194L7.66504 33.0867Z" fill="black"/>
<path d="M40.0078 26.482C38.0448 27.0051 36.705 27.3975 34.7731 27.9207C34.3057 28.0514 34.2746 28.0841 33.8695 27.5937C33.4021 27.0378 33.0594 26.6782 32.4051 26.3512C30.4421 25.3376 28.5414 25.6319 26.7653 26.8417C24.6465 28.2803 23.556 30.4056 23.5871 33.0541C23.6183 35.6698 25.332 37.8278 27.7936 38.1875C29.9124 38.4818 31.6884 37.697 33.0905 36.0295C33.371 35.6698 33.6202 35.2775 33.9318 34.8197C32.8101 34.8197 31.408 34.8197 27.9182 34.8197C27.2639 34.8197 27.1081 34.3946 27.3262 33.8388C27.7312 32.8252 28.4791 31.125 28.9153 30.2748C29.0088 30.0787 29.2269 29.7517 29.6943 29.7517C31.2833 29.7517 37.1412 29.7517 41.036 29.7517C40.9737 30.6345 40.9737 31.5173 40.8491 32.4001C40.5063 34.7543 39.665 36.9123 38.2941 38.8087C36.0506 41.9149 33.1217 43.844 29.4138 44.3672C26.3603 44.7923 23.5248 44.171 21.0321 42.2092C18.7264 40.3782 17.4177 37.9586 17.075 34.9505C16.6699 31.3865 17.667 28.1822 19.7235 25.3703C21.9357 22.3295 24.8646 20.4004 28.4479 19.7137C31.3768 19.1579 34.1811 19.5176 36.705 21.3159C38.3564 22.4603 39.5404 24.0297 40.3194 25.9261C40.5063 26.2204 40.3817 26.3839 40.0078 26.482Z" fill="black"/>
<path d="M50.3213 44.5633C47.4859 44.498 44.8997 43.6478 42.7186 41.686C40.8802 40.0185 39.7274 37.8932 39.3535 35.3755C38.7926 31.6808 39.7585 28.4111 41.8773 25.5011C44.1519 22.3621 46.8939 20.7273 50.6017 20.0407C53.7799 19.4521 56.7712 19.7791 59.482 21.7082C61.9435 23.4738 63.4703 25.8607 63.8754 28.9996C64.4051 33.4137 63.1899 37.0104 60.2921 40.0839C58.2356 42.2746 55.7118 43.6478 52.814 44.2691C51.9727 44.4326 51.1314 44.4653 50.3213 44.5633ZM57.7371 31.3538C57.7059 30.9287 57.7059 30.6018 57.6436 30.2748C57.0828 27.0378 54.2473 25.2068 51.2872 25.9261C48.3895 26.6127 46.52 28.5419 45.8345 31.6154C45.2736 34.1657 46.4576 36.7488 48.7011 37.7951C50.4148 38.5798 52.1285 38.4817 53.7799 37.5989C56.2415 36.2583 57.5813 34.1657 57.7371 31.3538Z" fill="black"/>
</svg>
