<svg width="58" height="53" viewBox="0 0 58 53" fill="none" xmlns="http://www.w3.org/2000/svg">
<g clip-path="url(#clip0_3318_39797)">
<mask id="mask0_3318_39797" style="mask-type:luminance" maskUnits="userSpaceOnUse" x="0" y="1" width="58" height="81">
<path d="M0.00390625 1.04883H57.7898V81.5022H0.00390625V1.04883Z" fill="white"/>
</mask>
<g mask="url(#mask0_3318_39797)">
<path fill-rule="evenodd" clip-rule="evenodd" d="M1.4722 44.2765C1.5999 46.5113 3.83472 45.4897 4.85635 44.7874C5.81413 44.085 6.13338 44.6596 6.19724 43.3188C6.26109 42.4248 6.32494 41.5948 6.32494 40.7008C4.85635 40.5731 3.26005 40.8924 2.04687 41.7863C1.4722 42.2333 0.259015 43.7019 1.4722 44.2765Z" fill="#F6D2A2"/>
</g>
<mask id="mask1_3318_39797" style="mask-type:luminance" maskUnits="userSpaceOnUse" x="0" y="1" width="58" height="81">
<path d="M0.00390625 1.04883H57.7898V81.5022H0.00390625V1.04883Z" fill="white"/>
</mask>
<g mask="url(#mask1_3318_39797)">
<path d="M2.68564 45.8733C2.23868 45.8733 1.4086 45.6818 1.2809 44.4047C0.897786 44.1493 0.770083 43.8301 0.770083 43.6385C0.706231 42.8723 1.5363 41.9784 1.98327 41.6591C3.0049 40.8929 4.34579 40.5098 5.75053 40.5098H6.5806V40.7013C6.64445 41.4037 6.5806 42.1061 6.51675 42.7446C6.51675 42.9361 6.51675 43.1277 6.4529 43.3192C6.38905 44.277 6.19749 44.4047 5.75053 44.5963C5.55897 44.6601 5.36742 44.724 5.04816 44.9794C4.7289 45.171 3.64342 45.8733 2.68564 45.8733ZM5.75053 40.8929C4.40964 40.8929 3.19645 41.276 2.23867 41.9784C1.79171 42.2976 1.15319 43.0638 1.21705 43.5747C1.21705 43.7662 1.34475 43.9578 1.60016 44.0855L1.72786 44.1493V44.277C1.79171 45.2987 2.30253 45.4264 2.68564 45.4264C3.32416 45.4264 4.21808 44.9794 4.79275 44.5963C5.17586 44.3409 5.43127 44.277 5.62282 44.2132C5.94208 44.0855 6.00593 44.0855 6.06979 43.3192C6.06979 43.1277 6.06979 42.9361 6.13364 42.7446C6.19749 42.1699 6.19749 41.5314 6.19749 40.9567C6.00593 40.8929 5.87823 40.8929 5.75053 40.8929Z" fill="black"/>
</g>
<mask id="mask2_3318_39797" style="mask-type:luminance" maskUnits="userSpaceOnUse" x="0" y="1" width="58" height="81">
<path d="M0.00390625 1.04883H57.7898V81.5022H0.00390625V1.04883Z" fill="white"/>
</mask>
<g mask="url(#mask2_3318_39797)">
<path fill-rule="evenodd" clip-rule="evenodd" d="M1.47266 44.2764C1.79192 44.1487 2.17503 44.0849 2.36658 43.7656L1.47266 44.2764Z" fill="#C6B198"/>
</g>
<mask id="mask3_3318_39797" style="mask-type:luminance" maskUnits="userSpaceOnUse" x="0" y="1" width="58" height="81">
<path d="M0.00390625 1.04883H57.7898V81.5022H0.00390625V1.04883Z" fill="white"/>
</mask>
<g mask="url(#mask3_3318_39797)">
<path d="M1.47246 44.4673C1.40861 44.4673 1.28091 44.4034 1.28091 44.3395C1.21706 44.2118 1.28091 44.0841 1.40861 44.0841C1.47246 44.0841 1.53632 44.0203 1.53632 44.0203C1.79172 43.8926 2.04713 43.8287 2.17484 43.6372C2.23869 43.5733 2.36639 43.5095 2.49409 43.5733C2.55795 43.6372 2.6218 43.7649 2.55795 43.8926C2.30254 44.2118 1.98328 44.3395 1.72787 44.4034L1.60017 44.4673H1.47246Z" fill="black"/>
</g>
<mask id="mask4_3318_39797" style="mask-type:luminance" maskUnits="userSpaceOnUse" x="0" y="1" width="58" height="81">
<path d="M0.00390625 1.04883H57.7898V81.5022H0.00390625V1.04883Z" fill="white"/>
</mask>
<g mask="url(#mask4_3318_39797)">
<path fill-rule="evenodd" clip-rule="evenodd" d="M6.70811 17.2658C-1.97575 14.8394 4.47329 3.79308 11.4331 8.32656L6.70811 17.2658Z" fill="#6AD7E5"/>
</g>
<mask id="mask5_3318_39797" style="mask-type:luminance" maskUnits="userSpaceOnUse" x="0" y="1" width="58" height="81">
<path d="M0.00390625 1.04883H57.7898V81.5022H0.00390625V1.04883Z" fill="white"/>
</mask>
<g mask="url(#mask5_3318_39797)">
<path d="M6.83589 17.5225L6.64434 17.4586C2.17471 16.1816 2.23856 12.989 2.36626 12.0312C2.68552 9.60486 4.98419 7.05078 8.04908 7.05078C9.26226 7.05078 10.4116 7.43389 11.5609 8.20011L11.7525 8.32782L6.83589 17.5225ZM8.04908 7.49774C5.17574 7.49774 3.06863 9.86026 2.74937 12.0951C2.43011 14.3937 3.83485 16.1816 6.58048 17.0117L11.114 8.39167C10.1562 7.817 9.13456 7.49774 8.04908 7.49774Z" fill="black"/>
</g>
<mask id="mask6_3318_39797" style="mask-type:luminance" maskUnits="userSpaceOnUse" x="0" y="1" width="58" height="81">
<path d="M0.00390625 1.04883H57.7898V81.5022H0.00390625V1.04883Z" fill="white"/>
</mask>
<g mask="url(#mask6_3318_39797)">
<path fill-rule="evenodd" clip-rule="evenodd" d="M45.2109 7.49923C52.0431 2.71035 58.3006 13.5652 50.3191 16.3108L45.2109 7.49923Z" fill="#6AD7E5"/>
</g>
<mask id="mask7_3318_39797" style="mask-type:luminance" maskUnits="userSpaceOnUse" x="0" y="1" width="58" height="81">
<path d="M0.00390625 1.04883H57.7898V81.5022H0.00390625V1.04883Z" fill="white"/>
</mask>
<g mask="url(#mask7_3318_39797)">
<path d="M50.2558 16.5649L44.9561 7.43404L45.1476 7.30633C46.3608 6.47626 47.574 6.0293 48.7872 6.0293C51.7244 6.0293 53.8315 8.45567 54.2784 10.8182C54.47 11.776 54.6615 15.0324 50.4473 16.4371L50.2558 16.5649ZM45.5307 7.62559L50.4473 16.1179C52.9375 15.224 54.2146 13.3084 53.8315 11.0097C53.4484 8.83878 51.4689 6.60396 48.7872 6.60396C47.7017 6.54011 46.6162 6.85937 45.5307 7.62559Z" fill="black"/>
</g>
<mask id="mask8_3318_39797" style="mask-type:luminance" maskUnits="userSpaceOnUse" x="0" y="1" width="58" height="81">
<path d="M0.00390625 1.04883H57.7898V81.5022H0.00390625V1.04883Z" fill="white"/>
</mask>
<g mask="url(#mask8_3318_39797)">
<path fill-rule="evenodd" clip-rule="evenodd" d="M7.09119 14.2662C5.94186 13.6915 5.11178 12.8614 5.81415 11.5205C6.45267 10.3073 7.66586 10.435 8.81519 11.0097L7.09119 14.2662ZM48.531 13.1168C49.6804 12.5422 50.5104 11.7121 49.8081 10.3712C49.1696 9.15801 47.9564 9.28571 46.807 9.86038L48.531 13.1168Z" fill="black"/>
</g>
<mask id="mask9_3318_39797" style="mask-type:luminance" maskUnits="userSpaceOnUse" x="0" y="1" width="58" height="81">
<path d="M0.00390625 1.04883H57.7898V81.5022H0.00390625V1.04883Z" fill="white"/>
</mask>
<g mask="url(#mask9_3318_39797)">
<path fill-rule="evenodd" clip-rule="evenodd" d="M56.385 43.9582C56.2573 46.193 54.0225 45.1714 53.0008 44.469C52.043 43.7666 51.7238 44.3413 51.6599 43.0004C51.5961 42.1065 51.5322 41.2764 51.5322 40.3825C53.0008 40.2548 54.5971 40.574 55.8103 41.468C56.4488 41.9788 57.5982 43.3835 56.385 43.9582Z" fill="#F6D2A2"/>
</g>
<mask id="mask10_3318_39797" style="mask-type:luminance" maskUnits="userSpaceOnUse" x="0" y="1" width="58" height="81">
<path d="M0.00390625 1.04883H57.7898V81.5022H0.00390625V1.04883Z" fill="white"/>
</mask>
<g mask="url(#mask10_3318_39797)">
<path d="M55.2359 45.555C54.2781 45.555 53.1926 44.8526 52.8733 44.661C52.5541 44.4695 52.3625 44.3418 52.171 44.2779C51.6602 44.0864 51.5325 43.9587 51.4686 43.0009C51.4686 42.8093 51.4686 42.6178 51.4048 42.4262C51.3409 41.7877 51.277 41.0853 51.3409 40.383V40.1914H52.171C53.5757 40.1914 54.9166 40.5745 55.9382 41.3407C56.3852 41.66 57.2153 42.5539 57.1514 43.3201C57.1514 43.5756 57.0237 43.8948 56.6406 44.0864C56.5129 45.3634 55.6828 45.555 55.2359 45.555ZM51.724 40.6384C51.724 41.213 51.724 41.8516 51.7879 42.4262C51.7879 42.6178 51.7879 42.8093 51.8517 43.0009C51.9156 43.7671 51.9794 43.7671 52.2987 43.8948C52.4902 43.9587 52.7456 44.0864 53.1288 44.2779C53.7034 44.661 54.5973 45.108 55.2359 45.108C55.619 45.108 56.1298 44.9803 56.1936 43.9587V43.831L56.3213 43.7671C56.5768 43.6394 56.7045 43.5117 56.7045 43.2563C56.7683 42.7455 56.1298 41.9793 55.6828 41.66C54.7251 40.9576 53.448 40.5745 52.171 40.5745C52.0433 40.6384 51.9156 40.6384 51.724 40.6384Z" fill="black"/>
</g>
<mask id="mask11_3318_39797" style="mask-type:luminance" maskUnits="userSpaceOnUse" x="0" y="1" width="58" height="81">
<path d="M0.00390625 1.04883H57.7898V81.5022H0.00390625V1.04883Z" fill="white"/>
</mask>
<g mask="url(#mask11_3318_39797)">
<path fill-rule="evenodd" clip-rule="evenodd" d="M56.3851 43.9581C56.0659 43.8304 55.6828 43.7665 55.4912 43.4473L56.3851 43.9581Z" fill="#C6B198"/>
</g>
<mask id="mask12_3318_39797" style="mask-type:luminance" maskUnits="userSpaceOnUse" x="0" y="1" width="58" height="81">
<path d="M0.00390625 1.04883H57.7898V81.5022H0.00390625V1.04883Z" fill="white"/>
</mask>
<g mask="url(#mask12_3318_39797)">
<path d="M56.3858 44.2132H56.322L56.1943 44.1494C55.875 44.0217 55.5558 43.9578 55.3642 43.6385C55.3004 43.5747 55.3004 43.3831 55.4281 43.3193C55.4919 43.2554 55.6835 43.2554 55.7473 43.3831C55.875 43.5747 56.1304 43.6385 56.3858 43.7662C56.4497 43.7662 56.5135 43.8301 56.5135 43.8301C56.6412 43.894 56.7051 44.0217 56.6412 44.0855C56.5774 44.1494 56.4497 44.2132 56.3858 44.2132Z" fill="black"/>
</g>
<mask id="mask13_3318_39797" style="mask-type:luminance" maskUnits="userSpaceOnUse" x="0" y="1" width="58" height="81">
<path d="M0.00390625 1.04883H57.7898V81.5022H0.00390625V1.04883Z" fill="white"/>
</mask>
<g mask="url(#mask13_3318_39797)">
<path fill-rule="evenodd" clip-rule="evenodd" d="M28.0989 2.96484C36.7827 2.96484 44.8919 4.17803 49.17 12.5426C53.0011 21.865 51.5964 31.9536 52.2349 41.8506C52.7457 50.3429 53.8312 60.1123 49.9362 67.966C45.7859 76.2029 35.4419 78.31 26.9496 77.9908C20.2451 77.7354 12.1998 75.5644 8.36867 69.4346C3.96289 62.2832 6.00615 51.62 6.32541 43.6385C6.70852 34.1884 3.77133 24.6745 6.90008 15.4798C10.0288 5.83818 18.7127 3.66721 28.0989 2.96484Z" fill="#6AD7E5"/>
</g>
<mask id="mask14_3318_39797" style="mask-type:luminance" maskUnits="userSpaceOnUse" x="0" y="1" width="58" height="81">
<path d="M0.00390625 1.04883H57.7898V81.5022H0.00390625V1.04883Z" fill="white"/>
</mask>
<g mask="url(#mask14_3318_39797)">
<path d="M28.4184 78.2467H26.8221C24.2041 78.1828 20.2453 77.7359 16.3504 76.1396C12.5831 74.6071 9.83746 72.4362 8.04961 69.5628C4.4739 63.7523 5.11242 55.7708 5.68709 48.6833C5.81479 46.8954 5.9425 45.2353 6.00635 43.639C6.13405 40.3187 5.87865 36.8707 5.55939 33.6142C5.04857 27.6122 4.53776 21.4185 6.51716 15.4165C8.04961 10.9468 10.7952 7.75424 14.9456 5.71098C18.2021 4.11468 22.2247 3.22076 27.9714 2.77379C36.5275 2.70994 45.0198 3.92313 49.2979 12.4154C52.1074 19.2476 52.1074 26.5905 52.1712 33.6781C52.1712 36.3599 52.1712 39.1055 52.3628 41.7873C52.4266 42.6174 52.4905 43.4474 52.4905 44.2775C53.0013 52.0674 53.576 60.879 50.0003 68.0304C48.2124 71.6699 45.0837 74.3517 40.8056 76.0757C37.3576 77.4805 33.0157 78.2467 28.4184 78.2467ZM28.0991 3.1569C19.096 3.85927 10.2844 5.83868 7.02798 15.5442C5.04857 21.4824 5.55939 27.6122 6.0702 33.5504C6.32561 36.8707 6.64487 40.2548 6.51716 43.639C6.45331 45.2353 6.32561 46.8954 6.19791 48.6833C5.62324 55.707 4.98472 63.6246 8.49657 69.3074C9.96516 71.6699 14.6902 77.2889 26.8859 77.7359H28.4822C42.5935 77.7359 47.8293 71.4784 49.7449 67.775C53.2567 60.7513 52.682 51.9397 52.2351 44.2136C52.1712 43.3836 52.1074 42.5535 52.1074 41.7234C51.9797 39.0416 51.9158 36.296 51.9158 33.6142C51.852 26.5905 51.852 19.2476 49.1063 12.4793C47.1908 8.71201 44.3175 6.15794 40.3586 4.68935C36.2721 3.34846 31.6748 3.1569 28.0991 3.1569Z" fill="black"/>
</g>
<mask id="mask15_3318_39797" style="mask-type:luminance" maskUnits="userSpaceOnUse" x="0" y="1" width="58" height="81">
<path d="M0.00390625 1.04883H57.7898V81.5022H0.00390625V1.04883Z" fill="white"/>
</mask>
<g mask="url(#mask15_3318_39797)">
<path fill-rule="evenodd" clip-rule="evenodd" d="M29.6311 14.5849C31.1635 23.6518 45.9771 21.2255 43.87 12.0946C41.9545 3.92161 29.1202 6.22028 29.6311 14.5849Z" fill="white"/>
</g>
<mask id="mask16_3318_39797" style="mask-type:luminance" maskUnits="userSpaceOnUse" x="0" y="1" width="58" height="81">
<path d="M0.00390625 1.04883H57.7898V81.5022H0.00390625V1.04883Z" fill="white"/>
</mask>
<g mask="url(#mask16_3318_39797)">
<path d="M36.6545 20.5237C33.7811 20.5237 30.1416 18.9912 29.3754 14.6493C29.2477 12.606 29.8862 10.7543 31.2271 9.3496C32.6957 7.7533 34.9305 6.85938 37.2292 6.85938C39.9109 6.85938 43.1035 8.26412 43.9974 12.1591C44.5083 14.33 44.1252 16.2456 42.912 17.778C41.5711 19.4382 39.2086 20.5237 36.6545 20.5237ZM29.8223 14.5854C30.1416 16.3733 30.9717 17.778 32.3126 18.7997C33.4619 19.6936 35.0582 20.1406 36.6545 20.1406C39.017 20.1406 41.3157 19.1189 42.5927 17.5226C43.742 16.1179 44.0613 14.2662 43.6143 12.2229C42.7843 8.58337 39.7832 7.30634 37.2292 7.30634C35.0582 7.30634 32.9511 8.20026 31.5463 9.66886C30.3331 10.9459 29.6946 12.6699 29.8223 14.5854Z" fill="black"/>
</g>
<mask id="mask17_3318_39797" style="mask-type:luminance" maskUnits="userSpaceOnUse" x="0" y="1" width="58" height="81">
<path d="M0.00390625 1.04883H57.7898V81.5022H0.00390625V1.04883Z" fill="white"/>
</mask>
<g mask="url(#mask17_3318_39797)">
<path fill-rule="evenodd" clip-rule="evenodd" d="M11.9442 16.0537C13.9875 23.9075 26.5663 21.9281 26.1193 14.0105C25.5446 4.5604 9.96479 6.34825 11.9442 16.0537Z" fill="white"/>
</g>
<mask id="mask18_3318_39797" style="mask-type:luminance" maskUnits="userSpaceOnUse" x="0" y="1" width="58" height="81">
<path d="M0.00390625 1.04883H57.7898V81.5022H0.00390625V1.04883Z" fill="white"/>
</mask>
<g mask="url(#mask18_3318_39797)">
<path d="M18.649 21.2887C15.9034 21.2887 12.7108 19.9478 11.6891 16.1167C11.2422 13.8819 11.6891 11.8386 12.9662 10.3062C14.3709 8.58218 16.6696 7.56055 19.1598 7.56055C22.4801 7.56055 25.9919 9.53995 26.2474 14.0096C26.3751 15.8613 25.8004 17.5214 24.5234 18.8623C23.1825 20.3309 20.9476 21.2887 18.649 21.2887ZM19.1598 8.00751C16.7973 8.00751 14.6263 8.96529 13.2854 10.5616C12.0722 12.0302 11.6891 13.8819 12.1361 15.989C13.03 19.5647 16.0949 20.8417 18.649 20.8417C20.8199 20.8417 22.9271 20.0117 24.2679 18.5431C25.4173 17.3299 25.9919 15.7336 25.8642 14.0096C25.7365 11.264 23.8848 8.00751 19.1598 8.00751Z" fill="black"/>
</g>
<mask id="mask19_3318_39797" style="mask-type:luminance" maskUnits="userSpaceOnUse" x="0" y="1" width="58" height="81">
<path d="M0.00390625 1.04883H57.7898V81.5022H0.00390625V1.04883Z" fill="white"/>
</mask>
<g mask="url(#mask19_3318_39797)">
<path fill-rule="evenodd" clip-rule="evenodd" d="M31.4193 25.4414C31.4193 26.5907 31.6747 27.9316 31.4832 29.2087C31.1639 29.7833 30.5892 29.8472 30.0784 30.0387C29.376 29.911 28.8014 29.4641 28.4821 28.8255C28.2906 27.4208 28.546 26.0161 28.6098 24.6113L31.4193 25.4414Z" fill="white"/>
</g>
<mask id="mask20_3318_39797" style="mask-type:luminance" maskUnits="userSpaceOnUse" x="0" y="1" width="58" height="81">
<path d="M0.00390625 1.04883H57.7898V81.5022H0.00390625V1.04883Z" fill="white"/>
</mask>
<g mask="url(#mask20_3318_39797)">
<path d="M30.0784 30.2923C29.2483 30.1646 28.6098 29.6538 28.2905 28.9515C28.1628 27.9298 28.2267 26.972 28.2905 26.0143C28.3544 25.5673 28.3544 25.1203 28.3544 24.6734V24.418L31.6108 25.4396V25.5673C31.6108 25.9504 31.6747 26.3335 31.6747 26.7805C31.7385 27.6106 31.8024 28.5045 31.6747 29.3346V29.3984C31.4193 29.9092 30.9723 30.0369 30.5253 30.2285C30.3976 30.1646 30.2699 30.2285 30.0784 30.2923ZM28.6736 28.7599C28.929 29.3346 29.4399 29.7177 30.0145 29.8454C30.1422 29.7815 30.2699 29.7815 30.3338 29.7177C30.7169 29.59 31.0362 29.4623 31.2277 29.143C31.3554 28.3768 31.2916 27.5467 31.2277 26.7166C31.2277 26.3335 31.1639 25.9504 31.1639 25.6312L28.7375 24.8649C28.7375 25.248 28.6736 25.6312 28.6736 25.9504C28.6098 26.972 28.5459 27.866 28.6736 28.7599Z" fill="black"/>
</g>
<mask id="mask21_3318_39797" style="mask-type:luminance" maskUnits="userSpaceOnUse" x="0" y="1" width="58" height="81">
<path d="M0.00390625 1.04883H57.7898V81.5022H0.00390625V1.04883Z" fill="white"/>
</mask>
<g mask="url(#mask21_3318_39797)">
<path fill-rule="evenodd" clip-rule="evenodd" d="M17.5638 14.7772C17.5638 16.0542 16.6061 17.0758 15.4567 17.0758C14.3074 17.0758 13.3496 16.0542 13.3496 14.7772C13.3496 13.5001 14.3074 12.4785 15.4567 12.4785C16.6061 12.4785 17.5638 13.5001 17.5638 14.7772Z" fill="black"/>
</g>
<mask id="mask22_3318_39797" style="mask-type:luminance" maskUnits="userSpaceOnUse" x="0" y="1" width="58" height="81">
<path d="M0.00390625 1.04883H57.7898V81.5022H0.00390625V1.04883Z" fill="white"/>
</mask>
<g mask="url(#mask22_3318_39797)">
<path fill-rule="evenodd" clip-rule="evenodd" d="M16.8605 15.2876C16.8605 15.6068 16.6051 15.8622 16.3497 15.8622C16.0943 15.8622 15.8389 15.6068 15.8389 15.2876C15.8389 14.9683 16.0943 14.7129 16.3497 14.7129C16.6689 14.7129 16.8605 14.9683 16.8605 15.2876Z" fill="white"/>
</g>
<mask id="mask23_3318_39797" style="mask-type:luminance" maskUnits="userSpaceOnUse" x="0" y="1" width="58" height="81">
<path d="M0.00390625 1.04883H57.7898V81.5022H0.00390625V1.04883Z" fill="white"/>
</mask>
<g mask="url(#mask23_3318_39797)">
<path fill-rule="evenodd" clip-rule="evenodd" d="M35.3783 14.203C35.3783 15.48 34.4205 16.5016 33.2712 16.5016C32.1218 16.5016 31.1641 15.48 31.1641 14.203C31.1641 12.9259 32.1218 11.9043 33.2712 11.9043C34.4205 11.9043 35.3783 12.9259 35.3783 14.203Z" fill="black"/>
</g>
<mask id="mask24_3318_39797" style="mask-type:luminance" maskUnits="userSpaceOnUse" x="0" y="1" width="58" height="81">
<path d="M0.00390625 1.04883H57.7898V81.5022H0.00390625V1.04883Z" fill="white"/>
</mask>
<g mask="url(#mask24_3318_39797)">
<path fill-rule="evenodd" clip-rule="evenodd" d="M34.74 14.7133C34.74 15.0326 34.5484 15.288 34.2292 15.288C33.9738 15.288 33.7184 15.0326 33.7184 14.7133C33.7184 14.3941 33.9099 14.1387 34.2292 14.1387C34.4846 14.1387 34.74 14.3941 34.74 14.7133ZM25.2899 25.3127C24.3322 27.5476 25.8007 32.081 28.3548 28.7607C28.1633 27.356 28.4187 25.9513 28.4825 24.5465L25.2899 25.3127Z" fill="white"/>
</g>
<mask id="mask25_3318_39797" style="mask-type:luminance" maskUnits="userSpaceOnUse" x="0" y="1" width="58" height="81">
<path d="M0.00390625 1.04883H57.7898V81.5022H0.00390625V1.04883Z" fill="white"/>
</mask>
<g mask="url(#mask25_3318_39797)">
<path d="M26.6303 30.1667C26.1833 30.1667 25.7363 29.9113 25.4171 29.4005C24.7147 28.3789 24.587 26.4633 25.0978 25.2501L25.1617 25.1224L28.6735 24.2285V24.4839L28.6097 25.8887C28.5458 26.8464 28.482 27.7404 28.6097 28.6981V28.762L28.5458 28.8258C27.9073 29.7198 27.2688 30.1667 26.6303 30.1667ZM25.4809 25.5056C25.0978 26.591 25.2255 28.315 25.8002 29.1451C26.0556 29.5282 26.311 29.7198 26.6303 29.7198C27.0772 29.7198 27.588 29.3367 28.0989 28.6981C27.9711 27.7404 28.035 26.7826 28.1627 25.8887L28.2266 24.8032L25.4809 25.5056Z" fill="black"/>
</g>
<mask id="mask26_3318_39797" style="mask-type:luminance" maskUnits="userSpaceOnUse" x="0" y="1" width="58" height="81">
<path d="M0.00390625 1.04883H57.7898V81.5022H0.00390625V1.04883Z" fill="white"/>
</mask>
<g mask="url(#mask26_3318_39797)">
<path fill-rule="evenodd" clip-rule="evenodd" d="M25.608 20.9703C23.884 21.098 22.4793 23.2051 23.3732 24.8014C24.5864 26.9723 27.2043 24.6098 28.8645 24.8014C30.78 24.8652 32.3125 26.8446 33.8449 25.1845C35.5689 23.3328 33.0787 21.5449 31.227 20.7148L25.608 20.9703Z" fill="#F6D2A2"/>
</g>
<mask id="mask27_3318_39797" style="mask-type:luminance" maskUnits="userSpaceOnUse" x="0" y="1" width="58" height="81">
<path d="M0.00390625 1.04883H57.7898V81.5022H0.00390625V1.04883Z" fill="white"/>
</mask>
<g mask="url(#mask27_3318_39797)">
<path d="M32.5043 26.0785C31.9297 26.0785 31.355 25.8231 30.7803 25.5677C30.2057 25.3123 29.5671 25.0569 28.8648 25.0569H28.6732C28.1624 25.0569 27.5877 25.2485 26.9492 25.5039C26.2468 25.7593 25.5445 25.9508 24.906 25.9508C24.1397 25.9508 23.5651 25.6316 23.182 24.9292C22.735 24.163 22.7988 23.2691 23.2458 22.439C23.7566 21.4812 24.6505 20.9065 25.6083 20.7788L31.2911 20.5234H31.355C32.7597 21.0981 34.356 22.1836 34.6753 23.4606C34.803 24.0991 34.6114 24.7377 34.1006 25.3123C33.5898 25.887 33.079 26.0785 32.5043 26.0785ZM28.9286 24.6738C29.631 24.6738 30.3334 24.9931 30.9719 25.2485C31.5465 25.5039 32.0574 25.6954 32.5682 25.6954C33.0151 25.6954 33.3982 25.5039 33.7814 25.1208C34.2283 24.6738 34.356 24.163 34.2922 23.6522C34.0368 22.5667 32.5043 21.5451 31.2911 21.0343L25.736 21.2897C24.906 21.3535 24.1397 21.9282 23.6928 22.6944C23.3097 23.3968 23.3097 24.163 23.6289 24.8015C23.9482 25.3762 24.3313 25.6316 24.9698 25.6316C25.5445 25.6316 26.183 25.3762 26.8215 25.1846C27.5239 24.9292 28.0985 24.7377 28.7371 24.7377C28.7371 24.61 28.8009 24.61 28.9286 24.6738Z" fill="#231F20"/>
</g>
<mask id="mask28_3318_39797" style="mask-type:luminance" maskUnits="userSpaceOnUse" x="0" y="1" width="58" height="81">
<path d="M0.00390625 1.04883H57.7898V81.5022H0.00390625V1.04883Z" fill="white"/>
</mask>
<g mask="url(#mask28_3318_39797)">
<path fill-rule="evenodd" clip-rule="evenodd" d="M25.4171 20.907C25.2894 17.906 31.0361 17.5229 31.6746 20.0131C32.377 22.5672 25.6725 23.1418 25.4171 20.907Z" fill="black"/>
</g>
</g>
<defs>
<clipPath id="clip0_3318_39797">
<rect width="58" height="52" fill="white" transform="translate(0 0.410156)"/>
</clipPath>
</defs>
</svg>
