<svg width="84" height="12" viewBox="0 0 84 12" fill="none" xmlns="http://www.w3.org/2000/svg">
<g id="#006cb7ff">
<path id="Vector" d="M41.6912 0.671103C45.8705 -0.167507 50.1846 -0.154632 54.4051 0.349221C56.1493 0.575826 57.9647 0.805006 59.502 1.72602C60.3998 2.24618 61.0942 3.19122 61.1268 4.253C58.2496 4.31223 55.3725 4.28219 52.4961 4.2736C51.6369 3.27019 50.2635 2.95603 48.9992 2.89852C47.3048 2.84187 45.5435 2.96977 43.9916 3.70795C42.68 4.3294 41.5547 5.48045 41.2079 6.91819C41.0388 7.57311 41.462 8.25035 42.0371 8.54648C43.1487 9.11385 44.4233 9.17994 45.6473 9.22543C47.249 9.28981 48.9177 8.99025 50.2773 8.10185C50.412 8.02546 50.5296 7.8804 50.7013 7.90186C53.6103 7.89156 56.5201 7.89585 59.429 7.90872C58.4273 9.02973 57.0952 9.79967 55.7081 10.3439C53.969 11.0271 52.1219 11.3859 50.2764 11.6323C48.2284 11.876 46.1658 12.0262 44.1032 11.9962C41.3127 11.9807 38.4904 11.7996 35.7986 11.0185C34.5574 10.6314 33.3051 10.0383 32.4957 8.98252C31.821 8.14563 31.7266 6.92934 32.1686 5.9637C32.742 4.69334 33.8639 3.7749 35.0407 3.08307C37.0964 1.90112 39.3745 1.14663 41.6912 0.671103Z" fill="#006CB7"/>
<path id="Vector_2" d="M5.08484 0.401173C8.10881 0.352247 11.1336 0.429499 14.1585 0.417482C13.6023 1.67325 13.0375 2.92644 12.4795 4.18221C15.4228 4.18736 18.3661 4.17191 21.3094 4.18994C21.8854 2.93846 22.4218 1.66724 22.9986 0.415765C26.1067 0.412332 29.214 0.404607 32.3221 0.416623C30.6354 4.14359 28.9556 7.87227 27.2767 11.6027C24.6733 11.6593 22.069 11.625 19.4657 11.6327C18.973 11.6379 18.4786 11.649 17.9902 11.5803C18.6786 10.116 19.3283 8.63362 19.9901 7.15812C17.0382 7.15726 14.0855 7.15726 11.1336 7.15726C10.4933 8.63706 9.83238 10.1083 9.21265 11.5958C6.15349 11.661 3.09432 11.6361 0.0351562 11.619C1.69349 7.86797 3.4162 4.14616 5.08484 0.401173Z" fill="#006CB7"/>
<path id="Vector_3" d="M65.4861 0.382812C68.6114 0.382812 71.7375 0.382812 74.8627 0.382812C73.5967 3.22224 72.3229 6.05737 71.0439 8.89165C75.3511 8.89423 79.6592 8.90453 83.9664 8.90367C83.557 9.8118 83.1484 10.7199 82.7381 11.6272C75.3108 11.6332 67.8835 11.6349 60.457 11.6264C62.1128 7.86936 63.8055 4.12866 65.4861 0.382812Z" fill="#006CB7"/>
</g>
</svg>
