<svg width="84" height="12" viewBox="0 0 84 12" fill="none" xmlns="http://www.w3.org/2000/svg">
<path d="M41.6902 0.671103C45.8695 -0.167507 50.1836 -0.154632 54.4041 0.349221C56.1483 0.575826 57.9637 0.805006 59.501 1.72602C60.3988 2.24618 61.0932 3.19122 61.1259 4.253C58.2487 4.31223 55.3715 4.28219 52.4951 4.2736C51.6359 3.27019 50.2626 2.95603 48.9982 2.89852C47.3038 2.84187 45.5425 2.96977 43.9906 3.70795C42.679 4.3294 41.5537 5.48045 41.207 6.91819C41.0379 7.57311 41.461 8.25035 42.0361 8.54648C43.1477 9.11385 44.4223 9.17994 45.6464 9.22543C47.248 9.28981 48.9167 8.99025 50.2763 8.10185C50.4111 8.02546 50.5287 7.8804 50.7003 7.90186C53.6093 7.89156 56.5191 7.89585 59.428 7.90872C58.4264 9.02973 57.0942 9.79967 55.7071 10.3439C53.9681 11.0271 52.1209 11.3859 50.2754 11.6323C48.2274 11.876 46.1648 12.0262 44.1022 11.9962C41.3117 11.9807 38.4894 11.7996 35.7976 11.0185C34.5565 10.6314 33.3041 10.0383 32.4947 8.98252C31.82 8.14563 31.7256 6.92934 32.1677 5.9637C32.741 4.69334 33.8629 3.7749 35.0397 3.08307C37.0955 1.90112 39.3735 1.14663 41.6902 0.671103Z" fill="#006CB7"/>
<path d="M5.08386 0.401173C8.10783 0.352247 11.1327 0.429499 14.1575 0.417482C13.6013 1.67325 13.0365 2.92644 12.4786 4.18221C15.4218 4.18736 18.3651 4.17191 21.3084 4.18994C21.8844 2.93846 22.4208 1.66724 22.9977 0.415765C26.1058 0.412332 29.213 0.404607 32.3211 0.416623C30.6344 4.14359 28.9546 7.87226 27.2757 11.6027C24.6723 11.6593 22.0681 11.625 19.4647 11.6327C18.972 11.6379 18.4776 11.649 17.9892 11.5803C18.6776 10.116 19.3273 8.63362 19.9891 7.15812C17.0373 7.15726 14.0845 7.15726 11.1327 7.15726C10.4923 8.63706 9.8314 10.1083 9.21167 11.5958C6.15251 11.661 3.09334 11.6361 0.0341797 11.619C1.69251 7.86797 3.41523 4.14616 5.08386 0.401173Z" fill="#006CB7"/>
<path d="M65.4851 0.382812C68.6104 0.382812 71.7365 0.382812 74.8618 0.382812C73.5957 3.22224 72.3219 6.05737 71.043 8.89165C75.3502 8.89423 79.6582 8.90453 83.9654 8.90367C83.556 9.8118 83.1474 10.7199 82.7371 11.6272C75.3098 11.6332 67.8825 11.6349 60.4561 11.6264C62.1118 7.86936 63.8045 4.12866 65.4851 0.382812Z" fill="#006CB7"/>
</svg>
