<svg width="84" height="40" viewBox="0 0 84 40" fill="none" xmlns="http://www.w3.org/2000/svg">
<path d="M23.9599 0.879883C24.0507 0.879883 24.1416 0.879883 24.2376 0.879883C24.4605 3.63354 23.4095 5.69106 22.1321 7.18105C20.8787 8.66076 19.1624 10.0959 16.3865 9.87813C16.2013 7.16391 17.254 5.25898 18.5297 3.77242C19.7128 2.38702 21.8818 1.15422 23.9599 0.879883Z" fill="#343434"/>
<path d="M32.3631 29.5415C32.3631 29.5689 32.3631 29.5929 32.3631 29.6186C31.583 31.9814 30.4702 34.0063 29.1122 35.8855C27.8726 37.5915 26.3534 39.8874 23.6409 39.8874C21.2971 39.8874 19.7402 38.3803 17.338 38.3391C14.797 38.298 13.3996 39.5993 11.0763 39.9268C10.8106 39.9268 10.5448 39.9268 10.2842 39.9268C8.57814 39.6799 7.20131 38.3288 6.19827 37.1115C3.24057 33.5142 0.955007 28.8676 0.529785 22.9214C0.529785 22.3384 0.529785 21.7572 0.529785 21.1742C0.709819 16.9186 2.77763 13.4585 5.52614 11.7816C6.9767 10.89 8.97078 10.1304 11.1912 10.4699C12.1428 10.6174 13.115 10.9432 13.9671 11.2655C14.7747 11.5759 15.7846 12.1262 16.7414 12.0971C17.3895 12.0782 18.0342 11.7405 18.6874 11.5021C20.6009 10.8111 22.4767 10.019 24.9492 10.3911C27.9206 10.8403 30.0296 12.1605 31.3327 14.1975C28.819 15.7972 26.8318 18.2079 27.1713 22.3247C27.4731 26.0643 29.6472 28.2521 32.3631 29.5415Z" fill="#343434"/>
<path d="M41.4453 34.12H43.776V19.6798H41.4453V34.12ZM42.624 16.8936C43.0706 16.8936 43.4501 16.7373 43.7626 16.4248C44.0752 16.1033 44.2315 15.7237 44.2315 15.2862C44.2315 14.8396 44.0752 14.4601 43.7626 14.1475C43.4501 13.835 43.0706 13.6787 42.624 13.6787C42.1865 13.6787 41.8069 13.835 41.4854 14.1475C41.1729 14.4601 41.0166 14.8396 41.0166 15.2862C41.0166 15.7237 41.1729 16.1033 41.4854 16.4248C41.8069 16.7373 42.1865 16.8936 42.624 16.8936Z" fill="#343434"/>
<path d="M56.582 34.5755C58.4216 34.5755 60.0023 34.1602 61.3239 33.3297C62.6546 32.4992 63.6726 31.3293 64.3781 29.8201C65.0925 28.302 65.4497 26.5159 65.4497 24.462V24.4352C65.4497 22.3723 65.0925 20.5862 64.3781 19.077C63.6637 17.5589 62.6412 16.389 61.3106 15.5675C59.9889 14.7459 58.4127 14.3351 56.582 14.3351C54.7602 14.3351 53.184 14.7459 51.8534 15.5675C50.5318 16.389 49.5093 17.5544 48.7859 19.0636C48.0715 20.5728 47.7143 22.3634 47.7143 24.4352V24.462C47.7143 26.5159 48.067 28.302 48.7725 29.8201C49.4869 31.3382 50.505 32.5126 51.8266 33.3431C53.1483 34.1647 54.7334 34.5755 56.582 34.5755ZM56.582 32.3518C55.2425 32.3518 54.0949 32.0259 53.1394 31.374C52.1839 30.7221 51.4516 29.8067 50.9426 28.6279C50.4335 27.4402 50.179 26.0515 50.179 24.462V24.4352C50.179 22.8277 50.438 21.4346 50.9559 20.2558C51.4828 19.077 52.224 18.1662 53.1796 17.5232C54.1351 16.8802 55.2692 16.5587 56.582 16.5587C57.9037 16.5587 59.0423 16.8802 59.9978 17.5232C60.9533 18.1662 61.6901 19.077 62.208 20.2558C62.726 21.4346 62.985 22.8277 62.985 24.4352V24.462C62.985 26.0515 62.726 27.4402 62.208 28.6279C61.6901 29.8067 60.9533 30.7221 59.9978 31.374C59.0423 32.0259 57.9037 32.3518 56.582 32.3518Z" fill="#343434"/>
<path d="M75.9651 34.5755C77.4028 34.5755 78.6575 34.3388 79.7292 33.8655C80.8008 33.3833 81.6313 32.7046 82.2207 31.8294C82.8101 30.9542 83.1048 29.9139 83.1048 28.7083V28.6949C83.1048 27.3018 82.6717 26.181 81.8054 25.3327C80.9392 24.4843 79.497 23.8368 77.4787 23.3903L75.3355 22.9081C74.0227 22.6223 73.0806 22.216 72.5091 21.6891C71.9375 21.1622 71.6518 20.5148 71.6518 19.7468V19.7334C71.6518 19.0547 71.8393 18.4832 72.2144 18.0188C72.5984 17.5455 73.1119 17.1838 73.7548 16.9338C74.3978 16.6837 75.1212 16.5587 75.9249 16.5587C76.7643 16.5498 77.4966 16.6748 78.1217 16.9338C78.7468 17.1928 79.2469 17.5455 79.622 17.992C79.9971 18.4296 80.2292 18.9342 80.3185 19.5057L80.3453 19.6798H82.7565L82.7431 19.4923C82.6806 18.5278 82.3546 17.6571 81.7652 16.8802C81.1848 16.1033 80.3989 15.4871 79.4077 15.0316C78.4164 14.5673 77.2778 14.3351 75.9918 14.3351C74.6612 14.3351 73.4825 14.5673 72.4555 15.0316C71.4374 15.496 70.6382 16.139 70.0577 16.9606C69.4862 17.7822 69.1959 18.7288 69.187 19.8004V19.8138C69.187 21.2158 69.6246 22.3678 70.4998 23.2698C71.3839 24.1628 72.7948 24.8236 74.7327 25.2523L76.8759 25.7211C78.2065 26.0158 79.1665 26.44 79.7559 26.9937C80.3453 27.5384 80.64 28.2127 80.64 29.0164V29.0298C80.64 29.6817 80.4436 30.2577 80.0506 30.7578C79.6577 31.2579 79.1174 31.6508 78.4298 31.9366C77.7511 32.2134 76.9742 32.3518 76.099 32.3518C75.1703 32.3518 74.3398 32.2223 73.6075 31.9634C72.8841 31.7044 72.3037 31.3427 71.8661 30.8783C71.4374 30.405 71.1919 29.8469 71.1293 29.2039L71.1159 29.0566H68.7048L68.7182 29.2039C68.8164 30.2488 69.1692 31.1775 69.7764 31.9901C70.3926 32.7939 71.2231 33.4279 72.2679 33.8923C73.3217 34.3477 74.5541 34.5755 75.9651 34.5755Z" fill="#343434"/>
</svg>
