<svg width="103" height="40" viewBox="0 0 103 40" fill="none" xmlns="http://www.w3.org/2000/svg">
<path fill-rule="evenodd" clip-rule="evenodd" d="M9.50868 29.7611C9.50868 29.7611 8.04665 30.6118 10.5503 30.8992C13.5842 31.2457 15.1338 31.1958 18.4761 30.5635C18.4761 30.5635 19.3561 31.1145 20.5844 31.5912C13.0897 34.8026 3.62279 31.4054 9.50868 29.7611ZM8.59253 25.5703C8.59253 25.5703 6.95236 26.7843 9.45819 27.0435C12.6992 27.3782 15.2574 27.4055 19.687 26.5531C19.687 26.5531 20.2986 27.174 21.2611 27.5131C12.2009 30.1631 2.11028 27.7217 8.59253 25.5703Z" fill="#343434"/>
<path fill-rule="evenodd" clip-rule="evenodd" d="M16.3119 18.4603C18.1594 20.587 15.8276 22.4996 15.8276 22.4996C15.8276 22.4996 20.5166 20.0795 18.363 17.0478C16.3522 14.2219 14.8098 12.818 23.1587 7.97656C23.1587 7.97656 10.0532 11.2483 16.3119 18.4603Z" fill="#343434"/>
<path fill-rule="evenodd" clip-rule="evenodd" d="M26.224 32.8608C26.224 32.8608 27.3062 33.7532 25.0319 34.4432C20.7071 35.7531 7.0284 36.1482 3.22885 34.4953C1.864 33.9008 4.42476 33.0768 5.2304 32.9027C6.07065 32.7211 6.55016 32.7541 6.55016 32.7541C5.03129 31.6846 -3.26737 34.8548 2.33557 35.7642C17.6138 38.2415 30.1864 34.649 26.224 32.8608ZM10.2119 21.2275C10.2119 21.2275 3.25489 22.8804 7.74861 23.4812C9.64664 23.7349 13.4274 23.6765 16.952 23.3809C19.8316 23.1392 22.722 22.6222 22.722 22.6222C22.722 22.6222 21.7074 23.0576 20.9722 23.5587C13.9063 25.4173 0.25844 24.5517 4.18787 22.6518C7.51013 21.0446 10.2119 21.2275 10.2119 21.2275ZM22.6931 28.2032C29.8752 24.472 26.5545 20.8855 24.2361 21.3688C23.6692 21.4873 23.4149 21.5895 23.4149 21.5895C23.4149 21.5895 23.6264 21.2586 24.0284 21.1164C28.6142 19.5048 32.1403 25.8708 22.5499 28.3919C22.5495 28.3919 22.66 28.2922 22.6931 28.2032Z" fill="#343434"/>
<path fill-rule="evenodd" clip-rule="evenodd" d="M18.3629 0.157227C18.3629 0.157227 22.3396 4.13651 14.59 10.2536C8.37515 15.1623 13.1731 17.9603 14.5881 21.1584C10.9597 17.8854 8.29831 15.0036 10.0836 12.3221C12.7047 8.38603 19.9675 6.47721 18.3629 0.157227Z" fill="#343434"/>
<path fill-rule="evenodd" clip-rule="evenodd" d="M10.918 38.3176C17.8108 38.7584 28.3978 38.0728 28.649 34.8105C28.649 34.8105 28.1669 36.0471 22.9517 37.028C17.0677 38.1357 9.80937 38.0067 5.50586 37.2964C5.50586 37.2964 6.38771 38.0261 10.918 38.3176Z" fill="#343434"/>
<path fill-rule="evenodd" clip-rule="evenodd" d="M99.7218 13.3836H99.2512V13.1265H100.521V13.3836H100.051V14.6678H99.7218V13.3836ZM102.256 13.4475H102.25L101.782 14.6671H101.568L101.103 13.4475H101.097V14.6671H100.785V13.1258H101.243L101.674 14.2161L102.105 13.1258H102.559V14.6671H102.257L102.256 13.4475ZM58.0886 27.8552C56.6291 29.088 55.0861 29.7815 53.7007 29.7815C51.7271 29.7815 50.6561 28.6259 50.6561 26.7767C50.6561 24.7747 51.8027 23.3098 56.3917 23.3098H58.0879L58.0886 27.8552ZM62.1172 32.2846V18.5725C62.1172 15.0681 60.0666 12.7554 55.1232 12.7554C52.239 12.7554 49.7107 13.4496 47.655 14.3342L48.2468 16.763C49.8661 16.1834 51.9595 15.6462 54.0145 15.6462C56.8622 15.6462 58.0879 16.763 58.0879 19.0749V20.8088H56.6647C49.747 20.8088 46.6254 23.4244 46.6254 27.357C46.6254 30.7454 48.6825 32.6717 52.5549 32.6717C55.0441 32.6717 56.9036 31.6703 58.6398 30.2047L58.9557 32.2846H62.1172ZM75.5626 32.2846H70.5394L64.4908 13.1042H68.8788L72.6328 24.8907L73.4685 28.432C75.3622 23.3098 76.7063 18.1097 77.3787 13.1042H81.6454C80.5031 19.4196 78.4453 26.3535 75.5626 32.2846ZM94.8405 27.8552C93.3767 29.088 91.8337 29.7815 90.4512 29.7815C88.4775 29.7815 87.408 28.6259 87.408 26.7767C87.408 24.7747 88.5552 23.3098 93.1414 23.3098H94.8405V27.8552ZM98.8705 32.2846V18.5725C98.8705 15.0681 96.8134 12.7554 91.8751 12.7554C88.988 12.7554 86.4604 13.4496 84.4048 14.3342L84.9966 16.763C86.6158 16.1834 88.7135 15.6462 90.7692 15.6462C93.6127 15.6462 94.8398 16.763 94.8398 19.0749V20.8088H93.4166C86.4982 20.8088 83.3787 23.4244 83.3787 27.357C83.3787 30.7454 85.4315 32.6717 89.3046 32.6717C91.7959 32.6717 93.6526 31.6703 95.3931 30.2047L95.7104 32.2846H98.8705ZM42.2083 35.5438C41.0603 37.1789 39.2036 38.4735 37.1737 39.2039L35.1843 36.9204C36.7309 36.147 38.0557 34.8982 38.6724 33.7363C39.2036 32.7009 39.4254 31.3694 39.4254 28.1825V6.28223H43.707V27.8802C43.707 32.1429 43.3577 33.8656 42.2083 35.5438Z" fill="#343434"/>
</svg>
