<svg width="61" height="60" viewBox="0 0 61 60" fill="none" xmlns="http://www.w3.org/2000/svg">
<g id="Unofficial_JavaScript_logo_2 1" clip-path="url(#clip0_2146_14999)">
<path id="Vector" d="M60.0352 0H0.0351562V60H60.0352V0Z" fill="#F7DF1E"/>
<path id="Vector_2" d="M40.3407 46.8752C41.5492 48.8485 43.1216 50.299 45.9026 50.299C48.2387 50.299 49.7311 49.1313 49.7311 47.518C49.7311 45.5847 48.1978 44.8999 45.6264 43.7752L44.2168 43.1704C40.1483 41.4371 37.4454 39.2656 37.4454 34.6752C37.4454 30.4466 40.6673 27.2275 45.7026 27.2275C49.2873 27.2275 51.8645 28.4752 53.7216 31.7418L49.3311 34.5609C48.3645 32.8275 47.3216 32.1447 45.7026 32.1447C44.0511 32.1447 43.0045 33.1923 43.0045 34.5609C43.0045 36.2523 44.0521 36.9371 46.4711 37.9847L47.8807 38.5885C52.6711 40.6428 55.3759 42.7371 55.3759 47.4456C55.3759 52.5218 51.3883 55.3028 46.033 55.3028C40.7968 55.3028 37.414 52.8075 35.7587 49.5371L40.3407 46.8752ZM20.4235 47.3637C21.3092 48.9352 22.1149 50.2637 24.0521 50.2637C25.9045 50.2637 27.073 49.539 27.073 46.7209V27.5494H32.7111V46.7971C32.7111 52.6352 29.2883 55.2923 24.2921 55.2923C19.7778 55.2923 17.1635 52.9561 15.834 50.1423L20.4235 47.3637Z" fill="black"/>
</g>
<defs>
<clipPath id="clip0_2146_14999">
<rect width="60" height="60" fill="white" transform="translate(0.0351562)"/>
</clipPath>
</defs>
</svg>
