<svg width="64" height="64" viewBox="0 0 64 64" fill="none" xmlns="http://www.w3.org/2000/svg">
<g clip-path="url(#clip0_1004_12050)">
<path d="M24.3488 47.2942C24.3488 47.2942 22.1962 48.6032 25.845 48.9777C30.2376 49.5377 32.5773 49.4449 37.4389 48.5104C38.416 49.1088 39.4493 49.6099 40.5242 50.0067C29.5866 54.6827 15.7439 49.7267 24.347 47.2942H24.3488ZM22.9487 41.2163C22.9487 41.2163 20.6107 42.9926 24.2578 43.3689C29.0266 43.8361 32.7664 43.9289 39.2204 42.6216C39.8481 43.2582 40.6166 43.7383 41.4639 44.0234C28.2793 47.9504 13.5056 44.3979 22.9487 41.2181V41.2163ZM48.7563 51.874C48.7563 51.874 50.3453 53.183 46.98 54.212C40.7149 56.0845 20.7052 56.6445 15.0947 54.212C13.1311 53.372 16.8709 52.1557 18.0697 51.9685C19.286 51.6884 19.9422 51.6884 19.9422 51.6884C17.7897 50.1922 5.63582 54.7737 13.7716 56.081C36.1194 59.728 54.5401 54.492 48.7423 51.874H48.7563ZM25.3603 34.8568C25.3603 34.8568 15.1682 37.2893 21.7132 38.1293C24.5185 38.5038 30.0346 38.4093 35.1779 38.0366C39.3849 37.662 43.5955 36.9165 43.5955 36.9165C43.5955 36.9165 42.0992 37.571 41.0702 38.2256C30.6926 40.9381 10.7739 39.7218 16.4789 36.9165C21.3405 34.5785 25.362 34.8603 25.362 34.8603L25.3603 34.8568ZM43.5955 45.0489C54.0676 39.6238 49.206 34.3913 45.839 35.044C44.999 35.2313 44.6227 35.4185 44.6227 35.4185C44.6227 35.4185 44.9027 34.8585 45.5572 34.6713C52.1968 32.3332 57.4329 41.6836 43.4047 45.3289C43.4047 45.3289 43.4975 45.2361 43.592 45.0489H43.5955ZM26.3928 59.8225C36.4904 60.477 51.9203 59.448 52.2931 54.6775C52.2931 54.6775 51.5458 56.55 43.9717 57.95C35.3686 59.539 24.7093 59.35 18.4442 58.3245C18.4442 58.3245 19.7532 59.4445 26.3928 59.8208V59.8225Z" fill="black"/>
<path d="M37.2528 4C37.2528 4 43.0507 9.89056 31.7368 18.7737C22.6664 25.9732 29.6805 30.0875 31.7368 34.7636C26.4062 29.9948 22.5737 25.786 25.1917 21.8607C29.0243 16.0611 39.5909 13.2734 37.2528 4ZM34.2778 30.8365C36.9903 33.9218 33.5305 36.7271 33.5305 36.7271C33.5305 36.7271 40.4501 33.1746 37.2703 28.7785C34.3723 24.5715 32.1253 22.5135 44.2827 15.5011C44.2827 15.5011 25.1147 20.2699 34.2778 30.8365Z" fill="black"/>
</g>
<defs>
<clipPath id="clip0_1004_12050">
<rect width="64" height="64" rx="8" fill="white"/>
</clipPath>
</defs>
</svg>
