<svg width="61" height="60" viewBox="0 0 61 60" fill="none" xmlns="http://www.w3.org/2000/svg">
<g clip-path="url(#clip0_1925_47132)">
<path d="M60.0342 0H0.0341797V60H60.0342V0Z" fill="#F7DF1E"/>
<path d="M40.3397 46.8752C41.5482 48.8485 43.1206 50.299 45.9016 50.299C48.2378 50.299 49.7301 49.1313 49.7301 47.518C49.7301 45.5847 48.1968 44.8999 45.6254 43.7752L44.2159 43.1704C40.1473 41.4371 37.4444 39.2656 37.4444 34.6752C37.4444 30.4466 40.6663 27.2275 45.7016 27.2275C49.2863 27.2275 51.8635 28.4752 53.7206 31.7418L49.3301 34.5609C48.3635 32.8275 47.3206 32.1447 45.7016 32.1447C44.0501 32.1447 43.0035 33.1923 43.0035 34.5609C43.0035 36.2523 44.0511 36.9371 46.4702 37.9847L47.8797 38.5885C52.6702 40.6428 55.3749 42.7371 55.3749 47.4456C55.3749 52.5218 51.3873 55.3028 46.0321 55.3028C40.7959 55.3028 37.413 52.8075 35.7578 49.5371L40.3397 46.8752ZM20.4225 47.3637C21.3082 48.9352 22.114 50.2637 24.0511 50.2637C25.9035 50.2637 27.0721 49.539 27.0721 46.7209V27.5494H32.7101V46.7971C32.7101 52.6352 29.2873 55.2923 24.2911 55.2923C19.7768 55.2923 17.1625 52.9561 15.833 50.1423L20.4225 47.3637Z" fill="black"/>
</g>
<defs>
<clipPath id="clip0_1925_47132">
<rect width="60" height="60" fill="white" transform="translate(0.0341797)"/>
</clipPath>
</defs>
</svg>
