<svg width="44" height="60" viewBox="0 0 44 60" fill="none" xmlns="http://www.w3.org/2000/svg">
<path fill-rule="evenodd" clip-rule="evenodd" d="M42.991 28.9272C42.991 40.8091 33.5739 50.4414 21.9573 50.4414C10.3409 50.4414 0.923828 40.8091 0.923828 28.9272C0.923828 17.045 10.3409 7.41251 21.9573 7.41251C33.5739 7.41251 42.991 17.045 42.991 28.9272Z" fill="#D33833"/>
<path d="M1.78012 34.2549C1.78012 34.2549 0.257438 11.8191 20.9306 11.178L19.4884 8.77411L8.27051 12.5402L5.06532 16.226L2.26089 21.5948L0.658203 27.8448L1.13897 32.0114" fill="#EF3D3A"/>
<path d="M7.55037 14.2505C3.85999 18.0265 1.57634 23.24 1.57634 29.0075C1.57634 34.7739 3.85999 39.988 7.55037 43.7633C11.2425 47.5385 16.3309 49.8681 21.9563 49.8681C27.5818 49.8681 32.6705 47.5385 36.3623 43.7633C40.0525 39.988 42.3366 34.7739 42.3366 29.0075C42.3366 23.24 40.0525 18.0265 36.3623 14.2505C32.6705 10.476 27.5818 8.14646 21.9563 8.14598C16.3309 8.14646 11.2425 10.476 7.55037 14.2505ZM6.61624 44.6765C2.69422 40.6655 0.269531 35.1222 0.269531 29.0075C0.269531 22.8919 2.69422 17.3491 6.61624 13.3378C10.5373 9.32579 15.9652 6.83901 21.9563 6.83973C27.9474 6.83901 33.3758 9.32579 37.2962 13.3378C41.2186 17.3491 43.6436 22.8924 43.6431 29.0075C43.6436 35.1222 41.2186 40.6655 37.2962 44.6765C33.3758 48.6883 27.9474 51.1748 21.9563 51.1748C15.9652 51.1748 10.5373 48.6883 6.61624 44.6765Z" fill="#231F20"/>
<path fill-rule="evenodd" clip-rule="evenodd" d="M30.8113 29.0463L27.606 29.5271L23.2791 30.0078L20.4745 30.0879L17.7502 30.0078L15.6668 29.3667L13.8238 27.3636L12.3815 23.2771L12.061 22.3956L10.1379 21.7547L9.01609 19.9117L8.21484 17.2675L9.09638 14.9437L11.1796 14.2225L12.8622 15.0239L13.6637 16.7867L14.6252 16.6264L14.9456 16.2259L14.6252 14.3828L14.5449 12.059L15.0257 8.85399L15.0069 7.02323L16.468 4.68741L19.0322 2.84438L23.5195 0.921303L28.4873 1.64246L32.8142 4.76746L34.8176 7.97251L36.0996 10.2963L36.42 16.0655L35.4585 21.0336L33.6957 25.4405L32.013 27.7643" fill="#F0D6B7"/>
<path fill-rule="evenodd" clip-rule="evenodd" d="M28.0864 42.9078L16.6279 43.3886V45.3117L17.5895 52.0425L17.1087 52.6035L9.096 49.879L8.53495 48.9175L7.7337 39.8631L5.891 34.4143L5.49023 33.1324L11.9003 28.7254L13.9037 27.9239L15.6664 30.0874L17.1888 31.4497L18.9518 32.0105L19.7529 32.2509L20.7145 36.4175L21.4356 37.2989L23.2787 36.6578L21.9965 39.142L28.9677 42.4271L28.0864 42.9078Z" fill="#335061"/>
<path fill-rule="evenodd" clip-rule="evenodd" d="M9.09606 14.9441L11.1792 14.2229L12.8619 15.0244L13.6634 16.7871L14.6249 16.6268L14.8653 15.6652L14.3845 13.8224L14.8653 9.41524L14.4645 7.01139L15.9068 5.3287L19.0318 2.8448L18.1504 1.64288L13.7434 3.80634L11.9004 5.24865L10.8588 7.49216L9.25616 9.65562L8.77539 12.2198L9.09606 14.9441Z" fill="#6D6B6D"/>
<path fill-rule="evenodd" clip-rule="evenodd" d="M12.3799 7.41193C12.3799 7.41193 13.5818 4.44727 18.3895 3.00496C23.1972 1.56265 18.6299 1.96313 18.6299 1.96313L13.4217 3.9665L11.4184 5.96962L10.5371 7.57227L12.3799 7.41193Z" fill="#DCD9D8"/>
<path fill-rule="evenodd" clip-rule="evenodd" d="M9.97731 14.3825C9.97731 14.3825 8.29462 8.77341 14.7049 7.97221L14.4645 7.01067L10.0576 8.05249L8.77539 12.2191L9.09606 14.9434L9.97731 14.3825Z" fill="#DCD9D8"/>
<path fill-rule="evenodd" clip-rule="evenodd" d="M12.541 21.8346L13.5902 20.818C13.5902 20.818 14.0637 20.8731 14.1437 21.4339C14.2237 21.9949 14.4641 27.043 17.9096 29.7675C18.2239 30.0161 15.3456 29.3666 15.3456 29.3666L12.7814 25.3603" fill="#F7E4CD"/>
<path fill-rule="evenodd" clip-rule="evenodd" d="M27.2852 20.3125C27.2852 20.3125 27.472 17.8837 28.1261 18.0704C28.7802 18.2572 28.7802 18.9113 28.7802 18.9113C28.7802 18.9113 27.1917 19.9389 27.2852 20.3125Z" fill="#F7E4CD"/>
<path d="M33.9354 11.4177C33.9354 11.4177 32.6147 11.6966 32.4931 12.86C32.3714 14.0237 33.9354 13.1004 34.1758 13.0204" fill="#F7E4CD"/>
<path d="M24.2395 11.4984C24.2395 11.4984 22.4766 11.7388 22.4766 12.8604C22.4766 13.9823 24.48 13.9023 25.0408 13.4215" fill="#F7E4CD"/>
<path fill-rule="evenodd" clip-rule="evenodd" d="M13.3429 16.706C13.3429 16.706 10.2979 14.8629 9.97755 16.6259C9.65707 18.3887 8.93573 19.6709 10.4583 21.5137L9.41669 21.1932L8.45515 18.7093L8.13477 16.3055L9.97755 14.3822L12.0609 14.5425L13.2628 15.5041L13.3429 16.706Z" fill="#F7E4CD"/>
<path fill-rule="evenodd" clip-rule="evenodd" d="M14.7846 11.6582C14.7846 11.6582 16.1468 4.607 23.0379 3.24474C28.7113 2.12335 31.6916 3.48512 32.8135 4.7671C32.8135 4.7671 27.7654 -1.24228 22.9576 0.600511C18.1499 2.44354 14.6245 5.80892 14.7045 7.97215C14.8409 11.6568 14.7846 11.6582 14.7846 11.6582Z" fill="#F7E4CD"/>
<path fill-rule="evenodd" clip-rule="evenodd" d="M33.3745 5.56866C33.3745 5.56866 31.051 5.48861 30.9707 7.57203C30.9707 7.57203 30.9705 7.89246 31.1308 8.21289C31.1308 8.21289 32.9741 6.12948 34.0957 7.25135" fill="#F7E4CD"/>
<path fill-rule="evenodd" clip-rule="evenodd" d="M23.2003 8.42987C23.2003 8.42987 22.8003 5.23203 20.0739 7.09117C18.3111 8.29309 18.4715 9.97578 18.7919 10.2962C19.1124 10.6169 19.0252 11.2623 19.2692 10.8193C19.5131 10.3763 19.4328 8.93395 20.3143 8.53347C21.1958 8.13275 22.6407 7.68516 23.2003 8.42987Z" fill="#F7E4CD"/>
<path fill-rule="evenodd" clip-rule="evenodd" d="M15.6664 30.0873L8.13446 33.4526C8.13446 33.4526 11.2595 45.8726 9.65677 49.7188L8.53495 49.3183L8.45485 44.5906L6.37177 35.6163L5.49023 33.1322L13.3426 27.844L15.6664 30.0873Z" fill="#49728B"/>
<path fill-rule="evenodd" clip-rule="evenodd" d="M16.4401 36.9569L17.5087 38.2607V43.0684H16.2265C16.2265 43.0684 16.0664 39.703 16.0664 39.3022C16.0664 38.9015 16.2265 37.4592 16.2265 37.4592" fill="#49728B"/>
<path fill-rule="evenodd" clip-rule="evenodd" d="M16.4671 43.7903L12.8613 43.9504L13.9032 44.6716L16.4671 45.0723" fill="#49728B"/>
<path fill-rule="evenodd" clip-rule="evenodd" d="M28.8066 42.9884L31.7713 42.9083L32.4925 50.2802L29.4475 50.6807L28.8066 42.9884Z" fill="#335061"/>
<path fill-rule="evenodd" clip-rule="evenodd" d="M29.6094 42.9883L34.0966 42.7479C34.0966 42.7479 35.9394 38.1005 35.9394 37.8601C35.9394 37.6197 37.5421 31.1294 37.5421 31.1294L33.9363 27.3635L33.2151 26.7224L31.2921 28.6455V36.0974L29.6094 42.9883Z" fill="#335061"/>
<path fill-rule="evenodd" clip-rule="evenodd" d="M31.611 42.4274L28.8066 42.9882L29.2071 45.232C30.2487 45.7128 32.0117 44.4305 32.0117 44.4305" fill="#49728B"/>
<path fill-rule="evenodd" clip-rule="evenodd" d="M31.6914 28.4057L37.3003 32.5723L37.4606 30.6492L33.2138 26.723L31.6914 28.4057Z" fill="#49728B"/>
<path fill-rule="evenodd" clip-rule="evenodd" d="M19.2474 58.7749L17.5885 52.0432L16.7634 47.0762L16.627 43.3894L24.1353 42.9896L28.8066 42.9889L28.3819 51.4031L29.103 57.8935L29.023 59.0954L22.9334 59.5762L19.2474 58.7749Z" fill="white"/>
<path fill-rule="evenodd" clip-rule="evenodd" d="M27.7649 42.9079C27.7649 42.9079 27.3645 51.2413 28.5664 57.1707C28.5664 57.1707 26.1625 58.6933 22.6367 59.0938L29.3676 58.8534L30.1688 58.3726L29.2072 45.2317L28.9669 42.4269" fill="#DCD9D8"/>
<path fill-rule="evenodd" clip-rule="evenodd" d="M32.6292 49.6406L35.7542 48.7592L41.6835 48.4387L42.565 45.7144L40.9623 40.9868L39.1196 40.7464L36.5554 41.5476L34.0953 42.7488L32.7893 42.5092L31.7715 42.9091" fill="white"/>
<path fill-rule="evenodd" clip-rule="evenodd" d="M32.5723 48.0361C32.5723 48.0361 34.6554 47.0747 34.9761 47.1548L34.0949 42.7476L35.1365 42.3471C35.1365 42.3471 35.8576 46.5137 35.8576 46.9944C35.8576 46.9944 40.3446 47.2348 40.7453 47.2348C40.7453 47.2348 41.7069 45.3918 41.4665 43.4688L42.348 46.0329L42.428 47.4752L41.1461 49.3983L39.7038 49.7188L37.2999 49.6387L36.4987 48.5971L33.6941 48.9976L32.8127 49.3183" fill="#DCD9D8"/>
<path d="M29.4241 42.3486L27.6614 37.8613L25.8184 35.2171C25.8184 35.2171 26.2188 34.0952 26.7799 34.0952C27.341 34.0952 28.6229 34.0952 28.6229 34.0952L30.3857 34.7363L30.2256 37.7011L29.4241 42.3486Z" fill="white"/>
<path fill-rule="evenodd" clip-rule="evenodd" d="M29.7682 40.8255C29.7682 40.8255 27.5244 36.4988 27.5244 35.8577C27.5244 35.8577 27.9249 34.8962 28.486 35.1366C29.047 35.377 30.2489 36.0178 30.2489 36.0178V34.4955L27.5244 33.9344L25.6816 34.1748L28.8066 41.5467L29.4475 41.627" fill="#DCD9D8"/>
<path d="M19.9693 30.2487L17.7495 30.0074L15.666 29.3663V30.0874L16.684 31.21L19.8891 32.6523" fill="white"/>
<path fill-rule="evenodd" clip-rule="evenodd" d="M16.3869 30.489C16.3869 30.489 18.871 31.5308 19.6723 31.2904L19.752 32.251L17.5088 31.7712L16.1465 30.8096L16.3869 30.489Z" fill="#DCD9D8"/>
<path fill-rule="evenodd" clip-rule="evenodd" d="M32.6203 34.3672C31.2607 34.3273 30.0323 34.1657 28.9569 33.8624C29.0299 33.4215 28.8931 32.9888 29.003 32.6713C29.3028 32.4554 29.8052 32.4588 30.2583 32.4081C29.8665 32.2155 29.316 32.1393 28.8638 32.2506C28.8532 31.9446 28.716 31.7549 28.6328 31.5155C29.3972 31.2427 31.2018 29.454 32.2169 30.0463C32.7006 30.328 32.9061 31.9371 32.9436 32.7196C32.9749 33.3686 32.8847 34.0234 32.6203 34.3672Z" fill="#D33833"/>
<path d="M32.6203 34.3672C31.2607 34.3273 30.0323 34.1657 28.9569 33.8624C29.0299 33.4215 28.8931 32.9888 29.003 32.6713C29.3028 32.4554 29.8052 32.4588 30.2583 32.4081C29.8665 32.2155 29.316 32.1393 28.8638 32.2506C28.8532 31.9446 28.716 31.7549 28.6328 31.5155C29.3972 31.2427 31.2018 29.454 32.2169 30.0463C32.7006 30.328 32.9061 31.9371 32.9436 32.7196C32.9749 33.3686 32.8847 34.0234 32.6203 34.3672Z" stroke="#D33833" stroke-width="2.5"/>
<path fill-rule="evenodd" clip-rule="evenodd" d="M26.1199 32.1453C26.1163 32.2482 26.112 32.3518 26.1079 32.4556C25.6833 32.7345 24.998 32.7311 24.5321 32.9655C25.2189 32.9955 25.7596 33.1609 26.2273 33.3941C26.217 33.6532 26.2071 33.9121 26.1971 34.1713C25.4189 34.7039 24.7081 35.4972 23.792 35.9968C23.3588 36.233 21.8385 36.8409 21.3777 36.7335C21.1169 36.6729 21.0934 36.3494 20.9892 36.0444C20.7671 35.3912 20.2558 34.3515 20.2113 33.3684C20.1545 32.1265 20.0291 30.0453 21.3674 30.3011C22.447 30.5071 23.7027 31.0044 24.5386 31.4612C25.0495 31.7405 25.3449 32.0857 26.1199 32.1453Z" fill="#D33833"/>
<path d="M26.1199 32.1453C26.1163 32.2482 26.112 32.3518 26.1079 32.4556C25.6833 32.7345 24.998 32.7311 24.5321 32.9655C25.2189 32.9955 25.7596 33.1609 26.2273 33.3941C26.217 33.6532 26.2071 33.9121 26.1971 34.1713C25.4189 34.7039 24.7081 35.4972 23.792 35.9968C23.3588 36.233 21.8385 36.8409 21.3777 36.7335C21.1169 36.6729 21.0934 36.3494 20.9892 36.0444C20.7671 35.3912 20.2558 34.3515 20.2113 33.3684C20.1545 32.1265 20.0291 30.0453 21.3674 30.3011C22.447 30.5071 23.7027 31.0044 24.5386 31.4612C25.0495 31.7405 25.3449 32.0857 26.1199 32.1453Z" stroke="#D33833" stroke-width="2.5"/>
<path fill-rule="evenodd" clip-rule="evenodd" d="M26.8924 33.6273C26.7736 32.9509 26.6364 32.7579 26.6895 32.1677C28.4936 30.9648 28.8323 34.2338 26.8924 33.6273Z" fill="#D33833"/>
<path d="M26.8924 33.6273C26.7736 32.9509 26.6364 32.7579 26.6895 32.1677C28.4936 30.9648 28.8323 34.2338 26.8924 33.6273Z" stroke="#D33833" stroke-width="2.5"/>
<path fill-rule="evenodd" clip-rule="evenodd" d="M29.5047 34.1758C29.5047 34.1758 28.9436 33.3743 29.3444 33.134C29.7451 32.8936 30.1458 33.1342 30.3862 32.7335C30.6266 32.3328 30.3862 32.0924 30.4662 31.6116C30.5463 31.1308 30.9472 31.0505 31.3477 30.9705C31.7482 30.8904 32.8703 30.7301 33.0304 31.1308L32.5496 29.6885L31.5881 29.3681L28.5431 31.1308L28.3828 32.0123V33.7751" fill="#EF3D3A"/>
<path fill-rule="evenodd" clip-rule="evenodd" d="M21.0904 36.8193C20.9941 35.5688 20.8923 34.32 20.7789 33.0708C20.6093 31.2054 21.227 31.5309 22.844 31.5309C23.0909 31.5309 24.3646 31.8253 24.4557 32.0116C24.8927 32.9042 23.7249 32.7059 24.9591 33.3789C26.0009 33.947 27.8413 33.034 27.4204 31.7712C27.1848 31.4905 26.193 31.6837 25.8374 31.4994C25.2115 31.1748 24.5855 30.8503 23.9595 30.5258C23.163 30.1126 21.3223 29.5102 20.4732 30.0876C18.3216 31.5508 20.609 35.2068 21.3765 36.7332" fill="#EF3D3A"/>
<path fill-rule="evenodd" clip-rule="evenodd" d="M23.1989 8.42991C21.015 7.92126 19.9298 9.34386 19.2678 10.8193C18.6767 10.6761 18.9119 9.87222 19.0612 9.46261C19.4521 8.38761 21.0275 6.95659 22.3146 7.15058C22.8686 7.234 23.6182 7.74049 23.1989 8.42991Z" fill="#231F20"/>
<path fill-rule="evenodd" clip-rule="evenodd" d="M33.8406 10.9167C33.8749 10.9181 33.9098 10.9193 33.9442 10.9208C34.4377 11.946 34.8648 13.0321 35.4874 13.9371C35.0704 14.9085 32.3293 15.7681 32.3716 14.0239C32.9644 13.7648 33.9877 13.971 34.5132 13.64C34.2093 12.8061 33.7709 12.0963 33.8406 10.9167Z" fill="#231F20"/>
<path fill-rule="evenodd" clip-rule="evenodd" d="M24.3179 10.9434C24.7862 11.8018 24.9386 12.7037 25.6042 13.3525C25.9039 13.6446 26.4869 14.0006 26.1979 14.8129C26.1304 15.0045 25.6369 15.4316 25.352 15.5155C24.3114 15.8227 21.8866 15.579 22.7077 14.2816C23.5683 14.3218 24.7251 14.8405 25.3684 14.2158C24.8744 13.4261 23.9937 11.8638 24.3179 10.9434Z" fill="#231F20"/>
<path fill-rule="evenodd" clip-rule="evenodd" d="M33.4503 19.6685C31.8835 20.675 30.1363 21.7694 27.569 21.5156C27.0205 21.0387 26.8113 19.9774 27.3443 19.2764C27.6217 19.7533 27.4474 20.6305 28.2205 20.7625C29.6772 21.0117 31.3726 19.8714 32.4205 19.4728C33.0702 18.3774 32.3645 17.9745 31.7791 17.2694C30.5808 15.825 28.9734 14.0346 29.0318 11.8721C29.5161 11.5209 29.558 12.4081 29.6274 12.5697C30.2532 14.0341 31.8279 15.9069 32.9772 17.1603C33.2594 17.469 33.7241 17.7651 33.7758 17.9692C33.9248 18.5627 33.388 19.2738 33.4503 19.6685Z" fill="#231F20"/>
<path fill-rule="evenodd" clip-rule="evenodd" d="M12.7938 18.6084C12.3027 18.3281 12.1858 17.0935 11.6092 17.0584C10.7853 17.0084 10.9355 18.6601 10.9388 19.626C10.3716 19.1111 10.2719 17.5257 10.6886 16.7116C10.2137 16.4784 10.0017 16.9688 9.73828 17.1416C10.0768 14.6825 13.3356 16.001 12.7938 18.6084Z" fill="#231F20"/>
<path fill-rule="evenodd" clip-rule="evenodd" d="M34.4468 20.6928C33.7174 22.081 32.6857 23.6098 30.5456 23.6543C30.5021 23.206 30.4686 22.5238 30.548 22.2538C32.184 22.0966 33.1941 21.2639 34.4468 20.6928Z" fill="#231F20"/>
<path fill-rule="evenodd" clip-rule="evenodd" d="M24.1934 21.5922C25.5584 22.31 28.067 22.3872 29.9223 22.3329C30.0218 22.7394 30.0194 23.2415 30.0233 23.7372C27.6384 23.8562 24.8187 23.266 24.1934 21.5922Z" fill="#231F20"/>
<path fill-rule="evenodd" clip-rule="evenodd" d="M23.9351 22.9299C24.879 25.2999 28.1232 25.0271 30.859 24.9617C30.7386 25.2694 30.4776 25.6328 30.153 25.7643C29.2764 26.121 26.8583 26.3917 25.6413 25.7453C24.8694 25.335 24.3735 24.4078 23.9506 23.8643C23.7463 23.6018 22.7294 22.9314 23.9351 22.9299Z" fill="#231F20"/>
<path fill-rule="evenodd" clip-rule="evenodd" d="M33.3352 36.0034C32.2276 37.9005 31.1677 39.8491 29.8535 41.5225C30.4045 39.9025 30.6403 37.1911 30.7235 35.1241C31.8761 34.5847 32.8631 35.2455 33.3352 36.0034Z" fill="#81B0C4"/>
<path fill-rule="evenodd" clip-rule="evenodd" d="M39.296 42.8214C38.0559 43.0697 37.1845 44.275 35.9746 44.1976C36.6395 43.2603 37.8047 42.8652 39.296 42.8214Z" fill="#231F20"/>
<path fill-rule="evenodd" clip-rule="evenodd" d="M39.8444 44.7632C38.8336 44.87 37.6463 45.0337 36.6211 44.9494C37.1064 44.208 38.9764 44.4638 39.8444 44.7632Z" fill="#231F20"/>
<path fill-rule="evenodd" clip-rule="evenodd" d="M40.1943 46.436C39.0582 46.4606 37.6462 46.438 36.5664 46.3474C37.2051 45.6614 39.4575 46.0928 40.1943 46.436Z" fill="#231F20"/>
<path fill-rule="evenodd" clip-rule="evenodd" d="M31.1986 51.0149C31.3615 52.4416 31.9272 53.8872 31.8562 55.4497C31.2281 55.6616 30.8673 55.8468 30.0257 55.8457C29.9663 54.5178 29.7887 52.4877 29.8418 51.2219C30.2558 51.2493 30.8661 50.9262 31.1986 51.0149Z" fill="#DCD9D8"/>
<path fill-rule="evenodd" clip-rule="evenodd" d="M29.3667 29.9882C28.7963 30.3605 28.3105 30.8254 27.7626 31.223C26.5477 31.2831 25.8847 31.1389 24.9922 30.4413C25.0069 30.3853 25.0965 30.4103 25.0999 30.3415C26.4004 30.9211 28.0535 30.1055 29.3667 29.9882Z" fill="#F0D6B7"/>
<path fill-rule="evenodd" clip-rule="evenodd" d="M22.5391 38.8532C22.8964 37.3049 24.2964 36.503 25.5678 35.6504C26.88 37.3158 27.6781 39.4576 28.557 41.5244C26.4805 40.8985 24.3589 39.8829 22.5391 38.8532Z" fill="#81B0C4"/>
<path fill-rule="evenodd" clip-rule="evenodd" d="M29.8411 51.2221C29.788 52.4879 29.9656 54.518 30.025 55.8459C30.8666 55.847 31.2274 55.6618 31.8555 55.4499C31.9264 53.8874 31.3608 52.4418 31.1978 51.0151C30.8654 50.9264 30.255 51.2495 29.8411 51.2221ZM16.7367 44.0228C17.2917 49.1245 18.0955 53.4131 19.5697 57.9308C22.8416 58.9242 26.786 59.0108 29.6781 58.1143C29.1471 55.5646 29.3791 52.4603 29.0687 49.7394C28.8348 47.6942 28.9541 45.6365 28.6334 43.55C25.1291 42.8209 20.1758 43.3795 16.7367 44.0228ZM29.462 43.582C29.4324 45.773 29.5601 47.9343 29.7274 50.1281C30.5687 50.0018 31.1396 49.9175 31.9214 49.7461C31.6675 47.6341 31.6988 45.2576 31.1817 43.3894C30.5841 43.3951 30.0579 43.3824 29.462 43.582ZM33.73 43.2288C33.3307 43.1373 32.8658 43.2252 32.4844 43.2327C32.6637 45.0187 33.0988 46.9896 33.2519 48.8644C33.8521 48.8831 34.1728 48.6 34.6666 48.5048C34.693 46.8591 34.5228 44.5918 33.73 43.2288ZM40.1925 49.1333C41.4437 48.8295 42.2305 47.2971 41.8805 45.7233C41.6457 44.6656 41.2274 42.674 40.7798 41.9973C40.449 41.4968 39.5521 40.8416 38.836 41.3002C37.6711 42.0461 35.619 42.2627 34.7695 43.1656C35.1954 44.5839 35.3276 46.5319 35.5033 48.329C36.9586 48.4197 38.7493 47.9285 39.9596 48.4498C39.1146 48.7235 38.0182 48.7256 37.2882 49.1245C37.8848 49.4127 39.2817 49.3545 40.1925 49.1333ZM28.5572 41.5242C27.6783 39.4574 26.8803 37.3156 25.568 35.6502C24.2966 36.5028 22.8966 37.3047 22.5393 38.8531C24.3591 39.8827 26.4807 40.8983 28.5572 41.5242ZM30.7235 35.124C30.6404 37.191 30.4045 39.9024 29.8536 41.5224C31.1678 39.849 32.2276 37.9004 33.3353 36.0033C32.8632 35.2454 31.8762 34.5846 30.7235 35.124ZM28.2678 34.2514C27.7699 34.1978 27.3473 34.8238 26.7 34.5531C26.5517 34.717 26.4168 34.8947 26.2656 35.0548C27.6954 36.7779 28.3452 39.2226 29.4495 41.2475C30.042 39.3024 29.9738 37.1713 30.1043 35.0483C29.2901 35.1 28.8384 34.312 28.2678 34.2514ZM26.6887 32.1673C26.6356 32.7574 26.7728 32.9504 26.8916 33.6269C28.8315 34.2334 28.4928 30.9644 26.6887 32.1673ZM24.5375 31.461C23.7016 31.0043 22.4459 30.5069 21.3662 30.3009C20.0279 30.0449 20.1533 32.1264 20.2101 33.3682C20.2547 34.3514 20.766 35.3911 20.9881 36.0442C21.0923 36.3492 21.1158 36.6728 21.3765 36.7333C21.8374 36.8408 23.3576 36.2329 23.7908 35.9966C24.707 35.4971 25.4178 34.7038 26.1959 34.1711C26.206 33.912 26.2158 33.6531 26.2262 33.394C25.7584 33.1608 25.2178 32.9954 24.531 32.9653C24.9969 32.731 25.6822 32.7343 26.1067 32.4555C26.1108 32.3516 26.1151 32.248 26.1187 32.1452C25.3437 32.0855 25.0483 31.7403 24.5375 31.461ZM16.5534 30.0108C15.8597 30.7151 18.4992 31.6752 19.3396 31.7269C19.335 31.2812 19.5936 30.861 19.5415 30.5413C18.5434 30.3661 17.2316 30.4817 16.5534 30.0108ZM25.0995 30.3415C25.0961 30.4103 25.0065 30.3853 24.9918 30.4413C25.8844 31.1389 26.5473 31.2831 27.7622 31.223C28.3101 30.8254 28.7959 30.3605 29.3663 29.9882C28.0531 30.1055 26.4 30.9211 25.0995 30.3415ZM32.9437 32.7202C32.9062 31.9377 32.7007 30.3286 32.217 30.0468C31.2019 29.4543 29.3973 31.2432 28.6329 31.5161C28.7161 31.7555 28.8533 31.9452 28.8639 32.2512C29.3161 32.1399 29.8666 32.2161 30.2584 32.4086C29.8053 32.4593 29.3029 32.456 29.0031 32.6718C28.8932 32.9894 29.03 33.4221 28.957 33.8629C30.0324 34.1663 31.2608 34.3278 32.6204 34.3678C32.8848 34.024 32.975 33.3692 32.9437 32.7202ZM15.3855 30.692C15.1676 30.5367 13.6939 28.6192 13.492 28.6988C10.8252 29.7504 8.33171 31.569 6.10346 33.2889C8.22796 37.8476 9.08556 43.4327 9.23709 48.8158C11.6708 49.954 13.8084 51.595 17.1109 51.7663C16.7288 49.0625 16.3799 46.6502 16.163 44.1045C15.3332 43.7547 14.1427 44.1204 13.3662 43.9961C13.3596 43.0603 14.5521 43.5863 14.6515 42.957C14.7263 42.481 13.9953 42.4449 14.2333 41.6954C14.8404 41.9161 15.1592 42.4035 15.8066 42.5865C16.3982 41.2923 15.7984 39.0024 15.8836 37.9206C15.8998 37.7175 15.9851 36.7954 16.44 36.9572C16.8426 37.1004 16.417 39.4096 16.4611 40.4334C16.5013 41.3766 16.3472 42.2893 16.7292 42.8815C19.9204 42.4471 23.1632 42.1663 26.6161 42.0716C25.8565 41.7457 24.9541 41.4372 23.9647 40.8795C23.4283 40.5772 21.7377 39.948 21.5829 39.4386C21.336 38.6269 22.2308 38.1945 22.3839 37.4985C20.773 38.3771 20.4588 36.6565 20.0777 35.4375C19.7324 34.3334 19.5359 33.5086 19.4512 32.8718C18.0635 32.2103 16.5799 31.5403 15.3855 30.692ZM31.5344 28.9307C33.7562 27.8533 34.1567 32.9574 33.2858 34.6016C33.4204 35.092 33.8834 35.2798 34.0723 35.7206C32.8324 37.9418 31.4553 40.0151 30.1901 42.2101C31.1312 41.6242 32.4755 42.1053 33.5829 41.6668C33.9877 41.5067 34.2808 40.58 34.5872 39.8386C35.4303 37.799 36.3154 35.2276 36.7091 33.2812C36.7981 32.8377 37.0404 31.8714 36.986 31.4766C36.8892 30.7699 35.9303 30.2459 35.4425 29.8089C34.544 29.0016 33.9781 28.2913 33.0408 27.5365C32.6608 28.0976 31.8452 28.4745 31.5344 28.9307ZM10.3041 9.22688C9.24536 10.3918 9.46697 12.5745 9.59515 14.1274C11.5088 12.9235 14.0488 14.2226 14.0249 16.2702C14.9385 16.2459 14.3662 15.129 14.2009 14.4096C13.6608 12.0596 15.1108 9.50645 14.2667 7.35741C12.6276 7.48169 11.2811 8.15116 10.3041 9.22688ZM17.8795 2.46583C15.4827 3.14515 12.4109 4.88674 11.426 7.03987C12.1887 6.92905 12.7181 6.54443 13.4704 6.49684C13.7547 6.47833 14.1272 6.61607 14.454 6.53482C15.1052 6.37328 15.6548 4.91318 16.1461 4.36991C16.625 3.83938 17.2006 3.61271 17.5945 3.12905C17.8476 3.00694 18.2218 3.01535 18.2361 2.6353C18.1264 2.51799 18.0109 2.42857 17.8795 2.46583ZM30.3562 3.10477C27.8685 1.70116 23.6576 0.645393 21.0113 1.96462C18.8761 3.02929 15.9897 4.79082 15.0057 7.02304C15.925 9.17712 14.7334 11.1509 14.6573 13.3379C14.6169 14.5016 15.2052 15.5175 15.2503 16.7843C14.9357 17.3033 13.9746 17.3673 13.3094 17.3317C13.0854 16.211 12.6934 14.9514 11.5394 14.825C9.90642 14.6464 8.71248 15.9978 8.6383 17.4101C8.55051 19.0709 9.91392 21.8235 11.8464 21.6324C12.5929 21.5586 12.7763 20.8103 13.5897 20.818C14.0305 21.6976 12.9096 21.9738 12.7943 22.6028C12.7643 22.7653 12.8873 23.4004 12.9588 23.6983C13.3098 25.1485 14.0923 27.0254 14.8625 28.1295C15.84 29.53 17.7604 29.7411 19.8265 29.8783C20.1955 29.0834 21.5549 29.1488 22.4407 29.3567C21.3792 28.9363 20.3923 27.917 19.5744 27.0149C18.6349 25.9798 17.6832 24.8694 17.6352 23.5165C19.4105 25.9795 20.8773 28.1305 24.1056 29.2139C26.5483 30.0331 29.4012 28.8384 31.2781 27.5204C32.057 26.9726 32.5219 26.1033 33.0755 25.3077C35.1469 22.3281 36.1134 18.0752 35.9009 13.9531C35.8134 12.2531 35.8173 10.5589 35.2469 9.4151C34.6507 8.21919 32.6344 7.14924 31.4541 8.23097C31.2353 7.06799 32.4356 6.34876 33.8454 6.76727C32.8401 5.46991 31.7851 3.91102 30.3562 3.10477ZM34.9911 41.4623C36.9351 40.4958 40.5673 38.861 41.786 41.4658C42.2358 42.426 42.7634 44.049 42.9964 45.0402C43.3255 46.4384 42.6396 49.3774 41.2024 49.8466C39.9329 50.261 38.4517 50.2358 36.9226 49.9286C36.7425 49.7788 36.542 49.5178 36.4019 49.2457C35.3101 49.2033 34.2877 49.3043 33.4252 49.7531C33.5069 50.5605 32.9608 50.6901 32.4488 50.8564C32.0692 52.3614 33.2082 54.3269 32.9356 55.6992C32.7411 56.6769 31.5382 56.8281 30.6541 57.011C30.6252 57.5543 30.6928 58.0079 30.7531 58.4675C30.5509 59.2124 29.6442 59.6365 28.7851 59.7403C25.9584 60.0802 21.6665 60.2329 18.9476 59.2552C18.1889 57.3942 17.5912 55.1308 16.9593 53.0057C14.3075 53.2889 12.1628 51.8615 10.141 50.9264C9.44096 50.6019 8.47257 50.4231 8.21106 49.8659C7.95753 49.3264 8.06128 48.2925 7.99837 47.3158C7.83827 44.8214 7.70118 42.4153 7.04245 39.8613C6.74669 38.7151 6.23116 37.7038 5.87152 36.5995C5.53911 35.5759 4.95834 34.311 4.80688 33.2903C4.58229 31.7776 6.00673 31.6935 6.91757 31.0379C8.3256 30.0242 9.43082 29.4637 10.9557 28.5488C11.4074 28.2778 12.7694 27.592 12.9244 27.2762C13.2324 26.65 12.3957 25.767 12.172 25.2762C11.8182 24.5 11.6337 23.8406 11.583 23.0747C10.3038 22.8726 9.33409 22.1113 8.74834 21.2528C7.7794 19.8322 7.10743 17.2038 7.94577 15.2045C8.01152 15.0471 8.3394 14.7375 8.38777 14.4956C8.48318 14.0194 8.20822 13.3863 8.19113 12.8798C8.10306 10.2812 8.6308 8.04227 10.3801 7.25861C11.0903 4.42953 13.6321 3.4889 16.0268 2.08289C16.922 1.55742 17.9088 1.2216 18.9279 0.846596C22.5837 -0.498837 28.1928 -0.245472 31.2269 2.04924C32.5134 3.02232 34.5699 5.07688 35.3055 6.56438C37.2483 10.4915 37.1103 17.0548 35.7514 21.8319C35.5687 22.4733 35.3038 23.4161 34.9339 24.1865C34.6759 24.7245 33.8743 25.8009 33.9716 26.2759C34.0719 26.767 35.7995 28.0788 36.1699 28.436C36.837 29.0795 38.1043 29.9336 38.207 30.7456C38.3173 31.6098 37.8262 32.792 37.5774 33.6259C36.7457 36.4088 35.9341 38.9812 34.9911 41.4623Z" fill="#231F20"/>
<path fill-rule="evenodd" clip-rule="evenodd" d="M22.0212 22.1985C22.1267 22.0582 22.7065 21.8449 23.5178 22.2356C23.5178 22.2356 22.5563 22.3959 22.6363 23.999L22.2356 23.9187C22.2356 23.9187 21.8215 22.4651 22.0212 22.1985Z" fill="#F7E4CD"/>
<path fill-rule="evenodd" clip-rule="evenodd" d="M29.0475 35.9774C29.0475 36.2207 28.8502 36.418 28.6066 36.418C28.3634 36.418 28.166 36.2207 28.166 35.9774C28.166 35.7341 28.3634 35.5365 28.6066 35.5365C28.8502 35.5365 29.0475 35.7341 29.0475 35.9774Z" fill="#1D1919"/>
<path fill-rule="evenodd" clip-rule="evenodd" d="M29.4889 38.0204C29.4889 38.2637 29.2916 38.4609 29.048 38.4609C28.8048 38.4609 28.6074 38.2637 28.6074 38.0204C28.6074 37.7771 28.8048 37.5795 29.048 37.5795C29.2916 37.5795 29.4889 37.7771 29.4889 38.0204Z" fill="#1D1919"/>
</svg>
