<svg width="64" height="64" viewBox="0 0 64 64" fill="none" xmlns="http://www.w3.org/2000/svg">
<path d="M51.2598 11H31.0398C31.0398 16.04 35.1198 20.12 40.1597 20.12H43.8796V23.72C43.8796 28.76 47.9595 32.8398 52.9995 32.8398V12.74C52.9997 11.78 52.2196 11 51.2598 11Z" fill="black"/>
<path d="M41.2395 21.0801H21.0195C21.0195 26.1201 25.0995 30.2 30.1395 30.2H33.8594V33.8C33.8594 38.84 37.9396 42.9199 42.9795 42.9199V22.8201C42.9795 21.86 42.1994 21.0801 41.2395 21.0801Z" fill="black"/>
<path d="M31.22 31.1602H11C11 36.2001 15.08 40.28 20.12 40.28H23.8399V43.8801C23.8399 48.9201 27.92 53.0001 32.96 53.0001V32.9002C32.96 31.9401 32.18 31.1602 31.22 31.1602Z" fill="black"/>
</svg>
