<svg width="118" height="40" viewBox="0 0 118 40" fill="none" xmlns="http://www.w3.org/2000/svg">
<path d="M45.9521 9.5752H50.5167V18.6492L58.9387 9.5752H64.4492L55.9997 18.337L64.8349 30.2857H59.3474L52.9184 21.4504L50.5167 23.9393V30.2857H45.9521V9.5752ZM62.4103 22.4699V22.4102C62.4103 17.8456 66.084 14.1444 71.0435 14.1444C75.9662 14.1444 79.6124 17.7905 79.6124 22.4102V22.4699C79.6124 27.0344 75.9387 30.7357 70.9792 30.7357C66.0565 30.7357 62.4103 27.0895 62.4103 22.4699ZM75.158 22.4699V22.4102C75.158 20.1141 73.4681 18.0201 71.0251 18.0201C68.4443 18.0201 66.9014 20.0085 66.9014 22.3505V22.4102C66.9014 24.7062 68.5913 26.8002 71.0343 26.8002C73.6151 26.8002 75.1534 24.8118 75.1534 22.4699H75.158Z" fill="#343434"/>
<path d="M80.8524 25.8224V18.3372H78.9558V14.4798H80.8524V10.4158H85.3526V14.4798H89.0906V18.3372H85.3526V25.1335C85.3526 26.1714 85.7981 26.6765 86.8037 26.6765C87.5805 26.6796 88.3453 26.4853 89.0263 26.1117V29.7303C88.0758 30.2951 86.9828 30.6487 85.4674 30.6487C82.7122 30.6487 80.8432 29.5466 80.8432 25.8729L80.8524 25.8224ZM90.3902 8.68457H94.8905V30.3272H90.3902V8.68457ZM96.5253 8.68457H101.269V12.6889H96.5299L96.5253 8.68457ZM96.6447 14.4385H101.145V30.3272H96.6447V14.4385ZM102.867 14.4385H107.367V16.6886C108.405 15.3569 109.741 14.14 112.024 14.14C115.436 14.14 117.419 16.3901 117.419 20.0409V30.3272H112.919V21.4598C112.919 19.3245 111.909 18.227 110.191 18.227C108.474 18.227 107.376 19.3291 107.376 21.4598V30.3226H102.876L102.867 14.4385Z" fill="#343434"/>
<path d="M20.3278 0.16641L0.719482 20.7713V39.1994L20.2911 19.5911L39.7617 0.157227L20.3278 0.16641Z" fill="#686868"/>
<path d="M0.508789 39.2041L20.0804 19.5957L39.551 39.2041H0.508789Z" fill="#343434"/>
<path d="M0.508789 0.166016H20.1171L0.508789 20.7709V0.166016Z" fill="#343434"/>
</svg>
