<svg width="196" height="40" viewBox="0 0 196 40" fill="none" xmlns="http://www.w3.org/2000/svg">
<path d="M20.2694 0.520777C19.9094 0.542094 19.5574 0.635464 19.2342 0.795352L5.23095 7.47849C4.86976 7.65047 4.55204 7.90176 4.3015 8.21364C4.05095 8.52551 3.87404 8.88992 3.78395 9.27969L0.354517 24.2824C0.27361 24.6303 0.264261 24.9911 0.327037 25.3427C0.389813 25.6944 0.523405 26.0296 0.719701 26.328C0.767294 26.4012 0.817632 26.4717 0.870717 26.5394L10.5577 38.5768C10.81 38.8865 11.1283 39.136 11.4893 39.307C11.8503 39.478 12.245 39.5662 12.6445 39.5652H28.1744C28.5754 39.5661 28.9716 39.477 29.3337 39.3045C29.6958 39.132 30.0146 38.8805 30.2666 38.5685L39.9454 26.5257C40.1959 26.2149 40.3725 25.8512 40.4619 25.4621C40.5514 25.073 40.5512 24.6687 40.4616 24.2797L37.0074 9.26047C36.9173 8.8707 36.7404 8.50629 36.4899 8.19442C36.2393 7.88254 35.9216 7.63125 35.5604 7.45927L21.5681 0.795352C21.1649 0.596916 20.7184 0.502525 20.2694 0.520777Z" fill="#343434"/>
<path d="M20.4095 5.62793C20.1776 5.64417 19.9613 5.75081 19.8073 5.92489C19.6532 6.09897 19.5736 6.32659 19.5857 6.55874V6.79487C19.6088 7.06229 19.6473 7.32815 19.7011 7.59113C19.7779 8.09429 19.8055 8.60376 19.7834 9.11228C19.7352 9.28014 19.6399 9.43069 19.5089 9.5461L19.4896 9.90305C18.9805 9.94529 18.4749 10.0233 17.9767 10.1364C15.881 10.6087 13.9743 11.6969 12.5017 13.2611L12.1997 13.0469C12.0339 13.096 11.8556 13.0783 11.7027 12.9975C11.2943 12.6954 10.9164 12.3542 10.5742 11.9788C10.4025 11.7735 10.2192 11.5782 10.0251 11.394L9.83835 11.2457C9.67272 11.1123 9.46875 11.0353 9.25625 11.0261C9.12956 11.0196 9.00313 11.0431 8.8872 11.0946C8.77128 11.1461 8.66913 11.2242 8.58904 11.3226C8.45279 11.5139 8.39796 11.7513 8.43657 11.983C8.47517 12.2146 8.60406 12.4215 8.79497 12.5582L8.96795 12.6955C9.1915 12.8442 9.42344 12.9799 9.66262 13.1018C10.1082 13.3495 10.5284 13.6401 10.9174 13.9695C11.0173 14.1118 11.0753 14.2792 11.0849 14.4527L11.3595 14.6916C9.87842 16.9138 9.27023 19.6047 9.65164 22.2479L9.30018 22.3495C9.20866 22.4955 9.08579 22.6193 8.94049 22.7119C8.44908 22.843 7.94606 22.9257 7.43857 22.9591C7.16941 22.9646 6.9008 22.9857 6.63407 23.0222L6.41441 23.0771H6.38695C6.23203 23.0977 6.08592 23.1612 5.96506 23.2603C5.8442 23.3594 5.75338 23.4902 5.7028 23.6381C5.65223 23.786 5.6439 23.945 5.67876 24.0974C5.71362 24.2497 5.79028 24.3893 5.90013 24.5005C6.01001 24.6117 6.14874 24.6901 6.30071 24.7267C6.45268 24.7634 6.61187 24.7569 6.76037 24.7081H6.77685L7.00474 24.6806C7.26056 24.6035 7.51175 24.5119 7.75708 24.4061C8.22892 24.2162 8.71814 24.0727 9.21781 23.9777C9.39076 23.9884 9.55725 24.0473 9.69832 24.148L10.0635 24.0848C10.8808 26.6211 12.599 28.7701 14.8933 30.1254L14.7395 30.4467C14.8104 30.5933 14.8361 30.7577 14.8136 30.919C14.6056 31.3998 14.3518 31.8595 14.0558 32.2918C13.893 32.5063 13.7426 32.73 13.6055 32.9618L13.4957 33.1869C13.4171 33.3214 13.3774 33.475 13.381 33.6307C13.3847 33.7864 13.4315 33.938 13.5163 34.0686C13.6011 34.1992 13.7206 34.3037 13.8613 34.3704C14.0021 34.437 14.1586 34.4633 14.3134 34.4461C14.4681 34.429 14.6151 34.3692 14.7379 34.2734C14.8606 34.1776 14.9544 34.0496 15.0086 33.9036L15.1129 33.6894C15.2082 33.438 15.2889 33.1813 15.3545 32.9206C15.5742 32.3715 15.6978 31.7811 16.0025 31.4159C16.102 31.3225 16.2274 31.2613 16.3622 31.2402L16.5544 30.897C19.0409 31.8532 21.7925 31.86 24.2837 30.9162L24.4484 31.2375C24.6195 31.2642 24.7733 31.3568 24.8768 31.4956C25.1134 31.9453 25.3056 32.4171 25.4506 32.9041C25.5173 33.1649 25.5988 33.4216 25.695 33.6729L25.7993 33.8871C25.8536 34.0331 25.9473 34.1611 26.0701 34.257C26.1928 34.3528 26.3398 34.4126 26.4946 34.4297C26.6494 34.4468 26.8059 34.4206 26.9467 34.3539C27.0874 34.2872 27.2068 34.1827 27.2917 34.0521C27.3765 33.9215 27.4233 33.7699 27.4269 33.6142C27.4306 33.4585 27.3909 33.3049 27.3122 33.1705L27.2024 32.9453C27.0653 32.7144 26.9149 32.4917 26.7521 32.2781C26.4624 31.8603 26.2141 31.4152 26.0108 30.9492C25.9907 30.864 25.9879 30.7756 26.0026 30.6893C26.0172 30.603 26.0489 30.5205 26.0959 30.4467C26.0421 30.3372 25.9953 30.2244 25.9559 30.109C28.2471 28.7447 29.9586 26.5877 30.7664 24.0464L31.1233 24.1095C31.2512 23.9926 31.4197 23.9305 31.5929 23.9365C32.0925 24.0315 32.5818 24.175 33.0536 24.3649C33.2986 24.4763 33.5498 24.5735 33.8059 24.6559C33.8663 24.6724 33.9542 24.6834 34.0256 24.7026H34.0421C34.1905 24.7515 34.3497 24.758 34.5017 24.7213C34.6537 24.6847 34.7924 24.6064 34.9023 24.4952C35.0122 24.384 35.0889 24.2444 35.1238 24.092C35.1586 23.9396 35.1503 23.7805 35.0997 23.6326C35.0489 23.4843 34.9577 23.3532 34.8363 23.2541C34.7149 23.1549 34.5682 23.0918 34.4127 23.0716L34.1656 23.0167C33.8989 22.9802 33.6303 22.9591 33.3611 22.9536C32.8536 22.9202 32.3506 22.8375 31.8592 22.7064C31.7071 22.6216 31.5816 22.4961 31.4968 22.344L31.159 22.2452C31.521 19.604 30.9005 16.922 29.4155 14.7081L29.712 14.4335C29.7 14.2608 29.7562 14.0903 29.8685 13.9585C30.2545 13.6267 30.672 13.3333 31.1151 13.0826C31.3543 12.9606 31.5862 12.8249 31.8098 12.6762L31.9937 12.528C32.1288 12.444 32.2373 12.3235 32.3067 12.1804C32.3762 12.0373 32.4037 11.8775 32.3862 11.7194C32.3687 11.5614 32.3068 11.4115 32.2077 11.2871C32.1087 11.1627 31.9764 11.0689 31.8262 11.0164C31.6761 10.964 31.5141 10.9552 31.3592 10.9909C31.2042 11.0266 31.0624 11.1054 30.9504 11.2183L30.7636 11.3665C30.5696 11.5508 30.3862 11.7461 30.2145 11.9514C29.8825 12.3309 29.5147 12.6776 29.1162 12.9865C28.9553 13.0517 28.7794 13.0707 28.6082 13.0414L28.2897 13.2693C26.453 11.3437 23.9796 10.1504 21.3293 9.91129C21.3293 9.80146 21.3128 9.59827 21.3101 9.53787C21.1675 9.43997 21.069 9.29016 21.0355 9.12051C21.0182 8.61246 21.0504 8.10393 21.1316 7.60212C21.1853 7.33913 21.2238 7.07327 21.2469 6.80585V6.56697C21.259 6.33482 21.1794 6.10721 21.0254 5.93313C20.8713 5.75904 20.6551 5.65241 20.4232 5.63617L20.4095 5.62793ZM19.3606 12.1244L19.1135 16.5175H19.0942C19.0885 16.651 19.0467 16.7804 18.9733 16.8919C18.8999 17.0035 18.7975 17.0931 18.6773 17.1511C18.557 17.2092 18.4232 17.2335 18.2901 17.2215C18.1571 17.2096 18.0298 17.1617 17.9218 17.0832L14.3194 14.5296C15.4663 13.4031 16.9052 12.6195 18.4737 12.2671C18.7676 12.2044 19.0645 12.1568 19.3633 12.1244H19.3606ZM21.4583 12.1244C23.3504 12.3591 25.1129 13.209 26.4748 14.5434L22.9053 17.0804C22.7974 17.1667 22.6675 17.221 22.5302 17.2372C22.393 17.2533 22.254 17.2307 22.129 17.1717C22.004 17.1128 21.8981 17.02 21.8232 16.9039C21.7483 16.7878 21.7075 16.653 21.7054 16.5148L21.4583 12.1244ZM13.0069 16.1853L16.3018 19.1233V19.1425C16.4024 19.2303 16.4772 19.3438 16.5184 19.4708C16.5596 19.5978 16.5655 19.7336 16.5357 19.8638C16.5058 19.9939 16.4412 20.1135 16.3488 20.2099C16.2564 20.3063 16.1396 20.3758 16.0108 20.411V20.4247L11.7823 21.6411C11.5727 19.7361 12.0036 17.8155 13.0069 16.1826V16.1853ZM27.7873 16.1853C28.7882 17.8139 29.2306 19.7245 29.0476 21.6274L24.8136 20.4083V20.3918C24.6848 20.3565 24.568 20.287 24.4756 20.1907C24.3832 20.0943 24.3186 19.9747 24.2887 19.8446C24.2589 19.7144 24.2648 19.5786 24.306 19.4516C24.3472 19.3246 24.422 19.2111 24.5226 19.1233L27.79 16.1963L27.7873 16.1853ZM19.734 19.3566H21.0794L21.9031 20.4L21.6011 21.707L20.393 22.2891L19.1794 21.707L18.8938 20.3973L19.734 19.3566ZM24.0531 22.9261C24.1096 22.9195 24.1667 22.9195 24.2233 22.9261L28.5835 23.662C27.9417 25.474 26.7135 27.02 25.0937 28.0552L23.4078 23.9695C23.3614 23.8601 23.342 23.7411 23.3511 23.6227C23.3603 23.5042 23.3979 23.3896 23.4606 23.2887C23.5233 23.1878 23.6094 23.1034 23.7115 23.0427C23.8137 22.9819 23.9289 22.9467 24.0476 22.9398L24.0531 22.9261ZM16.7302 22.9453C16.8514 22.9472 16.9703 22.979 17.0764 23.0377C17.1825 23.0965 17.2725 23.1804 17.3384 23.2822C17.4044 23.3839 17.4442 23.5004 17.4545 23.6212C17.4648 23.742 17.4452 23.8635 17.3974 23.975V23.9915L15.7197 28.0332C14.1195 27.0046 12.9019 25.4782 12.2546 23.6894L16.5764 22.9536C16.6248 22.9488 16.6735 22.9488 16.7219 22.9536L16.7302 22.9453ZM20.382 24.7191C20.5194 24.7149 20.6552 24.7489 20.7744 24.8173C20.8936 24.8856 20.9916 24.9856 21.0574 25.1062H21.0739L23.2046 28.9503C22.9251 29.044 22.641 29.1238 22.3534 29.1891C20.7862 29.5479 19.1499 29.4633 17.628 28.9448L19.7532 25.1007C19.8169 24.9898 19.9084 24.8973 20.0186 24.8323C20.1288 24.7673 20.2541 24.7321 20.382 24.7301V24.7191Z" fill="white" stroke="#343434" stroke-width="0.0363451"/>
<path d="M59.6207 21.6586L60.8137 20.3708C61.2235 19.9228 61.6212 19.4802 62.0068 19.043L63.0987 17.7951C63.4384 17.4005 63.7309 17.0566 63.9762 16.7633H68.6189C67.6914 17.8165 66.7883 18.8203 65.9093 19.7748C65.0277 20.7294 64.0625 21.7159 63.0137 22.7344C63.5892 23.2577 64.1295 23.8174 64.6314 24.4101C65.1895 25.0581 65.7287 25.7246 66.249 26.4098C66.7694 27.0951 67.2493 27.7883 67.6887 28.4895C68.1255 29.1828 68.4922 29.8147 68.7887 30.3853H64.2998C64.0302 29.932 63.712 29.4334 63.3454 28.8895C62.9787 28.3429 62.6012 27.807 62.213 27.2817C61.8086 26.7485 61.3853 26.2245 60.9431 25.71C60.5403 25.249 60.0979 24.8235 59.6207 24.4381V30.4132H55.7141V10.9082L59.6207 10.2843V21.6626V21.6586ZM82.3891 29.9293C81.5447 30.1577 80.6872 30.3353 79.8211 30.4612C78.7293 30.6292 77.6259 30.7121 76.5211 30.7092C75.5252 30.7383 74.5329 30.5795 73.5972 30.2413C72.877 29.9709 72.2402 29.5203 71.749 28.9335C71.281 28.3454 70.9497 27.6627 70.7784 26.9338C70.5792 26.0923 70.4828 25.2303 70.4913 24.3662V16.7673H74.3979V23.8862C74.3979 25.1314 74.5637 26.0299 74.8953 26.5818C75.227 27.1337 75.8471 27.4097 76.7556 27.4097C77.0253 27.4097 77.3218 27.3964 77.6453 27.3697C77.9689 27.343 78.2479 27.3124 78.4825 27.2777V16.7593H82.3891V29.9293ZM98.881 23.5783C98.8949 24.5839 98.7306 25.5842 98.3957 26.5338C98.0964 27.3763 97.6179 28.1455 96.9924 28.7895C96.3575 29.4271 95.5884 29.9187 94.7398 30.2293C93.7658 30.58 92.735 30.7508 91.6986 30.7332C91.2268 30.7332 90.7335 30.7119 90.2185 30.6692C89.7062 30.6265 89.1994 30.5706 88.6979 30.5012C88.1991 30.4319 87.7233 30.3493 87.2704 30.2533C86.8174 30.1573 86.413 30.0573 86.0571 29.9533V10.9042L89.9637 10.2803V17.0793C90.4024 16.8889 90.8589 16.7416 91.3266 16.6393C91.8262 16.5326 92.3361 16.4803 92.8472 16.4833C93.7391 16.4654 94.6246 16.6372 95.4435 16.9873C96.1795 17.3124 96.8268 17.8059 97.3321 18.427C97.8612 19.093 98.2529 19.8554 98.4847 20.6707C98.7575 21.616 98.8909 22.5953 98.881 23.5783ZM94.8975 23.4743C94.8975 20.9867 93.9714 19.7429 92.1192 19.7429C91.7164 19.7431 91.3153 19.7955 90.9262 19.8988C90.5878 19.9826 90.2646 20.1175 89.9678 20.2988V27.3097C90.1565 27.3444 90.3991 27.375 90.6957 27.4017C90.9923 27.4284 91.3158 27.4417 91.6663 27.4417C92.1302 27.4734 92.5948 27.3905 93.0184 27.2006C93.4419 27.0108 93.8111 26.7198 94.0928 26.3539C94.667 25.5047 94.9479 24.4945 94.8935 23.4743H94.8975ZM101.235 23.6823C101.211 22.5977 101.402 21.519 101.797 20.5067C102.132 19.6606 102.635 18.8895 103.277 18.2391C103.879 17.6482 104.597 17.1866 105.388 16.8833C106.167 16.5747 106.999 16.4159 107.839 16.4154C109.796 16.4154 111.342 17.0073 112.477 18.1911C113.61 19.3749 114.176 21.116 114.176 23.4143C114.176 23.6383 114.168 23.8849 114.152 24.1542C114.135 24.4208 114.118 24.6581 114.099 24.8661H105.242C105.277 25.2444 105.396 25.6103 105.591 25.9375C105.786 26.2646 106.053 26.5448 106.371 26.7578C107.166 27.261 108.101 27.5057 109.044 27.4577C109.752 27.458 110.459 27.3924 111.155 27.2617C111.735 27.1641 112.302 27.0031 112.845 26.7818L113.371 29.9173C113.101 30.044 112.821 30.1483 112.534 30.2293C112.151 30.3407 111.762 30.4315 111.369 30.5012C110.938 30.5812 110.48 30.6479 109.994 30.7012C109.507 30.7523 109.017 30.7777 108.526 30.7772C107.423 30.8008 106.325 30.6162 105.291 30.2333C104.429 29.9071 103.651 29.3979 103.01 28.7415C102.402 28.101 101.946 27.3345 101.675 26.4978C101.375 25.5904 101.225 24.641 101.231 23.6863L101.235 23.6823ZM110.407 22.2025C110.39 21.8769 110.333 21.5545 110.237 21.2426C110.145 20.9404 109.994 20.6591 109.792 20.4148C109.583 20.1666 109.324 19.9637 109.032 19.8188C108.676 19.6531 108.285 19.5736 107.891 19.5869C107.503 19.5768 107.118 19.6519 106.763 19.8068C106.463 19.9442 106.195 20.1433 105.978 20.3908C105.765 20.6396 105.6 20.9258 105.493 21.2346C105.38 21.5504 105.296 21.8757 105.242 22.2065H110.407V22.2025ZM125.499 20.1828C125.149 20.0975 124.744 20.0068 124.286 19.9108C123.785 19.8127 123.276 19.7644 122.766 19.7668C122.472 19.7702 122.179 19.7916 121.888 19.8308C121.627 19.8594 121.369 19.9075 121.116 19.9748V30.3733H117.209V17.4832C118.015 17.2127 118.836 16.9857 119.668 16.8033C120.713 16.5777 121.781 16.469 122.85 16.4793C123.061 16.4793 123.314 16.4927 123.611 16.5193C123.907 16.546 124.204 16.5807 124.5 16.6233C124.797 16.666 125.094 16.7193 125.39 16.7833C125.65 16.8329 125.905 16.9066 126.15 17.0033L125.499 20.1828ZM128.249 17.2312C129.094 17.0032 129.951 16.8256 130.817 16.6993C131.91 16.5313 133.015 16.4483 134.121 16.4513C135.119 16.4222 136.113 16.5768 137.053 16.9073C137.772 17.1687 138.409 17.6113 138.902 18.1911C139.368 18.7682 139.699 19.4401 139.872 20.1588C140.072 20.9906 140.169 21.8435 140.159 22.6984V30.4012H136.249V23.1623C136.249 21.9172 136.083 21.0373 135.751 20.5227C135.42 20.0055 134.799 19.7469 133.891 19.7469C133.621 19.7469 133.325 19.7602 133.001 19.7868C132.678 19.8135 132.399 19.8442 132.164 19.8788V30.3972H128.257V17.2312H128.249ZM143.031 23.6823C143.007 22.5977 143.198 21.519 143.593 20.5067C143.928 19.6606 144.431 18.8895 145.073 18.2391C145.67 17.6501 146.383 17.1886 147.168 16.8833C147.947 16.5748 148.779 16.416 149.618 16.4154C151.576 16.4154 153.122 17.0073 154.257 18.1911C155.389 19.3749 155.956 21.116 155.956 23.4143C155.956 23.6383 155.946 23.8849 155.927 24.1542C155.908 24.4208 155.891 24.6581 155.875 24.8661H147.018C147.053 25.2444 147.172 25.6103 147.367 25.9375C147.562 26.2646 147.828 26.5448 148.146 26.7578C148.942 27.261 149.877 27.5057 150.82 27.4577C151.528 27.458 152.235 27.3924 152.931 27.2617C153.51 27.1641 154.077 27.0031 154.621 26.7818L155.147 29.9173C154.877 30.044 154.597 30.1483 154.31 30.2293C153.927 30.3407 153.538 30.4315 153.145 30.5012C152.714 30.5812 152.255 30.6479 151.77 30.7012C151.282 30.7523 150.792 30.7777 150.302 30.7772C149.198 30.8008 148.1 30.6162 147.067 30.2333C146.205 29.9071 145.426 29.3979 144.786 28.7415C144.179 28.0967 143.726 27.3261 143.459 26.4858C143.165 25.5815 143.018 24.6363 143.027 23.6863L143.031 23.6823ZM152.203 22.2025C152.186 21.8769 152.129 21.5545 152.033 21.2426C151.941 20.9404 151.79 20.6591 151.588 20.4148C151.379 20.1666 151.12 19.9637 150.828 19.8188C150.472 19.6531 150.081 19.5736 149.687 19.5869C149.299 19.5767 148.914 19.6518 148.559 19.8068C148.258 19.9442 147.991 20.1433 147.774 20.3908C147.561 20.6395 147.396 20.9258 147.289 21.2346C147.176 21.5503 147.092 21.8757 147.038 22.2065H152.203V22.2025ZM158.855 13.3638L162.762 12.7399V16.7393H167.453V19.9388H162.762V24.7381C162.73 25.4125 162.879 26.0832 163.195 26.6818C163.483 27.1617 164.063 27.4017 164.934 27.4017C165.369 27.4005 165.803 27.3617 166.232 27.2857C166.646 27.2157 167.052 27.1073 167.445 26.9618L167.995 29.9693C167.484 30.1718 166.958 30.3362 166.422 30.4612C165.725 30.612 165.012 30.6818 164.299 30.6692C163.397 30.6966 162.499 30.5513 161.654 30.2413C161.001 29.988 160.423 29.5752 159.975 29.0415C159.541 28.5003 159.24 27.8662 159.098 27.1897C158.925 26.4015 158.841 25.5967 158.847 24.7901V13.3638H158.855ZM169.532 23.6823C169.508 22.5977 169.699 21.519 170.094 20.5067C170.429 19.6606 170.932 18.8895 171.574 18.2391C172.176 17.6482 172.894 17.1867 173.685 16.8833C174.464 16.5748 175.296 16.416 176.136 16.4154C178.093 16.4154 179.639 17.0073 180.774 18.1911C181.907 19.3749 182.473 21.112 182.473 23.4023C182.473 23.6263 182.463 23.8729 182.445 24.1422C182.426 24.4088 182.408 24.6461 182.392 24.8541H173.535C173.57 25.2327 173.69 25.5989 173.886 25.9261C174.082 26.2532 174.349 26.5333 174.668 26.7458C175.463 27.249 176.398 27.4937 177.341 27.4457C178.049 27.446 178.756 27.3804 179.452 27.2497C180.032 27.1521 180.599 26.9911 181.142 26.7698L181.668 29.9053C181.398 30.032 181.118 30.1363 180.831 30.2173C180.448 30.3287 180.059 30.4195 179.666 30.4892C179.235 30.5692 178.777 30.6359 178.291 30.6892C177.804 30.7403 177.314 30.7657 176.823 30.7652C175.72 30.7888 174.622 30.6042 173.588 30.2213C172.726 29.8951 171.948 29.3859 171.307 28.7295C170.693 28.0905 170.232 27.324 169.956 26.4858C169.663 25.5813 169.518 24.6361 169.528 23.6863L169.532 23.6823ZM178.712 22.2025C178.695 21.8769 178.638 21.5545 178.542 21.2426C178.45 20.9404 178.299 20.6591 178.097 20.4148C177.888 20.1666 177.629 19.9637 177.337 19.8188C176.981 19.6531 176.59 19.5736 176.196 19.5869C175.808 19.5767 175.423 19.6518 175.068 19.8068C174.761 19.9406 174.486 20.1384 174.263 20.3868C174.05 20.6355 173.885 20.9218 173.778 21.2306C173.665 21.5463 173.581 21.8717 173.527 22.2025H178.712ZM189.441 27.6217C189.957 27.6528 190.474 27.5821 190.961 27.4137C191.109 27.3412 191.231 27.2257 191.311 27.0827C191.39 26.9397 191.424 26.7761 191.406 26.6138C191.389 26.442 191.327 26.2777 191.225 26.1373C191.124 25.9969 190.987 25.8854 190.828 25.8139C190.268 25.4968 189.681 25.2292 189.073 25.0141C188.506 24.8088 187.95 24.5752 187.407 24.3142C186.94 24.0932 186.511 23.8003 186.137 23.4463C185.786 23.1061 185.511 22.6975 185.328 22.2465C185.123 21.7088 185.026 21.137 185.041 20.5627C185.018 19.9804 185.137 19.4012 185.388 18.8737C185.638 18.3462 186.013 17.8858 186.481 17.5312C187.44 16.7846 188.759 16.4114 190.436 16.4114C191.25 16.4077 192.062 16.4813 192.862 16.6313C193.487 16.7399 194.101 16.9004 194.698 17.1112L194.019 20.1188C193.533 19.9595 193.039 19.826 192.539 19.7189C191.949 19.5926 191.347 19.5322 190.743 19.5389C189.519 19.5389 188.907 19.8762 188.907 20.5507C188.906 20.6877 188.932 20.8236 188.984 20.9507C189.056 21.0925 189.165 21.2127 189.299 21.2986C189.503 21.4375 189.718 21.5593 189.942 21.6626C190.212 21.7959 190.557 21.9399 190.978 22.0945C191.707 22.3526 192.417 22.6627 193.101 23.0224C193.593 23.2778 194.04 23.6115 194.423 24.0102C194.736 24.347 194.968 24.7488 195.103 25.186C195.242 25.6738 195.309 26.179 195.301 26.6858C195.334 27.2821 195.21 27.8766 194.941 28.4114C194.673 28.9462 194.268 29.403 193.768 29.7373C192.744 30.4252 191.298 30.7719 189.433 30.7772C188.406 30.798 187.38 30.6932 186.379 30.4652C185.804 30.3322 185.239 30.1584 184.689 29.9453L185.344 26.8098C186.007 27.0684 186.69 27.2717 187.386 27.4177C188.062 27.5561 188.751 27.6245 189.441 27.6217Z" fill="#343434"/>
</svg>
