<svg width="64" height="64" viewBox="0 0 64 64" fill="none" xmlns="http://www.w3.org/2000/svg">
<g clip-path="url(#clip0_719_74745)">
<mask id="mask0_719_74745" style="mask-type:luminance" maskUnits="userSpaceOnUse" x="4" y="4" width="56" height="56">
<path d="M60 4H4V60H60V4Z" fill="white"/>
</mask>
<g mask="url(#mask0_719_74745)">
<path d="M32.0542 5.74777C32.5613 5.74777 33.0682 5.85921 33.5389 6.08233L51.8609 15.0438C52.8023 15.5272 53.5264 16.4197 53.7437 17.461L58.2698 37.6521C58.5233 38.7305 58.2698 39.8461 57.5819 40.7011L44.9087 56.8766C44.2569 57.7317 43.2429 58.2151 42.193 58.2151H21.8795C20.8293 58.2151 19.8156 57.7317 19.1638 56.8766L6.4906 40.7011C5.83881 39.8461 5.58515 38.7305 5.80264 37.6521L10.3288 17.461C10.5822 16.3825 11.2702 15.4901 12.2116 15.0438L30.5338 6.04541C31.0045 5.85944 31.5473 5.74777 32.0542 5.74777ZM32.0542 4C31.2939 4 30.5336 4.18597 29.8092 4.52053L11.4874 13.5194C10.0389 14.2259 9.02519 15.5272 8.66301 17.1262L4.13688 37.3175C3.77492 38.9164 4.13688 40.5525 5.15085 41.8541L17.824 58.0293C18.8018 59.2935 20.2863 60 21.8433 60H42.1566C43.7136 60 45.1983 59.2935 46.1759 58.0293L58.8493 41.8539C59.863 40.5897 60.2252 38.9164 59.863 37.3173L55.3369 17.1262C54.9749 15.5272 53.961 14.2259 52.5127 13.5194L34.263 4.5203C33.5751 4.18597 32.8147 4 32.0542 4Z" fill="black"/>
<path d="M50.3933 36.0464C50.3571 36.0464 50.3571 36.0464 50.3933 36.0464H50.3571C50.321 36.0464 50.2849 36.0464 50.2849 36.0092C50.2126 36.0092 50.1404 35.972 50.0679 35.972C49.8148 35.9349 49.5978 35.8977 49.3808 35.8977C49.2722 35.8977 49.1638 35.8977 49.019 35.8603H48.9829C48.2235 35.7859 47.6087 35.7116 47.03 35.5255C46.7769 35.4137 46.7046 35.265 46.6321 35.1161C46.6321 35.0789 46.596 35.0789 46.596 35.0418L46.1259 34.8931C46.348 33.1426 46.2622 31.3653 45.8728 29.646C45.4779 27.9125 44.7926 26.2629 43.8476 24.7714L44.2093 24.4366V24.3622C44.2093 24.1761 44.2454 23.99 44.3899 23.8039C44.8239 23.3946 45.3665 23.0598 46.0175 22.6504C46.1259 22.576 46.2343 22.5389 46.3429 22.4643C46.5599 22.3528 46.7407 22.2412 46.9577 22.0923C46.9938 22.0551 47.0661 22.018 47.1386 21.9436C47.1747 21.9062 47.2108 21.9062 47.2108 21.869C47.7171 21.4225 47.8257 20.6783 47.464 20.1944C47.2831 19.9339 46.9577 19.7852 46.6321 19.7852C46.3431 19.7852 46.0897 19.8968 45.8366 20.0828L45.7644 20.1572C45.6921 20.1944 45.6558 20.2689 45.5835 20.3061C45.4026 20.4922 45.2579 20.6409 45.1134 20.827C45.0411 20.9014 44.9689 21.0131 44.8603 21.0875C44.3538 21.6458 43.8837 22.0923 43.4136 22.4271C43.3052 22.5015 43.1968 22.5389 43.0882 22.5389C43.0159 22.5389 42.9435 22.5389 42.8712 22.5015H42.7989L42.3647 22.7993C41.8946 22.2784 41.3884 21.8319 40.8821 21.3853C38.7022 19.632 36.0787 18.56 33.3237 18.2967L33.2876 17.8129L33.2153 17.7386C33.1067 17.6268 32.9622 17.5153 32.9258 17.2549C32.8897 16.6594 32.9622 15.9896 33.0345 15.2454V15.2082C33.0345 15.0965 33.0706 14.9478 33.1067 14.836C33.1428 14.613 33.179 14.3895 33.2153 14.129V13.7943C33.2153 13.1244 32.7088 12.5664 32.0942 12.5664C31.8047 12.5664 31.5155 12.7151 31.2985 12.9383C31.0817 13.1616 30.9731 13.4592 30.9731 13.7943V14.0918C30.9731 14.3523 31.0093 14.5756 31.0815 14.7988C31.1176 14.9106 31.1176 15.0221 31.1538 15.171V15.2082C31.226 15.9524 31.3346 16.6222 31.2624 17.2177C31.2262 17.4781 31.0815 17.5897 30.9731 17.7014L30.9009 17.7758L30.8645 18.2595C30.2135 18.3338 29.5626 18.4082 28.9116 18.5571C26.127 19.1898 23.6678 20.6411 21.7512 22.7247L21.3895 22.4643H21.3172C21.245 22.4643 21.1725 22.5015 21.1003 22.5015C20.9916 22.5015 20.8833 22.4643 20.7747 22.3899C20.3045 22.0551 19.8344 21.5712 19.3282 21.0131C19.2559 20.9388 19.1837 20.827 19.0751 20.7527C18.9303 20.5666 18.7856 20.4176 18.6047 20.2318C18.5686 20.1944 18.4963 20.1574 18.4241 20.0828C18.3879 20.0457 18.3518 20.0457 18.3518 20.0085C18.1278 19.818 17.8467 19.7128 17.5561 19.7106C17.2305 19.7106 16.9051 19.8596 16.7243 20.12C16.3625 20.6037 16.4711 21.3479 16.9774 21.7945C17.0135 21.7945 17.0135 21.8319 17.0496 21.8319C17.1219 21.869 17.1582 21.9434 17.2305 21.9806C17.4475 22.1293 17.6284 22.241 17.8454 22.3528C17.954 22.3899 18.0623 22.4643 18.171 22.5389C18.8217 22.948 19.3643 23.283 19.7983 23.6924C19.9792 23.8783 19.9792 24.0644 19.9792 24.2505V24.3248L20.3407 24.6599C20.2684 24.7714 20.1962 24.846 20.1598 24.9575C18.3516 27.8972 17.6645 31.3579 18.1346 34.7813L17.6645 34.93C17.6645 34.9674 17.6284 34.9674 17.6284 35.0044C17.5561 35.1533 17.4475 35.3022 17.2305 35.4137C16.6881 35.5998 16.0371 35.6744 15.2778 35.7488H15.2414C15.133 35.7488 14.9883 35.7488 14.8799 35.7859C14.6629 35.7859 14.4459 35.8231 14.1928 35.8603C14.1206 35.8603 14.0483 35.8977 13.9758 35.8977C13.9397 35.8977 13.9036 35.8977 13.8672 35.9349C13.2163 36.0836 12.8184 36.7162 12.927 37.3115C13.0356 37.8326 13.5057 38.1676 14.0842 38.1676C14.1928 38.1676 14.2651 38.1676 14.3737 38.1302C14.4098 38.1302 14.4459 38.1302 14.4459 38.093C14.5182 38.093 14.5905 38.0559 14.6627 38.0559C14.9161 37.9815 15.0969 37.9072 15.3139 37.7954C15.4223 37.7582 15.5307 37.6837 15.6393 37.6467H15.6754C16.3625 37.386 16.9774 37.1628 17.5561 37.0884H17.6284C17.8454 37.0884 17.9901 37.1999 18.0985 37.2745C18.1346 37.2745 18.1346 37.3117 18.1707 37.3117L18.6772 37.2373C19.5452 39.9907 21.2086 42.4468 23.4147 44.233C23.921 44.6421 24.4272 44.9771 24.9698 45.3122L24.7528 45.7957C24.7528 45.833 24.7889 45.833 24.7889 45.87C24.8612 46.0189 24.9334 46.205 24.8612 46.4655C24.6444 47.0238 24.3188 47.5818 23.9209 48.2145V48.2517C23.8487 48.3634 23.7764 48.4378 23.7042 48.5493C23.5594 48.7354 23.4508 48.9215 23.3061 49.1448C23.27 49.1819 23.2338 49.2563 23.1977 49.3309C23.1977 49.368 23.1616 49.4052 23.1616 49.4052C22.8723 50.0379 23.0893 50.7448 23.6317 51.0053C23.7762 51.0796 23.921 51.1171 24.0657 51.1171C24.4997 51.1171 24.9337 50.8192 25.1507 50.4098C25.1507 50.3727 25.1868 50.3355 25.1868 50.3355C25.2229 50.2611 25.259 50.1868 25.2952 50.1494C25.4038 49.8889 25.4399 49.7028 25.5122 49.4796L25.6208 49.1448C25.8739 48.4006 26.0548 47.8051 26.3801 47.2842C26.5247 47.0609 26.7057 47.0238 26.8502 46.9492C26.8864 46.9492 26.8864 46.9492 26.9225 46.912L27.1759 46.4283C28.7671 47.0609 30.503 47.3957 32.2387 47.3957C33.2876 47.3957 34.3725 47.2842 35.3852 47.0238C36.0225 46.8771 36.6505 46.6907 37.2657 46.4655L37.4825 46.8748C37.5188 46.8748 37.5188 46.8748 37.555 46.912C37.7358 46.9492 37.8803 47.0238 38.0251 47.247C38.3143 47.7679 38.5313 48.4006 38.7844 49.1076V49.1448L38.8931 49.4796C38.9653 49.7028 39.0014 49.9261 39.1098 50.1494C39.1462 50.2237 39.1823 50.2611 39.2184 50.3355C39.2184 50.3727 39.2548 50.4098 39.2548 50.4098C39.4716 50.8564 39.9055 51.1171 40.3395 51.1171C40.4843 51.1171 40.629 51.0796 40.7735 51.0053C41.0266 50.8566 41.2436 50.6331 41.3161 50.3355C41.3884 50.0379 41.3884 49.7028 41.2439 49.4052C41.2439 49.368 41.2075 49.368 41.2075 49.3309C41.1714 49.2565 41.1352 49.1822 41.0991 49.1448C40.9905 48.9215 40.846 48.7354 40.7013 48.5493C40.629 48.4378 40.5567 48.3634 40.4845 48.2519V48.2145C40.0864 47.5818 39.7247 47.0238 39.544 46.4655C39.4718 46.205 39.544 46.0563 39.5802 45.8702C39.5802 45.833 39.6163 45.8331 39.6163 45.7959L39.4354 45.3493C41.3522 44.1958 42.9796 42.5583 44.2093 40.549C44.8603 39.507 45.3665 38.3535 45.728 37.1999L46.162 37.2743C46.1983 37.2743 46.1983 37.2371 46.2343 37.2371C46.379 37.1628 46.4876 37.0512 46.7046 37.0512H46.7769C47.3556 37.1256 47.9702 37.3486 48.6575 37.6093H48.6937C48.8021 37.6465 48.9104 37.7208 49.019 37.758C49.236 37.8698 49.4169 37.9441 49.67 38.0187C49.7423 38.0187 49.8145 38.0559 49.887 38.0559C49.9231 38.0559 49.9593 38.0559 49.9954 38.093C50.104 38.1302 50.1763 38.1302 50.2849 38.1302C50.8272 38.1302 51.2974 37.7582 51.4421 37.2745C51.4421 36.828 51.0442 36.2323 50.3933 36.0464ZM33.6491 34.223L32.0579 35.0046L30.4667 34.223L30.069 32.4742L31.1538 31.0602H32.9258L34.0108 32.4742L33.6491 34.223ZM43.0882 30.3532C43.3687 31.5837 43.4542 32.8527 43.3413 34.1113L37.8081 32.4742C37.3018 32.3255 37.0126 31.8044 37.121 31.2835C37.1571 31.1346 37.2296 30.9857 37.338 30.8741L41.714 26.818C42.3286 27.86 42.7987 29.051 43.0882 30.3532ZM39.978 24.5855L35.2405 28.0461C34.8427 28.3066 34.3001 28.232 33.9747 27.8229C33.8663 27.7111 33.8302 27.5622 33.7938 27.4135L33.4684 21.3479C35.9314 21.6397 38.2258 22.7809 39.978 24.5855ZM29.4903 21.5338C29.8882 21.4594 30.2497 21.3851 30.6475 21.3107L30.3221 27.2643C30.286 27.7852 29.8882 28.2318 29.3456 28.2318C29.2011 28.2318 29.0202 28.1946 28.9116 28.1203L24.1018 24.5855C25.5846 23.0598 27.429 22.0175 29.4903 21.5338ZM22.3659 26.8178L26.6694 30.7622C27.0672 31.0972 27.1034 31.7296 26.778 32.139C26.6694 32.2877 26.5249 32.3994 26.344 32.4368L20.7385 34.1113C20.5215 31.5809 21.0639 29.0134 22.3659 26.8178ZM21.3893 36.9021L27.1397 35.8972C27.6098 35.8601 28.0438 36.1951 28.1522 36.6788C28.1883 36.9019 28.1883 37.0882 28.1161 37.2743L25.91 42.7442C23.8848 41.4045 22.2573 39.3579 21.3893 36.9021ZM34.5895 44.3071C33.7577 44.4932 32.9258 44.6047 32.0579 44.6047C30.7923 44.6047 29.5626 44.3817 28.4056 44.0095L31.2624 38.6883C31.5516 38.3533 32.0217 38.2046 32.4196 38.4278C32.5885 38.5343 32.7358 38.6732 32.8536 38.837L35.6382 44.0095C35.3128 44.121 34.9513 44.1956 34.5895 44.3071ZM41.6415 39.1348C40.7374 40.6232 39.5438 41.8139 38.1698 42.7442L35.8915 37.1251C35.7829 36.6788 35.9638 36.1951 36.3977 35.9716C36.5423 35.8972 36.7231 35.8601 36.904 35.8601L42.6903 36.8649C42.4733 37.6834 42.1116 38.4278 41.6415 39.1348Z" fill="black"/>
</g>
</g>
<defs>
<clipPath id="clip0_719_74745">
<rect width="64" height="64" rx="8" fill="white"/>
</clipPath>
</defs>
</svg>
