<svg width="61" height="60" viewBox="0 0 61 60" fill="none" xmlns="http://www.w3.org/2000/svg">
<path d="M42.1518 30.8397C42.0174 30.8397 41.9502 30.8397 41.8158 30.7725C41.4799 30.7053 41.2783 30.5038 41.0768 30.235C40.9424 29.9662 40.8752 29.6303 40.9424 29.2944C41.0768 28.7568 41.5471 28.4209 42.0846 28.4209C42.219 28.4209 42.2862 28.4209 42.4205 28.4881C43.0924 28.6897 43.4284 29.2944 43.294 29.9662C43.1596 30.5038 42.6893 30.8397 42.1518 30.8397Z" fill="black"/>
<path d="M41.8177 30.7724C42.4224 30.974 43.0943 30.5708 43.2958 29.9661C43.4974 29.3614 43.0943 28.6895 42.4896 28.488C41.8849 28.2864 41.213 28.6895 41.0114 29.2942C40.8099 29.9661 41.213 30.638 41.8177 30.7724Z" fill="black"/>
<path d="M40.4736 25.3299C39.9361 25.3299 39.4657 24.994 39.3314 24.4565C39.1298 23.7846 39.5329 23.1799 40.2048 22.9783C40.3392 22.9783 40.4064 22.9111 40.5408 22.9111C41.0783 22.9111 41.5486 23.2471 41.683 23.7846C41.8845 24.4565 41.4814 25.0612 40.8095 25.2628C40.6751 25.3299 40.5408 25.3299 40.4736 25.3299Z" fill="black"/>
<path d="M40.7425 25.2626C41.3472 25.0611 41.7503 24.4564 41.5488 23.7845C41.3472 23.1798 40.7425 22.7766 40.0706 22.9782C39.4659 23.1798 39.0628 23.7845 39.2643 24.4564C39.4659 25.0611 40.1378 25.4642 40.7425 25.2626Z" fill="black"/>
<path fill-rule="evenodd" clip-rule="evenodd" d="M36.4215 30.437C35.9512 30.9074 35.4809 31.3777 35.0106 31.848C34.6746 32.1839 34.2715 32.5199 33.8684 32.7886C33.2637 33.1918 32.5918 33.1918 31.9199 32.9902C31.3824 32.7886 31.1136 32.4527 30.9792 31.848C30.3073 32.3855 29.6354 33.0574 28.6276 33.1246C28.5604 33.5277 28.4932 33.8637 28.3589 34.2668C28.2917 34.4684 28.2917 34.6028 28.2245 34.8043C28.2245 35.0731 28.0901 35.1403 27.8213 35.2075C27.2166 35.3418 25.94 35.6778 25.8057 35.6778C26.5447 32.3183 27.2166 28.8917 27.9557 25.5322C28.6948 25.5322 29.4339 25.5322 30.173 25.5322C30.0386 26.0697 29.0307 30.9074 29.0307 30.9745C28.9636 31.5792 29.3667 31.9152 29.9042 31.7136C30.2401 31.6464 30.5089 31.3777 30.7777 31.2433C30.8448 31.2433 30.8448 31.1089 30.8448 31.0417C31.248 29.2276 31.5839 27.4807 31.9871 25.6666C31.9871 25.5994 31.9871 25.5994 32.0543 25.5322C32.7933 25.5322 33.4652 25.5322 34.2043 25.5322C34.0699 26.0697 33.3308 29.6308 33.0621 30.9074C33.0621 30.9745 33.0621 31.1089 33.0621 31.1761C33.0621 31.4449 33.1965 31.6464 33.4652 31.7136C33.734 31.7808 33.9355 31.7808 34.2043 31.6464C34.4059 31.5121 34.6746 31.3777 34.8762 31.1761C35.0778 30.9745 35.3465 30.8402 35.5481 30.6386C35.884 30.437 36.0856 30.3698 36.4215 30.437Z" fill="black"/>
<path d="M36.2387 21.3661C35.9028 21.3661 35.634 21.2317 35.3652 21.0301C35.0965 20.8286 35.0293 20.4926 35.0293 20.1567C35.0293 19.8207 35.1637 19.552 35.3652 19.2832C35.5668 19.0816 35.9028 18.9473 36.2387 18.9473C36.5746 18.9473 36.8434 19.0816 37.1122 19.2832C37.3137 19.4848 37.4481 19.8207 37.4481 20.1567C37.4481 20.4926 37.3137 20.7614 37.1122 21.0301C36.8434 21.2317 36.5746 21.3661 36.2387 21.3661Z" fill="black"/>
<path d="M35.4338 19.3508C34.9635 19.8211 34.9635 20.5602 35.4338 21.0305C35.9041 21.5008 36.6432 21.5008 37.1135 21.0305C37.5838 20.5602 37.5838 19.8211 37.1135 19.3508C36.6432 18.8805 35.9041 18.8805 35.4338 19.3508Z" fill="black"/>
<path d="M30.595 20.0887C30.4607 20.0887 30.3935 20.0887 30.2591 20.0215C29.5872 19.82 29.2513 19.2153 29.3856 18.5434C29.52 18.0059 29.9903 17.6699 30.5279 17.6699C30.6622 17.6699 30.7294 17.6699 30.8638 17.7371C31.1998 17.8043 31.4685 18.0059 31.6029 18.2746C31.7373 18.5434 31.8045 18.8793 31.7373 19.2153C31.6701 19.6856 31.1998 20.0887 30.595 20.0887Z" fill="black"/>
<path d="M30.932 17.738C30.3273 17.5364 29.6554 17.9395 29.4538 18.5443C29.2522 19.149 29.6554 19.8208 30.2601 20.0224C30.8648 20.224 31.5367 19.8208 31.7382 19.2161C31.9398 18.5443 31.5367 17.8724 30.932 17.738Z" fill="black"/>
<path d="M25.0869 21.702C24.5493 21.702 24.079 21.3661 23.9446 20.8286C23.7431 20.1567 24.1462 19.552 24.8181 19.3504C24.9525 19.3504 25.0197 19.2832 25.154 19.2832C25.6916 19.2832 26.1619 19.6191 26.2963 20.1567C26.4978 20.8286 26.0947 21.4333 25.4228 21.6348C25.2884 21.702 25.2212 21.702 25.0869 21.702Z" fill="black"/>
<path d="M25.4232 21.7021C26.0279 21.5005 26.431 20.8958 26.2294 20.2239C26.0279 19.6192 25.4232 19.2161 24.7513 19.4177C24.1466 19.6192 23.7434 20.2239 23.945 20.8958C24.1466 21.4333 24.7513 21.8365 25.4232 21.7021Z" fill="black"/>
<path d="M21.1215 25.9344C20.7856 25.9344 20.5168 25.8001 20.2481 25.5985C20.0465 25.3969 19.9121 25.061 19.9121 24.725C19.9121 24.3891 20.0465 24.1203 20.2481 23.8516C20.4496 23.65 20.7856 23.5156 21.1215 23.5156C21.4575 23.5156 21.7262 23.65 21.995 23.8516C22.4653 24.3219 22.4653 25.061 21.995 25.5313C21.7934 25.8001 21.4575 25.9344 21.1215 25.9344Z" fill="black"/>
<path d="M20.3166 23.9191C19.8463 24.3895 19.8463 25.1286 20.3166 25.5989C20.7869 26.0692 21.526 26.0692 21.9963 25.5989C22.4667 25.1286 22.4667 24.3895 21.9963 23.9191C21.526 23.4488 20.7869 23.4488 20.3166 23.9191Z" fill="black"/>
<path d="M19.845 31.579C19.7107 31.579 19.6435 31.579 19.5091 31.5118C18.8372 31.3102 18.5013 30.7055 18.6356 30.0336C18.77 29.4961 19.2403 29.1602 19.7779 29.1602C19.9122 29.1602 19.9794 29.1602 20.1138 29.2273C20.7857 29.4289 21.1216 30.0336 20.9873 30.7055C20.8529 31.1758 20.3826 31.579 19.845 31.579Z" fill="black"/>
<path d="M20.1136 29.2272C19.5089 29.0257 18.837 29.4288 18.6354 30.0335C18.4339 30.6382 18.837 31.3101 19.4417 31.5117C20.0464 31.7132 20.7183 31.3101 20.9199 30.7054C21.1214 30.0335 20.7855 29.3616 20.1136 29.2272Z" fill="black"/>
<path d="M21.4589 37.0887C20.9214 37.0887 20.4511 36.7528 20.3167 36.2153C20.1151 35.5434 20.5183 34.9387 21.1902 34.7371C21.3246 34.7371 21.3917 34.6699 21.5261 34.6699C22.0636 34.6699 22.534 35.0059 22.6683 35.5434C22.8699 36.2153 22.4668 36.82 21.7949 37.0215C21.7277 37.0887 21.5933 37.0887 21.4589 37.0887Z" fill="black"/>
<path d="M21.1888 34.7364C20.5841 34.938 20.1809 35.5427 20.3825 36.2146C20.5841 36.8193 21.1888 37.2224 21.8607 37.0209C22.4654 36.8193 22.8685 36.2146 22.6669 35.5427C22.4654 34.938 21.7935 34.6021 21.1888 34.7364Z" fill="black"/>
<path d="M25.6908 41.0526C25.3549 41.0526 25.0861 40.9182 24.8174 40.7166C24.6158 40.5151 24.4814 40.1791 24.4814 39.8432C24.4814 39.5072 24.6158 39.2385 24.8174 38.9697C25.019 38.7682 25.3549 38.6338 25.6908 38.6338C26.0268 38.6338 26.2956 38.7682 26.5643 38.9697C27.0346 39.4401 27.0346 40.1791 26.5643 40.6495C26.2956 40.9182 26.0268 41.0526 25.6908 41.0526Z" fill="black"/>
<path d="M26.5637 40.6497C27.034 40.1793 27.034 39.4403 26.5637 38.9699C26.0934 38.4996 25.3543 38.4996 24.884 38.9699C24.4137 39.4403 24.4137 40.1793 24.884 40.6497C25.3543 41.12 26.0934 41.12 26.5637 40.6497Z" fill="black"/>
<path d="M31.3363 42.3963C31.202 42.3963 31.1348 42.3963 31.0004 42.3292C30.6645 42.262 30.3957 42.0604 30.2613 41.7916C30.1269 41.5229 30.0598 41.1869 30.1269 40.851C30.2613 40.3135 30.7316 39.9775 31.2692 39.9775C31.4035 39.9775 31.4707 39.9775 31.6051 40.0447C31.941 40.1119 32.1426 40.3135 32.3442 40.5822C32.4786 40.851 32.5458 41.1869 32.4786 41.5229C32.3442 41.9932 31.8739 42.3963 31.3363 42.3963Z" fill="black"/>
<path d="M30.9993 42.3291C31.604 42.5306 32.2759 42.1275 32.4775 41.5228C32.6791 40.9181 32.2759 40.2462 31.6712 40.0446C31.0665 39.8431 30.3946 40.2462 30.1931 40.8509C29.9915 41.4556 30.3946 42.1275 30.9993 42.3291Z" fill="black"/>
<path d="M36.8465 40.7167C36.3089 40.7167 35.8386 40.3807 35.7042 39.8432C35.6371 39.5073 35.6371 39.2385 35.8386 38.9026C35.973 38.6338 36.2418 38.4322 36.5777 38.365C36.7121 38.365 36.7793 38.2979 36.9136 38.2979C37.4512 38.2979 37.9215 38.6338 38.0559 39.1713C38.2574 39.8432 37.8543 40.4479 37.1824 40.6495C37.048 40.7167 36.9808 40.7167 36.8465 40.7167Z" fill="black"/>
<path d="M36.5765 38.3649C35.9718 38.5665 35.5686 39.1712 35.7702 39.8431C35.9718 40.4478 36.5765 40.8509 37.2484 40.6494C37.8531 40.4478 38.2562 39.8431 38.0546 39.1712C37.8531 38.5665 37.1812 38.1634 36.5765 38.3649Z" fill="black"/>
<path d="M40.8092 36.4835C40.4733 36.4835 40.2045 36.3491 39.9358 36.1475C39.4654 35.6772 39.4654 34.9381 39.9358 34.4678C40.1373 34.2662 40.4733 34.1318 40.8092 34.1318C41.1452 34.1318 41.4139 34.2662 41.6827 34.4678C42.153 34.9381 42.153 35.6772 41.6827 36.1475C41.4139 36.3491 41.1452 36.4835 40.8092 36.4835Z" fill="black"/>
<path d="M41.6829 36.1477C42.1532 35.6774 42.1532 34.9383 41.6829 34.468C41.2125 33.9977 40.4735 33.9977 40.0031 34.468C39.5328 34.9383 39.5328 35.6774 40.0031 36.1477C40.4063 36.5508 41.2125 36.5508 41.6829 36.1477Z" fill="black"/>
<path d="M47.7285 31.4438C47.5941 31.4438 47.4597 31.4438 47.3925 31.3766C46.6535 31.1751 46.1831 30.3688 46.3847 29.6297C46.5191 29.025 47.1238 28.5547 47.7285 28.5547C47.8629 28.5547 47.9972 28.5547 48.0644 28.6219C48.8035 28.8234 49.2738 29.6297 49.0723 30.3688C48.9379 31.0407 48.4004 31.4438 47.7285 31.4438Z" fill="black"/>
<path d="M48.1328 28.6894C47.3937 28.4878 46.6546 28.9581 46.4531 29.6972C46.2515 30.4363 46.7218 31.1754 47.4609 31.377C48.2 31.5785 48.9391 31.1082 49.1406 30.3691C49.275 29.6972 48.8719 28.891 48.1328 28.6894Z" fill="black"/>
<path d="M45.5099 23.0454C44.9052 23.0454 44.3005 22.6422 44.1662 21.9704C44.099 21.6344 44.099 21.2313 44.3005 20.8953C44.5021 20.5594 44.7709 20.3578 45.174 20.2234C45.3084 20.2234 45.4428 20.1562 45.5099 20.1562C46.1146 20.1562 46.7193 20.5594 46.8537 21.2313C46.9209 21.5672 46.9209 21.9704 46.7193 22.3063C46.5178 22.6422 46.249 22.8438 45.8459 22.9782C45.7787 23.0454 45.6443 23.0454 45.5099 23.0454Z" fill="black"/>
<path d="M45.8486 22.9785C46.5877 22.777 47.058 22.0379 46.8564 21.2988C46.6549 20.5597 45.9158 20.0894 45.1767 20.291C44.4376 20.4925 43.9673 21.2316 44.1689 21.9707C44.3705 22.777 45.1095 23.1801 45.8486 22.9785Z" fill="black"/>
<path d="M39.3973 16.9313C38.9942 16.9313 38.6582 16.7969 38.3895 16.5282C38.1207 16.2594 37.9863 15.9235 37.9863 15.5203C37.9863 15.1172 38.1207 14.7813 38.3895 14.5125C38.6582 14.2438 38.9942 14.1094 39.3973 14.1094C39.8004 14.1094 40.1364 14.2438 40.4051 14.5125C40.9426 15.05 40.9426 15.9235 40.4051 16.5282C40.1364 16.7969 39.8004 16.9313 39.3973 16.9313Z" fill="black"/>
<path d="M38.3895 16.461C38.927 16.9985 39.8004 16.9985 40.3379 16.461C40.8755 15.9235 40.8755 15.05 40.3379 14.5125C39.8004 13.975 38.927 13.975 38.3895 14.5125C37.8519 15.05 37.8519 15.9235 38.3895 16.461Z" fill="black"/>
<path d="M30.998 14.6469C30.8636 14.6469 30.7293 14.6469 30.6621 14.5798C29.923 14.3782 29.4527 13.5719 29.6542 12.8328C29.7886 12.2281 30.3933 11.7578 30.998 11.7578C31.1324 11.7578 31.2668 11.7578 31.334 11.825C32.073 12.0266 32.5434 12.8328 32.3418 13.5719C32.2074 14.2438 31.6699 14.6469 30.998 14.6469Z" fill="black"/>
<path d="M30.6621 14.5791C31.4012 14.7807 32.1402 14.3103 32.3418 13.5713C32.5434 12.8322 32.073 12.0931 31.334 11.8915C30.5949 11.69 29.8558 12.1603 29.6542 12.8994C29.4527 13.6385 29.923 14.3775 30.6621 14.5791Z" fill="black"/>
<path d="M22.6015 16.8637C21.9968 16.8637 21.3921 16.4606 21.2578 15.7887C21.0562 15.0496 21.5265 14.2434 22.2656 14.0418C22.4 14.0418 22.5343 13.9746 22.6015 13.9746C23.2062 13.9746 23.8109 14.3777 23.9453 15.0496C24.1469 15.7887 23.6766 16.595 22.9375 16.7966C22.8703 16.8637 22.7359 16.8637 22.6015 16.8637Z" fill="black"/>
<path d="M22.2656 14.1093C21.5265 14.3109 21.0562 15.05 21.2578 15.789C21.4593 16.5281 22.1984 16.9984 22.9375 16.7969C23.6766 16.5953 24.1469 15.8562 23.9453 15.1172C23.7437 14.3781 23.0047 13.9077 22.2656 14.1093Z" fill="black"/>
<path d="M16.4862 22.9782C16.083 22.9782 15.7471 22.8438 15.4783 22.5751C15.2096 22.3063 15.0752 21.9704 15.0752 21.5672C15.0752 21.1641 15.2096 20.8281 15.4783 20.5594C15.7471 20.2906 16.083 20.1562 16.4862 20.1562C16.8893 20.1562 17.2252 20.2906 17.494 20.5594C17.7628 20.8281 17.8971 21.1641 17.8971 21.5672C17.8971 21.9704 17.7628 22.3063 17.494 22.5751C17.2252 22.8438 16.8221 22.9782 16.4862 22.9782Z" fill="black"/>
<path d="M15.4783 22.5752C16.0158 23.1128 16.8893 23.1128 17.4268 22.5752C17.9643 22.0377 17.9643 21.1643 17.4268 20.6268C16.8893 20.0893 16.0158 20.0893 15.4783 20.6268C14.9408 21.1643 14.9408 22.0377 15.4783 22.5752Z" fill="black"/>
<path d="M14.2021 31.3764C14.0677 31.3764 13.9334 31.3764 13.8662 31.3092C13.1271 31.1077 12.6568 30.3014 12.8583 29.5623C12.9927 28.9576 13.5974 28.4873 14.2021 28.4873C14.3365 28.4873 14.4709 28.4873 14.5381 28.5545C15.2771 28.7561 15.7475 29.5623 15.5459 30.3014C15.4115 30.9733 14.8068 31.3764 14.2021 31.3764Z" fill="black"/>
<path d="M13.8662 31.3096C14.6053 31.5111 15.3443 31.0408 15.5459 30.3017C15.7475 29.5627 15.2771 28.8236 14.5381 28.622C13.799 28.4204 13.0599 28.8908 12.8583 29.6298C12.6568 30.3689 13.1271 31.108 13.8662 31.3096Z" fill="black"/>
<path d="M16.4209 39.7758C15.8162 39.7758 15.2115 39.3727 15.0771 38.7008C14.8755 37.9617 15.3458 37.1555 16.0849 36.9539C16.2193 36.9539 16.3537 36.8867 16.4209 36.8867C17.0256 36.8867 17.6303 37.2899 17.7647 37.9617C17.9662 38.7008 17.4959 39.5071 16.7568 39.7087C16.6896 39.7758 16.5552 39.7758 16.4209 39.7758Z" fill="black"/>
<path d="M16.0849 37.0204C15.3458 37.222 14.8755 37.9611 15.0771 38.7002C15.2787 39.4393 16.0177 39.9096 16.7568 39.708C17.4959 39.5064 17.9662 38.7674 17.7647 38.0283C17.5631 37.2892 16.824 36.8189 16.0849 37.0204Z" fill="black"/>
<path d="M22.5321 45.8903C22.1289 45.8903 21.793 45.7559 21.5242 45.4872C21.2555 45.2184 21.1211 44.8825 21.1211 44.4793C21.1211 44.0762 21.2555 43.7402 21.5242 43.4715C21.793 43.2027 22.1289 43.0684 22.5321 43.0684C22.9352 43.0684 23.2711 43.2027 23.5399 43.4715C24.0774 44.009 24.0774 44.8825 23.5399 45.4872C23.2711 45.7559 22.9352 45.8903 22.5321 45.8903Z" fill="black"/>
<path d="M23.5411 43.5389C23.0036 43.0014 22.1301 43.0014 21.5926 43.5389C21.0551 44.0764 21.0551 44.9498 21.5926 45.4874C22.1301 46.0249 23.0036 46.0249 23.5411 45.4874C24.0786 44.9498 24.0786 44.0764 23.5411 43.5389Z" fill="black"/>
<path d="M30.9322 48.1743C30.7979 48.1743 30.6635 48.1743 30.5963 48.1071C30.2604 48.0399 29.9244 47.7712 29.7228 47.4352C29.5213 47.0993 29.4541 46.6961 29.5885 46.3602C29.7228 45.7555 30.3275 45.2852 30.9322 45.2852C31.0666 45.2852 31.201 45.2852 31.2682 45.3523C31.6041 45.4195 31.9401 45.6883 32.1417 46.0242C32.3432 46.3602 32.4104 46.7633 32.276 47.0993C32.1417 47.7712 31.6041 48.1743 30.9322 48.1743Z" fill="black"/>
<path d="M31.2685 45.4199C30.5295 45.2183 29.7904 45.6886 29.5888 46.4277C29.3872 47.1668 29.8576 47.9059 30.5966 48.1074C31.3357 48.309 32.0748 47.8387 32.2764 47.0996C32.4779 46.4277 32.0076 45.6214 31.2685 45.4199Z" fill="black"/>
<path d="M39.3303 45.9575C38.7256 45.9575 38.1209 45.5544 37.9865 44.8825C37.9193 44.5465 37.9193 44.1434 38.1209 43.8074C38.3224 43.4715 38.5912 43.2699 38.9943 43.1355C39.1287 43.1355 39.2631 43.0684 39.3303 43.0684C39.935 43.0684 40.5397 43.4715 40.674 44.1434C40.8756 44.8825 40.4053 45.6887 39.6662 45.8903C39.599 45.9575 39.4646 45.9575 39.3303 45.9575Z" fill="black"/>
<path d="M39.6679 45.8897C40.407 45.6881 40.8774 44.949 40.6758 44.2099C40.4742 43.4708 39.7351 43.0005 38.9961 43.2021C38.257 43.4037 37.7867 44.1427 37.9882 44.8818C38.1898 45.6209 38.9289 46.0912 39.6679 45.8897Z" fill="black"/>
<path d="M45.5135 39.8425C45.1104 39.8425 44.7744 39.7081 44.5057 39.4393C43.9682 38.9018 43.9682 38.0283 44.5057 37.4236C44.7744 37.1549 45.1104 37.0205 45.5135 37.0205C45.9166 37.0205 46.2526 37.1549 46.5213 37.4236C47.0589 37.9612 47.0589 38.8346 46.5213 39.4393C46.1854 39.7081 45.8495 39.8425 45.5135 39.8425Z" fill="black"/>
<path d="M46.4542 37.4236C45.9166 36.8861 45.0432 36.8861 44.5057 37.4236C43.9682 37.9612 43.9682 38.8346 44.5057 39.3721C45.0432 39.9096 45.9166 39.9096 46.4542 39.3721C46.9917 38.8346 46.9917 37.9612 46.4542 37.4236Z" fill="black"/>
<path d="M53.5044 34.4007C53.37 34.4007 53.1685 34.4007 53.0341 34.3335C52.0934 34.0647 51.4887 33.0569 51.7575 32.1162C51.9591 31.31 52.6981 30.7725 53.5044 30.7725C53.6388 30.7725 53.8404 30.7725 53.9747 30.8397C54.4451 30.974 54.8482 31.2428 55.0498 31.7131C55.3185 32.1162 55.3857 32.5866 55.2513 33.0569C55.0498 33.8632 54.3107 34.4007 53.5044 34.4007Z" fill="black"/>
<path d="M53.0341 34.3334C53.9747 34.6021 54.9826 33.9974 55.2513 33.0568C55.5201 32.1161 54.9154 31.1083 53.9747 30.8395C53.0341 30.5708 52.0262 31.1755 51.7575 32.1161C51.4887 33.0568 52.0934 34.0646 53.0341 34.3334Z" fill="black"/>
<path d="M51.7573 22.7766C50.9511 22.7766 50.212 22.2391 50.0104 21.4329C49.7417 20.4922 50.3464 19.4844 51.287 19.2156C51.4214 19.1484 51.623 19.1484 51.7573 19.1484C52.5636 19.1484 53.3027 19.686 53.5043 20.4922C53.773 21.4329 53.1683 22.4407 52.2277 22.7095C52.0933 22.7766 51.8917 22.7766 51.7573 22.7766Z" fill="black"/>
<path d="M53.5043 20.5595C53.2355 19.6188 52.2949 19.0141 51.287 19.2829C50.3464 19.5516 49.7417 20.4923 50.0104 21.5001C50.2792 22.4408 51.2198 23.0455 52.2277 22.7767C53.1683 22.4408 53.773 21.5001 53.5043 20.5595Z" fill="black"/>
<path d="M44.5026 13.639C44.0323 13.639 43.5619 13.4374 43.226 13.1014C42.89 12.7655 42.6885 12.2952 42.6885 11.8248C42.6885 11.3545 42.89 10.8842 43.226 10.5483C43.5619 10.2123 44.0323 10.0107 44.5026 10.0107C44.9729 10.0107 45.4432 10.2123 45.7792 10.5483C46.1151 10.8842 46.3167 11.3545 46.3167 11.8248C46.3167 12.2952 46.1151 12.7655 45.7792 13.1014C45.376 13.4374 44.9729 13.639 44.5026 13.639Z" fill="black"/>
<path d="M45.7124 10.5479C45.0405 9.87597 43.8983 9.87597 43.1592 10.5479C42.4873 11.2198 42.4873 12.362 43.1592 13.101C43.8311 13.7729 44.9733 13.7729 45.7124 13.101C46.4515 12.362 46.4515 11.2198 45.7124 10.5479Z" fill="black"/>
<path d="M33.5503 9.27177C33.4159 9.27177 33.2144 9.27177 33.08 9.20458C32.1393 8.93582 31.5346 7.92798 31.8034 6.98734C32.005 6.18107 32.744 5.64355 33.5503 5.64355C33.6847 5.64355 33.8863 5.64355 34.0206 5.71074C34.491 5.84512 34.8941 6.11388 35.0957 6.5842C35.3644 6.98734 35.4316 7.45766 35.2972 7.92798C35.0957 8.73425 34.3566 9.27177 33.5503 9.27177Z" fill="black"/>
<path d="M33.0814 9.20445C34.0221 9.47321 35.0299 8.8685 35.2987 7.92786C35.5674 6.98721 34.9627 5.97937 34.0221 5.71062C33.0814 5.44186 32.0736 6.04656 31.8048 6.98721C31.6033 7.99504 32.1408 8.93569 33.0814 9.20445Z" fill="black"/>
<path d="M21.9273 11.0188C21.121 11.0188 20.3819 10.4813 20.1803 9.67505C19.9116 8.73441 20.5163 7.72657 21.4569 7.45781C21.5913 7.39063 21.7929 7.39062 21.9273 7.39062C22.7335 7.39062 23.4726 7.92814 23.6742 8.73441C23.8086 9.20473 23.7414 9.67505 23.4726 10.0782C23.2039 10.4813 22.8679 10.8173 22.3976 10.9516C22.2632 11.0188 22.1288 11.0188 21.9273 11.0188Z" fill="black"/>
<path d="M22.3976 10.9515C23.3382 10.6828 23.9429 9.74212 23.6742 8.73428C23.4054 7.79363 22.4648 7.18893 21.4569 7.45769C20.5163 7.72644 19.9116 8.66709 20.1803 9.67493C20.5163 10.6156 21.4569 11.2203 22.3976 10.9515Z" fill="black"/>
<path d="M12.7904 18.3421C12.3201 18.3421 11.8497 18.1405 11.5138 17.8046C10.7747 17.0655 10.8419 15.9233 11.5138 15.2514C11.8497 14.9154 12.3201 14.7139 12.7904 14.7139C13.2607 14.7139 13.731 14.9154 14.067 15.2514C14.4029 15.5873 14.6045 16.0576 14.6045 16.528C14.6045 16.9983 14.4029 17.4686 14.067 17.8046C13.731 18.1405 13.2607 18.3421 12.7904 18.3421Z" fill="black"/>
<path d="M14.0649 15.251C13.393 14.5791 12.2508 14.5791 11.5117 15.251C10.8398 15.9229 10.8398 17.0651 11.5117 17.8042C12.1836 18.4761 13.3258 18.4761 14.0649 17.8042C14.7368 17.0651 14.7368 15.9229 14.0649 15.251Z" fill="black"/>
<path d="M8.48891 29.2268C8.35453 29.2268 8.15296 29.2268 8.01859 29.1597C7.54826 29.0253 7.14513 28.7565 6.94356 28.2862C6.6748 27.8831 6.60762 27.4127 6.74199 26.9424C6.94356 26.1361 7.68264 25.5986 8.48891 25.5986C8.62329 25.5986 8.82486 25.5986 8.95923 25.6658C9.89988 25.9346 10.5046 26.9424 10.2358 27.8831C9.96707 28.6893 9.29518 29.2268 8.48891 29.2268Z" fill="black"/>
<path d="M8.89199 25.6657C7.95134 25.3969 6.94351 26.0016 6.67475 26.9423C6.47318 27.8829 7.0107 28.8908 8.01853 29.1595C8.95918 29.4283 9.96702 28.8236 10.2358 27.8829C10.4373 26.9423 9.89983 25.9345 8.89199 25.6657Z" fill="black"/>
<path d="M10.1694 40.8509C9.36318 40.8509 8.6241 40.3134 8.42253 39.5071C8.15377 38.5664 8.75848 37.5586 9.69912 37.2898C9.8335 37.2227 10.0351 37.2227 10.1694 37.2227C10.9757 37.2227 11.7148 37.7602 11.9164 38.5664C12.1851 39.5071 11.5804 40.5149 10.6398 40.7837C10.5054 40.7837 10.371 40.8509 10.1694 40.8509Z" fill="black"/>
<path d="M9.69912 37.2897C8.75848 37.5585 8.15377 38.4991 8.42253 39.507C8.69129 40.4476 9.63193 41.0523 10.6398 40.7836C11.5804 40.5148 12.1851 39.5741 11.9164 38.5663C11.6476 37.6257 10.6398 37.021 9.69912 37.2897Z" fill="black"/>
<path d="M17.4918 49.9886C17.0215 49.9886 16.5512 49.787 16.2152 49.451C15.8793 49.1151 15.6777 48.6448 15.6777 48.1745C15.6777 47.7041 15.8793 47.2338 16.2152 46.8979C16.5512 46.5619 17.0215 46.3604 17.4918 46.3604C17.9622 46.3604 18.4325 46.5619 18.7684 46.8979C19.4403 47.6369 19.4403 48.7792 18.7684 49.451C18.4325 49.8542 17.9622 49.9886 17.4918 49.9886Z" fill="black"/>
<path d="M18.768 46.9649C18.0961 46.293 16.9539 46.293 16.2149 46.9649C15.543 47.6367 15.543 48.779 16.2149 49.518C16.8867 50.1899 18.029 50.1899 18.768 49.518C19.4399 48.779 19.4399 47.6367 18.768 46.9649Z" fill="black"/>
<path d="M28.3775 54.3558C28.2431 54.3558 28.0415 54.3558 27.9071 54.2886C26.9665 54.0198 26.3618 53.012 26.6305 52.0713C26.8321 51.2651 27.5712 50.7275 28.3775 50.7275C28.5118 50.7275 28.7134 50.7275 28.8478 50.7947C29.3181 50.9291 29.7212 51.1979 29.9228 51.6682C30.1916 52.0713 30.2587 52.5416 30.1244 53.012C29.9228 53.751 29.1837 54.3558 28.3775 54.3558Z" fill="black"/>
<path d="M28.8478 50.7946C27.9071 50.5258 26.8993 51.1305 26.6305 52.0712C26.3618 53.0118 26.9665 54.0197 27.9071 54.2884C28.8478 54.5572 29.8556 53.9525 30.1244 53.0118C30.3931 52.004 29.7884 51.0634 28.8478 50.7946Z" fill="black"/>
<path d="M40.0016 52.6087C39.1953 52.6087 38.4563 52.0712 38.2547 51.2649C38.1203 50.7946 38.1875 50.3243 38.4563 49.9211C38.725 49.518 39.061 49.182 39.5313 49.0477C39.6657 48.9805 39.8672 48.9805 40.0016 48.9805C40.8079 48.9805 41.547 49.518 41.7485 50.3243C42.0173 51.2649 41.4126 52.2727 40.4719 52.5415C40.2704 52.6087 40.136 52.6087 40.0016 52.6087Z" fill="black"/>
<path d="M39.5302 49.0475C38.5895 49.3163 37.9848 50.2569 38.2536 51.2648C38.5223 52.2054 39.463 52.8101 40.4708 52.5414C41.4115 52.2726 42.0162 51.332 41.7474 50.3241C41.4787 49.3835 40.4708 48.7788 39.5302 49.0475Z" fill="black"/>
<path d="M49.2057 45.2854C48.7354 45.2854 48.2651 45.0839 47.9291 44.7479C47.5932 44.412 47.3916 43.9417 47.3916 43.4713C47.3916 43.001 47.5932 42.5307 47.9291 42.1947C48.2651 41.8588 48.7354 41.6572 49.2057 41.6572C49.676 41.6572 50.1464 41.8588 50.4823 42.1947C51.1542 42.8666 51.1542 44.076 50.4823 44.7479C50.1464 45.1511 49.676 45.2854 49.2057 45.2854Z" fill="black"/>
<path d="M50.4135 44.7475C51.0854 44.0756 51.0854 42.9334 50.4135 42.1943C49.7417 41.5225 48.5994 41.5225 47.8604 42.1943C47.1885 42.8662 47.1885 44.0085 47.8604 44.7475C48.5994 45.4866 49.7417 45.4866 50.4135 44.7475Z" fill="black"/>
<path d="M58.8817 39.5747C58.6801 39.5747 58.5457 39.5747 58.3442 39.5075C57.8067 39.3731 57.3363 39.0372 57.0676 38.4997C56.7988 38.0294 56.7316 37.4247 56.866 36.8871C57.1348 35.9465 57.941 35.3418 58.8817 35.3418C59.0833 35.3418 59.2176 35.3418 59.4192 35.409C60.5614 35.6777 61.2333 36.8871 60.8974 37.9622C60.6958 38.97 59.8223 39.5747 58.8817 39.5747Z" fill="black"/>
<path d="M59.4202 35.4754C58.278 35.2067 57.1358 35.8114 56.867 36.9536C56.5983 38.0958 57.203 39.238 58.3452 39.5068C59.4874 39.7755 60.6296 39.1708 60.8984 38.0286C61.1671 36.8864 60.4952 35.7442 59.4202 35.4754Z" fill="black"/>
<path d="M58.8817 24.6587C57.941 24.6587 57.0676 23.9868 56.866 23.1133C56.7316 22.5758 56.7988 21.9711 57.0676 21.5008C57.3363 21.0305 57.8067 20.6945 58.3442 20.493C58.5457 20.4258 58.6801 20.4258 58.8817 20.4258C59.8223 20.4258 60.6958 21.0977 60.8974 21.9711C61.0317 22.5086 60.9646 23.1133 60.6958 23.5837C60.427 24.054 59.9567 24.3899 59.4192 24.5915C59.2176 24.5915 59.0833 24.6587 58.8817 24.6587Z" fill="black"/>
<path d="M59.4202 24.5243C60.5624 24.2556 61.1671 23.1134 60.8984 21.9711C60.6296 20.8289 59.4874 20.2242 58.3452 20.493C57.203 20.7617 56.5983 21.904 56.867 23.0462C57.1358 24.1884 58.278 24.8603 59.4202 24.5243Z" fill="black"/>
<path d="M51.4247 11.6911C50.8871 11.6911 50.3496 11.4895 49.9465 11.0864C49.5434 10.6833 49.3418 10.1458 49.3418 9.60825C49.3418 9.07074 49.5434 8.53323 49.9465 8.13009C50.3496 7.72696 50.8871 7.52539 51.4247 7.52539C51.9622 7.52539 52.4997 7.72696 52.9028 8.13009C53.7091 8.93636 53.7091 10.2801 52.9028 11.0864C52.4997 11.4895 51.9622 11.6911 51.4247 11.6911Z" fill="black"/>
<path d="M49.9465 11.0864C50.7528 11.8927 52.0966 11.8927 52.9028 11.0864C53.7091 10.2801 53.7091 8.93636 52.9028 8.13009C52.0966 7.32382 50.7528 7.32382 49.9465 8.13009C49.1402 8.93636 49.1402 10.213 49.9465 11.0864Z" fill="black"/>
<path d="M38.4558 4.23291C38.2543 4.23291 38.1199 4.23291 37.9183 4.16572C36.7761 3.89697 36.1042 2.68756 36.4402 1.61254C36.6417 0.671891 37.5152 0 38.4558 0C38.6574 0 38.7918 0 38.9934 0.0671891C40.1356 0.335945 40.8075 1.54535 40.4715 2.62037C40.27 3.56102 39.3965 4.23291 38.4558 4.23291Z" fill="black"/>
<path d="M37.9183 4.09855C39.0605 4.36731 40.2028 3.76261 40.4715 2.62039C40.7403 1.47818 40.1356 0.335964 38.9934 0.067208C37.8511 -0.201548 36.7089 0.403153 36.4402 1.54537C36.1042 2.68758 36.7761 3.8298 37.9183 4.09855Z" fill="black"/>
<path d="M23.4745 4.23291C22.5338 4.23291 21.6604 3.56102 21.4588 2.68756C21.3244 2.15005 21.3916 1.54535 21.6604 1.07503C21.9291 0.604702 22.3994 0.268756 22.937 0.0671891C23.1385 0 23.3401 0 23.4745 0C24.4151 0 25.2886 0.671891 25.4901 1.54535C25.8261 2.68756 25.1542 3.82978 24.012 4.16572C23.8776 4.16572 23.676 4.23291 23.4745 4.23291Z" fill="black"/>
<path d="M24.013 4.09855C25.1552 3.8298 25.8271 2.68758 25.4911 1.54537C25.2224 0.403153 24.0802 -0.201548 22.9379 0.067208C21.7957 0.335964 21.191 1.47818 21.4598 2.62039C21.7957 3.76261 22.9379 4.4345 24.013 4.09855Z" fill="black"/>
<path d="M10.5741 11.6911C10.0366 11.6911 9.49905 11.4895 9.09591 11.0864C8.69278 10.6833 8.49121 10.1458 8.49121 9.60825C8.49121 9.07074 8.69278 8.53323 9.09591 8.13009C9.49905 7.72696 10.0366 7.52539 10.5741 7.52539C11.1116 7.52539 11.6491 7.72696 12.0522 8.13009C12.4554 8.53323 12.6569 9.07074 12.6569 9.60825C12.6569 10.1458 12.4554 10.6833 12.0522 11.0864C11.6491 11.4895 11.1116 11.6911 10.5741 11.6911Z" fill="black"/>
<path d="M9.09591 11.0864C9.90218 11.8927 11.246 11.8927 12.0522 11.0864C12.8585 10.2801 12.8585 8.93636 12.0522 8.13009C11.246 7.32382 9.90218 7.32382 9.09591 8.13009C8.28964 8.93636 8.28964 10.213 9.09591 11.0864Z" fill="black"/>
<path d="M3.04862 24.6589C2.84705 24.6589 2.71267 24.6589 2.51111 24.5917C1.36889 24.3229 0.697001 23.1135 1.03295 22.0385C1.3017 21.0979 2.10797 20.4932 3.04862 20.4932C3.25019 20.4932 3.38456 20.4932 3.58613 20.5604C4.12364 20.6947 4.59397 21.0307 4.86272 21.5682C5.13148 22.0385 5.19867 22.6432 5.06429 23.1807C4.86272 23.987 4.05646 24.6589 3.04862 24.6589Z" fill="black"/>
<path d="M3.58621 20.493C2.444 20.2242 1.30178 20.8289 1.03303 21.9711C0.764272 23.1134 1.36897 24.2556 2.51119 24.5243C3.6534 24.8603 4.79562 24.1884 5.06437 23.0462C5.40032 21.9711 4.72843 20.8289 3.58621 20.493Z" fill="black"/>
<path d="M3.04771 39.5747C2.10706 39.5747 1.2336 38.9028 1.03203 38.0294C0.897655 37.4918 0.964844 36.8871 1.2336 36.4168C1.50236 35.9465 1.97268 35.6106 2.51019 35.409C2.71176 35.3418 2.84614 35.3418 3.04771 35.3418C3.98835 35.3418 4.86181 36.0137 5.06338 36.8871C5.19776 37.4247 5.13057 38.0294 4.86181 38.4997C4.59306 38.97 4.12273 39.306 3.58522 39.5075C3.45084 39.5747 3.24927 39.5747 3.04771 39.5747Z" fill="black"/>
<path d="M2.51119 35.4753C1.36897 35.7441 0.764272 36.8863 1.03303 38.0285C1.30178 39.1707 2.444 39.7754 3.58621 39.5067C4.72843 39.2379 5.33313 38.0957 5.06437 36.9535C4.79562 35.8113 3.6534 35.1394 2.51119 35.4753Z" fill="black"/>
<path d="M10.5741 52.5417C10.0366 52.5417 9.49905 52.3401 9.09591 51.937C8.28964 51.1307 8.28964 49.7869 9.09591 48.9807C9.49905 48.5775 10.0366 48.376 10.5741 48.376C11.1116 48.376 11.6491 48.5775 12.0522 48.9807C12.4554 49.3838 12.6569 49.9213 12.6569 50.4588C12.6569 50.9964 12.4554 51.5339 12.0522 51.937C11.6491 52.3401 11.1116 52.5417 10.5741 52.5417Z" fill="black"/>
<path d="M12.0522 48.9807C11.246 48.1744 9.90218 48.1744 9.09591 48.9807C8.28964 49.7869 8.28964 51.1307 9.09591 51.937C9.90218 52.7433 11.246 52.7433 12.0522 51.937C12.8585 51.0635 12.8585 49.7869 12.0522 48.9807Z" fill="black"/>
<path d="M23.4745 60.0005C23.2729 60.0005 23.1385 60.0005 22.937 59.9333C22.3994 59.7989 21.9291 59.463 21.6604 58.9255C21.3916 58.4551 21.3244 57.8504 21.4588 57.3129C21.7275 56.3723 22.5338 55.7676 23.4745 55.7676C23.676 55.7676 23.8104 55.7676 24.012 55.8348C24.5495 55.9691 25.0198 56.3051 25.2886 56.8426C25.5573 57.3129 25.6245 57.9176 25.4901 58.4551C25.2886 59.3958 24.4823 60.0005 23.4745 60.0005Z" fill="black"/>
<path d="M24.013 55.9012C22.8708 55.6324 21.7285 56.2371 21.4598 57.3794C21.191 58.5216 21.7957 59.6638 22.9379 59.9325C24.0802 60.2013 25.2224 59.5966 25.4911 58.4544C25.8271 57.3122 25.1552 56.1699 24.013 55.9012Z" fill="black"/>
<path d="M38.4579 60.0005C37.5172 60.0005 36.6438 59.3286 36.4422 58.4551C36.3078 57.9176 36.375 57.3129 36.6438 56.8426C36.9125 56.3723 37.3828 56.0363 37.9203 55.8348C38.1219 55.7676 38.2563 55.7676 38.4579 55.7676C39.3985 55.7676 40.272 56.4395 40.4735 57.3129C40.7423 58.4551 40.1376 59.5974 38.9954 59.8661C38.7938 60.0005 38.6594 60.0005 38.4579 60.0005Z" fill="black"/>
<path d="M37.9184 55.9011C36.7762 56.1699 36.1715 57.3121 36.4403 58.4543C36.709 59.5965 37.8512 60.2012 38.9934 59.9325C40.1357 59.6637 40.7404 58.5215 40.4716 57.3793C40.1357 56.2371 38.9934 55.5652 37.9184 55.9011Z" fill="black"/>
<path d="M51.4247 52.5417C50.8871 52.5417 50.3496 52.3401 49.9465 51.937C49.5434 51.5339 49.3418 50.9964 49.3418 50.4588C49.3418 49.9213 49.5434 49.3838 49.9465 48.9807C50.3496 48.5775 50.8871 48.376 51.4247 48.376C51.9622 48.376 52.4997 48.5775 52.9028 48.9807C53.306 49.3838 53.5075 49.9213 53.5075 50.4588C53.5075 50.9964 53.306 51.5339 52.9028 51.937C52.4997 52.3401 51.9622 52.5417 51.4247 52.5417Z" fill="black"/>
<path d="M52.9028 48.9807C52.0966 48.1744 50.7528 48.1744 49.9465 48.9807C49.1402 49.7869 49.1402 51.1307 49.9465 51.937C50.7528 52.7433 52.0966 52.7433 52.9028 51.937C53.7091 51.0635 53.7091 49.7869 52.9028 48.9807Z" fill="black"/>
</svg>
