<svg width="61" height="60" viewBox="0 0 61 60" fill="none" xmlns="http://www.w3.org/2000/svg">
<g id="Group 1171274868">
<g id="Group">
<path id="Vector" d="M42.1537 30.8397C42.0194 30.8397 41.9522 30.8397 41.8178 30.7725C41.4818 30.7053 41.2803 30.5038 41.0787 30.235C40.9443 29.9662 40.8771 29.6303 40.9443 29.2944C41.0787 28.7568 41.549 28.4209 42.0865 28.4209C42.2209 28.4209 42.2881 28.4209 42.4225 28.4881C43.0944 28.6897 43.4303 29.2944 43.2959 29.9662C43.1616 30.5038 42.6912 30.8397 42.1537 30.8397Z" fill="black"/>
<path id="Vector_2" d="M41.8177 30.7724C42.4224 30.974 43.0943 30.5708 43.2958 29.9661C43.4974 29.3614 43.0943 28.6895 42.4896 28.488C41.8849 28.2864 41.213 28.6895 41.0114 29.2942C40.8099 29.9661 41.213 30.638 41.8177 30.7724Z" fill="black"/>
<path id="Vector_3" d="M40.4755 25.3299C39.938 25.3299 39.4677 24.994 39.3333 24.4565C39.1317 23.7846 39.5349 23.1799 40.2068 22.9783C40.3412 22.9783 40.4083 22.9111 40.5427 22.9111C41.0802 22.9111 41.5506 23.2471 41.6849 23.7846C41.8865 24.4565 41.4834 25.0612 40.8115 25.2628C40.6771 25.3299 40.5427 25.3299 40.4755 25.3299Z" fill="black"/>
<path id="Vector_4" d="M40.7435 25.2626C41.3482 25.0611 41.7513 24.4564 41.5498 23.7845C41.3482 23.1798 40.7435 22.7766 40.0716 22.9782C39.4669 23.1798 39.0638 23.7845 39.2653 24.4564C39.4669 25.0611 40.1388 25.4642 40.7435 25.2626Z" fill="black"/>
<path id="Vector_5" fill-rule="evenodd" clip-rule="evenodd" d="M36.4225 30.437C35.9522 30.9074 35.4819 31.3777 35.0115 31.848C34.6756 32.1839 34.2725 32.5199 33.8693 32.7886C33.2646 33.1918 32.5927 33.1918 31.9209 32.9902C31.3833 32.7886 31.1146 32.4527 30.9802 31.848C30.3083 32.3855 29.6364 33.0574 28.6286 33.1246C28.5614 33.5277 28.4942 33.8637 28.3598 34.2668C28.2926 34.4684 28.2926 34.6028 28.2254 34.8043C28.2254 35.0731 28.0911 35.1403 27.8223 35.2075C27.2176 35.3418 25.941 35.6778 25.8066 35.6778C26.5457 32.3183 27.2176 28.8917 27.9567 25.5322C28.6958 25.5322 29.4349 25.5322 30.1739 25.5322C30.0396 26.0697 29.0317 30.9074 29.0317 30.9745C28.9645 31.5792 29.3677 31.9152 29.9052 31.7136C30.2411 31.6464 30.5099 31.3777 30.7786 31.2433C30.8458 31.2433 30.8458 31.1089 30.8458 31.0417C31.249 29.2276 31.5849 27.4807 31.988 25.6666C31.988 25.5994 31.988 25.5994 32.0552 25.5322C32.7943 25.5322 33.4662 25.5322 34.2053 25.5322C34.0709 26.0697 33.3318 29.6308 33.0631 30.9074C33.0631 30.9745 33.0631 31.1089 33.0631 31.1761C33.0631 31.4449 33.1974 31.6464 33.4662 31.7136C33.735 31.7808 33.9365 31.7808 34.2053 31.6464C34.4068 31.5121 34.6756 31.3777 34.8772 31.1761C35.0787 30.9745 35.3475 30.8402 35.5491 30.6386C35.885 30.437 36.0866 30.3698 36.4225 30.437Z" fill="black"/>
<path id="Vector_6" d="M36.2407 21.3661C35.9047 21.3661 35.636 21.2317 35.3672 21.0301C35.0984 20.8286 35.0312 20.4926 35.0312 20.1567C35.0312 19.8207 35.1656 19.552 35.3672 19.2832C35.5688 19.0816 35.9047 18.9473 36.2407 18.9473C36.5766 18.9473 36.8454 19.0816 37.1141 19.2832C37.3157 19.4848 37.4501 19.8207 37.4501 20.1567C37.4501 20.4926 37.3157 20.7614 37.1141 21.0301C36.8454 21.2317 36.5766 21.3661 36.2407 21.3661Z" fill="black"/>
<path id="Vector_7" d="M35.4348 19.3508C34.9645 19.8211 34.9645 20.5602 35.4348 21.0305C35.9051 21.5008 36.6442 21.5008 37.1145 21.0305C37.5848 20.5602 37.5848 19.8211 37.1145 19.3508C36.6442 18.8805 35.9051 18.8805 35.4348 19.3508Z" fill="black"/>
<path id="Vector_8" d="M30.596 20.0887C30.4616 20.0887 30.3945 20.0887 30.2601 20.0215C29.5882 19.82 29.2522 19.2153 29.3866 18.5434C29.521 18.0059 29.9913 17.6699 30.5288 17.6699C30.6632 17.6699 30.7304 17.6699 30.8648 17.7371C31.2007 17.8043 31.4695 18.0059 31.6039 18.2746C31.7382 18.5434 31.8054 18.8793 31.7382 19.2153C31.6711 19.6856 31.2007 20.0887 30.596 20.0887Z" fill="black"/>
<path id="Vector_9" d="M30.9329 17.738C30.3282 17.5364 29.6563 17.9395 29.4548 18.5443C29.2532 19.149 29.6563 19.8208 30.261 20.0224C30.8657 20.224 31.5376 19.8208 31.7392 19.2161C31.9408 18.5443 31.5376 17.8724 30.9329 17.738Z" fill="black"/>
<path id="Vector_10" d="M25.0869 21.702C24.5493 21.702 24.079 21.3661 23.9446 20.8286C23.7431 20.1567 24.1462 19.552 24.8181 19.3504C24.9525 19.3504 25.0197 19.2832 25.154 19.2832C25.6916 19.2832 26.1619 19.6191 26.2963 20.1567C26.4978 20.8286 26.0947 21.4333 25.4228 21.6348C25.2884 21.702 25.2212 21.702 25.0869 21.702Z" fill="black"/>
<path id="Vector_11" d="M25.4232 21.7021C26.0279 21.5005 26.431 20.8958 26.2294 20.2239C26.0279 19.6192 25.4232 19.2161 24.7513 19.4177C24.1466 19.6192 23.7434 20.2239 23.945 20.8958C24.1466 21.4333 24.7513 21.8365 25.4232 21.7021Z" fill="black"/>
<path id="Vector_12" d="M21.1235 25.9344C20.7875 25.9344 20.5188 25.8001 20.25 25.5985C20.0484 25.3969 19.9141 25.061 19.9141 24.725C19.9141 24.3891 20.0484 24.1203 20.25 23.8516C20.4516 23.65 20.7875 23.5156 21.1235 23.5156C21.4594 23.5156 21.7282 23.65 21.9969 23.8516C22.4672 24.3219 22.4672 25.061 21.9969 25.5313C21.7954 25.8001 21.4594 25.9344 21.1235 25.9344Z" fill="black"/>
<path id="Vector_13" d="M20.3176 23.9191C19.8473 24.3895 19.8473 25.1286 20.3176 25.5989C20.7879 26.0692 21.527 26.0692 21.9973 25.5989C22.4676 25.1286 22.4676 24.3895 21.9973 23.9191C21.527 23.4488 20.7879 23.4488 20.3176 23.9191Z" fill="black"/>
<path id="Vector_14" d="M19.846 31.579C19.7116 31.579 19.6445 31.579 19.5101 31.5118C18.8382 31.3102 18.5022 30.7055 18.6366 30.0336C18.771 29.4961 19.2413 29.1602 19.7788 29.1602C19.9132 29.1602 19.9804 29.1602 20.1148 29.2273C20.7867 29.4289 21.1226 30.0336 20.9882 30.7055C20.8539 31.1758 20.3835 31.579 19.846 31.579Z" fill="black"/>
<path id="Vector_15" d="M20.1146 29.2272C19.5099 29.0257 18.838 29.4288 18.6364 30.0335C18.4349 30.6382 18.838 31.3101 19.4427 31.5117C20.0474 31.7132 20.7193 31.3101 20.9208 30.7054C21.1224 30.0335 20.7865 29.3616 20.1146 29.2272Z" fill="black"/>
<path id="Vector_16" d="M21.4599 37.0887C20.9224 37.0887 20.4521 36.7528 20.3177 36.2153C20.1161 35.5434 20.5193 34.9387 21.1912 34.7371C21.3255 34.7371 21.3927 34.6699 21.5271 34.6699C22.0646 34.6699 22.5349 35.0059 22.6693 35.5434C22.8709 36.2153 22.4677 36.82 21.7959 37.0215C21.7287 37.0887 21.5943 37.0887 21.4599 37.0887Z" fill="black"/>
<path id="Vector_17" d="M21.1907 34.7364C20.586 34.938 20.1829 35.5427 20.3845 36.2146C20.586 36.8193 21.1907 37.2224 21.8626 37.0209C22.4673 36.8193 22.8705 36.2146 22.6689 35.5427C22.4673 34.938 21.7954 34.6021 21.1907 34.7364Z" fill="black"/>
<path id="Vector_18" d="M25.6918 41.0526C25.3559 41.0526 25.0871 40.9182 24.8184 40.7166C24.6168 40.5151 24.4824 40.1791 24.4824 39.8432C24.4824 39.5072 24.6168 39.2385 24.8184 38.9697C25.0199 38.7682 25.3559 38.6338 25.6918 38.6338C26.0278 38.6338 26.2965 38.7682 26.5653 38.9697C27.0356 39.4401 27.0356 40.1791 26.5653 40.6495C26.2965 40.9182 26.0278 41.0526 25.6918 41.0526Z" fill="black"/>
<path id="Vector_19" d="M26.5637 40.6497C27.034 40.1793 27.034 39.4403 26.5637 38.9699C26.0934 38.4996 25.3543 38.4996 24.884 38.9699C24.4137 39.4403 24.4137 40.1793 24.884 40.6497C25.3543 41.12 26.0934 41.12 26.5637 40.6497Z" fill="black"/>
<path id="Vector_20" d="M31.3373 42.3963C31.2029 42.3963 31.1358 42.3963 31.0014 42.3292C30.6654 42.262 30.3967 42.0604 30.2623 41.7916C30.1279 41.5229 30.0607 41.1869 30.1279 40.851C30.2623 40.3135 30.7326 39.9775 31.2701 39.9775C31.4045 39.9775 31.4717 39.9775 31.6061 40.0447C31.942 40.1119 32.1436 40.3135 32.3452 40.5822C32.4795 40.851 32.5467 41.1869 32.4795 41.5229C32.3452 41.9932 31.8748 42.3963 31.3373 42.3963Z" fill="black"/>
<path id="Vector_21" d="M31.0013 42.3291C31.606 42.5306 32.2779 42.1275 32.4794 41.5228C32.681 40.9181 32.2779 40.2462 31.6732 40.0446C31.0685 39.8431 30.3966 40.2462 30.195 40.8509C29.9934 41.4556 30.3966 42.1275 31.0013 42.3291Z" fill="black"/>
<path id="Vector_22" d="M36.8465 40.7167C36.3089 40.7167 35.8386 40.3807 35.7042 39.8432C35.6371 39.5073 35.6371 39.2385 35.8386 38.9026C35.973 38.6338 36.2418 38.4322 36.5777 38.365C36.7121 38.365 36.7793 38.2979 36.9136 38.2979C37.4512 38.2979 37.9215 38.6338 38.0559 39.1713C38.2574 39.8432 37.8543 40.4479 37.1824 40.6495C37.048 40.7167 36.9808 40.7167 36.8465 40.7167Z" fill="black"/>
<path id="Vector_23" d="M36.5775 38.3649C35.9728 38.5665 35.5696 39.1712 35.7712 39.8431C35.9728 40.4478 36.5775 40.8509 37.2493 40.6494C37.854 40.4478 38.2572 39.8431 38.0556 39.1712C37.854 38.5665 37.1822 38.1634 36.5775 38.3649Z" fill="black"/>
<path id="Vector_24" d="M40.8102 36.4835C40.4742 36.4835 40.2055 36.3491 39.9367 36.1475C39.4664 35.6772 39.4664 34.9381 39.9367 34.4678C40.1383 34.2662 40.4742 34.1318 40.8102 34.1318C41.1461 34.1318 41.4149 34.2662 41.6836 34.4678C42.154 34.9381 42.154 35.6772 41.6836 36.1475C41.4149 36.3491 41.1461 36.4835 40.8102 36.4835Z" fill="black"/>
<path id="Vector_25" d="M41.6848 36.1477C42.1551 35.6774 42.1551 34.9383 41.6848 34.468C41.2145 33.9977 40.4754 33.9977 40.0051 34.468C39.5348 34.9383 39.5348 35.6774 40.0051 36.1477C40.4082 36.5508 41.2145 36.5508 41.6848 36.1477Z" fill="black"/>
<g id="Group_2">
<path id="Vector_26" d="M47.7304 31.4438C47.5961 31.4438 47.4617 31.4438 47.3945 31.3766C46.6554 31.1751 46.1851 30.3688 46.3867 29.6297C46.521 29.025 47.1257 28.5547 47.7304 28.5547C47.8648 28.5547 47.9992 28.5547 48.0664 28.6219C48.8055 28.8234 49.2758 29.6297 49.0742 30.3688C48.9398 31.0407 48.4023 31.4438 47.7304 31.4438Z" fill="black"/>
<path id="Vector_27" d="M48.1347 28.6894C47.3957 28.4878 46.6566 28.9581 46.455 29.6972C46.2535 30.4363 46.7238 31.1754 47.4629 31.377C48.2019 31.5785 48.941 31.1082 49.1426 30.3691C49.277 29.6972 48.8738 28.891 48.1347 28.6894Z" fill="black"/>
<path id="Vector_28" d="M45.5109 23.0454C44.9062 23.0454 44.3015 22.6422 44.1671 21.9704C44.0999 21.6344 44.0999 21.2313 44.3015 20.8953C44.5031 20.5594 44.7718 20.3578 45.175 20.2234C45.3094 20.2234 45.4437 20.1562 45.5109 20.1562C46.1156 20.1562 46.7203 20.5594 46.8547 21.2313C46.9219 21.5672 46.9219 21.9704 46.7203 22.3063C46.5188 22.6422 46.25 22.8438 45.8469 22.9782C45.7797 23.0454 45.6453 23.0454 45.5109 23.0454Z" fill="black"/>
<path id="Vector_29" d="M45.8496 22.9785C46.5887 22.777 47.059 22.0379 46.8574 21.2988C46.6559 20.5597 45.9168 20.0894 45.1777 20.291C44.4386 20.4925 43.9683 21.2316 44.1699 21.9707C44.3714 22.777 45.1105 23.1801 45.8496 22.9785Z" fill="black"/>
<path id="Vector_30" d="M39.3973 16.9313C38.9942 16.9313 38.6582 16.7969 38.3895 16.5282C38.1207 16.2594 37.9863 15.9235 37.9863 15.5203C37.9863 15.1172 38.1207 14.7813 38.3895 14.5125C38.6582 14.2438 38.9942 14.1094 39.3973 14.1094C39.8004 14.1094 40.1364 14.2438 40.4051 14.5125C40.9426 15.05 40.9426 15.9235 40.4051 16.5282C40.1364 16.7969 39.8004 16.9313 39.3973 16.9313Z" fill="black"/>
<path id="Vector_31" d="M38.3895 16.461C38.927 16.9985 39.8004 16.9985 40.3379 16.461C40.8755 15.9235 40.8755 15.05 40.3379 14.5125C39.8004 13.975 38.927 13.975 38.3895 14.5125C37.8519 15.05 37.8519 15.9235 38.3895 16.461Z" fill="black"/>
<path id="Vector_32" d="M31 14.6469C30.8656 14.6469 30.7312 14.6469 30.664 14.5798C29.9249 14.3782 29.4546 13.5719 29.6562 12.8328C29.7906 12.2281 30.3953 11.7578 31 11.7578C31.1343 11.7578 31.2687 11.7578 31.3359 11.825C32.075 12.0266 32.5453 12.8328 32.3438 13.5719C32.2094 14.2438 31.6719 14.6469 31 14.6469Z" fill="black"/>
<path id="Vector_33" d="M30.664 14.5791C31.4031 14.7807 32.1422 14.3103 32.3438 13.5713C32.5453 12.8322 32.075 12.0931 31.3359 11.8915C30.5968 11.69 29.8578 12.1603 29.6562 12.8994C29.4546 13.6385 29.9249 14.3775 30.664 14.5791Z" fill="black"/>
<path id="Vector_34" d="M22.6015 16.8637C21.9968 16.8637 21.3921 16.4606 21.2578 15.7887C21.0562 15.0496 21.5265 14.2434 22.2656 14.0418C22.4 14.0418 22.5343 13.9746 22.6015 13.9746C23.2062 13.9746 23.8109 14.3777 23.9453 15.0496C24.1469 15.7887 23.6766 16.595 22.9375 16.7966C22.8703 16.8637 22.7359 16.8637 22.6015 16.8637Z" fill="black"/>
<path id="Vector_35" d="M22.2656 14.1093C21.5265 14.3109 21.0562 15.05 21.2578 15.789C21.4593 16.5281 22.1984 16.9984 22.9375 16.7969C23.6766 16.5953 24.1469 15.8562 23.9453 15.1172C23.7437 14.3781 23.0047 13.9077 22.2656 14.1093Z" fill="black"/>
<path id="Vector_36" d="M16.4871 22.9782C16.084 22.9782 15.7481 22.8438 15.4793 22.5751C15.2106 22.3063 15.0762 21.9704 15.0762 21.5672C15.0762 21.1641 15.2106 20.8281 15.4793 20.5594C15.7481 20.2906 16.084 20.1562 16.4871 20.1562C16.8903 20.1562 17.2262 20.2906 17.495 20.5594C17.7637 20.8281 17.8981 21.1641 17.8981 21.5672C17.8981 21.9704 17.7637 22.3063 17.495 22.5751C17.2262 22.8438 16.8231 22.9782 16.4871 22.9782Z" fill="black"/>
<path id="Vector_37" d="M15.4793 22.5752C16.0168 23.1128 16.8903 23.1128 17.4278 22.5752C17.9653 22.0377 17.9653 21.1643 17.4278 20.6268C16.8903 20.0893 16.0168 20.0893 15.4793 20.6268C14.9418 21.1643 14.9418 22.0377 15.4793 22.5752Z" fill="black"/>
<path id="Vector_38" d="M14.2031 31.3764C14.0687 31.3764 13.9343 31.3764 13.8672 31.3092C13.1281 31.1077 12.6577 30.3014 12.8593 29.5623C12.9937 28.9576 13.5984 28.4873 14.2031 28.4873C14.3375 28.4873 14.4719 28.4873 14.539 28.5545C15.2781 28.7561 15.7484 29.5623 15.5469 30.3014C15.4125 30.9733 14.8078 31.3764 14.2031 31.3764Z" fill="black"/>
<path id="Vector_39" d="M13.8672 31.3096C14.6062 31.5111 15.3453 31.0408 15.5469 30.3017C15.7484 29.5627 15.2781 28.8236 14.539 28.622C13.8 28.4204 13.0609 28.8908 12.8593 29.6298C12.6577 30.3689 13.1281 31.108 13.8672 31.3096Z" fill="black"/>
<path id="Vector_40" d="M16.4218 39.7758C15.8171 39.7758 15.2124 39.3727 15.0781 38.7008C14.8765 37.9617 15.3468 37.1555 16.0859 36.9539C16.2203 36.9539 16.3547 36.8867 16.4218 36.8867C17.0265 36.8867 17.6313 37.2899 17.7656 37.9617C17.9672 38.7008 17.4969 39.5071 16.7578 39.7087C16.6906 39.7758 16.5562 39.7758 16.4218 39.7758Z" fill="black"/>
<path id="Vector_41" d="M16.0859 37.0204C15.3468 37.222 14.8765 37.9611 15.0781 38.7002C15.2796 39.4393 16.0187 39.9096 16.7578 39.708C17.4969 39.5064 17.9672 38.7674 17.7656 38.0283C17.5641 37.2892 16.825 36.8189 16.0859 37.0204Z" fill="black"/>
<path id="Vector_42" d="M22.534 45.8903C22.1309 45.8903 21.7949 45.7559 21.5262 45.4872C21.2574 45.2184 21.123 44.8825 21.123 44.4793C21.123 44.0762 21.2574 43.7402 21.5262 43.4715C21.7949 43.2027 22.1309 43.0684 22.534 43.0684C22.9372 43.0684 23.2731 43.2027 23.5419 43.4715C24.0794 44.009 24.0794 44.8825 23.5419 45.4872C23.2731 45.7559 22.9372 45.8903 22.534 45.8903Z" fill="black"/>
<path id="Vector_43" d="M23.543 43.5389C23.0055 43.0014 22.1321 43.0014 21.5945 43.5389C21.057 44.0764 21.057 44.9498 21.5945 45.4874C22.1321 46.0249 23.0055 46.0249 23.543 45.4874C24.0805 44.9498 24.0805 44.0764 23.543 43.5389Z" fill="black"/>
<path id="Vector_44" d="M30.9332 48.1743C30.7988 48.1743 30.6645 48.1743 30.5973 48.1071C30.2613 48.0399 29.9254 47.7712 29.7238 47.4352C29.5223 47.0993 29.4551 46.6961 29.5894 46.3602C29.7238 45.7555 30.3285 45.2852 30.9332 45.2852C31.0676 45.2852 31.202 45.2852 31.2692 45.3523C31.6051 45.4195 31.9411 45.6883 32.1426 46.0242C32.3442 46.3602 32.4114 46.7633 32.277 47.0993C32.1426 47.7712 31.6051 48.1743 30.9332 48.1743Z" fill="black"/>
<path id="Vector_45" d="M31.2695 45.4199C30.5304 45.2183 29.7914 45.6886 29.5898 46.4277C29.3882 47.1668 29.8585 47.9059 30.5976 48.1074C31.3367 48.309 32.0758 47.8387 32.2773 47.0996C32.4789 46.4277 32.0086 45.6214 31.2695 45.4199Z" fill="black"/>
<path id="Vector_46" d="M39.3312 45.9575C38.7265 45.9575 38.1218 45.5544 37.9874 44.8825C37.9203 44.5465 37.9203 44.1434 38.1218 43.8074C38.3234 43.4715 38.5922 43.2699 38.9953 43.1355C39.1297 43.1355 39.264 43.0684 39.3312 43.0684C39.9359 43.0684 40.5406 43.4715 40.675 44.1434C40.8766 44.8825 40.4063 45.6887 39.6672 45.8903C39.6 45.9575 39.4656 45.9575 39.3312 45.9575Z" fill="black"/>
<path id="Vector_47" d="M39.6679 45.8897C40.407 45.6881 40.8774 44.949 40.6758 44.2099C40.4742 43.4708 39.7351 43.0005 38.9961 43.2021C38.257 43.4037 37.7867 44.1427 37.9882 44.8818C38.1898 45.6209 38.9289 46.0912 39.6679 45.8897Z" fill="black"/>
<path id="Vector_48" d="M45.5145 39.8425C45.1114 39.8425 44.7754 39.7081 44.5067 39.4393C43.9691 38.9018 43.9691 38.0283 44.5067 37.4236C44.7754 37.1549 45.1114 37.0205 45.5145 37.0205C45.9176 37.0205 46.2536 37.1549 46.5223 37.4236C47.0598 37.9612 47.0598 38.8346 46.5223 39.4393C46.1864 39.7081 45.8504 39.8425 45.5145 39.8425Z" fill="black"/>
<path id="Vector_49" d="M46.4551 37.4236C45.9176 36.8861 45.0442 36.8861 44.5067 37.4236C43.9691 37.9612 43.9691 38.8346 44.5067 39.3721C45.0442 39.9096 45.9176 39.9096 46.4551 39.3721C46.9926 38.8346 46.9926 37.9612 46.4551 37.4236Z" fill="black"/>
</g>
<g id="Group_3">
<path id="Vector_50" d="M53.5064 34.4007C53.372 34.4007 53.1704 34.4007 53.036 34.3335C52.0954 34.0647 51.4907 33.0569 51.7594 32.1162C51.961 31.31 52.7001 30.7725 53.5064 30.7725C53.6407 30.7725 53.8423 30.7725 53.9767 30.8397C54.447 30.974 54.8501 31.2428 55.0517 31.7131C55.3205 32.1162 55.3877 32.5866 55.2533 33.0569C55.0517 33.8632 54.3126 34.4007 53.5064 34.4007Z" fill="black"/>
<path id="Vector_51" d="M53.036 34.3334C53.9767 34.6021 54.9845 33.9974 55.2533 33.0568C55.522 32.1161 54.9173 31.1083 53.9767 30.8395C53.036 30.5708 52.0282 31.1755 51.7594 32.1161C51.4907 33.0568 52.0954 34.0646 53.036 34.3334Z" fill="black"/>
<path id="Vector_52" d="M51.7603 22.7766C50.954 22.7766 50.2149 22.2391 50.0134 21.4329C49.7446 20.4922 50.3493 19.4844 51.2899 19.2156C51.4243 19.1484 51.6259 19.1484 51.7603 19.1484C52.5665 19.1484 53.3056 19.686 53.5072 20.4922C53.7759 21.4329 53.1712 22.4407 52.2306 22.7095C52.0962 22.7766 51.8946 22.7766 51.7603 22.7766Z" fill="black"/>
<path id="Vector_53" d="M53.5072 20.5595C53.2384 19.6188 52.2978 19.0141 51.2899 19.2829C50.3493 19.5516 49.7446 20.4923 50.0134 21.5001C50.2821 22.4408 51.2228 23.0455 52.2306 22.7767C53.1712 22.4408 53.7759 21.5001 53.5072 20.5595Z" fill="black"/>
<path id="Vector_54" d="M44.5055 13.639C44.0352 13.639 43.5649 13.4374 43.2289 13.1014C42.893 12.7655 42.6914 12.2952 42.6914 11.8248C42.6914 11.3545 42.893 10.8842 43.2289 10.5483C43.5649 10.2123 44.0352 10.0107 44.5055 10.0107C44.9758 10.0107 45.4462 10.2123 45.7821 10.5483C46.118 10.8842 46.3196 11.3545 46.3196 11.8248C46.3196 12.2952 46.118 12.7655 45.7821 13.1014C45.379 13.4374 44.9758 13.639 44.5055 13.639Z" fill="black"/>
<path id="Vector_55" d="M45.7153 10.5479C45.0434 9.87597 43.9012 9.87597 43.1621 10.5479C42.4902 11.2198 42.4902 12.362 43.1621 13.101C43.834 13.7729 44.9762 13.7729 45.7153 13.101C46.4544 12.362 46.4544 11.2198 45.7153 10.5479Z" fill="black"/>
<path id="Vector_56" d="M33.5513 9.27177C33.4169 9.27177 33.2153 9.27177 33.081 9.20458C32.1403 8.93582 31.5356 7.92798 31.8044 6.98734C32.0059 6.18107 32.745 5.64355 33.5513 5.64355C33.6857 5.64355 33.8872 5.64355 34.0216 5.71074C34.4919 5.84512 34.8951 6.11388 35.0966 6.5842C35.3654 6.98734 35.4326 7.45766 35.2982 7.92798C35.0966 8.73425 34.3576 9.27177 33.5513 9.27177Z" fill="black"/>
<path id="Vector_57" d="M33.0824 9.20445C34.023 9.4732 35.0309 8.8685 35.2996 7.92786C35.5684 6.98721 34.9637 5.97937 34.023 5.71062C33.0824 5.44186 32.0746 6.04656 31.8058 6.98721C31.6042 7.99505 32.1417 8.93569 33.0824 9.20445Z" fill="black"/>
<path id="Vector_58" d="M21.9282 11.0188C21.122 11.0188 20.3829 10.4813 20.1813 9.67505C19.9126 8.73441 20.5173 7.72657 21.4579 7.45781C21.5923 7.39063 21.7939 7.39062 21.9282 7.39062C22.7345 7.39062 23.4736 7.92814 23.6752 8.73441C23.8095 9.20473 23.7423 9.67505 23.4736 10.0782C23.2048 10.4813 22.8689 10.8173 22.3986 10.9516C22.2642 11.0188 22.1298 11.0188 21.9282 11.0188Z" fill="black"/>
<path id="Vector_59" d="M22.3986 10.9515C23.3392 10.6828 23.9439 9.74212 23.6752 8.73428C23.4064 7.79363 22.4657 7.18893 21.4579 7.45769C20.5173 7.72644 19.9126 8.66709 20.1813 9.67493C20.5173 10.6156 21.4579 11.2203 22.3986 10.9515Z" fill="black"/>
<path id="Vector_60" d="M12.7923 18.3421C12.322 18.3421 11.8517 18.1405 11.5157 17.8046C10.7767 17.0655 10.8439 15.9233 11.5157 15.2514C11.8517 14.9154 12.322 14.7139 12.7923 14.7139C13.2627 14.7139 13.733 14.9154 14.0689 15.2514C14.4049 15.5873 14.6064 16.0576 14.6064 16.528C14.6064 16.9983 14.4049 17.4686 14.0689 17.8046C13.733 18.1405 13.2627 18.3421 12.7923 18.3421Z" fill="black"/>
<path id="Vector_61" d="M14.0669 15.251C13.395 14.5791 12.2528 14.5791 11.5137 15.251C10.8418 15.9229 10.8418 17.0651 11.5137 17.8042C12.1856 18.4761 13.3278 18.4761 14.0669 17.8042C14.7388 17.0651 14.7388 15.9229 14.0669 15.251Z" fill="black"/>
<path id="Vector_62" d="M8.49184 29.2268C8.35746 29.2268 8.15589 29.2268 8.02152 29.1597C7.55119 29.0253 7.14806 28.7565 6.94649 28.2862C6.67773 27.8831 6.61055 27.4127 6.74492 26.9424C6.94649 26.1361 7.68557 25.5986 8.49184 25.5986C8.62622 25.5986 8.82779 25.5986 8.96216 25.6658C9.90281 25.9346 10.5075 26.9424 10.2388 27.8831C9.97 28.6893 9.29811 29.2268 8.49184 29.2268Z" fill="black"/>
<path id="Vector_63" d="M8.89394 25.6657C7.9533 25.3969 6.94546 26.0016 6.6767 26.9423C6.47514 27.8829 7.01265 28.8908 8.02049 29.1595C8.96113 29.4283 9.96897 28.8236 10.2377 27.8829C10.4393 26.9423 9.90178 25.9345 8.89394 25.6657Z" fill="black"/>
<path id="Vector_64" d="M10.1724 40.8509C9.36611 40.8509 8.62703 40.3134 8.42546 39.5071C8.1567 38.5664 8.76141 37.5586 9.70205 37.2898C9.83643 37.2227 10.038 37.2227 10.1724 37.2227C10.9786 37.2227 11.7177 37.7602 11.9193 38.5664C12.188 39.5071 11.5833 40.5149 10.6427 40.7837C10.5083 40.7837 10.3739 40.8509 10.1724 40.8509Z" fill="black"/>
<path id="Vector_65" d="M9.70205 37.2897C8.76141 37.5585 8.1567 38.4991 8.42546 39.507C8.69422 40.4476 9.63486 41.0523 10.6427 40.7836C11.5833 40.5148 12.188 39.5741 11.9193 38.5663C11.6505 37.6257 10.6427 37.021 9.70205 37.2897Z" fill="black"/>
<path id="Vector_66" d="M17.4938 49.9886C17.0235 49.9886 16.5531 49.787 16.2172 49.451C15.8813 49.1151 15.6797 48.6448 15.6797 48.1745C15.6797 47.7041 15.8813 47.2338 16.2172 46.8979C16.5531 46.5619 17.0235 46.3604 17.4938 46.3604C17.9641 46.3604 18.4344 46.5619 18.7704 46.8979C19.4423 47.6369 19.4423 48.7792 18.7704 49.451C18.4344 49.8542 17.9641 49.9886 17.4938 49.9886Z" fill="black"/>
<path id="Vector_67" d="M18.77 46.9649C18.0981 46.293 16.9559 46.293 16.2168 46.9649C15.5449 47.6367 15.5449 48.779 16.2168 49.518C16.8887 50.1899 18.0309 50.1899 18.77 49.518C19.4419 48.779 19.4419 47.6367 18.77 46.9649Z" fill="black"/>
<path id="Vector_68" d="M28.3794 54.3558C28.245 54.3558 28.0435 54.3558 27.9091 54.2886C26.9684 54.0198 26.3637 53.012 26.6325 52.0713C26.8341 51.2651 27.5731 50.7275 28.3794 50.7275C28.5138 50.7275 28.7154 50.7275 28.8497 50.7947C29.3201 50.9291 29.7232 51.1979 29.9248 51.6682C30.1935 52.0713 30.2607 52.5416 30.1263 53.012C29.9248 53.751 29.1857 54.3558 28.3794 54.3558Z" fill="black"/>
<path id="Vector_69" d="M28.8497 50.7946C27.9091 50.5258 26.9012 51.1305 26.6325 52.0712C26.3637 53.0118 26.9684 54.0197 27.9091 54.2884C28.8497 54.5572 29.8576 53.9525 30.1263 53.0118C30.3951 52.004 29.7904 51.0634 28.8497 50.7946Z" fill="black"/>
<path id="Vector_70" d="M40.0036 52.6087C39.1973 52.6087 38.4582 52.0712 38.2566 51.2649C38.1223 50.7946 38.1895 50.3243 38.4582 49.9211C38.727 49.518 39.0629 49.182 39.5332 49.0477C39.6676 48.9805 39.8692 48.9805 40.0036 48.9805C40.8098 48.9805 41.5489 49.518 41.7505 50.3243C42.0192 51.2649 41.4145 52.2727 40.4739 52.5415C40.2723 52.6087 40.1379 52.6087 40.0036 52.6087Z" fill="black"/>
<path id="Vector_71" d="M39.5321 49.0475C38.5915 49.3163 37.9868 50.2569 38.2555 51.2648C38.5243 52.2054 39.4649 52.8101 40.4728 52.5414C41.4134 52.2726 42.0181 51.332 41.7494 50.3241C41.4806 49.3835 40.4728 48.7788 39.5321 49.0475Z" fill="black"/>
<path id="Vector_72" d="M49.2086 45.2854C48.7383 45.2854 48.268 45.0839 47.932 44.7479C47.5961 44.412 47.3945 43.9417 47.3945 43.4713C47.3945 43.001 47.5961 42.5307 47.932 42.1947C48.268 41.8588 48.7383 41.6572 49.2086 41.6572C49.679 41.6572 50.1493 41.8588 50.4852 42.1947C51.1571 42.8666 51.1571 44.076 50.4852 44.7479C50.1493 45.1511 49.679 45.2854 49.2086 45.2854Z" fill="black"/>
<path id="Vector_73" d="M50.4165 44.7475C51.0884 44.0756 51.0884 42.9334 50.4165 42.1943C49.7446 41.5225 48.6024 41.5225 47.8633 42.1943C47.1914 42.8662 47.1914 44.0085 47.8633 44.7475C48.6024 45.4866 49.7446 45.4866 50.4165 44.7475Z" fill="black"/>
</g>
<g id="Group_4">
<path id="Vector_74" d="M58.8836 39.5747C58.6821 39.5747 58.5477 39.5747 58.3461 39.5075C57.8086 39.3731 57.3383 39.0372 57.0695 38.4997C56.8008 38.0294 56.7336 37.4247 56.868 36.8871C57.1367 35.9465 57.943 35.3418 58.8836 35.3418C59.0852 35.3418 59.2196 35.3418 59.4212 35.409C60.5634 35.6777 61.2353 36.8871 60.8993 37.9622C60.6977 38.97 59.8243 39.5747 58.8836 39.5747Z" fill="black"/>
<path id="Vector_75" d="M59.4212 35.4754C58.279 35.2067 57.1367 35.8114 56.868 36.9536C56.5992 38.0958 57.2039 39.238 58.3462 39.5068C59.4884 39.7755 60.6306 39.1708 60.8993 38.0286C61.1681 36.8864 60.4962 35.7442 59.4212 35.4754Z" fill="black"/>
<path id="Vector_76" d="M58.8836 24.6587C57.943 24.6587 57.0695 23.9868 56.868 23.1133C56.7336 22.5758 56.8008 21.9711 57.0695 21.5008C57.3383 21.0305 57.8086 20.6945 58.3461 20.493C58.5477 20.4258 58.6821 20.4258 58.8836 20.4258C59.8243 20.4258 60.6977 21.0977 60.8993 21.9711C61.0337 22.5086 60.9665 23.1133 60.6978 23.5837C60.429 24.054 59.9587 24.3899 59.4212 24.5915C59.2196 24.5915 59.0852 24.6587 58.8836 24.6587Z" fill="black"/>
<path id="Vector_77" d="M59.4212 24.5243C60.5634 24.2556 61.1681 23.1134 60.8993 21.9711C60.6306 20.8289 59.4884 20.2242 58.3462 20.493C57.2039 20.7617 56.5992 21.904 56.868 23.0462C57.1367 24.1884 58.279 24.8603 59.4212 24.5243Z" fill="black"/>
<path id="Vector_78" d="M51.4247 11.6911C50.8871 11.6911 50.3496 11.4895 49.9465 11.0864C49.5434 10.6833 49.3418 10.1458 49.3418 9.60825C49.3418 9.07074 49.5434 8.53323 49.9465 8.13009C50.3496 7.72696 50.8871 7.52539 51.4247 7.52539C51.9622 7.52539 52.4997 7.72696 52.9028 8.13009C53.7091 8.93636 53.7091 10.2801 52.9028 11.0864C52.4997 11.4895 51.9622 11.6911 51.4247 11.6911Z" fill="black"/>
<path id="Vector_79" d="M49.9465 11.0864C50.7528 11.8927 52.0966 11.8927 52.9028 11.0864C53.7091 10.2801 53.7091 8.93636 52.9028 8.13009C52.0966 7.32382 50.7528 7.32382 49.9465 8.13009C49.1402 8.93636 49.1402 10.213 49.9465 11.0864Z" fill="black"/>
<path id="Vector_80" d="M38.4578 4.23291C38.2562 4.23291 38.1219 4.23291 37.9203 4.16572C36.7781 3.89697 36.1062 2.68756 36.4421 1.61254C36.6437 0.671891 37.5172 0 38.4578 0C38.6594 0 38.7937 0 38.9953 0.0671891C40.1375 0.335945 40.8094 1.54535 40.4735 2.62037C40.2719 3.56102 39.3984 4.23291 38.4578 4.23291Z" fill="black"/>
<path id="Vector_81" d="M37.9203 4.09855C39.0625 4.36731 40.2047 3.76261 40.4735 2.62039C40.7422 1.47818 40.1375 0.335964 38.9953 0.067208C37.8531 -0.201548 36.7109 0.403153 36.4421 1.54537C36.1062 2.68758 36.7781 3.8298 37.9203 4.09855Z" fill="black"/>
<path id="Vector_82" d="M23.4754 4.23291C22.5348 4.23291 21.6613 3.56102 21.4598 2.68756C21.3254 2.15005 21.3926 1.54535 21.6613 1.07503C21.9301 0.604702 22.4004 0.268756 22.9379 0.0671891C23.1395 0 23.3411 0 23.4754 0C24.4161 0 25.2895 0.671891 25.4911 1.54535C25.8271 2.68756 25.1552 3.82978 24.013 4.16572C23.8786 4.16572 23.677 4.23291 23.4754 4.23291Z" fill="black"/>
<path id="Vector_83" d="M24.013 4.09855C25.1552 3.8298 25.8271 2.68758 25.4911 1.54537C25.2224 0.403153 24.0802 -0.201548 22.9379 0.067208C21.7957 0.335964 21.191 1.47818 21.4598 2.62039C21.7957 3.76261 22.9379 4.4345 24.013 4.09855Z" fill="black"/>
<path id="Vector_84" d="M10.575 11.6911C10.0375 11.6911 9.50002 11.4895 9.09689 11.0864C8.69376 10.6833 8.49219 10.1458 8.49219 9.60825C8.49219 9.07074 8.69376 8.53323 9.09689 8.13009C9.50002 7.72696 10.0375 7.52539 10.575 7.52539C11.1126 7.52539 11.6501 7.72696 12.0532 8.13009C12.4563 8.53323 12.6579 9.07074 12.6579 9.60825C12.6579 10.1458 12.4563 10.6833 12.0532 11.0864C11.6501 11.4895 11.1126 11.6911 10.575 11.6911Z" fill="black"/>
<path id="Vector_85" d="M9.09689 11.0864C9.90316 11.8927 11.2469 11.8927 12.0532 11.0864C12.8595 10.2801 12.8595 8.93636 12.0532 8.13009C11.2469 7.32382 9.90316 7.32382 9.09689 8.13009C8.29062 8.93636 8.29062 10.213 9.09689 11.0864Z" fill="black"/>
<path id="Vector_86" d="M3.0496 24.6589C2.84803 24.6589 2.71365 24.6589 2.51208 24.5917C1.36987 24.3229 0.697977 23.1135 1.03392 22.0385C1.30268 21.0979 2.10895 20.4932 3.0496 20.4932C3.25116 20.4932 3.38554 20.4932 3.58711 20.5604C4.12462 20.6947 4.59495 21.0307 4.8637 21.5682C5.13246 22.0385 5.19965 22.6432 5.06527 23.1807C4.8637 23.987 4.05743 24.6589 3.0496 24.6589Z" fill="black"/>
<path id="Vector_87" d="M3.58719 20.493C2.44498 20.2242 1.30276 20.8289 1.034 21.9711C0.765248 23.1134 1.36995 24.2556 2.51216 24.5243C3.65438 24.8603 4.79659 24.1884 5.06535 23.0462C5.4013 21.9711 4.72941 20.8289 3.58719 20.493Z" fill="black"/>
<path id="Vector_88" d="M3.04966 39.5747C2.10901 39.5747 1.23555 38.9028 1.03399 38.0294C0.899608 37.4918 0.966797 36.8871 1.23555 36.4168C1.50431 35.9465 1.97463 35.6106 2.51215 35.409C2.71371 35.3418 2.84809 35.3418 3.04966 35.3418C3.99031 35.3418 4.86376 36.0137 5.06533 36.8871C5.19971 37.4247 5.13252 38.0294 4.86376 38.4997C4.59501 38.97 4.12468 39.306 3.58717 39.5075C3.45279 39.5747 3.25123 39.5747 3.04966 39.5747Z" fill="black"/>
<path id="Vector_89" d="M2.51216 35.4753C1.36995 35.7441 0.765248 36.8863 1.034 38.0285C1.30276 39.1707 2.44498 39.7754 3.58719 39.5067C4.7294 39.2379 5.33411 38.0957 5.06535 36.9535C4.79659 35.8113 3.65438 35.1394 2.51216 35.4753Z" fill="black"/>
<path id="Vector_90" d="M10.575 52.5417C10.0375 52.5417 9.50002 52.3401 9.09689 51.937C8.29062 51.1307 8.29062 49.7869 9.09689 48.9807C9.50002 48.5775 10.0375 48.376 10.575 48.376C11.1126 48.376 11.6501 48.5775 12.0532 48.9807C12.4563 49.3838 12.6579 49.9213 12.6579 50.4588C12.6579 50.9964 12.4563 51.5339 12.0532 51.937C11.6501 52.3401 11.1126 52.5417 10.575 52.5417Z" fill="black"/>
<path id="Vector_91" d="M12.0532 48.9807C11.2469 48.1744 9.90316 48.1744 9.09689 48.9807C8.29062 49.7869 8.29062 51.1307 9.09689 51.937C9.90316 52.7433 11.2469 52.7433 12.0532 51.937C12.8595 51.0635 12.8595 49.7869 12.0532 48.9807Z" fill="black"/>
<path id="Vector_92" d="M23.4754 60.0005C23.2739 60.0005 23.1395 60.0005 22.9379 59.9333C22.4004 59.7989 21.9301 59.463 21.6613 58.9255C21.3926 58.4551 21.3254 57.8504 21.4598 57.3129C21.7285 56.3723 22.5348 55.7676 23.4754 55.7676C23.677 55.7676 23.8114 55.7676 24.013 55.8348C24.5505 55.9691 25.0208 56.3051 25.2895 56.8426C25.5583 57.3129 25.6255 57.9176 25.4911 58.4551C25.2895 59.3958 24.4833 60.0005 23.4754 60.0005Z" fill="black"/>
<path id="Vector_93" d="M24.013 55.9012C22.8708 55.6324 21.7285 56.2371 21.4598 57.3794C21.191 58.5216 21.7957 59.6638 22.9379 59.9325C24.0802 60.2013 25.2224 59.5966 25.4911 58.4544C25.8271 57.3122 25.1552 56.1699 24.013 55.9012Z" fill="black"/>
<path id="Vector_94" d="M38.4598 60.0005C37.5192 60.0005 36.6457 59.3286 36.4441 58.4551C36.3098 57.9176 36.377 57.3129 36.6457 56.8426C36.9145 56.3723 37.3848 56.0363 37.9223 55.8348C38.1239 55.7676 38.2582 55.7676 38.4598 55.7676C39.4005 55.7676 40.2739 56.4395 40.4755 57.3129C40.7442 58.4551 40.1395 59.5974 38.9973 59.8661C38.7958 60.0005 38.6614 60.0005 38.4598 60.0005Z" fill="black"/>
<path id="Vector_95" d="M37.9204 55.9011C36.7782 56.1699 36.1735 57.3121 36.4422 58.4543C36.711 59.5965 37.8532 60.2012 38.9954 59.9325C40.1376 59.6637 40.7423 58.5215 40.4736 57.3793C40.1376 56.2371 38.9954 55.5652 37.9204 55.9011Z" fill="black"/>
<path id="Vector_96" d="M51.4247 52.5417C50.8871 52.5417 50.3496 52.3401 49.9465 51.937C49.5434 51.5339 49.3418 50.9964 49.3418 50.4588C49.3418 49.9213 49.5434 49.3838 49.9465 48.9807C50.3496 48.5775 50.8871 48.376 51.4247 48.376C51.9622 48.376 52.4997 48.5775 52.9028 48.9807C53.306 49.3838 53.5075 49.9213 53.5075 50.4588C53.5075 50.9964 53.306 51.5339 52.9028 51.937C52.4997 52.3401 51.9622 52.5417 51.4247 52.5417Z" fill="black"/>
<path id="Vector_97" d="M52.9028 48.9807C52.0966 48.1744 50.7528 48.1744 49.9465 48.9807C49.1402 49.7869 49.1402 51.1307 49.9465 51.937C50.7528 52.7433 52.0966 52.7433 52.9028 51.937C53.7091 51.0635 53.7091 49.7869 52.9028 48.9807Z" fill="black"/>
</g>
</g>
</g>
</svg>
