<svg width="66" height="40" viewBox="0 0 66 40" fill="none" xmlns="http://www.w3.org/2000/svg">
<g clip-path="url(#clip0_1016_43664)">
<path d="M15.5347 10.3562H27.8026V11.3265H16.6592V18.63H27.138V19.6004H16.6592V27.6188H27.9303V28.5892H15.5347V10.3562ZM28.9016 10.3562H30.205L35.9812 18.3746L41.8851 10.3562L49.9154 0.170898L36.7223 19.2173L43.5208 28.5892H42.1662L35.9812 20.06L29.7705 28.5892H28.4415L35.2911 19.2173L28.9016 10.3562ZM44.0064 11.3265V10.3562H57.9867V11.3265H51.546V28.5892H50.4215V11.3265H44.0064Z" fill="#343434"/>
<path d="M0.187134 10.3564H1.59283L20.9766 39.223L12.9662 28.5895L1.36281 11.7354L1.31169 28.5895H0.187134V10.3564Z" fill="#343434"/>
<path d="M57.8734 27.3257C58.1059 27.3257 58.2755 27.1486 58.2755 26.9196C58.2755 26.6907 58.1059 26.5135 57.8734 26.5135C57.6436 26.5135 57.4713 26.6907 57.4713 26.9196C57.4713 27.1486 57.6436 27.3257 57.8734 27.3257ZM58.9784 26.2573C58.9784 26.9332 59.468 27.3748 60.1819 27.3748C60.9423 27.3748 61.4018 26.9196 61.4018 26.1292V23.3464H60.7891V26.1265C60.7891 26.5653 60.5675 26.7997 60.1764 26.7997C59.8263 26.7997 59.5883 26.5816 59.5801 26.2573H58.9784ZM62.2032 26.2219C62.2469 26.9251 62.835 27.3748 63.7103 27.3748C64.6457 27.3748 65.231 26.9033 65.231 26.151C65.231 25.5595 64.8973 25.2325 64.0877 25.0444L63.6528 24.9381C63.1386 24.8182 62.9307 24.6574 62.9307 24.3766C62.9307 24.0223 63.2535 23.7906 63.7376 23.7906C64.1971 23.7906 64.5144 24.0169 64.5718 24.3794H65.1681C65.1325 23.7171 64.5472 23.251 63.7458 23.251C62.8842 23.251 62.3098 23.7171 62.3098 24.4175C62.3098 24.9954 62.6353 25.3388 63.3492 25.505L63.858 25.6277C64.3804 25.7503 64.6101 25.9302 64.6101 26.23C64.6101 26.5789 64.2491 26.8324 63.7568 26.8324C63.2289 26.8324 62.8623 26.5953 62.8104 26.2219H62.2032Z" fill="#343434"/>
</g>
<defs>
<clipPath id="clip0_1016_43664">
<rect width="65.1828" height="39.0467" fill="white" transform="translate(0.123169 0.0810547)"/>
</clipPath>
</defs>
</svg>
