<svg width="60" height="62" viewBox="0 0 60 62" fill="none" xmlns="http://www.w3.org/2000/svg">
<path d="M45.6361 45.8634C46.0513 42.4049 45.9269 41.8977 48.5029 42.458L49.1569 42.5154C51.1377 42.6055 53.7289 42.1968 55.2511 41.4896C58.5281 39.9691 60.4712 37.4304 57.24 38.0975C49.8694 39.618 49.3627 37.1223 49.3627 37.1223C57.1456 25.5744 60.3991 10.9154 57.5908 7.32723C49.9311 -2.4601 36.6724 2.16811 36.4505 2.28827L36.3799 2.30131C34.9236 1.99914 33.2937 1.8186 31.4628 1.789C28.1274 1.7342 25.5965 2.66341 23.6767 4.11959C23.6767 4.11959 0.0237738 -5.6251 1.12415 16.3745C1.35818 21.0545 7.83236 51.7869 15.5541 42.5043C18.3763 39.1099 21.1037 36.2399 21.1037 36.2399C22.458 37.1397 24.0795 37.5987 25.7801 37.4338L25.9116 37.3217C25.8704 37.7431 25.8886 38.1554 25.9642 38.6434C23.9753 40.8659 24.5597 41.2562 20.5828 42.0748C16.5592 42.904 18.923 44.3804 20.466 44.7663C22.337 45.2342 26.6654 45.897 29.5908 41.8026L29.4743 42.2698C30.2546 42.8941 30.2019 46.7568 30.3125 49.5166C30.4233 52.2765 30.6081 54.852 31.1706 56.3704C31.7332 57.8886 32.397 61.7998 37.6237 60.6796C41.992 59.7435 45.3318 58.3964 45.6361 45.8634Z" fill="black" stroke="black"/>
<path d="M57.2415 38.0974C49.8701 39.6179 49.3634 37.1222 49.3634 37.1222C57.1464 25.5736 60.3999 10.9143 57.5921 7.32656C49.9324 -2.46018 36.6731 2.16832 36.4518 2.28848L36.3806 2.30123C34.9243 1.99891 33.2944 1.81882 31.4627 1.78892C28.1273 1.73426 25.5972 2.66333 23.6774 4.11922C23.6774 4.11922 0.0240465 -5.62503 1.12413 16.3744C1.35816 21.0547 7.8322 51.7871 15.5542 42.5045C18.3766 39.1101 21.1035 36.2401 21.1035 36.2401C22.458 37.1399 24.0795 37.5989 25.7794 37.434L25.9114 37.3219C25.8704 37.7434 25.8891 38.1556 25.9643 38.6436C23.975 40.8662 24.5596 41.2564 20.5829 42.075C16.559 42.9042 18.9229 44.3806 20.4662 44.7665C22.3373 45.2344 26.6659 45.8972 29.5908 41.8028L29.4741 42.27C30.2536 42.8943 30.8009 46.3308 30.7092 49.446C30.6174 52.5613 30.5562 54.7001 31.1703 56.3706C31.7845 58.0412 32.3966 61.8 37.6243 60.6798C41.9925 59.7437 44.2562 57.3179 44.5711 53.2714C44.7945 50.3947 45.3003 50.82 45.3322 48.248L45.7378 47.0304C46.2056 43.1308 45.8121 41.8727 48.5034 42.4579L49.1574 42.5153C51.1382 42.6054 53.7306 42.1967 55.2522 41.4895C58.5285 39.969 60.4717 37.4304 57.2412 38.0974H57.2415Z" fill="#336791"/>
<path d="M29.9065 40.333C29.7035 47.5891 29.9575 54.8958 30.6675 56.6716C31.3779 58.4474 32.8983 61.9014 38.1264 60.7813C42.4942 59.845 44.0835 58.0328 44.7731 54.033C45.281 51.0901 46.2602 42.9173 46.3858 41.2427" stroke="white" stroke-linecap="round" stroke-linejoin="round"/>
<path d="M23.6405 3.95716C23.6405 3.95716 -0.028986 -5.7169 1.07139 16.2826C1.30542 20.9628 7.7799 51.6963 15.5017 42.4132C18.3235 39.0184 20.8755 36.3559 20.8755 36.3559" stroke="white" stroke-linecap="round" stroke-linejoin="round"/>
<path d="M36.4251 2.19148C35.6058 2.44836 49.5915 -2.9212 57.5397 7.23498C60.3473 10.8229 57.0938 25.4821 49.311 37.031" stroke="white" stroke-linecap="round" stroke-linejoin="round"/>
<path d="M49.3113 37.0306C49.3113 37.0306 49.8184 39.5271 57.1899 38.0055C60.4197 37.3385 58.4759 39.8775 55.2003 41.3987C52.512 42.6464 46.4849 42.9661 46.3864 41.2421C46.1331 36.7938 49.5585 38.1452 49.3113 37.0306ZM49.3113 37.0306C49.0878 36.0268 47.556 35.0416 46.5427 32.5848C45.658 30.4405 34.4096 13.9963 49.6621 16.4385C50.2208 16.3229 45.6841 1.93065 31.4099 1.69663C17.139 1.4626 17.6072 19.2467 17.6072 19.2467" stroke="white" stroke-linecap="round" stroke-linejoin="bevel"/>
<path d="M25.9118 38.5526C23.9223 40.7751 24.5074 41.1653 20.5304 41.9842C16.5065 42.8136 18.8707 44.2897 20.4136 44.6754C22.2847 45.1436 26.6133 45.8064 29.5382 41.711C30.4288 40.4641 29.5329 38.4745 28.3094 37.9674C27.7183 37.7225 26.9278 37.4156 25.9118 38.5526Z" stroke="white" stroke-linecap="round" stroke-linejoin="round"/>
<path d="M25.7818 38.5135C25.5813 37.2068 26.2112 35.6519 26.8861 33.8327C27.9005 31.1032 30.2409 28.3733 28.3687 19.7151C26.9732 13.263 17.6132 18.3723 17.6073 19.2472C17.6016 20.1217 18.0307 23.6815 17.4509 27.8269C16.6945 33.2361 20.8929 37.811 25.7274 37.3429" stroke="white" stroke-linecap="round" stroke-linejoin="round"/>
<path d="M23.5549 19.116C23.5127 19.4148 24.1019 20.2122 24.8702 20.3187C25.6372 20.4257 26.2937 19.8026 26.3353 19.5041C26.377 19.2053 25.7884 18.8761 25.0198 18.7692C24.2524 18.662 23.5956 18.818 23.555 19.116H23.5549Z" fill="white" stroke="white"/>
<path d="M46.9163 18.5066C46.9579 18.8054 46.3694 19.6027 45.6009 19.7093C44.8334 19.8162 44.1768 19.1931 44.1348 18.8946C44.0942 18.5958 44.6829 18.2667 45.4506 18.1597C46.2183 18.0528 46.8747 18.2085 46.9163 18.5067V18.5066Z" fill="white" stroke="white"/>
<path d="M49.6616 16.4385C49.7881 18.7823 49.1568 20.3787 49.0772 22.8737C48.9594 26.5003 50.8063 30.6512 48.0234 34.8073" stroke="white" stroke-linecap="round" stroke-linejoin="round"/>
</svg>
