<svg width="60" height="62" viewBox="0 0 60 62" fill="none" xmlns="http://www.w3.org/2000/svg">
<g id="Group 1171274869">
<path id="Vector" d="M45.6371 45.8634C46.0523 42.4049 45.9279 41.8977 48.5039 42.458L49.1579 42.5154C51.1387 42.6055 53.7299 42.1968 55.2521 41.4896C58.5291 39.9691 60.4722 37.4304 57.241 38.0975C49.8704 39.618 49.3637 37.1223 49.3637 37.1223C57.1466 25.5744 60.4001 10.9154 57.5918 7.32723C49.9321 -2.4601 36.6734 2.1681 36.4515 2.28827L36.3809 2.30131C34.9245 1.99914 33.2947 1.8186 31.4638 1.789C28.1284 1.7342 25.5975 2.66341 23.6777 4.11959C23.6777 4.11959 0.0247503 -5.6251 1.12513 16.3745C1.35915 21.0545 7.83334 51.7869 15.555 42.5043C18.3773 39.1099 21.1047 36.2399 21.1047 36.2399C22.459 37.1397 24.0805 37.5987 25.7811 37.4338L25.9126 37.3217C25.8714 37.7432 25.8895 38.1554 25.9652 38.6434C23.9763 40.8659 24.5607 41.2562 20.5837 42.0748C16.5602 42.904 18.924 44.3804 20.4669 44.7663C22.338 45.2342 26.6664 45.897 29.5918 41.8026L29.4753 42.2698C30.2556 42.8941 30.2028 46.7568 30.3135 49.5166C30.4243 52.2765 30.609 54.852 31.1716 56.3704C31.7342 57.8886 32.398 61.7998 37.6247 60.6796C41.9929 59.7435 45.3328 58.3964 45.6371 45.8634Z" fill="black" stroke="black"/>
<path id="Vector_2" d="M57.2424 38.0974C49.8711 39.6179 49.3644 37.1222 49.3644 37.1222C57.1473 25.5736 60.4008 10.9143 57.5931 7.32656C49.9334 -2.46018 36.6741 2.16832 36.4528 2.28848L36.3816 2.30123C34.9252 1.99891 33.2954 1.81882 31.4637 1.78892C28.1282 1.73426 25.5982 2.66333 23.6784 4.11922C23.6784 4.11922 0.0250231 -5.62503 1.12511 16.3744C1.35913 21.0547 7.83317 51.7871 15.5552 42.5045C18.3775 39.1102 21.1045 36.2401 21.1045 36.2401C22.459 37.1399 24.0805 37.5989 25.7804 37.434L25.9124 37.3219C25.8714 37.7434 25.8901 38.1556 25.9653 38.6436C23.976 40.8662 24.5605 41.2564 20.5839 42.075C16.56 42.9042 18.9238 44.3806 20.4672 44.7665C22.3382 45.2344 26.6669 45.8972 29.5917 41.8028L29.4751 42.27C30.2545 42.8943 30.8019 46.3308 30.7101 49.446C30.6184 52.5613 30.5572 54.7001 31.1713 56.3706C31.7855 58.0412 32.3976 61.8 37.6253 60.6798C41.9935 59.7437 44.2571 57.3179 44.572 53.2714C44.7955 50.3947 45.3012 50.82 45.3332 48.248L45.7388 47.0304C46.2066 43.1308 45.8131 41.8727 48.5043 42.4579L49.1583 42.5153C51.1391 42.6054 53.7316 42.1967 55.2531 41.4895C58.5295 39.969 60.4726 37.4304 57.2421 38.0974H57.2424Z" fill="#336791"/>
<path id="Vector_3" d="M29.9075 40.333C29.7045 47.5891 29.9585 54.8958 30.6685 56.6716C31.3789 58.4474 32.8993 61.9014 38.1274 60.7813C42.4952 59.845 44.0844 58.0328 44.7741 54.033C45.282 51.0901 46.2612 42.9173 46.3867 41.2427" stroke="white" stroke-linecap="round" stroke-linejoin="round"/>
<path id="Vector_4" d="M23.6415 3.95716C23.6415 3.95716 -0.0280094 -5.7169 1.07237 16.2826C1.30639 20.9628 7.78087 51.6963 15.5027 42.4132C18.3245 39.0184 20.8765 36.3559 20.8765 36.3559" stroke="white" stroke-linecap="round" stroke-linejoin="round"/>
<path id="Vector_5" d="M36.427 2.19148C35.6077 2.44836 49.5935 -2.9212 57.5417 7.23498C60.3493 10.8229 57.0958 25.4821 49.313 37.031" stroke="white" stroke-linecap="round" stroke-linejoin="round"/>
<path id="Vector_6" d="M49.3132 37.0306C49.3132 37.0306 49.8204 39.5271 57.1918 38.0055C60.4216 37.3385 58.4779 39.8775 55.2023 41.3987C52.514 42.6464 46.4869 42.9661 46.3884 41.2421C46.135 36.7938 49.5604 38.1452 49.3132 37.0306ZM49.3132 37.0306C49.0897 36.0268 47.5579 35.0416 46.5446 32.5848C45.6599 30.4405 34.4116 13.9963 49.664 16.4385C50.2228 16.3229 45.686 1.93065 31.4119 1.69663C17.141 1.4626 17.6092 19.2467 17.6092 19.2467" stroke="white" stroke-linecap="round" stroke-linejoin="bevel"/>
<path id="Vector_7" d="M25.9128 38.5526C23.9232 40.7751 24.5084 41.1653 20.5314 41.9842C16.5075 42.8136 18.8717 44.2897 20.4146 44.6754C22.2856 45.1436 26.6143 45.8064 29.5391 41.711C30.4298 40.4641 29.5339 38.4745 28.3104 37.9674C27.7192 37.7225 26.9288 37.4156 25.9128 38.5526Z" stroke="white" stroke-linecap="round" stroke-linejoin="round"/>
<path id="Vector_8" d="M25.7828 38.5135C25.5823 37.2068 26.2121 35.6519 26.8871 33.8327C27.9015 31.1032 30.2419 28.3733 28.3697 19.7151C26.9742 13.263 17.6141 18.3723 17.6083 19.2472C17.6026 20.1217 18.0316 23.6815 17.4519 27.8269C16.6955 33.2361 20.8939 37.811 25.7284 37.3429" stroke="white" stroke-linecap="round" stroke-linejoin="round"/>
<path id="Vector_9" d="M23.5549 19.116C23.5127 19.4148 24.1019 20.2122 24.8702 20.3187C25.6372 20.4257 26.2937 19.8026 26.3353 19.5041C26.377 19.2053 25.7884 18.8761 25.0198 18.7692C24.2524 18.662 23.5956 18.818 23.555 19.116H23.5549Z" fill="white" stroke="white"/>
<path id="Vector_10" d="M46.9182 18.5066C46.9599 18.8054 46.3714 19.6027 45.6029 19.7093C44.8353 19.8162 44.1788 19.1931 44.1367 18.8946C44.0962 18.5958 44.6848 18.2667 45.4525 18.1597C46.2203 18.0528 46.8766 18.2085 46.9182 18.5067V18.5066Z" fill="white" stroke="white"/>
<path id="Vector_11" d="M49.6636 16.4385C49.79 18.7823 49.1587 20.3787 49.0792 22.8737C48.9613 26.5003 50.8082 30.6512 48.0254 34.8073" stroke="white" stroke-linecap="round" stroke-linejoin="round"/>
</g>
</svg>
