<svg width="64" height="64" viewBox="0 0 64 64" fill="none" xmlns="http://www.w3.org/2000/svg">
<path d="M32.0346 12.0003C30.3624 12.0081 28.7656 12.1507 27.3606 12.3994C23.2214 13.1306 22.4699 14.6612 22.4699 17.4838V21.2117H32.2512V22.4543H18.799C15.9563 22.4543 13.4671 24.1629 12.6886 27.4134C11.7905 31.1391 11.7507 33.4641 12.6886 37.3543C13.3839 40.2501 15.0443 42.3133 17.887 42.3133H21.25V37.8444C21.25 34.6159 24.0434 31.7682 27.3606 31.7682H37.1305C39.8501 31.7682 42.0211 29.529 42.0211 26.7977V17.4838C42.0211 14.8331 39.7848 12.8418 37.1305 12.3994C35.4502 12.1197 33.7067 11.9926 32.0346 12.0003ZM26.7449 14.9986C27.7553 14.9986 28.5803 15.8372 28.5803 16.8682C28.5803 17.8956 27.7553 18.7264 26.7449 18.7264C25.731 18.7264 24.9095 17.8956 24.9095 16.8682C24.9095 15.8371 25.731 14.9986 26.7449 14.9986Z" fill="black"/>
<path d="M43.2408 22.4543V26.7977C43.2408 30.1651 40.3858 32.9994 37.1304 32.9994H27.3604C24.6843 32.9994 22.4697 35.2897 22.4697 37.9698V47.2837C22.4697 49.9344 24.7748 51.4936 27.3604 52.2541C30.4566 53.1645 33.4258 53.3291 37.1304 52.2541C39.5928 51.5412 42.021 50.1064 42.021 47.2837V43.5558H32.251V42.3132H46.9117C49.7543 42.3132 50.8137 40.3303 51.8023 37.3542C52.8236 34.2902 52.7801 31.3437 51.8023 27.4132C51.0998 24.5832 49.758 22.4541 46.9117 22.4541H43.2408V22.4543ZM37.746 46.0411C38.7599 46.0411 39.5814 46.8719 39.5814 47.8993C39.5814 48.9304 38.7599 49.769 37.746 49.769C36.7356 49.769 35.9106 48.9304 35.9106 47.8993C35.9105 46.8719 36.7356 46.0411 37.746 46.0411Z" fill="black"/>
</svg>
