<svg width="68" height="60" viewBox="0 0 68 60" fill="none" xmlns="http://www.w3.org/2000/svg">
<g clip-path="url(#clip0_2172_152287)">
<path d="M33.9306 36.0107C37.2503 36.0107 39.9413 33.3196 39.9413 30C39.9413 26.6803 37.2503 23.9893 33.9306 23.9893C30.611 23.9893 27.9199 26.6803 27.9199 30C27.9199 33.3196 30.611 36.0107 33.9306 36.0107Z" fill="#61DAFB"/>
<path d="M33.9323 42.3148C51.7449 42.3148 66.1848 36.8013 66.1848 30.0002C66.1848 23.199 51.7449 17.6855 33.9323 17.6855C16.1197 17.6855 1.67969 23.199 1.67969 30.0002C1.67969 36.8013 16.1197 42.3148 33.9323 42.3148Z" stroke="#61DAFB" stroke-width="1.5"/>
<path d="M23.2674 36.1573C32.1737 51.5835 44.1685 61.3321 50.0585 57.9315C55.9485 54.531 53.5033 39.2689 44.597 23.8427C35.6907 8.41651 23.6959 -1.33215 17.8059 2.06844C11.9159 5.46903 14.3611 20.7311 23.2674 36.1573Z" stroke="#61DAFB" stroke-width="1.5"/>
<path d="M23.2668 23.8425C14.3605 39.2687 11.9153 54.5308 17.8053 57.9314C23.6953 61.332 35.6901 51.5833 44.5964 36.1571C53.5027 20.731 55.9479 5.46886 50.0579 2.06828C44.1679 -1.33231 32.1731 8.41635 23.2668 23.8425Z" stroke="#61DAFB" stroke-width="1.5"/>
</g>
<defs>
<clipPath id="clip0_2172_152287">
<rect width="67.4372" height="60" fill="white" transform="translate(0.212891)"/>
</clipPath>
</defs>
</svg>
