<svg width="68" height="60" viewBox="0 0 68 60" fill="none" xmlns="http://www.w3.org/2000/svg">
<path d="M34.0006 42.3148C51.8132 42.3148 66.2532 36.8013 66.2532 30.0002C66.2532 23.199 51.8132 17.6855 34.0006 17.6855C16.188 17.6855 1.74805 23.199 1.74805 30.0002C1.74805 36.8013 16.188 42.3148 34.0006 42.3148Z" stroke="#61DAFB" stroke-width="1.5"/>
<path d="M23.3358 36.1573C32.2421 51.5835 44.2369 61.3321 50.1269 57.9315C56.0169 54.531 53.5717 39.2689 44.6654 23.8427C35.759 8.41651 23.7643 -1.33215 17.8743 2.06844C11.9843 5.46903 14.4295 20.7311 23.3358 36.1573Z" stroke="#61DAFB" stroke-width="1.5"/>
<path d="M23.3352 23.8425C14.4289 39.2687 11.9837 54.5308 17.8737 57.9314C23.7637 61.332 35.7584 51.5833 44.6647 36.1571C53.571 20.731 56.0162 5.46886 50.1262 2.06828C44.2362 -1.33231 32.2415 8.41635 23.3352 23.8425Z" stroke="#61DAFB" stroke-width="1.5"/>
</svg>
