<svg width="130" height="35" viewBox="0 0 130 35" fill="none" xmlns="http://www.w3.org/2000/svg">
<g style="mix-blend-mode:luminosity">
<path d="M20.2286 24.6564C30.4189 24.6564 38.6797 21.4988 38.6797 17.6036C38.6797 13.7084 30.4189 10.5508 20.2286 10.5508C10.0384 10.5508 1.77759 13.7084 1.77759 17.6036C1.77759 21.4988 10.0384 24.6564 20.2286 24.6564Z" stroke="#343434" stroke-width="1.68305"/>
<path d="M14.1276 21.1298C19.2227 29.9647 26.0847 35.5479 29.4542 33.6003C32.8237 31.6528 31.4249 22.9119 26.3298 14.077C21.2347 5.24215 14.3727 -0.341095 11.0031 1.60649C7.6336 3.55407 9.03245 12.295 14.1276 21.1298Z" stroke="#343434" stroke-width="1.68305"/>
<path d="M14.1276 14.0769C9.03244 22.9118 7.63359 31.6527 11.0031 33.6003C14.3727 35.5478 21.2347 29.9646 26.3298 21.1297C31.4249 12.2949 32.8237 3.55399 29.4542 1.6064C26.0846 -0.341179 19.2227 5.24206 14.1276 14.0769Z" stroke="#343434" stroke-width="1.68305"/>
<path d="M20.2285 21.1154C22.1276 21.1154 23.6671 19.5741 23.6671 17.6729C23.6671 15.7717 22.1276 14.2305 20.2285 14.2305C18.3294 14.2305 16.7899 15.7717 16.7899 17.6729C16.7899 19.5741 18.3294 21.1154 20.2285 21.1154Z" fill="#343434"/>
</g>
<g style="mix-blend-mode:luminosity">
<path d="M45.8403 29.1035V5.60206H53.4255C55.0932 5.60206 56.4856 5.90425 57.6025 6.50861C58.7271 7.10533 59.5724 7.93538 60.1385 8.99876C60.7123 10.0545 60.9992 11.267 60.9992 12.6364C60.9992 14.0058 60.7123 15.2146 60.1385 16.2626C59.5724 17.3107 58.7309 18.1293 57.614 18.7184C56.497 19.3074 55.1123 19.602 53.4599 19.602H46.9993V17.6397H53.4025C54.6265 17.6397 55.644 17.4369 56.4549 17.0315C57.2735 16.626 57.8817 16.0484 58.2795 15.2987C58.685 14.549 58.8877 13.6616 58.8877 12.6364C58.8877 11.6113 58.685 10.7162 58.2795 9.95121C57.8741 9.17854 57.262 8.58182 56.4435 8.16106C55.6326 7.7403 54.6074 7.52992 53.3681 7.52992H47.9862V29.1035H45.8403ZM56.2025 18.5003L61.9861 29.1035H59.5074L53.7812 18.5003H56.2025ZM72.7384 29.4707C71.0936 29.4707 69.6707 29.0882 68.4696 28.3232C67.2685 27.5505 66.339 26.4833 65.6811 25.1216C65.0308 23.7522 64.7057 22.1762 64.7057 20.3937C64.7057 18.6189 65.0308 17.043 65.6811 15.6659C66.339 14.2812 67.2456 13.1987 68.4008 12.4184C69.5636 11.6304 70.9062 11.2364 72.4286 11.2364C73.3849 11.2364 74.3067 11.4124 75.1941 11.7643C76.0816 12.1086 76.8772 12.6403 77.581 13.3594C78.2925 14.0708 78.8548 14.9697 79.2679 16.0561C79.681 17.1348 79.8875 18.4123 79.8875 19.8888V20.8987H66.1172V19.097H77.799C77.799 17.9648 77.5695 16.9473 77.1105 16.0446C76.6592 15.1342 76.028 14.4151 75.2171 13.8872C74.4138 13.3594 73.4843 13.0954 72.4286 13.0954C71.3117 13.0954 70.3286 13.3938 69.4794 13.9905C68.6303 14.5872 67.9647 15.3752 67.4827 16.3544C67.0084 17.3337 66.7674 18.4047 66.7598 19.5675V20.6462C66.7598 22.0462 67.0008 23.2702 67.4827 24.3183C67.9723 25.3587 68.6647 26.1658 69.5598 26.7396C70.4548 27.3134 71.5144 27.6002 72.7384 27.6002C73.5723 27.6002 74.3029 27.4702 74.9302 27.2101C75.5652 26.95 76.0969 26.6019 76.5253 26.1658C76.9613 25.7221 77.2903 25.2363 77.5122 24.7085L79.4515 25.3396C79.1837 26.0817 78.7438 26.7664 78.1318 27.3937C77.5275 28.021 76.7701 28.5259 75.8597 28.9084C74.957 29.2833 73.9166 29.4707 72.7384 29.4707ZM89.3117 29.5052C88.2483 29.5052 87.2767 29.2986 86.3969 28.8855C85.5171 28.4647 84.8172 27.8604 84.2969 27.0724C83.7767 26.2768 83.5166 25.3128 83.5166 24.1806C83.5166 23.3085 83.6811 22.5741 84.0101 21.9773C84.339 21.3806 84.8057 20.891 85.41 20.5085C86.0144 20.126 86.7297 19.8238 87.5559 19.602C88.3822 19.3801 89.2925 19.208 90.2871 19.0856C91.2739 18.9632 92.1078 18.8561 92.7887 18.7643C93.4772 18.6725 94.0012 18.5271 94.3608 18.3282C94.7204 18.1293 94.9001 17.808 94.9001 17.3643V16.9512C94.9001 15.7501 94.5406 14.8053 93.8215 14.1167C93.11 13.4206 92.0849 13.0725 90.7461 13.0725C89.4761 13.0725 88.4395 13.3517 87.6363 13.9102C86.8406 14.4687 86.2822 15.1266 85.9609 15.8839L84.0215 15.184C84.4193 14.22 84.9702 13.4512 85.674 12.8774C86.3778 12.296 87.1658 11.8791 88.0379 11.6266C88.91 11.3665 89.7936 11.2364 90.6887 11.2364C91.3619 11.2364 92.0619 11.3244 92.7887 11.5004C93.5231 11.6763 94.204 11.9823 94.8313 12.4184C95.4586 12.8468 95.9673 13.4474 96.3575 14.22C96.7477 14.985 96.9427 15.9566 96.9427 17.1348V29.1035H94.9001V26.315H94.7739C94.5291 26.8352 94.1657 27.3401 93.6838 27.8298C93.2018 28.3194 92.5974 28.721 91.8707 29.0347C91.1439 29.3483 90.2909 29.5052 89.3117 29.5052ZM89.5871 27.6347C90.6734 27.6347 91.6144 27.3937 92.41 26.9117C93.2056 26.4298 93.8176 25.791 94.246 24.9954C94.6821 24.1921 94.9001 23.3085 94.9001 22.3446V19.797C94.7471 19.9424 94.4908 20.0724 94.1313 20.1872C93.7794 20.3019 93.3701 20.4052 92.9034 20.497C92.4444 20.5812 91.9854 20.6539 91.5264 20.7151C91.0674 20.7763 90.6543 20.8298 90.2871 20.8757C89.2925 20.9981 88.4434 21.1894 87.7395 21.4495C87.0357 21.7096 86.4964 22.0691 86.1215 22.5282C85.7467 22.9795 85.5592 23.5609 85.5592 24.2724C85.5592 25.3434 85.9417 26.1735 86.7068 26.7626C87.4718 27.344 88.4319 27.6347 89.5871 27.6347ZM109.261 29.4707C107.686 29.4707 106.312 29.0767 105.142 28.2888C103.979 27.5008 103.076 26.4221 102.434 25.0527C101.791 23.6833 101.47 22.1227 101.47 20.3708C101.47 18.6036 101.795 17.0315 102.445 15.6544C103.103 14.2774 104.013 13.1987 105.176 12.4184C106.339 11.6304 107.689 11.2364 109.227 11.2364C110.405 11.2364 111.472 11.466 112.429 11.925C113.385 12.3763 114.173 13.0151 114.793 13.8413C115.42 14.6599 115.814 15.6162 115.975 16.7102H113.909C113.695 15.7156 113.178 14.8665 112.36 14.1627C111.549 13.4512 110.516 13.0954 109.261 13.0954C108.137 13.0954 107.142 13.4015 106.278 14.0135C105.413 14.6178 104.736 15.4632 104.247 16.5495C103.765 17.6282 103.524 18.879 103.524 20.3019C103.524 21.7325 103.761 22.9986 104.235 24.1003C104.71 25.1943 105.375 26.0511 106.232 26.6707C107.096 27.2904 108.106 27.6002 109.261 27.6002C110.042 27.6002 110.753 27.4549 111.396 27.1642C112.046 26.8658 112.589 26.4451 113.025 25.9019C113.469 25.3587 113.767 24.7123 113.92 23.9626H115.986C115.833 25.026 115.454 25.9746 114.85 26.8085C114.253 27.6347 113.477 28.2849 112.52 28.7593C111.572 29.2336 110.486 29.4707 109.261 29.4707ZM127.306 11.4774V13.2561H118.895V11.4774H127.306ZM121.523 7.25451H123.577V24.5019C123.577 25.2363 123.703 25.8139 123.956 26.2347C124.208 26.6478 124.537 26.9423 124.943 27.1183C125.348 27.2866 125.78 27.3707 126.239 27.3707C126.507 27.3707 126.736 27.3554 126.928 27.3248C127.119 27.2866 127.287 27.2483 127.433 27.2101L127.869 29.0576C127.67 29.1341 127.425 29.203 127.134 29.2642C126.844 29.333 126.484 29.3674 126.056 29.3674C125.306 29.3674 124.583 29.203 123.887 28.874C123.198 28.5451 122.632 28.0554 122.188 27.4052C121.745 26.7549 121.523 25.9478 121.523 24.9839V7.25451Z" fill="#343434"/>
</g>
</svg>
