<svg width="72" height="60" viewBox="0 0 72 60" fill="none" xmlns="http://www.w3.org/2000/svg">
<g id="Layer 2">
<g id="Layer 1">
<g id="Clip path group">
<mask id="mask0_2146_15237" style="mask-type:luminance" maskUnits="userSpaceOnUse" x="0" y="0" width="72" height="60">
<g id="clip-path">
<path id="Vector" d="M71.0069 0H0.994141V60H71.0069V0Z" fill="white"/>
</g>
</mask>
<g mask="url(#mask0_2146_15237)">
<g id="Group">
<path id="Vector_2" d="M68.2507 46.2571C64.521 48.208 45.165 56.1694 40.9954 58.3546C36.8258 60.5398 34.5928 60.4776 31.3317 58.9188C28.0706 57.36 7.54303 49.0113 3.82292 47.2325C1.94852 46.3527 0.992188 45.602 0.992188 44.8991V37.8175C0.992188 37.8175 27.8076 31.9982 32.135 30.4298C36.4624 28.8615 37.959 28.8232 41.6361 30.1716C45.3132 31.52 67.3565 35.4984 70.9954 36.8181V43.7993C70.9954 44.5261 70.1586 45.2338 68.2507 46.2523V46.2571Z" fill="#A32422"/>
<path id="Vector_3" d="M68.2516 39.2096C64.5219 41.151 45.1658 49.1124 40.9962 51.2593C36.8267 53.4063 34.5936 53.3872 31.3326 51.8331C28.0715 50.2791 7.5439 41.9304 3.82378 40.1659C0.10367 38.4015 0.0319449 37.1678 3.68034 35.7429C7.32873 34.318 27.8085 26.2992 32.1359 24.7212C36.4632 23.1433 37.9599 23.1098 41.637 24.463C45.3141 25.8162 64.5888 33.4716 68.2085 34.8057C71.8282 36.1398 71.9956 37.2348 68.2516 39.1714V39.2096Z" fill="#DC382C"/>
<path id="Vector_4" d="M68.2507 34.7245C64.521 36.6707 45.165 44.6273 40.9954 46.7743C36.8258 48.9212 34.6119 48.9021 31.3508 47.3385C28.0897 45.7749 7.54303 37.474 3.82292 35.7C1.94852 34.8106 0.992188 34.0647 0.992188 33.357V26.2993C0.992188 26.2993 27.8076 20.4609 32.135 18.8925C36.4624 17.3241 37.959 17.2811 41.6361 18.6487C45.3132 20.0162 67.3565 23.9563 70.9954 25.2856V32.2668C70.9954 32.9936 70.1586 33.7204 68.2507 34.7245Z" fill="#A32422"/>
<path id="Vector_5" d="M68.2517 27.6424C64.522 29.5933 45.166 37.55 40.9964 39.6969C36.8268 41.8439 34.5938 41.8296 31.3327 40.2707C28.0716 38.7119 7.54403 30.3967 3.82392 28.6179C0.103804 26.8391 0.036861 25.6294 3.68047 24.2044C7.32408 22.7795 27.8086 14.7416 32.136 13.2067C36.4634 11.6718 37.96 11.5761 41.6371 12.9102C45.3142 14.2443 64.589 21.9666 68.2087 23.2624C71.8284 24.5583 71.9957 25.6963 68.2517 27.6281V27.6424Z" fill="#DC382C"/>
<path id="Vector_6" d="M68.2507 22.756C64.521 24.7069 45.165 32.6683 40.9954 34.8105C36.8258 36.9527 34.6119 36.9383 31.3508 35.3843C28.0897 33.8303 7.54303 25.5054 3.82292 23.7314C1.94852 22.8516 0.992188 22.1009 0.992188 21.3932V14.3116C0.992188 14.3116 27.8076 8.49236 32.135 6.92876C36.4624 5.36517 37.959 5.31735 41.6361 6.66577C45.3132 8.01419 67.347 11.9925 70.9858 13.3218V20.303C70.9954 21.0394 70.1586 21.7566 68.2507 22.756Z" fill="#A32422"/>
<path id="Vector_7" d="M68.2516 15.6838C64.5219 17.5964 45.1658 25.6057 40.9962 27.7335C36.8267 29.8613 34.5936 29.8565 31.3326 28.3073C28.0715 26.758 7.5439 18.4236 3.82378 16.6544C0.10367 14.8852 0.0319449 13.6563 3.68034 12.2314C7.32873 10.8065 27.8085 2.77334 32.1359 1.21453C36.4632 -0.344287 37.9599 -0.392103 41.637 0.956319C45.3141 2.30474 64.5888 9.96971 68.2085 11.299C71.8282 12.6283 71.9956 13.7329 68.2516 15.6694V15.6838Z" fill="#DC382C"/>
</g>
</g>
</g>
<path id="Vector_8" d="M37.0945 5.62827L41.7136 4.11249L40.4608 7.1058L45.1611 8.86544L39.1028 9.49662L37.74 12.7673L35.55 9.11887L28.5449 8.48769L33.776 6.60373L32.2029 3.70605L37.0945 5.62827Z" fill="white"/>
<path id="Vector_9" d="M37.3874 24.7209L26.0645 20.0205L42.2838 17.5293L37.3874 24.7209Z" fill="white"/>
<path id="Vector_10" d="M21.6895 10.6816C26.4712 10.6816 30.3586 12.1879 30.3586 14.0288C30.3586 15.8697 26.4616 17.3759 21.6895 17.3759C16.9174 17.3759 13.0156 15.8697 13.0156 14.0288C13.0156 12.1879 16.9031 10.6816 21.6895 10.6816Z" fill="white"/>
<path id="Vector_11" d="M52.3398 9.75977L61.9366 13.5516L52.3494 17.3434L52.3398 9.75977Z" fill="#741113"/>
<path id="Vector_12" d="M52.3396 9.75977L52.3492 17.3434L51.3068 17.7499L41.7148 13.958L52.3396 9.75977Z" fill="#AC2724"/>
</g>
</g>
</svg>
