<svg width="72" height="60" viewBox="0 0 72 60" fill="none" xmlns="http://www.w3.org/2000/svg">
<mask id="mask0_1925_47371" style="mask-type:luminance" maskUnits="userSpaceOnUse" x="0" y="0" width="72" height="60">
<path d="M71.0059 0H0.993164V60H71.0059V0Z" fill="white"/>
</mask>
<g mask="url(#mask0_1925_47371)">
<path d="M68.2507 46.2571C64.521 48.208 45.165 56.1694 40.9954 58.3546C36.8258 60.5398 34.5928 60.4776 31.3317 58.9188C28.0706 57.36 7.54303 49.0113 3.82292 47.2325C1.94852 46.3527 0.992188 45.602 0.992188 44.8991V37.8175C0.992188 37.8175 27.8076 31.9982 32.135 30.4298C36.4624 28.8615 37.959 28.8232 41.6361 30.1716C45.3132 31.52 67.3565 35.4984 70.9954 36.8181V43.7993C70.9954 44.5261 70.1586 45.2338 68.2507 46.2523V46.2571Z" fill="#A32422"/>
<path d="M68.2506 39.2096C64.5209 41.151 45.1649 49.1124 40.9953 51.2593C36.8257 53.4063 34.5927 53.3872 31.3316 51.8331C28.0705 50.2791 7.54292 41.9304 3.82281 40.1659C0.102693 38.4015 0.0309684 37.1678 3.67936 35.7429C7.32775 34.318 27.8075 26.2992 32.1349 24.7212C36.4623 23.1433 37.9589 23.1098 41.636 24.463C45.3131 25.8162 64.5879 33.4716 68.2076 34.8057C71.8273 36.1398 71.9946 37.2348 68.2506 39.1714V39.2096Z" fill="#DC382C"/>
<path d="M68.2507 34.7245C64.521 36.6707 45.165 44.6273 40.9954 46.7743C36.8258 48.9212 34.6119 48.9021 31.3508 47.3385C28.0897 45.7749 7.54303 37.474 3.82292 35.7C1.94852 34.8106 0.992188 34.0647 0.992188 33.357V26.2993C0.992188 26.2993 27.8076 20.4609 32.135 18.8925C36.4624 17.3241 37.959 17.2811 41.6361 18.6487C45.3132 20.0162 67.3565 23.9563 70.9954 25.2856V32.2668C70.9954 32.9936 70.1586 33.7204 68.2507 34.7245Z" fill="#A32422"/>
<path d="M68.2507 27.6424C64.5211 29.5933 45.165 37.55 40.9954 39.6969C36.8258 41.8439 34.5928 41.8296 31.3317 40.2707C28.0706 38.7119 7.54306 30.3967 3.82294 28.6179C0.102827 26.8391 0.0358844 25.6294 3.67949 24.2044C7.3231 22.7795 27.8076 14.7416 32.135 13.2067C36.4624 11.6718 37.9591 11.5761 41.6361 12.9102C45.3132 14.2443 64.588 21.9666 68.2077 23.2624C71.8274 24.5583 71.9948 25.6963 68.2507 27.6281V27.6424Z" fill="#DC382C"/>
<path d="M68.2507 22.756C64.521 24.7069 45.165 32.6683 40.9954 34.8105C36.8258 36.9527 34.6119 36.9383 31.3508 35.3843C28.0897 33.8303 7.54303 25.5054 3.82292 23.7314C1.94852 22.8516 0.992188 22.1009 0.992188 21.3932V14.3116C0.992188 14.3116 27.8076 8.49236 32.135 6.92876C36.4624 5.36517 37.959 5.31735 41.6361 6.66577C45.3132 8.01419 67.347 11.9925 70.9858 13.3218V20.303C70.9954 21.0394 70.1586 21.7566 68.2507 22.756Z" fill="#A32422"/>
<path d="M68.2506 15.6838C64.5209 17.5964 45.1649 25.6057 40.9953 27.7335C36.8257 29.8613 34.5927 29.8565 31.3316 28.3073C28.0705 26.758 7.54292 18.4236 3.82281 16.6544C0.102693 14.8852 0.0309684 13.6564 3.67936 12.2314C7.32775 10.8065 27.8075 2.77334 32.1349 1.21453C36.4623 -0.344287 37.9589 -0.392103 41.636 0.956319C45.3131 2.30474 64.5879 9.96971 68.2076 11.299C71.8273 12.6283 71.9946 13.7329 68.2506 15.6694V15.6838Z" fill="#DC382C"/>
</g>
<path d="M37.0945 5.62827L41.7136 4.11249L40.4608 7.1058L45.1611 8.86544L39.1028 9.49662L37.74 12.7673L35.55 9.11887L28.5449 8.48769L33.776 6.60373L32.2029 3.70605L37.0945 5.62827Z" fill="white"/>
<path d="M37.3864 24.7209L26.0635 20.0205L42.2828 17.5293L37.3864 24.7209Z" fill="white"/>
<path d="M21.6885 10.6816C26.4702 10.6816 30.3577 12.1879 30.3577 14.0288C30.3577 15.8697 26.4606 17.3759 21.6885 17.3759C16.9165 17.3759 13.0146 15.8697 13.0146 14.0288C13.0146 12.1879 16.9021 10.6816 21.6885 10.6816Z" fill="white"/>
<path d="M52.3389 9.75977L61.9356 13.5516L52.3484 17.3434L52.3389 9.75977Z" fill="#741113"/>
<path d="M52.3387 9.75977L52.3482 17.3434L51.3058 17.7499L41.7139 13.958L52.3387 9.75977Z" fill="#AC2724"/>
</svg>
