<svg width="55" height="55" viewBox="0 0 55 55" fill="none" xmlns="http://www.w3.org/2000/svg">
<rect x="0.589355" y="0.310547" width="54" height="54" rx="27" fill="#4C6EF6"/>
<path d="M13.5611 38.8585C13.0194 38.8585 12.4899 38.6979 12.0395 38.397C11.5891 38.096 11.238 37.6683 11.0307 37.1678C10.8235 36.6674 10.7692 36.1167 10.8749 35.5854C10.9806 35.0541 11.2414 34.5661 11.6245 34.183C12.0075 33.8 12.4955 33.5392 13.0268 33.4335C13.5581 33.3278 14.1088 33.382 14.6092 33.5893C15.1097 33.7966 15.5374 34.1477 15.8384 34.5981C16.1393 35.0485 16.2999 35.578 16.2999 36.1197C16.2991 36.8458 16.0103 37.542 15.4968 38.0554C14.9834 38.5689 14.2872 38.8577 13.5611 38.8585ZM13.5611 34.9459C13.329 34.9459 13.102 35.0148 12.909 35.1437C12.716 35.2727 12.5655 35.456 12.4767 35.6705C12.3878 35.885 12.3646 36.121 12.4099 36.3487C12.4552 36.5764 12.567 36.7855 12.7311 36.9497C12.8953 37.1139 13.1044 37.2256 13.3321 37.2709C13.5598 37.3162 13.7958 37.293 14.0103 37.2041C14.2248 37.1153 14.4081 36.9648 14.5371 36.7718C14.6661 36.5788 14.7349 36.3519 14.7349 36.1197C14.7345 35.8085 14.6107 35.5102 14.3906 35.2902C14.1706 35.0701 13.8723 34.9463 13.5611 34.9459Z" fill="white"/>
<path d="M23.734 43.1642C23.1923 43.1642 22.6627 43.0036 22.2123 42.7026C21.7619 42.4017 21.4109 41.9739 21.2036 41.4735C20.9963 40.973 20.9421 40.4223 21.0477 39.891C21.1534 39.3598 21.4143 38.8717 21.7973 38.4887C22.1803 38.1057 22.6684 37.8448 23.1996 37.7392C23.7309 37.6335 24.2816 37.6877 24.7821 37.895C25.2825 38.1023 25.7103 38.4533 26.0112 38.9037C26.3122 39.3541 26.4728 39.8837 26.4728 40.4254C26.472 41.1515 26.1831 41.8477 25.6697 42.3611C25.1562 42.8746 24.4601 43.1634 23.734 43.1642ZM23.734 39.2516C23.5018 39.2516 23.2749 39.3204 23.0818 39.4494C22.8888 39.5784 22.7384 39.7617 22.6495 39.9762C22.5607 40.1907 22.5374 40.4267 22.5827 40.6544C22.628 40.8821 22.7398 41.0912 22.904 41.2554C23.0681 41.4195 23.2773 41.5313 23.505 41.5766C23.7327 41.6219 23.9687 41.5986 24.1831 41.5098C24.3976 41.421 24.5809 41.2705 24.7099 41.0775C24.8389 40.8845 24.9077 40.6575 24.9077 40.4254C24.9073 40.1142 24.7835 39.8159 24.5635 39.5958C24.3435 39.3758 24.0451 39.252 23.734 39.2516ZM31.5592 43.1642C31.0175 43.1642 30.488 43.0036 30.0376 42.7026C29.5872 42.4017 29.2362 41.9739 29.0289 41.4735C28.8216 40.973 28.7673 40.4223 28.873 39.891C28.9787 39.3598 29.2395 38.8717 29.6226 38.4887C30.0056 38.1057 30.4936 37.8448 31.0249 37.7392C31.5562 37.6335 32.1069 37.6877 32.6073 37.895C33.1078 38.1023 33.5355 38.4533 33.8365 38.9037C34.1374 39.3541 34.2981 39.8837 34.2981 40.4254C34.2972 41.1515 34.0084 41.8477 33.495 42.3611C32.9815 42.8746 32.2853 43.1634 31.5592 43.1642ZM31.5592 39.2516C31.3271 39.2516 31.1001 39.3204 30.9071 39.4494C30.7141 39.5784 30.5636 39.7617 30.4748 39.9762C30.3859 40.1907 30.3627 40.4267 30.408 40.6544C30.4533 40.8821 30.5651 41.0912 30.7292 41.2554C30.8934 41.4195 31.1025 41.5313 31.3302 41.5766C31.5579 41.6219 31.7939 41.5986 32.0084 41.5098C32.2229 41.421 32.4062 41.2705 32.5352 41.0775C32.6642 40.8845 32.733 40.6575 32.733 40.4254C32.7326 40.1142 32.6088 39.8159 32.3888 39.5958C32.1687 39.3758 31.8704 39.252 31.5592 39.2516Z" fill="white"/>
<path d="M18.6475 36.905H15.5174C15.3099 36.905 15.1108 36.8225 14.9641 36.6758C14.8173 36.529 14.7349 36.33 14.7349 36.1224C14.7349 35.9149 14.8173 35.7159 14.9641 35.5691C15.1108 35.4223 15.3099 35.3399 15.5174 35.3399H17.865V28.2972C17.865 28.0896 17.9474 27.8906 18.0942 27.7438C18.2409 27.5971 18.44 27.5146 18.6475 27.5146C18.855 27.5146 19.0541 27.5971 19.2008 27.7438C19.3476 27.8906 19.43 28.0896 19.43 28.2972V36.1224C19.43 36.33 19.3476 36.529 19.2008 36.6758C19.0541 36.8225 18.855 36.905 18.6475 36.905ZM41.732 38.8613C41.1903 38.8613 40.6608 38.7006 40.2104 38.3997C39.76 38.0987 39.4089 37.671 39.2016 37.1705C38.9943 36.6701 38.9401 36.1194 39.0458 35.5881C39.1515 35.0568 39.4123 34.5688 39.7953 34.1858C40.1784 33.8027 40.6664 33.5419 41.1977 33.4362C41.729 33.3305 42.2797 33.3848 42.7801 33.5921C43.2806 33.7994 43.7083 34.1504 44.0093 34.6008C44.3102 35.0512 44.4708 35.5807 44.4708 36.1224C44.47 36.8486 44.1812 37.5447 43.6677 38.0582C43.1543 38.5716 42.4581 38.8604 41.732 38.8613ZM41.732 34.9486C41.4998 34.9486 41.2729 35.0175 41.0799 35.1465C40.8868 35.2754 40.7364 35.4588 40.6476 35.6732C40.5587 35.8877 40.5355 36.1237 40.5808 36.3514C40.6261 36.5791 40.7378 36.7883 40.902 36.9524C41.0662 37.1166 41.2753 37.2284 41.503 37.2737C41.7307 37.319 41.9667 37.2957 42.1812 37.2069C42.3957 37.118 42.579 36.9676 42.708 36.7746C42.8369 36.5815 42.9058 36.3546 42.9058 36.1224C42.9054 35.8112 42.7816 35.5129 42.5615 35.2929C42.3415 35.0729 42.0432 34.9491 41.732 34.9486Z" fill="white"/>
<path d="M39.7754 36.905H36.6453C36.4378 36.905 36.2387 36.8225 36.092 36.6758C35.9452 36.529 35.8628 36.33 35.8628 36.1224V28.2972C35.8628 28.0896 35.9452 27.8906 36.092 27.7438C36.2387 27.5971 36.4378 27.5146 36.6453 27.5146C36.8529 27.5146 37.0519 27.5971 37.1986 27.7438C37.3454 27.8906 37.4278 28.0896 37.4278 28.2972V35.3399H39.7754C39.983 35.3399 40.182 35.4223 40.3288 35.5691C40.4755 35.7159 40.5579 35.9149 40.5579 36.1224C40.5579 36.33 40.4755 36.529 40.3288 36.6758C40.182 36.8225 39.983 36.905 39.7754 36.905Z" fill="white"/>
<path d="M23.7337 39.2516C23.5262 39.2516 23.3271 39.1691 23.1804 39.0224C23.0336 38.8756 22.9512 38.6766 22.9512 38.469V28.2962C22.9512 28.0887 23.0336 27.8896 23.1804 27.7429C23.3271 27.5961 23.5262 27.5137 23.7337 27.5137C23.9412 27.5137 24.1403 27.5961 24.287 27.7429C24.4338 27.8896 24.5162 28.0887 24.5162 28.2962V38.469C24.5162 38.6766 24.4338 38.8756 24.287 39.0224C24.1403 39.1691 23.9412 39.2516 23.7337 39.2516ZM31.559 39.2516C31.3514 39.2516 31.1524 39.1691 31.0056 39.0224C30.8589 38.8756 30.7764 38.6766 30.7764 38.469V28.2962C30.7764 28.0887 30.8589 27.8896 31.0056 27.7429C31.1524 27.5961 31.3514 27.5137 31.559 27.5137C31.7665 27.5137 31.9655 27.5961 32.1123 27.7429C32.259 27.8896 32.3415 28.0887 32.3415 28.2962V38.469C32.3415 38.6766 32.259 38.8756 32.1123 39.0224C31.9655 39.1691 31.7665 39.2516 31.559 39.2516Z" fill="white"/>
<path d="M37.0371 29.0783H31.5594C31.3519 29.0783 31.1528 28.9958 31.0061 28.8491C30.8593 28.7023 30.7769 28.5033 30.7769 28.2958C30.7769 28.0882 30.8593 27.8892 31.0061 27.7424C31.1528 27.5957 31.3519 27.5132 31.5594 27.5132H37.0371C38.0748 27.5132 39.07 27.101 39.8037 26.3672C40.5375 25.6335 40.9497 24.6383 40.9497 23.6006C40.9497 22.5629 40.5375 21.5677 39.8037 20.834C39.07 20.1002 38.0748 19.688 37.0371 19.688C36.9914 19.7012 36.9437 19.7065 36.8962 19.7036C36.7108 19.7037 36.5313 19.6379 36.3898 19.5179C36.2484 19.398 36.1541 19.2316 36.1239 19.0486C35.7695 16.9185 34.6269 14.9996 32.9229 13.6732C31.219 12.3467 29.0784 11.7098 26.9264 11.8889C24.7745 12.068 22.7686 13.05 21.3074 14.6399C19.8461 16.2297 19.0364 18.3111 19.039 20.4705V20.5487C19.039 20.6638 19.0137 20.7774 18.9648 20.8816C18.9159 20.9857 18.8446 21.0778 18.7561 21.1512C18.6676 21.2247 18.5639 21.2777 18.4525 21.3065C18.3411 21.3353 18.2248 21.3393 18.1117 21.318C17.9016 21.2767 17.6881 21.255 17.474 21.253C16.6438 21.253 15.8477 21.5828 15.2606 22.1698C14.6736 22.7568 14.3439 23.553 14.3439 24.3831C14.3439 25.2133 14.6736 26.0094 15.2606 26.5964C15.8477 27.1834 16.6438 27.5132 17.474 27.5132H28.4293C28.6369 27.5132 28.8359 27.5957 28.9827 27.7424C29.1294 27.8892 29.2118 28.0882 29.2118 28.2958C29.2118 28.5033 29.1294 28.7023 28.9827 28.8491C28.8359 28.9958 28.6369 29.0783 28.4293 29.0783H17.474C16.2287 29.0783 15.0345 28.5836 14.154 27.7031C13.2735 26.8226 12.7788 25.6284 12.7788 24.3831C12.7788 23.1379 13.2735 21.9437 14.154 21.0631C15.0345 20.1826 16.2287 19.688 17.474 19.688H17.5037C17.6884 17.2671 18.7334 14.9922 20.4497 13.2749C22.166 11.5576 24.4401 10.5111 26.8609 10.3249C29.2817 10.1386 31.6892 10.8249 33.6479 12.2595C35.6067 13.694 36.9874 15.7823 37.5403 18.1464C38.9428 18.2767 40.2413 18.9422 41.1659 20.0048C42.0906 21.0674 42.5703 22.4454 42.5056 23.8525C42.4408 25.2595 41.8365 26.5876 40.8181 27.5608C39.7998 28.5339 38.4457 29.0774 37.0371 29.0783Z" fill="white"/>
</svg>
