<svg width="65" height="64" viewBox="0 0 65 64" fill="none" xmlns="http://www.w3.org/2000/svg">
<g clip-path="url(#clip0_1016_41898)">
<path d="M16.7038 19.7689C16.7038 19.5167 16.8055 19.2747 16.9864 19.0963C17.1673 18.918 17.4127 18.8178 17.6685 18.8178C17.9244 18.8178 18.1697 18.918 18.3506 19.0963C18.5316 19.2747 18.6332 19.5167 18.6332 19.7689C18.6332 20.0212 18.5316 20.2631 18.3506 20.4415C18.1697 20.6199 17.9244 20.7201 17.6685 20.7201C17.4127 20.7201 17.1673 20.6199 16.9864 20.4415C16.8055 20.2631 16.7038 20.0212 16.7038 19.7689ZM5.1951 28.3813C5.1951 28.129 5.29673 27.8871 5.47764 27.7087C5.65856 27.5303 5.90392 27.4301 6.15977 27.4301C6.41562 27.4301 6.66099 27.5303 6.8419 27.7087C7.02282 27.8871 7.12445 28.129 7.12445 28.3813C7.12445 28.6336 7.02282 28.8755 6.8419 29.0539C6.66099 29.2323 6.41562 29.3325 6.15977 29.3325C5.90392 29.3325 5.65856 29.2323 5.47764 29.0539C5.29673 28.8755 5.1951 28.6336 5.1951 28.3813ZM28.2058 28.4256C28.2058 28.1733 28.3074 27.9314 28.4883 27.753C28.6692 27.5746 28.9146 27.4744 29.1704 27.4744C29.4263 27.4744 29.6717 27.5746 29.8526 27.753C30.0335 27.9314 30.1351 28.1733 30.1351 28.4256C30.1351 28.6779 30.0335 28.9198 29.8526 29.0982C29.6717 29.2766 29.4263 29.3768 29.1704 29.3768C28.9146 29.3768 28.6692 29.2766 28.4883 29.0982C28.3074 28.9198 28.2058 28.6779 28.2058 28.4256ZM7.98769 29.7359C8.43157 29.5345 8.6324 29.0284 8.43497 28.5901L8.00812 27.6281H9.69171V35.1094H6.29593C5.87669 33.6576 5.74608 32.1395 5.91129 30.6388L7.98769 29.7359ZM15.0291 29.9198V27.7087H19.0369C19.2439 27.7087 20.4986 27.945 20.4986 28.87C20.4986 29.6379 19.5359 29.9138 18.7448 29.9138L15.0291 29.9198ZM9.55555 41.7925C9.55555 41.6676 9.5805 41.5439 9.62898 41.4285C9.67746 41.3131 9.74852 41.2083 9.8381 41.1199C9.92768 41.0316 10.034 40.9616 10.1511 40.9138C10.2681 40.866 10.3935 40.8414 10.5202 40.8414C10.6469 40.8414 10.7724 40.866 10.8894 40.9138C11.0064 40.9616 11.1128 41.0316 11.2024 41.1199C11.2919 41.2083 11.363 41.3131 11.4115 41.4285C11.46 41.5439 11.4849 41.6676 11.4849 41.7925C11.4849 42.0448 11.3833 42.2867 11.2024 42.4651C11.0214 42.6435 10.7761 42.7437 10.5202 42.7437C10.2644 42.7437 10.019 42.6435 9.8381 42.4651C9.65719 42.2867 9.55555 42.0448 9.55555 41.7925ZM23.8494 41.8368C23.8494 41.5846 23.951 41.3426 24.1319 41.1643C24.3129 40.9859 24.5582 40.8857 24.8141 40.8857C25.0699 40.8857 25.3153 40.9859 25.4962 41.1643C25.6771 41.3426 25.7788 41.5846 25.7788 41.8368C25.7788 42.0891 25.6771 42.3311 25.4962 42.5094C25.3153 42.6878 25.0699 42.788 24.8141 42.788C24.5582 42.788 24.3129 42.6878 24.1319 42.5094C23.951 42.3311 23.8494 42.0891 23.8494 41.8368ZM24.1476 39.6801C24.0346 39.656 23.9178 39.6542 23.8041 39.6748C23.6904 39.6953 23.5819 39.7378 23.4849 39.7998C23.3879 39.8618 23.3042 39.9421 23.2387 40.036C23.1732 40.13 23.1272 40.2358 23.1033 40.3473L22.6267 42.5759C21.0696 43.2714 19.3785 43.6272 17.6691 43.6191C15.9597 43.611 14.2722 43.2391 12.7219 42.5289L12.2453 40.3003C12.2213 40.1888 12.1753 40.0831 12.1097 39.9893C12.0442 39.8954 11.9605 39.8152 11.8635 39.7533C11.7665 39.6913 11.658 39.6489 11.5444 39.6284C11.4307 39.6079 11.314 39.6097 11.201 39.6337L9.20631 40.0566C8.83566 39.6802 8.49109 39.2797 8.17491 38.8578H17.8816C17.9905 38.8578 18.0654 38.8376 18.0654 38.7396V35.3544C18.0654 35.2557 17.9919 35.2363 17.8816 35.2363H15.0427V33.0902H18.1063C18.3867 33.0902 19.604 33.1694 19.9941 34.7046L20.5673 37.2051C20.7498 37.7569 21.4932 38.8584 22.2849 38.8584H27.2969C26.9608 39.302 26.5931 39.7214 26.1968 40.1137L24.1476 39.6801ZM29.5374 30.7408C29.6056 31.4166 29.614 32.0969 29.5626 32.7741H28.3372C28.2146 32.7741 28.167 32.8533 28.167 32.9707V33.5225C28.167 34.8214 27.4181 35.104 26.7734 35.1759C26.1607 35.245 25.4663 34.9208 25.3819 34.5462C25.0163 32.519 24.407 32.0853 23.445 31.3376C24.6391 30.5898 25.8822 29.4869 25.8822 28.0108C25.8822 26.4165 24.7739 25.413 24.0182 24.9202C22.9582 24.2315 21.7852 24.0932 21.468 24.0932H8.87136C10.6136 22.1734 12.9493 20.8737 15.5165 20.3952L17.002 21.9391C17.0817 22.0216 17.1771 22.0877 17.2827 22.1338C17.3884 22.1799 17.5022 22.2049 17.6176 22.2075C17.7331 22.2101 17.848 22.1903 17.9557 22.1491C18.0633 22.1078 18.1617 22.0461 18.2451 21.9673L19.9076 20.3999C21.602 20.7128 23.2071 21.3856 24.6112 22.3716C26.0154 23.3576 27.1851 24.6332 28.039 26.1097L26.9021 28.6438C26.6978 29.0821 26.9061 29.5956 27.3493 29.7896L29.5374 30.7408ZM32.3763 30.7811L32.3375 30.3891L33.5098 29.311C33.5633 29.255 33.6025 29.1871 33.6241 29.1131C33.6457 29.0391 33.649 28.9611 33.6338 28.8856C33.6186 28.8101 33.5854 28.7392 33.5368 28.679C33.4882 28.6187 33.4257 28.5707 33.3546 28.539L31.8568 27.9866L31.7397 27.6053L32.6745 26.3252C32.716 26.2599 32.741 26.1857 32.7475 26.1089C32.7541 26.0321 32.7419 25.9549 32.7119 25.8836C32.682 25.8124 32.6353 25.7493 32.5756 25.6995C32.5159 25.6498 32.445 25.6148 32.3688 25.5976L30.7894 25.3438L30.5987 24.9948L31.2625 23.5582C31.3987 23.2656 31.1468 22.8917 30.82 22.9038L29.2167 22.9588L28.9635 22.6567L29.3311 21.1168C29.3441 21.0409 29.3385 20.9629 29.3148 20.8895C29.291 20.8161 29.2498 20.7493 29.1946 20.6948C29.1394 20.6403 29.0717 20.5996 28.9973 20.5761C28.9229 20.5526 28.8438 20.547 28.7667 20.5597L27.205 20.9222L26.8973 20.6725L26.9538 19.0916C26.9515 19.0146 26.9306 18.9393 26.8927 18.8719C26.8549 18.8045 26.8013 18.7469 26.7363 18.7041C26.6714 18.6613 26.597 18.6344 26.5193 18.6257C26.4417 18.6169 26.3631 18.6266 26.29 18.654L24.8331 19.3091L24.4791 19.1212L24.2218 17.5638C24.2043 17.4888 24.1688 17.419 24.1184 17.3602C24.0679 17.3014 24.004 17.2554 23.9319 17.2259C23.8597 17.1964 23.7815 17.1843 23.7037 17.1907C23.6259 17.1971 23.5507 17.2216 23.4845 17.2624L22.191 18.1767L21.805 18.0612L21.2447 16.5844C21.2127 16.5142 21.1641 16.4526 21.103 16.4046C21.0418 16.3566 20.97 16.3238 20.8934 16.3087C20.8168 16.2937 20.7377 16.2969 20.6626 16.3181C20.5875 16.3394 20.5187 16.378 20.4618 16.4307L19.361 17.586L18.9634 17.5477L18.1192 16.2025C18.0739 16.1399 18.014 16.0888 17.9446 16.0536C17.8752 16.0184 17.7983 16 17.7203 16C17.6422 16 17.5653 16.0184 17.4959 16.0536C17.4265 16.0888 17.3667 16.1399 17.3213 16.2025L16.4771 17.5477L16.0796 17.586L14.9862 16.4294C14.9293 16.3766 14.8605 16.338 14.7854 16.3168C14.7103 16.2956 14.6312 16.2923 14.5546 16.3074C14.478 16.3224 14.4061 16.3553 14.345 16.4033C14.2839 16.4512 14.2353 16.5129 14.2033 16.5831L13.643 18.0599L13.2563 18.1754L11.9628 17.2557C11.8966 17.2148 11.8214 17.1901 11.7435 17.1837C11.6656 17.1772 11.5872 17.1893 11.515 17.2188C11.4428 17.2483 11.3788 17.2944 11.3283 17.3532C11.2778 17.4121 11.2423 17.482 11.2248 17.5571L10.9675 19.1145L10.6135 19.3024L9.15661 18.6473C9.08355 18.6199 9.00493 18.6102 8.92729 18.619C8.84966 18.6277 8.77527 18.6546 8.71032 18.6974C8.64537 18.7402 8.59174 18.7977 8.55391 18.8651C8.51608 18.9326 8.49514 19.0079 8.49284 19.0849L8.54866 20.6658L8.24095 20.9155L6.67922 20.553C6.60209 20.5401 6.52296 20.5456 6.44844 20.5691C6.37392 20.5925 6.30617 20.6332 6.25086 20.6878C6.19555 20.7423 6.15428 20.8091 6.1305 20.8826C6.10672 20.9561 6.10111 21.0341 6.11416 21.1101L6.48179 22.65L6.2299 22.9521L4.62664 22.897C4.30326 22.8876 4.04797 23.2595 4.18276 23.5515L4.84721 24.988L4.65659 25.3371L3.07716 25.5908C2.75719 25.6425 2.58223 26.058 2.77081 26.3185L3.70553 27.5986L3.58843 27.9799L2.0907 28.5323C2.01952 28.564 1.95705 28.612 1.90848 28.6722C1.85991 28.7325 1.82664 28.8034 1.81146 28.8789C1.79627 28.9544 1.79961 29.0324 1.82118 29.1064C1.84275 29.1804 1.88194 29.2482 1.93548 29.3043L3.1078 30.3823L3.06899 30.7744L1.70537 31.6067C1.64185 31.6514 1.59008 31.7105 1.55436 31.7789C1.51864 31.8473 1.5 31.9231 1.5 32.0001C1.5 32.077 1.51864 32.1529 1.55436 32.2213C1.59008 32.2897 1.64185 32.3487 1.70537 32.3935L3.06899 33.2258L3.1078 33.6178L1.93548 34.6959C1.88194 34.7519 1.84275 34.8198 1.82118 34.8938C1.79961 34.9678 1.79627 35.0458 1.81146 35.1213C1.82664 35.1968 1.85991 35.2677 1.90848 35.3279C1.95705 35.3882 2.01952 35.4362 2.0907 35.4679L3.58843 36.0203L3.70553 36.4016L2.77081 37.6817C2.72944 37.747 2.7045 37.8211 2.69806 37.8978C2.69162 37.9746 2.70386 38.0517 2.73376 38.1228C2.76366 38.1939 2.81037 38.257 2.86998 38.3067C2.92959 38.3564 3.00039 38.3914 3.07648 38.4087L4.65591 38.6624L4.84653 39.0128L4.18208 40.4493C4.15437 40.5214 4.14453 40.5989 4.15338 40.6754C4.16223 40.752 4.18951 40.8253 4.23294 40.8894C4.27637 40.9534 4.3347 41.0063 4.40307 41.0436C4.47144 41.0809 4.54785 41.1016 4.62596 41.1038L6.22853 41.0481L6.48179 41.3515L6.11416 42.8921C6.10136 42.968 6.10715 43.0459 6.13104 43.1192C6.15493 43.1925 6.19624 43.2591 6.25152 43.3135C6.30679 43.3678 6.37445 43.4084 6.44884 43.4318C6.52324 43.4552 6.60222 43.4607 6.67922 43.4479L8.24095 43.0854L8.54866 43.3338L8.49284 44.9153C8.49525 44.9922 8.51626 45.0675 8.55414 45.1348C8.59201 45.2021 8.64565 45.2596 8.71059 45.3023C8.77552 45.3451 8.84988 45.3719 8.92746 45.3806C9.00504 45.3893 9.0836 45.3796 9.15661 45.3523L10.6135 44.6978L10.9675 44.8857L11.2248 46.4431C11.2423 46.5183 11.2777 46.5882 11.3281 46.6472C11.3785 46.7061 11.4425 46.7523 11.5148 46.7819C11.587 46.8114 11.6654 46.8235 11.7433 46.8171C11.8213 46.8108 11.8965 46.7861 11.9628 46.7451L13.2611 45.8228L13.6478 45.939L14.2081 47.4157C14.2402 47.4859 14.2888 47.5475 14.35 47.5954C14.4111 47.6433 14.4829 47.6761 14.5595 47.6911C14.6361 47.7061 14.7152 47.7028 14.7903 47.6815C14.8653 47.6602 14.9341 47.6216 14.991 47.5688L16.0843 46.4129L16.4819 46.4518L17.3261 47.7964C17.4963 48.0675 17.9524 48.0682 18.124 47.7964L18.9688 46.4505L19.3664 46.4115L20.4597 47.5674C20.5166 47.6202 20.5854 47.6589 20.6604 47.6802C20.7355 47.7014 20.8146 47.7047 20.8912 47.6897C20.9678 47.6748 21.0396 47.642 21.1008 47.5941C21.1619 47.5462 21.2105 47.4846 21.2427 47.4144L21.8029 45.9376L22.1896 45.8215L23.4879 46.7438C23.5542 46.7846 23.6294 46.8092 23.7072 46.8155C23.7851 46.8218 23.8633 46.8097 23.9355 46.7801C24.0076 46.7505 24.0716 46.7044 24.122 46.6456C24.1723 46.5867 24.2077 46.5168 24.2252 46.4417L24.4825 44.8844L24.8365 44.6964L26.2934 45.3509C26.3664 45.3782 26.445 45.3879 26.5226 45.3793C26.6002 45.3706 26.6745 45.3437 26.7395 45.301C26.8044 45.2582 26.858 45.2008 26.8959 45.1335C26.9338 45.0662 26.9548 44.9909 26.9572 44.9139L26.9014 43.3324L27.2091 43.0841L28.7708 43.4465C28.8478 43.4592 28.9267 43.4536 29.001 43.4302C29.0753 43.4067 29.1428 43.3662 29.198 43.3118C29.2532 43.2574 29.2945 43.1909 29.3183 43.1176C29.3422 43.0444 29.348 42.9666 29.3352 42.8907L28.9676 41.3502L29.2195 41.0468L30.8227 41.1025C30.9008 41.1001 30.9771 41.0794 31.0454 41.042C31.1137 41.0047 31.1719 40.9518 31.2153 40.8878C31.2586 40.8237 31.2858 40.7504 31.2946 40.6739C31.3035 40.5974 31.2936 40.52 31.2659 40.448L30.6021 39.0115L30.7928 38.6611L32.3722 38.4073C32.4483 38.3901 32.5191 38.3551 32.5787 38.3054C32.6383 38.2556 32.685 38.1926 32.7149 38.1215C32.7448 38.0504 32.7571 37.9732 32.7506 37.8965C32.7442 37.8198 32.7192 37.7457 32.6779 37.6804L31.7431 36.4002L31.8602 36.019L33.358 35.4665C33.4292 35.4349 33.4916 35.3869 33.5402 35.3266C33.5888 35.2663 33.622 35.1955 33.6372 35.12C33.6524 35.0444 33.6491 34.9664 33.6275 34.8924C33.6059 34.8184 33.5667 34.7506 33.5132 34.6946L32.3409 33.6165L32.3797 33.2245L33.7433 32.3921C33.8068 32.3474 33.8586 32.2884 33.8943 32.22C33.93 32.1515 33.9487 32.0757 33.9487 31.9988C33.9487 31.9218 33.93 31.846 33.8943 31.7775C33.8586 31.7091 33.8068 31.6501 33.7433 31.6054L32.3763 30.7811ZM35.8429 33.3789V27.7805H38.8383V28.6975C38.8383 29.1897 38.8356 29.8145 38.8302 30.5716C38.8247 31.319 38.822 31.818 38.822 32.0686C38.822 32.8052 38.8413 33.3373 38.8799 33.6648C38.9184 33.987 38.9849 34.222 39.0793 34.3697C39.201 34.5608 39.3587 34.708 39.5525 34.8114C39.7522 34.9152 39.9791 34.9671 40.2333 34.9671C40.8532 34.9671 41.3402 34.7322 41.6942 34.2623C42.0483 33.7924 42.2253 33.1404 42.2253 32.3062V27.7798H45.1969V36.9473H42.2178V35.6216C41.7694 36.1564 41.2935 36.552 40.7902 36.8084C40.2923 37.059 39.7415 37.1843 39.1379 37.1843C38.064 37.1843 37.2471 36.8598 36.687 36.211C36.1279 35.5621 35.8483 34.6178 35.8483 33.3782L35.8429 33.3789ZM55.3257 28.0665V30.2931C54.6894 30.0313 54.0751 29.8348 53.4828 29.7037C52.8905 29.5726 52.3316 29.507 51.806 29.507C51.2414 29.507 50.8209 29.5779 50.5445 29.7198C50.2735 29.8563 50.1381 30.0689 50.1381 30.3575C50.1381 30.592 50.2402 30.7721 50.4444 30.8979C50.6546 31.0232 51.0281 31.116 51.565 31.1765L52.0878 31.2436C53.6096 31.4347 54.6336 31.7484 55.1596 32.1847C55.6851 32.621 55.9479 33.3057 55.9479 34.2388C55.9479 35.2157 55.5848 35.9496 54.8587 36.4405C54.1325 36.9314 53.0423 37.1769 51.5882 37.1769C50.9736 37.1769 50.3371 37.1277 49.6785 37.0292C49.025 36.9366 48.3526 36.7947 47.6614 36.6036V34.3771C48.2536 34.6608 48.8595 34.8733 49.4791 35.0148C50.1045 35.1566 50.7381 35.2275 51.3798 35.2275C51.9608 35.2275 52.3981 35.1483 52.6917 34.9899C52.9849 34.8315 53.1315 34.5966 53.1315 34.2851C53.1315 34.0233 53.0294 33.8295 52.8251 33.7038C52.6255 33.5727 52.2242 33.472 51.6215 33.4017L51.0987 33.3359C49.7761 33.1721 48.8491 32.8692 48.3176 32.427C47.7866 31.9849 47.5211 31.3136 47.5211 30.4132C47.5211 29.4421 47.8588 28.7216 48.5341 28.2517C49.2095 27.7819 50.2443 27.5469 51.6385 27.5469C52.1863 27.5469 52.7618 27.5879 53.365 27.6698C53.9686 27.7516 54.6267 27.8799 55.3393 28.0544L55.3257 28.0665ZM61.4364 25.1767V27.7798H64.5V29.8755H61.4364V33.7635C61.4364 34.1886 61.5222 34.478 61.6938 34.6315C61.8653 34.7791 62.2057 34.853 62.715 34.853H64.2427V36.9487H61.6945C60.5212 36.9487 59.6884 36.7086 59.196 36.2284C58.709 35.7429 58.4655 34.9217 58.4655 33.7649V29.8702H56.9882V27.7745H58.4655V25.1713H61.4371L61.4364 25.1767Z" fill="black"/>
</g>
<defs>
<clipPath id="clip0_1016_41898">
<rect width="64" height="64" fill="white" transform="translate(0.5)"/>
</clipPath>
</defs>
</svg>
