<svg width="77" height="40" viewBox="0 0 77 40" fill="none" xmlns="http://www.w3.org/2000/svg">
<path d="M18.7064 4.75612C18.7064 4.4483 18.8289 4.15308 19.0471 3.93542C19.2653 3.71776 19.5613 3.59548 19.8698 3.59548C20.1784 3.59548 20.4743 3.71776 20.6925 3.93542C20.9107 4.15308 21.0333 4.4483 21.0333 4.75612C21.0333 5.06394 20.9107 5.35916 20.6925 5.57682C20.4743 5.79448 20.1784 5.91676 19.8698 5.91676C19.5613 5.91676 19.2653 5.79448 19.0471 5.57682C18.8289 5.35916 18.7064 5.06394 18.7064 4.75612ZM4.82595 15.265C4.82595 14.9572 4.94853 14.662 5.16672 14.4443C5.38492 14.2266 5.68085 14.1043 5.98942 14.1043C6.29799 14.1043 6.59393 14.2266 6.81212 14.4443C7.03032 14.662 7.1529 14.9572 7.1529 15.265C7.1529 15.5728 7.03032 15.868 6.81212 16.0857C6.59393 16.3034 6.29799 16.4256 5.98942 16.4256C5.68085 16.4256 5.38492 16.3034 5.16672 16.0857C4.94853 15.868 4.82595 15.5728 4.82595 15.265ZM32.5785 15.3191C32.5785 15.0112 32.7011 14.716 32.9193 14.4984C33.1375 14.2807 33.4334 14.1584 33.742 14.1584C34.0506 14.1584 34.3465 14.2807 34.5647 14.4984C34.7829 14.716 34.9055 15.0112 34.9055 15.3191C34.9055 15.6269 34.7829 15.9221 34.5647 16.1398C34.3465 16.3574 34.0506 16.4797 33.742 16.4797C33.4334 16.4797 33.1375 16.3574 32.9193 16.1398C32.7011 15.9221 32.5785 15.6269 32.5785 15.3191ZM8.19403 16.9179C8.72937 16.6722 8.9716 16.0546 8.73348 15.5197L8.21866 14.346H10.2492V23.4747H6.15364C5.64801 21.7031 5.49048 19.8508 5.68973 18.0196L8.19403 16.9179ZM16.6865 17.1423V14.4443H21.5202C21.7698 14.4443 23.2831 14.7326 23.2831 15.8613C23.2831 16.7983 22.1221 17.135 21.168 17.135L16.6865 17.1423ZM10.085 31.6295C10.085 31.4771 10.1151 31.3262 10.1735 31.1854C10.232 31.0445 10.3177 30.9166 10.4258 30.8088C10.5338 30.701 10.6621 30.6155 10.8032 30.5572C10.9444 30.4989 11.0957 30.4689 11.2485 30.4689C11.4012 30.4689 11.5525 30.4989 11.6937 30.5572C11.8349 30.6155 11.9631 30.701 12.0712 30.8088C12.1792 30.9166 12.2649 31.0445 12.3234 31.1854C12.3818 31.3262 12.4119 31.4771 12.4119 31.6295C12.4119 31.9373 12.2894 32.2326 12.0712 32.4502C11.853 32.6679 11.557 32.7902 11.2485 32.7902C10.9399 32.7902 10.644 32.6679 10.4258 32.4502C10.2076 32.2326 10.085 31.9373 10.085 31.6295ZM27.3244 31.6836C27.3244 31.3757 27.447 31.0805 27.6652 30.8629C27.8834 30.6452 28.1793 30.5229 28.4879 30.5229C28.7965 30.5229 29.0924 30.6452 29.3106 30.8629C29.5288 31.0805 29.6514 31.3757 29.6514 31.6836C29.6514 31.9914 29.5288 32.2866 29.3106 32.5043C29.0924 32.7219 28.7965 32.8442 28.4879 32.8442C28.1793 32.8442 27.8834 32.7219 27.6652 32.5043C27.447 32.2866 27.3244 31.9914 27.3244 31.6836ZM27.6841 29.0518C27.5478 29.0225 27.407 29.0203 27.2698 29.0454C27.1327 29.0705 27.0018 29.1223 26.8848 29.198C26.7678 29.2736 26.6669 29.3716 26.5879 29.4862C26.5089 29.6009 26.4534 29.7299 26.4245 29.866L25.8498 32.5854C23.9717 33.434 21.9322 33.8682 19.8705 33.8583C17.8088 33.8484 15.7736 33.3946 13.9038 32.5281L13.3291 29.8087C13.3001 29.6727 13.2445 29.5437 13.1655 29.4291C13.0865 29.3146 12.9856 29.2167 12.8686 29.1412C12.7516 29.0656 12.6207 29.0138 12.4836 28.9888C12.3465 28.9638 12.2058 28.966 12.0695 28.9953L9.66377 29.5114C9.21674 29.0521 8.80116 28.5633 8.41983 28.0485H20.1268C20.2582 28.0485 20.3485 28.0239 20.3485 27.9043V23.7737C20.3485 23.6533 20.2598 23.6295 20.1268 23.6295H16.7029V21.0109H20.3978C20.7361 21.0109 22.2042 21.1075 22.6746 22.9808L23.366 26.0319C23.5861 26.7052 24.4827 28.0493 25.4376 28.0493H31.4824C31.077 28.5905 30.6336 29.1024 30.1555 29.581L27.6841 29.0518ZM34.1846 18.1441C34.2668 18.9686 34.277 19.7988 34.215 20.6251H32.737C32.5892 20.6251 32.5317 20.7217 32.5317 20.8651V21.5384C32.5317 23.1233 31.6286 23.4681 30.851 23.5558C30.112 23.6401 29.2745 23.2445 29.1727 22.7875C28.7318 20.3138 27.9969 19.7847 26.8367 18.8722C28.2769 17.9598 29.7762 16.614 29.7762 14.8129C29.7762 12.8675 28.4395 11.643 27.5281 11.0418C26.2496 10.2014 24.8349 10.0327 24.4523 10.0327H9.25979C11.3611 7.69011 14.178 6.10411 17.2744 5.52033L19.066 7.40422C19.1621 7.50484 19.2771 7.58555 19.4045 7.64174C19.5319 7.69794 19.6692 7.72851 19.8085 7.7317C19.9478 7.7349 20.0863 7.71066 20.2161 7.66036C20.346 7.61007 20.4647 7.53472 20.5653 7.43863L22.5704 5.52606C24.6139 5.90782 26.5497 6.72877 28.2433 7.9319C29.9368 9.13503 31.3475 10.6915 32.3774 12.4932L31.0062 15.5853C30.7598 16.1201 31.0111 16.7467 31.5456 16.9834L34.1846 18.1441ZM37.6085 18.1932L37.5617 17.7149L38.9756 16.3994C39.0402 16.331 39.0874 16.2483 39.1135 16.158C39.1395 16.0677 39.1435 15.9725 39.1252 15.8804C39.1069 15.7882 39.0667 15.7018 39.0082 15.6282C38.9496 15.5546 38.8742 15.4961 38.7884 15.4575L36.982 14.7834L36.8408 14.3181L37.9681 12.7561C38.0182 12.6764 38.0484 12.5859 38.0563 12.4922C38.0641 12.3985 38.0494 12.3042 38.0133 12.2173C37.9773 12.1304 37.9209 12.0534 37.8489 11.9927C37.7769 11.932 37.6914 11.8893 37.5995 11.8682L35.6946 11.5586L35.4647 11.1327L36.2652 9.37986C36.4294 9.02274 36.1256 8.56651 35.7315 8.58125L33.7979 8.64842L33.4924 8.27983L33.9358 6.40084C33.9515 6.30813 33.9447 6.21301 33.9161 6.12343C33.8875 6.03385 33.8378 5.9524 33.7712 5.88587C33.7045 5.81934 33.623 5.76966 33.5332 5.74099C33.4434 5.71231 33.3481 5.70546 33.2551 5.721L31.3716 6.16331L31.0004 5.85861L31.0686 3.92966C31.0658 3.8357 31.0405 3.74375 30.9949 3.6615C30.9493 3.57925 30.8846 3.50906 30.8063 3.45681C30.7279 3.40455 30.6382 3.37173 30.5446 3.36109C30.451 3.35044 30.3561 3.36228 30.268 3.39562L28.5109 4.19505L28.0839 3.9657L27.7736 2.06542C27.7524 1.97388 27.7097 1.8887 27.6488 1.81697C27.588 1.74525 27.5109 1.68906 27.4239 1.65308C27.3369 1.6171 27.2426 1.60238 27.1487 1.61013C27.0549 1.61788 26.9642 1.64789 26.8843 1.69765L25.3243 2.81325L24.8587 2.67237L24.183 0.870376C24.1443 0.784681 24.0857 0.709437 24.012 0.650915C23.9383 0.592392 23.8517 0.552285 23.7593 0.533933C23.6669 0.515582 23.5715 0.519518 23.4809 0.545413C23.3904 0.571309 23.3073 0.618414 23.2387 0.682805L21.911 2.09245L21.4315 2.04576L20.4134 0.404316C20.3587 0.327894 20.2865 0.265603 20.2028 0.222625C20.1191 0.179648 20.0264 0.157227 19.9322 0.157227C19.8381 0.157227 19.7453 0.179648 19.6616 0.222625C19.578 0.265603 19.5058 0.327894 19.4511 0.404316L18.4329 2.04576L17.9534 2.09245L16.6348 0.681167C16.5662 0.616776 16.4831 0.569671 16.3926 0.543775C16.302 0.517879 16.2066 0.513944 16.1142 0.532295C16.0218 0.550647 15.9352 0.590754 15.8615 0.649276C15.7878 0.707799 15.7292 0.783042 15.6905 0.868738L15.0148 2.67073L14.5484 2.81161L12.9883 1.68946C12.9084 1.63953 12.8177 1.60938 12.7238 1.60153C12.6298 1.59369 12.5353 1.60838 12.4482 1.64437C12.3611 1.68036 12.2839 1.73662 12.223 1.80844C12.1622 1.88026 12.1194 1.96556 12.0983 2.05723L11.7879 3.95751L11.3609 4.18686L9.60383 3.38743C9.51572 3.35409 9.42089 3.34225 9.32726 3.3529C9.23363 3.36354 9.14391 3.39636 9.06557 3.44862C8.98724 3.50087 8.92256 3.57105 8.87693 3.65331C8.8313 3.73556 8.80605 3.8275 8.80327 3.92147L8.8706 5.85042L8.49947 6.15512L6.61591 5.71281C6.52289 5.69712 6.42745 5.70386 6.33758 5.73247C6.2477 5.76108 6.16599 5.81074 6.09928 5.87728C6.03257 5.94383 5.9828 6.02534 5.95411 6.115C5.92543 6.20466 5.91868 6.29986 5.93441 6.39265L6.37779 8.27164L6.07399 8.64023L4.14034 8.57306C3.75033 8.56159 3.44242 9.01537 3.605 9.37167L4.40637 11.1245L4.17647 11.5504L2.27156 11.8601C1.88565 11.9231 1.67463 12.4301 1.90207 12.7479L3.02942 14.3099L2.88819 14.7752L1.08181 15.4493C0.995968 15.4879 0.92062 15.5465 0.862039 15.62C0.803459 15.6936 0.763342 15.78 0.745027 15.8722C0.726713 15.9643 0.730731 16.0595 0.756749 16.1498C0.782766 16.2401 0.83003 16.3229 0.894603 16.3912L2.30851 17.7067L2.26171 18.185L0.617077 19.2007C0.540468 19.2553 0.478025 19.3273 0.434943 19.4108C0.391861 19.4942 0.369385 19.5868 0.369385 19.6807C0.369385 19.7746 0.391861 19.8671 0.434943 19.9506C0.478025 20.0341 0.540468 20.1061 0.617077 20.1607L2.26171 21.1763L2.30851 21.6547L0.894603 22.9701C0.83003 23.0385 0.782766 23.1213 0.756749 23.2116C0.730731 23.3019 0.726713 23.3971 0.745027 23.4892C0.763342 23.5814 0.803459 23.6678 0.862039 23.7414C0.92062 23.8149 0.995968 23.8735 1.08181 23.9121L2.88819 24.5862L3.02942 25.0514L1.90207 26.6134C1.85219 26.6931 1.82211 26.7835 1.81434 26.8772C1.80656 26.9708 1.82133 27.0649 1.85739 27.1517C1.89346 27.2385 1.94979 27.3154 2.02168 27.3761C2.09358 27.4367 2.17897 27.4794 2.27074 27.5005L4.17565 27.8101L4.40555 28.2377L3.60418 29.9905C3.57076 30.0784 3.55889 30.173 3.56956 30.2664C3.58023 30.3598 3.61313 30.4493 3.66551 30.5275C3.7179 30.6056 3.78825 30.6701 3.87071 30.7157C3.95316 30.7612 4.04533 30.7864 4.13952 30.7891L6.07235 30.7211L6.37779 31.0914L5.93441 32.9712C5.91897 33.0639 5.92595 33.1589 5.95477 33.2483C5.98358 33.3377 6.0334 33.419 6.10007 33.4854C6.16674 33.5517 6.24833 33.6012 6.33806 33.6297C6.42779 33.6583 6.52305 33.665 6.61591 33.6494L8.49947 33.2071L8.8706 33.5101L8.80327 35.4399C8.80618 35.5338 8.83152 35.6256 8.87721 35.7078C8.92289 35.7899 8.98758 35.86 9.0659 35.9122C9.14421 35.9643 9.23389 35.9971 9.32746 36.0077C9.42103 36.0183 9.51578 36.0064 9.60383 35.9731L11.3609 35.1745L11.7879 35.4039L12.0983 37.3041C12.1193 37.3959 12.162 37.4813 12.2228 37.5532C12.2836 37.6251 12.3608 37.6815 12.448 37.7175C12.5351 37.7536 12.6296 37.7684 12.7236 37.7606C12.8176 37.7528 12.9084 37.7227 12.9883 37.6727L14.5541 36.5473L15.0205 36.689L15.6963 38.491C15.735 38.5766 15.7937 38.6518 15.8674 38.7102C15.9411 38.7687 16.0278 38.8087 16.1202 38.827C16.2125 38.8452 16.308 38.8412 16.3985 38.8153C16.489 38.7893 16.572 38.7422 16.6405 38.6777L17.9592 37.2673L18.4387 37.3148L19.4568 38.9554C19.6621 39.2863 20.2122 39.2872 20.4191 38.9554L21.4381 37.3131L21.9176 37.2656L23.2363 38.6761C23.3048 38.7405 23.3878 38.7877 23.4783 38.8136C23.5688 38.8396 23.6642 38.8436 23.7566 38.8253C23.849 38.807 23.9356 38.767 24.0094 38.7086C24.0831 38.6502 24.1418 38.575 24.1805 38.4894L24.8563 36.6874L25.3226 36.5457L26.8884 37.6711C26.9684 37.7209 27.0591 37.7508 27.153 37.7585C27.2469 37.7662 27.3413 37.7514 27.4283 37.7154C27.5153 37.6793 27.5924 37.623 27.6532 37.5512C27.7139 37.4794 27.7566 37.3941 27.7777 37.3025L28.088 35.4022L28.515 35.1729L30.2721 35.9715C30.3602 36.0048 30.4549 36.0167 30.5485 36.0061C30.6421 35.9954 30.7317 35.9627 30.8101 35.9105C30.8884 35.8584 30.9531 35.7883 30.9987 35.7062C31.0444 35.624 31.0698 35.5322 31.0727 35.4383L31.0054 33.5085L31.3765 33.2054L33.26 33.6477C33.3528 33.6632 33.448 33.6564 33.5376 33.6278C33.6272 33.5992 33.7087 33.5497 33.7753 33.4833C33.8419 33.417 33.8916 33.3358 33.9204 33.2464C33.9492 33.1571 33.9561 33.0621 33.9407 32.9695L33.4973 31.0897L33.8011 30.7195L35.7348 30.7875C35.8289 30.7846 35.921 30.7593 36.0033 30.7137C36.0857 30.6682 36.1559 30.6036 36.2082 30.5255C36.2605 30.4474 36.2933 30.3579 36.304 30.2646C36.3146 30.1712 36.3027 30.0767 36.2693 29.9889L35.4688 28.236L35.6987 27.8085L37.6036 27.4989C37.6953 27.4778 37.7807 27.4351 37.8526 27.3744C37.9245 27.3138 37.9809 27.2368 38.0169 27.15C38.053 27.0633 38.0677 26.9691 38.06 26.8755C38.0522 26.7819 38.0221 26.6915 37.9722 26.6118L36.8449 25.0498L36.9861 24.5846L38.7925 23.9104C38.8783 23.8718 38.9537 23.8133 39.0123 23.7397C39.0709 23.6662 39.111 23.5797 39.1293 23.4876C39.1476 23.3954 39.1436 23.3002 39.1176 23.2099C39.0915 23.1197 39.0443 23.0369 38.9797 22.9685L37.5658 21.653L37.6126 21.1747L39.2572 20.159C39.3338 20.1045 39.3963 20.0325 39.4394 19.949C39.4825 19.8655 39.5049 19.7729 39.5049 19.679C39.5049 19.5852 39.4825 19.4926 39.4394 19.4091C39.3963 19.3256 39.3338 19.2536 39.2572 19.1991L37.6085 18.1932ZM41.7895 21.3631V14.5319H45.4022V15.6508C45.4022 16.2514 45.3989 17.0137 45.3924 17.9377C45.3858 18.8496 45.3825 19.4584 45.3825 19.7642C45.3825 20.663 45.4058 21.3123 45.4523 21.712C45.4988 22.1052 45.579 22.3919 45.6929 22.5721C45.8396 22.8052 46.0298 22.9849 46.2635 23.111C46.5044 23.2377 46.7781 23.301 47.0846 23.301C47.8323 23.301 48.4197 23.0144 48.8467 22.441C49.2736 21.8676 49.4871 21.072 49.4871 20.0542V14.5311H53.0711V25.7173H49.4781V24.0997C48.9373 24.7522 48.3633 25.2349 47.7563 25.5478C47.1558 25.8536 46.4915 26.0065 45.7635 26.0065C44.4684 26.0065 43.4831 25.6106 42.8076 24.8188C42.1332 24.027 41.796 22.8748 41.796 21.3623L41.7895 21.3631ZM65.2872 14.8808V17.5978C64.5198 17.2783 63.7789 17.0386 63.0645 16.8786C62.3502 16.7186 61.6761 16.6386 61.0422 16.6386C60.3612 16.6386 59.8541 16.7252 59.5207 16.8983C59.1939 17.0648 59.0306 17.3242 59.0306 17.6764C59.0306 17.9625 59.1537 18.1823 59.4 18.3357C59.6535 18.4886 60.104 18.6019 60.7515 18.6757L61.3821 18.7576C63.2175 18.9907 64.4524 19.3735 65.0869 19.9059C65.7207 20.4383 66.0377 21.2738 66.0377 22.4123C66.0377 23.6044 65.5998 24.4999 64.7239 25.0989C63.8481 25.698 62.5333 25.9975 60.7795 25.9975C60.0383 25.9975 59.2706 25.9374 58.4763 25.8173C57.6881 25.7042 56.8771 25.5311 56.0434 25.298V22.5811C56.7578 22.9273 57.4886 23.1866 58.2357 23.3592C58.99 23.5323 59.7542 23.6189 60.5282 23.6189C61.2289 23.6189 61.7563 23.5222 62.1104 23.3289C62.4641 23.1356 62.6409 22.8489 62.6409 22.4689C62.6409 22.1494 62.5177 21.913 62.2714 21.7595C62.0305 21.5995 61.5466 21.4767 60.8197 21.3909L60.1891 21.3107C58.594 21.1108 57.476 20.7411 56.835 20.2016C56.1945 19.6621 55.8743 18.843 55.8743 17.7444C55.8743 16.5594 56.2816 15.6803 57.0961 15.1069C57.9106 14.5335 59.1586 14.2469 60.8402 14.2469C61.5009 14.2469 62.195 14.2968 62.9225 14.3968C63.6505 14.4967 64.4442 14.6531 65.3036 14.8661L65.2872 14.8808ZM72.6572 11.3547V14.5311H76.3521V17.0883H72.6572V21.8324C72.6572 22.3512 72.7607 22.7042 72.9676 22.8915C73.1745 23.0717 73.5851 23.1618 74.1992 23.1618H76.0417V25.719H72.9684C71.5534 25.719 70.549 25.426 69.9551 24.8401C69.3677 24.2476 69.074 23.2456 69.074 21.8341V17.0817H67.2923V14.5245H69.074V11.3481H72.6581L72.6572 11.3547Z" fill="#343434"/>
</svg>
