<svg width="115" height="40" viewBox="0 0 115 40" fill="none" xmlns="http://www.w3.org/2000/svg">
<g style="mix-blend-mode:luminosity">
<path d="M19.2045 21.8859C17.6852 21.8859 16.3232 22.559 15.3905 23.6187L13.0005 21.9268C13.2542 21.2282 13.3999 20.4782 13.3999 19.6931C13.3999 18.9217 13.2593 18.1842 13.0139 17.496L15.3986 15.822C16.3312 16.8763 17.6897 17.5457 19.2045 17.5457C22.0086 17.5457 24.2903 15.2644 24.2903 12.4599C24.2903 9.6554 22.0086 7.37408 19.2045 7.37408C16.4004 7.37408 14.1187 9.6554 14.1187 12.4599C14.1187 12.9619 14.1945 13.4459 14.3306 13.9044L11.9443 15.5792C10.9475 14.3426 9.51228 13.4792 7.87701 13.2156V10.3397C10.1808 9.8558 11.9166 7.80894 11.9166 5.36317C11.9166 2.55866 9.63486 0.277344 6.83073 0.277344C4.0266 0.277344 1.7449 2.55866 1.7449 5.36317C1.7449 7.77618 3.43574 9.79779 5.6934 10.3162V13.2295C2.61228 13.7703 0.261597 16.4593 0.261597 19.6931C0.261597 22.9427 2.63556 25.6415 5.73893 26.164V29.2402C3.45817 29.7415 1.7449 31.7755 1.7449 34.205C1.7449 37.0095 4.0266 39.2908 6.83073 39.2908C9.63486 39.2908 11.9166 37.0095 11.9166 34.205C11.9166 31.7755 10.2033 29.7415 7.92254 29.2402V26.1639C9.49331 25.8993 10.9144 25.0728 11.9211 23.8384L14.327 25.5413C14.1935 25.9956 14.1187 26.4749 14.1187 26.9718C14.1187 29.7763 16.4004 32.0576 19.2045 32.0576C22.0086 32.0576 24.2903 29.7763 24.2903 26.9718C24.2903 24.1672 22.0086 21.8859 19.2045 21.8859ZM19.2045 9.99405C20.5643 9.99405 21.6703 11.1005 21.6703 12.4599C21.6703 13.8193 20.5643 14.9257 19.2045 14.9257C17.8447 14.9257 16.7387 13.8193 16.7387 12.4599C16.7387 11.1005 17.8447 9.99405 19.2045 9.99405ZM4.36488 5.36317C4.36488 4.00377 5.47095 2.89741 6.83073 2.89741C8.19051 2.89741 9.29649 4.00377 9.29649 5.36317C9.29649 6.72258 8.19051 7.82893 6.83073 7.82893C5.47095 7.82893 4.36488 6.72258 4.36488 5.36317ZM9.29649 34.205C9.29649 35.5644 8.19051 36.6707 6.83073 36.6707C5.47095 36.6707 4.36488 35.5644 4.36488 34.205C4.36488 32.8456 5.47095 31.7392 6.83073 31.7392C8.19051 31.7392 9.29649 32.8456 9.29649 34.205ZM6.83054 23.132C4.93406 23.132 3.39124 21.5895 3.39124 19.6931C3.39124 17.7966 4.93406 16.2538 6.83054 16.2538C8.72694 16.2538 10.2697 17.7966 10.2697 19.6931C10.2697 21.5895 8.72694 23.132 6.83054 23.132ZM19.2045 29.4376C17.8447 29.4376 16.7387 28.3312 16.7387 26.9718C16.7387 25.6124 17.8447 24.506 19.2045 24.506C20.5643 24.506 21.6703 25.6124 21.6703 26.9718C21.6703 28.3312 20.5643 29.4376 19.2045 29.4376Z" fill="#343434"/>
<path fill-rule="evenodd" clip-rule="evenodd" d="M108.085 19.9824C108.02 19.8432 107.991 19.7732 107.955 19.7064C107.014 17.9152 106.075 16.124 105.123 14.3328C105.028 14.1532 105.04 14.0472 105.171 13.8923C106.669 12.1422 108.148 10.3825 109.649 8.63973C109.702 8.57824 109.749 8.51313 109.769 8.40348C109.333 8.517 108.897 8.62932 108.459 8.74478C106.651 9.22404 104.828 9.70089 103.037 10.1874C102.869 10.2327 102.793 10.1835 102.708 10.0436C101.682 8.32748 100.648 6.60648 99.6097 4.9121C99.5567 4.82327 99.4988 4.7371 99.3855 4.66279C99.3023 5.12027 99.218 5.57533 99.1362 6.03281C98.8482 7.64731 98.5601 9.25212 98.2745 10.8739C98.2433 11.0479 98.2007 11.2224 98.1857 11.3967C98.1714 11.5632 98.0855 11.6247 97.934 11.6727C95.8015 12.3431 93.6738 13.0185 91.5437 13.6938C91.4503 13.7231 91.3586 13.7618 91.2581 13.8526C93.0009 14.5449 94.7437 15.2371 96.5107 15.9415C96.4463 15.9926 96.4037 16.0323 96.3565 16.0625C95.2673 16.7669 94.1756 17.4713 93.0888 18.1781C92.9583 18.2633 92.8552 18.2754 92.7087 18.2093C91.4065 17.6235 90.0946 17.0475 88.7875 16.4665C88.2017 16.2051 87.6765 15.859 87.2674 15.3555C86.3403 14.2227 86.5243 12.935 87.7588 12.1362C88.163 11.8772 88.6229 11.686 89.0804 11.5359C91.1693 10.8557 93.2679 10.1998 95.3495 9.54137C95.5253 9.48546 95.6061 9.40703 95.64 9.21702C95.9208 7.60011 96.2088 5.97351 96.5017 4.37595C96.6576 3.51182 96.7399 2.62833 97.1601 1.83439C97.3211 1.52941 97.5135 1.23168 97.7459 0.977524C98.5785 0.05288 99.738 0.0189925 100.626 0.898131C100.924 1.19586 101.178 1.54441 101.398 1.90507C102.367 3.48568 103.32 5.07597 104.279 6.67353C104.391 6.8616 104.493 6.89936 104.7 6.84466C107.036 6.21774 109.372 5.6005 111.72 4.98327C112.204 4.8557 112.69 4.80947 113.186 4.90218C114.264 5.10357 114.736 5.92364 114.37 6.96689C114.205 7.44132 113.917 7.84071 113.596 8.22073C111.964 10.1402 110.328 12.0694 108.706 13.9816C108.573 14.1385 108.57 14.2503 108.662 14.427C109.64 16.269 110.609 18.1062 111.591 19.97C111.824 20.4105 112.003 20.8704 112.008 21.3763C112.019 22.5285 111.175 23.4725 110.03 23.642C109.389 23.7356 108.793 23.5986 108.19 23.4132C106.726 22.9606 105.262 22.5152 103.785 22.0722C103.649 22.0316 103.597 21.9776 103.572 21.8312C103.404 20.7976 103.219 19.7664 103.04 18.7329C103.035 18.7045 103.044 18.6743 103.049 18.6109C104.721 19.0732 106.389 19.5283 108.107 20.0051" fill="#343434"/>
<path fill-rule="evenodd" clip-rule="evenodd" d="M105.18 35.1109C103.859 35.109 102.542 35.1024 101.211 35.1082C101.036 35.1082 100.937 35.0581 100.84 34.9095C99.2766 32.5277 97.6936 30.141 96.1444 27.7689C96.0943 27.6934 96.0413 27.6205 95.9525 27.493C95.616 30.0587 95.2844 32.5761 94.9528 35.0935H91.4915C91.5321 34.757 91.5682 34.4302 91.6108 34.1059C91.9472 31.5159 92.2885 28.9501 92.6274 26.3602C92.9518 23.8912 93.2737 21.4223 93.6029 18.9533C93.6123 18.8805 93.6615 18.7868 93.721 18.7481C94.9119 17.9711 96.1077 17.2014 97.3034 16.4316C97.3206 16.4202 97.345 16.4193 97.4065 16.4014C97.0459 19.1608 96.6876 21.896 96.327 24.6312C96.3412 24.6406 96.3553 24.651 96.3696 24.6605C98.2455 22.5837 100.121 20.4972 102.034 18.3913C102.089 18.7108 102.137 18.9843 102.184 19.2578C102.318 20.0397 102.448 20.8263 102.591 21.6082C102.62 21.766 102.577 21.8623 102.472 21.9737C101.26 23.242 100.052 24.5152 98.8416 25.7981C98.7886 25.854 98.7385 25.9116 98.678 25.978C98.7167 26.0392 98.7499 26.099 98.7886 26.1537C100.873 29.0825 102.952 32.0114 105.034 34.9402C105.071 34.9932 105.126 35.0349 105.173 35.0821V35.1283" fill="#343434"/>
<path fill-rule="evenodd" clip-rule="evenodd" d="M64.2733 27.3647C64.2203 27.096 64.1825 26.699 64.0625 26.3287C63.4815 24.5399 61.6492 23.5693 59.7539 24.0025C57.6698 24.4867 56.1715 26.1254 55.9779 28.2627C55.8181 29.836 56.6653 31.361 58.2387 31.9177C59.507 32.3752 60.7318 32.184 61.8695 31.5038C63.3726 30.6033 64.1859 29.2648 64.29 27.3647H64.2733ZM55.1237 34.0211C55.0215 34.7909 54.9233 35.5146 54.8284 36.2408C54.7018 37.2041 54.5742 38.1699 54.4532 39.1454C54.4392 39.258 54.405 39.3081 54.284 39.3071C53.3327 39.3035 52.3815 39.3044 51.4278 39.3025C51.406 39.3025 51.3842 39.2911 51.3331 39.2761C51.3907 38.8211 51.4467 38.3636 51.5062 37.9085C51.7161 36.311 51.925 34.7134 52.138 33.1159C52.3824 31.2859 52.5737 29.4608 52.8859 27.6454C53.4378 24.4261 56.1778 21.6667 59.3729 20.9648C61.2295 20.563 63.0037 20.7491 64.6255 21.795C66.2424 22.8358 67.1671 24.3608 67.3849 26.2488C67.685 28.9356 66.695 31.1625 64.7949 33.0263C63.5411 34.239 62.0355 35.0087 60.3169 35.2701C58.533 35.5388 56.8556 35.2418 55.3548 34.1906C55.2999 34.1518 55.2404 34.118 55.146 34.0584" fill="#343434"/>
<path fill-rule="evenodd" clip-rule="evenodd" d="M53.5261 18.7719C52.461 19.5659 51.4323 20.3308 50.4036 21.0981C50.2373 20.8366 50.0889 20.5752 49.9146 20.3308C49.4668 19.7038 48.9101 19.2367 48.1017 19.181C47.4288 19.1336 46.8527 19.3548 46.3952 19.8515C45.9861 20.2944 45.9329 20.9262 46.3148 21.4273C46.736 21.9791 47.1959 22.502 47.6679 23.0127C48.4497 23.8599 49.2655 24.6732 50.04 25.5301C50.7444 26.3046 51.3084 27.1712 51.4827 28.2411C51.6899 29.4997 51.4384 30.6858 50.8436 31.7992C49.7423 33.8446 48.0116 35.0428 45.7121 35.4058C44.7003 35.5692 43.6934 35.5373 42.7107 35.2468C41.4011 34.8619 40.4886 34.0027 39.9028 32.8021C39.6959 32.3736 39.5373 31.921 39.351 31.4611C40.4959 30.8487 41.6117 30.2508 42.7397 29.6481C42.7784 29.7418 42.8067 29.8202 42.8428 29.895C43.0357 30.2799 43.1938 30.6889 43.431 31.0448C44.1402 32.0977 45.2827 32.4172 46.4325 31.8968C46.7302 31.7625 47.0182 31.5749 47.2627 31.357C48.0082 30.6938 48.1486 29.7691 47.5967 28.9365C47.2797 28.4572 46.8827 28.0264 46.4954 27.5979C45.5708 26.5716 44.6074 25.5768 43.7118 24.5238C43.0897 23.8025 42.6661 22.965 42.5306 22.0065C42.3841 20.9511 42.595 19.9587 43.143 19.0776C44.5057 16.8725 46.4833 15.7373 49.0975 15.8099C50.5909 15.8639 51.7843 16.5627 52.7041 17.7246C52.9776 18.0683 53.2342 18.4241 53.5125 18.7969" fill="#343434"/>
<path fill-rule="evenodd" clip-rule="evenodd" d="M78.7965 30.5116C78.6225 31.8405 78.4576 33.1016 78.2882 34.3603C78.2788 34.4247 78.2287 34.5116 78.1747 34.5363C75.5847 35.732 72.196 35.565 70.0901 33.159C68.9524 31.8664 68.4756 30.3269 68.5458 28.6326C68.7111 24.6871 71.9829 21.2257 75.9042 20.7416C78.1916 20.4608 80.1886 21.0781 81.7377 22.8572C82.7931 24.0674 83.282 25.5198 83.2094 27.1173C83.1622 28.1727 82.9966 29.2208 82.8657 30.264C82.6793 31.7502 82.476 33.2413 82.2799 34.7178C82.2724 34.7696 82.262 34.8226 82.2496 34.8899H79.1756C79.2162 34.5486 79.254 34.2146 79.2976 33.8805C79.5207 32.1644 79.7671 30.4434 79.9632 28.7248C80.0852 27.6549 80.0085 26.5923 79.5178 25.6023C78.9974 24.5494 78.126 23.9902 76.9763 23.8692C74.5993 23.6175 72.3288 25.2683 71.8447 27.5968C71.5107 29.1411 72.0377 30.6225 73.268 31.4455C74.4662 32.2418 75.737 32.2442 77.044 31.7287C77.7073 31.4673 78.2688 31.0509 78.8062 30.4918" fill="#343434"/>
<path fill-rule="evenodd" clip-rule="evenodd" d="M91.8673 21.1444C91.7265 22.2143 91.5865 23.2672 91.4462 24.3395C90.7926 24.3395 90.1536 24.3359 89.5146 24.3405C88.9966 24.3444 88.5246 24.6794 88.3672 25.1635C88.3067 25.3525 88.2842 25.5556 88.2576 25.7541C87.9332 28.223 87.6113 30.6678 87.2894 33.1125C87.208 33.7322 87.1296 34.3518 87.0483 34.9812H83.829C83.8885 34.5092 83.9452 34.0517 84.0047 33.5942C84.2136 32.0015 84.4235 30.3991 84.6341 28.8258C84.8166 27.4485 84.9802 26.0664 85.1956 24.6866C85.4837 22.847 87.3136 21.2011 89.1653 21.1285C90.0512 21.0897 90.9395 21.1219 91.8521 21.1219" fill="#343434"/>
<path d="M109.053 35.1105V33.755H109.046L108.513 35.1105H108.344L107.812 33.755H107.803V35.1105H107.537V33.4863H107.951L108.435 34.7208L108.912 33.4863H109.323V35.1105H109.053ZM106.696 33.7042V35.1105H106.429V33.7042H105.921V33.4866H107.206V33.7042H106.698" fill="#343434"/>
<path d="M57.8105 16.4966H58.6068L58.4185 15.2911L57.8105 16.4966ZM58.7327 17.276H57.4087L56.9875 18.1014H56.0483L58.1179 14.2285H59.0232L59.7276 18.1014H58.8586L58.7337 17.276" fill="#343434"/>
<path d="M63.4746 15.0201H63.0026L62.8438 15.9132H63.3158C63.6014 15.9132 63.8265 15.7261 63.8265 15.3735C63.8265 15.1399 63.6847 15.0201 63.4731 15.0201H63.4746ZM62.3321 14.2407H63.5714C64.2201 14.2407 64.6727 14.6279 64.6727 15.2912C64.6727 16.1287 64.0821 16.6902 63.2398 16.6902H62.7048L62.4531 18.1063H61.6447L62.3272 14.2334" fill="#343434"/>
<path d="M67.42 16.4966H68.2163L68.0282 15.2911L67.42 16.4966ZM68.3398 17.276H67.0157L66.5946 18.1014H65.6554L67.725 14.2285H68.6302L69.3346 18.1014H68.4656L68.3407 17.276" fill="#343434"/>
<path d="M73.4714 17.9736C73.1979 18.0985 72.8977 18.1731 72.5951 18.1731C71.5713 18.1731 70.9298 17.4058 70.9298 16.4448C70.9298 15.2152 71.9634 14.1816 73.193 14.1816C73.5004 14.1816 73.7788 14.2555 74.0063 14.3801L73.8928 15.3072C73.7226 15.1191 73.4474 14.9877 73.1085 14.9877C72.4042 14.9877 71.7772 15.6243 71.7772 16.3625C71.7772 16.9241 72.1306 17.3646 72.6874 17.3646C73.0287 17.3646 73.3578 17.2332 73.5805 17.0524L73.4728 17.9722" fill="#343434"/>
<path d="M78.5544 16.545H76.8722L76.5986 18.1014H75.7926L76.4752 14.2285H77.2837L77.0126 15.7583H78.6948L78.9683 14.2285H79.7768L79.0942 18.1014H78.2858L78.5569 16.545" fill="#343434"/>
<path d="M81.4591 18.0945L82.1417 14.2217H84.2863L84.15 15.0011H82.8139L82.6776 15.7515H83.9048L83.7685 16.5309H82.5413L82.4051 17.3103H83.7412L83.6049 18.0897H81.4603" fill="#343434"/>
</g>
</svg>
