<svg width="163" height="40" viewBox="0 0 163 40" fill="none" xmlns="http://www.w3.org/2000/svg">
<g style="mix-blend-mode:luminosity">
<path d="M50.2737 5.62083V3.5241H48.3263V5.62083H47.3785V0.589961H48.3588V2.69968H50.3062V0.589961H51.2864V5.62083H50.2737ZM54.8177 5.62083H54.0388L53.9674 5.37416C53.6376 5.58612 53.2557 5.70293 52.8638 5.71171C52.1757 5.71171 51.8771 5.25731 51.8771 4.63413C51.8771 3.89411 52.2082 3.61498 52.9807 3.61498H53.8895V3.21251C53.8895 2.81004 53.7726 2.66722 53.1689 2.66722C52.8178 2.67051 52.4678 2.70747 52.1238 2.77758L51.994 2.08949C52.4177 1.97792 52.854 1.9212 53.2923 1.92071C54.4802 1.92071 54.8307 2.32318 54.8307 3.219L54.8177 5.62083ZM53.8895 4.25114H53.1884C52.8768 4.25114 52.7924 4.33553 52.7924 4.60817C52.7924 4.88081 52.8768 4.97169 53.1754 4.97169C53.4252 4.96784 53.6703 4.90323 53.8895 4.78344V4.25114ZM56.8171 5.71171C56.3767 5.70469 55.9395 5.63475 55.5188 5.50399L55.6486 4.8094C56.0147 4.90961 56.3922 4.96197 56.7717 4.9652C57.1936 4.9652 57.252 4.87432 57.252 4.60168C57.252 4.32904 57.2066 4.26412 56.6029 4.1278C55.6811 3.91358 55.5708 3.68638 55.5708 2.98531C55.5708 2.28423 55.8888 1.91422 56.9729 1.91422C57.3552 1.91555 57.7362 1.95909 58.1089 2.04405L58.018 2.7646C57.6749 2.70388 57.3277 2.66916 56.9794 2.66073C56.5704 2.66073 56.499 2.75161 56.499 2.97232C56.499 3.19303 56.499 3.28391 57.0313 3.41374C58.0894 3.67989 58.1868 3.81621 58.1868 4.56273C58.1868 5.30924 57.9596 5.71171 56.8171 5.71171ZM61.1534 5.64031V3.11513C61.1534 2.92039 61.069 2.82302 60.8483 2.82302C60.5037 2.85593 60.1686 2.95512 59.8616 3.11513V5.62083H58.9138V0.518555L59.8616 0.661367V2.26475C60.293 2.05278 60.764 1.93338 61.2443 1.91422C61.8934 1.91422 62.1011 2.33616 62.1011 2.98531V5.62083L61.1534 5.64031ZM62.8931 1.49876V0.589961H63.8409V1.47929L62.8931 1.49876ZM62.8931 5.64031V1.99211H63.8409V5.62083L62.8931 5.64031ZM64.5939 2.04405C64.5939 1.13524 65.1456 0.602944 66.4309 0.602944C66.903 0.602441 67.3736 0.656903 67.8331 0.76523L67.7227 1.57666C67.305 1.49953 66.8817 1.45611 66.4569 1.44683C65.8078 1.44683 65.5676 1.66754 65.5676 2.19984V4.08885C65.5676 4.61466 65.7818 4.84186 66.4569 4.84186C66.8817 4.83258 67.305 4.78916 67.7227 4.71203L67.8331 5.52346C67.3736 5.63179 66.903 5.68625 66.4309 5.68575C65.1327 5.68575 64.5939 5.15994 64.5939 4.24465V2.04405ZM69.9298 5.71171C68.6315 5.71171 68.2875 5.02362 68.2875 4.2836V3.34883C68.2875 2.60231 68.638 1.92071 69.9298 1.92071C71.2216 1.92071 71.5722 2.6088 71.5722 3.34883V4.26412C71.5787 5.01064 71.2281 5.71171 69.9298 5.71171ZM69.9298 2.70617C69.4235 2.70617 69.2288 2.92039 69.2288 3.35532V4.32904C69.2288 4.738 69.4235 4.97818 69.9298 4.97818C70.4362 4.97818 70.6309 4.76396 70.6309 4.32904V3.31637C70.6309 2.90741 70.4362 2.69319 69.9298 2.69319V2.70617ZM74.2402 2.7646C73.8942 2.91452 73.56 3.09029 73.2405 3.2904V5.62733H72.2927V1.99211H73.0912L73.1561 2.39458C73.4655 2.19478 73.7993 2.03552 74.1493 1.92071L74.2402 2.7646ZM78.0247 4.41342C78.0533 4.58582 78.0413 4.76251 77.9896 4.92944C77.9379 5.09637 77.848 5.24893 77.7269 5.37499C77.6059 5.50105 77.4571 5.59714 77.2925 5.65559C77.1278 5.71405 76.9517 5.73326 76.7783 5.71171C76.4404 5.70849 76.1036 5.67372 75.7721 5.60785V7.07492L74.8244 7.21773V2.02457H75.5774L75.6683 2.32967C76.0165 2.08003 76.4343 1.94606 76.8627 1.94667C77.6222 1.94667 78.0247 2.3816 78.0247 3.20601V4.41342ZM75.7657 4.82239C76.041 4.8818 76.3214 4.91441 76.6031 4.91976C76.9471 4.91976 77.0769 4.76396 77.0769 4.4329V3.13461C77.0769 2.836 76.9601 2.67372 76.6095 2.67372C76.2988 2.68509 76.0012 2.80184 75.7657 3.00478V4.82239ZM53.1494 13.2028H47.3785V9.75589H62.8347V13.2028H57.0573V30.4247H53.1624L53.1494 13.2028Z" fill="#343434"/>
<path d="M66.3982 27.6329C67.9657 27.625 69.5233 27.3844 71.0201 26.9189L71.6109 29.7751C69.8289 30.4172 67.9483 30.7423 66.0542 30.7358C61.309 30.7358 59.6602 28.5352 59.6602 24.8935V20.9013C59.6602 17.7076 61.0883 15.0071 65.9309 15.0071C70.7735 15.0071 71.8575 17.8309 71.8575 21.0896V24.3353H63.4187V25.1143C63.4511 26.9189 64.1003 27.6329 66.3982 27.6329ZM63.4511 21.2908H68.2613V20.5248C68.2613 19.0967 67.8264 18.1035 65.9633 18.1035C64.1003 18.1035 63.4511 19.0967 63.4511 20.5248V21.2908ZM81.9776 18.48C80.5835 19.1088 79.2401 19.8445 77.9595 20.6806V30.4177H74.175V15.3122H77.3687L77.6154 16.987C78.8467 16.1534 80.1824 15.4855 81.5882 15.0006L81.9776 18.48ZM91.2214 18.48C89.8317 19.1094 88.4926 19.8451 87.2162 20.6806V30.4177H83.4317V15.3122H86.6255L86.8722 16.987C88.1035 16.1534 89.4392 15.4855 90.8449 15.0006L91.2214 18.48ZM103.886 30.4242H100.783L100.504 29.3986C99.1654 30.2697 97.6028 30.7342 96.0056 30.7358C93.2467 30.7358 92.0653 28.8403 92.0653 26.2373C92.0653 23.1668 93.4025 21.9854 96.473 21.9854H100.102V20.4015C100.102 18.7267 99.6343 18.136 97.213 18.136C95.8052 18.1518 94.4026 18.3084 93.026 18.6034L92.5586 15.7147C94.2502 15.2466 95.9967 15.0065 97.7518 15.0006C102.497 15.0006 103.899 16.6754 103.899 20.4599L103.886 30.4242ZM100.102 24.7118H97.3104C96.0705 24.7118 95.7265 25.0558 95.7265 26.1983C95.7265 27.3408 96.0705 27.7173 97.2455 27.7173C98.2479 27.7021 99.2303 27.4341 100.102 26.9383V24.7118ZM115.519 11.8653C114.804 11.7117 114.075 11.629 113.344 11.6186C111.858 11.6186 111.637 12.2677 111.637 13.4167V15.3122H115.486L115.272 18.3242H111.643V30.4242H107.859V18.3242H105.438V15.3122H107.859V13.2025C107.859 10.0672 109.319 8.51571 112.669 8.51571C113.766 8.51156 114.858 8.6579 115.915 8.95064L115.519 11.8653ZM122.906 30.7358C117.713 30.7358 116.33 27.8796 116.33 24.7767V20.9598C116.33 17.8569 117.726 15.0006 122.906 15.0006C128.086 15.0006 129.482 17.8569 129.482 20.9598V24.7767C129.488 27.8796 128.086 30.7358 122.906 30.7358ZM122.906 18.2269C120.887 18.2269 120.115 19.1292 120.115 20.8234V24.8871C120.115 26.5943 120.894 27.4836 122.906 27.4836C124.918 27.4836 125.697 26.5813 125.697 24.8871V20.8364C125.697 19.1292 124.925 18.2269 122.906 18.2269ZM139.225 18.48C137.836 19.1094 136.497 19.8451 135.22 20.6806V30.4177H131.436V15.3122H134.63L134.876 16.987C136.107 16.1533 137.443 15.4854 138.849 15.0006L139.225 18.48ZM149.625 30.4242V19.8757C149.625 19.0707 149.281 18.6683 148.417 18.6683C147.03 18.833 145.69 19.2745 144.477 19.9666V30.4242H140.692V15.3122H143.581L143.951 16.6105C145.838 15.6564 147.903 15.108 150.014 15.0006C150.598 14.9456 151.185 15.0711 151.696 15.3601C152.207 15.6491 152.617 16.0878 152.87 16.617C154.759 15.649 156.833 15.0977 158.953 15.0006C161.465 15.0006 162.367 16.7663 162.367 19.4667V30.4242H158.583V19.8757C158.583 19.0707 158.239 18.6683 157.375 18.6683C155.986 18.8213 154.644 19.2636 153.435 19.9666V30.4242H149.625Z" fill="#343434"/>
<path d="M23.6917 13.6295V25.9178L34.3376 19.7769V7.47559L23.6917 13.6295Z" fill="#343434"/>
<path d="M11.8772 7.47559L22.5232 13.6295V25.9178L11.8772 19.7704V7.47559Z" fill="#686868"/>
<path d="M0.0628662 0.616211V12.911L10.7088 19.0584V6.76361L0.0628662 0.616211ZM11.8773 33.4175L22.5233 39.5649V27.2701L11.8773 21.1227V33.4175Z" fill="#686868"/>
</g>
</svg>
