<svg width="61" height="60" viewBox="0 0 61 60" fill="none" xmlns="http://www.w3.org/2000/svg">
<path d="M29.7658 22.6C29.7658 26 26.9658 28.8 23.5658 28.8C20.1658 28.8 17.3658 26 17.3658 22.6C17.3658 19.2 20.1658 16.4 23.5658 16.4C26.9658 16.4 29.7658 19.2 29.7658 22.6ZM23.5658 31.2C20.1658 31.2 17.3658 34 17.3658 37.4C17.3658 40.8 20.1658 43.6 23.5658 43.6C26.9658 43.6 29.7658 40.8 29.7658 37.4C29.7658 34 26.9658 31.2 23.5658 31.2ZM60.9658 30C60.9658 46.6 47.5658 60 30.9658 60C14.3658 60 0.96582 46.6 0.96582 30C0.96582 13.4 14.3658 0 30.9658 0C47.5658 0 60.9658 13.4 60.9658 30ZM52.9658 30C52.9658 17.8 43.1658 8 30.9658 8C18.7658 8 8.96582 17.8 8.96582 30C8.96582 42.2 18.7658 52 30.9658 52C43.1658 52 52.9658 42.2 52.9658 30ZM38.3658 31.2C34.9658 31.2 32.1658 34 32.1658 37.4C32.1658 40.8 34.9658 43.6 38.3658 43.6C41.7658 43.6 44.5658 40.8 44.5658 37.4C44.5658 34 41.7658 31.2 38.3658 31.2ZM38.3658 16.4C34.9658 16.4 32.1658 19.2 32.1658 22.6C32.1658 26 34.9658 28.8 38.3658 28.8C41.7658 28.8 44.5658 26 44.5658 22.6C44.5658 19.2 41.7658 16.4 38.3658 16.4Z" fill="#F22F46"/>
</svg>
