<svg width="61" height="60" viewBox="0 0 61 60" fill="none" xmlns="http://www.w3.org/2000/svg">
<path id="Vector" d="M29.7668 22.6C29.7668 26 26.9668 28.8 23.5668 28.8C20.1668 28.8 17.3668 26 17.3668 22.6C17.3668 19.2 20.1668 16.4 23.5668 16.4C26.9668 16.4 29.7668 19.2 29.7668 22.6ZM23.5668 31.2C20.1668 31.2 17.3668 34 17.3668 37.4C17.3668 40.8 20.1668 43.6 23.5668 43.6C26.9668 43.6 29.7668 40.8 29.7668 37.4C29.7668 34 26.9668 31.2 23.5668 31.2ZM60.9668 30C60.9668 46.6 47.5668 60 30.9668 60C14.3668 60 0.966797 46.6 0.966797 30C0.966797 13.4 14.3668 0 30.9668 0C47.5668 0 60.9668 13.4 60.9668 30ZM52.9668 30C52.9668 17.8 43.1668 8 30.9668 8C18.7668 8 8.9668 17.8 8.9668 30C8.9668 42.2 18.7668 52 30.9668 52C43.1668 52 52.9668 42.2 52.9668 30ZM38.3668 31.2C34.9668 31.2 32.1668 34 32.1668 37.4C32.1668 40.8 34.9668 43.6 38.3668 43.6C41.7668 43.6 44.5668 40.8 44.5668 37.4C44.5668 34 41.7668 31.2 38.3668 31.2ZM38.3668 16.4C34.9668 16.4 32.1668 19.2 32.1668 22.6C32.1668 26 34.9668 28.8 38.3668 28.8C41.7668 28.8 44.5668 26 44.5668 22.6C44.5668 19.2 41.7668 16.4 38.3668 16.4Z" fill="#F22F46"/>
</svg>
