<svg width="60" height="60" viewBox="0 0 60 60" fill="none" xmlns="http://www.w3.org/2000/svg">
<path d="M28.8 22.6C28.8 26 26 28.8 22.6 28.8C19.2 28.8 16.4 26 16.4 22.6C16.4 19.2 19.2 16.4 22.6 16.4C26 16.4 28.8 19.2 28.8 22.6ZM22.6 31.2C19.2 31.2 16.4 34 16.4 37.4C16.4 40.8 19.2 43.6 22.6 43.6C26 43.6 28.8 40.8 28.8 37.4C28.8 34 26 31.2 22.6 31.2ZM60 30C60 46.6 46.6 60 30 60C13.4 60 0 46.6 0 30C0 13.4 13.4 0 30 0C46.6 0 60 13.4 60 30ZM52 30C52 17.8 42.2 8 30 8C17.8 8 8 17.8 8 30C8 42.2 17.8 52 30 52C42.2 52 52 42.2 52 30ZM37.4 31.2C34 31.2 31.2 34 31.2 37.4C31.2 40.8 34 43.6 37.4 43.6C40.8 43.6 43.6 40.8 43.6 37.4C43.6 34 40.8 31.2 37.4 31.2ZM37.4 16.4C34 16.4 31.2 19.2 31.2 22.6C31.2 26 34 28.8 37.4 28.8C40.8 28.8 43.6 26 43.6 22.6C43.6 19.2 40.8 16.4 37.4 16.4Z" fill="#F22F46"/>
</svg>
