<svg width="61" height="60" viewBox="0 0 61 60" fill="none" xmlns="http://www.w3.org/2000/svg">
<g clip-path="url(#clip0_1925_47126)">
<path d="M54.1748 0H5.89355C2.65751 0 0.0341797 2.62333 0.0341797 5.85938V54.1406C0.0341797 57.3767 2.65751 60 5.89355 60H54.1748C57.4108 60 60.0342 57.3767 60.0342 54.1406V5.85938C60.0342 2.62333 57.4108 0 54.1748 0Z" fill="#3178C6"/>
<path d="M54.1748 0H5.89355C2.65751 0 0.0341797 2.62333 0.0341797 5.85938V54.1406C0.0341797 57.3767 2.65751 60 5.89355 60H54.1748C57.4108 60 60.0342 57.3767 60.0342 54.1406V5.85938C60.0342 2.62333 57.4108 0 54.1748 0Z" fill="#3178C6"/>
<path fill-rule="evenodd" clip-rule="evenodd" d="M37.1755 47.745V53.6115C38.1291 54.1004 39.2571 54.467 40.5593 54.7114C41.8614 54.9559 43.2338 55.0781 44.6766 55.0781C46.0828 55.0781 47.4185 54.9437 48.684 54.6748C49.9495 54.4059 51.0591 53.9629 52.0128 53.3456C52.9665 52.7285 53.7215 51.9218 54.2778 50.9257C54.8341 49.9296 55.1123 48.6983 55.1123 47.2317C55.1123 46.1684 54.9534 45.2365 54.6355 44.436C54.3175 43.6355 53.8591 42.9236 53.2599 42.3002C52.6609 41.6769 51.9425 41.1177 51.105 40.6227C50.2674 40.1277 49.3229 39.6602 48.2714 39.2203C47.5011 38.9025 46.8103 38.5939 46.1989 38.2945C45.5875 37.995 45.0679 37.6895 44.64 37.3779C44.212 37.0662 43.8819 36.7362 43.6496 36.3879C43.4173 36.0395 43.3011 35.6454 43.3011 35.2054C43.3011 34.8021 43.405 34.4385 43.6129 34.1146C43.8208 33.7907 44.1143 33.5127 44.4932 33.2804C44.8723 33.0483 45.3369 32.8679 45.8871 32.7396C46.4374 32.6113 47.0486 32.5472 47.7212 32.5472C48.2102 32.5472 48.7268 32.5839 49.2709 32.6571C49.815 32.7305 50.3621 32.8436 50.9124 32.9962C51.4626 33.1491 51.9975 33.3416 52.5172 33.5738C53.0368 33.806 53.5167 34.0748 53.9568 34.3805V28.8989C53.0643 28.5567 52.0892 28.3031 51.0316 28.1381C49.974 27.9731 48.7604 27.8906 47.3911 27.8906C45.9971 27.8906 44.6766 28.0404 43.4295 28.3398C42.1824 28.6392 41.0851 29.1067 40.1374 29.7422C39.1898 30.3778 38.441 31.1875 37.8908 32.1714C37.3406 33.1552 37.0654 34.3315 37.0654 35.7004C37.0654 37.4481 37.5698 38.9392 38.5786 40.1736C39.5872 41.408 41.1186 42.4529 43.1728 43.3085C43.9797 43.6385 44.7317 43.9623 45.4286 44.2801C46.1255 44.5979 46.7278 44.9279 47.2351 45.2701C47.7425 45.6123 48.1429 45.9851 48.4365 46.3884C48.7299 46.7917 48.8766 47.25 48.8766 47.7634C48.8766 48.1423 48.7849 48.4936 48.6015 48.8175C48.4181 49.1414 48.1399 49.4224 47.767 49.6608C47.3941 49.8991 46.9295 50.0855 46.3732 50.2199C45.8168 50.3544 45.1658 50.4216 44.4199 50.4216C43.1483 50.4216 41.889 50.1986 40.6418 49.7524C39.3946 49.3064 38.2392 48.6373 37.1755 47.745ZM27.3131 33.2909H34.8389V28.4766H13.8623V33.2909H21.3513V54.7266H27.3131V33.2909Z" fill="white"/>
</g>
<defs>
<clipPath id="clip0_1925_47126">
<rect width="60" height="60" fill="white" transform="translate(0.0341797)"/>
</clipPath>
</defs>
</svg>
