<svg width="61" height="60" viewBox="0 0 61 60" fill="none" xmlns="http://www.w3.org/2000/svg">
<g id="Typescript_logo_2020 1" clip-path="url(#clip0_2146_14993)">
<path id="Vector" d="M54.1758 0H5.89453C2.65849 0 0.0351562 2.62333 0.0351562 5.85938V54.1406C0.0351562 57.3767 2.65849 60 5.89453 60H54.1758C57.4118 60 60.0352 57.3767 60.0352 54.1406V5.85938C60.0352 2.62333 57.4118 0 54.1758 0Z" fill="#3178C6"/>
<path id="Vector_2" d="M54.1758 0H5.89453C2.65849 0 0.0351562 2.62333 0.0351562 5.85938V54.1406C0.0351562 57.3767 2.65849 60 5.89453 60H54.1758C57.4118 60 60.0352 57.3767 60.0352 54.1406V5.85938C60.0352 2.62333 57.4118 0 54.1758 0Z" fill="#3178C6"/>
<path id="Vector_3" fill-rule="evenodd" clip-rule="evenodd" d="M37.1764 47.745V53.6115C38.1301 54.1004 39.258 54.467 40.5602 54.7114C41.8624 54.9559 43.2348 55.0781 44.6776 55.0781C46.0838 55.0781 47.4195 54.9437 48.685 54.6748C49.9505 54.4059 51.0601 53.9629 52.0138 53.3456C52.9675 52.7285 53.7225 51.9218 54.2788 50.9257C54.8351 49.9296 55.1133 48.6983 55.1133 47.2317C55.1133 46.1684 54.9544 45.2365 54.6364 44.436C54.3185 43.6355 53.8601 42.9236 53.2609 42.3002C52.6618 41.6769 51.9435 41.1177 51.1059 40.6227C50.2684 40.1277 49.3239 39.6602 48.2723 39.2203C47.5021 38.9025 46.8112 38.5939 46.1999 38.2945C45.5885 37.995 45.0689 37.6895 44.6409 37.3779C44.213 37.0662 43.8829 36.7362 43.6506 36.3879C43.4183 36.0395 43.3021 35.6454 43.3021 35.2054C43.3021 34.8021 43.406 34.4385 43.6139 34.1146C43.8218 33.7907 44.1152 33.5127 44.4942 33.2804C44.8733 33.0483 45.3379 32.8679 45.888 32.7396C46.4384 32.6113 47.0496 32.5472 47.7221 32.5472C48.2112 32.5472 48.7277 32.5839 49.2718 32.6571C49.8159 32.7305 50.3631 32.8436 50.9134 32.9962C51.4636 33.1491 51.9984 33.3416 52.5182 33.5738C53.0378 33.806 53.5177 34.0748 53.9578 34.3805V28.8989C53.0653 28.5567 52.0902 28.3031 51.0326 28.1381C49.975 27.9731 48.7614 27.8906 47.392 27.8906C45.9981 27.8906 44.6776 28.0404 43.4305 28.3398C42.1834 28.6392 41.0861 29.1067 40.1384 29.7422C39.1908 30.3778 38.442 31.1875 37.8918 32.1714C37.3416 33.1552 37.0664 34.3315 37.0664 35.7004C37.0664 37.4481 37.5708 38.9392 38.5795 40.1736C39.5882 41.408 41.1196 42.4529 43.1737 43.3085C43.9807 43.6385 44.7327 43.9623 45.4296 44.2801C46.1265 44.5979 46.7288 44.9279 47.2361 45.2701C47.7435 45.6123 48.1439 45.9851 48.4375 46.3884C48.7309 46.7917 48.8776 47.25 48.8776 47.7634C48.8776 48.1423 48.7859 48.4936 48.6025 48.8175C48.4191 49.1414 48.1409 49.4224 47.768 49.6608C47.3951 49.8991 46.9304 50.0855 46.3741 50.2199C45.8177 50.3544 45.1668 50.4216 44.4209 50.4216C43.1493 50.4216 41.89 50.1986 40.6427 49.7524C39.3956 49.3064 38.2402 48.6373 37.1764 47.745ZM27.3141 33.2909H34.8398V28.4766H13.8633V33.2909H21.3523V54.7266H27.3141V33.2909Z" fill="white"/>
</g>
<defs>
<clipPath id="clip0_2146_14993">
<rect width="60" height="60" fill="white" transform="translate(0.0351562)"/>
</clipPath>
</defs>
</svg>
