<svg width="64" height="64" viewBox="0 0 64 64" fill="none" xmlns="http://www.w3.org/2000/svg">
<path fill-rule="evenodd" clip-rule="evenodd" d="M27.2882 9.15905C26.0957 7.96652 24.1622 7.96651 22.9697 9.15905L2.15905 29.9697C0.966515 31.1622 0.966514 33.0957 2.15905 34.2882L22.9697 55.0989C24.1622 56.2914 26.0957 56.2914 27.2882 55.0989L48.0989 34.2882C49.2914 33.0957 49.2914 31.1622 48.0989 29.9697L27.2882 9.15905ZM26.3779 14.0369C25.5829 13.2419 24.2939 13.2419 23.4989 14.0369L6.91072 30.6251C6.11569 31.4202 6.11569 32.7091 6.91072 33.5042L23.4989 50.0923C24.2939 50.8874 25.5829 50.8874 26.3779 50.0923L42.9661 33.5042C43.7611 32.7091 43.7611 31.4202 42.9661 30.6251L26.3779 14.0369Z" fill="#26272B"/>
<rect x="38.8711" y="7" width="35.538" height="35.538" rx="3.05368" transform="rotate(45 38.8711 7)" fill="black"/>
</svg>
