<svg width="239" height="75" viewBox="0 0 239 75" fill="none" xmlns="http://www.w3.org/2000/svg">
<g clip-path="url(#clip0_1004_12212)">
<rect x="-0.5" width="239" height="75" rx="5" fill="black"/>
<path fill-rule="evenodd" clip-rule="evenodd" d="M55.5 46.3064C54.7343 48.0055 54.3688 48.7639 53.3828 50.2651C52.0091 52.3614 50.071 54.9725 47.6693 54.9946C45.5359 55.0146 44.9876 53.6034 42.0915 53.6204C39.1953 53.6374 38.5917 55.0197 36.4583 54.9998C34.0566 54.9784 32.2217 52.6206 30.8465 50.5228C27.0027 44.6598 26.6011 37.7799 28.9718 34.1226C30.6564 31.5219 33.3153 30.0022 35.8142 30.0022C38.3589 30.0022 39.9588 31.4 42.0634 31.4C44.1048 31.4 45.348 30 48.2906 30C50.5146 30 52.8713 31.2132 54.5508 33.3096C49.0481 36.3304 49.9428 44.2012 55.5 46.3064Z" fill="white"/>
<path fill-rule="evenodd" clip-rule="evenodd" d="M46.7918 26.397C47.9013 24.9966 48.7424 23.0209 48.4366 21C46.6243 21.1218 44.5062 22.256 43.269 23.7338C42.1457 25.0748 41.2182 27.0641 41.5791 28.9977C43.5558 29.0586 45.6028 27.8967 46.7918 26.397Z" fill="white"/>
<path d="M82.62 30.5V18.98H86.116C86.2387 18.98 86.4467 18.9827 86.74 18.988C87.0387 18.9933 87.324 19.0147 87.596 19.052C88.4707 19.1747 89.2013 19.5 89.788 20.028C90.3747 20.556 90.8147 21.228 91.108 22.044C91.4013 22.86 91.548 23.7587 91.548 24.74C91.548 25.7213 91.4013 26.62 91.108 27.436C90.8147 28.252 90.3747 28.924 89.788 29.452C89.2013 29.98 88.4707 30.3053 87.596 30.428C87.3293 30.46 87.044 30.4813 86.74 30.492C86.436 30.4973 86.228 30.5 86.116 30.5H82.62ZM83.836 29.372H86.116C86.3347 29.372 86.5693 29.3667 86.82 29.356C87.076 29.34 87.2947 29.3133 87.476 29.276C88.148 29.1587 88.6893 28.8867 89.1 28.46C89.516 28.0333 89.82 27.5 90.012 26.86C90.204 26.2147 90.3 25.508 90.3 24.74C90.3 23.9667 90.204 23.2573 90.012 22.612C89.82 21.9667 89.516 21.4333 89.1 21.012C88.684 20.5907 88.1427 20.3213 87.476 20.204C87.2947 20.1667 87.0733 20.1427 86.812 20.132C86.556 20.116 86.324 20.108 86.116 20.108H83.836V29.372ZM97.298 30.74C96.4393 30.74 95.706 30.5453 95.098 30.156C94.49 29.7667 94.0233 29.228 93.698 28.54C93.3727 27.852 93.21 27.0627 93.21 26.172C93.21 25.2653 93.3753 24.4707 93.706 23.788C94.0367 23.1053 94.506 22.5747 95.114 22.196C95.7273 21.812 96.4553 21.62 97.298 21.62C98.162 21.62 98.898 21.8147 99.506 22.204C100.119 22.588 100.586 23.124 100.906 23.812C101.231 24.4947 101.394 25.2813 101.394 26.172C101.394 27.0787 101.231 27.876 100.906 28.564C100.581 29.2467 100.111 29.78 99.498 30.164C98.8847 30.548 98.1513 30.74 97.298 30.74ZM97.298 29.612C98.258 29.612 98.9727 29.2947 99.442 28.66C99.9113 28.02 100.146 27.1907 100.146 26.172C100.146 25.1267 99.9087 24.2947 99.434 23.676C98.9647 23.0573 98.2527 22.748 97.298 22.748C96.6527 22.748 96.1193 22.8947 95.698 23.188C95.282 23.476 94.97 23.8787 94.762 24.396C94.5593 24.908 94.458 25.5 94.458 26.172C94.458 27.212 94.698 28.0467 95.178 28.676C95.658 29.3 96.3647 29.612 97.298 29.612ZM105.006 30.5L102.366 21.852L103.542 21.86L105.59 28.572L107.646 21.86H108.718L110.774 28.572L112.838 21.86H114.006L111.366 30.5H110.342L108.182 23.62L106.03 30.5H105.006ZM122.007 30.5V26.092C122.007 25.612 121.962 25.172 121.871 24.772C121.781 24.3667 121.634 24.0147 121.431 23.716C121.234 23.412 120.975 23.1773 120.655 23.012C120.341 22.8467 119.957 22.764 119.503 22.764C119.087 22.764 118.719 22.836 118.399 22.98C118.085 23.124 117.818 23.332 117.599 23.604C117.386 23.8707 117.223 24.196 117.111 24.58C116.999 24.964 116.943 25.4013 116.943 25.892L116.111 25.708C116.111 24.8227 116.266 24.0787 116.575 23.476C116.885 22.8733 117.311 22.4173 117.855 22.108C118.399 21.7987 119.023 21.644 119.727 21.644C120.245 21.644 120.695 21.724 121.079 21.884C121.469 22.044 121.797 22.26 122.063 22.532C122.335 22.804 122.554 23.116 122.719 23.468C122.885 23.8147 123.005 24.1853 123.079 24.58C123.154 24.9693 123.191 25.3587 123.191 25.748V30.5H122.007ZM115.759 30.5V21.86H116.823V23.988H116.943V30.5H115.759ZM125.747 30.5V18.74H126.923V30.5H125.747ZM133.25 30.74C132.391 30.74 131.658 30.5453 131.05 30.156C130.442 29.7667 129.975 29.228 129.65 28.54C129.325 27.852 129.162 27.0627 129.162 26.172C129.162 25.2653 129.327 24.4707 129.658 23.788C129.989 23.1053 130.458 22.5747 131.066 22.196C131.679 21.812 132.407 21.62 133.25 21.62C134.114 21.62 134.85 21.8147 135.458 22.204C136.071 22.588 136.538 23.124 136.858 23.812C137.183 24.4947 137.346 25.2813 137.346 26.172C137.346 27.0787 137.183 27.876 136.858 28.564C136.533 29.2467 136.063 29.78 135.45 30.164C134.837 30.548 134.103 30.74 133.25 30.74ZM133.25 29.612C134.21 29.612 134.925 29.2947 135.394 28.66C135.863 28.02 136.098 27.1907 136.098 26.172C136.098 25.1267 135.861 24.2947 135.386 23.676C134.917 23.0573 134.205 22.748 133.25 22.748C132.605 22.748 132.071 22.8947 131.65 23.188C131.234 23.476 130.922 23.8787 130.714 24.396C130.511 24.908 130.41 25.5 130.41 26.172C130.41 27.212 130.65 28.0467 131.13 28.676C131.61 29.3 132.317 29.612 133.25 29.612ZM141.903 30.74C141.252 30.74 140.705 30.6227 140.263 30.388C139.825 30.1533 139.497 29.8413 139.279 29.452C139.06 29.0627 138.951 28.6387 138.951 28.18C138.951 27.7107 139.044 27.3107 139.231 26.98C139.423 26.644 139.681 26.3693 140.007 26.156C140.337 25.9427 140.719 25.78 141.151 25.668C141.588 25.5613 142.071 25.468 142.599 25.388C143.132 25.3027 143.652 25.2307 144.159 25.172C144.671 25.108 145.119 25.0467 145.503 24.988L145.087 25.244C145.103 24.3907 144.937 23.7587 144.591 23.348C144.244 22.9373 143.641 22.732 142.783 22.732C142.191 22.732 141.689 22.8653 141.279 23.132C140.873 23.3987 140.588 23.82 140.423 24.396L139.279 24.06C139.476 23.2867 139.873 22.6867 140.471 22.26C141.068 21.8333 141.844 21.62 142.799 21.62C143.588 21.62 144.257 21.7693 144.807 22.068C145.361 22.3613 145.753 22.788 145.983 23.348C146.089 23.5987 146.159 23.8787 146.191 24.188C146.223 24.4973 146.239 24.812 146.239 25.132V30.5H145.191V28.332L145.495 28.46C145.201 29.2013 144.745 29.7667 144.127 30.156C143.508 30.5453 142.767 30.74 141.903 30.74ZM142.039 29.724C142.588 29.724 143.068 29.6253 143.479 29.428C143.889 29.2307 144.22 28.9613 144.471 28.62C144.721 28.2733 144.884 27.884 144.959 27.452C145.023 27.1747 145.057 26.8707 145.063 26.54C145.068 26.204 145.071 25.9533 145.071 25.788L145.519 26.02C145.119 26.0733 144.684 26.1267 144.215 26.18C143.751 26.2333 143.292 26.2947 142.839 26.364C142.391 26.4333 141.985 26.516 141.623 26.612C141.377 26.6813 141.14 26.78 140.911 26.908C140.681 27.0307 140.492 27.196 140.343 27.404C140.199 27.612 140.127 27.8707 140.127 28.18C140.127 28.4307 140.188 28.6733 140.311 28.908C140.439 29.1427 140.641 29.3373 140.919 29.492C141.201 29.6467 141.575 29.724 142.039 29.724ZM151.993 30.74C151.188 30.74 150.5 30.54 149.929 30.14C149.359 29.7347 148.921 29.188 148.617 28.5C148.313 27.812 148.161 27.036 148.161 26.172C148.161 25.3133 148.311 24.54 148.609 23.852C148.913 23.164 149.348 22.62 149.913 22.22C150.479 21.82 151.156 21.62 151.945 21.62C152.756 21.62 153.439 21.8173 153.993 22.212C154.548 22.6067 154.967 23.148 155.249 23.836C155.537 24.5187 155.681 25.2973 155.681 26.172C155.681 27.0307 155.54 27.8067 155.257 28.5C154.975 29.188 154.559 29.7347 154.009 30.14C153.46 30.54 152.788 30.74 151.993 30.74ZM152.113 29.644C152.727 29.644 153.233 29.4947 153.633 29.196C154.033 28.8973 154.332 28.4867 154.529 27.964C154.727 27.436 154.825 26.8387 154.825 26.172C154.825 25.4947 154.727 24.8973 154.529 24.38C154.332 23.8573 154.033 23.4493 153.633 23.156C153.239 22.8627 152.74 22.716 152.137 22.716C151.519 22.716 151.007 22.868 150.601 23.172C150.196 23.476 149.895 23.8893 149.697 24.412C149.505 24.9347 149.409 25.5213 149.409 26.172C149.409 26.828 149.508 27.42 149.705 27.948C149.908 28.4707 150.209 28.884 150.609 29.188C151.009 29.492 151.511 29.644 152.113 29.644ZM154.825 30.5V23.996H154.697V18.98H155.881V30.5H154.825ZM165.577 30.74C164.718 30.74 163.985 30.5453 163.377 30.156C162.769 29.7667 162.302 29.228 161.977 28.54C161.651 27.852 161.489 27.0627 161.489 26.172C161.489 25.2653 161.654 24.4707 161.985 23.788C162.315 23.1053 162.785 22.5747 163.393 22.196C164.006 21.812 164.734 21.62 165.577 21.62C166.441 21.62 167.177 21.8147 167.785 22.204C168.398 22.588 168.865 23.124 169.185 23.812C169.51 24.4947 169.673 25.2813 169.673 26.172C169.673 27.0787 169.51 27.876 169.185 28.564C168.859 29.2467 168.39 29.78 167.777 30.164C167.163 30.548 166.43 30.74 165.577 30.74ZM165.577 29.612C166.537 29.612 167.251 29.2947 167.721 28.66C168.19 28.02 168.425 27.1907 168.425 26.172C168.425 25.1267 168.187 24.2947 167.713 23.676C167.243 23.0573 166.531 22.748 165.577 22.748C164.931 22.748 164.398 22.8947 163.977 23.188C163.561 23.476 163.249 23.8787 163.041 24.396C162.838 24.908 162.737 25.5 162.737 26.172C162.737 27.212 162.977 28.0467 163.457 28.676C163.937 29.3 164.643 29.612 165.577 29.612ZM177.997 30.5V26.092C177.997 25.612 177.952 25.172 177.861 24.772C177.771 24.3667 177.624 24.0147 177.421 23.716C177.224 23.412 176.965 23.1773 176.645 23.012C176.331 22.8467 175.947 22.764 175.493 22.764C175.077 22.764 174.709 22.836 174.389 22.98C174.075 23.124 173.808 23.332 173.589 23.604C173.376 23.8707 173.213 24.196 173.101 24.58C172.989 24.964 172.933 25.4013 172.933 25.892L172.101 25.708C172.101 24.8227 172.256 24.0787 172.565 23.476C172.875 22.8733 173.301 22.4173 173.845 22.108C174.389 21.7987 175.013 21.644 175.717 21.644C176.235 21.644 176.685 21.724 177.069 21.884C177.459 22.044 177.787 22.26 178.053 22.532C178.325 22.804 178.544 23.116 178.709 23.468C178.875 23.8147 178.995 24.1853 179.069 24.58C179.144 24.9693 179.181 25.3587 179.181 25.748V30.5H177.997ZM171.749 30.5V21.86H172.813V23.988H172.933V30.5H171.749ZM189.805 30.5C189.319 30.6013 188.839 30.6413 188.365 30.62C187.895 30.5987 187.474 30.4973 187.101 30.316C186.733 30.1347 186.453 29.852 186.261 29.468C186.106 29.148 186.021 28.8253 186.005 28.5C185.994 28.1693 185.989 27.7933 185.989 27.372V19.46H187.157V27.324C187.157 27.6867 187.159 27.9907 187.165 28.236C187.175 28.476 187.231 28.6893 187.333 28.876C187.525 29.2333 187.829 29.4467 188.245 29.516C188.666 29.5853 189.186 29.5693 189.805 29.468V30.5ZM184.141 22.868V21.86H189.805V22.868H184.141ZM198.067 30.5V26.092C198.067 25.612 198.022 25.172 197.931 24.772C197.84 24.3667 197.694 24.0147 197.491 23.716C197.294 23.412 197.035 23.1773 196.715 23.012C196.4 22.8467 196.016 22.764 195.563 22.764C195.147 22.764 194.779 22.836 194.459 22.98C194.144 23.124 193.878 23.332 193.659 23.604C193.446 23.8707 193.283 24.196 193.171 24.58C193.059 24.964 193.003 25.4013 193.003 25.892L192.171 25.708C192.171 24.8227 192.326 24.0787 192.635 23.476C192.944 22.8733 193.371 22.4173 193.915 22.108C194.459 21.7987 195.083 21.644 195.787 21.644C196.304 21.644 196.755 21.724 197.139 21.884C197.528 22.044 197.856 22.26 198.123 22.532C198.395 22.804 198.614 23.116 198.779 23.468C198.944 23.8147 199.064 24.1853 199.139 24.58C199.214 24.9693 199.251 25.3587 199.251 25.748V30.5H198.067ZM191.819 30.5V18.98H192.883V25.484H193.003V30.5H191.819ZM205.303 30.74C204.46 30.74 203.73 30.5533 203.111 30.18C202.498 29.8067 202.02 29.2813 201.679 28.604C201.338 27.9267 201.167 27.132 201.167 26.22C201.167 25.276 201.335 24.46 201.671 23.772C202.007 23.084 202.479 22.5533 203.087 22.18C203.7 21.8067 204.423 21.62 205.255 21.62C206.108 21.62 206.836 21.8173 207.439 22.212C208.042 22.6013 208.498 23.1613 208.807 23.892C209.116 24.6227 209.258 25.4947 209.231 26.508H208.031V26.092C208.01 24.972 207.767 24.1267 207.303 23.556C206.844 22.9853 206.172 22.7 205.287 22.7C204.359 22.7 203.647 23.0013 203.151 23.604C202.66 24.2067 202.415 25.0653 202.415 26.18C202.415 27.268 202.66 28.1133 203.151 28.716C203.647 29.3133 204.348 29.612 205.255 29.612C205.874 29.612 206.412 29.4707 206.871 29.188C207.335 28.9 207.7 28.4867 207.967 27.948L209.063 28.372C208.722 29.124 208.218 29.708 207.551 30.124C206.89 30.5347 206.14 30.74 205.303 30.74ZM201.999 26.508V25.524H208.599V26.508H201.999Z" fill="#E9F7FE"/>
<path d="M81.86 58.5L85.946 45.54H89.123L93.209 58.5H90.977L87.269 46.872H87.755L84.092 58.5H81.86ZM84.137 55.692V53.667H90.941V55.692H84.137ZM99.5072 58.77C98.5592 58.77 97.7642 58.545 97.1222 58.095C96.4802 57.645 95.9972 57.033 95.6732 56.259C95.3492 55.479 95.1872 54.606 95.1872 53.64C95.1872 52.662 95.3492 51.786 95.6732 51.012C95.9972 50.238 96.4712 49.629 97.0952 49.185C97.7252 48.735 98.5022 48.51 99.4262 48.51C100.344 48.51 101.139 48.735 101.811 49.185C102.489 49.629 103.014 50.238 103.386 51.012C103.758 51.78 103.944 52.656 103.944 53.64C103.944 54.612 103.761 55.485 103.395 56.259C103.029 57.033 102.513 57.645 101.847 58.095C101.181 58.545 100.401 58.77 99.5072 58.77ZM94.8182 62.82V48.78H96.7352V55.602H97.0052V62.82H94.8182ZM99.1742 56.826C99.7382 56.826 100.203 56.685 100.569 56.403C100.935 56.121 101.205 55.74 101.379 55.26C101.559 54.774 101.649 54.234 101.649 53.64C101.649 53.052 101.559 52.518 101.379 52.038C101.199 51.552 100.92 51.168 100.542 50.886C100.164 50.598 99.6842 50.454 99.1022 50.454C98.5502 50.454 98.1002 50.589 97.7522 50.859C97.4042 51.123 97.1462 51.495 96.9782 51.975C96.8162 52.449 96.7352 53.004 96.7352 53.64C96.7352 54.27 96.8162 54.825 96.9782 55.305C97.1462 55.785 97.4072 56.16 97.7612 56.43C98.1212 56.694 98.5922 56.826 99.1742 56.826ZM110.599 58.77C109.651 58.77 108.856 58.545 108.214 58.095C107.572 57.645 107.089 57.033 106.765 56.259C106.441 55.479 106.279 54.606 106.279 53.64C106.279 52.662 106.441 51.786 106.765 51.012C107.089 50.238 107.563 49.629 108.187 49.185C108.817 48.735 109.594 48.51 110.518 48.51C111.436 48.51 112.231 48.735 112.903 49.185C113.581 49.629 114.106 50.238 114.478 51.012C114.85 51.78 115.036 52.656 115.036 53.64C115.036 54.612 114.853 55.485 114.487 56.259C114.121 57.033 113.605 57.645 112.939 58.095C112.273 58.545 111.493 58.77 110.599 58.77ZM105.91 62.82V48.78H107.827V55.602H108.097V62.82H105.91ZM110.266 56.826C110.83 56.826 111.295 56.685 111.661 56.403C112.027 56.121 112.297 55.74 112.471 55.26C112.651 54.774 112.741 54.234 112.741 53.64C112.741 53.052 112.651 52.518 112.471 52.038C112.291 51.552 112.012 51.168 111.634 50.886C111.256 50.598 110.776 50.454 110.194 50.454C109.642 50.454 109.192 50.589 108.844 50.859C108.496 51.123 108.238 51.495 108.07 51.975C107.908 52.449 107.827 53.004 107.827 53.64C107.827 54.27 107.908 54.825 108.07 55.305C108.238 55.785 108.499 56.16 108.853 56.43C109.213 56.694 109.684 56.826 110.266 56.826ZM125.42 58.77C124.472 58.77 123.617 58.605 122.855 58.275C122.099 57.945 121.475 57.474 120.983 56.862C120.497 56.244 120.188 55.512 120.056 54.666L122.306 54.324C122.498 55.092 122.891 55.686 123.485 56.106C124.085 56.526 124.775 56.736 125.555 56.736C126.017 56.736 126.452 56.664 126.86 56.52C127.268 56.376 127.598 56.166 127.85 55.89C128.108 55.614 128.237 55.275 128.237 54.873C128.237 54.693 128.207 54.528 128.147 54.378C128.087 54.222 127.997 54.084 127.877 53.964C127.763 53.844 127.613 53.736 127.427 53.64C127.247 53.538 127.037 53.451 126.797 53.379L123.449 52.389C123.161 52.305 122.849 52.194 122.513 52.056C122.183 51.912 121.868 51.717 121.568 51.471C121.274 51.219 121.031 50.901 120.839 50.517C120.653 50.127 120.56 49.647 120.56 49.077C120.56 48.243 120.77 47.544 121.19 46.98C121.616 46.41 122.186 45.984 122.9 45.702C123.62 45.42 124.418 45.282 125.294 45.288C126.182 45.294 126.974 45.447 127.67 45.747C128.366 46.041 128.948 46.47 129.416 47.034C129.884 47.598 130.214 48.279 130.406 49.077L128.075 49.482C127.979 49.026 127.793 48.639 127.517 48.321C127.247 47.997 126.914 47.751 126.518 47.583C126.128 47.415 125.711 47.325 125.267 47.313C124.835 47.307 124.433 47.373 124.061 47.511C123.695 47.643 123.398 47.835 123.17 48.087C122.948 48.339 122.837 48.633 122.837 48.969C122.837 49.287 122.933 49.548 123.125 49.752C123.317 49.95 123.554 50.109 123.836 50.229C124.124 50.343 124.415 50.439 124.709 50.517L127.031 51.165C127.349 51.249 127.706 51.363 128.102 51.507C128.498 51.651 128.879 51.852 129.245 52.11C129.611 52.368 129.911 52.707 130.145 53.127C130.385 53.547 130.505 54.081 130.505 54.729C130.505 55.401 130.364 55.992 130.082 56.502C129.806 57.006 129.431 57.426 128.957 57.762C128.483 58.098 127.94 58.35 127.328 58.518C126.722 58.686 126.086 58.77 125.42 58.77ZM138.15 58.5C137.508 58.62 136.878 58.671 136.26 58.653C135.648 58.641 135.099 58.53 134.613 58.32C134.127 58.104 133.758 57.765 133.506 57.303C133.284 56.883 133.167 56.454 133.155 56.016C133.143 55.578 133.137 55.083 133.137 54.531V46.08H135.297V54.405C135.297 54.795 135.3 55.137 135.306 55.431C135.318 55.725 135.381 55.965 135.495 56.151C135.711 56.511 136.056 56.712 136.53 56.754C137.004 56.796 137.544 56.772 138.15 56.682V58.5ZM131.373 50.481V48.78H138.15V50.481H131.373ZM144.041 58.77C143.069 58.77 142.22 58.551 141.494 58.113C140.768 57.675 140.204 57.072 139.802 56.304C139.406 55.53 139.208 54.642 139.208 53.64C139.208 52.62 139.412 51.726 139.82 50.958C140.228 50.19 140.795 49.59 141.521 49.158C142.247 48.726 143.087 48.51 144.041 48.51C145.019 48.51 145.871 48.729 146.597 49.167C147.323 49.605 147.887 50.211 148.289 50.985C148.691 51.753 148.892 52.638 148.892 53.64C148.892 54.648 148.688 55.539 148.28 56.313C147.878 57.081 147.314 57.684 146.588 58.122C145.862 58.554 145.013 58.77 144.041 58.77ZM144.041 56.736C144.905 56.736 145.547 56.448 145.967 55.872C146.387 55.296 146.597 54.552 146.597 53.64C146.597 52.698 146.384 51.948 145.958 51.39C145.532 50.826 144.893 50.544 144.041 50.544C143.459 50.544 142.979 50.676 142.601 50.94C142.229 51.198 141.953 51.561 141.773 52.029C141.593 52.491 141.503 53.028 141.503 53.64C141.503 54.582 141.716 55.335 142.142 55.899C142.574 56.457 143.207 56.736 144.041 56.736ZM150.875 58.5V48.78H152.792V51.147L152.558 50.841C152.678 50.517 152.837 50.223 153.035 49.959C153.239 49.689 153.482 49.467 153.764 49.293C154.004 49.131 154.268 49.005 154.556 48.915C154.85 48.819 155.15 48.762 155.456 48.744C155.762 48.72 156.059 48.732 156.347 48.78V50.805C156.059 50.721 155.726 50.694 155.348 50.724C154.976 50.754 154.64 50.859 154.34 51.039C154.04 51.201 153.794 51.408 153.602 51.66C153.416 51.912 153.278 52.2 153.188 52.524C153.098 52.842 153.053 53.187 153.053 53.559V58.5H150.875ZM162.308 58.77C161.324 58.77 160.46 58.557 159.716 58.131C158.972 57.705 158.39 57.114 157.97 56.358C157.556 55.602 157.349 54.732 157.349 53.748C157.349 52.686 157.553 51.765 157.961 50.985C158.369 50.199 158.936 49.59 159.662 49.158C160.388 48.726 161.228 48.51 162.182 48.51C163.19 48.51 164.045 48.747 164.747 49.221C165.455 49.689 165.98 50.352 166.322 51.21C166.664 52.068 166.793 53.079 166.709 54.243H164.558V53.451C164.552 52.395 164.366 51.624 164 51.138C163.634 50.652 163.058 50.409 162.272 50.409C161.384 50.409 160.724 50.685 160.292 51.237C159.86 51.783 159.644 52.584 159.644 53.64C159.644 54.624 159.86 55.386 160.292 55.926C160.724 56.466 161.354 56.736 162.182 56.736C162.716 56.736 163.175 56.619 163.559 56.385C163.949 56.145 164.249 55.8 164.459 55.35L166.601 55.998C166.229 56.874 165.653 57.555 164.873 58.041C164.099 58.527 163.244 58.77 162.308 58.77ZM158.96 54.243V52.605H165.647V54.243H158.96Z" fill="white"/>
</g>
<defs>
<clipPath id="clip0_1004_12212">
<rect width="239" height="75" fill="white"/>
</clipPath>
</defs>
</svg>
