<svg width="46" height="46" viewBox="0 0 46 46" fill="none" xmlns="http://www.w3.org/2000/svg">
<rect x="0.5" y="0.5" width="45" height="45" rx="22.5" fill="#39E991"/>
<path d="M23.0007 15.083C18.6386 15.083 15.084 18.6376 15.084 22.9997C15.084 27.3618 18.6386 30.9163 23.0007 30.9163C27.3627 30.9163 30.9173 27.3618 30.9173 22.9997C30.9173 18.6376 27.3627 15.083 23.0007 15.083ZM26.7848 21.1788L22.2961 25.6676C22.1852 25.7784 22.0348 25.8418 21.8765 25.8418C21.7182 25.8418 21.5677 25.7784 21.4569 25.6676L19.2165 23.4272C18.9869 23.1976 18.9869 22.8176 19.2165 22.588C19.4461 22.3584 19.8261 22.3584 20.0557 22.588L21.8765 24.4088L25.9457 20.3397C26.1752 20.1101 26.5552 20.1101 26.7848 20.3397C27.0144 20.5693 27.0144 20.9413 26.7848 21.1788Z" fill="white"/>
</svg>
